<svg id="Layer_3" enable-background="new 0 0 64 64" height="512" viewBox="0 0 64 64" width="512" xmlns="http://www.w3.org/2000/svg"><circle cx="50" cy="14" fill="#c16b3f" r="12"/><path d="m38 14c0 3.488 1.497 6.619 3.873 8.811.694.115 1.401.189 2.127.189 7.18 0 13-5.82 13-13 0-2.536-.738-4.895-1.994-6.895-1.525-.703-3.217-1.105-5.006-1.105-6.627 0-12 5.373-12 12z" fill="#e39854"/><circle cx="14" cy="14" fill="#a1cdfb" r="12"/><path d="m2 14c0 3.488 1.497 6.619 3.873 8.811.694.115 1.401.189 2.127.189 7.18 0 13-5.82 13-13 0-2.536-.738-4.895-1.994-6.895-1.525-.703-3.217-1.105-5.006-1.105-6.627 0-12 5.373-12 12z" fill="#c7e2fc"/><circle cx="50" cy="39" fill="#e39854" r="2"/><circle cx="54" cy="32" fill="#e39854" r="3"/><circle cx="14" cy="39" fill="#a1cdfb" r="2"/><circle cx="10" cy="32" fill="#a1cdfb" r="3"/><path d="m47 62v-4c0-5.523-4.477-10-10-10h-10c-5.523 0-10 4.477-10 10v4" fill="#669e4f"/><path d="m23 60c8.471 0 15.64-4.67 18.092-11.118-1.25-.562-2.633-.882-4.092-.882h-10c-5.523 0-10 4.477-10 10v1.173c1.888.529 3.901.827 6 .827z" fill="#78b75b"/><g fill="#db9b7c"><path d="m28 48c0 2.209 1.791 4 4 4 2.209 0 4-1.791 4-4"/><path d="m25 42h-2c-1.657 0-3-1.343-3-3 0-1.657 1.343-3 3-3h2"/><path d="m39 36h2c1.657 0 3 1.343 3 3 0 1.657-1.343 3-3 3h-2"/></g><path d="m40 31v9c0 4.418-3.582 8-8 8-4.418 0-8-3.582-8-8v-9" fill="#efbe9a"/><path d="m34 29v1c0 3.314-2.686 6-6 6h-6v-5c0-3.866 3.134-7 7-7h6c3.866 0 7 3.134 7 7v5h-5c-1.657 0-3-1.343-3-3z" fill="#976947"/><path d="m38.937 25.213c-1.122-.765-2.477-1.213-3.937-1.213h-6c-3.866 0-7 3.134-7 7v5h6c3.314 0 6-2.686 6-6v3c0 1.037.526 1.951 1.326 2.49 2.262-2.274 3.674-5.458 3.674-8.99 0-.435-.022-.864-.063-1.287z" fill="#c18e59"/><path d="m28 37h-6v-2h6c2.757 0 5-2.243 5-5v-1h2v1c0 3.859-3.141 7-7 7z"/><path d="m32 49c-4.963 0-9-4.037-9-9v-4h2v4c0 3.859 3.141 7 7 7s7-3.141 7-7v-4h2v4c0 4.963-4.037 9-9 9z"/><path d="m42 37h-5c-2.206 0-4-1.794-4-4v-4h2v4c0 1.103.897 2 2 2h5z"/><path d="m24 43h-1c-2.206 0-4-1.794-4-4s1.794-4 4-4h1v2h-1c-1.103 0-2 .897-2 2s.897 2 2 2h1z"/><path d="m41 43h-1v-2h1c1.103 0 2-.897 2-2s-.897-2-2-2h-1v-2h1c2.206 0 4 1.794 4 4s-1.794 4-4 4z"/><path d="m43 36h-2v-5c0-3.309-2.691-6-6-6h-6c-3.309 0-6 2.691-6 6v5h-2v-5c0-4.411 3.589-8 8-8h6c4.411 0 8 3.589 8 8z"/><path d="m47 63h-30c-.553 0-1-.447-1-1v-4c0-6.065 4.935-11 11-11h10c6.065 0 11 4.935 11 11v4c0 .553-.447 1-1 1zm-29-2h28v-3c0-4.963-4.037-9-9-9h-10c-4.963 0-9 4.037-9 9z"/><path d="m14 27c-7.168 0-13-5.832-13-13s5.832-13 13-13 13 5.832 13 13-5.832 13-13 13zm0-24c-6.065 0-11 4.935-11 11s4.935 11 11 11 11-4.935 11-11-4.935-11-11-11z"/><path d="m13 13h-2c0-1.103-.897-2-2-2s-2 .897-2 2h-2c0-2.206 1.794-4 4-4s4 1.794 4 4z"/><path d="m23 13h-2c0-1.103-.897-2-2-2s-2 .897-2 2h-2c0-2.206 1.794-4 4-4s4 1.794 4 4z"/><path d="m14 21c-2.206 0-4-1.794-4-4h2c0 1.103.897 2 2 2s2-.897 2-2h2c0 2.206-1.794 4-4 4z"/><path d="m50 27c-7.168 0-13-5.832-13-13s5.832-13 13-13 13 5.832 13 13-5.832 13-13 13zm0-24c-6.065 0-11 4.935-11 11s4.935 11 11 11 11-4.935 11-11-4.935-11-11-11z"/><path d="m45 14c-2.206 0-4-1.794-4-4h2c0 1.103.897 2 2 2s2-.897 2-2h2c0 2.206-1.794 4-4 4z"/><path d="m55 14c-2.206 0-4-1.794-4-4h2c0 1.103.897 2 2 2s2-.897 2-2h2c0 2.206-1.794 4-4 4z"/><path d="m54 20h-2c0-1.103-.897-2-2-2s-2 .897-2 2h-2c0-2.206 1.794-4 4-4s4 1.794 4 4z"/><path d="m50 42c-1.654 0-3-1.346-3-3s1.346-3 3-3 3 1.346 3 3-1.346 3-3 3zm0-4c-.552 0-1 .448-1 1s.448 1 1 1 1-.448 1-1-.448-1-1-1z"/><path d="m54 36c-2.206 0-4-1.794-4-4s1.794-4 4-4 4 1.794 4 4-1.794 4-4 4zm0-6c-1.103 0-2 .897-2 2s.897 2 2 2 2-.897 2-2-.897-2-2-2z"/><path d="m14 42c-1.654 0-3-1.346-3-3s1.346-3 3-3 3 1.346 3 3-1.346 3-3 3zm0-4c-.552 0-1 .448-1 1s.448 1 1 1 1-.448 1-1-.448-1-1-1z"/><path d="m10 36c-2.206 0-4-1.794-4-4s1.794-4 4-4 4 1.794 4 4-1.794 4-4 4zm0-6c-1.103 0-2 .897-2 2s.897 2 2 2 2-.897 2-2-.897-2-2-2z"/><path d="m22 55h2v7h-2z"/><path d="m40 55h2v7h-2z"/><path d="m32 53c-2.757 0-5-2.243-5-5h2c0 1.654 1.346 3 3 3s3-1.346 3-3h2c0 2.757-2.243 5-5 5z"/></svg>