<svg id="Layer_5" enable-background="new 0 0 64 64" height="512" viewBox="0 0 64 64" width="512" xmlns="http://www.w3.org/2000/svg"><path d="m10 57h-8v-11.92c0-4.24 2.67-8.02 6.67-9.43l.23-.08 6.37-2.25c.54 3.2 1.84 6.22 3.8 8.79.78 1.03 1.66 1.99 2.64 2.86l.29.25-2 1.78v10z" fill="#ff826e"/><path d="m34 57h-14v-10l2-1.78.29-.25c.98-.87 1.86-1.83 2.64-2.86 1.96-2.57 3.26-5.59 3.8-8.79l6.37 2.25.23.08c1.19.42 2.27 1.06 3.19 1.85-.34 1.1-.52 2.28-.52 3.5 0 3.57 1.55 6.77 4.02 8.97l-.02.03v7z" fill="#ff826e"/><path d="m22 38 2.93 4.11c-.78 1.03-1.66 1.99-2.64 2.86l-.29.25-.29-.25c-.98-.87-1.86-1.83-2.64-2.86z" fill="#e6e9ed"/><path d="m27 32.71 1.73.61c-.54 3.2-1.84 6.22-3.8 8.79l-2.93-4.11 3.95-5.93.01-.01c.29.29.65.51 1.04.65z" fill="#ccd1d9"/><path d="m18.05 32.07 3.95 5.93-2.93 4.11c-1.96-2.57-3.26-5.59-3.8-8.79l1.73-.61c.39-.14.75-.36 1.04-.65z" fill="#ccd1d9"/><path d="m62 4v13c0 1.1-.9 2-2 2h-5l-3.42 5.13c-.36.54-.97.87-1.63.87-1.08 0-1.95-.87-1.95-1.95v-4.05h-7c-1.1 0-2-.9-2-2v-13c0-1.1.9-2 2-2h19c1.1 0 2 .9 2 2z" fill="#e6e9ed"/><path d="m25.96 32.06-.01.01-3.95 5.93-3.95-5.93-.01-.01c.6-.54.96-1.33.96-2.18v-.33c.92.6 1.93 1.09 3 1.45 1.07-.36 2.08-.85 3-1.45v.33c0 .85.36 1.64.96 2.18z" fill="#f0d0b4"/><path d="m31 15v3.51c0 4.53-2.32 8.66-6 11.04-.92.6-1.93 1.09-3 1.45-1.07-.36-2.08-.85-3-1.45-3.68-2.38-6-6.51-6-11.04v-3.51h1.76c2.71 0 5.32-1.08 7.24-3 .96.96 2.09 1.71 3.32 2.22 1.24.51 2.56.78 3.92.78z" fill="#f0d0b4"/><path d="m50 29c6.63 0 12 5.37 12 12 0 3.57-1.55 6.77-4.02 8.97-2.12 1.88-4.91 3.03-7.98 3.03s-5.86-1.15-7.98-3.03c-2.47-2.2-4.02-5.4-4.02-8.97 0-1.22.18-2.4.52-3.5 1.5-4.92 6.07-8.5 11.48-8.5z" fill="#fcd770"/><path d="m58 50v11l-8-2-8 2v-4-7l.02-.03c2.12 1.88 4.91 3.03 7.98 3.03s5.86-1.15 7.98-3.03z" fill="#b4dd7f"/><path d="m50 33c4.42 0 8 3.58 8 8s-3.58 8-8 8-8-3.58-8-8 3.58-8 8-8z" fill="#ffeaa7"/><path d="m54 40.72-1.68 1.26.65 2.05c-.36.41-.8.74-1.28.97l-1.69-1.27-1.69 1.27c-.48-.23-.92-.56-1.28-.97l.65-2.05-1.68-1.26c.06-.57.27-1.25.53-1.72l2.05.01.63-1.93c.26-.05.52-.08.79-.08s.53.03.79.08l.65 1.93 1.92-.01c.26.47.58 1.15.64 1.72z" fill="#ff826e"/><path d="m37 31.99c0 1.88-1.5 2.13-1.9 3.58l-6.37-2.25-1.73-.61c-.39-.14-.75-.36-1.04-.65-.6-.54-.96-1.33-.96-2.18v-.33c3.68-2.38 6-6.51 6-11.04v-3.51h-1.76c-1.36 0-2.68-.27-3.92-.78-1.23-.51-2.36-1.26-3.32-2.22-1.92 1.92-4.53 3-7.24 3h-1.76v3.51c0 4.53 2.32 8.66 6 11.04v.33c0 .85-.36 1.64-.96 2.18-.29.29-.65.51-1.04.65l-1.73.61-6.37 2.25c-.4-1.45-1.9-1.7-1.9-3.58 0-2.16 2-2.16 2-4.33 0-2.16-2-2.16-2-4.33 0-2.16 2-2.16 2-4.33v-6.88c0-1.21.41-2.34 1.12-3.25.7-.9 1.7-1.57 2.88-1.87l.35-.44c1.15-1.44 2.61-2.58 4.23-3.36s3.42-1.2 5.26-1.2c6.72 0 12.16 5.44 12.16 12.16v4.84c0 2.17 2 2.17 2 4.33 0 2.17-2 2.17-2 4.33 0 2.17 2 2.17 2 4.33z" fill="#656d78"/><path d="m23 52h2v2h-2z"/><path d="m23 48h2v2h-2z"/><path d="m53.955 37.994-1.8.013-.601-1.788-.562-.116c-.664-.137-1.32-.137-1.984 0l-.566.117-.589 1.785-1.914-.008-.285.524c-.323.592-.57 1.392-.647 2.087l-.062.566 1.567 1.18-.601 1.918.376.423c.456.513.994.919 1.598 1.208l.548.262 1.567-1.183 1.568 1.182.548-.262c.604-.288 1.142-.694 1.598-1.208l.376-.423-.601-1.918 1.567-1.18-.062-.566c-.064-.587-.318-1.289-.753-2.087zm-2.796 3.61.668 2.134c-.024.02-.05.04-.076.059l-1.751-1.319-1.751 1.319c-.026-.019-.052-.039-.076-.059l.668-2.134-1.743-1.312c.026-.098.056-.195.088-.29l2.112.009.662-2.011c.028 0 .056-.001.084 0l.678 2.018 2.024-.015c.048.109.091.213.126.312z"/><path d="m50 32c-4.963 0-9 4.038-9 9s4.037 9 9 9 9-4.038 9-9-4.037-9-9-9zm0 16c-3.859 0-7-3.14-7-7s3.141-7 7-7 7 3.14 7 7-3.141 7-7 7z"/><path d="m50 28c-5.359 0-9.969 3.26-11.956 7.901-.479-.317-.976-.602-1.498-.839.065-.074.119-.144.191-.224.534-.579 1.263-1.373 1.263-2.847s-.731-2.266-1.266-2.844c-.458-.495-.734-.794-.734-1.486s.276-.991.734-1.486c.535-.578 1.266-1.37 1.266-2.844s-.731-2.266-1.266-2.844c-.458-.496-.734-.796-.734-1.487v-4.843c0-7.255-5.902-13.157-13.157-13.157-4.019 0-7.763 1.8-10.274 4.938l-.149.186c-2.619.811-4.42 3.23-4.42 5.999v6.877c0 .691-.276.991-.734 1.487-.535.578-1.266 1.37-1.266 2.844s.731 2.266 1.266 2.844c.458.495.734.795.734 1.486s-.276.991-.734 1.486c-.535.579-1.266 1.371-1.266 2.844s.729 2.268 1.262 2.847c.073.08.127.15.192.224-3.896 1.77-6.454 5.679-6.454 10.013v12.925h40v4.281l9-2.25 9 2.25v-11.922c2.46-2.367 4-5.684 4-9.359 0-7.168-5.832-13-13-13zm-41.266 2.505c.535-.578 1.266-1.37 1.266-2.844s-.731-2.266-1.266-2.844c-.458-.495-.734-.795-.734-1.486s.276-.991.734-1.487c.535-.578 1.266-1.37 1.266-2.844v-6.877c0-1.968 1.333-3.675 3.242-4.153l.328-.082.561-.701c2.129-2.661 5.305-4.187 8.712-4.187 6.152 0 11.157 5.005 11.157 11.157v4.843c0 1.474.731 2.266 1.266 2.844.458.496.734.796.734 1.487s-.276.991-.734 1.486c-.535.579-1.266 1.371-1.266 2.844s.731 2.266 1.266 2.844c.458.495.734.795.734 1.486 0 .694-.276.996-.734 1.494-.216.236-.459.509-.675.839l-7.256-2.561c-.739-.261-1.234-.934-1.306-1.704 3.678-2.605 5.971-6.865 5.971-11.546v-4.513h-2.758c-2.469 0-4.789-.961-6.535-2.707l-.707-.707-.707.707c-1.746 1.746-4.066 2.707-6.535 2.707h-2.758v4.513c0 4.681 2.293 8.941 5.971 11.547-.073.769-.567 1.443-1.306 1.704l-7.256 2.561c-.216-.33-.458-.603-.675-.839-.458-.499-.734-.8-.734-1.495 0-.691.276-.991.734-1.486zm13.266 13.349c-.597-.562-1.16-1.156-1.677-1.787l1.677-2.347 1.677 2.347c-.517.631-1.08 1.225-1.677 1.787zm0-13.913c-4.799-1.746-8-6.296-8-11.428v-2.513h.758c2.681 0 5.218-.932 7.242-2.643 2.024 1.711 4.562 2.643 7.242 2.643h.758v2.513c0 5.132-3.201 9.682-8 11.428zm-.316 2.008.316.105.316-.105c.659-.22 1.29-.49 1.897-.795.119.351.285.682.493.985l-2.706 4.058-2.706-4.06c.208-.303.374-.633.492-.984.607.306 1.238.576 1.898.796zm-4.353 1.7c.152-.054.295-.124.438-.194l3.017 4.525-1.705 2.387c-1.264-1.946-2.161-4.118-2.648-6.401zm7.589 6.719-1.705-2.387 3.017-4.525c.142.07.285.14.437.194l.899.317c-.487 2.283-1.384 4.455-2.648 6.401zm-21.92 4.707c0-3.809 2.413-7.22 6.005-8.487l5.527-1.951c.91 4.023 2.999 7.712 5.987 10.564l-1.519 1.35v9.449h-8v-14h-2v14h-6zm32 10.925v-13h-2v13h-12v-8.551l1.951-1.735c3.278-2.913 5.553-6.814 6.517-11.077l5.527 1.951c.863.305 1.665.744 2.398 1.297-.247 1-.393 2.039-.393 3.115 0 3.675 1.54 6.992 4 9.359v5.641zm22 3.719-7-1.75-7 1.75v-7.782c2.023 1.299 4.422 2.063 7 2.063s4.977-.764 7-2.063zm-7-7.719c-6.065 0-11-4.935-11-11s4.935-11 11-11 11 4.935 11 11-4.935 11-11 11z"/><path d="m60 1h-19c-1.654 0-3 1.346-3 3v13c0 1.654 1.346 3 3 3h6v3.046c0 1.629 1.325 2.954 2.954 2.954.99 0 1.909-.492 2.458-1.315l3.123-4.685h4.465c1.654 0 3-1.346 3-3v-13c0-1.654-1.346-3-3-3zm1 16c0 .551-.448 1-1 1h-5.535l-3.717 5.575c-.178.266-.475.425-.794.425-.526 0-.954-.428-.954-.954v-5.046h-8c-.552 0-1-.449-1-1v-13c0-.551.448-1 1-1h19c.552 0 1 .449 1 1z"/><path d="m49 12.586-2.293-2.293-1.414 1.414 3.707 3.707 8.707-8.707-1.414-1.414z"/></svg>