<svg height="512pt" viewBox="-14 0 512 512.00024" width="512pt" xmlns="http://www.w3.org/2000/svg"><path d="m472.324219 127.976562c-17.449219-45.460937-50.53125-81.359374-95.691407-103.820312-34.460937-17.140625-74.601562-25.421875-115.101562-24-7.96875.269531-15.949219.921875-23.910156 1.960938-35.789063 4.660156-69.789063 17.179687-98.3125 36.199218-55.699219 37.140625-92.230469 97.28125-97.730469 160.871094-.828125 9.550781.570313 19.101562 1.929687 28.339844 1.421876 9.691406 2.761719 18.839844 1.113282 25.417968v.011719c-.371094 1.460938-4.472656 15.171875-35.683594 46.058594-7.816406 7.75-10.796875 19.152344-7.777344 29.75 3.027344 10.601563 11.589844 18.710937 22.339844 21.152344 4.449219 1.019531 8.488281 1.910156 12.007812 2.6875 1.171876.261719 2.28125.5 3.332032.742187.199218 24.460938.519531 53.257813.96875 58.648438 1.0625 12.5625 6.582031 23.070312 15.960937 30.421875 13.011719 10.167969 32.691407 13.5 56.910157 9.609375 18.667968-3 29.769531 1.730468 33.007812 14.070312.292969 2.429688 1.140625 9.917969 1.691406 18.089844 1.058594 15.601562 14.128906 27.808594 29.761719 27.808594h192.988281c16.460938 0 29.839844-13.390625 29.839844-29.839844v-53.398438c0-37.652343 5.921875-63.261718 17.589844-76.121093 28.953125-31.902344 49.632812-67.75 59.800781-103.671875 11.664063-41.167969 9.964844-81.875-5.035156-120.988282zm0 0" fill="#ffdfc2"/><path d="m477.363281 248.96875c-10.167969 35.917969-30.851562 71.769531-59.800781 103.671875-11.667969 12.859375-17.589844 38.46875-17.589844 76.121094v53.398437c0 16.449219-13.378906 29.839844-29.839844 29.839844h-108.601562v-511.84375c40.5-1.421875 80.640625 6.859375 115.101562 24 45.160157 22.460938 78.242188 58.359375 95.691407 103.820312 15 39.113282 16.699219 79.820313 5.039062 120.992188zm0 0" fill="#ffbd83"/><path d="m341.570312 235.96875-77.941406 118.863281c-.628906.949219-1.328125 1.828125-2.097656 2.628907-3.421875 3.609374-8.132812 5.609374-13.050781 5.609374-1.75 0-3.519531-.261718-5.269531-.78125-7.769532-2.320312-12.992188-9.328124-12.992188-17.429687v-72.167969h-31.449219c-7.628906 0-14.628906-4.222656-18.25-11.019531-3.640625-6.820313-3.269531-15.023437.972657-21.410156l77.9375-118.871094c.628906-.960937 1.332031-1.839844 2.101562-2.640625 4.660156-4.878906 11.648438-6.808594 18.320312-4.820312 7.769532 2.332031 12.988282 9.332031 12.988282 17.441406v72.238281l31.5.152344c7.660156.019531 14.652344 4.21875 18.25 10.988281 3.589844 6.742188 3.199218 14.859375-1.019532 21.21875zm0 0" fill="#fff"/><path d="m341.570312 235.96875-77.941406 118.863281c-.628906.949219-1.328125 1.828125-2.097656 2.628907v-238.710938c4.660156-4.878906 11.648438-6.808594 18.320312-4.820312 7.769532 2.332031 12.988282 9.332031 12.988282 17.441406v72.238281l31.5.152344c7.660156.019531 14.652344 4.21875 18.25 10.988281 3.589844 6.742188 3.199218 14.859375-1.019532 21.21875zm0 0" fill="#fff4f4"/></svg>