<svg height="512pt" viewBox="0 -21 512 512" width="512pt" xmlns="http://www.w3.org/2000/svg"><path d="m308.101562 441.625h-104.203124l13.03125-225.445312h78.140624zm0 0" fill="#8cbcff"/><path d="m308.101562 441.625h-52.101562v-225.445312h39.070312zm0 0" fill="#6aa9ff"/><path d="m512 43.0625v242.277344c0 23.75-19.324219 43.0625-43.074219 43.0625h-425.851562c-23.75 0-43.074219-19.3125-43.074219-43.0625v-242.277344c0-23.738281 19.324219-43.0625 43.074219-43.0625h425.851562c23.75 0 43.074219 19.324219 43.074219 43.0625zm0 0" fill="#edf0f5"/><path d="m512 43.0625v242.277344c0 23.75-19.324219 43.0625-43.074219 43.0625h-212.925781v-328.402344h212.925781c23.75 0 43.074219 19.324219 43.074219 43.0625zm0 0" fill="#d8dceb"/><path d="m481.117188 43.0625v242.265625c0 6.722656-5.46875 12.191406-12.191407 12.191406h-425.851562c-6.722657 0-12.191407-5.46875-12.191407-12.191406v-242.265625c0-6.722656 5.46875-12.179688 12.191407-12.179688h425.851562c6.722657 0 12.191407 5.457032 12.191407 12.179688zm0 0" fill="#2682ff"/><path d="m481.117188 43.0625v242.265625c0 6.722656-5.46875 12.191406-12.191407 12.191406h-212.925781v-266.636719h212.925781c6.722657 0 12.191407 5.457032 12.191407 12.179688zm0 0" fill="#046eff"/><path d="m279.851562 180.3125c0 13.148438-10.695312 23.851562-23.851562 23.851562s-23.851562-10.703124-23.851562-23.851562c0-13.15625 10.695312-23.863281 23.851562-23.863281s23.851562 10.707031 23.851562 23.863281zm0 0" fill="#ffde55"/><path d="m360.050781 105.726562h-56.652343l-1.15625-32.839843c-.183594-5.34375-4.570313-9.574219-9.921876-9.574219h-72.640624c-5.351563 0-9.738282 4.230469-9.921876 9.574219l-1.15625 32.839843h-56.652343c-9.480469 0-17.160157 7.691407-17.160157 17.160157v125.050781c0 9.472656 7.679688 17.164062 17.160157 17.164062h208.101562c9.480469 0 17.160157-7.691406 17.160157-17.164062v-125.050781c0-9.46875-7.679688-17.160157-17.160157-17.160157zm-104.050781 129.324219c-30.183594 0-54.738281-24.554687-54.738281-54.738281s24.554687-54.746094 54.738281-54.746094 54.738281 24.5625 54.738281 54.746094-24.554687 54.738281-54.738281 54.738281zm0 0" fill="#ffde55"/><path d="m256 204.164062v-47.714843c13.15625 0 23.851562 10.707031 23.851562 23.863281 0 13.148438-10.695312 23.851562-23.851562 23.851562zm0 0" fill="#ffcd00"/><path d="m377.210938 122.886719v125.050781c0 9.472656-7.679688 17.164062-17.160157 17.164062h-104.050781v-30.050781c30.183594 0 54.738281-24.554687 54.738281-54.738281s-24.554687-54.746094-54.738281-54.746094v-62.253906h36.320312c5.351563 0 9.738282 4.230469 9.921876 9.574219l1.15625 32.839843h56.652343c9.480469 0 17.160157 7.691407 17.160157 17.160157zm0 0" fill="#ffcd00"/><path d="m400.980469 439.03125v21.351562c0 5.683594-4.601563 10.292969-10.292969 10.292969h-269.375c-5.691406 0-10.292969-4.609375-10.292969-10.292969v-21.351562c0-17.335938 14.042969-31.378906 31.367188-31.378906h227.226562c17.324219 0 31.367188 14.042968 31.367188 31.378906zm0 0" fill="#2682ff"/><path d="m400.980469 439.03125v21.351562c0 5.683594-4.601563 10.292969-10.292969 10.292969h-134.6875v-63.023437h113.613281c17.324219 0 31.367188 14.042968 31.367188 31.378906zm0 0" fill="#046eff"/></svg>