<svg height="512" viewBox="0 0 60 61" width="512" xmlns="http://www.w3.org/2000/svg"><g id="048---Karaoke" fill="none"><g id="Icons" transform="translate(1 1)"><path id="Shape" d="m39.75 45.49c-1.15-.31.54.88-24.33-19.49l9.58-9.58 18.73 22.87c1.0830327 1.2942951 1.1996742 3.1421143.2879915 4.5623236-.9116827 1.4202092-2.6402924 2.0834962-4.2679915 1.6376764z" fill="#f57c00"/><path id="Shape" d="m39.75 45.49c-1.15-.31.54.88-24.33-19.49l7.7-7.7 17.55 21.43c.7161589.8586438 1.0259545 1.9850654.849604 3.0891729-.1763504 1.1041074-.8216106 2.0779854-1.769604 2.6708271z" fill="#ff9801"/><path id="Shape" d="m10.41 22h-.41z" fill="#464f5d"/><path id="Shape" d="" fill="#464f5d"/><path id="Shape" d="m21 11.5c.0027977 2.8012671-1.114935 5.4872878-3.1041657 7.4596129-1.9892307 1.972325-4.6846931 3.0670927-7.4858343 3.0403871h-.41c-2.57587642-.1179883-5.01651626-1.1868817-6.85-3 2 0 5-2.16 9.09-6.25s5.61-6.75 5.61-8.75c1.9016658 1.84806615 3.0280199 4.35107527 3.15 7z" fill="#607d8b"/><path id="Shape" d="m21 11c-.1193225-2.64752174-1.2420135-5.15033608-3.14-7-.0261803 1.05697046-.3222255 2.08968654-.86 3 .5911999 1.25528934.9309226 2.61418004 1 4v.48c-.0011456 5.2186706-3.8348555 9.6444757-9 10.39.31 0 .56.07 1 .1h.48c5.7950986.0110619 10.5034531-4.6749144 10.52-10.47 0-.31 0-.17 0-.5z" fill="#37474f"/><path id="Shape" d="m25 16.42-9.58 9.58c-.1877666.1893127-.4433625.2957983-.71.2957983s-.5222334-.1064856-.71-.2957983l-4-4h.48c2.7882368.0053109 5.4640938-1.0985909 7.4375535-3.0682988s3.0824516-4.6434594 3.0824465-7.4317012c0-.31 0-.17 0-.48l4 4c.3811429.3888435.3811429 1.0111565 0 1.4z" fill="#f57c00"/><path id="Shape" d="m10 22h.39z" fill="#464f5d"/><path id="Shape" d="" fill="#464f5d"/><path id="Shape" d="m26.41 24.59c.7904776 1.0301695 1.408513 2.1818091 1.83 3.41.1022379.3505298.0052964.7289172-.2528932.9871068s-.636577.3551311-.9871068.2528932c-1.2281909-.421487-2.3798305-1.0395224-3.41-1.83-.6795536-.7935206-.6338645-1.9763883.1048736-2.7151264s1.9216058-.7844272 2.7151264-.1048736z" fill="#ff5722"/><g fill="#02a9f4"><path id="Shape" d="m43 6.72v8.28c.0141608 2.025049-1.4873405 3.741198-3.4963267 3.9961455-2.0089863.2549475-3.8915595-1.0317504-4.3836733-2.9961455-.2702542-1.0681586-.0992122-2.200138.474569-3.1407629s1.5020063-1.6107227 2.575431-1.8592371c.4850758-.0836274.8371559-.5078203.83-1v-6.5c-.0137136-.47069718.3028167-.88718447.76-1l6-1.5c.3035358-.07518464.6247663-.00405025.8681828.19225336s.3809901.49517257.3718172.80774664v2.94c.0137136.47069718-.3028167.88718447-.76 1z"/><path id="Shape" d="m54 18.72v8.28c.0141608 2.025049-1.4873405 3.741198-3.4963267 3.9961455-2.0089863.2549475-3.8915595-1.0317504-4.3836733-2.9961455-.2702542-1.0681586-.0992122-2.200138.474569-3.1407629s1.5020063-1.6107227 2.575431-1.8592371c.4850758-.0836274.8371559-.5078203.83-1v-6.5c-.0137136-.4706972.3028167-.8871845.76-1l6-1.5c.3035358-.0751846.6247663-.0040503.8681828.1922534.2434165.1963036.3809901.4951725.3718172.8077466v2.94c.0137136.4706972-.3028167.8871845-.76 1z"/><path id="Shape" d="m20 36v15c.0141608 2.025049-1.4873405 3.741198-3.4963267 3.9961455-2.0089863.2549475-3.8915595-1.0317504-4.3836733-2.9961455-.2702542-1.0681586-.0992122-2.200138.474569-3.1407629s1.5020063-1.6107227 2.575431-1.8592371c.4850758-.0836274.8371559-.5078203.83-1v-4c.004901-.299568-.1247748-.5855503-.3533445-.7792535-.2285697-.1937031-.5319483-.274716-.8266555-.2207465l-6 1.31c-.48109253.0879673-.82797625.5109963-.82 1v11.69c.00063225 1.3303863-.66022228 2.5740238-1.76314375 3.3179944-1.10292146.7439707-2.50355506.8909007-3.73685625.3920056-1.62137594-.6890474-2.61536821-2.3430311-2.46284958-4.0981335.15251862-1.7551024 1.41691913-3.2128314 3.13284958-3.6118665.48507584-.0836274.83715592-.5078203.83-1v-11.17c-.00797625-.4890037.33890747-.9120327.82-1l14-2.83c.2947072-.0539695.5980858.0270434.8266555.2207465.2285697.1937032.3582455.4796855.3533445.7792535z"/></g><path id="Shape" d="m11.82 41-6 1.31c-.48109253.0879673-.82797625.5109963-.82 1v11.69c-.00086922 1.633099-.99443126 3.1016708-2.51 3.71 1.2343864.5032156 2.63833792.3584503 3.74406777-.3860611s1.76791958-1.9909229 1.76593223-3.3239389v-11.69c-.00797625-.4890037.33890747-.9120327.82-1l4-.87c-.2166798-.3318833-.6089244-.5044709-1-.44z" fill="#0377bc"/><path id="Shape" d="m18.81 35-2 .41c.3.41.21-.84.21 15.57-.0008692 1.633099-.9944313 3.1016708-2.51 3.71 1.2289303.4933 2.6223497.3464099 3.7214052-.3922995 1.0990555-.7387095 1.761277-1.9734796 1.7685948-3.2977005v-15c.005506-.3016771-.1254947-.5897121-.3564905-.7838263-.2309959-.1941141-.5372882-.2735521-.8335095-.2161737z" fill="#0377bc"/><path id="Shape" d="m17.85 4c0 2-1.51 4.65-5.6 8.74s-7.09 6.26-9.09 6.26c-2.67949199-2.6241157-3.75549559-6.4783907-2.82269065-10.11095665.93280493-3.632566 3.73270315-6.49154988 7.34500006-7.50000006 3.61229689-1.00845019 7.48819869-.01315911 10.16769059 2.61095671z" fill="#9e9e9e"/></g><g id="Layer_5" fill="#000" transform="translate(-1)"><path id="Shape" d="m29.12 24.88c-.8579473-.8568812-2.1473683-1.1130328-3.2676941-.6491479-1.1203257.4638849-1.8512394 1.5565813-1.8523059 2.7691479.0007002.7953814.3172301 1.5579306.88 2.12 1.1535517.9049092 2.4518673 1.6081635 3.84 2.08.7010596.2044757 1.4578344.0105927 1.9742136-.5057864.5163791-.5163792.7102621-1.273154.5057864-1.9742136-.4693344-1.3892249-1.1728091-2.6879474-2.08-3.84zm-2.83 2.83c-.3877236-.3900375-.3877236-1.0199625 0-1.41.1877666-.1893127.4433625-.2957983.71-.2957983s.5222334.1064856.71.2957983c.6637706.9199814 1.1924635 1.9302227 1.57 3-1.0677047-.3839926-2.0746688-.9194685-2.99-1.59z"/><path id="Shape" d="m58.52 57.11c-1.3829987-1.4016661-3.5804003-1.5883179-5.18-.44l-2.8 2c-.8670764.6360095-2.0818592.472566-2.75-.37l-.48-.63c-.3396541-.4168594-.4971436-.9529274-.4369371-1.4872605s.3330369-1.0219144.7569371-1.3527395c1.2605301-1.0320525 2.0532911-2.5274881 2.2-4.15.14-2.42-1.39-3.61-3-5.21 1.1787014-1.7823723 1.0402044-4.1286743-.34-5.76l-18.3-22.4c.2213218-.704164.0368044-1.4729863-.48-2l-3.71-3.77c-.2678582-6.35127455-5.6337254-11.28285793-11.985-11.01499983-6.35127455.2678581-11.28285801 5.63372527-11.015 11.98499983.01288733 5.9795503 4.58375694 10.9624053 10.54 11.49l3.75 3.75c.5249109.5203421 1.2940065.7087705 2 .49l22.36 18.26c1.6354049 1.3866795 3.9892211 1.5292117 5.78.35 1.41 1.41 2.49 2.18 2.4 3.68-.108269 1.0532326-.6296995 2.0205762-1.45 2.69-.8403869.6596213-1.3819831 1.6280136-1.5040841 2.6893532-.122101 1.0613395.1854408 2.1274203.8540841 2.9606468l.49.63c1.3278887 1.6732964 3.7362396 2.0079119 5.47.76l2.81-1.95c.7993594-.5825541 1.9044975-.4932929 2.6.21l2.19 2.19c.1877666.1893127.4433625.2957983.71.2957983s.5222334-.1064856.71-.2957983c.3877236-.3900375.3877236-1.0199625 0-1.41zm-46.02-35.11c-1.8331219-.000889-3.62624265-.5360452-5.16-1.54 2-.86 4.41-2.8 7.62-6 2.92-2.92 4.67-5.25 5.43-7.24 1.9403397 2.9146271 2.1221318 6.6597156.4732098 9.7485707s-4.8617992 5.021769-8.3632098 5.0314293zm0-19c2.3254854-.0018361 4.5694638.8565747 6.3 2.41-.23 1.81-1.94 4.31-5.26 7.63-3.66 3.66-6.34 5.63-8 5.9-2.55440306-2.7701587-3.23010199-6.7882177-1.72226781-10.24150464 1.50783418-3.4532869 4.91415636-5.68898287 8.68226781-5.69849536zm1.76 20.85c4.9405406-.773938 8.816062-4.6494594 9.59-9.59l2.44 2.45-9.58 9.59zm26.67 21.15-22-18 8-8 18 22c.8417642 1.1384689.7238278 2.72149-.2773411 3.7226589s-2.58419 1.1191053-3.7226589.2773411z"/><path id="Shape" d="m47.52 1.07-6 1.5c-.8922448.22058554-1.5192896 1.0208927-1.52 1.94v6.49c-2.5651247.5241629-4.2915505 2.9383473-3.9583075 5.5351839.3332429 2.5968367 2.6132989 4.4968833 5.2276574 4.3563813 2.6143586-.1405021 4.6776435-2.2739705 4.7306501-4.8915652v-7.49l2.48-.63c.8709497-.21486688 1.4922891-.98336564 1.52-1.88v-3c-.0035359-.61292424-.2879288-1.19038376-.7716449-1.56682413-.4837161-.37644036-1.1133375-.51029033-1.7083551-.36317587zm.48 4.93-3.24.81c-.4571833.11281553-.7737136.52930282-.76 1v8.19c.0106206 1.5187867-1.1155054 2.8058985-2.622245 2.9971091-1.5067397.1912106-2.9186696-.7738128-3.287755-2.2471091-.2011918-.8013911-.0719557-1.6500137.3586694-2.3551859.4306251-.7051721 1.1265239-1.2077528 1.9313306-1.3948141.9542164-.1844982 1.6376728-1.0282715 1.62-2v-6.49l6-1.51z"/><path id="Shape" d="m58.52 13.07-6 1.5c-.8922448.2205855-1.5192896 1.0208927-1.52 1.94v6.49c-1.3375934.3013152-2.4975213 1.1285243-3.2181108 2.2950138s-.9411373 2.5739931-.6118892 3.9049862c.5302526 2.2358552 2.5321534 3.8108497 4.83 3.8 2.7614237 0 5-2.2385763 5-5v-7.5l2.48-.63c.8674788-.2138509 1.4878963-.9771277 1.52-1.87v-3c-.0035359-.6129242-.2879288-1.1903838-.7716449-1.5668241-.4837161-.3764404-1.1133375-.5102904-1.7083551-.3631759zm.48 4.93-3.24.81c-.4571833.1128155-.7737136.5293028-.76 1v8.19c.0106206 1.5187867-1.1155054 2.8058985-2.622245 2.9971091-1.5067397.1912106-2.9186696-.7738128-3.287755-2.2471091-.2011918-.8013911-.0719557-1.6500137.3586694-2.3551859.4306251-.7051721 1.1265239-1.2077528 1.9313306-1.3948141.9542164-.1844982 1.6376728-1.0282715 1.62-2v-6.49l6-1.51z"/><path id="Shape" d="m20.61 35-14 2.83c-.96616866.1716094-1.66512215 1.0188257-1.65 2v11.17c-2.56512473.5241629-4.29155048 2.9383473-3.95830751 5.5351839.33324296 2.5968367 2.61329887 4.4968833 5.22765745 4.3563813 2.61435858-.1405021 4.67764346-2.2739705 4.73065006-4.8915652v-11.69l6.04-1.31v4c-1.3353442.3033419-2.4921382 1.1319364-3.2090838 2.2986195s-.9335608 2.5730326-.6009162 3.9013805c.6693666 2.3745745 2.9706864 3.9059838 5.4195479 3.6064289 2.4488614-.2995549 4.313193-2.3405241 4.3904521-4.8064289v-15c.0116477-.6054804-.2516762-1.1836306-.7161077-1.5722763-.4644316-.3886456-1.0799476-.5459262-1.6738923-.4277237zm.39 17c-.0158432 1.2770504-.8384616 2.4040667-2.0499033 2.80844s-2.5460848-.0025596-3.3258305-1.0140463-.8336262-2.4057477-.1342662-3.4743937c.4231664-.679769 1.1060988-1.1567377 1.89-1.32.9542164-.1844982 1.6376728-1.0282715 1.62-2v-4c.0123043-.6076182-.2523403-1.187867-.7192213-1.5769345-.4668809-.3890674-1.0853403-.5447386-1.6807787-.4230655l-6 1.3c-.96218505.1759347-1.65595251 1.0219925-1.64 2v11.7c-.01584321 1.2770504-.83846161 2.4040667-2.04990329 2.80844-1.21144169.4043733-2.54608483-.0025596-3.32583054-1.0140463s-.83362621-2.4057477-.13426617-3.4743937c.43228642-.6887576 1.13136716-1.1668853 1.93-1.32.95421641-.1844982 1.63767276-1.0282715 1.62-2v-11.16l14-2.84z"/></g></g></svg>