<?xml version="1.0" encoding="iso-8859-1"?>
<!-- Generator: Adobe Illustrator 19.0.0, SVG Export Plug-In . SVG Version: 6.00 Build 0)  -->
<svg version="1.1" id="Layer_1" xmlns="http://www.w3.org/2000/svg" xmlns:xlink="http://www.w3.org/1999/xlink" x="0px" y="0px"
	 viewBox="0 0 511.998 511.998" style="enable-background:new 0 0 511.998 511.998;" xml:space="preserve">
<rect x="300.353" y="116.389" style="fill:#FF8095;" width="96.072" height="56.088"/>
<path style="fill:#56D676;" d="M403.621,378.486c0-13.905,11.271-25.176,25.176-25.176c13.905,0,25.176,11.271,25.176,25.176
	c13.905,0,25.176,11.271,25.176,25.176c13.905,0,25.176,11.271,25.176,25.176c0,13.905-11.271,25.176-25.176,25.176H376.955
	L403.621,378.486z"/>
<path style="opacity:0.15;fill:#293133;enable-background:new    ;" d="M424.083,353.757c-11.65,2.208-20.462,12.437-20.462,24.729
	l-26.664,75.529h47.126V353.757z"/>
<path style="fill:#56D676;" d="M108.378,378.486c0-13.905-11.271-25.176-25.176-25.176s-25.176,11.271-25.176,25.176
	c-13.905,0-25.176,11.271-25.176,25.176c-13.905,0-25.176,11.271-25.176,25.176c0,13.905,11.271,25.176,25.176,25.176h102.194
	L108.378,378.486z"/>
<rect x="108.377" y="235.232" style="fill:#66E6FF;" width="295.243" height="218.782"/>
<g>
	<polygon style="opacity:0.15;fill:#293133;enable-background:new    ;" points="403.621,235.232 126.824,235.232 108.378,235.232 
		108.378,260.144 108.378,454.014 126.824,454.014 126.824,260.144 403.621,260.144 	"/>
	<rect x="300.353" y="116.389" style="opacity:0.15;fill:#293133;enable-background:new    ;" width="24.004" height="56.088"/>
</g>
<rect x="213.044" y="353.729" style="fill:#2EC8E6;" width="85.908" height="100.275"/>
<path style="fill:#CCF7FF;" d="M494.806,109.142c-0.337-15.47-13.325-28.079-28.799-27.977c-4.811,0.031-9.338,1.254-13.308,3.382
	c-5.586-15.488-20.411-26.562-37.825-26.562s-32.238,11.074-37.825,26.562c-3.969-2.128-8.497-3.351-13.308-3.382
	c-15.474-0.102-28.462,12.506-28.799,27.977c-0.002,0.12-0.004,0.241-0.006,0.361c-0.077,8.148,6.657,14.735,14.806,14.735h130.263
	c8.149,0,14.883-6.586,14.806-14.735C494.811,109.381,494.809,109.262,494.806,109.142z"/>
<path style="fill:#10424D;" d="M300.354,220.019c-4.238,0-7.673-3.436-7.673-7.673V108.725c0-4.237,3.435-7.673,7.673-7.673
	c4.238,0,7.673,3.436,7.673,7.673v103.621C308.027,216.584,304.593,220.019,300.354,220.019z"/>
<rect x="69.928" y="212.349" style="fill:#FF8095;" width="372.141" height="32.678"/>
<rect x="69.928" y="212.349" style="opacity:0.15;fill:#293133;enable-background:new    ;" width="33.664" height="32.678"/>
<rect x="140.875" y="272.202" style="fill:#CCF7FF;" width="82.741" height="55.012"/>
<path style="fill:#2EC8E6;" d="M182.249,334.887c-4.238,0-7.673-3.436-7.673-7.673v-55.01c0-4.237,3.435-7.673,7.673-7.673
	c4.238,0,7.673,3.436,7.673,7.673v55.01C189.922,331.453,186.487,334.887,182.249,334.887z"/>
<rect x="288.374" y="272.202" style="fill:#CCF7FF;" width="82.741" height="55.012"/>
<path style="fill:#2EC8E6;" d="M329.751,334.887c-4.238,0-7.673-3.436-7.673-7.673v-55.01c0-4.237,3.435-7.673,7.673-7.673
	c4.238,0,7.673,3.436,7.673,7.673v55.01C337.424,331.453,333.988,334.887,329.751,334.887z"/>
<path style="fill:#CCF7FF;" d="M218.705,165.325c-0.337-15.47-13.326-28.079-28.799-27.977c-4.811,0.031-9.338,1.254-13.308,3.382
	c-5.586-15.488-20.411-26.562-37.825-26.562s-32.238,11.074-37.825,26.562c-3.969-2.128-8.497-3.351-13.308-3.382
	c-15.474-0.102-28.462,12.506-28.799,27.977c-0.002,0.12-0.004,0.241-0.006,0.361c-0.077,8.148,6.657,14.735,14.806,14.735h130.263
	c8.149,0,14.883-6.586,14.806-14.735C218.709,165.565,218.708,165.445,218.705,165.325z"/>
<g>
	<path style="fill:#26150C;" d="M140.879,334.887h82.741c4.237,0,7.673-3.435,7.673-7.673v-55.01c0-4.238-3.436-7.673-7.673-7.673
		h-82.741c-4.237,0-7.673,3.435-7.673,7.673v55.01C133.206,331.453,136.642,334.887,140.879,334.887z M189.922,279.879h26.025
		v39.664h-26.025L189.922,279.879L189.922,279.879z M148.552,279.879h26.025v39.664h-26.025V279.879z"/>
	<path style="fill:#26150C;" d="M288.38,334.887h82.741c4.237,0,7.673-3.435,7.673-7.673v-55.01c0-4.238-3.436-7.673-7.673-7.673
		H288.38c-4.238,0-7.673,3.435-7.673,7.673v55.01C280.707,331.453,284.142,334.887,288.38,334.887z M337.424,279.879h26.025v39.664
		h-26.025V279.879z M296.053,279.879h26.025v39.664h-26.025V279.879z"/>
	<path style="fill:#26150C;" d="M73.642,188.093h130.264c6.073,0,11.77-2.376,16.042-6.688c4.206-4.246,6.492-9.855,6.436-15.785
		l-0.007-0.463c-0.427-19.565-16.703-35.483-36.284-35.483h-0.238c-3.15,0.021-6.289,0.457-9.318,1.283
		c-8.37-14.892-24.308-24.464-41.764-24.464c-17.455,0-33.394,9.571-41.764,24.464c-3.029-0.826-6.167-1.262-9.318-1.283h-0.238
		c-19.58,0-35.856,15.918-36.283,35.493l-0.007,0.446c-0.056,5.937,2.23,11.546,6.436,15.792
		C61.873,185.717,67.57,188.093,73.642,188.093z M66.512,165.492c0.247-11.288,9.64-20.472,20.94-20.472h0.137
		c3.443,0.022,6.717,0.854,9.733,2.471c1.966,1.053,4.292,1.199,6.374,0.401s3.714-2.463,4.47-4.56
		c4.637-12.856,16.937-21.494,30.607-21.494c13.671,0,25.971,8.638,30.608,21.493c0.756,2.098,2.388,3.763,4.47,4.561
		c2.082,0.798,4.407,0.652,6.373-0.401c3.017-1.617,6.291-2.449,9.733-2.471h0.136c11.302,0,20.695,9.184,20.94,20.462l0.004,0.276
		c0.018,1.811-0.69,3.532-1.994,4.848c-1.368,1.382-3.193,2.142-5.139,2.142H73.642c-1.947,0-3.772-0.761-5.139-2.142
		c-1.302-1.315-2.01-3.037-1.994-4.842L66.512,165.492z"/>
	<path style="fill:#26150C;" d="M486.086,396.725c-2.71-12.556-12.619-22.465-25.176-25.176
		c-3.193-14.794-16.378-25.914-32.113-25.914c-6.431,0-12.432,1.865-17.503,5.072v-98.015h30.778c4.237,0,7.673-3.435,7.673-7.673
		v-32.673c0-4.238-3.436-7.673-7.673-7.673H308.027v-24.526h88.4c4.238,0,7.673-3.436,7.673-7.673V131.91h75.906
		c6.073,0,11.77-2.376,16.042-6.688c4.207-4.246,6.493-9.856,6.437-15.817l-0.008-0.431c-0.426-19.565-16.702-35.483-36.283-35.483
		h-0.236c-3.151,0.021-6.29,0.456-9.319,1.283c-8.37-14.892-24.308-24.464-41.764-24.464c-17.455,0-33.394,9.571-41.764,24.464
		c-3.03-0.826-6.168-1.262-9.318-1.283h-0.238c-19.491,0-35.702,15.774-36.271,35.223h-19.258c-0.006-4.233-3.438-7.663-7.672-7.663
		c-4.238,0-7.673,3.436-7.673,7.673v7.663v56.086v32.199H69.928c-4.238,0-7.673,3.435-7.673,7.673v32.673
		c0,4.238,3.435,7.673,7.673,7.673h30.778v98.017c-5.071-3.207-11.072-5.072-17.503-5.072c-15.734,0-28.92,11.12-32.113,25.914
		c-12.557,2.711-22.467,12.621-25.176,25.176C11.12,399.918,0,413.104,0,428.837c0,18.113,14.736,32.85,32.849,32.85h75.529h104.667
		h85.907H403.62h75.529c18.113,0,32.849-14.736,32.849-32.85C512,413.104,500.88,399.918,486.086,396.725z M363.555,88.838h0.137
		c3.44,0.022,6.716,0.854,9.732,2.471c1.966,1.053,4.291,1.199,6.373,0.401s3.714-2.463,4.47-4.56
		c4.637-12.856,16.937-21.494,30.608-21.494s25.971,8.638,30.608,21.493c0.756,2.098,2.388,3.763,4.47,4.561
		c2.082,0.799,4.407,0.651,6.373-0.401c3.017-1.617,6.291-2.449,9.733-2.471h0.136c11.302,0,20.695,9.184,20.941,20.496l0.003,0.24
		c0.018,1.811-0.69,3.533-1.994,4.848c-1.368,1.382-3.194,2.142-5.139,2.142H404.1v-0.176c0-4.237-3.435-7.673-7.673-7.673h-53.792
		C343.191,97.7,352.452,88.838,363.555,88.838z M308.027,124.061h28.6h52.128v0.176c0,0.002,0,0.003,0,0.004V164.8h-80.727
		L308.027,124.061L308.027,124.061z M100.706,446.341H32.849c-9.651,0-17.503-7.852-17.503-17.504
		c0-9.651,7.852-17.503,17.503-17.503c4.237,0,7.673-3.435,7.673-7.673c0-9.651,7.852-17.503,17.503-17.503
		c4.237,0,7.673-3.435,7.673-7.673c0-9.652,7.852-17.504,17.503-17.504s17.503,7.852,17.503,17.504v67.857H100.706z M291.28,446.341
		H220.72v-84.934h70.561V446.341z M395.948,378.486v67.856h-89.321v-92.607c0-4.238-3.436-7.673-7.673-7.673h-85.907
		c-4.237,0-7.673,3.435-7.673,7.673v92.607h-89.322v-67.856V252.692h279.897v125.794H395.948z M108.379,237.346H77.601v-17.327
		h356.8v17.327h-30.778H108.379z M479.151,446.341h-67.856v-67.856c0-9.652,7.852-17.504,17.503-17.504
		c9.651,0,17.503,7.852,17.503,17.504c0,4.238,3.436,7.673,7.673,7.673c9.651,0,17.503,7.852,17.503,17.503
		c0,4.238,3.436,7.673,7.673,7.673c9.652,0,17.503,7.852,17.503,17.503C496.654,438.489,488.802,446.341,479.151,446.341z"/>
</g>
<g>
</g>
<g>
</g>
<g>
</g>
<g>
</g>
<g>
</g>
<g>
</g>
<g>
</g>
<g>
</g>
<g>
</g>
<g>
</g>
<g>
</g>
<g>
</g>
<g>
</g>
<g>
</g>
<g>
</g>
</svg>
