<?xml version="1.0" encoding="iso-8859-1"?>
<!-- Generator: Adobe Illustrator 19.0.0, SVG Export Plug-In . SVG Version: 6.00 Build 0)  -->
<svg version="1.1" id="Capa_1" xmlns="http://www.w3.org/2000/svg" xmlns:xlink="http://www.w3.org/1999/xlink" x="0px" y="0px"
	 viewBox="0 0 480 480" style="enable-background:new 0 0 480 480;" xml:space="preserve">
<polygon style="fill:#FFFFFF;" points="344,0 136,0 136,184 80,184 240,280 400,184 344,184 "/>
<path style="fill:#BCBCBC;" d="M440,104h-96v80v-48h96v208H40V136h96v-32H40c-17.672,0-32,14.328-32,32v224
	c0,17.672,14.328,32,32,32h144h112h144c17.672,0,32-14.328,32-32V136C472,118.328,457.672,104,440,104z"/>
<path style="fill:#06B0C7;" d="M40,344h400V136h-96v48h56l-160,96L80,184h56v-48H40V344z M392,272v24h24h-24v24v-24h-24h24V272z"/>
<g>
	<path style="fill:#BCBCBC;" d="M8,440c0,26.512,21.488,32,48,32h368c26.512,0,48-5.488,48-32H320H160H8z"/>
	<polygon style="fill:#BCBCBC;" points="160,440 320,440 296,392 184,392 	"/>
</g>
<path style="fill:#FFFFFF;" d="M288,80l-40-24c-8,24-56,24-56,24c0,26.512,31.032,48,48,48S288,106.512,288,80z"/>
<g>
	<path style="fill:#06B0C7;" d="M248,56l40,24c0-26.512-8-56-48-56s-48,29.488-48,56C192,80,240,80,248,56z"/>
	<path style="fill:#06B0C7;" d="M176,192v-32c0-17.672,14.328-32,32-32h64c17.672,0,32,14.328,32,32v32H176z"/>
</g>
<path d="M440,96h-88V0h-16v104v32v48c0,4.424,3.576,8,8,8h27.12L240,270.672L108.88,192H136c4.424,0,8-3.576,8-8v-48v-32V0h-16v96
	H40c-22.056,0-40,17.944-40,40v224c0,22.056,17.944,40,40,40h131.056l-16,32H8c-4.424,0-8,3.576-8,8c0,40,42.152,40,56,40h368
	c13.848,0,56,0,56-40c0-4.424-3.576-8-8-8H324.944l-16-32H440c22.056,0,40-17.944,40-40V136C480,113.944,462.056,96,440,96z
	 M128,176H80c-3.592,0-6.752,2.4-7.712,5.864s0.504,7.144,3.592,8.992l160,96c1.272,0.76,2.696,1.144,4.12,1.144
	c1.424,0,2.848-0.384,4.12-1.144l160-96c3.088-1.848,4.552-5.528,3.592-8.992C406.752,178.4,403.592,176,400,176h-48v-32h80v192H48
	V144h80V176z M424,464H56c-26.584,0-36.24-6.152-39.032-16H160h160h143.032C460.24,457.848,450.584,464,424,464z M307.056,432
	H172.944l16-32h102.112L307.056,432z M464,360c0,13.232-10.768,24-24,24H296H184H40c-13.232,0-24-10.768-24-24V136
	c0-13.232,10.768-24,24-24h88v16H40c-4.424,0-8,3.576-8,8v208c0,4.424,3.576,8,8,8h400c4.424,0,8-3.576,8-8V136c0-4.424-3.576-8-8-8
	h-88v-16h88c13.232,0,24,10.768,24,24V360z"/>
<path d="M168,162.424V192h16v-29.576c0-8.856,4.4-17.08,11.768-21.984c4.352-2.912,9.416-4.44,14.656-4.44h59.16
	c5.232,0,10.304,1.528,14.656,4.44c7.36,4.904,11.76,13.12,11.76,21.984V192h16v-29.576c0-14.216-7.064-27.416-18.888-35.296
	c-5.496-3.672-11.712-5.92-18.2-6.736C286.776,110.112,296,95.712,296,80c0-52.896-30.456-64-56-64s-56,11.104-56,64
	c0,15.712,9.224,30.112,21.096,40.392c-6.488,0.816-12.712,3.064-18.2,6.736C175.064,135.008,168,148.2,168,162.424z
	 M201.112,87.584c13.696-1.128,38.424-5.272,49.92-20.44l28.592,17.16C276.416,103.896,252.28,120,240,120
	C228.408,120,206.272,105.664,201.112,87.584z M240,32c22.704,0,35.176,10.736,38.776,33.136L252.12,49.144
	c-2.08-1.248-4.616-1.488-6.888-0.64c-2.28,0.832-4.048,2.672-4.816,4.968c-4.048,12.144-25.904,16.736-39.968,18.072
	C202.584,44.72,215.232,32,240,32z"/>
<polygon points="384,320 400,320 400,304 416,304 416,288 400,288 400,272 384,272 384,288 368,288 368,304 384,304 "/>
<g>
</g>
<g>
</g>
<g>
</g>
<g>
</g>
<g>
</g>
<g>
</g>
<g>
</g>
<g>
</g>
<g>
</g>
<g>
</g>
<g>
</g>
<g>
</g>
<g>
</g>
<g>
</g>
<g>
</g>
</svg>
