<svg id="Icon_Set" enable-background="new 0 0 256 256" height="512" viewBox="0 0 256 256" width="512" xmlns="http://www.w3.org/2000/svg"><path d="m241.667 170.943h-227.334c-5.523 0-10-4.477-10-10v-144.766c0-5.523 4.477-10 10-10h227.333c5.523 0 10 4.477 10 10v144.766c.001 5.523-4.476 10-9.999 10z" fill="#87828e"/><path d="m228 153.553h-200c-2.761 0-5-2.239-5-5v-119.987c0-2.761 2.239-5 5-5h200c2.761 0 5 2.239 5 5v119.987c0 2.762-2.239 5-5 5z" fill="#5fcdff"/><circle cx="128" cy="88.56" fill="#ff4a73" r="47.281"/><path d="m152.361 86.828c1.333.77 1.333 2.694 0 3.464-.819.473-36.025 20.799-35.361 20.416-1.333.77-3-.192-3-1.732v-20.416-20.416c0-1.54 1.667-2.502 3-1.732.819.473 36.025 20.799 35.361 20.416z" fill="#f9d335"/><path d="m149.028 206.083v8.166h-14.878v-8.166c0-14.056-5.534-26.78-14.476-35.995-8.949-9.208-21.305-14.907-34.955-14.907-27.3 0-49.431 22.789-49.431 50.902v8.166h-14.877v-8.166c0-36.516 28.848-66.222 64.309-66.222s64.308 29.706 64.308 66.222z" fill="#87828e"/><path d="m129 73.344v30.44l-12 6.92c-1.33.77-3-.19-3-1.73v-40.83c0-1.54 1.67-2.5 3-1.73z" fill="#f9e27d"/><path d="m175.28 88.564c0 26.11-21.17 47.28-47.28 47.28-2.55 0-5.06-.2-7.5-.59 22.55-3.6 39.78-23.13 39.78-46.69 0-23.57-17.23-43.1-39.78-46.69 2.44-.39 4.95-.59 7.5-.59 26.11 0 47.28 21.16 47.28 47.28z" fill="#ea2a6a"/><path d="m135.5 135.254c-2.44.39-4.95.59-7.5.59-26.11 0-47.28-21.17-47.28-47.28 0-26.12 21.17-47.28 47.28-47.28 2.55 0 5.06.2 7.5.59-22.55 3.59-39.78 23.12-39.78 46.69 0 23.56 17.23 43.09 39.78 46.69z" fill="#f973a3"/><path d="m251.67 16.174v144.77c0 5.52-4.48 10-10 10h-15c5.52 0 10-4.48 10-10v-144.77c0-5.52-4.48-10-10-10h15c5.52 0 10 4.48 10 10z" fill="#796e84"/><path d="m29.33 170.944h-15c-5.52 0-10-4.48-10-10v-144.77c0-5.52 4.48-10 10-10h15c-5.52 0-10 4.48-10 10v144.77c0 5.52 4.48 10 10 10z" fill="#a4a4a5"/><path d="m233 28.564v119.99c0 2.76-2.24 5-5 5h-15c2.76 0 5-2.24 5-5v-119.99c0-2.76-2.24-5-5-5h15c2.76 0 5 2.24 5 5z" fill="#30b6ff"/><path d="m43 153.554h-15c-2.76 0-5-2.24-5-5v-119.99c0-2.76 2.24-5 5-5h15c-2.76 0-5 2.24-5 5v119.99c0 2.76 2.24 5 5 5z" fill="#73d7f9"/><path d="m149.03 206.084v8.17h-14.88v-8.17c0-2.52-.18-4.99-.52-7.41-3.31-30.51-26.83-54.81-56.41-58.36 2.46-.3 4.96-.45 7.5-.45 35.46 0 64.31 29.7 64.31 66.22z" fill="#796e84"/><path d="m92.22 140.314c-29.58 3.55-53.1 27.85-56.41 58.36-.34 2.42-.52 4.89-.52 7.41v8.17h-14.88v-8.17c0-36.52 28.85-66.22 64.31-66.22 2.54 0 5.04.15 7.5.45z" fill="#a4a4a5"/><path d="m139.776 249.826h-3.625c-1.105 0-2-.895-2-2v-42.121c0-1.105.895-2 2-2h3.625c12.736 0 23.06 10.324 23.06 23.06 0 12.737-10.325 23.061-23.06 23.061z" fill="#ff4a73"/><path d="m33.288 249.826h-3.625c-12.736 0-23.06-10.324-23.06-23.06 0-12.736 10.324-23.06 23.06-23.06h3.625c1.105 0 2 .895 2 2v42.121c0 1.104-.895 1.999-2 1.999z" fill="#ff4a73"/><path d="m162.84 226.764c0 6.37-2.58 12.14-6.76 16.31-4.17 4.17-9.94 6.75-16.3 6.75h-3.63c-1.1 0-1.99-.88-2-1.99 2.6-1.15 4.95-2.78 6.93-4.76 4.18-4.17 6.76-9.94 6.76-16.31 0-9.39-5.62-17.48-13.69-21.07.01-1.1.9-1.99 2-1.99h3.63c12.73 0 23.06 10.33 23.06 23.06z" fill="#ea2a6a"/><path d="m35.29 247.834c-.01 1.11-.9 1.99-2 1.99h-3.63c-12.73 0-23.06-10.32-23.06-23.06 0-6.36 2.58-12.13 6.76-16.3 4.17-4.18 9.94-6.76 16.3-6.76h3.63c1.1 0 1.99.89 2 1.99-2.6 1.16-4.95 2.78-6.93 4.77-4.18 4.17-6.76 9.94-6.76 16.3 0 9.4 5.62 17.48 13.69 21.07z" fill="#f973a3"/><g fill="#5f266d"><path d="m241.67 2.18h-227.34c-7.72 0-14 6.28-14 14v144.76c0 7.72 6.28 14 14 14h9.18c-4.15 8.56-6.64 18.12-7.04 28.21-8.27 4.63-13.87 13.48-13.87 23.61 0 13.595 9.548 27.06 30.69 27.06 3.31 0 6-2.69 6-6 0-18.003 0-26.871 0-42.12.09-11.79 4.42-22.56 11.48-30.76h67.92c7.33 8.5 11.37 19.31 11.46 30.76v42.12c0 3.31 2.69 6 6 6 10.134 0 19.391-1.844 26.209-12.169 12.434 9.231 26.774 8.452 38.717-4.625 21.309 2.562 32.779-11.565 33.193-27.216.001-.035.001-.07.001-.105v-34.765h7.399c7.72 0 14-6.28 14-14v-144.76c.001-7.72-6.279-14-13.999-14zm-103.52 243.64c0-15.735 0-19.223 0-38.12 13.622 0 20.69 9.539 20.69 19.06 0 9.322-6.829 19.06-20.69 19.06zm-53.43-94.64c-27.278 0-49.981 21.17-53.07 48.52-2.288 0-4.186-.066-6.97.47 2.91-31.63 28.778-56.31 60.04-56.31 31.22 0 57.128 24.661 60.04 56.31-2.772-.534-4.654-.47-6.97-.47-3.098-27.666-26.028-48.52-53.07-48.52zm-53.43 94.64c-13.887 0-20.69-9.79-20.69-19.06 0-9.536 7.051-19.06 20.69-19.06zm93.9-96.27c-11.33-8.6-25.34-13.69-40.47-13.69-15.14 0-29.14 5.09-40.48 13.69h-16.24c-.55 0-1-.45-1-1v-119.99c0-.55.45-1 1-1h200c.55 0 1 .45 1 1v119.99c0 .55-.45 1-1 1zm-65.47 17.39c7.18-4.9 15.77-7.76 25-7.76 9.04 0 17.68 2.71 25.05 7.76zm137.11 62.62c-3.241 1.218-6.837-.441-8.05-3.67-1.528-4.137 1.546-8.44 5.86-8.44 2.53 0 4.93 1.55 5.86 4.07 1.218 3.221-.436 6.845-3.67 8.04zm29.441-19.93c-.481 9.674-6.114 19.031-18.529 19.676.779-1.799 1.168-3.697 1.168-5.595 0-9.925-9.954-16.828-19.25-13.36-7.391 2.753-11.117 10.968-8.37 18.34 1.33 3.56 3.97 6.4 7.43 7.98.137.059.265.118.402.167-8.008 5.102-16.264 3.266-23.322-2.66.679-2.359 1.039-4.848 1.039-7.417 0-10.13-5.6-18.98-13.87-23.61-.4-10.09-2.89-19.65-7.04-28.21h80.341v34.689zm21.399-48.69c0 3.31-2.69 6-6 6h-100.26c-2.19-3.34-4.66-6.49-7.36-9.39h93.95c4.96 0 9-4.04 9-9v-119.99c0-4.96-4.04-9-9-9h-200c-4.96 0-9 4.04-9 9v119.99c0 4.96 4.04 9 9 9h7.39c-2.7 2.9-5.17 6.05-7.36 9.39h-13.7c-3.31 0-6-2.69-6-6v-144.76c0-3.31 2.69-6 6-6h227.34c3.31 0 6 2.69 6 6z"/><path d="m128 37.28c-28.28 0-51.28 23-51.28 51.28 0 28.27 23 51.28 51.28 51.28s51.28-23.01 51.28-51.28c0-28.28-23-51.28-51.28-51.28zm0 94.56c-23.87 0-43.28-19.42-43.28-43.28 0-23.87 19.41-43.28 43.28-43.28s43.28 19.41 43.28 43.28c0 23.86-19.41 43.28-43.28 43.28z"/><path d="m154.36 83.36-35.36-20.41c-4.002-2.315-9 .604-9 5.19v40.83c0 4.626 4.992 7.484 9 5.2l35.36-20.42c3.978-2.28 4.005-8.04 0-10.39zm-36.36 22.15v-33.9l29.36 16.95z"/><path d="m41 41.28v24c0 5.285 8 5.293 8 0v-24c0-5.285-8-5.293-8 0z"/><path d="m41 80.28v2.7c0 5.285 8 5.293 8 0v-2.7c0-5.285-8-5.293-8 0z"/></g></svg>