<svg id="Layer_1" enable-background="new 0 0 256 256" height="512" viewBox="0 0 256 256" width="512" xmlns="http://www.w3.org/2000/svg"><path d="m235.215 196.535h-226.8v36.225c0 4.175 3.385 7.56 7.56 7.56h211.68c4.175 0 7.56-3.385 7.56-7.56z" fill="#4671c6"/><path d="m219.622 222.208h-195.615c-2.088 0-3.78-1.692-3.78-3.78 0-2.088 1.692-3.78 3.78-3.78h195.615c2.088 0 3.78 1.692 3.78 3.78 0 2.087-1.692 3.78-3.78 3.78z" fill="#f9cfcf"/><path d="m24.007 222.208h31.894v-7.56h-31.894c-2.088 0-3.78 1.692-3.78 3.78 0 2.087 1.693 3.78 3.78 3.78z" fill="#f9a7a7"/><path d="m235.215 196.535h-226.8v-128.135c0-4.175 3.385-7.56 7.56-7.56h211.68c4.175 0 7.56 3.385 7.56 7.56z" fill="#a4c9ff"/><circle cx="121.815" cy="132.993" fill="#e0ebfc" r="42.525"/><path d="m105.886 115.591v34.805c0 3.282 3.56 5.327 6.395 3.673l29.833-17.402c2.813-1.641 2.813-5.706 0-7.346l-29.833-17.402c-2.835-1.655-6.395.39-6.395 3.672z" fill="#f9a7a7"/><path d="m55.901 230.87c-3.131 0-5.67-2.539-5.67-5.67v-11.34c0-3.131 2.539-5.67 5.67-5.67 3.131 0 5.67 2.539 5.67 5.67v11.34c0 3.132-2.538 5.67-5.67 5.67z" fill="#ffea92"/><path d="m55.901 232.87c-4.229 0-7.67-3.441-7.67-7.67v-11.34c0-4.229 3.441-7.67 7.67-7.67s7.67 3.441 7.67 7.67v11.34c0 4.229-3.441 7.67-7.67 7.67zm0-22.68c-2.024 0-3.67 1.646-3.67 3.67v11.34c0 2.023 1.646 3.67 3.67 3.67 2.023 0 3.67-1.646 3.67-3.67v-11.34c0-2.024-1.646-3.67-3.67-3.67z" fill="#3762cc"/><path d="m227.655 242.32h-211.68c-5.271 0-9.56-4.289-9.56-9.56v-36.225c0-1.104.896-2 2-2h226.8c1.104 0 2 .896 2 2v36.225c0 5.271-4.289 9.56-9.56 9.56zm-217.24-43.785v34.225c0 3.065 2.494 5.56 5.56 5.56h211.68c3.066 0 5.56-2.494 5.56-5.56v-34.225z" fill="#3762cc"/><path d="m235.215 198.535h-226.8c-1.104 0-2-.896-2-2v-128.135c0-5.271 4.289-9.56 9.56-9.56h211.68c5.271 0 9.56 4.289 9.56 9.56v128.135c0 1.105-.896 2-2 2zm-224.8-4h222.8v-126.135c0-3.066-2.494-5.56-5.56-5.56h-211.68c-3.066 0-5.56 2.494-5.56 5.56z" fill="#3762cc"/><path d="m238.585 15.68h-64.945c-4.971 0-9 4.029-9 9v60.912c0 4.971 4.029 9 9 9h16.864l12.382 19.426c1.535 2.408 5.025 2.478 6.656.135l13.613-19.561h15.43c4.971 0 9-4.029 9-9v-60.912c0-4.971-4.029-9-9-9z" fill="#f9a7a7"/><g fill="#ffea92"><path d="m218.405 62.602c2.662-2.908 4.288-6.781 4.288-11.035 0-9.028-7.319-16.347-16.347-16.347s-16.347 7.319-16.347 16.347c0 4.253 1.625 8.126 4.288 11.035h-.042c2.704 3.201 4.337 7.334 4.337 11.852 0 .274-.009.546-.021.817h1.655 5.313 1.635 4.904 2.064c-.012-.271-.021-.543-.021-.817 0-4.518 1.634-8.651 4.337-11.852z"/><path d="m218.446 36.22.067.067c.939.939 2.461.939 3.4 0l5.269-5.269c.939-.939.939-2.461 0-3.4l-.067-.067c-.939-.939-2.461-.939-3.4 0l-5.269 5.269c-.939.938-.939 2.461 0 3.4z"/><path d="m206.389 31.444h-.089c-1.33 0-2.408-1.078-2.408-2.408v-7.478c0-1.33 1.078-2.408 2.408-2.408h.089c1.33 0 2.408 1.078 2.408 2.408v7.478c0 1.33-1.078 2.408-2.408 2.408z"/><path d="m194.448 36.22-.067.067c-.939.939-2.461.939-3.4 0l-5.269-5.269c-.939-.939-.939-2.461 0-3.4l.067-.067c.939-.939 2.461-.939 3.4 0l5.269 5.269c.939.938.939 2.461 0 3.4z"/><path d="m223.918 43.328v-.095c0-1.328 1.077-2.405 2.404-2.405h7.452c1.328 0 2.404 1.077 2.404 2.405v.095c0 1.328-1.077 2.404-2.404 2.404h-7.452c-1.327 0-2.404-1.076-2.404-2.404z"/><path d="m176.511 43.328v-.095c0-1.328 1.077-2.405 2.404-2.405h7.452c1.328 0 2.405 1.077 2.405 2.405v.095c0 1.328-1.077 2.404-2.405 2.404h-7.452c-1.328 0-2.404-1.076-2.404-2.404z"/></g><path d="m206.345 52.915c-2.934 0-5.313 2.379-5.313 5.313 0 2.234 1.381 4.143 3.334 4.928v12.115h3.959v-12.114c1.953-.785 3.334-2.694 3.334-4.928-.001-2.935-2.38-5.314-5.314-5.314zm0 8.309c-1.652 0-2.996-1.344-2.996-2.996s1.344-2.996 2.996-2.996 2.996 1.344 2.996 2.996-1.344 2.996-2.996 2.996z" fill="#f9a7a7"/><path d="m214.441 80.176h-16.191c-.495 0-.895-.401-.895-.895v-3.113c0-.495.401-.895.895-.895h16.191c.495 0 .895.401.895.895v3.113c0 .494-.401.895-.895.895z" fill="#4671c6"/><path d="m213.103 85.08h-13.107c-.782 0-1.416-.634-1.416-1.416v-3.489h15.939v3.489c0 .782-.634 1.416-1.416 1.416z" fill="#4671c6"/><path d="m207.98 91.619h-3.27c-2.709 0-4.904-2.196-4.904-4.904v-1.635h13.078v1.635c0 2.708-2.196 4.904-4.904 4.904z" fill="#4671c6"/><path d="m206.26 117.868c-.041 0-.082 0-.123-.001-2.011-.041-3.857-1.078-4.938-2.773l-11.792-18.501h-15.767c-6.065 0-11-4.935-11-11v-60.913c0-6.065 4.935-11 11-11h64.945c6.065 0 11 4.935 11 11v60.912c0 6.065-4.935 11-11 11h-14.385l-13.016 18.703c-1.126 1.617-2.959 2.573-4.924 2.573zm-32.62-100.188c-3.86 0-7 3.14-7 7v60.912c0 3.86 3.14 7 7 7h16.864c.683 0 1.319.349 1.687.925l12.382 19.426c.366.574.966.911 1.646.925.689.029 1.293-.299 1.682-.857l13.613-19.561c.374-.537.987-.857 1.642-.857h15.43c3.86 0 7-3.14 7-7v-60.913c0-3.86-3.14-7-7-7z" fill="#3762cc"/></svg>