<?xml version="1.0" encoding="iso-8859-1"?>
<!-- Generator: Adobe Illustrator 16.0.0, SVG Export Plug-In . SVG Version: 6.00 Build 0)  -->
<!DOCTYPE svg PUBLIC "-//W3C//DTD SVG 1.1//EN" "http://www.w3.org/Graphics/SVG/1.1/DTD/svg11.dtd">
<svg version="1.1" id="Capa_1" xmlns="http://www.w3.org/2000/svg" xmlns:xlink="http://www.w3.org/1999/xlink" x="0px" y="0px"
	 width="31.184px" height="31.183px" viewBox="0 0 31.184 31.183" style="enable-background:new 0 0 31.184 31.183;"
	 xml:space="preserve">
<g>
	<g>
		<path d="M9.087,15.882c2.505,0,4.534-2.03,4.534-4.538c0-1.566,0.547-2.996-0.659-3.811C12.239,7.042,9.058,6.81,8.117,6.81
			c-1.118,0-2.571,0.911-3.361,1.58c-0.985,0.832-0.208,1.565-0.208,2.954C4.548,13.852,6.576,15.882,9.087,15.882z M5.925,10.9
			c0.832-0.152,1.398,0.123,1.398,0.123l1.394-0.678c0,0-0.708,1.025-0.07,0.678c1.415-0.478,3-0.278,3.809-0.12
			c0.028,0.177,0.053,0.358,0.053,0.547c0,1.867-1.482,3.377-3.32,3.377c-1.834,0-3.318-1.51-3.318-3.377
			C5.869,11.261,5.896,11.079,5.925,10.9z"/>
		<path d="M16.878,16.618c-0.252-2.292,0.843-3.675,1.265-4.118c0.39,2.373,2.438,4.194,4.918,4.194c2.35,0,4.312-1.636,4.847-3.826
			c0.401,0.716,1.084,2.179,0.918,3.75c4.168-0.035,2.114-4.798-0.808-5.321c-0.021-0.243-0.041-0.487-0.095-0.721
			c-0.173-1.506-1.521-4.566-5.381-4.472c-3.332,0.077-4.06,2.583-4.231,4.111c-0.119,0.376-0.193,0.769-0.22,1.175
			C13.753,12.146,14.231,16.544,16.878,16.618z M20.717,10.28c0,0,0.428,0.146,0.428,1.537c0.735,0.258,2.014-2.161,2.014-2.161
			v1.905c0.818,0.221,3.379-0.074,3.379-0.074l0.096,0.083c0.002,0.041,0.012,0.08,0.012,0.122c0,1.979-1.608,3.587-3.584,3.587
			c-1.949,0-3.535-1.567-3.578-3.509C20.193,11.512,20.717,10.28,20.717,10.28z"/>
		<polygon points="24.171,17.351 22.068,17.351 20.307,17.351 16.466,21.977 12.276,16.83 6.279,16.83 0,23.722 1.317,25.081 
			5.813,21.244 5.911,24.24 12.836,24.134 12.855,21.382 15.685,24.29 16.27,25.081 16.355,24.979 16.45,25.075 16.7,24.586 
			20.118,20.672 20.339,22.417 19.65,23.949 26.639,23.832 25.711,22.417 25.884,20.269 28.893,24.301 30.891,23.806 26.117,17.351 
					"/>
	</g>
</g>
<g>
</g>
<g>
</g>
<g>
</g>
<g>
</g>
<g>
</g>
<g>
</g>
<g>
</g>
<g>
</g>
<g>
</g>
<g>
</g>
<g>
</g>
<g>
</g>
<g>
</g>
<g>
</g>
<g>
</g>
</svg>
