<?xml version="1.0" encoding="iso-8859-1"?>
<!-- Generator: Adobe Illustrator 19.0.0, SVG Export Plug-In . SVG Version: 6.00 Build 0)  -->
<svg version="1.1" id="Layer_1" xmlns="http://www.w3.org/2000/svg" xmlns:xlink="http://www.w3.org/1999/xlink" x="0px" y="0px"
	 viewBox="0 0 496.2 496.2" style="enable-background:new 0 0 496.2 496.2;" xml:space="preserve">
<path style="fill:#FFEFD6;" d="M0,248.1C0,111.1,111.1,0,248.1,0s248.1,111.1,248.1,248.1S385.1,496.2,248.1,496.2S0,385.1,0,248.1z
	"/>
<polygon style="fill:#302F2F;" points="220.4,311.5 221.6,321.8 248.1,328.4 274.6,321.8 275.8,311.5 "/>
<path style="fill:#B3233B;" d="M274.6,244.2c1.9-11.5-7.5-32.4-7.5-32.4c-4.5-0.6-9.2-0.8-12.7-0.8h-12.6c-3.6,0-8.2,0.2-12.7,0.8
	c0,0-9.4,21-7.5,32.4c1.8,10.7,4.8,26.4-1.2,67.3h27.7l0,0h27.7C269.8,270.6,272.8,254.9,274.6,244.2z"/>
<path style="fill:#F4B382;" d="M258,318.8c-14.8,5.3-31.6,11.1-35.7,11.1c-17,0.1-30.6,6.3-29.8,9.9c0,0,40,1,69.7,0
	C273.7,339.5,269.5,314.8,258,318.8z"/>
<path style="fill:#3D3C3C;" d="M258,318.8c11.5-4.1,21.8-8.1,24.2-8.3c19.9-2.1,31.5,2.3,31.5,17.6c0,10.8-13.1,11.8-24.6,11.8
	c-6.2,0-15.4-0.4-26.8,0C261.8,332.6,260.4,325.6,258,318.8z"/>
<path style="fill:#F4B382;" d="M236.6,311c15.7,0.5,33.5,0.9,37.4-0.3c16.2-5.1,31-3.3,31.4,0.3c0,0-37.8,13.2-66.3,21.3
	C228.1,335.4,224.4,310.6,236.6,311z"/>
<path style="fill:#3D3C3C;" d="M236.6,311c-12.2-0.4-25.5-3.8-30-4.9c-9.2-2.3-19.9-5.6-22.7,9.7c-2.7,15.1,13.1,16.6,24.5,18.3
	c7,1,19.6,1.4,30.6-1.8C237.3,325.3,236.5,318.1,236.6,311z"/>
<g>
	<path style="fill:#F4B382;" d="M198.6,306.6l-23.3-1.9l-0.4-3l2.4-0.3l6.6-0.8l0.6-2.6l4.8-0.2l4,0.8l3.9-1.6l10.9-13.5
		c0.3-4.8,1.1-12.3-0.2-26.2c-1.8-18.2,0.1-38.9,5.1-41.5c6.5-3.4,16.2-3.8,16.2-3.8s-4.3,22.8-6.9,22.9c-1,0-0.1,24.4-0.9,34.9
		c-0.6,8.9-0.8,15.3-3,18.8S198.6,306.6,198.6,306.6z"/>
	<path style="fill:#F4B382;" d="M300.2,312.6l23.3-1.9l0.4-3l-2.4-0.3l-6.6-0.8l-0.6-2.6l-4.8-0.2l-4,0.8l-3.9-1.6l-13.5-19.7
		c-0.3-4.8-1.1-12.3,0.2-26.2c1.8-18.2-0.1-38.9-5.1-41.5c-6.5-3.4-16.2-3.8-16.2-3.8s4.3,22.8,6.9,22.9c1,0,0.1,24.4,0.9,34.9
		c0.6,8.9,0.8,15.3,3,18.8s16.7,17.9,16.7,17.9L300.2,312.6z"/>
</g>
<path style="fill:#E2A379;" d="M256.5,199.5h-16.9c2.6,8,0.2,11.6,0.2,11.6s0.5,5.2,8.3,5.2c7.7,0,8.2-5.2,8.2-5.2
	S253.9,207.4,256.5,199.5z"/>
<path style="fill:#F4B382;" d="M265.4,176.2c0-20.1-7.8-24.7-17.3-24.7c-9.6,0-17.3,4.6-17.3,24.7c0,6.8,1.2,12.1,3,16.2
	c4,9,10.9,12.2,14.3,12.2s10.3-3.2,14.3-12.2C264.2,188.3,265.4,183,265.4,176.2z"/>
<path style="fill:#D6876B;" d="M253,196.4c0,0-2.2,1.1-4.9,1.1c-2.7,0-4.9-1.1-4.9-1.1c0-0.3,1.6-2.1,2.6-2.2
	c0.6-0.1,2.3,0.5,2.3,0.5s1.6-0.6,2.3-0.5C251.4,194.3,253,196.4,253,196.4z"/>
<path style="fill:#CC785E;" d="M253,196.4c0,0-2.2,2-4.9,2c-2.7,0-4.9-2-4.9-2s0.5-0.6,3.4-0.8c0.5,0,1.1,0.4,1.5,0.4
	s0.9-0.4,1.3-0.4C252.4,195.8,253,196.4,253,196.4z"/>
<ellipse style="fill:#4C230C;" cx="248.1" cy="152.5" rx="9.1" ry="6.2"/>
<path style="fill:#602F0F;" d="M266.1,177.1c0-20.1-5.5-25.5-18-25.5s-18,5.5-18,25.5c0,0,26.7-5.8,26.7-13.1
	C256.8,171.3,266.1,177.1,266.1,177.1z"/>
<g>
	<path style="fill:#F4B382;" d="M229.1,183.3c0.9,5.5,2.1,5.7,3.8,5.4l-1.8-11.9C229.4,177.1,228.1,177.8,229.1,183.3z"/>
	<path style="fill:#F4B382;" d="M265.1,176.8l-1.8,11.9c1.7,0.3,2.8,0,3.8-5.4C268.1,177.8,266.8,177.1,265.1,176.8z"/>
</g>
<g>
	<path style="fill:#602F0F;" d="M232.1,177.9c-0.1-0.6-0.1-1.1-0.1-1.6c0-0.6,0.1-1,0.1-1l-2,0.8c0,0.3,0,0.6,0,0.9
		c0,0,0.2-0.1,0.6-0.2c0,0,0,0-0.1,0c0.3,0.5,0.6,1.2,1,2.3C231.6,179.2,232.4,179.8,232.1,177.9z"/>
	<path style="fill:#602F0F;" d="M264.1,176.4c0,0.4,0,1-0.1,1.5c-0.3,1.8,0.5,1.2,0.5,1.2c0.3-1.1,0.7-1.8,1-2.3
		c0.4,0.1,0.6,0.2,0.6,0.2c0-0.3,0-0.6,0-0.9l-2-0.8C264,175.4,264.1,175.8,264.1,176.4"/>
</g>
<g>
</g>
<g>
</g>
<g>
</g>
<g>
</g>
<g>
</g>
<g>
</g>
<g>
</g>
<g>
</g>
<g>
</g>
<g>
</g>
<g>
</g>
<g>
</g>
<g>
</g>
<g>
</g>
<g>
</g>
</svg>
