<?xml version="1.0" encoding="utf-8"?>
<!-- Generator: Adobe Illustrator 22.1.0, SVG Export Plug-In . SVG Version: 6.00 Build 0)  -->
<svg xmlns="http://www.w3.org/2000/svg" xmlns:xlink="http://www.w3.org/1999/xlink" version="1.1" id="Layer_1" x="0px" y="0px" viewBox="0 0 512 512" style="enable-background:new 0 0 512 512;" xml:space="preserve" width="512" height="512">
<style type="text/css">
	.st0{fill:#FFA730;}
	.st1{fill:#E58D23;}
	.st2{fill:#BF6C0D;}
	.st3{fill:#A56021;}
	.st4{fill:#FFD551;}
	.st5{fill:#FFF4C1;}
	.st6{fill:#FFC34C;}
	.st7{fill:#FFEA63;}
	.st8{fill:#FCE575;}
	.st9{fill:#FFB74B;}
	.st10{fill:#8C4C17;}
	.st11{fill:#F9BB32;}
	.st12{fill:#FF4B34;}
	.st13{fill:#FF9079;}
	.st14{fill:#FFDF74;}
	.st15{fill:#FF624B;}
	.st16{fill:#CCC033;}
	.st17{fill:#EACF32;}
	.st18{fill:#FFEACF;}
	.st19{fill:#99AF17;}
	.st20{fill:#FFD59A;}
	.st21{fill:#FCDA4F;}
	.st22{fill:#FCF9DE;}
	.st23{fill:#DB9C2E;}
</style>
<g>
	<g>
		<g>
			<path class="st5" d="M77.048,43.137v425.726c0,8.634,6.999,15.632,15.632,15.632h276.679c8.634,0,15.632-6.999,15.632-15.632     V121.749l-90.664-94.245H92.68C84.047,27.504,77.048,34.503,77.048,43.137z"/>
		</g>
	</g>
	<g>
		<g>
			<path class="st14" d="M179.435,307.698h12.585c6.627,0,12-5.373,12-12V265h-24.585V307.698z"/>
		</g>
	</g>
	<g>
		<g>
			<path class="st23" d="M169.519,359.642h-4.54c-9.556,0-17.302-7.746-17.302-17.302v-98.979h39.144v98.979     C186.821,351.896,179.074,359.642,169.519,359.642z"/>
		</g>
	</g>
	<g>
		<g>
			<path class="st8" d="M127.048,468.863V43.137c0-8.634,6.999-15.633,15.633-15.633h-50c-8.634,0-15.633,6.999-15.633,15.633     v425.727c0,8.634,6.999,15.633,15.633,15.633h50C134.046,484.496,127.048,477.497,127.048,468.863z"/>
		</g>
	</g>
	<g>
		<g>
			<path class="st2" d="M167.677,342.341v-98.979h-20v98.979c0,9.556,7.746,17.302,17.302,17.302h4.54     c2.782,0,5.401-0.673,7.73-1.839C171.579,354.963,167.677,349.114,167.677,342.341z"/>
		</g>
	</g>
	<g>
		<g>
			<path class="st8" d="M294.328,27.505h-20v75.485c0,10.359,8.399,18.759,18.759,18.759h13.933h57.972h20L294.328,27.505z"/>
		</g>
	</g>
	<g>
		<g>
			<path class="st22" d="M294.328,27.505l90.664,94.244h-71.905c-10.36,0-18.759-8.399-18.759-18.759V27.505z"/>
		</g>
	</g>
	<g>
		<g>
			<g>
				<path class="st3" d="M247.433,128.151H111.438c-4.971,0-9-4.029-9-9s4.029-9,9-9h135.995c4.971,0,9,4.029,9,9      S252.404,128.151,247.433,128.151z"/>
			</g>
		</g>
	</g>
	<g>
		<g>
			<g>
				<path class="st3" d="M339.66,168.906H111.438c-4.971,0-9-4.029-9-9s4.029-9,9-9H339.66c4.971,0,9,4.029,9,9      S344.631,168.906,339.66,168.906z"/>
			</g>
		</g>
	</g>
	<g>
		<g>
			<g>
				<path class="st3" d="M247.433,86.465H111.438c-4.971,0-9-4.029-9-9s4.029-9,9-9h135.995c4.971,0,9,4.029,9,9      S252.404,86.465,247.433,86.465z"/>
			</g>
		</g>
	</g>
	<g>
		<g>
			<g>
				<path class="st3" d="M339.66,390.183H111.438c-4.971,0-9-4.029-9-9s4.029-9,9-9H339.66c4.971,0,9,4.029,9,9      S344.631,390.183,339.66,390.183z"/>
			</g>
		</g>
	</g>
	<g>
		<g>
			<g>
				<path class="st3" d="M247.433,432.801H111.438c-4.971,0-9-4.029-9-9s4.029-9,9-9h135.995c4.971,0,9,4.029,9,9      S252.404,432.801,247.433,432.801z"/>
			</g>
		</g>
	</g>
	<g>
		<g>
			<path class="st22" d="M294.328,27.505l90.664,94.244h-71.905c-10.36,0-18.759-8.399-18.759-18.759V27.505z"/>
		</g>
	</g>
	<g>
		<g>
			<path class="st10" d="M111.438,414.801c-4.971,0-9,4.029-9,9s4.029,9,9,9h15.61v-18H111.438z"/>
		</g>
	</g>
	<g>
		<g>
			<path class="st10" d="M111.438,372.183c-4.971,0-9,4.029-9,9s4.029,9,9,9h15.61v-18H111.438z"/>
		</g>
	</g>
	<g>
		<g>
			<path class="st10" d="M111.438,150.906c-4.971,0-9,4.029-9,9s4.029,9,9,9h15.61v-18H111.438z"/>
		</g>
	</g>
	<g>
		<g>
			<path class="st10" d="M111.438,110.151c-4.971,0-9,4.029-9,9s4.029,9,9,9h15.61v-18H111.438z"/>
		</g>
	</g>
	<g>
		<g>
			<path class="st10" d="M111.438,68.465c-4.971,0-9,4.029-9,9s4.029,9,9,9h15.61v-18H111.438z"/>
		</g>
	</g>
	<g>
		<g>
			<path class="st2" d="M344.888,239.276h-47.717c-2.084,0-3.773-1.689-3.773-3.773v-0.645c0-2.084,1.689-3.773,3.773-3.773h47.717     c2.084,0,3.773,1.689,3.773,3.773v0.645C348.66,237.586,346.971,239.276,344.888,239.276z"/>
		</g>
	</g>
	<g>
		<g>
			<path class="st23" d="M299.454,246.15H261.28v-22.631h38.173c2.761,0,5,2.239,5,5v12.631     C304.454,243.911,302.215,246.15,299.454,246.15z"/>
		</g>
	</g>
	<g>
		<g>
			<path class="st4" d="M269.532,259.214h-33.41v-48.76h33.41c5.523,0,10,4.477,10,10v28.76     C279.532,254.737,275.054,259.214,269.532,259.214z"/>
		</g>
	</g>
	<g>
		<g>
			<path class="st11" d="M246.745,275.417H128.797c-8.284,0-15-6.716-15-15v-51.166c0-8.284,6.716-15,15-15h117.949     c8.284,0,15,6.716,15,15v51.166C261.745,268.701,255.03,275.417,246.745,275.417z"/>
		</g>
	</g>
	<g>
		<g>
			<path class="st11" d="M246.745,275.417H128.797c-8.284,0-15-6.716-15-15v-51.166c0-8.284,6.716-15,15-15h117.949     c8.284,0,15,6.716,15,15v51.166C261.745,268.701,255.03,275.417,246.745,275.417z"/>
		</g>
	</g>
	<g>
		<g>
			<path class="st23" d="M127.048,275.307v-80.945c-7.459,0.868-13.251,7.198-13.251,14.89v51.166     C113.797,268.108,119.589,274.439,127.048,275.307z"/>
		</g>
	</g>
	<g>
		<g>
			<path class="st14" d="M175.134,224.6H148.48c-3.203,0-5.8-2.597-5.8-5.8v0c0-3.203,2.597-5.8,5.8-5.8h26.654     c3.203,0,5.8,2.597,5.8,5.8v0C180.934,222.004,178.337,224.6,175.134,224.6z"/>
		</g>
	</g>
	<g>
		<g>
			<path class="st14" d="M175.134,249.592H148.48c-3.203,0-5.8-2.597-5.8-5.8v0c0-3.203,2.597-5.8,5.8-5.8h26.654     c3.203,0,5.8,2.597,5.8,5.8v0C180.934,246.995,178.337,249.592,175.134,249.592z"/>
		</g>
	</g>
	<g>
		<g>
			<circle class="st19" cx="364.02" cy="412.715" r="70.933"/>
		</g>
	</g>
	<g>
		<g>
			<circle class="st14" cx="364.02" cy="412.715" r="57.957"/>
		</g>
	</g>
	<g>
		<g>
			<g>
				<path class="st16" d="M355.369,450.344c-2.52,0-4.917-1.099-6.562-3.014l-28.979-33.736c-3.113-3.624-2.698-9.085,0.926-12.198      c3.624-3.112,9.085-2.698,12.198,0.926l22.21,25.857l54.461-67.453c3.001-3.717,8.447-4.297,12.165-1.296      c3.717,3.001,4.297,8.447,1.296,12.165L362.1,447.128c-1.613,1.998-4.03,3.176-6.598,3.215      C355.457,450.344,355.413,450.344,355.369,450.344z"/>
			</g>
		</g>
	</g>
	<g>
		<g>
			<path class="st4" d="M332.014,412.715c0-27.497,19.253-50.565,44.982-56.475c-4.175-0.959-8.514-1.483-12.975-1.483     c-31.958,0-57.957,25.999-57.957,57.957s25.999,57.957,57.957,57.957c4.462,0,8.801-0.524,12.975-1.483     C351.266,463.28,332.014,440.212,332.014,412.715z"/>
		</g>
	</g>
	<g>
		<g>
			<path class="st19" d="M332.014,412.715c0-3.548,0.326-7.02,0.94-10.393l-0.001-0.001c-3.114-3.624-8.574-4.038-12.198-0.926     c-3.624,3.113-4.039,8.574-0.926,12.198l15.285,17.795C333.112,425.526,332.014,419.248,332.014,412.715z"/>
		</g>
	</g>
	<g>
		<g>
			<circle class="st8" cx="148.929" cy="460.778" r="15"/>
		</g>
	</g>
	<g>
		<g>
			<circle class="st23" cx="233.742" cy="246.15" r="15"/>
		</g>
	</g>
	<g>
		<g>
			<path class="st22" d="M367.373,313.698c-3.313,0-6-2.686-6-6V197.034c0-3.313,2.687-6,6-6s6,2.687,6,6v110.664     C373.373,311.012,370.687,313.698,367.373,313.698z"/>
		</g>
	</g>
</g>
</svg>
