<svg height="512pt" viewBox="0 -76 512 512" width="512pt" xmlns="http://www.w3.org/2000/svg"><path d="m490.238281 24.144531v312.511719h-468.476562v-312.511719c0-13.332031 10.8125-24.144531 24.15625-24.144531h420.164062c13.34375 0 24.15625 10.8125 24.15625 24.144531zm0 0" fill="#e5f4ff"/><path d="m466.082031 0h-60.433593c13.339843 0 24.15625 10.8125 24.15625 24.148438v312.507812h60.433593v-312.511719c0-13.332031-10.8125-24.144531-24.15625-24.144531zm0 0" fill="#c4daec"/><path d="m300.40625 313.613281c0 9.304688-7.542969 16.847657-16.847656 16.847657h-55.117188c-9.304687 0-16.847656-7.542969-16.847656-16.847657h-209.257812c-1.289063 0-2.335938 1.046875-2.335938 2.335938v21.078125c0 12.34375 10.007812 22.351562 22.347656 22.351562h467.304688c12.339844 0 22.347656-10.007812 22.347656-22.351562v-21.078125c0-1.292969-1.046875-2.335938-2.335938-2.335938zm0 0" fill="#628db2"/><path d="m509.664062 313.613281h-59.847656c1.289063 0 2.335938 1.042969 2.335938 2.335938v21.078125c0 12.34375-10.007813 22.351562-22.347656 22.351562h59.847656c12.339844 0 22.347656-10.007812 22.347656-22.351562v-21.078125c0-1.289063-1.046875-2.335938-2.335938-2.335938zm0 0" fill="#41739f"/><path d="m490.238281 24.144531v48.664063h-468.476562v-48.664063c0-13.332031 10.8125-24.144531 24.15625-24.144531h420.164062c13.34375 0 24.15625 10.8125 24.15625 24.144531zm0 0" fill="#c4daec"/><path d="m466.082031 0h-60.433593c13.339843 0 24.15625 10.8125 24.15625 24.148438v48.660156h60.433593v-48.660156c0-13.335938-10.8125-24.148438-24.15625-24.148438zm0 0" fill="#a3c0d9"/><path d="m45.917969 0h89.757812c-10.542969 0-19.097656 8.550781-19.097656 19.097656 0 5.265625-2.136719 10.046875-5.59375 13.496094-3.449219 3.460938-8.222656 5.597656-13.5 5.597656h-75.722656v-14.046875c0-13.332031 10.8125-24.144531 24.15625-24.144531zm0 0" fill="#83a7c5"/><path d="m490.238281 24.144531v14.046875h-245.628906c-10.542969 0-19.09375-8.550781-19.09375-19.09375 0-5.269531-2.140625-10.050781-5.597656-13.5-3.449219-3.460937-8.222657-5.597656-13.5-5.597656h259.664062c13.34375 0 24.15625 10.8125 24.15625 24.144531zm0 0" fill="#83a7c5"/><path d="m466.082031 0h-60.433593c13.339843 0 24.15625 10.8125 24.15625 24.148438v14.042968h60.433593v-14.042968c0-13.335938-10.8125-24.148438-24.15625-24.148438zm0 0" fill="#628db2"/><path d="m448.265625 276.070312h-169.523437c-2.148438 0-3.886719-1.738281-3.886719-3.882812v-160.488281c0-2.144531 1.738281-3.886719 3.886719-3.886719h169.523437c2.148437 0 3.886719 1.742188 3.886719 3.886719v160.488281c0 2.144531-1.738282 3.882812-3.886719 3.882812zm0 0" fill="#82aaff"/><path d="m307.75 247.902344c0-.199219.066406-.5625.199219-1.089844l18.46875-60.570312c.527343-1.652344 1.738281-2.929688 3.625-3.824219s4.054687-1.339844 6.503906-1.339844c2.445313 0 4.617187.449219 6.503906 1.339844 1.886719.894531 3.09375 2.171875 3.625 3.824219l18.566407 60.570312c.132812.53125.199218.890625.199218 1.089844 0 1.722656-1.078125 3.210937-3.226562 4.46875-2.152344 1.257812-4.386719 1.886718-6.703125 1.886718-2.847657 0-4.535157-.957031-5.0625-2.878906l-3.378907-12.410156h-20.949218l-3.378906 12.410156c-.527344 1.921875-2.21875 2.878906-5.0625 2.878906-2.316407 0-4.550782-.628906-6.703126-1.886718-2.152343-1.257813-3.226562-2.746094-3.226562-4.46875zm21.546875-20.851563h14.5l-7.25-26.609375zm0 0" fill="#fff"/><path d="m371.199219 249.589844v-63.25c0-1.253906.628906-2.347656 1.886719-3.277344 1.257812-.925781 2.878906-1.386719 4.863281-1.386719h17.578125c7.410156 0 13.335937 1.886719 17.773437 5.660157 4.433594 3.769531 6.652344 9.695312 6.652344 17.773437v25.714844c0 8.078125-2.21875 14-6.652344 17.773437-4.4375 3.773438-10.363281 5.660156-17.773437 5.660156h-17.578125c-1.984375 0-3.605469-.460937-4.863281-1.390624-1.257813-.925782-1.886719-2.019532-1.886719-3.277344zm15.488281-8.835938h8.839844c5.957031 0 8.9375-3.308594 8.9375-9.929687v-25.71875c0-6.617188-2.980469-9.925781-8.9375-9.925781h-8.839844zm0 0" fill="#fff"/><g fill="#c4daec"><path d="m229.390625 124.09375h-164.507813c-4.664062 0-8.445312-3.78125-8.445312-8.445312 0-4.664063 3.78125-8.445313 8.445312-8.445313h164.507813c4.664063 0 8.445313 3.78125 8.445313 8.445313 0 4.664062-3.78125 8.445312-8.445313 8.445312zm0 0"/><path d="m229.390625 164.113281h-164.507813c-4.664062 0-8.445312-3.78125-8.445312-8.445312 0-4.664063 3.78125-8.445313 8.445312-8.445313h164.507813c4.664063 0 8.445313 3.78125 8.445313 8.445313 0 4.664062-3.78125 8.445312-8.445313 8.445312zm0 0"/><path d="m229.390625 204.132812h-164.507813c-4.664062 0-8.445312-3.78125-8.445312-8.445312s3.78125-8.445312 8.445312-8.445312h164.507813c4.664063 0 8.445313 3.78125 8.445313 8.445312s-3.78125 8.445312-8.445313 8.445312zm0 0"/><path d="m229.390625 244.148438h-164.507813c-4.664062 0-8.445312-3.78125-8.445312-8.445313 0-4.660156 3.78125-8.441406 8.445312-8.441406h164.507813c4.664063 0 8.445313 3.777343 8.445313 8.441406s-3.78125 8.445313-8.445313 8.445313zm0 0"/><path d="m171.574219 284.167969h-106.691407c-4.664062 0-8.445312-3.78125-8.445312-8.445313 0-4.660156 3.78125-8.445312 8.445312-8.445312h106.691407c4.664062 0 8.445312 3.78125 8.445312 8.445312 0 4.664063-3.78125 8.445313-8.445312 8.445313zm0 0"/></g><path d="m425.566406 143.746094 3.070313-3.070313c3.296875-3.296875 3.296875-8.644531 0-11.941406-3.300781-3.300781-8.644531-3.300781-11.945313 0l-3.070312 3.070313-3.066406-3.070313c-3.300782-3.300781-8.644532-3.300781-11.945313 0-3.296875 3.296875-3.296875 8.644531 0 11.941406l3.070313 3.070313-3.070313 3.070312c-3.296875 3.296875-3.296875 8.644532 0 11.941406 1.652344 1.648438 3.8125 2.472657 5.972656 2.472657 2.160157 0 4.320313-.824219 5.972657-2.472657l3.066406-3.070312 3.070312 3.070312c1.652344 1.648438 3.8125 2.472657 5.972656 2.472657 2.160157 0 4.320313-.824219 5.972657-2.472657 3.296875-3.296874 3.296875-8.644531 0-11.941406zm0 0" fill="#fff"/></svg>