<?xml version="1.0" encoding="iso-8859-1"?>
<!-- Generator: Adobe Illustrator 19.0.0, SVG Export Plug-In . SVG Version: 6.00 Build 0)  -->
<svg version="1.1" id="Capa_1" xmlns="http://www.w3.org/2000/svg" xmlns:xlink="http://www.w3.org/1999/xlink" x="0px" y="0px"
	 viewBox="0 0 512 512" style="enable-background:new 0 0 512 512;" xml:space="preserve">
<path style="fill:#455A64;" d="M312.864,450.688L272,423.424V368c0-8.832-7.168-16-16-16s-16,7.168-16,16v55.424l-40.864,27.264
	c-7.36,4.896-9.344,14.848-4.448,22.176c4.864,7.328,14.752,9.312,22.176,4.448L256,451.232l39.136,26.08
	c2.72,1.824,5.792,2.688,8.864,2.688c5.152,0,10.208-2.496,13.312-7.136C322.208,465.536,320.224,455.584,312.864,450.688z"/>
<path style="fill:#ECEFF1;" d="M464,64H48c-8.832,0-16,7.136-16,16v272c0,17.664,14.368,32,32,32h384c17.664,0,32-14.336,32-32V80
	C480,71.136,472.832,64,464,64z"/>
<path style="fill:#455A64;" d="M496,32H16C7.168,32,0,39.136,0,48v32c0,8.832,7.168,16,16,16h480c8.832,0,16-7.168,16-16V48
	C512,39.136,504.832,32,496,32z"/>
<rect x="224" y="192" style="fill:#4CAF50;" width="64" height="128"/>
<rect x="352" y="160" style="fill:#FFC107;" width="64" height="160"/>
<rect x="96" y="256" style="fill:#2196F3;" width="64" height="64"/>
<g>
</g>
<g>
</g>
<g>
</g>
<g>
</g>
<g>
</g>
<g>
</g>
<g>
</g>
<g>
</g>
<g>
</g>
<g>
</g>
<g>
</g>
<g>
</g>
<g>
</g>
<g>
</g>
<g>
</g>
</svg>
