<svg height="496pt" viewBox="-32 0 496 496" width="496pt" xmlns="http://www.w3.org/2000/svg"><g fill="#f0bc5e"><path d="m240 40h96v136h-96zm0 0"/><path d="m32 320h64v128h-64zm0 0"/><path d="m336 464h-224v-224h224zm0 0"/><path d="m216 128c0 7.679688-.960938 15.121094-2.878906 22.238281h-.082032c-4 1.121094-8.238281 1.761719-12.640624 1.761719-17.917969 0-32.398438-14.480469-32.398438-32.398438 0-9.839843-4.480469-19.203124-12.160156-25.363281l-13.679688-10.878906c-8.960937-7.199219-14.160156-18.078125-14.160156-29.519531 0-4.878906.960938-9.441406 2.640625-13.679688v-.082031c47.4375 1.363281 85.359375 40.160156 85.359375 87.921875zm0 0"/><path d="m86.398438 59.199219c6.242187 8.320312 9.601562 18.402343 9.601562 28.800781v12c0 11.039062 8.960938 20 20 20s20 8.960938 20 20v7.679688c0 15.679687-12.640625 28.320312-28.320312 28.320312-7.441407 0-14.640626-2.960938-20-8.320312l-1.601563-1.601563c-9.039063-9.039063-21.199219-14.078125-34-14.078125-3.199219 0-6.238281-.640625-9.117187-1.679688h-.082032c-1.917968-7.121093-2.878906-14.640624-2.878906-22.320312 0-31.441406 16.480469-58.960938 41.199219-74.558594l.082031.078125c1.839844 1.761719 3.597656 3.601563 5.117188 5.679688zm0 0"/></g><path d="m400 160v-80h-32v-80h-368v456c0 22.054688 17.945312 40 40 40h352c22.054688 0 40-17.945312 40-40v-296zm-360 320c-13.230469 0-24-10.769531-24-24v-440h336v440c0 9 2.984375 17.3125 8.015625 24zm376-24c0 13.230469-10.769531 24-24 24s-24-10.769531-24-24v-360h16v336h16v-256h16zm0 0"/><path d="m384 448h16v16h-16zm0 0"/><path d="m274.984375 369.671875-26.984375-7.703125v-2.136719c9.96875-7.511719 16-19.328125 16-31.832031v-14.625c0-21.167969-15.855469-39.253906-36.105469-41.183594-11.207031-1.101562-22.480469 2.640625-30.796875 10.199219-8.320312 7.570313-13.097656 18.363281-13.097656 29.609375v16c0 12.503906 6.03125 24.320312 16 31.832031v2.136719l-26.992188 7.703125c-17.078124 4.886719-29.007812 20.703125-29.007812 38.472656v23.855469h160v-23.855469c0-17.769531-11.929688-33.585937-29.015625-38.472656zm13.015625 46.328125h-128v-7.855469c0-10.65625 7.160156-20.152343 17.40625-23.082031l38.59375-11.03125v-23.070312l-3.976562-2.3125c-7.527344-4.382813-12.023438-12.105469-12.023438-20.648438v-16c0-6.753906 2.863281-13.222656 7.855469-17.769531 5.066406-4.605469 11.585937-6.742188 18.519531-6.125 12.128906 1.160156 21.625 12.261719 21.625 25.269531v14.625c0 8.542969-4.496094 16.265625-12.023438 20.648438l-3.976562 2.3125v23.070312l38.585938 11.03125c10.253906 2.929688 17.414062 12.425781 17.414062 23.082031zm0 0"/><path d="m220.839844 152.328125c2.097656-7.777344 3.160156-15.960937 3.160156-24.328125 0-52.214844-40.800781-94.304688-92.910156-95.910156-1.035156-.082032-2.058594-.089844-3.089844-.089844-18.105469 0-35.761719 5.070312-51.0625 14.671875-28.136719 17.753906-44.9375 48.160156-44.9375 81.328125 0 8.433594 1.0625 16.640625 3.144531 24.335938 10.96875 42.191406 49.152344 71.664062 92.855469 71.664062 43.785156 0 81.96875-29.503906 92.839844-71.671875zm-92.839844 55.671875c-36.425781 0-68.230469-24.542969-77.390625-59.769531-1.738281-6.398438-2.609375-13.207031-2.609375-20.230469 0-27.648438 14.007812-52.992188 37.457031-67.785156 12.734375-7.992188 27.445313-12.214844 42.542969-12.214844h.503906c.480469 0 .953125.007812 1.433594.046875l.476562.03125c43.507813 1.242187 77.585938 36.355469 77.585938 79.921875 0 6.960938-.871094 13.753906-2.632812 20.238281-9.070313 35.195313-40.878907 59.761719-77.367188 59.761719zm0 0"/><path d="m240 32h96v16h-96zm0 0"/><path d="m240 64h16v16h-16zm0 0"/><path d="m272 64h64v16h-64zm0 0"/><path d="m240 96h96v16h-96zm0 0"/><path d="m240 128h96v16h-96zm0 0"/><path d="m240 160h64v16h-64zm0 0"/><path d="m320 160h16v16h-16zm0 0"/><path d="m32 440h64v16h-64zm0 0"/><path d="m32 408h64v16h-64zm0 0"/><path d="m32 376h64v16h-64zm0 0"/><path d="m32 344h64v16h-64zm0 0"/><path d="m32 312h64v16h-64zm0 0"/></svg>