<svg height="512pt" viewBox="0 0 512 512" width="512pt" xmlns="http://www.w3.org/2000/svg"><path d="m0 30h60l30 248.5625-30 173.4375c-33.136719 0-60-26.863281-60-60zm0 0" fill="#ff4b00"/><path d="m362 60v392h-302v-392l30-30h212l30 30zm0 0" fill="#663325"/><path d="m362 60v392h-151v-422h91l30 30zm0 0" fill="#582b1f"/><path d="m120 120h182v30h-182zm0 0" fill="#fdbf00"/><path d="m211 120h91v30h-91zm0 0" fill="#ff9f00"/><path d="m332 0v60h-302c-16.5 0-30-13.5-30-30s13.5-30 30-30zm0 0" fill="#f4d7af"/><path d="m211 0h121v60h-121zm0 0" fill="#f2bf81"/><path d="m311.902344 302h-69.902344v150h69.902344l80.097656 60v-270zm0 0" fill="#ff7816"/><path d="m512 377c0 36-14.097656 69.898438-39.601562 95.398438l-21.300782-21.300782c20.101563-19.796875 30.902344-46.199218 30.902344-74.097656s-10.800781-54.300781-30.902344-74.101562l21.300782-21.296876c25.503906 25.496094 39.601562 59.398438 39.601562 95.398438zm0 0" fill="#fdbf00"/><path d="m452 377c0 20.097656-7.800781 38.699219-21.898438 53.097656l-21.300781-21.296875c8.398438-8.402343 13.199219-19.800781 13.199219-31.800781s-4.800781-23.402344-13.199219-31.800781l21.300781-21.300781c14.097657 14.402343 21.898438 33 21.898438 53.101562zm0 0" fill="#fdbf00"/><path d="m452 377c0 20.097656-7.800781 38.699219-21.898438 53.097656l-21.300781-21.296875c8.398438-8.402343 13.199219-19.800781 13.199219-31.800781zm0 0" fill="#ff9f00"/><path d="m512 377c0 36-14.097656 69.898438-39.601562 95.398438l-21.300782-21.300782c20.101563-19.796875 30.902344-46.199218 30.902344-74.097656zm0 0" fill="#ff9f00"/><path d="m392 377v135l-80.097656-60h-69.902344v-75zm0 0" fill="#ff4b00"/></svg>