<?xml version="1.0"?>
<svg xmlns="http://www.w3.org/2000/svg" height="512px" viewBox="0 0 512 512" width="512px" class=""><g><path d="m179.199219 93.867188c0-47.128907-30.5625-85.332032-68.265625-85.332032s-68.265625 38.203125-68.265625 85.332032c0 47.128906 30.5625 85.332031 68.265625 85.332031s68.265625-38.203125 68.265625-85.332031zm0 0" fill="#ffe0b2" data-original="#FFE0B2"/><path d="m469.332031 93.867188c0 47.101562-30.546875 85.332031-68.265625 85.332031-3.960937.007812-7.910156-.421875-11.777344-1.277344-32.082031-7-56.488281-41.984375-56.488281-84.054687 0-42.070313 24.40625-77.054688 56.488281-84.054688 3.867188-.855469 7.816407-1.285156 11.777344-1.277344 37.71875 0 68.265625 38.226563 68.265625 85.332032zm0 0" fill="#dfc49c" data-original="#DFC49C"/><path d="m445.695312 93.867188c0 42.070312-24.40625 77.054687-56.40625 84.054687-32.082031-7-56.488281-41.984375-56.488281-84.054687 0-42.070313 24.40625-77.054688 56.488281-84.054688 32 7 56.40625 41.984375 56.40625 84.054688zm0 0" fill="#ffe0b2" data-original="#FFE0B2"/><path d="m213.332031 247.464844v187.734375h-34.132812v68.265625h-8.53125c-89.511719-.078125-162.054688-72.621094-162.132813-162.132813v-93.867187c-.019531-34.414063 25.585938-63.457032 59.730469-67.753906h85.335937c34.144532 4.296874 59.75 33.339843 59.730469 67.753906zm0 0" fill="#ffdc00" data-original="#FFDC00"/><path d="m503.464844 247.464844v93.867187c-.078125 89.511719-72.621094 162.054688-162.132813 162.132813h-8.53125v-68.265625h-34.132812v-187.734375c-.019531-34.414063 25.585937-63.457032 59.730469-67.753906h85.335937c34.144531 4.296874 59.75 33.339843 59.730469 67.753906zm0 0" fill="#c81e1e" data-original="#C81E1E" class=""/><path d="m479.828125 247.464844v93.867187c-.089844 83.648438-63.75 153.515625-147.027344 161.367188v-67.5h-34.132812v-187.734375c-.019531-34.414063 25.585937-63.457032 59.730469-67.753906h61.699218c34.144532 4.296874 59.75 33.339843 59.730469 67.753906zm0 0" fill="#f44335" data-original="#F44335" class=""/><path d="m307.199219 290.132812c.042969 27.199219-21.1875 49.6875-48.347657 51.203126-27.15625 1.511718-50.757812-18.46875-53.742187-45.507813-2.984375-27.035156 15.691406-51.683594 42.527344-56.125 2.757812-.515625 5.558593-.773437 8.363281-.769531 3.910156-.023438 7.808594.433594 11.605469 1.363281 23.183593 5.378906 39.597656 26.035156 39.59375 49.835937zm0 0" fill="#ffe0b2" data-original="#FFE0B2"/><path d="m315.734375 375.464844v59.734375c-61.613281-6.824219-101.207031-57.597657-114.519531-77.398438 6.160156-10.230469 17.238281-16.484375 29.183594-16.46875h51.203124c9.050782 0 17.734376 3.59375 24.136719 9.996094 6.402344 6.402344 9.996094 15.085937 9.996094 24.136719zm0 0" fill="#ff9801" data-original="#FF9801"/><path d="m315.734375 435.199219v34.132812h-119.46875v-93.867187c-.011719-6.230469 1.703125-12.34375 4.949219-17.664063 13.3125 19.800781 52.90625 70.574219 114.519531 77.398438zm0 0" fill="#ff5722" data-original="#FF5722"/><path d="m256 469.332031c.003906 9.054688-3.59375 17.738281-9.996094 24.140625-6.398437 6.402344-15.082031 9.996094-24.136718 9.992188h-42.667969v-68.265625h42.667969c9.054687 0 17.738281 3.59375 24.136718 9.996093 6.402344 6.402344 10 15.085938 9.996094 24.136719zm0 0" fill="#ffe0b2" data-original="#FFE0B2"/><path d="m196.265625 435.199219h-25.597656c-24.902344.015625-48.785157-9.871094-66.390625-27.476563-17.605469-17.605468-27.492188-41.488281-27.476563-66.390625v-76.796875l1.535157 4.605469c4.625 13.925781 6.984374 28.503906 6.996093 43.179687v11.945313c.023438 45.84375 33.132813 84.976563 78.335938 92.585937 8.960937 1.539063 32.597656 9.21875 32.597656 18.347657zm0 0" fill="#fec108" data-original="#FEC108"/><path d="m315.734375 435.199219h25.597656c24.902344.015625 48.785157-9.871094 66.390625-27.476563 17.605469-17.605468 27.492188-41.488281 27.476563-66.390625v-76.796875l-1.535157 4.605469c-4.625 13.925781-6.984374 28.503906-6.996093 43.179687v11.945313c-.023438 45.84375-33.132813 84.976563-78.335938 92.585937-8.960937 1.539063-32.597656 9.21875-32.597656 18.347657zm0 0" fill="#c81e1e" data-original="#C81E1E" class=""/><g fill="#dfc49c"><path d="m153.601562 179.710938c0 23.566406-19.105468 42.667968-42.667968 42.667968s-42.667969-19.101562-42.667969-42.667968c2.832031-.34375 5.683594-.511719 8.535156-.511719h68.265625c2.851563 0 5.703125.167969 8.535156.511719zm0 0" data-original="#000000" class="active-path" style="fill:#000000"/><path d="m443.734375 179.710938c0 23.566406-19.105469 42.667968-42.667969 42.667968s-42.667968-19.101562-42.667968-42.667968c2.832031-.34375 5.683593-.511719 8.535156-.511719h68.265625c2.851562 0 5.703125.167969 8.535156.511719zm0 0" data-original="#000000" class="active-path" style="fill:#000000"/><path d="m332.800781 435.199219v68.265625h-42.667969c-18.851562 0-34.132812-15.28125-34.132812-34.132813 0-18.851562 15.28125-34.132812 34.132812-34.132812zm0 0" data-original="#000000" class="active-path" style="fill:#000000"/></g><path d="m309.164062 435.199219v68.265625h-19.03125c-18.851562 0-34.132812-15.28125-34.132812-34.132813 0-18.851562 15.28125-34.132812 34.132812-34.132812zm0 0" fill="#ffe0b2" data-original="#FFE0B2"/><path d="m110.933594 187.734375c-42.351563 0-76.800782-42.109375-76.800782-93.867187 0-51.757813 34.449219-93.867188 76.800782-93.867188 42.351562 0 76.800781 42.109375 76.800781 93.867188 0 51.757812-34.449219 93.867187-76.800781 93.867187zm0-170.667969c-32.933594 0-59.734375 34.453125-59.734375 76.800782 0 42.34375 26.800781 76.800781 59.734375 76.800781s59.734375-34.457031 59.734375-76.800781c0-42.347657-26.800781-76.800782-59.734375-76.800782zm0 0" data-original="#000000" class="active-path" style="fill:#000000"/><path d="m401.066406 187.734375c-42.351562 0-76.800781-42.109375-76.800781-93.867187 0-51.757813 34.449219-93.867188 76.800781-93.867188 42.351563 0 76.800782 42.109375 76.800782 93.867188 0 51.757812-34.449219 93.867187-76.800782 93.867187zm0-170.667969c-32.933594 0-59.734375 34.453125-59.734375 76.800782 0 42.34375 26.800781 76.800781 59.734375 76.800781s59.734375-34.457031 59.734375-76.800781c0-42.347657-26.800781-76.800782-59.734375-76.800782zm0 0" data-original="#000000" class="active-path" style="fill:#000000"/><path d="m8.535156 349.867188c-4.714844 0-8.535156-3.820313-8.535156-8.535157v-93.867187c.046875-42.394532 34.402344-76.75 76.800781-76.796875h68.265625c42.394532.046875 76.753906 34.402343 76.800782 76.796875v14.421875c0 4.714843-3.820313 8.535156-8.535157 8.535156-4.710937 0-8.53125-3.820313-8.53125-8.535156v-14.421875c-.039062-32.972656-26.761719-59.695313-59.734375-59.730469h-68.265625c-32.976562.035156-59.695312 26.757813-59.734375 59.730469v93.867187c0 4.714844-3.820312 8.535157-8.53125 8.535157zm0 0" data-original="#000000" class="active-path" style="fill:#000000"/><path d="m213.332031 512h-42.664062c-4.714844 0-8.535157-3.820312-8.535157-8.535156 0-4.710938 3.820313-8.53125 8.535157-8.53125h42.664062c4.714844 0 8.535157 3.820312 8.535157 8.53125 0 4.714844-3.820313 8.535156-8.535157 8.535156zm0 0" data-original="#000000" class="active-path" style="fill:#000000"/><path d="m503.464844 349.867188c-4.710938 0-8.53125-3.820313-8.53125-8.535157v-93.867187c-.039063-32.972656-26.757813-59.695313-59.734375-59.730469h-68.265625c-32.972656.035156-59.695313 26.757813-59.734375 59.730469v14.421875c0 4.714843-3.820313 8.535156-8.53125 8.535156-4.714844 0-8.535157-3.820313-8.535157-8.535156v-14.421875c.046876-42.394532 34.40625-76.75 76.800782-76.796875h68.265625c42.398437.046875 76.753906 34.402343 76.800781 76.796875v93.867187c0 2.265625-.898438 4.433594-2.5 6.035157-1.601562 1.601562-3.769531 2.5-6.035156 2.5zm0 0" data-original="#000000" class="active-path" style="fill:#000000"/><path d="m341.332031 512h-42.664062c-4.714844 0-8.535157-3.820312-8.535157-8.535156 0-4.710938 3.820313-8.53125 8.535157-8.53125h42.664062c4.714844 0 8.535157 3.820312 8.535157 8.53125 0 4.714844-3.820313 8.535156-8.535157 8.535156zm0 0" data-original="#000000" class="active-path" style="fill:#000000"/><path d="m256 349.867188c-32.988281 0-59.734375-26.742188-59.734375-59.734376 0-32.988281 26.746094-59.734374 59.734375-59.734374s59.734375 26.746093 59.734375 59.734374c-.039063 32.972657-26.761719 59.695313-59.734375 59.734376zm0-102.402344c-23.5625 0-42.667969 19.105468-42.667969 42.667968 0 23.566407 19.105469 42.667969 42.667969 42.667969s42.667969-19.101562 42.667969-42.667969c-.027344-23.550781-19.117188-42.636718-42.667969-42.667968zm0 0" data-original="#000000" class="active-path" style="fill:#000000"/><path d="m315.734375 512h-25.601563c-4.710937 0-8.53125-3.820312-8.53125-8.535156 0-4.710938 3.820313-8.53125 8.53125-8.53125h25.601563c4.710937 0 8.53125 3.820312 8.53125 8.53125 0 4.714844-3.820313 8.535156-8.53125 8.535156zm0 0" data-original="#000000" class="active-path" style="fill:#000000"/><path d="m315.734375 443.734375c-4.714844 0-8.535156-3.820313-8.535156-8.535156v-59.734375c-.015625-14.128906-11.46875-25.582032-25.597657-25.597656h-51.203124c-14.128907.015624-25.582032 11.46875-25.597657 25.597656v59.734375c0 4.714843-3.820312 8.535156-8.535156 8.535156-4.710937 0-8.53125-3.820313-8.53125-8.535156v-59.734375c.027344-23.550782 19.113281-42.636719 42.664063-42.664063h51.203124c23.550782.027344 42.636719 19.113281 42.664063 42.664063v59.734375c0 2.265625-.898437 4.433593-2.5 6.035156-1.597656 1.601563-3.769531 2.5-6.03125 2.5zm0 0" data-original="#000000" class="active-path" style="fill:#000000"/><path d="m221.867188 512h-25.601563c-4.710937 0-8.53125-3.820312-8.53125-8.535156 0-4.710938 3.820313-8.53125 8.53125-8.53125h25.601563c4.710937 0 8.53125 3.820312 8.53125 8.53125 0 4.714844-3.820313 8.535156-8.53125 8.535156zm0 0" data-original="#000000" class="active-path" style="fill:#000000"/><path d="m221.867188 512h-51.199219c-94.214844-.105469-170.5625-76.453125-170.667969-170.667969v-93.867187c0-4.710938 3.820312-8.53125 8.535156-8.53125 4.710938 0 8.53125 3.820312 8.53125 8.53125v93.867187c.097656 84.792969 68.808594 153.503907 153.601563 153.601563h51.199219c14.136718 0 25.597656-11.460938 25.597656-25.601563 0-14.136719-11.460938-25.597656-25.597656-25.597656h-51.199219c-56.527344-.0625-102.339844-45.875-102.402344-102.402344v-76.796875c0-4.714844 3.820313-8.535156 8.535156-8.535156 4.710938 0 8.53125 3.820312 8.53125 8.535156v76.796875c.054688 47.105469 38.230469 85.28125 85.335938 85.335938h51.199219c23.5625 0 42.667968 19.101562 42.667968 42.664062 0 23.566407-19.105468 42.667969-42.667968 42.667969zm0 0" data-original="#000000" class="active-path" style="fill:#000000"/><path d="m341.332031 512h-51.199219c-23.5625 0-42.667968-19.101562-42.667968-42.667969 0-23.5625 19.105468-42.664062 42.667968-42.664062h51.199219c47.105469-.054688 85.28125-38.230469 85.335938-85.335938v-76.796875c0-4.714844 3.820312-8.535156 8.53125-8.535156 4.714843 0 8.535156 3.820312 8.535156 8.535156v76.796875c-.0625 56.527344-45.875 102.339844-102.402344 102.402344h-51.199219c-14.136718 0-25.597656 11.460937-25.597656 25.597656 0 14.140625 11.460938 25.601563 25.597656 25.601563h51.199219c84.792969-.097656 153.503907-68.808594 153.601563-153.601563v-93.867187c0-4.710938 3.820312-8.53125 8.53125-8.53125 4.714844 0 8.535156 3.820312 8.535156 8.53125v93.867187c-.105469 94.214844-76.453125 170.5625-170.667969 170.667969zm0 0" data-original="#000000" class="active-path" style="fill:#000000"/><path d="m110.933594 230.398438c-28.265625-.03125-51.167969-22.933594-51.199219-51.199219 0-4.710938 3.820313-8.53125 8.53125-8.53125 4.714844 0 8.535156 3.820312 8.535156 8.53125 0 18.851562 15.28125 34.132812 34.132813 34.132812 18.851562 0 34.132812-15.28125 34.132812-34.132812 0-4.710938 3.820313-8.53125 8.535156-8.53125 4.710938 0 8.53125 3.820312 8.53125 8.53125-.03125 28.265625-22.933593 51.167969-51.199218 51.199219zm0 0" data-original="#000000" class="active-path" style="fill:#000000"/><path d="m401.066406 230.398438c-28.265625-.03125-51.167968-22.933594-51.199218-51.199219 0-4.710938 3.820312-8.53125 8.53125-8.53125 4.714843 0 8.535156 3.820312 8.535156 8.53125 0 18.851562 15.28125 34.132812 34.132812 34.132812 18.851563 0 34.132813-15.28125 34.132813-34.132812 0-4.710938 3.820312-8.53125 8.535156-8.53125 4.710937 0 8.53125 3.820312 8.53125 8.53125-.03125 28.265625-22.933594 51.167969-51.199219 51.199219zm0 0" data-original="#000000" class="active-path" style="fill:#000000"/><path d="m256 281.601562c-3.449219-.003906-6.5625-2.082031-7.882812-5.269531-1.320313-3.1875-.589844-6.859375 1.851562-9.296875 3.171875-2.804687 4.988281-6.835937 4.976562-11.070312-.007812-4.234375-1.839843-8.261719-5.027343-11.046875-3.25-3.359375-3.199219-8.707031.121093-11.996094 3.316407-3.289063 8.664063-3.300781 11.996094-.023437 6.359375 6 9.96875 14.359374 9.96875 23.101562s-3.609375 17.101562-9.96875 23.101562c-1.601562 1.601563-3.769531 2.5-6.035156 2.5zm0 0" data-original="#000000" class="active-path" style="fill:#000000"/><path d="m315.742188 443.734375c-.316407 0-.636719-.019531-.949219-.050781-64.484375-7.144532-105.859375-59.109375-120.664063-81.117188-1.699218-2.53125-1.921875-5.777344-.582031-8.515625s4.039063-4.554687 7.082031-4.761719c3.042969-.207031 5.964844 1.222657 7.667969 3.753907 13.464844 20.035156 50.988281 67.320312 108.371094 73.675781 4.507812.488281 7.84375 4.417969 7.597656 8.945312-.25 4.527344-3.992187 8.070313-8.523437 8.070313zm0 0" data-original="#000000" class="active-path" style="fill:#000000"/><path d="m179.199219 512c-4.710938 0-8.53125-3.820312-8.53125-8.535156v-68.265625c0-4.710938 3.820312-8.53125 8.53125-8.53125 4.714843 0 8.535156 3.820312 8.535156 8.53125v68.265625c0 4.714844-3.820313 8.535156-8.535156 8.535156zm0 0" data-original="#000000" class="active-path" style="fill:#000000"/><path d="m332.800781 512c-4.714843 0-8.535156-3.820312-8.535156-8.535156v-68.265625c0-4.710938 3.820313-8.53125 8.535156-8.53125 4.710938 0 8.53125 3.820312 8.53125 8.53125v68.265625c0 4.714844-3.820312 8.535156-8.53125 8.535156zm0 0" data-original="#000000" class="active-path" style="fill:#000000"/></g> </svg>
