<?xml version="1.0" encoding="iso-8859-1"?>
<!-- Generator: Adobe Illustrator 19.0.0, SVG Export Plug-In . SVG Version: 6.00 Build 0)  -->
<svg version="1.1" id="Capa_1" xmlns="http://www.w3.org/2000/svg" xmlns:xlink="http://www.w3.org/1999/xlink" x="0px" y="0px"
	 viewBox="0 0 376.379 376.379" style="enable-background:new 0 0 376.379 376.379;" xml:space="preserve">
<path style="fill:#FFFFFF;" d="M197.973,113.098v238.991c0,7.508-6.086,13.594-13.594,13.594H20.42
	c-7.508,0-13.594-6.086-13.594-13.594V24.29c0-7.508,6.086-13.594,13.594-13.594H184.38c7.508,0,13.594,6.086,13.594,13.594v23.55"
	/>
<path style="fill:#602F75;" d="M184.38,372.509H20.42C9.16,372.509,0,363.35,0,352.089V24.29c0-11.261,9.16-20.42,20.42-20.42
	H184.38c11.261,0,20.42,9.16,20.42,20.42v23.554c0,3.773-3.057,6.827-6.827,6.827c-3.77,0-6.827-3.053-6.827-6.827V24.29
	c0-3.734-3.036-6.767-6.767-6.767H20.42c-3.731,0-6.767,3.033-6.767,6.767v327.799c0,3.734,3.036,6.767,6.767,6.767H184.38
	c3.731,0,6.767-3.033,6.767-6.767V113.096c0-3.773,3.057-6.827,6.827-6.827c3.77,0,6.827,3.053,6.827,6.827v238.993
	C204.8,363.35,195.64,372.509,184.38,372.509z"/>
<rect x="27.307" y="31.176" style="fill:#00E7FF;" width="150.187" height="266.24"/>
<path style="fill:#602F75;" d="M177.493,304.243H27.307c-3.77,0-6.827-3.053-6.827-6.827V31.176c0-3.773,3.057-6.827,6.827-6.827
	h150.187c3.77,0,6.827,3.053,6.827,6.827v266.24C184.32,301.19,181.263,304.243,177.493,304.243z M34.133,290.589h136.533V38.003
	H34.133V290.589z"/>
<circle style="fill:#FFE600;" cx="102.395" cy="331.549" r="13.653"/>
<path style="fill:#602F75;" d="M102.4,352.029c-11.293,0-20.48-9.187-20.48-20.48s9.187-20.48,20.48-20.48s20.48,9.187,20.48,20.48
	S113.693,352.029,102.4,352.029z M102.4,324.723c-3.763,0-6.827,3.06-6.827,6.827c0,3.767,3.063,6.827,6.827,6.827
	c3.763,0,6.827-3.06,6.827-6.827C109.227,327.783,106.163,324.723,102.4,324.723z"/>
<path style="fill:#FFFFFF;" d="M292.376,207.608c12.481,9.682,41.021,66.895,58.566,62.232
	c19.811-5.265,24.574-51.354,10.641-102.939c-13.935-51.586-22.17-91.552-44.382-98.128c-8.547-2.531-25.924-7.707-44.356,3.229
	s-76.698,10.936-95.13,0s-35.811-5.758-44.356-3.229c-22.212,6.576-30.447,46.543-44.382,98.128
	c-13.935,51.586-9.17,97.674,10.641,102.939c17.545,4.663,46.085-52.548,58.566-62.232c8.644-6.705,33.251-7.383,49.372-7.165
	l41.779-0.031C264.972,200.486,284.802,201.732,292.376,207.608z"/>
<path style="fill:#602F75;" d="M101.722,276.943c-1.287,0-2.574-0.16-3.86-0.5c-6.246-1.661-11.407-5.96-15.336-12.766
	c-11.076-19.186-11.129-57.866-0.14-98.553c1.434-5.313,2.807-10.499,4.144-15.534c12.36-46.66,21.291-80.374,44.89-87.366
	c9.407-2.767,28.824-8.52,49.78,3.9c16.48,9.786,71.68,9.786,88.16,0c20.949-12.426,40.376-6.68,49.713-3.92
	c23.666,7.013,32.597,40.726,44.957,87.386c1.336,5.033,2.71,10.22,4.144,15.534c10.989,40.687,10.936,79.367-0.14,98.553
	c-3.93,6.806-9.09,11.107-15.336,12.766c-16.104,4.326-32.507-19.447-48.357-42.394c-6.226-9.02-12.667-18.347-16.147-21.047h-0.003
	c-2.176-1.693-10.327-5.641-38.886-5.76l-41.743,0.027c-33.497-0.34-42.772,3.86-45.193,5.733c-3.48,2.7-9.919,12.027-16.147,21.047
	C131.637,255.162,116.593,276.943,101.722,276.943z M153.419,72.143c-7.393,0-13.73,1.874-18.063,3.154
	c-16.304,4.833-24.83,37.026-35.63,77.786c-1.34,5.06-2.72,10.267-4.161,15.601c-11.477,42.481-8.88,74.894-1.217,88.166
	c2.05,3.553,4.413,5.7,7.02,6.393c6.893,1.927,25.607-25.353,33.613-36.953c7.75-11.22,13.867-20.081,19.017-24.073
	c7.95-6.166,25.491-8.946,53.651-8.6l41.68-0.027c24.446,0.106,39.887,2.927,47.23,8.627l0,0
	c5.151,3.994,11.267,12.853,19.017,24.073c8.013,11.6,26.79,38.873,33.613,36.953c2.606-0.693,4.97-2.84,7.02-6.393
	c7.663-13.273,10.26-45.687-1.217-88.166c-1.44-5.333-2.819-10.54-4.161-15.601c-10.8-40.76-19.326-72.953-35.574-77.766
	c-8.11-2.406-23.103-6.847-38.932,2.553c-20.514,12.18-81.58,12.18-102.093,0C166.917,73.529,159.78,72.143,153.419,72.143z"/>
<g>
	<rect x="150.182" y="106.269" style="fill:#EA3457;" width="13.653" height="54.613"/>
	<rect x="129.702" y="126.749" style="fill:#EA3457;" width="54.613" height="13.653"/>
	<circle style="fill:#EA3457;" cx="290.128" cy="136.989" r="23.893"/>
</g>
<path style="fill:#602F75;" d="M290.133,167.709c-16.94,0-30.72-13.78-30.72-30.72s13.78-30.72,30.72-30.72s30.72,13.78,30.72,30.72
	S307.074,167.709,290.133,167.709z M290.133,119.923c-9.411,0-17.067,7.653-17.067,17.067s7.656,17.067,17.067,17.067
	s17.067-7.653,17.067-17.067S299.544,119.923,290.133,119.923z"/>
<g>
</g>
<g>
</g>
<g>
</g>
<g>
</g>
<g>
</g>
<g>
</g>
<g>
</g>
<g>
</g>
<g>
</g>
<g>
</g>
<g>
</g>
<g>
</g>
<g>
</g>
<g>
</g>
<g>
</g>
</svg>
