<?xml version="1.0" encoding="iso-8859-1"?>
<!-- Generator: Adobe Illustrator 19.0.0, SVG Export Plug-In . SVG Version: 6.00 Build 0)  -->
<svg version="1.1" id="Layer_1" xmlns="http://www.w3.org/2000/svg" xmlns:xlink="http://www.w3.org/1999/xlink" x="0px" y="0px"
	 viewBox="0 0 503.74 503.74" style="enable-background:new 0 0 503.74 503.74;" xml:space="preserve">
<g transform="translate(1 1)">
	<path style="fill:#ECF4F7;" d="M490.068,464.1l8.5,34.1h-194.5l0,0c7.7-46.1,66.6-85.3,66.6-85.3
		C438.868,412.9,482.468,440.2,490.068,464.1"/>
	<path style="fill:#FFD0A1;" d="M404.768,174c0,25.6-8.5,42.7-8.5,42.7c-4.3,8.5-7.7,17.1-17.1,17.1c0,0-17.1,51.2-34.1,76.8
		c-10.2,16.2-34.1,51.2-93.9,51.2s-83.6-35-93.9-51.2c-17.1-25.6-34.1-76.8-34.1-76.8c-9.4,0-12.8-8.5-17.1-17.1
		c0,0-8.5-17.1-8.5-42.7c0-10.2,8.5-17.1,25.6-17.1v-34.1c0,0,0-119.5,128-119.5s128,102.4,128,102.4v51.2
		C396.268,156.9,404.768,164.6,404.768,174 M234.068,191c0-18.8-15.4-34.1-34.1-34.1s-34.1,15.4-34.1,34.1
		c0,18.7,15.4,34.1,34.1,34.1S234.068,209.8,234.068,191 M268.268,191c0,18.8,15.4,34.1,34.1,34.1c18.8,0,34.1-15.4,34.1-34.1
		s-15.4-34.1-34.1-34.1C283.568,156.9,268.268,172.3,268.268,191"/>
	<path style="fill:#F2EDDA;" d="M199.968,156.9c18.8,0,34.1,15.4,34.1,34.1s-15.4,34.1-34.1,34.1s-34.1-15.3-34.1-34.1
		C165.868,172.2,181.168,156.9,199.968,156.9z M302.368,156.9c18.8,0,34.1,15.4,34.1,34.1s-15.4,34.1-34.1,34.1
		c-18.8,0-34.1-15.4-34.1-34.1S283.568,156.9,302.368,156.9z"/>
	<g>
		<path style="fill:#ECF4F7;" d="M131.668,412.9c17.1,0,25.6-25.6,42.7-25.6c34.1,0,53.8,45.2,53.8,45.2l1.7,1.7
			c-19.6,17.9-39.3,39.3-55.5,64H3.668l8.5-34.1C20.768,438.5,46.368,412.9,131.668,412.9"/>
		<path style="fill:#ECF4F7;" d="M234.068,498.2h-59.7c16.2-24.7,35.8-46.1,55.5-64c40.1-36.7,81.1-55.5,98.1-55.5
			c25.6,0,25.6,34.1,42.7,34.1c0,0-58.9,38.4-66.6,85.3l0,0h-70V498.2z"/>
	</g>
</g>
<g>
	<path style="fill:#51565F;" d="M298.268,268.8c0-2.6-1.7-4.3-4.3-4.3c0,0-16.2,0-41-8.5h-2.6c-23.9,8.5-41,8.5-41,8.5
		c-2.6,0-4.3,1.7-4.3,4.3v8.5c0,2.6,1.7,4.3,4.3,4.3s4.3-1.7,4.3-4.3V273c6.8-0.9,20.5-2.6,38.4-8.5c17.9,6,31.6,7.7,38.4,8.5v4.3
		c0,2.6,1.4,4.3,4,4.3s3.9-1.3,3.7-4.3v-8.5H298.268z"/>
	<path style="fill:#51565F;" d="M369.968,166.4c0-0.9,0-1.7-0.9-2.6c-1.7-1.7-4.3-2.6-6-0.9l-23.7,15.1c-5.6-14.5-19.6-24.8-36-24.8
		c-19.9,0-36.3,15.1-38.4,34.4h-25.6c-2.2-19.2-18.6-34.4-38.4-34.4c-16,0-29.8,9.8-35.6,23.7l-21.5-14.1c-1.7-1.7-4.3-0.9-6,0.9
		c-0.9,0.9-0.9,1.7-0.9,2.6c0,0.9,0.9,2.6,1.7,3.4l24.1,16.4c-0.3,1.9-0.4,3.9-0.4,5.8c0,21.3,17.3,38.6,38.6,38.6
		c19.9,0,36.3-15.1,38.4-34.4h25.6c0,0.1,0,0.2,0,0.2c2.2,19.2,18.6,34.1,38.4,34.1c21.3,0,38.6-17.3,38.6-38.6
		c0-1.5-0.1-2.9-0.3-4.4l26.5-17.8C369.068,169,369.968,168.1,369.968,166.4z M200.968,221.7c-16.3,0-29.6-13.3-29.6-29.6
		c0-16.3,13.3-29.6,29.6-29.6s29.6,13.3,29.6,29.6C230.568,208.4,217.368,221.7,200.968,221.7z M303.368,221.7
		c-16.3,0-29.6-13.3-29.6-29.6c0-16.3,13.3-29.6,29.6-29.6s29.6,13.3,29.6,29.6C332.968,208.4,319.768,221.7,303.368,221.7z"/>
	<path style="fill:#51565F;" d="M269.268,290.2h-34.1c-2.6,0-4.3,1.7-4.3,4.3c0,2.6,1.7,4.3,4.3,4.3h34.1c2.6,0,4.3-1.7,4.3-4.3
		C273.468,291.9,271.768,290.2,269.268,290.2z"/>
	<path style="fill:#51565F;" d="M103.668,221.9c4.3,7.7,7.7,15.4,17.1,17.1c4.3,11.1,18.8,52.1,34.1,75.1
		c10.2,15.4,35,52.9,97.3,52.9s87-37.5,95.6-53.8c15.4-23,30.7-64,34.1-75.1c10.2-1.7,14.5-11.1,17.9-18.8
		c0.9-0.9,9.4-17.9,9.4-44.4c0-9.4-6.8-19.6-25.6-21.3v-46.9c0-0.9-1.7-106.7-132.3-106.7s-132.2,122.9-132.2,123.8v30.7
		c-16.2,1.7-25.6,9.4-25.6,21.3c0,26.5,9.4,43.5,9.4,44.4L103.668,221.9z M124.168,162.2c2.6,0,4.3-1.7,4.3-4.3v-34.1
		c0-5.1,1.7-115.2,123.7-115.2s123.2,93.9,122.9,98.1v51.2c0,2.6,1.7,4.3,4.3,4.3c12.8,0,21.3,5.1,21.3,12.8c0,23.9-8.5,40.1-8.5,41
		c-4.3,9.4-6.8,14.5-12.8,14.5c-1.7,0-3.4,0.9-4.3,2.6c0,0.9-17.1,51.2-33.3,75.9c-11.1,16.2-33.3,49.5-90.5,49.5
		s-79.4-33.3-90.5-49.5c-16.2-24.7-33.3-75.1-33.3-75.9c-0.9-1.7-2.6-2.6-4.3-2.6c-5.1,0-7.7-5.1-11.9-12.8l-0.9-1.7
		c0,0-7.7-17.1-7.7-41C102.868,163.9,116.468,162.2,124.168,162.2z"/>
	<path style="fill:#51565F;" d="M503.068,497.5l-8.5-34.1c-9.4-26.5-54.6-53.8-123.7-53.8c-5.1,0-7.7-5.1-12.8-12.8
		c-6-9.4-13.7-21.3-29.9-21.3c-25.6,0-105,42.7-157,121.2c-1.5,2.3-1.1,4.6,0.9,6c2.3,1.6,4.4,1.3,6-0.9
		c51.2-75.9,125.4-117.8,150.2-117.8c11.1,0,17.1,8.5,22.2,17.9c3.4,5.1,6.8,10.2,11.1,13.7c-14.5,10.2-47.8,37.5-54.6,65.7
		c-0.4,2.2,0.7,4.7,3.4,5.1c2.5,0.4,4.4-0.8,5.1-3.4c7.7-29,50.3-59.7,57.2-64.9c64,0,106.7,24.7,114.3,47.8l8.7,33.9
		c0.3,1.4,0.9,1.8,2,2.4c0,0,1.2,0.7,2.9,0.1C502.668,501.7,503.868,500.1,503.068,497.5z"/>
	<path style="fill:#51565F;" d="M178.768,434.4c1.7-1.7,1.7-4.3,0-6c-9.4-9.4-20.5-13.7-29.9-16.2c3.4-2.6,6-5.1,8.5-7.7
		c5.1-6,11.1-11.9,17.9-11.9c23,0,39.3,23.9,39.3,23.9c1.7,1.7,4.3,2.6,6,0.9s2.6-4.3,0.9-6c-0.9-0.9-18.8-27.3-46.1-27.3
		c-11.1,0-17.9,6.8-24.7,13.7c-5.1,6-11.1,11.9-17.9,11.9c-70.8,0-111.8,17.9-123.7,54.6l-8.5,34.1c-0.6,2.4,0.7,4.4,3.3,5.1
		c3,0.8,5.3-0.5,6-2.6l8.5-34.1c10.2-32.4,48.6-48.6,115.2-48.6c0,0,23.9,0.9,39.3,16.2C174.568,436.1,177.068,436.1,178.768,434.4z
		"/>
	<path style="fill:#51565F;" d="M266.668,453.1c-26.5,17.9-35.6,44.3-35.8,45.2c-0.6,2,0,4.2,2.6,5.1c2.9,1.1,5-0.6,5.9-3.2
		c0,0,8.6-24.1,32.5-40.3c1.7-1.7,2.6-4.3,0.9-6C270.968,452.3,268.868,451.7,266.668,453.1z"/>
</g>
<g>
</g>
<g>
</g>
<g>
</g>
<g>
</g>
<g>
</g>
<g>
</g>
<g>
</g>
<g>
</g>
<g>
</g>
<g>
</g>
<g>
</g>
<g>
</g>
<g>
</g>
<g>
</g>
<g>
</g>
</svg>
