<svg height="512" viewBox="0 0 64 64" width="512" xmlns="http://www.w3.org/2000/svg"><path d="m32 15-4-8h8z" fill="#f9e109"/><path d="m44.45 14-4.87-7.5 7.95-.9z" fill="#aae1f9"/><path d="m58.45 15.44-8.06-3.88 6.32-4.89z" fill="#f89c8d"/><path d="m19.55 14 4.87-7.5-7.95-.9z" fill="#c4f236"/><path d="m7.22 12.2 5.48-7.07-7.85-1.55z" fill="#f89c8d"/><path d="m36.26 27.85-6.32-6.33 7.59-2.52z" fill="#f89c8d"/><path d="m47.66 22.83-6.96-5.62 7.28-3.32z" fill="#c4f236"/><path d="m23.75 31.12-5.43-7.11 7.86-1.5z" fill="#aae1f9"/><path d="m8.78 31.99-3.55-8.21 7.99.45z" fill="#f9e109"/><path d="m32 44-4-8h8z" fill="#c4f236"/><path d="m44.45 43-4.87-7.51 7.95-.89z" fill="#f89c8d"/><path d="m19.55 43 4.87-7.51-7.95-.89z" fill="#aae1f9"/><path d="m7.22 41.2 5.48-7.07-7.85-1.55z" fill="#f89c8d"/><path d="m57.72 47.21-8.03-3.95 6.37-4.84z" fill="#aae1f9"/><path d="m46.57 54.71-6.82-5.8 7.37-3.13z" fill="#c4f236"/><path d="m35.08 58.88-6.01-6.62 7.7-2.17z" fill="#f89c8d"/><path d="m20.82 61-3.64-8.17 8 .36z" fill="#c4f236"/><path d="m6.51 57.72-.73-8.92 7.42 2.99z" fill="#f9e109"/><path d="m32 15 1.75-3.5a2 2 0 0 1 -1.54-1.08l-1.71-3.42h-2.5z" fill="#fcbc04"/><path d="m44.45 14 1.27-3.47a1.93 1.93 0 0 1 -1.45-.89l-2.22-3.42-2.47.28z" fill="#57b7eb"/><path d="m58.45 15.44-.7-3.55a2.07 2.07 0 0 1 -.9-.18l-4.1-2-2.36 1.82z" fill="#f8664f"/><path d="m19.55 14 2.25-3.46a2 2 0 0 1 -1.63-1.29l-1.23-3.37-2.47-.28z" fill="#a1d51c"/><path d="m7.22 12.2 2.65-3.41a2 2 0 0 1 -1.71-1.45l-.9-3.29-2.41-.47z" fill="#f8664f"/><path d="m32.19 20.78-2.25.74 6.32 6.33.47-3.26a1.88 1.88 0 0 1 -1.29-.59z" fill="#f8664f"/><path d="m47.66 22.83.11-3.08a2 2 0 0 1 -1.22-.43l-3.78-3.05-2.07.94z" fill="#a1d51c"/><path d="m23.75 31.12 1-3.41a2 2 0 0 1 -1.39-.77l-2.59-3.39-2.45.45z" fill="#57b7eb"/><path d="m9.19 27.32-1.47-3.4-2.49-.14 3.53 8.22 2-3.46a2 2 0 0 1 -1.57-1.22z" fill="#fcbc04"/><path d="m33.75 40.5a2 2 0 0 1 -1.54-1.08l-1.71-3.42h-2.5l4 8z" fill="#a1d51c"/><path d="m44.27 38.64-2.22-3.42-2.47.28 4.87 7.5 1.27-3.47a1.93 1.93 0 0 1 -1.45-.89z" fill="#f8664f"/><path d="m21.8 39.54a2 2 0 0 1 -1.63-1.29l-1.23-3.37-2.47-.28 3.08 8.4z" fill="#57b7eb"/><path d="m8.16 36.34-.9-3.29-2.41-.47 2.37 8.62 2.65-3.41a2 2 0 0 1 -1.71-1.45z" fill="#f8664f"/><path d="m52.08 41.45-2.39 1.81 8 4-.67-3.58a1.88 1.88 0 0 1 -.92-.19z" fill="#57b7eb"/><path d="m45.52 51.11-3.65-3.11-2.12.9 6.82 5.8.19-3.13a1.94 1.94 0 0 1 -1.24-.46z" fill="#a1d51c"/><path d="m31.38 51.61-2.31.65 6 6.62.64-3.33a1.94 1.94 0 0 1 -1.33-.63z" fill="#f8664f"/><path d="m21.19 56.35-1.51-3.41-2.5-.11 3.64 8.17 1.95-3.5a2 2 0 0 1 -1.58-1.15z" fill="#a1d51c"/><path d="m8.18 52.73-.25-3.06-2.15-.87.73 8.92 3.57-3.17a2 2 0 0 1 -1.9-1.82z" fill="#fcbc04"/><g fill="#f9e109"><path d="m12.22 25.65a67.87 67.87 0 0 1 -9.1-.65h-.26a1 1 0 1 1 .28-2h.25a65.13 65.13 0 0 0 50.33-14.27l3.39-2.81a121.66 121.66 0 0 1 -53.5-.74l-.84-.18a1 1 0 0 1 .46-2l.85.2a119.5 119.5 0 0 0 55.84 0l.85-.2a1 1 0 0 1 .87 1.74l-6.64 5.53a67.22 67.22 0 0 1 -42.78 15.38z"/><path d="m22 54.73a34.72 34.72 0 0 1 -17-4.49l-2.49-1.37a1 1 0 1 1 1-1.74l2.42 1.37a32.83 32.83 0 0 0 19.89 4h.11a49.06 49.06 0 0 0 32.58-17.89 121.61 121.61 0 0 1 -54.9-.43l-.84-.18a1 1 0 0 1 .46-2l.85.2a119.5 119.5 0 0 0 55.84 0l.85-.2a1 1 0 0 1 1 1.56l-.06.09a51.17 51.17 0 0 1 -35.55 20.84h-.16a35.76 35.76 0 0 1 -4 .24z"/></g></svg>