<?xml version="1.0" encoding="iso-8859-1"?>
<!-- Generator: Adobe Illustrator 19.0.0, SVG Export Plug-In . SVG Version: 6.00 Build 0)  -->
<svg version="1.1" id="Layer_1" xmlns="http://www.w3.org/2000/svg" xmlns:xlink="http://www.w3.org/1999/xlink" x="0px" y="0px"
	 viewBox="0 0 496.2 496.2" style="enable-background:new 0 0 496.2 496.2;" xml:space="preserve">
<path style="fill:#334D5C;" d="M0,248.1C0,111.1,111.1,0,248.1,0s248.1,111.1,248.1,248.1S385.1,496.2,248.1,496.2S0,385.1,0,248.1z
	"/>
<g>
	<path style="fill:#F2A5A5;" d="M249.1,347.4L249.1,347.4c0.1,0,0.3,0,0.4-0.1c-0.1-0.1-0.1-0.2-0.2-0.2
		C249.3,347.2,249.2,347.3,249.1,347.4z"/>
	<path style="fill:#F2A5A5;" d="M345.8,377.4c-0.1,0-0.2,0-0.3,0l0,0c0.1,0.1,0.2,0.1,0.3,0.2C345.8,377.6,345.8,377.5,345.8,377.4z
		"/>
	<path style="fill:#F2A5A5;" d="M248.1,151.1V151c-89.1,89.1-89.1,233.5,0,322.5v0.1C337.1,384.6,337.1,240.2,248.1,151.1z"/>
	<path style="fill:#F2A5A5;" d="M150.4,377.5c0,0.1,0,0.2,0,0.3c0.1-0.1,0.2-0.1,0.3-0.2l0,0C150.6,377.5,150.5,377.5,150.4,377.5z"
		/>
	<path style="fill:#F2A5A5;" d="M299,346.4c-0.1,0.1-0.2,0.1-0.3,0.2l0,0c0.1,0,0.2,0.1,0.3,0.1C299,346.5,299,346.5,299,346.4z"/>
</g>
<path style="fill:#E28D8D;" d="M118.6,178.3L118.6,178.3c-45.9,117.3,12.1,249.5,129.5,295.3v0.1
	C293.9,356.4,235.9,224.1,118.6,178.3z"/>
<g>
	<path style="fill:#F2A5A5;" d="M120,424.9c0,0.1,0.1,0.2,0.1,0.2c0.1-0.1,0.1-0.2,0.2-0.3l0,0C120.2,424.9,120.1,424.9,120,424.9z"
		/>
	<path style="fill:#F2A5A5;" d="M196.6,346.4c0.1,0.1,0.2,0.1,0.3,0.2l0,0c-0.1,0-0.2,0.1-0.3,0.1
		C196.5,346.5,196.6,346.5,196.6,346.4z"/>
</g>
<path style="fill:#E28D8D;" d="M377,178.3L377,178.3c45.8,117.2-12.2,249.5-129.5,295.3v0.1C201.7,356.4,259.7,224.1,377,178.3z"/>
<path style="fill:#F2A5A5;" d="M375.5,424.9c0,0.1-0.1,0.2-0.1,0.2c-0.1-0.1-0.1-0.2-0.2-0.3l0,0
	C375.3,424.9,375.4,424.9,375.5,424.9z"/>
<g>
	<path style="fill:#CE8282;" d="M249.2,336.5c-0.1,0.1-0.1,0.2-0.2,0.3l0,0c0.1,0,0.2,0,0.4,0C249.3,336.6,249.3,336.5,249.2,336.5z
		"/>
	<path style="fill:#CE8282;" d="M20.1,245.5L20.1,245.5c-0.1,125.9,102,228,228,228l0.1,0.1C248.1,347.6,146,245.5,20.1,245.5z"/>
	<path style="fill:#CE8282;" d="M111.1,474.7c0.1,0.1,0.1,0.1,0.2,0.2c0-0.1,0-0.2,0-0.4l0,0C111.3,474.6,111.2,474.7,111.1,474.7z"
		/>
	<path style="fill:#CE8282;" d="M247.2,336.5c0.1,0.1,0.1,0.2,0.2,0.3l0,0c-0.1,0-0.2,0-0.4,0C247.1,336.6,247.2,336.5,247.2,336.5z
		"/>
	<path style="fill:#CE8282;" d="M476.4,245.5L476.4,245.5c0.1,125.9-102,228-228,228l-0.1,0.1C248.3,347.6,350.4,245.5,476.4,245.5z
		"/>
	<path style="fill:#CE8282;" d="M385.4,474.7c-0.1,0.1-0.1,0.1-0.2,0.2c0-0.1,0-0.2,0-0.4l0,0C385.2,474.6,385.3,474.7,385.4,474.7z
		"/>
</g>
<path style="fill:#EFDFDF;" d="M328.2,396.1l29.5-17.8l-3.8-2.2l-10.7,4l-3.6-7.3l-4.2-0.2l-1.1-1.4l-8.7,2.1l-0.7,6.3l-17.1-23.8
	c-4.5-11.6-3.8-63.2-15.3-69.2c-8.2-4.3-20.5-4.9-20.5-4.9l0,0v-0.1c-4.8-0.6-9.5-0.9-13.6-1c-0.3-0.5-2.4-4.5-0.3-12.5
	c2.9-2.4,5.8-6,8-11c0.6-1.4,1.2-3,1.7-4.6c1.9,0.2,3.2-0.6,4.3-6.9c1.1-6.4-0.2-7.6-2-8.1l0,0c0.4,0.2,0.7,0.2,0.7,0.2
	c0-0.4,0-0.8,0-1.2l0,0c-0.2-17.2-3.7-25.7-11.2-29.1c0-0.3,0.1-0.5,0.1-0.8c0-4.4-5.2-7.9-11.5-7.9s-11.5,3.5-11.5,7.9
	c0,0.3,0,0.5,0.1,0.8c-7.5,3.4-11.1,11.8-11.2,29.1l0,0c0,0.4,0,0.8,0,1.2h0.1c-1.5,0.6-2.4,2.2-1.5,7.9c1.1,6.4,2.4,7.1,4.3,6.9
	c0.5,1.7,1.1,3.2,1.7,4.6c2.2,5,5.1,8.5,8,11c2.1,8,0,12-0.3,12.5c-4.1,0.1-8.9,0.3-13.6,1l0,0c-0.2,0-12.3,0.6-20.5,4.9
	c-11.5,6-10.8,57.6-15.3,69.2l-17.1,23.8l-0.7-6.3l-8.7-2.1l-1.1,1.4l-4.2,0.2l-3.6,7.3l-10.7-4l-3.8,2.2l29.5,17.8
	c-4.1,1.5-7.4,4.5-9,9.9c-5.6,18.5,13.3,22.1,27,27.4c5.8,2.2,15.9,4.7,27.8,7.2c-14.9,4.8-24.8,12.3-23.4,15.7
	c0,0,28.1-4.1,57.7-9.2c29.6,5.2,57.7,9.2,57.7,9.2c1.4-3.4-8.5-11-23.4-15.7c12-2.5,22-5,27.8-7.2c13.6-5.2,32.6-8.8,27-27.4
	C335.6,400.6,332.3,397.6,328.2,396.1z M332.8,375.3l4.3,1.6l1.5,4.9l-5.2,1.9l-2.9-7.1L332.8,375.3z M159,376.8l4.3-1.6l2.3,1.2
	l-2.9,7.1l-5.2-1.9L159,376.8z M168.3,396l36.8-36.8c2.5-7.3,3.5-16.1,4.7-27.5c2.7-11.5,2.3-20.2,5.2-21c-0.7,4.3-1,8.5-0.4,12
	c2.2,13.5,6.1,33.4-1.5,85c-6.4-3.6-11.3-6.2-12.9-6.8C192.7,398,178.2,392.6,168.3,396z M296,400.9c-1.7,0.6-6.5,3.2-12.9,6.8
	c-7.6-51.7-3.7-71.5-1.5-85c0.6-3.5,0.3-7.6-0.4-12c2.9,0.8,2.4,9.5,5.2,21c1.3,11.4,2.2,20.2,4.7,27.5l36.8,36.8
	C318,392.6,303.5,398,296,400.9z"/>
<g>
</g>
<g>
</g>
<g>
</g>
<g>
</g>
<g>
</g>
<g>
</g>
<g>
</g>
<g>
</g>
<g>
</g>
<g>
</g>
<g>
</g>
<g>
</g>
<g>
</g>
<g>
</g>
<g>
</g>
</svg>
