<svg height="512pt" viewBox="0 -20 512.00199 512" width="512pt" xmlns="http://www.w3.org/2000/svg"><g fill="#ffb9b7"><path d="m358.054688 265.386719c40.292968 23.261719 64.597656 62.652343 67.65625 102.378906-34.296876 16.429687-78.003907 15.945313-116.949219-4.355469h-105.527344c-38.945313 20.300782-82.652344 20.785156-116.949219 4.355469 3.058594-39.726563 27.363282-79.117187 67.65625-102.378906zm0 0"/><path d="m256 10c40.117188 25.015625 66.914062 70.292969 66.914062 121.996094s-26.796874 96.980468-66.914062 121.996094c-40.117188-25.015626-66.917969-70.292969-66.917969-121.996094s26.800781-96.980469 66.917969-121.996094zm0 0"/><path d="m322.488281 108.28125c29.5-16.777344 64.097657-21.242188 96.308594-13.382812 10.539063 43.164062-1.050781 90.621093-34.761719 124.332031-33.710937 33.710937-81.167968 45.300781-124.328125 34.761719h-7.414062c-43.164063 10.539062-90.621094-1.050782-124.332031-34.761719-33.710938-33.710938-45.296876-81.167969-34.761719-124.332031 32.210937-7.859376 66.8125-3.394532 96.308593 13.382812zm0 0"/><path d="m106.171875 123.84375c-33.027344-7.785156-67.484375-2.3125-96.171875 14.308594 2.054688 44.382812 26.550781 86.648437 68.398438 109.492187 41.84375 22.839844 90.644531 20.582031 129.085937-1.695312h97.027344c38.441406 22.277343 87.242187 24.535156 129.089843 1.695312 41.847657-22.84375 66.339844-65.109375 68.398438-109.492187-28.6875-16.621094-63.144531-22.09375-96.175781-14.308594zm0 0"/></g><path d="m255.863281 214.300781c-20.507812 0-37.132812-16.625-37.132812-37.132812v-6.253907c0-20.507812 16.625-37.132812 37.132812-37.132812 20.507813 0 37.132813 16.625 37.132813 37.132812v6.253907c0 20.507812-16.625 37.132812-37.132813 37.132812zm0 0" fill="#feda9b"/><path d="m315 266.191406v31.59375h-44l-4.796875-7.484375c-3.023437-4.714843-10.332031-2.574219-10.332031 3.027344v12.550781c0 14.53125 11.78125 26.3125 26.3125 26.3125h35.816406c19.328125 0 35-15.671875 35-35v-31.835937c0-27.152344-22.015625-49.164063-49.167969-49.164063h-95.667969c-27.152343 0-49.164062 22.011719-49.164062 49.164063v31.835937c0 19.328125 15.667969 35 35 35h35.8125c14.53125 0 26.3125-11.78125 26.3125-26.3125v-12.550781c0-5.601563-7.308594-7.742187-10.332031-3.027344l-4.792969 7.484375h-44v-31.59375l15.304688 66 .078124 9.105469c.011719 12.179687-6.984374 23.277344-17.980468 28.519531l-60.457032 28.824219c-15.761718 7.511719-22.898437 26.035156-16.257812 42.183594 6.929688 16.851562 26.242188 24.855469 43.058594 17.84375l111.859375-46.632813h32.695312l-55.140625 10.390625 100.929688 37.628907c16.941406 6.316406 35.839844-1.941407 42.71875-18.664063 6.769531-16.46875-.511719-35.351563-16.582032-43.015625l-59.878906-28.546875c-11.007812-5.246094-18.007812-16.367187-17.980468-28.558594l.015624-7.074219zm0 0" fill="#feda9b"/><path d="m507.011719 129.5c-23.011719-13.335938-48.933594-19.867188-75.335938-19.066406-.671875-6.019532-1.722656-12.003906-3.164062-17.90625-.882813-3.625-3.714844-6.457032-7.34375-7.34375-31.285157-7.636719-63.722657-4.492188-92.605469 8.765625-3.308594-13.550781-8.457031-26.613281-15.371094-38.75-12.519531-21.976563-30.488281-40.554688-51.964844-53.726563 0 0-.003906.007813-.003906.007813-3.105468-1.902344-7.132812-2.039063-10.453125-.007813-21.476562 13.171875-39.441406 31.75-51.960937 53.726563-6.914063 12.136719-12.0625 25.203125-15.371094 38.75-28.886719-13.257813-61.320312-16.402344-92.609375-8.765625-3.625.886718-6.457031 3.71875-7.339844 7.34375-1.441406 5.902344-2.492187 11.886718-3.164062 17.90625-26.40625-.800782-52.324219 5.730468-75.335938 19.066406-3.230469 1.871094-5.148437 5.386719-4.9765622 9.113281 1.1054692 23.855469 8.2734372 47.222657 20.7382812 67.582031 12.851562 20.996094 31.128906 38.363282 52.855469 50.222657 16.425781 8.964843 34.140625 14.503906 52.351562 16.492187-28.789062 24.433594-46.867187 58.109375-49.636719 94.089844-.320312 4.113281 1.925782 8 5.648438 9.785156 15.140625 7.253906 31.660156 11.363282 48.609375 12.378906l-.933594.449219c-20.550781 9.792969-29.863281 33.960938-21.207031 55.011719 4.371094 10.628906 12.625 18.90625 23.242188 23.308594 5.296874 2.191406 10.855468 3.289062 16.417968 3.289062 5.589844 0 11.179688-1.109375 16.5-3.324218l11.585938-4.832032c5.097656-2.125 7.503906-7.980468 5.378906-13.078125-2.125-5.097656-7.980469-7.507812-13.078125-5.382812l-11.582031 4.832031c-5.660156 2.359375-11.898438 2.363281-17.566406.019531-5.664063-2.347656-10.066407-6.765625-12.398438-12.4375-4.621094-11.234375.347656-24.128906 11.3125-29.355469l60.457031-28.820312c14.105469-6.722656 23.285157-21.007812 23.640625-36.652344h7.464844c10.285156 0 19.574219-4.304687 26.1875-11.195312 6.613281 6.890625 15.90625 11.195312 26.1875 11.195312h7.214844c.324218 15.605469 9.511718 29.925782 23.644531 36.664063l59.878906 28.546875c11.273438 5.375 16.382813 18.632812 11.636719 30.183594-4.855469 11.804687-18.023438 17.558593-29.980469 13.097656l-76.84375-28.648438h27.5625c5.523438 0 10-4.476562 10-10 0-5.519531-4.476562-10-10-10h-32.695312c-1.320313 0-2.625.261719-3.847657.769532l-38.472656 16.039062c-5.097656 2.125-7.503906 7.980469-5.378906 13.078125 1.597656 3.839844 5.316406 6.15625 9.230469 6.15625 1.285156 0 2.589843-.25 3.847656-.773437l11.074219-4.617188 98.539062 36.738281c5.066406 1.886719 10.246094 2.785157 15.335938 2.785157 17.132812 0 33.203125-10.183594 40.125-27.015626 8.789062-21.371093-.667969-45.902343-21.523438-55.84375l-.351562-.167968c17.035156-.996094 33.640625-5.109375 48.851562-12.398438 3.722656-1.78125 5.964844-5.667968 5.648438-9.785156-2.769532-35.980469-20.847656-69.652344-49.640625-94.085938 18.210937-1.992187 35.929687-7.527343 52.351562-16.492187 21.730469-11.859375 40.007813-29.226563 52.859375-50.226563 12.460938-20.355468 19.632813-43.726562 20.738282-67.578124.167968-3.730469-1.75-7.246094-4.980469-9.117188zm-96.613281-26.199219c7.65625 39.738281-4.609376 80.035157-33.433594 108.859375-7.472656 7.46875-15.796875 13.871094-24.808594 19.125-9.226562-13.046875-23.585938-22.207031-40.121094-24.511718 13.699219-23.148438 20.878906-49.386719 20.878906-76.789063 0-5.203125-.277343-10.386719-.808593-15.535156 24.148437-12.382813 51.554687-16.28125 78.292969-11.148438zm-127.402344 73.867188c0 14.960937-12.171875 27.132812-27.132813 27.132812-14.960937 0-27.128906-12.171875-27.128906-27.132812v-6.257813c0-14.960937 12.167969-27.128906 27.128906-27.128906 14.960938 0 27.132813 12.167969 27.132813 27.128906zm-26.996094-155.246094c35.746094 24.300781 56.914062 64.238281 56.914062 108.0625 0 17.644531-3.433593 34.722656-10.050781 50.566406.078125-1.121093.132813-2.242187.132813-3.382812v-6.253907c0-25.988281-21.144532-47.132812-47.132813-47.132812s-47.128906 21.144531-47.128906 47.132812v6.253907c0 .855469.023437 1.707031.070313 2.550781-6.394532-15.605469-9.722657-32.394531-9.722657-49.734375 0-43.824219 21.167969-83.761719 56.917969-108.0625zm-154.402344 81.378906c26.738282-5.132812 54.144532-1.238281 78.292969 11.148438-.527344 5.148437-.808594 10.332031-.808594 15.535156 0 27.402344 7.179688 53.640625 20.878907 76.789063-16.535157 2.304687-30.894532 11.464843-40.121094 24.511718-9.011719-5.253906-17.335938-11.652344-24.808594-19.125-28.820312-28.824218-41.089844-69.121094-33.433594-108.859375zm-81.171875 40.542969c18.316407-9.425781 38.535157-14.011719 59.097657-13.425781.324218 11.058593 1.917968 22.078125 4.808593 32.796875 6.414063 23.769531 19.054688 45.582031 36.558594 63.085937 9.085937 9.085938 19.265625 16.804688 30.320313 23.074219-.375 1.328125-.71875 2.667969-1 4.035156-23.285157 1.71875-46.34375-3.257812-67.023438-14.546875-35.777344-19.527343-58.902344-54.734375-62.761719-95.019531zm176.875 211.359375c-32.441406 16.46875-69.304687 18.726563-100.273437 6.359375 4.574218-31.917969 23.429687-61.28125 51.972656-81.1875v16.8125c0 24.816406 20.1875 45 45 45h8.351562c-.199218 4.832031-2.019531 9.40625-5.050781 13.015625zm68.742188-47.011719c.035156-.5625.058593-1.132812.066406-1.699218 1.472656.824218 3.148437 1.289062 4.890625 1.289062h44c5.523438 0 10-4.476562 10-10v-31.59375c0-5.519531-4.476562-10-10-10s-10 4.480469-10 10v21.59375h-28.535156l-1.84375-2.878906c-3.777344-5.886719-10.820313-8.519532-17.53125-6.554688-.371094.109375-.734375.238282-1.089844.371094-.359375-.136719-.722656-.261719-1.09375-.371094-6.707031-1.964844-13.753906.667969-17.527344 6.554688l-1.847656 2.878906h-28.53125v-21.59375c0-5.519531-4.476562-10-10-10s-10 4.480469-10 10v31.59375c0 5.523438 4.476562 10 10 10h44c1.742188 0 3.414062-.464844 4.886719-1.289062.011719.566406.03125 1.136718.066406 1.699218-1.128906 7.902344-7.929687 14-16.140625 14h-35.8125c-13.785156 0-25-11.214844-25-25v-31.835937c0-21.59375 17.570312-39.164063 39.164062-39.164063h95.667969c21.597657 0 39.167969 17.570313 39.167969 39.164063v31.835937c0 13.785156-11.214844 25-25 25h-35.8125c-8.210938 0-15.015625-6.097656-16.144531-14zm148.929687 53.371094c-31.109375 12.421875-68.160156 10.085938-100.703125-6.574219-2.921875-3.578125-4.679687-8.0625-4.871093-12.796875h8.601562c24.8125 0 45-20.1875 45-45v-16.816406c28.539062 19.90625 47.398438 49.269531 51.972656 81.1875zm13.835938-122.695312c-20.679688 11.285156-43.738282 16.261718-67.023438 14.542968-.28125-1.367187-.625-2.707031-.996094-4.035156 11.050782-6.269531 21.230469-13.988281 30.316407-23.074219 17.503906-17.503906 30.144531-39.316406 36.558593-63.085937 2.894532-10.71875 4.484376-21.738282 4.8125-32.796875 20.558594-.585938 40.777344 4 59.09375 13.425781-3.855468 40.285156-26.984374 75.492188-62.761718 95.023438zm0 0"/><path d="m205.328125 430.078125c-2.628906 0-5.210937 1.066406-7.070313 2.929687-1.859374 1.859376-2.929687 4.4375-2.929687 7.070313 0 2.636719 1.070313 5.207031 2.929687 7.078125 1.871094 1.859375 4.441407 2.929688 7.070313 2.929688s5.210937-1.070313 7.070313-2.929688c1.859374-1.871094 2.929687-4.441406 2.929687-7.078125 0-2.632813-1.070313-5.210937-2.929687-7.070313-1.859376-1.863281-4.441407-2.929687-7.070313-2.929687zm0 0"/></svg>