<?xml version="1.0" encoding="iso-8859-1"?>
<!-- Generator: Adobe Illustrator 19.0.0, SVG Export Plug-In . SVG Version: 6.00 Build 0)  -->
<svg version="1.1" id="Layer_1" xmlns="http://www.w3.org/2000/svg" xmlns:xlink="http://www.w3.org/1999/xlink" x="0px" y="0px"
	 viewBox="0 0 496.2 496.2" style="enable-background:new 0 0 496.2 496.2;" xml:space="preserve">
<path style="fill:#5B4F3F;" d="M0,248.1C0,111.1,111.1,0,248.1,0s248.1,111.1,248.1,248.1S385.1,496.2,248.1,496.2S0,385.1,0,248.1z
	"/>
<path style="fill:#EBF1F2;" d="M372.1,352.2l45.7-27.6l-5.9-3.4l-16.5,6.1l-5.5-11.4l-6.6-0.2l-1.7-2.2l-13.5,3.2l-1,9.8l-26.5-36.9
	c-6.9-18-5.9-97.9-23.7-107.2c-12.7-6.7-31.7-7.5-31.7-7.5s0,0,0,0.1c0-0.1,0-0.1,0-0.1c-7.4-0.9-14.8-1.3-21.1-1.5
	c-0.5-0.8-3.8-7-0.5-19.4c4.5-3.8,9-9.3,12.4-17c1-2.2,1.9-4.6,2.6-7.2c2.9,0.3,4.9-0.9,6.6-10.8c1.6-9.4-0.1-11.6-2.7-12.4
	c0.4,0.1,0.6,0.2,0.6,0.2c0-0.6,0-1.2,0-1.8l0,0c-0.2-37.6-11-48-35-48s-34.8,10.4-35.2,48.2l0,0c0,0.6,0,1.2,0,1.8c0,0,0.1,0,0.2,0
	c-2.3,0.9-3.8,3.4-2.2,12.2c1.7,9.8,3.7,11.1,6.6,10.8c0.8,2.6,1.7,5,2.6,7.2c3.4,7.7,7.9,13.2,12.4,17c3.3,12.4,0,18.6-0.5,19.4
	c-6.3,0.1-13.7,0.5-21.1,1.5l0,0c-0.3,0-19.1,0.9-31.7,7.5c-17.8,9.3-16.7,89.2-23.7,107.2l-26.4,36.8l-1-9.8l-13.5-3.2l-1.7,2.2
	l-6.6,0.2l-5.5,11.4l-16.5-6.1l-5.9,3.4l45.7,27.6c-6.4,2.3-11.5,7-14,15.4c-8.7,28.7,20.7,34.3,41.8,42.4c9,3.4,24.6,7.3,43.1,11.2
	c-23.1,7.4-38.3,19-36.2,24.3c0,0,43.6-6.3,89.4-14.3c45.8,8,89.4,14.3,89.4,14.3c2.1-5.3-13.1-17-36.2-24.3
	c18.5-3.9,34.1-7.8,43.1-11.2c21.1-8.1,50.5-13.7,41.8-42.4C383.6,359.2,378.5,354.5,372.1,352.2z M379.3,319.9l6.7,2.4l2.3,7.6
	l-8.1,3l-4.5-11.1L379.3,319.9z M282.2,106.7L282.2,106.7c0.2,0,0.3,0.1,0.5,0.1C282.5,106.8,282.3,106.7,282.2,106.7z M110.2,322.4
	l6.7-2.4l3.6,1.9L116,333l-8.1-3L110.2,322.4z M124.5,352l57-57c3.9-11.3,5.4-25,7.3-42.6c4.2-17.8,3.5-31.3,8-32.6
	c-1.1,6.7-1.5,13.2-0.6,18.6c3.4,21,9.4,51.7-2.3,131.7c-10-5.5-17.4-9.6-20-10.6C162.3,355.2,139.9,346.8,124.5,352z M322.3,359.6
	c-2.6,1-10,5-20,10.5c-11.7-80-5.8-110.7-2.3-131.7c0.9-5.4,0.5-11.9-0.6-18.6c4.5,1.2,3.8,14.7,8,32.6c2,17.6,3.4,31.3,7.3,42.6
	l57,57C356.3,346.8,333.9,355.2,322.3,359.6z"/>
<circle style="fill:#148E56;" cx="248.1" cy="240.1" r="19.4"/>
<circle style="fill:#29C183;" cx="248.1" cy="240.1" r="13.6"/>
<circle style="fill:#3B929B;" cx="248.1" cy="167.1" r="19.4"/>
<circle style="fill:#5DB8C1;" cx="248.1" cy="167.1" r="13.6"/>
<circle style="fill:#1C4F54;" cx="248.1" cy="104.9" r="19.4"/>
<circle style="fill:#337180;" cx="248.1" cy="104.9" r="13.6"/>
<circle style="fill:#DD1212;" cx="248.1" cy="376.4" r="19.4"/>
<circle style="fill:#BC781E;" cx="248.1" cy="331.8" r="19.4"/>
<circle style="fill:#E79E2F;" cx="248.1" cy="331.8" r="13.6"/>
<circle style="fill:#CCAC27;" cx="248.1" cy="286.7" r="19.4"/>
<circle style="fill:#EDC92F;" cx="248.1" cy="286.7" r="13.6"/>
<circle style="fill:#E83131;" cx="248.1" cy="376.4" r="13.6"/>
<circle style="fill:#714E7C;" cx="248.1" cy="59.6" r="19.4"/>
<circle style="fill:#A076AB;" cx="248.1" cy="59.6" r="13.6"/>
<g>
</g>
<g>
</g>
<g>
</g>
<g>
</g>
<g>
</g>
<g>
</g>
<g>
</g>
<g>
</g>
<g>
</g>
<g>
</g>
<g>
</g>
<g>
</g>
<g>
</g>
<g>
</g>
<g>
</g>
</svg>
