<?xml version="1.0" encoding="iso-8859-1"?>
<!-- Generator: Adobe Illustrator 19.0.0, SVG Export Plug-In . SVG Version: 6.00 Build 0)  -->
<svg version="1.1" id="Layer_1" xmlns="http://www.w3.org/2000/svg" xmlns:xlink="http://www.w3.org/1999/xlink" x="0px" y="0px"
	 viewBox="0 0 503.467 503.467" style="enable-background:new 0 0 503.467 503.467;" xml:space="preserve">
<g transform="translate(1 1)">
	<path style="fill:#AAB1BA;" d="M395.8,464.067h-68.267h-17.067V498.2H447v-34.133H395.8z M191,464.067V498.2H54.467v-34.133h51.2
		h68.267H191z"/>
	<path style="fill:#FFD0A1;" d="M447,300.227v-117.76c0-14.507,11.093-25.6,25.6-25.6c14.507,0,25.6,11.093,25.6,25.6v128
		c0,28.16-17.067,42.667-17.067,42.667L412.867,421.4c0,0-17.067,17.067-17.067,42.667h-68.267v-76.8
		c0-28.16,17.067-42.667,17.067-42.667l59.733-59.733c10.24-10.24,24.747-11.093,34.987-0.853
		C444.44,288.28,446.147,294.253,447,300.227L447,300.227z M55.32,300.227c0-5.973,2.56-11.947,6.827-17.067
		c10.24-10.24,25.6-8.533,34.987,0.853l59.733,59.733c0,0,17.067,14.507,17.067,42.667v76.8h-68.267
		c0-25.6-17.067-42.667-17.067-42.667L20.333,352.28c0,0-17.067-14.507-17.067-42.667v-128c0-14.507,11.093-25.6,25.6-25.6
		s25.6,11.093,25.6,25.6L55.32,300.227L55.32,300.227z"/>
	<polygon style="fill:#F2EDDA;" points="378.733,131.267 378.733,276.333 122.733,276.333 122.733,131.267 233.667,20.333 
		250.733,3.267 267.8,20.333 	"/>
	<path style="fill:#FF7474;" d="M395.8,20.333v128l-17.067-17.067L267.8,20.333H395.8z M233.667,20.333L122.733,131.267
		l-17.067,17.067v-128h51.2V3.267H191v17.067H233.667z"/>
	<polygon style="fill:#80D6FA;" points="276.333,225.133 327.533,225.133 327.533,156.867 276.333,156.867 	"/>
	<polygon style="fill:#FFD0A1;" points="242.2,216.6 242.2,276.333 173.933,276.333 173.933,156.867 242.2,156.867 	"/>
</g>
<path style="fill:#51565F;" d="M448,503.467c-2.56,0-4.267-1.707-4.267-4.267v-29.867h-128V499.2c0,2.56-1.707,4.267-4.267,4.267
	s-4.267-1.707-4.267-4.267v-34.133c0-2.56,1.707-4.267,4.267-4.267h12.8v-72.533c0-29.867,17.92-45.227,18.773-46.08l59.733-59.733
	c5.973-5.973,12.8-8.533,20.48-9.387c7.68,0,15.36,2.56,20.48,8.533c5.12,5.12,8.533,11.947,8.533,19.627
	c0,7.68-3.413,15.36-9.387,21.333l-42.667,42.667c-1.707,1.707-4.267,1.707-5.973,0c-1.707-1.707-1.707-4.267,0-5.973l42.667-42.667
	c4.267-4.267,6.827-10.24,6.827-15.36c0-5.12-1.707-10.24-5.973-13.653c-7.68-7.68-20.48-7.68-29.013,0.853l-59.733,59.733
	c0,0-16.213,14.507-16.213,39.253v72.533H448c2.56,0,4.267,1.707,4.267,4.267v34.133C452.267,501.76,450.56,503.467,448,503.467z
	 M192,503.467c-2.56,0-4.267-1.707-4.267-4.267v-29.867h-128V499.2c0,2.56-1.707,4.267-4.267,4.267c-2.56,0-4.267-1.707-4.267-4.267
	v-34.133c0-2.56,1.707-4.267,4.267-4.267h115.2v-72.533c0-25.6-15.36-39.253-15.36-39.253L95.573,289.28
	c-8.533-8.533-21.333-9.387-29.013-0.853c-4.267,4.267-5.973,9.387-5.973,14.507s2.56,10.24,6.827,14.507l42.667,42.667
	c1.707,1.707,1.707,4.267,0,5.973c-1.707,1.707-4.267,1.707-5.973,0L61.44,323.414c-5.973-5.973-8.533-12.8-9.387-20.48
	c0-7.68,2.56-15.36,8.533-20.48c11.093-11.093,29.013-11.093,40.96,0.853l59.733,59.733c0.853,0.853,17.92,16.213,17.92,46.08
	v72.533H192c2.56,0,4.267,1.707,4.267,4.267v34.133C196.267,501.76,194.56,503.467,192,503.467z M405.333,435.2
	c-0.853,0-2.56,0-3.413-0.853c-1.707-1.707-1.707-4.267,0-5.973l76.8-76.8c0.853-0.853,16.213-13.653,16.213-39.253v-128
	c0-11.947-9.387-21.333-21.333-21.333c-11.947,0-21.333,9.387-21.333,21.333v67.413c0,2.56-1.707,4.267-4.267,4.267
	s-4.267-1.707-4.267-4.267v-68.266c0-16.213,13.653-29.867,29.867-29.867c16.213,0,29.867,13.653,29.867,29.867v128
	c0,29.867-17.92,45.227-18.773,46.08l-76.8,76.8C407.893,435.2,406.187,435.2,405.333,435.2z M98.133,435.2
	c-0.853,0-2.56,0-3.413-0.853l-76.8-76.8c-0.853,0-17.92-15.36-17.92-46.08v-128C0,167.253,13.653,153.6,29.867,153.6
	s29.867,13.653,29.867,29.867v67.413c0,2.56-1.707,4.267-4.267,4.267c-2.56,0-4.267-1.707-4.267-4.267v-67.413
	c0-11.947-9.387-21.333-21.333-21.333S8.533,171.52,8.533,183.467v128c0,25.6,15.36,39.253,15.36,39.253l76.8,76.8
	c1.707,1.707,1.707,4.267,0,5.973C100.693,435.2,98.987,435.2,98.133,435.2z M379.733,281.6c-2.56,0-4.267-1.707-4.267-4.267
	V170.667c0-2.56,1.707-4.267,4.267-4.267c2.56,0,4.267,1.707,4.267,4.267v106.667C384,279.893,382.293,281.6,379.733,281.6z
	 M243.2,281.6h-68.267c-2.56,0-4.267-1.707-4.267-4.267V157.867c0-2.56,1.707-4.267,4.267-4.267H243.2
	c2.56,0,4.267,1.707,4.267,4.267v119.467C247.467,279.893,245.76,281.6,243.2,281.6z M179.2,273.067h59.733v-51.2h-12.8
	c-2.56,0-4.267-1.707-4.267-4.267c0-2.56,1.707-4.267,4.267-4.267h12.8v-51.2H179.2V273.067z M123.733,281.6
	c-2.56,0-4.267-1.707-4.267-4.267V170.667c0-2.56,1.707-4.267,4.267-4.267c2.56,0,4.267,1.707,4.267,4.267v106.667
	C128,279.893,126.293,281.6,123.733,281.6z M328.533,230.4h-51.2c-2.56,0-4.267-1.707-4.267-4.267v-68.267
	c0-2.56,1.707-4.267,4.267-4.267h51.2c2.56,0,4.267,1.707,4.267,4.267v68.267C332.8,228.693,331.093,230.4,328.533,230.4z
	 M281.6,221.867h42.667v-59.733H281.6V221.867z M396.8,153.6c-0.853,0-2.56-0.853-3.413-0.853L251.733,11.093L110.08,152.747
	c-0.853,0.853-3.413,1.707-4.267,0.853c-1.707-0.853-2.56-2.56-2.56-4.267v-128c0-2.56,1.707-4.267,4.267-4.267h46.933v-12.8
	c0-2.56,1.707-4.267,4.267-4.267h34.133c2.56,0,4.267,1.707,4.267,4.267v17.067c0,2.56-1.707,4.267-4.267,4.267
	s-4.267-1.707-4.267-4.267v-12.8h-25.6v12.8c0,2.56-1.707,4.267-4.267,4.267h-46.933v113.493L249.173,1.707
	c1.707-1.707,4.267-1.707,5.973,0l137.387,137.387V25.6h-81.067c-2.56,0-4.267-1.707-4.267-4.267s1.707-4.267,4.267-4.267H396.8
	c2.56,0,4.267,1.707,4.267,4.267v128c0,1.707-0.853,3.413-2.56,4.267C397.653,153.6,397.653,153.6,396.8,153.6z"/>
<g>
</g>
<g>
</g>
<g>
</g>
<g>
</g>
<g>
</g>
<g>
</g>
<g>
</g>
<g>
</g>
<g>
</g>
<g>
</g>
<g>
</g>
<g>
</g>
<g>
</g>
<g>
</g>
<g>
</g>
</svg>
