<?xml version="1.0" encoding="iso-8859-1"?>
<!-- Generator: Adobe Illustrator 19.0.0, SVG Export Plug-In . SVG Version: 6.00 Build 0)  -->
<svg version="1.1" id="Layer_1" xmlns="http://www.w3.org/2000/svg" xmlns:xlink="http://www.w3.org/1999/xlink" x="0px" y="0px"
	 viewBox="0 0 496.2 496.2" style="enable-background:new 0 0 496.2 496.2;" xml:space="preserve">
<path style="fill:#D8DBBA;" d="M0,248.1C0,111.1,111.1,0,248.1,0s248.1,111.1,248.1,248.1S385.1,496.2,248.1,496.2S0,385.1,0,248.1z
	"/>
<path style="fill:#FFFFFF;" d="M421.7,245.6c-9.9-0.5-14.1-8.6-18.6-17.2c-1.7-3.3-3.5-6.7-5.7-9.6c0.9-3.6,1.3-7.4,1.6-11.1
	c0.9-9.7,1.7-18.8,10.7-22.9c1.2-0.5,1.7-2,1.2-3.2s-1.9-1.8-3.1-1.4c-1.8,0.6-3.5,0.9-5.3,0.9c-6.8,0-12.7-5-18.4-9.8
	c-3.1-2.6-6.3-5.3-9.7-7.2c-0.5-3.9-1.7-7.9-2.9-11.7c-2.9-9.3-5.7-18,1-25.3c0.9-1,0.8-2.5-0.1-3.4s-2.4-0.9-3.4-0.1
	c-3.1,2.8-6.5,4.1-10.8,4.1c-4.6,0-9.7-1.6-14.5-3.1c-3.6-1.1-7.2-2.3-10.9-2.8c-1.9-3.2-4.3-6.1-6.7-9c-6.2-7.5-12-14.5-8.7-23.8
	c0.4-1.2-0.2-2.6-1.4-3.1c-1.2-0.5-2.6,0.1-3.2,1.2c-4.2,8.9-13.4,9.7-23,10.5c-3.9,0.3-8.1,0.7-11.9,1.7c-3.1-2.4-6.8-4.4-10.3-6.2
	c-8.6-4.5-16.7-8.7-17.2-18.6c-0.1-1.3-1.2-2.3-2.5-2.3c-1.3,0-2.4,1-2.4,2.3c-0.5,9.9-8.6,14.1-17.2,18.6c-3.3,1.7-6.7,3.5-9.7,5.7
	c-3.6-0.9-7.4-1.3-11.1-1.6c-9.7-0.9-18.8-1.7-22.9-10.7c-0.5-1.1-2-1.7-3.2-1.2s-1.8,1.8-1.4,3.1c3.3,9.3-2.6,16.3-8.9,23.7
	c-2.6,3-5.2,6.2-7.2,9.6c-3.9,0.5-7.8,1.7-11.7,2.9c-4.9,1.5-9.9,3.1-14.5,3.1c-4.3,0-7.7-1.3-10.8-4.1c-0.9-0.8-2.5-0.8-3.4,0.1
	c-0.9,0.9-1,2.4-0.1,3.4c6.6,7.3,3.9,16,1,25.3c-1.1,3.5-2.3,7.2-2.8,10.8c-3.1,1.9-6.1,4.3-9,6.7c-5.7,4.7-11.6,9.7-18.4,9.7
	c-1.8,0-3.6-0.3-5.4-1c-1.2-0.4-2.6,0.2-3.1,1.4s0,2.6,1.2,3.2c8.9,4.2,9.7,13.4,10.5,23c0.3,3.9,0.7,8.1,1.7,11.9
	c-2.4,3.1-4.4,6.8-6.2,10.3c-4.5,8.6-8.7,16.7-18.6,17.2c-1.3,0.1-2.3,1.2-2.3,2.5s1,2.4,2.3,2.4c9.9,0.5,14.1,8.6,18.6,17.2
	c1.7,3.3,3.5,6.7,5.7,9.6c-0.9,3.6-1.3,7.4-1.6,11.1c-0.9,9.7-1.7,18.8-10.7,22.9c-1.2,0.5-1.7,2-1.2,3.2s1.9,1.8,3.1,1.4
	c1.8-0.6,3.5-0.9,5.3-0.9c6.8,0,12.7,5,18.4,9.8c3.1,2.6,6.3,5.3,9.7,7.2c0.5,3.9,1.7,7.9,2.9,11.7c2.9,9.2,5.7,18-1,25.3
	c-0.9,0.9-0.8,2.5,0.1,3.4c0.5,0.5,1.1,0.7,1.7,0.7c0.6,0,1.2-0.2,1.6-0.6c3.1-2.8,6.5-4.1,10.8-4.1c4.6,0,9.7,1.6,14.5,3.1
	c3.6,1.1,7.2,2.3,10.9,2.8c1.9,3.2,4.3,6.2,6.7,9c6.2,7.5,12,14.5,8.7,23.8c-0.4,1.2,0.2,2.6,1.4,3.1c0.3,0.1,0.6,0.2,0.9,0.2
	c0.9,0,1.8-0.5,2.2-1.4c4.2-8.9,13.4-9.7,23-10.5c3.9-0.3,8.1-0.7,11.9-1.7c3.1,2.4,6.8,4.4,10.3,6.2c8.6,4.5,16.7,8.7,17.2,18.6
	c0.1,1.3,1.2,2.3,2.5,2.3c1.3,0,2.4-1,2.4-2.3c0.5-9.9,8.6-14.1,17.2-18.6c3.3-1.7,6.7-3.5,9.7-5.7c3.6,0.9,7.4,1.3,11.1,1.6
	c9.7,0.9,18.8,1.7,22.9,10.7c0.4,0.8,1.3,1.4,2.2,1.4c0.3,0,0.6-0.1,1-0.2c1.2-0.5,1.8-1.8,1.4-3.1c-3.3-9.3,2.6-16.3,8.9-23.7
	c2.6-3,5.2-6.2,7.2-9.6c3.9-0.5,7.8-1.7,11.7-2.9c4.9-1.5,9.9-3.1,14.5-3.1c4.3,0,7.7,1.3,10.8,4.1c0.9,0.8,2.5,0.8,3.4-0.1
	s1-2.4,0.1-3.4c-6.6-7.3-3.9-16-1-25.3c1.1-3.5,2.3-7.2,2.8-10.8c3.1-1.9,6.1-4.3,9-6.7c5.7-4.7,11.6-9.7,18.4-9.7
	c1.8,0,3.6,0.3,5.4,1c1.2,0.4,2.6-0.2,3.1-1.4c0.5-1.2,0-2.6-1.2-3.2c-8.9-4.2-9.7-13.4-10.5-23c-0.3-3.9-0.7-8.1-1.7-11.9
	c2.4-3.1,4.4-6.8,6.2-10.3c4.5-8.6,8.7-16.7,18.6-17.2c1.3-0.1,2.3-1.2,2.3-2.5C424,246.8,423,245.7,421.7,245.6z"/>
<g>
	<path style="fill:#93719E;" d="M266.9,94.7c-8.7-4.5-17.7-9.2-18.2-20.1c0-0.3-0.3-0.6-0.7-0.6c-0.3,0-0.6,0.3-0.6,0.6
		c-0.5,10.9-9.5,15.6-18.2,20.1c-8.3,4.3-16.8,8.8-16.8,18.6c0,18.5,18.5,27,35.6,27l0,0l0,0c17.1,0,35.6-8.5,35.6-27
		C283.7,103.5,275.2,99,266.9,94.7z"/>
	<path style="fill:#93719E;" d="M229.3,401.5c8.7,4.5,17.7,9.2,18.2,20.1c0,0.3,0.3,0.6,0.7,0.6c0.3,0,0.6-0.3,0.6-0.6
		c0.5-10.9,9.5-15.6,18.2-20.1c8.3-4.3,16.8-8.8,16.8-18.6c0-18.5-18.5-27-35.6-27l0,0l0,0c-17.1,0-35.6,8.5-35.6,27
		C212.5,392.7,221,397.2,229.3,401.5z"/>
	<path style="fill:#93719E;" d="M401.5,266.9c4.5-8.7,9.2-17.7,20.1-18.2c0.3,0,0.6-0.3,0.6-0.7c0-0.3-0.3-0.6-0.6-0.6
		c-10.9-0.5-15.6-9.5-20.1-18.2c-4.3-8.3-8.8-16.8-18.6-16.8c-18.5,0-27,18.5-27,35.6l0,0l0,0c0,17.1,8.5,35.6,27,35.6
		C392.7,283.7,397.2,275.2,401.5,266.9z"/>
	<path style="fill:#93719E;" d="M94.7,229.3c-4.5,8.7-9.2,17.7-20.1,18.2c-0.3,0-0.6,0.3-0.6,0.7c0,0.3,0.3,0.6,0.6,0.6
		c10.9,0.5,15.6,9.5,20.1,18.2c4.3,8.3,8.8,16.8,18.6,16.8c18.5,0,27-18.5,27-35.6l0,0l0,0c0-17.1-8.5-35.6-27-35.6
		C103.5,212.5,99,221,94.7,229.3z"/>
	<path style="fill:#93719E;" d="M369.9,153c-2.9-9.3-6-19,1.4-27.1c0.2-0.2,0.2-0.7-0.1-0.9c-0.2-0.2-0.6-0.2-0.9,0
		c-8.1,7.3-17.7,4.3-27.1,1.4c-8.9-2.8-18.1-5.7-25.1,1.3c-13.1,13.1-6,32.1,6.1,44.3l0,0l0,0c12.2,12.1,31.2,19.2,44.3,6.1
		C375.5,171,372.7,161.8,369.9,153z"/>
	<path style="fill:#93719E;" d="M126.3,343.2c2.9,9.3,6,19-1.4,27.1c-0.2,0.2-0.2,0.7,0.1,0.9c0.2,0.2,0.6,0.2,0.9,0
		c8.1-7.3,17.7-4.3,27.1-1.4c8.9,2.8,18.1,5.7,25.1-1.3c13.1-13.1,6-32.1-6.1-44.3l0,0l0,0c-12.2-12.1-31.2-19.2-44.3-6.1
		C120.7,325.2,123.5,334.4,126.3,343.2z"/>
	<path style="fill:#93719E;" d="M343.2,369.9c9.3-2.9,19-6,27.1,1.4c0.2,0.2,0.7,0.2,0.9-0.1c0.2-0.2,0.2-0.6,0-0.9
		c-7.3-8.1-4.3-17.7-1.4-27.1c2.8-8.9,5.7-18.1-1.3-25.1c-13.1-13.1-32.1-6-44.3,6.1l0,0l0,0c-12.1,12.2-19.2,31.2-6.1,44.3
		C325.2,375.5,334.4,372.7,343.2,369.9z"/>
	<path style="fill:#93719E;" d="M153,126.3c-9.3,2.9-19,6-27.1-1.4c-0.2-0.2-0.7-0.2-0.9,0.1c-0.2,0.2-0.2,0.6,0,0.9
		c7.3,8.1,4.3,17.7,1.4,27.1c-2.8,8.9-5.7,18.1,1.3,25.1c13.1,13.1,32.1,6,44.3-6.1l0,0l0,0c12.1-12.2,19.2-31.2,6.1-44.3
		C171,120.7,161.8,123.5,153,126.3z"/>
	<path style="fill:#93719E;" d="M324.9,114c-6.3-7.5-12.7-15.3-9-25.6c0.1-0.3-0.1-0.7-0.4-0.8c-0.3-0.1-0.7,0-0.8,0.3
		c-4.7,9.9-14.8,10.7-24.5,11.5c-9.3,0.8-18.9,1.6-22.7,10.7c-7.2,17.1,6.6,32,22.4,38.7l0,0l0,0c15.8,6.6,36.1,5.9,43.3-11.1
		C336.9,128.6,330.8,121.2,324.9,114z"/>
	<path style="fill:#93719E;" d="M171.3,382.2c6.3,7.5,12.7,15.3,9,25.6c-0.1,0.3,0.1,0.7,0.4,0.8c0.3,0.1,0.7,0,0.8-0.3
		c4.7-9.9,14.8-10.7,24.5-11.5c9.3-0.8,18.9-1.6,22.7-10.7c7.2-17.1-6.6-32-22.4-38.7l0,0l0,0c-15.8-6.6-36.1-5.9-43.3,11.1
		C159.2,367.6,165.4,375,171.3,382.2z"/>
	<path style="fill:#93719E;" d="M382.2,324.9c7.5-6.3,15.3-12.7,25.6-9c0.3,0.1,0.7-0.1,0.8-0.4c0.1-0.3,0-0.7-0.3-0.8
		c-9.9-4.7-10.7-14.8-11.5-24.5c-0.8-9.3-1.6-18.9-10.7-22.7c-17.1-7.2-32,6.6-38.7,22.4l0,0l0,0c-6.6,15.8-5.9,36.1,11.1,43.3
		C367.6,337,375,330.8,382.2,324.9z"/>
	<path style="fill:#93719E;" d="M114,171.3c-7.5,6.3-15.3,12.7-25.6,9c-0.3-0.1-0.7,0.1-0.8,0.4c-0.1,0.3,0,0.7,0.3,0.8
		c9.9,4.7,10.7,14.8,11.5,24.5c0.8,9.3,1.6,18.9,10.7,22.7c17.1,7.2,32-6.6,38.7-22.4l0,0l0,0c6.6-15.8,5.9-36.1-11.1-43.3
		C128.6,159.3,121.2,165.4,114,171.3z"/>
	<path style="fill:#93719E;" d="M397.2,207.5c0.9-9.7,1.8-19.8,11.7-24.4c0.3-0.1,0.4-0.5,0.3-0.8s-0.5-0.5-0.8-0.4
		c-10.3,3.6-18-2.9-25.5-9.2c-7.1-6-14.5-12.2-23.6-8.5c-17.1,7-18,27.3-11.5,43.2l0,0l0,0c6.5,15.9,21.3,29.7,38.5,22.8
		C395.4,226.4,396.3,216.8,397.2,207.5z"/>
	<path style="fill:#93719E;" d="M99,288.7c-0.9,9.7-1.8,19.8-11.7,24.4c-0.3,0.1-0.4,0.5-0.3,0.8s0.5,0.5,0.8,0.4
		c10.3-3.6,18,2.9,25.5,9.2c7.1,6,14.5,12.2,23.6,8.5c17.1-7,18-27.3,11.5-43.2l0,0l0,0c-6.5-15.9-21.3-29.7-38.5-22.8
		C100.8,269.8,99.9,279.4,99,288.7z"/>
	<path style="fill:#93719E;" d="M288.7,397.2c9.7,0.9,19.8,1.8,24.4,11.7c0.1,0.3,0.5,0.4,0.8,0.3s0.5-0.5,0.4-0.8
		c-3.6-10.3,2.9-18,9.2-25.5c6-7.1,12.2-14.5,8.5-23.6c-7-17.1-27.3-18-43.2-11.5l0,0l0,0c-15.9,6.5-29.7,21.3-22.8,38.5
		C269.8,395.4,279.4,396.3,288.7,397.2z"/>
	<path style="fill:#93719E;" d="M207.5,99c-9.7-0.9-19.8-1.8-24.4-11.7c-0.1-0.3-0.5-0.4-0.8-0.3s-0.5,0.5-0.4,0.8
		c3.6,10.3-2.9,18-9.2,25.5c-6,7.1-12.2,14.5-8.5,23.6c7,17.1,27.3,18,43.2,11.5l0,0l0,0c15.9-6.5,29.7-21.3,22.8-38.5
		C226.4,100.8,216.8,99.9,207.5,99z"/>
</g>
<path style="fill:#FFFFFF;" d="M379.3,157.3c-7.8,4.7-15.2,0.7-23-3.6c-3-1.6-6.1-3.3-9.3-4.4c-1.1-3.2-2.8-6.3-4.4-9.3
	c-4.3-7.8-8.3-15.2-3.6-23c0.6-1,0.3-2.4-0.7-3s-2.4-0.4-3,0.5c-1,1.4-2.2,2.5-3.5,3.4c-5.2,3.5-12.3,2.7-19.1,1.9
	c-3.7-0.4-7.5-0.8-11.1-0.6c-2.4-2.7-5.4-5.1-8.2-7.4c-7-5.6-13.5-10.8-12.2-19.8c0.2-1.2-0.6-2.3-1.8-2.5c-1.1-0.2-2.3,0.5-2.6,1.7
	c-0.9,3.7-2.9,6.4-6.1,8.6c-3.5,2.4-8.2,3.7-12.7,5.1c-3.3,1-6.7,2-9.7,3.4c-3.1-1.5-6.5-2.5-9.7-3.4c-8.6-2.5-16.6-4.9-18.8-13.7
	c-0.3-1.1-1.5-1.9-2.7-1.7c-1.1,0.2-2,1.4-1.8,2.5c1.3,9-5.3,14.2-12.2,19.8c-2.8,2.3-5.8,4.7-8.2,7.4c-3.6-0.3-7.4,0.1-11.1,0.6
	c-8.9,1-17.2,1.9-22.6-5.4c-0.7-0.9-2.1-1.2-3.1-0.5s-1.3,2-0.7,3c4.7,7.8,0.7,15.2-3.6,23c-1.6,3-3.3,6.1-4.4,9.3
	c-3.2,1.1-6.3,2.8-9.3,4.4c-7.8,4.3-15.2,8.3-23,3.6c-1-0.6-2.4-0.3-3.1,0.7s-0.4,2.3,0.5,3.1c7.3,5.4,6.3,13.8,5.4,22.6
	c-0.4,3.6-0.8,7.4-0.6,11.1c-2.7,2.4-5.1,5.3-7.4,8.2c-2.9,3.7-6,7.4-9.5,9.8c-3.3,2.2-6.5,2.9-10.3,2.4c-1.1-0.2-2.3,0.7-2.5,1.8
	c-0.2,1.2,0.5,2.3,1.7,2.6c8.8,2.2,11.2,10.2,13.7,18.8c1,3.2,2,6.6,3.4,9.7c-1.4,3-2.4,6.4-3.4,9.7c-1.9,6.6-3.9,13.3-9.1,16.8
	c-1.4,0.9-2.9,1.6-4.6,2c-1.1,0.3-1.9,1.5-1.7,2.7c0.2,1.2,1.3,2,2.5,1.8c9-1.3,14.2,5.3,19.8,12.2c2.3,2.8,4.7,5.8,7.4,8.2
	c-0.3,3.6,0.2,7.4,0.6,11.1c1,8.9,1.9,17.2-5.4,22.6c-0.9,0.7-1.2,2.1-0.5,3.1s2,1.3,3,0.7c7.8-4.7,15.2-0.7,23,3.6
	c3,1.6,6.1,3.3,9.3,4.4c1.1,3.2,2.8,6.3,4.4,9.3c4.3,7.8,8.3,15.2,3.6,23c-0.6,1-0.3,2.4,0.7,3s2.4,0.4,3.1-0.5
	c1-1.4,2.2-2.5,3.5-3.4c5.2-3.5,12.3-2.7,19.1-1.9c3.7,0.4,7.5,0.8,11.1,0.6c2.4,2.7,5.4,5.1,8.2,7.4c7,5.6,13.5,10.8,12.2,19.8
	c-0.2,1.2,0.6,2.3,1.8,2.5c0.6,0.1,1.2,0,1.7-0.3s0.8-0.8,0.9-1.3c0.9-3.7,2.9-6.4,6.1-8.6c3.5-2.4,8.2-3.7,12.7-5.1
	c3.3-1,6.7-2,9.7-3.4c3.1,1.5,6.5,2.5,9.7,3.4c8.6,2.5,16.6,4.9,18.8,13.7c0.3,1.1,1.5,1.9,2.7,1.7c0.3-0.1,0.6-0.2,0.8-0.3
	c0.7-0.5,1.1-1.3,1-2.2c-1.3-9,5.3-14.2,12.2-19.8c2.8-2.3,5.8-4.7,8.2-7.4c3.6,0.3,7.4-0.1,11.1-0.6c8.9-1,17.2-1.9,22.6,5.4
	c0.7,0.9,2.1,1.2,3.1,0.5s1.3-2,0.7-3c-4.7-7.8-0.7-15.2,3.6-23c1.6-3,3.3-6.1,4.4-9.3c3.2-1.1,6.3-2.8,9.3-4.4
	c7.8-4.3,15.2-8.3,23-3.6c0.7,0.4,1.7,0.4,2.4-0.1c0.2-0.2,0.5-0.4,0.6-0.6c0.7-1,0.4-2.3-0.5-3c-7.3-5.4-6.3-13.8-5.4-22.6
	c0.4-3.6,0.8-7.4,0.6-11.1c2.7-2.4,5.1-5.3,7.4-8.2c2.9-3.7,6-7.4,9.5-9.8c3.3-2.2,6.5-2.9,10.3-2.4c1.1,0.2,2.3-0.7,2.5-1.8
	c0.2-1.2-0.5-2.3-1.7-2.6c-8.8-2.2-11.2-10.2-13.7-18.8c-1-3.2-2-6.6-3.4-9.7c1.4-3,2.4-6.4,3.4-9.7c1.9-6.6,3.9-13.3,9.1-16.8
	c1.4-0.9,2.9-1.6,4.6-2c1.1-0.3,1.9-1.5,1.7-2.7c-0.2-1.2-1.3-2-2.5-1.8c-9,1.3-14.2-5.3-19.8-12.2c-2.3-2.8-4.7-5.8-7.4-8.2
	c0.3-3.6-0.2-7.4-0.6-11.1c-1-8.9-1.9-17.2,5.4-22.6c0.9-0.7,1.2-2.1,0.5-3.1C381.6,157,380.3,156.7,379.3,157.3z"/>
<g>
	<path style="fill:#A076AB;" d="M183.9,121.4c-8.9,1-18.2,2-24.2-6c-0.2-0.2-0.6-0.3-0.8-0.1c-0.3,0.2-0.3,0.5-0.2,0.8
		c5.2,8.6,0.7,16.8-3.6,24.7c-4.1,7.5-8.3,15.3-3.3,22.8c9.5,14.1,27.9,11.1,41,2.4l0,0l0,0c13.1-8.8,22.8-24.7,13.3-38.9
		C201.2,119.5,192.4,120.5,183.9,121.4z"/>
	<path style="fill:#A076AB;" d="M312.3,374.8c8.9-1,18.2-2,24.2,6c0.2,0.2,0.6,0.3,0.8,0.1c0.3-0.2,0.3-0.5,0.2-0.8
		c-5.2-8.6-0.7-16.8,3.6-24.7c4.1-7.5,8.3-15.3,3.3-22.8c-9.5-14.1-27.9-11.1-41-2.4l0,0l0,0c-13.1,8.8-22.8,24.7-13.3,38.9
		C295,376.7,303.8,375.7,312.3,374.8z"/>
	<path style="fill:#A076AB;" d="M374.8,183.9c-1-8.9-2-18.2,6-24.2c0.2-0.2,0.3-0.6,0.1-0.8c-0.2-0.3-0.5-0.3-0.8-0.2
		c-8.6,5.2-16.8,0.7-24.7-3.6c-7.5-4.1-15.3-8.3-22.8-3.3c-14.1,9.5-11.1,27.9-2.4,41l0,0l0,0c8.8,13.1,24.7,22.8,38.9,13.3
		C376.7,201.2,375.7,192.4,374.8,183.9z"/>
	<path style="fill:#A076AB;" d="M121.4,312.3c1,8.9,2,18.2-6,24.2c-0.2,0.2-0.3,0.6-0.1,0.8c0.2,0.3,0.5,0.3,0.8,0.2
		c8.6-5.2,16.8-0.7,24.7,3.6c7.5,4.1,15.3,8.3,22.8,3.3c14.1-9.5,11.1-27.9,2.4-41l0,0l0,0c-8.8-13.1-24.7-22.8-38.9-13.3
		C119.5,295,120.5,303.8,121.4,312.3z"/>
	<path style="fill:#A076AB;" d="M292.3,113.1c-7-5.6-14.3-11.4-12.8-21.4c0-0.3-0.2-0.6-0.5-0.7s-0.6,0.1-0.7,0.4
		c-2.4,9.7-11.3,12.4-19.9,14.9c-8.2,2.4-16.7,4.9-18.5,13.8c-3.3,16.7,11.9,27.6,27.3,30.7l0,0l0,0c15.5,3,33.6-1.4,36.9-18
		C305.9,124,298.9,118.4,292.3,113.1z"/>
	<path style="fill:#A076AB;" d="M203.9,383.1c7,5.6,14.3,11.4,12.8,21.4c0,0.3,0.2,0.6,0.5,0.7s0.6-0.1,0.7-0.4
		c2.4-9.7,11.3-12.4,20-14.9c8.2-2.4,16.7-4.9,18.5-13.8c3.3-16.7-11.9-27.6-27.3-30.7l0,0l0,0c-15.5-3-33.6,1.4-36.9,18
		C190.3,372.2,197.3,377.8,203.9,383.1z"/>
	<path style="fill:#A076AB;" d="M383.1,292.3c5.6-7,11.4-14.3,21.4-12.8c0.3,0,0.6-0.2,0.7-0.5s-0.1-0.6-0.4-0.7
		c-9.7-2.4-12.4-11.3-14.9-20c-2.4-8.2-4.9-16.7-13.8-18.5c-16.7-3.3-27.6,11.9-30.7,27.3l0,0l0,0c-3,15.5,1.4,33.6,18,36.9
		C372.2,305.9,377.8,298.9,383.1,292.3z"/>
	<path style="fill:#A076AB;" d="M113.1,203.9c-5.6,7-11.4,14.3-21.4,12.8c-0.3,0-0.6,0.2-0.7,0.5s0.1,0.6,0.4,0.7
		c9.7,2.4,12.4,11.3,14.9,19.9c2.4,8.2,4.9,16.7,13.8,18.5c16.7,3.3,27.6-11.9,30.7-27.3l0,0l0,0c3-15.5-1.4-33.6-18-36.9
		C124,190.3,118.4,197.3,113.1,203.9z"/>
	<path style="fill:#A076AB;" d="M237.9,106.4c-8.6-2.5-17.6-5.2-19.9-14.9c-0.1-0.3-0.4-0.5-0.7-0.4s-0.5,0.3-0.5,0.6
		c1.5,9.9-5.8,15.7-12.8,21.3c-6.7,5.3-13.6,10.9-11.9,19.8c3.3,16.7,21.4,21.1,36.9,18.1l0,0l0,0c15.5-3.1,30.6-14,27.3-30.7
		C254.7,111.3,246.2,108.8,237.9,106.4z"/>
	<path style="fill:#A076AB;" d="M258.3,389.8c8.6,2.5,17.6,5.2,19.9,14.9c0.1,0.3,0.4,0.5,0.7,0.4c0.3-0.1,0.5-0.3,0.5-0.6
		c-1.5-9.9,5.8-15.7,12.8-21.3c6.7-5.3,13.6-10.9,11.9-19.8c-3.3-16.7-21.4-21.1-36.9-18.1l0,0l0,0c-15.5,3.1-30.6,14-27.3,30.7
		C241.5,384.9,250,387.4,258.3,389.8z"/>
	<path style="fill:#A076AB;" d="M389.8,237.9c2.5-8.6,5.2-17.6,14.9-19.9c0.3-0.1,0.5-0.4,0.4-0.7s-0.3-0.5-0.6-0.5
		c-9.9,1.5-15.7-5.8-21.3-12.8c-5.3-6.7-10.9-13.6-19.8-11.9c-16.7,3.3-21.1,21.4-18.1,36.9l0,0l0,0c3.1,15.5,14,30.6,30.7,27.3
		C384.9,254.7,387.4,246.2,389.8,237.9z"/>
	<path style="fill:#A076AB;" d="M106.4,258.3c-2.5,8.6-5.2,17.6-14.9,19.9c-0.3,0.1-0.5,0.4-0.4,0.7c0.1,0.3,0.3,0.5,0.6,0.5
		c9.9-1.5,15.7,5.8,21.3,12.8c5.3,6.7,10.9,13.6,19.8,11.9c16.7-3.3,21.1-21.4,18.1-36.9l0,0l0,0c-3.1-15.5-14-30.6-30.7-27.3
		C111.3,241.5,108.8,250,106.4,258.3z"/>
	<path style="fill:#A076AB;" d="M341.1,140.7c-4.3-7.9-8.8-16.1-3.6-24.7c0.2-0.3,0-0.6-0.2-0.8c-0.3-0.2-0.6-0.1-0.8,0.1
		c-6,8.1-15.2,7-24.2,6c-8.5-1-17.3-1.9-22.4,5.6c-9.5,14.1,0.3,30,13.3,38.9l0,0l0,0c13.1,8.8,31.5,11.8,41-2.3
		C349.4,156,345.2,148.3,341.1,140.7z"/>
	<path style="fill:#A076AB;" d="M155.1,355.5c4.3,7.9,8.8,16.1,3.6,24.7c-0.2,0.3,0,0.6,0.2,0.8c0.3,0.2,0.6,0.1,0.8-0.1
		c6-8.1,15.2-7,24.2-6c8.5,1,17.3,1.9,22.4-5.6c9.5-14.1-0.3-30-13.3-38.9l0,0l0,0c-13.1-8.8-31.5-11.8-41,2.3
		C146.8,340.2,151,347.9,155.1,355.5z"/>
	<path style="fill:#A076AB;" d="M355.5,341.1c7.9-4.3,16.1-8.8,24.7-3.6c0.3,0.2,0.6,0,0.8-0.2c0.2-0.3,0.1-0.6-0.1-0.8
		c-8.1-6-7-15.2-6-24.2c1-8.5,1.9-17.3-5.6-22.4c-14.1-9.5-30,0.3-38.9,13.3l0,0l0,0c-8.8,13.1-11.8,31.5,2.3,41
		C340.2,349.4,347.9,345.2,355.5,341.1z"/>
	<path style="fill:#A076AB;" d="M140.7,155.1c-7.9,4.3-16.1,8.8-24.7,3.6c-0.3-0.2-0.6,0-0.8,0.2c-0.2,0.3-0.1,0.6,0.1,0.8
		c8.1,6,7,15.2,6,24.2c-1,8.5-1.9,17.3,5.6,22.4c14.1,9.5,30-0.3,38.9-13.3l0,0l0,0c8.8-13.1,11.8-31.5-2.3-41
		C156,146.8,148.3,151,140.7,155.1z"/>
</g>
<path style="fill:#FFFFFF;" d="M382.2,246.2c-7.6-0.4-10.9-6.6-14.3-13.3c-1.3-2.5-2.7-5.2-4.4-7.5c0.7-2.8,1-5.7,1.3-8.6
	c0.7-7.5,1.3-14.5,8.3-17.7c0.9-0.4,1.3-1.5,0.9-2.5c-0.4-0.9-1.4-1.4-2.4-1.1c-1.4,0.5-2.7,0.7-4.1,0.7c-5.3,0-9.8-3.9-14.2-7.6
	c-2.4-2-4.8-4.1-7.5-5.6c-0.4-3-1.3-6.1-2.2-9c-2.2-7.2-4.4-13.9,0.8-19.5c0.7-0.7,0.6-1.9-0.1-2.6c-0.7-0.7-1.9-0.7-2.6-0.1
	c-2.4,2.2-5,3.2-8.3,3.2c-3.6,0-7.5-1.2-11.2-2.4c-2.8-0.9-5.6-1.8-8.4-2.2c-1.5-2.5-3.4-4.7-5.2-6.9c-4.8-5.8-9.3-11.2-6.7-18.4
	c0.3-0.9-0.1-2-1.1-2.4c-0.9-0.4-2,0-2.4,0.9c-3.3,6.9-10.3,7.5-17.8,8.1c-3,0.3-6.3,0.5-9.2,1.3c-2.4-1.9-5.3-3.4-8-4.8
	c-6.6-3.5-12.9-6.7-13.3-14.4c0-1-0.9-1.8-1.9-1.8s-1.8,0.8-1.9,1.8c-0.4,7.6-6.6,10.9-13.3,14.4c-2.5,1.3-5.2,2.7-7.5,4.4
	c-2.8-0.7-5.7-1-8.6-1.3c-7.5-0.7-14.5-1.3-17.7-8.3c-0.4-0.9-1.5-1.3-2.5-0.9c-0.9,0.4-1.4,1.4-1.1,2.4c2.5,7.2-2,12.6-6.9,18.3
	c-2,2.3-4.1,4.8-5.6,7.5c-3,0.4-6.1,1.3-9,2.3c-3.8,1.2-7.6,2.4-11.2,2.4c-3.3,0-5.9-1-8.3-3.2c-0.7-0.6-1.9-0.6-2.6,0.1
	c-0.7,0.7-0.7,1.9-0.1,2.6c5.1,5.6,3,12.4,0.8,19.5c-0.9,2.7-1.7,5.5-2.2,8.4c-2.4,1.4-4.7,3.3-6.9,5.2c-4.4,3.7-9,7.5-14.2,7.5
	c-1.4,0-2.7-0.3-4.2-0.8c-0.9-0.3-2,0.2-2.4,1.1c-0.4,0.9,0,2,0.9,2.4c6.9,3.3,7.5,10.3,8.1,17.8c0.3,3,0.5,6.3,1.3,9.2
	c-1.9,2.4-3.4,5.3-4.8,8c-3.5,6.6-6.7,12.9-14.4,13.3c-1,0-1.8,0.9-1.8,1.9c0,1,0.8,1.8,1.8,1.9c7.6,0.4,10.9,6.6,14.4,13.3
	c1.3,2.5,2.7,5.2,4.4,7.5c-0.7,2.8-1,5.7-1.3,8.6c-0.7,7.5-1.4,14.5-8.3,17.7c-0.9,0.4-1.3,1.5-0.9,2.5c0.4,0.9,1.4,1.4,2.4,1.1
	c1.4-0.5,2.7-0.7,4.1-0.7c5.3,0,9.8,3.9,14.2,7.6c2.4,2,4.8,4.1,7.5,5.6c0.4,3,1.3,6.1,2.2,9c2.3,7.1,4.4,13.9-0.8,19.5
	c-0.7,0.7-0.6,1.9,0.1,2.6c0.4,0.4,0.8,0.6,1.3,0.6s0.9-0.2,1.3-0.5c2.4-2.2,5-3.2,8.3-3.2c3.6,0,7.5,1.2,11.2,2.4
	c2.8,0.9,5.6,1.8,8.4,2.2c1.5,2.5,3.4,4.8,5.2,6.9c4.8,5.8,9.3,11.2,6.7,18.4c-0.3,0.9,0.1,2,1.1,2.4c0.2,0.1,0.5,0.1,0.7,0.1
	c0.7,0,1.4-0.4,1.7-1.1c3.3-6.9,10.3-7.5,17.8-8.1c3-0.3,6.3-0.5,9.2-1.3c2.4,1.9,5.3,3.4,8,4.8c6.6,3.5,12.9,6.7,13.3,14.4
	c0,1,0.9,1.8,1.9,1.8s1.8-0.8,1.9-1.8c0.4-7.6,6.6-10.9,13.3-14.4c2.5-1.3,5.2-2.7,7.5-4.4c2.8,0.7,5.7,1,8.6,1.3
	c7.5,0.7,14.5,1.3,17.7,8.3c0.3,0.7,1,1.1,1.7,1.1c0.3,0,0.5,0,0.7-0.1c0.9-0.4,1.4-1.4,1.1-2.4c-2.5-7.2,2-12.6,6.9-18.3
	c2-2.3,4.1-4.8,5.6-7.4c3-0.4,6.1-1.3,9-2.3c3.8-1.2,7.6-2.4,11.2-2.4c3.3,0,5.9,1,8.3,3.2c0.7,0.6,1.9,0.6,2.6-0.1s0.7-1.9,0.1-2.6
	c-5.1-5.6-3-12.4-0.8-19.5c0.9-2.7,1.7-5.5,2.2-8.4c2.4-1.4,4.7-3.3,6.9-5.2c4.4-3.7,9-7.5,14.2-7.5c1.4,0,2.7,0.3,4.2,0.8
	c0.9,0.3,2-0.2,2.4-1.1s0-2-0.9-2.4c-6.9-3.3-7.5-10.3-8.1-17.8c-0.3-3-0.5-6.3-1.3-9.2c1.9-2.4,3.4-5.3,4.8-8
	c3.5-6.6,6.7-12.9,14.4-13.3c1,0,1.8-0.9,1.8-1.9C384,247.1,383.2,246.2,382.2,246.2z"/>
<g>
	<path style="fill:#93719E;" d="M262.6,129.6c-6.7-3.5-13.6-7.1-14-15.5c0-0.3-0.3-0.5-0.5-0.5c-0.3,0-0.5,0.2-0.5,0.5
		c-0.4,8.4-7.3,12-14,15.5c-6.4,3.3-13,6.8-13,14.4c0,14.3,14.3,20.8,27.5,20.9l0,0l0,0c13.2,0,27.5-6.6,27.5-20.9
		C275.6,136.4,269,132.9,262.6,129.6z"/>
	<path style="fill:#93719E;" d="M233.6,366.6c6.7,3.5,13.6,7.1,14,15.5c0,0.3,0.3,0.5,0.5,0.5c0.2,0,0.5-0.2,0.5-0.5
		c0.4-8.4,7.3-12,14-15.5c6.4-3.3,13-6.8,13-14.4c0-14.3-14.3-20.8-27.5-20.9l0,0l0,0c-13.2,0-27.5,6.6-27.5,20.9
		C220.6,359.8,227.2,363.3,233.6,366.6z"/>
	<path style="fill:#93719E;" d="M366.6,262.6c3.5-6.7,7.1-13.6,15.5-14c0.3,0,0.5-0.3,0.5-0.5c0-0.3-0.2-0.5-0.5-0.5
		c-8.4-0.4-12-7.3-15.5-14c-3.3-6.4-6.8-13-14.4-13c-14.3,0-20.8,14.3-20.9,27.5l0,0l0,0c0,13.2,6.6,27.5,20.9,27.5
		C359.8,275.6,363.3,269,366.6,262.6z"/>
	<path style="fill:#93719E;" d="M129.6,233.6c-3.5,6.7-7.1,13.6-15.5,14c-0.3,0-0.5,0.3-0.5,0.5c0,0.3,0.2,0.5,0.5,0.5
		c8.4,0.4,12,7.3,15.5,14c3.3,6.4,6.8,13,14.4,13c14.3,0,20.8-14.3,20.9-27.5l0,0l0,0c0-13.2-6.6-27.5-20.9-27.5
		C136.4,220.6,132.9,227.2,129.6,233.6z"/>
	<path style="fill:#93719E;" d="M342.2,174.6c-2.3-7.2-4.6-14.7,1.1-20.9c0.2-0.2,0.1-0.5,0-0.7c-0.2-0.2-0.5-0.2-0.7,0
		c-6.2,5.7-13.7,3.3-20.9,1.1c-6.9-2.2-14-4.4-19.4,1c-10.1,10.1-4.6,24.8,4.7,34.2l0,0l0,0c9.4,9.3,24.1,14.8,34.2,4.7
		C346.6,188.6,344.3,181.5,342.2,174.6z"/>
	<path style="fill:#93719E;" d="M154,321.6c2.3,7.2,4.6,14.7-1.1,20.9c-0.2,0.2-0.1,0.5,0,0.7c0.2,0.2,0.5,0.2,0.7,0
		c6.2-5.7,13.7-3.3,20.9-1.1c6.9,2.2,14,4.4,19.4-1c10.1-10.1,4.6-24.8-4.7-34.2l0,0l0,0c-9.4-9.3-24.1-14.8-34.2-4.7
		C149.6,307.6,151.9,314.7,154,321.6z"/>
	<path style="fill:#93719E;" d="M321.6,342.2c7.2-2.3,14.7-4.6,20.9,1.1c0.2,0.2,0.5,0.1,0.7,0c0.2-0.2,0.2-0.5,0-0.7
		c-5.7-6.2-3.3-13.7-1.1-20.9c2.2-6.9,4.4-14-1-19.4c-10.1-10.1-24.8-4.6-34.2,4.7l0,0l0,0c-9.3,9.4-14.8,24.1-4.7,34.2
		C307.6,346.6,314.7,344.3,321.6,342.2z"/>
	<path style="fill:#93719E;" d="M174.6,154c-7.2,2.3-14.7,4.6-20.9-1.1c-0.2-0.2-0.5-0.1-0.7,0c-0.2,0.2-0.2,0.5,0,0.7
		c5.7,6.2,3.3,13.7,1.1,20.9c-2.2,6.9-4.4,14,1,19.4c10.1,10.1,24.8,4.6,34.2-4.7l0,0l0,0c9.3-9.4,14.8-24.1,4.7-34.2
		C188.6,149.6,181.5,151.9,174.6,154z"/>
	<path style="fill:#93719E;" d="M307.4,144.5c-4.8-5.8-9.8-11.8-6.9-19.8c0.1-0.2-0.1-0.5-0.3-0.6c-0.2-0.1-0.5,0-0.6,0.2
		c-3.6,7.6-11.4,8.3-19,8.9c-7.2,0.6-14.6,1.2-17.5,8.2c-5.5,13.2,5.1,24.7,17.3,29.9l0,0l0,0c12.2,5.1,27.9,4.6,33.4-8.6
		C316.7,155.8,312,150,307.4,144.5z"/>
	<path style="fill:#93719E;" d="M188.8,351.7c4.8,5.8,9.8,11.8,6.9,19.8c-0.1,0.2,0.1,0.5,0.3,0.6s0.5,0,0.6-0.2
		c3.6-7.6,11.4-8.3,19-8.9c7.2-0.6,14.6-1.2,17.5-8.2c5.5-13.2-5.1-24.7-17.3-29.9l0,0l0,0c-12.2-5.1-27.9-4.6-33.4,8.6
		C179.5,340.4,184.2,346.2,188.8,351.7z"/>
	<path style="fill:#93719E;" d="M351.7,307.4c5.8-4.8,11.8-9.8,19.8-6.9c0.2,0.1,0.5-0.1,0.6-0.3s0-0.5-0.2-0.6
		c-7.6-3.6-8.3-11.4-8.9-19c-0.6-7.2-1.2-14.6-8.2-17.5c-13.2-5.5-24.7,5.1-29.9,17.3l0,0l0,0c-5.1,12.2-4.6,27.9,8.6,33.4
		C340.4,316.7,346.2,312,351.7,307.4z"/>
	<path style="fill:#93719E;" d="M144.5,188.8c-5.8,4.8-11.8,9.8-19.8,6.9c-0.2-0.1-0.5,0.1-0.6,0.3s0,0.5,0.2,0.6
		c7.6,3.6,8.3,11.4,8.9,19c0.6,7.2,1.2,14.6,8.2,17.5c13.2,5.5,24.7-5.1,29.9-17.3l0,0l0,0c5.1-12.2,4.6-27.9-8.6-33.4
		C155.8,179.5,150,184.2,144.5,188.8z"/>
	<path style="fill:#93719E;" d="M363.3,216.8c0.7-7.5,1.4-15.3,9.1-18.9c0.2-0.1,0.3-0.4,0.2-0.7c-0.1-0.2-0.4-0.4-0.6-0.3
		c-7.9,2.8-13.9-2.2-19.7-7.1c-5.5-4.7-11.2-9.5-18.2-6.6c-13.2,5.4-13.9,21.1-8.9,33.4l0,0l0,0c5,12.3,16.5,23,29.7,17.6
		C361.9,231.3,362.6,223.9,363.3,216.8z"/>
	<path style="fill:#93719E;" d="M132.9,279.4c-0.7,7.5-1.4,15.3-9.1,18.9c-0.2,0.1-0.3,0.4-0.2,0.7c0.1,0.2,0.4,0.4,0.6,0.3
		c7.9-2.8,13.9,2.2,19.7,7.1c5.5,4.7,11.2,9.5,18.2,6.6c13.2-5.4,13.9-21.1,8.9-33.4l0,0l0,0c-5-12.3-16.5-23-29.7-17.6
		C134.3,264.9,133.6,272.3,132.9,279.4z"/>
	<path style="fill:#93719E;" d="M279.4,363.3c7.5,0.7,15.3,1.4,18.9,9.1c0.1,0.2,0.4,0.3,0.7,0.2s0.4-0.4,0.3-0.6
		c-2.8-7.9,2.2-13.9,7.1-19.7c4.7-5.5,9.5-11.2,6.6-18.2c-5.4-13.2-21.1-13.9-33.4-8.9l0,0l0,0c-12.3,5-23,16.5-17.6,29.7
		C264.9,361.9,272.3,362.6,279.4,363.3z"/>
	<path style="fill:#93719E;" d="M216.8,132.9c-7.5-0.7-15.3-1.4-18.9-9.1c-0.1-0.2-0.4-0.3-0.7-0.2s-0.4,0.4-0.3,0.6
		c2.8,7.9-2.2,13.9-7.1,19.7c-4.7,5.5-9.5,11.2-6.6,18.2c5.4,13.2,21.1,13.9,33.4,8.9l0,0l0,0c12.3-5,23-16.5,17.6-29.7
		C231.3,134.3,223.9,133.6,216.8,132.9z"/>
</g>
<path style="fill:#FFFFFF;" d="M348.2,178.8c-5.9,3.6-11.6,0.5-17.5-2.8c-2.3-1.2-4.6-2.5-7.1-3.4c-0.9-2.4-2.2-4.8-3.4-7.1
	c-3.3-6-6.3-11.6-2.7-17.5c0.5-0.8,0.2-1.8-0.5-2.3s-1.8-0.3-2.3,0.4c-0.8,1.1-1.7,1.9-2.7,2.6c-4,2.7-9.4,2.1-14.6,1.5
	c-2.8-0.3-5.7-0.6-8.5-0.4c-1.8-2.1-4.1-3.9-6.3-5.7c-5.3-4.2-10.3-8.3-9.3-15.1c0.1-0.9-0.5-1.8-1.4-1.9c-0.9-0.2-1.8,0.4-2,1.3
	c-0.7,2.8-2.2,4.9-4.7,6.6c-2.7,1.8-6.3,2.9-9.7,3.9c-2.5,0.7-5.1,1.5-7.4,2.6c-2.3-1.1-4.9-1.9-7.4-2.6
	c-6.5-1.9-12.7-3.7-14.3-10.5c-0.2-0.9-1.1-1.4-2-1.3c-0.9,0.2-1.5,1.1-1.4,1.9c1,6.9-4,10.9-9.3,15.1c-2.2,1.7-4.5,3.6-6.3,5.7
	c-2.8-0.2-5.7,0.1-8.4,0.4c-6.8,0.8-13.2,1.5-17.3-4.1c-0.5-0.7-1.6-0.9-2.4-0.4c-0.8,0.5-1,1.5-0.5,2.3c3.6,5.9,0.5,11.6-2.7,17.5
	c-1.2,2.3-2.5,4.6-3.4,7.1c-2.4,0.9-4.8,2.2-7.1,3.4c-6,3.3-11.6,6.3-17.5,2.7c-0.8-0.5-1.8-0.2-2.3,0.5c-0.5,0.8-0.3,1.8,0.4,2.3
	c5.6,4.1,4.8,10.5,4.1,17.3c-0.3,2.8-0.6,5.7-0.4,8.4c-2.1,1.8-3.9,4.1-5.7,6.3c-2.2,2.8-4.5,5.7-7.2,7.5c-2.5,1.7-5,2.3-7.9,1.8
	c-0.9-0.1-1.8,0.5-1.9,1.4c-0.2,0.9,0.4,1.8,1.3,2c6.7,1.7,8.5,7.8,10.5,14.3c0.7,2.5,1.5,5.1,2.6,7.4c-1.1,2.3-1.9,4.9-2.6,7.4
	c-1.5,5-3,10.2-6.9,12.8c-1,0.7-2.2,1.2-3.5,1.5c-0.9,0.2-1.4,1.1-1.3,2c0.2,0.9,1,1.5,1.9,1.4c6.9-1,10.9,4,15.1,9.3
	c1.7,2.2,3.6,4.5,5.7,6.3c-0.2,2.8,0.1,5.7,0.4,8.4c0.8,6.8,1.5,13.2-4.1,17.3c-0.7,0.5-0.9,1.6-0.4,2.4s1.5,1,2.3,0.5
	c5.9-3.6,11.6-0.5,17.5,2.7c2.3,1.2,4.6,2.5,7.1,3.4c0.9,2.4,2.2,4.8,3.4,7.1c3.3,6,6.3,11.6,2.7,17.5c-0.5,0.8-0.2,1.8,0.5,2.3
	s1.8,0.3,2.3-0.4c0.8-1.1,1.7-1.9,2.7-2.6c4-2.7,9.4-2.1,14.6-1.5c2.8,0.3,5.7,0.6,8.5,0.4c1.8,2.1,4.1,3.9,6.3,5.7
	c5.3,4.2,10.3,8.3,9.3,15.1c-0.1,0.9,0.5,1.8,1.4,1.9c0.4,0.1,0.9,0,1.3-0.3c0.4-0.2,0.6-0.6,0.7-1c0.7-2.8,2.2-4.9,4.7-6.6
	c2.7-1.8,6.3-2.9,9.7-3.9c2.5-0.7,5.1-1.5,7.4-2.6c2.3,1.1,4.9,1.9,7.4,2.6c6.5,1.9,12.7,3.7,14.3,10.5c0.2,0.9,1.1,1.4,2,1.3
	c0.2,0,0.4-0.1,0.6-0.3c0.5-0.4,0.8-1,0.7-1.7c-1-6.8,4-10.9,9.3-15.1c2.2-1.7,4.5-3.6,6.3-5.7c2.8,0.2,5.7-0.1,8.4-0.4
	c6.8-0.8,13.2-1.5,17.3,4.1c0.5,0.7,1.6,0.9,2.4,0.4s1-1.5,0.5-2.3c-3.6-5.9-0.5-11.6,2.8-17.5c1.2-2.3,2.5-4.6,3.4-7.1
	c2.4-0.9,4.8-2.2,7.1-3.4c6-3.3,11.6-6.3,17.5-2.7c0.6,0.3,1.3,0.3,1.8-0.1c0.2-0.1,0.4-0.3,0.5-0.5c0.5-0.8,0.3-1.8-0.4-2.3
	c-5.6-4.1-4.8-10.5-4.1-17.3c0.3-2.8,0.6-5.7,0.4-8.4c2.1-1.8,3.9-4.1,5.7-6.3c2.2-2.8,4.5-5.7,7.2-7.5c2.5-1.7,5-2.3,7.9-1.8
	c0.9,0.1,1.8-0.5,1.9-1.4c0.2-0.9-0.4-1.8-1.3-2c-6.7-1.7-8.5-7.8-10.5-14.3c-0.7-2.5-1.5-5.1-2.6-7.4c1.1-2.3,1.9-4.9,2.6-7.4
	c1.5-5,3-10.2,6.9-12.8c1-0.7,2.2-1.2,3.5-1.5c0.9-0.2,1.4-1.1,1.3-2c-0.2-0.9-1-1.5-1.9-1.4c-6.9,1-10.9-4-15.1-9.3
	c-1.7-2.2-3.6-4.5-5.7-6.3c0.2-2.8-0.1-5.7-0.4-8.4c-0.8-6.8-1.5-13.2,4.1-17.3c0.7-0.5,0.9-1.6,0.4-2.4
	C350,178.5,349,178.3,348.2,178.8z"/>
<g>
	<path style="fill:#A076AB;" d="M199.1,151.4c-6.8,0.8-13.9,1.5-18.4-4.6c-0.1-0.2-0.4-0.2-0.6-0.1c-0.2,0.1-0.3,0.4-0.1,0.6
		c4,6.6,0.6,12.8-2.7,18.8c-3.1,5.7-6.4,11.7-2.5,17.4c7.2,10.8,21.3,8.5,31.3,1.8l0,0l0,0c10-6.7,17.4-18.9,10.2-29.7
		C212.3,149.9,205.6,150.7,199.1,151.4z"/>
	<path style="fill:#A076AB;" d="M297.1,344.8c6.8-0.8,13.9-1.5,18.4,4.6c0.1,0.2,0.4,0.2,0.6,0.1s0.3-0.4,0.1-0.6
		c-4-6.6-0.6-12.8,2.7-18.8c3.1-5.7,6.4-11.7,2.5-17.4c-7.2-10.8-21.3-8.5-31.3-1.8l0,0l0,0c-10,6.7-17.4,18.9-10.2,29.7
		C283.9,346.3,290.6,345.5,297.1,344.8z"/>
	<path style="fill:#A076AB;" d="M344.8,199.1c-0.8-6.8-1.5-13.9,4.6-18.4c0.2-0.1,0.2-0.4,0.1-0.6c-0.1-0.2-0.4-0.3-0.6-0.1
		c-6.6,4-12.8,0.6-18.8-2.7c-5.7-3.1-11.7-6.4-17.4-2.5c-10.8,7.2-8.5,21.3-1.8,31.3l0,0l0,0c6.7,10,18.9,17.4,29.7,10.2
		C346.3,212.3,345.5,205.6,344.8,199.1z"/>
	<path style="fill:#A076AB;" d="M151.4,297.1c0.8,6.8,1.5,13.9-4.6,18.4c-0.2,0.1-0.2,0.4-0.1,0.6c0.1,0.2,0.4,0.3,0.6,0.1
		c6.6-4,12.8-0.6,18.8,2.7c5.7,3.1,11.7,6.4,17.4,2.5c10.8-7.2,8.5-21.3,1.8-31.3l0,0l0,0c-6.7-10-18.9-17.4-29.7-10.2
		C149.9,283.9,150.7,290.6,151.4,297.1z"/>
	<path style="fill:#A076AB;" d="M281.8,145.1c-5.4-4.3-10.9-8.7-9.8-16.3c0-0.2-0.2-0.5-0.4-0.5c-0.2,0-0.5,0.1-0.5,0.3
		c-1.8,7.4-8.6,9.4-15.2,11.4c-6.3,1.8-12.8,3.8-14.1,10.5c-2.5,12.7,9.1,21.1,20.9,23.4l0,0l0,0c11.8,2.3,25.7-1,28.2-13.8
		C292.2,153.4,286.9,149.1,281.8,145.1z"/>
	<path style="fill:#A076AB;" d="M214.4,351.1c5.4,4.3,10.9,8.7,9.8,16.3c0,0.2,0.2,0.5,0.4,0.5s0.5-0.1,0.5-0.3
		c1.8-7.4,8.6-9.4,15.2-11.4c6.3-1.8,12.8-3.8,14.1-10.5c2.5-12.7-9.1-21.1-20.9-23.4l0,0l0,0c-11.8-2.3-25.7,1-28.2,13.8
		C204,342.8,209.3,347.1,214.4,351.1z"/>
	<path style="fill:#A076AB;" d="M351.1,281.8c4.3-5.4,8.7-10.9,16.3-9.8c0.2,0,0.5-0.2,0.5-0.4c0-0.2-0.1-0.5-0.3-0.5
		c-7.4-1.8-9.4-8.6-11.4-15.2c-1.8-6.3-3.8-12.8-10.5-14.1c-12.7-2.5-21.1,9.1-23.4,20.9l0,0l0,0c-2.3,11.8,1,25.7,13.8,28.2
		C342.8,292.2,347.1,286.9,351.1,281.8z"/>
	<path style="fill:#A076AB;" d="M145.1,214.4c-4.3,5.4-8.7,10.9-16.3,9.8c-0.2,0-0.5,0.2-0.5,0.4s0.1,0.5,0.3,0.5
		c7.4,1.8,9.4,8.6,11.4,15.2c1.8,6.3,3.8,12.8,10.5,14.1c12.7,2.5,21.1-9.1,23.4-20.9l0,0l0,0c2.3-11.8-1-25.7-13.8-28.2
		C153.4,204,149.1,209.3,145.1,214.4z"/>
	<path style="fill:#A076AB;" d="M240.3,140c-6.6-1.9-13.4-4-15.2-11.4c-0.1-0.2-0.3-0.4-0.5-0.3c-0.2,0-0.4,0.3-0.3,0.5
		c1.1,7.6-4.4,12-9.8,16.3c-5.1,4.1-10.4,8.3-9.1,15.1c2.5,12.7,16.3,16.1,28.2,13.8l0,0l0,0c11.8-2.3,23.4-10.7,20.9-23.4
		C253.1,143.7,246.6,141.8,240.3,140z"/>
	<path style="fill:#A076AB;" d="M255.8,356.2c6.6,1.9,13.4,4,15.2,11.4c0.1,0.2,0.3,0.4,0.5,0.3c0.2,0,0.4-0.3,0.3-0.5
		c-1.1-7.6,4.4-12,9.8-16.3c5.1-4.1,10.4-8.3,9.1-15.1c-2.5-12.7-16.3-16.1-28.2-13.8l0,0l0,0c-11.8,2.3-23.4,10.7-20.9,23.4
		C243.1,352.5,249.6,354.4,255.8,356.2z"/>
	<path style="fill:#A076AB;" d="M356.2,240.3c1.9-6.6,4-13.4,11.4-15.2c0.2-0.1,0.4-0.3,0.3-0.5c0-0.2-0.3-0.4-0.5-0.3
		c-7.6,1.1-12-4.4-16.3-9.8c-4.1-5.1-8.3-10.4-15.1-9.1c-12.7,2.5-16.1,16.3-13.8,28.2l0,0l0,0c2.3,11.8,10.7,23.4,23.4,20.9
		C352.5,253.1,354.4,246.6,356.2,240.3z"/>
	<path style="fill:#A076AB;" d="M140,255.8c-1.9,6.6-4,13.4-11.4,15.2c-0.2,0.1-0.4,0.3-0.3,0.5c0,0.2,0.3,0.4,0.5,0.3
		c7.6-1.1,12,4.4,16.3,9.8c4.1,5.1,8.3,10.4,15.1,9.1c12.7-2.5,16.1-16.3,13.8-28.2l0,0l0,0c-2.3-11.8-10.7-23.4-23.4-20.9
		C143.7,243.1,141.8,249.6,140,255.8z"/>
	<path style="fill:#A076AB;" d="M319.1,166.2c-3.3-6-6.7-12.3-2.7-18.8c0.1-0.2,0-0.5-0.2-0.6s-0.5-0.1-0.6,0.1
		c-4.6,6.1-11.6,5.4-18.4,4.6c-6.5-0.7-13.2-1.5-17.1,4.3c-7.2,10.8,0.2,22.9,10.2,29.7l0,0l0,0c10,6.7,24.1,9,31.3-1.8
		C325.4,177.8,322.2,171.9,319.1,166.2z"/>
	<path style="fill:#A076AB;" d="M177.1,330c3.3,6,6.7,12.3,2.7,18.8c-0.1,0.2,0,0.5,0.2,0.6s0.5,0.1,0.6-0.1
		c4.6-6.1,11.6-5.4,18.4-4.6c6.5,0.7,13.2,1.5,17.1-4.3c7.2-10.8-0.2-22.9-10.2-29.7l0,0l0,0c-10-6.7-24.1-9-31.3,1.8
		C170.8,318.4,174,324.3,177.1,330z"/>
	<path style="fill:#A076AB;" d="M330,319.1c6-3.3,12.3-6.7,18.8-2.7c0.2,0.1,0.5,0,0.6-0.2s0.1-0.5-0.1-0.6
		c-6.1-4.6-5.4-11.6-4.6-18.4c0.7-6.5,1.5-13.2-4.3-17.1c-10.8-7.2-22.9,0.2-29.7,10.2l0,0l0,0c-6.7,10-9,24.1,1.8,31.3
		C318.4,325.4,324.3,322.2,330,319.1z"/>
	<path style="fill:#A076AB;" d="M166.2,177.1c-6,3.3-12.3,6.7-18.8,2.7c-0.2-0.1-0.5,0-0.6,0.2s-0.1,0.5,0.1,0.6
		c6.1,4.6,5.4,11.6,4.6,18.4c-0.7,6.5-1.5,13.2,4.3,17.1c10.8,7.2,22.9-0.2,29.7-10.2l0,0l0,0c6.7-10,9-24.1-1.8-31.3
		C177.8,170.8,171.9,174,166.2,177.1z"/>
</g>
<path style="fill:#FFFFFF;" d="M351.7,246.6c-5.9-0.3-8.4-5.1-11.1-10.3c-1-1.9-2.1-4-3.4-5.8c0.5-2.1,0.8-4.4,1-6.6
	c0.5-5.8,1-11.2,6.4-13.7c0.7-0.3,1-1.2,0.7-1.9s-1.1-1.1-1.8-0.8c-1.1,0.4-2.1,0.6-3.1,0.6c-4.1,0-7.6-3-11-5.9
	c-1.9-1.6-3.7-3.2-5.8-4.3c-0.3-2.3-1-4.7-1.7-7c-1.7-5.5-3.4-10.7,0.6-15.1c0.5-0.6,0.5-1.5-0.1-2c-0.5-0.5-1.5-0.6-2,0
	c-1.8,1.7-3.9,2.4-6.4,2.4c-2.8,0-5.8-0.9-8.7-1.9c-2.1-0.7-4.3-1.4-6.5-1.7c-1.1-1.9-2.6-3.7-4-5.4c-3.7-4.5-7.2-8.7-5.2-14.2
	c0.3-0.7-0.1-1.6-0.8-1.9c-0.7-0.3-1.6,0-1.9,0.7c-2.5,5.3-8,5.8-13.8,6.2c-2.4,0.2-4.8,0.4-7.1,1c-1.9-1.5-4.1-2.6-6.2-3.7
	c-5.1-2.7-10-5.2-10.3-11.1c0-0.8-0.7-1.4-1.5-1.4c-0.8,0-1.4,0.6-1.5,1.4c-0.3,5.9-5.1,8.4-10.3,11.1c-1.9,1-4,2.1-5.8,3.4
	c-2.1-0.5-4.4-0.8-6.6-1c-5.8-0.5-11.2-1-13.7-6.4c-0.3-0.7-1.2-1-1.9-0.7s-1.1,1.1-0.8,1.8c2,5.6-1.6,9.7-5.3,14.1
	c-1.5,1.8-3.1,3.7-4.3,5.8c-2.3,0.3-4.7,1-7,1.7c-2.9,0.9-5.9,1.9-8.7,1.9c-2.5,0-4.6-0.8-6.4-2.4c-0.6-0.5-1.5-0.5-2,0.1
	s-0.6,1.4,0,2c4,4.4,2.3,9.6,0.6,15.1c-0.7,2.1-1.3,4.3-1.7,6.5c-1.9,1.1-3.6,2.6-5.4,4c-3.4,2.8-6.9,5.8-11,5.8
	c-1.1,0-2.1-0.2-3.2-0.6c-0.7-0.3-1.6,0.1-1.9,0.8c-0.3,0.7,0,1.5,0.7,1.9c5.3,2.5,5.8,8,6.2,13.8c0.2,2.4,0.4,4.8,1,7.1
	c-1.5,1.9-2.6,4.1-3.7,6.2c-2.7,5.1-5.2,10-11.1,10.3c-0.8,0-1.4,0.7-1.4,1.5s0.6,1.4,1.4,1.5c5.9,0.3,8.4,5.1,11.1,10.3
	c1,1.9,2.1,4,3.4,5.8c-0.5,2.1-0.8,4.4-1,6.6c-0.5,5.8-1,11.2-6.4,13.7c-0.7,0.3-1,1.2-0.7,1.9c0.3,0.7,1.1,1.1,1.8,0.8
	c1.1-0.4,2.1-0.6,3.1-0.6c4.1,0,7.6,3,11,5.9c1.9,1.6,3.7,3.2,5.8,4.3c0.3,2.3,1,4.7,1.7,7c1.7,5.5,3.4,10.7-0.6,15.1
	c-0.5,0.6-0.5,1.5,0.1,2c0.3,0.3,0.6,0.4,1,0.4s0.7-0.1,1-0.4c1.8-1.7,3.9-2.4,6.4-2.4c2.8,0,5.8,0.9,8.7,1.9
	c2.1,0.7,4.3,1.4,6.5,1.7c1.1,1.9,2.6,3.7,4,5.4c3.7,4.5,7.2,8.7,5.2,14.2c-0.3,0.7,0.1,1.5,0.8,1.9c0.2,0.1,0.4,0.1,0.6,0.1
	c0.6,0,1.1-0.3,1.3-0.8c2.5-5.3,8-5.8,13.8-6.2c2.4-0.2,4.8-0.4,7.1-1c1.9,1.5,4.1,2.6,6.2,3.7c5.1,2.7,10,5.2,10.3,11.1
	c0,0.8,0.7,1.4,1.5,1.4s1.4-0.6,1.5-1.4c0.3-5.9,5.1-8.4,10.3-11.1c1.9-1,4-2.1,5.8-3.4c2.1,0.5,4.4,0.8,6.6,1
	c5.8,0.5,11.2,1,13.7,6.4c0.2,0.5,0.8,0.8,1.3,0.8c0.2,0,0.4,0,0.6-0.1c0.7-0.3,1.1-1.1,0.8-1.8c-2-5.6,1.6-9.7,5.3-14.1
	c1.5-1.8,3.1-3.7,4.3-5.8c2.3-0.3,4.7-1,7-1.7c2.9-0.9,5.9-1.9,8.7-1.9c2.6,0,4.6,0.8,6.4,2.4c0.6,0.5,1.5,0.5,2-0.1
	c0.5-0.5,0.6-1.4,0-2c-4-4.4-2.3-9.6-0.6-15.1c0.7-2.1,1.3-4.3,1.7-6.5c1.9-1.1,3.6-2.6,5.4-4c3.4-2.8,6.9-5.8,11-5.8
	c1.1,0,2.1,0.2,3.2,0.6c0.7,0.3,1.6-0.1,1.9-0.8c0.3-0.7,0-1.5-0.7-1.9c-5.3-2.5-5.8-8-6.2-13.8c-0.2-2.4-0.4-4.8-1-7.1
	c1.5-1.9,2.6-4.1,3.7-6.2c2.7-5.1,5.2-10,11.1-10.3c0.8,0,1.4-0.7,1.4-1.5C353.1,247.3,352.5,246.7,351.7,246.6z"/>
<g>
	<path style="fill:#93719E;" d="M259.3,156.6c-5.2-2.7-10.5-5.5-10.8-12c0-0.2-0.2-0.4-0.4-0.4c-0.2,0-0.4,0.2-0.4,0.4
		c-0.3,6.5-5.7,9.3-10.8,12c-4.9,2.6-10,5.2-10,11.1c0,11,11,16.1,21.3,16.1l0,0l0,0c10.2,0,21.3-5.1,21.3-16.1
		C269.4,161.8,264.3,159.1,259.3,156.6z"/>
	<path style="fill:#93719E;" d="M236.9,339.6c5.2,2.7,10.5,5.5,10.8,12c0,0.2,0.2,0.4,0.4,0.4c0.2,0,0.4-0.2,0.4-0.4
		c0.3-6.5,5.7-9.3,10.8-12c4.9-2.6,10-5.2,10-11.1c0-11-11-16.1-21.3-16.1l0,0l0,0c-10.2,0-21.3,5.1-21.3,16.1
		C226.8,334.4,231.9,337.1,236.9,339.6z"/>
	<path style="fill:#93719E;" d="M339.6,259.3c2.7-5.2,5.5-10.5,12-10.8c0.2,0,0.4-0.2,0.4-0.4c0-0.2-0.2-0.4-0.4-0.4
		c-6.5-0.3-9.3-5.7-12-10.8c-2.6-4.9-5.2-10-11.1-10c-11,0-16.1,11-16.1,21.3l0,0l0,0c0,10.2,5.1,21.3,16.1,21.3
		C334.4,269.4,337.1,264.3,339.6,259.3z"/>
	<path style="fill:#93719E;" d="M156.6,236.9c-2.7,5.2-5.5,10.5-12,10.8c-0.2,0-0.4,0.2-0.4,0.4c0,0.2,0.2,0.4,0.4,0.4
		c6.5,0.3,9.3,5.7,12,10.8c2.6,4.9,5.2,10,11.1,10c11,0,16.1-11,16.1-21.3l0,0l0,0c0-10.2-5.1-21.3-16.1-21.3
		C161.8,226.8,159.1,231.9,156.6,236.9z"/>
	<path style="fill:#93719E;" d="M320.8,191.3c-1.8-5.6-3.6-11.3,0.8-16.2c0.1-0.1,0.1-0.4,0-0.5s-0.4-0.1-0.5,0
		c-4.8,4.4-10.6,2.6-16.2,0.8c-5.3-1.7-10.8-3.4-15,0.8c-7.8,7.8-3.6,19.2,3.6,26.4l0,0l0,0c7.3,7.2,18.6,11.4,26.4,3.6
		C324.2,202.1,322.4,196.6,320.8,191.3z"/>
	<path style="fill:#93719E;" d="M175.4,304.9c1.8,5.6,3.6,11.3-0.8,16.2c-0.1,0.1-0.1,0.4,0,0.5s0.4,0.1,0.5,0
		c4.8-4.4,10.6-2.6,16.2-0.8c5.3,1.7,10.8,3.4,15-0.8c7.8-7.8,3.6-19.2-3.6-26.4l0,0l0,0c-7.3-7.2-18.6-11.4-26.4-3.6
		C172,294.1,173.8,299.6,175.4,304.9z"/>
	<path style="fill:#93719E;" d="M304.9,320.8c5.6-1.8,11.3-3.6,16.2,0.8c0.1,0.1,0.4,0.1,0.5,0s0.1-0.4,0-0.5
		c-4.4-4.8-2.6-10.6-0.8-16.2c1.7-5.3,3.4-10.8-0.8-15c-7.8-7.8-19.2-3.6-26.4,3.6l0,0l0,0c-7.2,7.3-11.4,18.6-3.6,26.4
		C294.1,324.2,299.6,322.4,304.9,320.8z"/>
	<path style="fill:#93719E;" d="M191.3,175.4c-5.6,1.8-11.3,3.6-16.2-0.8c-0.1-0.1-0.4-0.1-0.5,0s-0.1,0.4,0,0.5
		c4.4,4.8,2.6,10.6,0.8,16.2c-1.7,5.3-3.4,10.8,0.8,15c7.8,7.8,19.2,3.6,26.4-3.6l0,0l0,0c7.2-7.3,11.4-18.6,3.6-26.4
		C202.1,172,196.6,173.8,191.3,175.4z"/>
	<path style="fill:#93719E;" d="M293.9,168.1c-3.7-4.5-7.6-9.1-5.4-15.3c0.1-0.2,0-0.4-0.2-0.5s-0.4,0-0.5,0.2
		c-2.8,5.9-8.8,6.4-14.6,6.9c-5.5,0.5-11.3,0.9-13.6,6.4c-4.3,10.2,3.9,19.1,13.4,23.1l0,0l0,0c9.4,3.9,21.6,3.5,25.8-6.6
		C301.1,176.8,297.5,172.3,293.9,168.1z"/>
	<path style="fill:#93719E;" d="M202.3,328.1c3.7,4.5,7.6,9.1,5.4,15.3c-0.1,0.2,0,0.4,0.2,0.5s0.4,0,0.5-0.2
		c2.8-5.9,8.8-6.4,14.6-6.9c5.5-0.5,11.3-0.9,13.6-6.4c4.3-10.2-3.9-19.1-13.4-23.1l0,0l0,0c-9.4-3.9-21.6-3.5-25.8,6.6
		C195.1,319.4,198.7,323.9,202.3,328.1z"/>
	<path style="fill:#93719E;" d="M328.1,293.9c4.5-3.7,9.1-7.6,15.3-5.4c0.2,0.1,0.4,0,0.5-0.2s0-0.4-0.2-0.5
		c-5.9-2.8-6.4-8.8-6.9-14.6c-0.5-5.5-0.9-11.3-6.4-13.6c-10.2-4.3-19.1,3.9-23.1,13.4l0,0l0,0c-3.9,9.4-3.5,21.6,6.6,25.8
		C319.4,301.1,323.9,297.5,328.1,293.9z"/>
	<path style="fill:#93719E;" d="M168.1,202.3c-4.5,3.7-9.1,7.6-15.3,5.4c-0.2-0.1-0.4,0-0.5,0.2s0,0.4,0.2,0.5
		c5.9,2.8,6.4,8.8,6.9,14.6c0.5,5.5,0.9,11.3,6.4,13.5c10.2,4.3,19.1-3.9,23.1-13.4l0,0l0,0c3.9-9.4,3.5-21.6-6.6-25.8
		C176.8,195.1,172.3,198.7,168.1,202.3z"/>
	<path style="fill:#93719E;" d="M337.1,223.9c0.5-5.8,1.1-11.8,7-14.6c0.2-0.1,0.3-0.3,0.2-0.5c-0.1-0.2-0.3-0.3-0.5-0.2
		c-6.1,2.2-10.7-1.7-15.2-5.5c-4.2-3.6-8.6-7.3-14.1-5.1c-10.2,4.2-10.7,16.3-6.9,25.8l0,0l0,0c3.9,9.5,12.7,17.8,23,13.6
		C336,235.2,336.6,229.4,337.1,223.9z"/>
	<path style="fill:#93719E;" d="M159.1,272.3c-0.5,5.8-1.1,11.8-7,14.6c-0.2,0.1-0.3,0.3-0.2,0.5s0.3,0.3,0.5,0.2
		c6.1-2.2,10.7,1.7,15.2,5.5c4.2,3.6,8.6,7.3,14.1,5.1c10.2-4.2,10.7-16.3,6.9-25.8l0,0l0,0c-3.9-9.5-12.7-17.8-23-13.6
		C160.2,261,159.6,266.8,159.1,272.3z"/>
	<path style="fill:#93719E;" d="M272.3,337.1c5.8,0.5,11.8,1.1,14.6,7c0.1,0.2,0.3,0.3,0.5,0.2c0.2-0.1,0.3-0.3,0.2-0.5
		c-2.2-6.1,1.7-10.7,5.5-15.2c3.6-4.2,7.3-8.6,5.1-14.1c-4.2-10.2-16.3-10.7-25.8-6.9l0,0l0,0c-9.5,3.9-17.8,12.7-13.6,23
		C261,336,266.8,336.6,272.3,337.1z"/>
	<path style="fill:#93719E;" d="M223.9,159.1c-5.8-0.5-11.8-1.1-14.6-7c-0.1-0.2-0.3-0.3-0.5-0.2s-0.3,0.3-0.2,0.5
		c2.2,6.1-1.7,10.7-5.5,15.2c-3.6,4.2-7.3,8.6-5.1,14.1c4.2,10.2,16.3,10.7,25.8,6.9l0,0l0,0c9.5-3.9,17.8-12.7,13.6-23
		C235.2,160.2,229.4,159.6,223.9,159.1z"/>
</g>
<path style="fill:#FFFFFF;" d="M158.6,248.1c0-49.4,40.1-89.5,89.5-89.5s89.5,40.1,89.5,89.5s-40.1,89.5-89.5,89.5
	S158.6,297.5,158.6,248.1z"/>
<g>
	<path style="fill:#5E4F63;" d="M248.9,221.1c11.3,10.6,35.4,5.3,43.3-5.6l-9.2-11.1c0,0-0.3,0.4-1,1c-5.6,4.5-12.9,10.7-22,10.5
		c-11-0.3-15.1-8.7-19.3-17C241.3,208.8,243.3,215.8,248.9,221.1z"/>
	<polygon style="fill:#5E4F63;" points="260.4,192.9 271.2,202.7 261.1,212.9 250.9,203.4 	"/>
	<path style="fill:#5E4F63;" d="M301.7,267.9c-1.7,14.2-15.2,33.1-31.8,24.9c-8.1-4-12.2-15.4-9.2-27.9c1.4,18.1,25.5,14.3,31.5,3
		c4.9-9.3,3.1-36.5-12.5-27.9c-6.9,3.8-7.8,15.2-15.1,19.7c-3.8,2.3-7.9,2.6-15.1,2c4.3,9.7,6.9,24.8-1.6,33.8
		c-3.7,3.9-12.5,9.2-21,7.5c-19.8-3.8-31.1-18.1-32.8-41c0-2.3-0.3-10.3,0.7-10.8c2.5,17.7,9.1,35.1,27.2,36.4
		c3.5,0.2,8.2-0.1,11.8-1.3c6.9-2.4,14.3-15,6.9-22.3c-3.6-3.5-11.6-3-17-1l-5.6-17.7c10,1.8,24.4,1.2,23-9.2
		c-0.6-4.6-7.4-6.6-13.8-5.9c-6.9,0.8-10.8,6.1-15.7,8.2l-7.9-14.1c7.3-4.3,17.3-10,28.2-8.9c9.2,0.9,16.7,7.8,17.1,17
		c0.5,10.8-6.5,15.5-12.5,20.7c2.5,0.3,7.6,3.6,8.9,3.6c6,0,9.2-7.4,11.8-12.1c3.1-5.7,6.5-11,10.8-13.4c8.2-4.6,18.9-1.9,24.3,3.3
		C297.8,239.8,303.4,253.8,301.7,267.9z"/>
</g>
<g>
</g>
<g>
</g>
<g>
</g>
<g>
</g>
<g>
</g>
<g>
</g>
<g>
</g>
<g>
</g>
<g>
</g>
<g>
</g>
<g>
</g>
<g>
</g>
<g>
</g>
<g>
</g>
<g>
</g>
</svg>
