<?xml version="1.0" encoding="iso-8859-1"?>
<!-- Generator: Adobe Illustrator 19.0.0, SVG Export Plug-In . SVG Version: 6.00 Build 0)  -->
<svg version="1.1" id="Layer_1" xmlns="http://www.w3.org/2000/svg" xmlns:xlink="http://www.w3.org/1999/xlink" x="0px" y="0px"
	 viewBox="0 0 505.173 505.173" style="enable-background:new 0 0 505.173 505.173;" xml:space="preserve">
<path style="fill:#FFD0A1;" d="M217.6,243.2c17.92,2.56,17.92,25.6,17.92,25.6v153.6c0,17.067-8.533,34.133-25.6,51.2
	c-17.067,17.067-42.667,25.6-42.667,25.6H22.187l102.4-76.8c8.533-5.12,15.36-23.04,17.067-34.133l25.6-170.667
	c17.067-85.333,25.6-145.067,51.2-145.067c12.8,0,17.067,3.413,17.067,17.067c0,17.067-10.24,148.48-11.093,154.453L217.6,243.2z
	 M280.747,245.76L280.747,245.76c0-0.853-11.093-139.093-11.093-156.16c0-13.653,4.267-17.067,17.067-17.067
	c25.6,0,34.133,59.733,51.2,145.067l25.6,170.667c2.56,10.24,8.533,28.16,17.067,34.133l102.4,76.8H337.92
	c0,0-25.6-8.533-42.667-25.6c-17.067-17.067-25.6-34.133-25.6-51.2V268.8C269.653,268.8,269.653,251.733,280.747,245.76z"/>
<path style="fill:#51565F;" d="M337.92,503.467c-0.853,0-0.853,0-1.707,0c-0.853,0-26.453-9.387-44.373-26.453
	c-17.92-17.92-26.453-35.84-26.453-54.613V268.8c0-10.24,5.12-29.867,25.6-29.867s25.6,28.16,25.6,29.013l8.533,110.933
	c0,2.56-1.707,4.267-4.267,4.267s-4.267-1.707-4.267-4.267l-8.533-110.933l0,0c0,0-4.267-21.333-17.067-21.333
	c-17.067,0-17.067,20.48-17.067,21.333v153.6c0,16.213,8.533,32.427,24.747,47.787c16.213,16.213,40.96,24.747,40.96,24.747
	c2.56,0.853,3.413,3.413,2.56,5.12C341.333,502.613,339.627,503.467,337.92,503.467z M167.253,503.467
	c-1.707,0-3.413-0.853-4.267-2.56c-0.853-2.56,0.853-4.267,2.56-5.12c0,0,24.747-8.533,40.96-24.747
	c16.213-16.213,24.747-32.427,24.747-47.787v-153.6c0-0.853,0-21.333-17.067-21.333c-12.8,0-17.067,22.187-17.067,22.187
	l-8.533,110.933c0,2.56-2.56,4.267-4.267,4.267c-2.56,0-4.267-2.56-4.267-4.267l8.533-110.933c0-1.707,5.12-29.867,25.6-29.867
	s25.6,19.627,25.6,29.867v153.6c0,17.92-9.387,36.693-26.453,54.613c-17.92,17.92-43.52,26.453-44.373,26.453
	C168.107,503.467,168.107,503.467,167.253,503.467z M482.987,503.467c-0.853,0-1.707,0-2.56-0.853l-102.4-76.8
	c-10.24-6.827-16.213-26.453-18.773-36.693l-25.6-170.667c-1.707-9.387-3.413-17.92-5.12-26.453
	c-12.8-64-22.187-114.347-41.813-114.347c-11.093,0-12.8,1.707-12.8,12.8c0,17.067,8.533,126.293,8.533,128
	c0,2.56-1.707,4.267-4.267,4.267s-4.267-1.707-4.267-4.267c0-4.267-8.533-110.933-8.533-128c0-15.36,5.973-21.333,21.333-21.333
	c26.453,0,34.987,46.08,50.347,121.173c1.707,8.533,3.413,17.92,5.12,27.307l25.6,170.667c2.56,11.093,8.533,26.453,15.36,31.573
	l102.4,76.8c1.707,1.707,2.56,4.267,0.853,5.973C485.547,502.613,484.693,503.467,482.987,503.467z M22.187,503.467
	c-1.707,0-2.56-0.853-3.413-1.707c-1.707-1.707-0.853-4.267,0.853-5.973l102.4-76.8c6.827-4.267,13.653-20.48,15.36-31.573
	l25.6-170.667c1.707-9.387,3.413-18.773,5.12-27.307C182.613,113.493,192,68.266,218.453,68.266c15.36,0,21.333,5.973,21.333,21.333
	c0,17.067-8.533,123.733-8.533,128c0,2.56-2.56,4.267-4.267,4.267c-2.56,0-4.267-2.56-4.267-4.267c0-0.853,8.533-110.933,8.533-128
	c0-11.093-1.707-12.8-12.8-12.8c-19.627,0-29.013,50.347-41.813,114.347c-1.707,8.533-3.413,17.92-5.12,27.307l-25.6,170.667
	c-1.707,11.093-8.533,30.72-18.773,36.693l-102.4,76.8C23.893,503.467,23.04,503.467,22.187,503.467z M466.773,379.733
	c-0.853,0-1.707,0-2.56-0.853l-60.587-34.987c-1.707-0.853-2.56-3.413-1.707-5.973c0.853-1.707,3.413-2.56,5.973-1.707L468.48,371.2
	c1.707,0.853,2.56,3.413,1.707,5.973C470.187,378.88,468.48,379.733,466.773,379.733z M38.4,379.733c-1.707,0-2.56-0.853-3.413-2.56
	c-0.853-1.707-0.853-4.267,1.707-5.973l60.587-34.987c1.707-0.853,4.267-0.853,5.973,1.707c0.853,1.707,0.853,4.267-1.707,5.973
	L40.96,378.88C40.107,379.733,39.253,379.733,38.4,379.733z M500.053,256h-102.4c-2.56,0-4.267-1.707-4.267-4.267
	c0-2.56,1.707-4.267,4.267-4.267h102.4c2.56,0,4.267,1.707,4.267,4.267C504.32,254.293,502.613,256,500.053,256z M107.52,256
	L107.52,256H5.12c-2.56,0-4.267-1.707-4.267-4.267c0-2.56,1.707-4.267,4.267-4.267l0,0h102.4c2.56,0,4.267,1.707,4.267,4.267
	C111.787,254.293,110.08,256,107.52,256z M380.587,181.76c-1.707,0-2.56-0.853-3.413-2.56c-0.853-1.707-0.853-4.267,1.707-5.973
	l86.187-49.493c1.707-0.853,4.267-0.853,5.973,1.707c0.853,1.707,0.853,4.267-1.707,5.973l-86.187,49.493
	C382.293,181.76,381.44,181.76,380.587,181.76z M124.587,181.76c-0.853,0-1.707,0-1.707-0.853l-86.187-49.493
	c-1.707-0.853-2.56-3.413-1.707-5.973c0.853-1.707,3.413-2.56,5.973-1.707l86.187,49.493c1.707,0.853,2.56,3.413,1.707,5.973
	C127.147,181.76,126.293,181.76,124.587,181.76z M354.987,78.507c-0.853,0-1.707,0-2.56-0.853c-1.707-0.853-2.56-3.413-1.707-5.973
	l21.333-36.693c0.853-1.707,3.413-2.56,5.973-1.707c1.707,0.853,2.56,3.413,1.707,5.973L358.4,75.947
	C357.547,77.653,356.693,78.507,354.987,78.507z M150.187,78.507c-1.707,0-2.56-0.853-3.413-2.56L125.44,39.254
	c-0.853-1.707-0.853-4.267,1.707-5.973c1.707-0.853,4.267-0.853,5.973,1.707l21.333,36.693c0.853,1.707,0.853,4.267-1.707,5.973
	C151.893,78.507,151.04,78.507,150.187,78.507z M252.587,34.133c-2.56,0-4.267-1.707-4.267-4.267v-25.6
	c0-2.56,1.707-4.267,4.267-4.267s4.267,1.707,4.267,4.267v25.6C256.853,32.427,255.147,34.133,252.587,34.133z"/>
<g>
</g>
<g>
</g>
<g>
</g>
<g>
</g>
<g>
</g>
<g>
</g>
<g>
</g>
<g>
</g>
<g>
</g>
<g>
</g>
<g>
</g>
<g>
</g>
<g>
</g>
<g>
</g>
<g>
</g>
</svg>
