<?xml version="1.0" encoding="iso-8859-1"?>
<!-- Generator: Adobe Illustrator 19.0.0, SVG Export Plug-In . SVG Version: 6.00 Build 0)  -->
<svg version="1.1" id="Layer_1" xmlns="http://www.w3.org/2000/svg" xmlns:xlink="http://www.w3.org/1999/xlink" x="0px" y="0px"
	 viewBox="0 0 504.014 504.014" style="enable-background:new 0 0 504.014 504.014;" xml:space="preserve">
<g transform="translate(1 1)">
	<path style="fill:#FFE079;" d="M378.2,19.593c9.387,0,17.067,7.68,17.067,17.067s-7.68,17.067-17.067,17.067
		c-0.853,0-1.707,0-2.56,0c-7.68-1.707-14.507-8.533-14.507-17.067C361.133,27.273,368.813,19.593,378.2,19.593z M122.2,19.593
		c9.387,0,17.067,7.68,17.067,17.067c0,8.533-5.973,15.36-14.507,17.067c-0.853,0-1.707,0-2.56,0
		c-9.387,0-17.067-7.68-17.067-17.067S112.813,19.593,122.2,19.593z M250.2,2.527c9.387,0,17.067,7.68,17.067,17.067
		S259.587,36.66,250.2,36.66s-17.067-7.68-17.067-17.067S240.813,2.527,250.2,2.527z"/>
	<path style="fill:#FFD0A1;" d="M361.987,202.207l-0.853,5.12c0,34.133-17.067,102.4-25.6,119.467
		c-5.973,11.947-19.627,38.4-43.52,55.467c-11.947,7.68-25.6,12.8-41.813,12.8c-17.067,0-30.72-5.12-42.667-13.653
		c-23.893-16.213-37.547-43.52-42.667-54.613c-8.533-17.067-25.6-85.333-25.6-119.467l-17.067-8.533c0,0,102.4,0,170.667-42.667
		C304.813,180.02,340.653,195.38,361.987,202.207"/>
	<polygon style="fill:#ECF4F7;" points="135,97.247 250.2,62.26 366.253,96.393 366.253,96.393 361.133,121.993 361.133,121.993 
		139.267,121.993 134.147,97.247 	"/>
	<path style="fill:#FFE079;" d="M335.533,326.793c8.533-17.067,25.6-85.333,25.6-119.467l0.853-5.12
		c-21.333-7.68-57.173-23.04-69.12-46.08C224.6,198.793,122.2,198.793,122.2,198.793l17.067,8.533
		c0,34.133,17.067,102.4,25.6,119.467c5.973,11.093,19.627,38.4,42.667,54.613v0.853c-22.187,11.947-51.2,12.8-51.2,12.8
		c-37.547,0-68.267-22.187-68.267-59.733c0-6.827,2.56-18.773,8.533-25.6c-25.6-8.533-34.133-51.2-8.533-68.267
		c-8.533-17.067-8.533-17.067-8.533-42.667s25.6-68.267,59.733-76.8h221.867l0,0c34.133,8.533,59.733,51.2,59.733,76.8
		s0,25.6-8.533,42.667c25.6,17.067,17.067,59.733-8.533,68.267c8.533,8.533,8.533,18.773,8.533,25.6
		c0,37.547-30.72,59.733-68.267,59.733c0,0-29.867,0-51.2-11.947l-0.853-0.853C315.907,365.193,329.56,338.74,335.533,326.793"/>
	<path style="fill:#C49AE9;" d="M497.667,497.46H250.2c76.8,0,110.933-68.267,110.933-68.267
		C429.4,429.193,489.987,473.567,497.667,497.46z M250.2,497.46H2.733c8.533-25.6,51.2-68.267,136.533-68.267
		C139.267,429.193,173.4,497.46,250.2,497.46z"/>
	<path style="fill:#FFE079;" d="M327,429.193c5.12,0,8.533-3.413,8.533-8.533s-3.413-8.533-8.533-8.533s-8.533,3.413-8.533,8.533
		S321.88,429.193,327,429.193z M292.867,454.793c5.12,0,8.533-3.413,8.533-8.533s-3.413-8.533-8.533-8.533
		c-5.12,0-8.533,3.413-8.533,8.533S287.747,454.793,292.867,454.793z M250.2,471.86c5.12,0,8.533-3.413,8.533-8.533
		c0-5.12-3.413-8.533-8.533-8.533s-8.533,3.413-8.533,8.533C241.667,468.447,245.08,471.86,250.2,471.86z M207.533,454.793
		c5.12,0,8.533-3.413,8.533-8.533s-3.413-8.533-8.533-8.533c-5.12,0-8.533,3.413-8.533,8.533S202.413,454.793,207.533,454.793z
		 M173.4,429.193c5.12,0,8.533-3.413,8.533-8.533s-3.413-8.533-8.533-8.533s-8.533,3.413-8.533,8.533S168.28,429.193,173.4,429.193z
		"/>
</g>
<path style="fill:#51565F;" d="M498.667,502.727c-1.707,0-3.413-0.853-4.267-2.56c-7.68-22.187-65.707-64-129.707-64.853
	c-6.827,11.947-43.52,68.267-113.493,68.267s-106.667-56.32-113.493-68.267C58.347,436.167,16.533,474.567,8,501.02
	c-0.853,2.56-3.413,3.413-5.12,2.56c-2.56-0.853-3.413-3.413-2.56-5.12c9.387-29.013,54.613-70.827,140.8-70.827
	c1.707,0,3.413,0.853,3.413,2.56c0,0.853,34.133,65.707,107.52,65.707s106.667-64.853,107.52-65.707
	c0.853-1.707,2.56-2.56,3.413-2.56c66.56,0,131.413,42.667,140.8,70.827c0.853,2.56-0.853,4.267-2.56,5.12
	C499.52,502.727,499.52,502.727,498.667,502.727z M251.2,477.127c-6.827,0-12.8-5.973-12.8-12.8c0-6.827,5.973-12.8,12.8-12.8
	s12.8,5.973,12.8,12.8C264,471.153,258.027,477.127,251.2,477.127z M251.2,460.06c-2.56,0-4.267,1.707-4.267,4.267
	c0,2.56,1.707,4.267,4.267,4.267s4.267-1.707,4.267-4.267C255.467,461.767,253.76,460.06,251.2,460.06z M293.867,460.06
	c-6.827,0-12.8-5.973-12.8-12.8s5.973-12.8,12.8-12.8c6.827,0,12.8,5.973,12.8,12.8S300.693,460.06,293.867,460.06z
	 M293.867,442.993c-2.56,0-4.267,1.707-4.267,4.267s1.707,4.267,4.267,4.267c2.56,0,4.267-1.707,4.267-4.267
	S296.427,442.993,293.867,442.993z M208.533,460.06c-6.827,0-12.8-5.973-12.8-12.8s5.973-12.8,12.8-12.8
	c6.827,0,12.8,5.973,12.8,12.8S215.36,460.06,208.533,460.06z M208.533,442.993c-2.56,0-4.267,1.707-4.267,4.267
	s1.707,4.267,4.267,4.267c2.56,0,4.267-1.707,4.267-4.267S211.093,442.993,208.533,442.993z M328,434.46
	c-6.827,0-12.8-5.973-12.8-12.8s5.973-12.8,12.8-12.8s12.8,5.973,12.8,12.8S334.827,434.46,328,434.46z M328,417.393
	c-2.56,0-4.267,1.707-4.267,4.267c0,2.56,1.707,4.267,4.267,4.267s4.267-1.707,4.267-4.267
	C332.267,419.1,330.56,417.393,328,417.393z M174.4,434.46c-6.827,0-12.8-5.973-12.8-12.8s5.973-12.8,12.8-12.8
	s12.8,5.973,12.8,12.8S181.227,434.46,174.4,434.46z M174.4,417.393c-2.56,0-4.267,1.707-4.267,4.267
	c0,2.56,1.707,4.267,4.267,4.267s4.267-1.707,4.267-4.267C178.667,419.1,176.96,417.393,174.4,417.393z M345.067,400.327
	c-2.56,0-4.267-1.707-4.267-4.267c0-2.56,1.707-4.267,4.267-4.267c37.547,0,64-23.04,64-55.467c0-6.827,0-15.36-7.68-22.187
	c-0.853-0.853-1.707-2.56-0.853-4.267c0-1.707,1.707-2.56,2.56-3.413c11.093-3.413,18.773-14.507,20.48-28.16
	c1.707-13.653-3.413-25.6-12.8-32.427c-1.707-0.853-2.56-3.413-1.707-5.12c7.68-16.213,7.68-16.213,7.68-40.96
	c0-23.04-23.893-64-56.32-72.533H139.413c-31.573,8.533-56.32,49.493-56.32,72.533c0,24.747,0,24.747,7.68,40.96
	c0.853,1.707,0,4.267-1.707,5.12c-10.24,6.827-15.36,18.773-12.8,32.427c1.707,13.653,10.24,24.747,20.48,28.16
	c1.707,0.853,2.56,1.707,2.56,2.56s0,2.56-0.853,4.267c-5.973,6.827-7.68,17.067-7.68,23.04c0,38.4,32.427,55.467,64,55.467
	c2.56,0,4.267,1.707,4.267,4.267c0,2.56-1.707,4.267-4.267,4.267c-42.667,0-72.533-26.453-72.533-64
	c0-6.827,1.707-16.213,5.973-23.893c-11.093-5.973-19.627-18.773-21.333-33.28c-1.707-15.36,3.413-29.867,13.653-38.4
	c-6.827-14.507-7.68-17.067-7.68-40.96c0-24.747,23.04-68.267,58.88-80.213l-12.8-60.587c-11.093,0-20.48-9.387-20.48-21.333
	s9.387-21.333,21.333-21.333s21.333,9.387,21.333,21.333c0,9.387-5.973,17.067-13.653,19.627l12.8,61.44h215.04l12.8-61.44
	c-7.68-3.413-13.653-11.093-13.653-19.627c0-11.947,9.387-21.333,21.333-21.333s21.333,9.387,21.333,21.333
	s-9.387,21.333-20.48,21.333l-12.8,61.44c35.84,11.947,58.88,54.613,58.88,79.36s0,26.453-7.68,40.96
	c11.093,8.533,16.213,23.04,13.653,38.4c-1.707,14.507-10.24,26.453-20.48,32.427c5.973,8.533,5.973,17.92,5.973,23.893
	C417.6,373.873,387.733,400.327,345.067,400.327z M377.493,50.46c7.68,0.853,14.507-5.12,14.507-12.8c0-6.827-5.973-12.8-12.8-12.8
	s-12.8,5.973-12.8,12.8C366.4,43.634,370.667,48.753,377.493,50.46C376.64,50.46,377.493,50.46,377.493,50.46L377.493,50.46z
	 M123.2,24.86c-6.827,0-12.8,5.973-12.8,12.8c0,7.68,6.827,13.653,14.507,12.8l0,0c0,0,0,0,0.853,0
	c5.973-0.853,10.24-5.973,10.24-12.8C136,30.834,130.027,24.86,123.2,24.86z M251.2,400.327c-53.76,0-80.213-52.907-88.747-70.827
	C153.067,311.58,136,241.607,136,208.327c0-2.56,1.707-4.267,4.267-4.267s4.267,1.707,4.267,4.267
	c0,34.987,17.067,101.547,24.747,117.76c8.533,16.213,33.28,65.707,81.92,65.707c48.64,0,73.387-49.493,81.92-65.707
	c7.68-15.36,24.747-82.773,24.747-117.76c0-0.853,0-1.707,0.853-1.707c-20.48-7.68-52.907-21.333-65.707-43.52
	c-68.267,40.107-164.693,40.96-168.96,40.96c-2.56,0-4.267-1.707-4.267-4.267c0-2.56,1.707-4.267,4.267-4.267
	c0.853,0,102.4-0.853,168.107-41.813c0.853-0.853,2.56-0.853,3.413-0.853c0.853,0,1.707,0.853,2.56,2.56
	c16.213,32.427,81.92,48.64,82.773,48.64c2.56,0.853,3.413,2.56,3.413,5.12c0,2.56-2.56,3.413-5.12,3.413
	c-0.853,0-5.12-1.707-11.947-3.413c0,34.133-17.067,102.4-26.453,120.32C331.413,347.42,304.96,400.327,251.2,400.327z
	 M251.2,340.593c-18.773,0-28.16-9.387-29.013-9.387c-1.707-1.707-1.707-4.267,0-5.973c1.707-1.707,4.267-1.707,5.973,0l0,0
	c0,0,7.68,7.68,22.187,7.68c14.507,0,22.187-6.827,22.187-7.68c1.707-1.707,4.267-1.707,5.973,0c1.707,1.707,1.707,4.267,0,5.973
	C279.36,331.207,269.973,340.593,251.2,340.593z M370.667,306.46c-2.56,0-4.267-1.707-4.267-4.267v-8.533
	c0-2.56,1.707-4.267,4.267-4.267s4.267,1.707,4.267,4.267v8.533C374.933,304.753,373.227,306.46,370.667,306.46z M131.733,306.46
	c-2.56,0-4.267-1.707-4.267-4.267v-8.533c0-2.56,1.707-4.267,4.267-4.267c2.56,0,4.267,1.707,4.267,4.267v8.533
	C136,304.753,134.293,306.46,131.733,306.46z M293.867,255.26c-2.56,0-4.267-1.707-4.267-4.267v-11.947
	c-6.827,1.707-8.533,5.973-9.387,5.973c-0.853,1.707-3.413,2.56-5.973,1.707c-1.707-0.853-2.56-3.413-1.707-5.973
	c0-0.853,5.973-11.093,20.48-11.093c14.507,0,20.48,10.24,20.48,11.093c0.853,1.707,0,4.267-1.707,5.973
	c-1.707,0.853-4.267,0-5.973-1.707c0,0-2.56-4.267-9.387-5.973v11.947C298.133,253.553,296.427,255.26,293.867,255.26z
	 M208.533,255.26c-2.56,0-4.267-1.707-4.267-4.267v-11.947c-6.827,1.707-8.533,5.973-9.387,5.973
	c-0.853,1.707-3.413,2.56-5.973,1.707c-1.707-0.853-2.56-3.413-1.707-5.973c0-0.853,5.973-11.093,20.48-11.093
	s20.48,10.24,20.48,11.093c0.853,1.707,0,4.267-1.707,5.973c-1.707,0.853-4.267,0-5.973-1.707c0,0-2.56-4.267-9.387-5.973v11.947
	C212.8,253.553,211.093,255.26,208.533,255.26z M336.533,93.127h-0.853l-84.48-25.6l-84.48,25.6c-2.56,0.853-4.267-0.853-5.12-2.56
	c-0.853-2.56,0.853-4.267,2.56-5.12L246.08,60.7V41.927c-9.387-1.707-17.067-10.24-17.067-20.48
	c0-11.947,9.387-21.333,21.333-21.333S271.68,9.5,271.68,21.447c0,10.24-7.68,18.773-17.067,20.48V60.7l81.92,24.747
	c2.56,0.853,3.413,3.413,2.56,5.12C339.947,92.273,338.24,93.127,336.533,93.127z M251.2,7.793c-6.827,0-12.8,5.973-12.8,12.8
	s5.973,12.8,12.8,12.8s12.8-5.973,12.8-12.8S258.027,7.793,251.2,7.793z"/>
<g>
</g>
<g>
</g>
<g>
</g>
<g>
</g>
<g>
</g>
<g>
</g>
<g>
</g>
<g>
</g>
<g>
</g>
<g>
</g>
<g>
</g>
<g>
</g>
<g>
</g>
<g>
</g>
<g>
</g>
</svg>
