<svg id="Layer_1" enable-background="new 0 0 256 256" height="512" viewBox="0 0 256 256" width="512" xmlns="http://www.w3.org/2000/svg"><path d="m40.593 193.445 11.887-10.778c-14.897-21.486-20.801-48.572-14.996-74.753l1.045-4.711 6.224 2.023c.716.233 1.503.028 2.007-.522.517-.565.64-1.294.339-2.003l-8.25-19.414c-.153-.358-.395-.647-.721-.859-.142-.092-.291-.165-.444-.218-.533-.184-1.1-.121-1.597.178l-18.09 10.858c-.569.342-.901.913-.913 1.567-.013.674.3 1.268.856 1.629.133.087.279.158.468.223.002.001 4.93 1.602 4.93 1.602l-.963 3.949c-7.812 32.06-.586 65.304 18.218 91.229z" fill="#6bdddd"/><path d="m189.407 204.436c-22.935 17.455-53.011 24.133-81.503 16.764l-4.672-1.209 2.239-6.149c.258-.708.08-1.502-.452-2.024-.546-.536-1.271-.685-1.99-.409l-19.69 7.567c-.364.14-.66.372-.883.69-.097.138-.175.285-.233.437-.202.526-.159 1.095.123 1.602l10.22 18.458c.322.581.881.933 1.534.967.673.036 1.278-.256 1.658-.799.091-.13.167-.274.239-.46.001-.002 1.773-4.871 1.773-4.871l3.913 1.1c33.583 9.435 69.079 2.129 96.296-18.201z" fill="#a4c9ff"/><path d="m224.685 149.409-1.045 4.711-6.223-2.023c-.717-.233-1.504-.028-2.007.522-.517.565-.64 1.294-.339 2.003l8.25 19.414c.153.358.395.647.721.859.141.092.291.165.444.218.533.184 1.1.121 1.597-.178l18.09-10.858c.569-.342.901-.913.913-1.567.012-.674-.3-1.268-.856-1.629-.133-.087-.279-.158-.468-.223-.002-.001-4.93-1.602-4.93-1.602l.963-3.949c7.945-32.61.342-66.451-19.188-92.563-3.905 4.235-7.656 8.308-11.02 11.961 14.973 21.508 20.916 48.661 15.098 74.904z" fill="#f9a7a7"/><path d="m63.754 60.782c21.957-21.918 53.643-32.392 84.646-26.645l4.744.88-1.805 6.29c-.208.724.025 1.504.592 1.988.583.497 1.316.595 2.014.269l19.114-8.922c.353-.165.633-.417.833-.75.087-.145.155-.296.202-.452.165-.539.082-1.104-.234-1.59l-11.483-17.7c-.361-.557-.944-.869-1.598-.858-.674.011-1.257.344-1.598.912-.082.136-.148.285-.206.475-.001.002-1.429 4.983-1.429 4.983l-3.98-.824c-36.65-7.585-74.15 4.211-100.267 29.927z" fill="#4671c6"/><path d="m150.155 185.703h-44.3c-.644 0-1.166-.522-1.166-1.166 0-5.795 4.697-10.492 10.492-10.492h25.647c5.795 0 10.492 4.697 10.492 10.492 0 .644-.522 1.166-1.165 1.166z" fill="#ffea92"/><path d="m135.68 174.046v-24.207c-2.477.518-5.044.794-7.675.794s-5.197-.276-7.675-.794v24.207z" fill="#ffea92"/><path d="m150.154 187.704h-44.299c-1.746 0-3.166-1.42-3.166-3.166 0-6.888 5.604-12.492 12.492-12.492h25.646c6.889 0 12.492 5.604 12.492 12.492.001 1.745-1.419 3.166-3.165 3.166zm-43.424-4h42.549c-.42-4.293-4.05-7.658-8.451-7.658h-25.646c-4.402-.001-8.032 3.365-8.452 7.658z" fill="#3762cc"/><path d="m135.68 176.045h-15.35c-1.104 0-2-.896-2-2v-24.207c0-.602.271-1.172.739-1.552.468-.379 1.085-.526 1.67-.405 4.77.997 9.762.997 14.531 0 .589-.121 1.203.025 1.67.405.468.38.739.95.739 1.552v24.207c.001 1.105-.895 2-1.999 2zm-13.35-4h11.35v-19.823c-3.758.545-7.592.545-11.35 0z" fill="#3762cc"/><g fill="#ffea92"><path d="m128.005 150.633c-20.603 0-37.305-16.702-37.305-37.305v-39.354c0-2.088 1.692-3.78 3.78-3.78h67.05c2.088 0 3.78 1.692 3.78 3.78v39.354c0 20.603-16.702 37.305-37.305 37.305z"/><path d="m90.7 113.328v-33.78h-10.542c-3.078 0-5.574 2.389-5.574 5.337v7.128c0 .868.221 1.723.644 2.491l11.025 20c.923 1.674 2.701 2.738 4.663 2.828-.14-1.316-.216-2.651-.216-4.004zm-.007-6.493-8.445-15.32v-4.63h8.445z"/><path d="m175.842 79.548h-10.532v7.338h8.443v4.63l-8.443 15.315v6.497c0 1.353-.076 2.687-.217 4.003 1.958-.093 3.732-1.156 4.653-2.827l11.025-20c.423-.768.644-1.623.644-2.491v-7.128c.001-2.948-2.495-5.337-5.573-5.337z"/></g><path d="m128.005 152.633c-21.673 0-39.305-17.632-39.305-39.305v-39.353c0-3.187 2.593-5.78 5.78-5.78h67.049c3.188 0 5.78 2.593 5.78 5.78v39.354c.001 21.672-17.631 39.304-39.304 39.304zm-33.525-80.439c-.981 0-1.78.799-1.78 1.78v39.354c0 19.467 15.838 35.305 35.305 35.305s35.305-15.837 35.305-35.305v-39.353c0-.981-.799-1.78-1.78-1.78h-67.05z" fill="#3762cc"/><path d="m90.917 119.332c-.03 0-.062 0-.092-.002-2.655-.123-5.079-1.602-6.324-3.861l-11.024-20c-.584-1.062-.893-2.256-.893-3.457v-7.128c0-4.045 3.397-7.336 7.574-7.336h10.542c1.104 0 2 .896 2 2v33.78c0 1.24.069 2.515.205 3.791.063.58-.132 1.158-.532 1.583-.379.403-.906.63-1.456.63zm-10.759-37.784c-1.971 0-3.574 1.497-3.574 3.336v7.128c0 .527.137 1.055.396 1.527l11.024 19.999c.184.333.426.631.711.883-.011-.366-.016-.731-.016-1.093v-5.964l-8.204-14.883c-.162-.295-.248-.628-.248-.965v-4.63c0-1.104.896-2 2-2h6.453v-3.338zm4.09 9.453 4.444 8.063v-10.178h-4.444z" fill="#3762cc"/><path d="m165.093 119.331c-.55 0-1.076-.226-1.455-.628-.4-.425-.596-1.004-.533-1.584.136-1.275.205-2.551.205-3.791v-6.498c0-.338.086-.67.248-.965l8.194-14.864v-2.115h-6.442c-1.104 0-2-.896-2-2v-7.338c0-1.104.896-2 2-2h10.532c4.177 0 7.574 3.291 7.574 7.336v7.128c0 1.2-.309 2.395-.893 3.456l-11.024 20.001c-1.244 2.254-3.661 3.733-6.311 3.86-.032.001-.064.002-.095.002zm2.217-11.986v5.983c0 .359-.005.72-.016 1.083.281-.25.52-.544.702-.874l11.023-20c.26-.471.396-.999.396-1.526v-7.128c0-1.84-1.604-3.336-3.574-3.336h-8.532v3.338h6.442c1.104 0 2 .896 2 2v4.63c0 .338-.086.67-.248.965z" fill="#3762cc"/><circle cx="45.826" cy="45.826" fill="#4671c6" r="37.826"/><path d="m60.57 67.733h-29.49v-6.01c0-7.029 5.698-12.728 12.728-12.728h4.034c7.029 0 12.728 5.698 12.728 12.728z" fill="#a4c9ff"/><path d="m60.57 69.733h-29.489c-1.104 0-2-.896-2-2v-6.01c0-8.121 6.606-14.728 14.728-14.728h4.034c8.121 0 14.728 6.607 14.728 14.728v6.01c-.001 1.104-.896 2-2.001 2zm-27.489-4h25.489v-4.01c0-5.916-4.813-10.728-10.728-10.728h-4.034c-5.915 0-10.728 4.813-10.728 10.728v4.01z" fill="#3762cc"/><circle cx="45.826" cy="34.25" fill="#f9cfcf" r="14.745"/><path d="m45.825 50.995c-9.232 0-16.744-7.512-16.744-16.745s7.512-16.745 16.744-16.745c9.233 0 16.745 7.512 16.745 16.745s-7.511 16.745-16.745 16.745zm0-29.49c-7.027 0-12.744 5.717-12.744 12.745s5.717 12.745 12.744 12.745 12.745-5.718 12.745-12.745-5.717-12.745-12.745-12.745z" fill="#3762cc"/><path d="m45.825 85.651c-21.96 0-39.825-17.866-39.825-39.825 0-21.96 17.865-39.826 39.825-39.826s39.826 17.866 39.826 39.826c0 21.959-17.866 39.825-39.826 39.825zm0-75.651c-19.754 0-35.825 16.071-35.825 35.826 0 19.754 16.071 35.825 35.825 35.825 19.755 0 35.826-16.071 35.826-35.825 0-19.755-16.071-35.826-35.826-35.826z" fill="#3762cc"/><circle cx="210.174" cy="210.174" fill="#a4c9ff" r="37.826"/><path d="m224.919 232.082h-29.49v-6.01c0-7.029 5.698-12.728 12.728-12.728h4.034c7.029 0 12.728 5.699 12.728 12.728z" fill="#e0ebfc"/><path d="m224.919 234.082h-29.489c-1.104 0-2-.896-2-2v-6.01c0-8.121 6.606-14.728 14.728-14.728h4.034c8.121 0 14.728 6.607 14.728 14.728v6.01c-.001 1.104-.897 2-2.001 2zm-27.489-4h25.489v-4.01c0-5.916-4.813-10.728-10.728-10.728h-4.034c-5.915 0-10.728 4.813-10.728 10.728v4.01z" fill="#3762cc"/><circle cx="210.174" cy="198.599" fill="#f9cfcf" r="14.745"/><path d="m210.175 215.344c-9.233 0-16.745-7.512-16.745-16.745s7.512-16.745 16.745-16.745c9.232 0 16.744 7.512 16.744 16.745s-7.512 16.745-16.744 16.745zm0-29.49c-7.027 0-12.745 5.717-12.745 12.745s5.718 12.745 12.745 12.745 12.744-5.717 12.744-12.745-5.717-12.745-12.744-12.745z" fill="#3762cc"/><path d="m210.175 250c-21.96 0-39.826-17.866-39.826-39.826 0-21.959 17.866-39.825 39.826-39.825s39.825 17.866 39.825 39.825c0 21.96-17.865 39.826-39.825 39.826zm0-75.651c-19.755 0-35.826 16.071-35.826 35.825s16.071 35.826 35.826 35.826c19.754 0 35.825-16.071 35.825-35.826 0-19.754-16.071-35.825-35.825-35.825z" fill="#3762cc"/><circle cx="210.174" cy="45.826" fill="#f9a7a7" r="37.826"/><path d="m195.43 67.733h29.49v-6.01c0-7.029-5.699-12.728-12.728-12.728h-4.034c-7.029 0-12.728 5.698-12.728 12.728z" fill="#6bdddd"/><path d="m224.919 69.733h-29.489c-1.104 0-2-.896-2-2v-6.01c0-8.121 6.606-14.728 14.728-14.728h4.034c8.121 0 14.728 6.607 14.728 14.728v6.01c-.001 1.104-.897 2-2.001 2zm-27.489-4h25.489v-4.01c0-5.916-4.813-10.728-10.728-10.728h-4.034c-5.915 0-10.728 4.813-10.728 10.728v4.01z" fill="#3762cc"/><circle cx="210.174" cy="34.25" fill="#f9cfcf" r="14.745"/><path d="m210.175 50.995c-9.233 0-16.745-7.512-16.745-16.745s7.512-16.745 16.745-16.745c9.232 0 16.744 7.512 16.744 16.745s-7.512 16.745-16.744 16.745zm0-29.49c-7.027 0-12.745 5.717-12.745 12.745s5.718 12.745 12.745 12.745 12.744-5.717 12.744-12.745-5.717-12.745-12.744-12.745z" fill="#3762cc"/><path d="m210.175 85.651c-21.96 0-39.826-17.866-39.826-39.825 0-21.96 17.866-39.826 39.826-39.826s39.825 17.866 39.825 39.826c0 21.959-17.865 39.825-39.825 39.825zm0-75.651c-19.755 0-35.826 16.071-35.826 35.826 0 19.754 16.071 35.825 35.826 35.825 19.754 0 35.825-16.071 35.825-35.825 0-19.755-16.071-35.826-35.825-35.826z" fill="#3762cc"/><circle cx="45.826" cy="210.174" fill="#6bdddd" r="37.826"/><path d="m31.081 232.082h29.49v-6.01c0-7.029-5.699-12.728-12.728-12.728h-4.034c-7.029 0-12.728 5.699-12.728 12.728z" fill="#f9a7a7"/><path d="m60.57 234.082h-29.489c-1.104 0-2-.896-2-2v-6.01c0-8.121 6.606-14.728 14.728-14.728h4.034c8.121 0 14.728 6.607 14.728 14.728v6.01c-.001 1.104-.896 2-2.001 2zm-27.489-4h25.489v-4.01c0-5.916-4.813-10.728-10.728-10.728h-4.034c-5.915 0-10.728 4.813-10.728 10.728v4.01z" fill="#3762cc"/><circle cx="45.826" cy="198.599" fill="#f9cfcf" r="14.745"/><path d="m45.825 215.344c-9.232 0-16.744-7.512-16.744-16.745s7.512-16.745 16.744-16.745c9.233 0 16.745 7.512 16.745 16.745s-7.511 16.745-16.745 16.745zm0-29.49c-7.027 0-12.744 5.717-12.744 12.745s5.717 12.745 12.744 12.745 12.745-5.717 12.745-12.745-5.717-12.745-12.745-12.745z" fill="#3762cc"/><path d="m45.825 250c-21.96 0-39.825-17.866-39.825-39.826 0-21.959 17.865-39.825 39.825-39.825s39.826 17.866 39.826 39.825c0 21.96-17.866 39.826-39.826 39.826zm0-75.651c-19.754 0-35.825 16.071-35.825 35.825 0 19.755 16.071 35.826 35.825 35.826 19.755 0 35.826-16.071 35.826-35.826 0-19.754-16.071-35.825-35.826-35.825z" fill="#3762cc"/><path d="m138.697 129.472c-.977 0-1.957-.235-2.863-.711l-6.838-3.596c-.623-.327-1.367-.328-1.992 0l-6.838 3.595c-2.083 1.096-4.562.917-6.466-.467-1.905-1.384-2.841-3.685-2.443-6.005l1.306-7.615c.119-.694-.11-1.402-.615-1.894l-5.532-5.393c-1.686-1.643-2.28-4.055-1.553-6.294s2.627-3.84 4.957-4.179l7.644-1.111c.698-.102 1.3-.539 1.611-1.17l3.419-6.928c1.042-2.111 3.152-3.422 5.507-3.422s4.465 1.312 5.507 3.422l3.419 6.928c.312.632.913 1.069 1.61 1.171l7.646 1.111c2.329.338 4.229 1.939 4.956 4.179s.133 4.651-1.553 6.294l-5.532 5.393c-.505.492-.734 1.2-.616 1.894l1.307 7.615c.397 2.32-.538 4.621-2.443 6.005-1.078.781-2.337 1.178-3.605 1.178zm-10.697-8.553c.981 0 1.963.235 2.857.706l6.838 3.595c.737.387 1.58.326 2.254-.163.674-.49.992-1.272.851-2.093l-1.306-7.615c-.342-1.991.318-4.023 1.766-5.434l5.532-5.393c.597-.582.799-1.401.542-2.193-.258-.792-.903-1.337-1.728-1.457l-7.646-1.111c-2-.29-3.729-1.546-4.623-3.359l-3.419-6.927c-.368-.747-1.086-1.193-1.919-1.193s-1.551.446-1.919 1.193l-3.419 6.928c-.895 1.813-2.623 3.068-4.624 3.358l-7.644 1.111c-.825.12-1.471.665-1.729 1.457-.257.792-.055 1.612.542 2.193l5.532 5.393c1.447 1.411 2.107 3.443 1.765 5.435l-1.305 7.614c-.142.821.177 1.604.851 2.093s1.518.551 2.254.163l6.838-3.595c.896-.471 1.878-.706 2.859-.706z" fill="#3762cc"/></svg>