<?xml version="1.0" encoding="utf-8"?>
<!-- Generator: Adobe Illustrator 21.0.0, SVG Export Plug-In . SVG Version: 6.00 Build 0)  -->
<svg xmlns="http://www.w3.org/2000/svg" xmlns:xlink="http://www.w3.org/1999/xlink" version="1.1" id="Layer_1" x="0px" y="0px" viewBox="0 0 256 256" style="enable-background:new 0 0 256 256;" xml:space="preserve" width="512" height="512">
<style type="text/css">
	.st0{fill:#6D6C6B;}
	.st1{fill:#E9E9EA;}
	.st2{fill:#F9D0B4;}
	.st3{fill:#55ACD5;}
	.st4{fill:#231F20;}
	.st5{fill:#FFCD29;}
	.st6{fill:#EA4647;}
</style>
<g id="Layer_10">
	<path class="st0" d="M65.9,124.7c-2,0-4,0.6-5.8,1.6c-2-3.4-5.7-5.5-9.7-5.6h-5.8c-11.3,0-20.5,9.2-20.5,20.5v9.2   c1.8-1.5,4.2-2.1,6.4-1.7v-1c0-0.6,0.5-1.1,1.1-1c0.1,0,0.1,0,0.2,0c3.6,0.8,14.3,2,21.6-7.1c0.4-0.5,1-0.5,1.5-0.2   c0,0,0.1,0,0.1,0.1c1.7,1.6,6,4.9,14.3,5.1c0.6,0,1,0.5,1,1c0,0.1,0,0.2,0,0.3v2.7c2.6-0.4,5.2,0.4,7,2.2v-14.9   C77.2,129.8,72.1,124.7,65.9,124.7z"/>
	<path class="st1" d="M92.6,245.2l-2.3-40.7c-0.2-3.4-2.6-6.3-5.9-7.2L69,193.5l-9.3-4.6l-3.1,9c-0.2,0.5-0.7,0.9-1.2,0.9h-9.6   c-0.6,0-1.1-0.4-1.2-0.9l-3.1-9l-9.3,4.6l-15.4,3.9c-3.3,0.8-5.7,3.7-5.9,7.2l-2.3,40.7c-0.2,4.3,3.1,8,7.4,8.3c0.1,0,0.3,0,0.4,0   h68.4c4.3,0,7.8-3.5,7.8-7.8C92.7,245.5,92.7,245.4,92.6,245.2z"/>
	<path class="st2" d="M71.5,148.6c-0.4,0-0.9,0-1.3,0.1c0,0.4,0.1,0.9,0.1,1.3v13.7c0,0.4,0,0.9-0.1,1.3c4.5,0.7,8.8-2.3,9.5-6.9   c0.7-4.5-2.3-8.8-6.9-9.5C72.3,148.7,71.9,148.6,71.5,148.6L71.5,148.6z"/>
	<path class="st2" d="M30.5,150.1c0-0.5,0-0.9,0.1-1.3c-4.5-0.8-8.8,2.3-9.6,6.8c-0.8,4.5,2.3,8.8,6.8,9.6c0.9,0.2,1.9,0.2,2.8,0   c0-0.4,0-0.9,0-1.3L30.5,150.1z"/>
	<path class="st2" d="M70.2,145.8c0-0.6-0.5-1-1-1c-8.2-0.2-12.6-3.5-14.3-5.1c-0.4-0.4-1.1-0.4-1.5,0c0,0-0.1,0.1-0.1,0.1   c-7.3,9.1-18,7.8-21.6,7.1c-0.6-0.1-1.1,0.2-1.3,0.8c0,0.1,0,0.1,0,0.2v16c0,11,8.9,19.8,19.9,19.9l0,0c11,0,19.8-8.9,19.9-19.9   v-17.7C70.2,146,70.2,145.9,70.2,145.8z"/>
	<path class="st2" d="M50.3,183.6c-3.1,0-6.1-0.7-8.9-2.1v7.4l3.1,9c0.2,0.5,0.7,0.9,1.2,0.9h9.6c0.6,0,1.1-0.4,1.2-0.9l3.1-9v-7.6   C56.9,182.8,53.6,183.6,50.3,183.6z"/>
	<path class="st3" d="M220.8,39.4c-31.1-28.4-79.6-28.1-110.3,0.8c-28,26.2-33.9,68.4-14.2,101.3c0.9,1.5,0.9,3.2,0.2,4.8l-14,30.1   c-1.2,2.6-0.1,5.6,2.5,6.8c1.4,0.6,3,0.6,4.3,0l30.1-14c1.6-0.7,3.4-0.6,4.9,0.3c38.6,23.1,88.5,10.5,111.6-28.1   C255.8,108.1,249.5,65.5,220.8,39.4z"/>
	<path class="st4" d="M71.5,146.1c-0.6,0-1.2,0-1.7,0.1c-1.3,0.2-2.2,1.3-2.1,2.6c0,0.4,0,0.8,0,1.2v13.7c0,0.4,0,0.8,0,1.2   c-0.1,1.3,0.8,2.4,2.1,2.6c5.9,1,11.4-3,12.4-8.9c1-5.9-3-11.4-8.9-12.4C72.6,146.2,72,146.1,71.5,146.1L71.5,146.1z M72.7,162.6   v-11.3c3.1,0.7,5.1,3.8,4.4,6.9C76.6,160.4,74.9,162.1,72.7,162.6z"/>
	<path class="st4" d="M33,150.1c0-0.4,0-0.8,0-1.2c0.1-1.3-0.8-2.4-2.1-2.6c-5.9-1-11.5,3-12.4,8.9c-1,5.9,3,11.5,8.9,12.4   c1.2,0.2,2.4,0.2,3.6,0c1.3-0.2,2.2-1.3,2.1-2.6c0-0.4,0-0.8,0-1.2V150.1z M28,162.6c-3.1-0.7-5.1-3.8-4.4-6.9   c0.5-2.2,2.2-3.9,4.4-4.4V162.6z"/>
	<path class="st4" d="M72.7,145.7c0-1.9-1.6-3.4-3.5-3.5c-7.5-0.2-11.3-3.2-12.6-4.4c-1.4-1.4-3.7-1.4-5,0c-0.1,0.1-0.2,0.2-0.3,0.3   l0,0c-6.3,7.9-15.4,7-19.1,6.2c-1.9-0.4-3.8,0.8-4.2,2.7c-0.1,0.2-0.1,0.5-0.1,0.7v16c0,12.3,10,22.4,22.4,22.4s22.4-10,22.4-22.4   l0,0v-17.7L72.7,145.7z M55.3,141.2L55.3,141.2L55.3,141.2z M67.7,163.8c0,9.6-7.8,17.4-17.4,17.4S33,173.4,33,163.8v-14.3   c4.6,0.6,14.2,0.8,21.3-7.1c2.4,1.9,6.6,4.3,13.4,4.8L67.7,163.8z"/>
	<path class="st4" d="M65.9,122.2c-1.7,0-3.4,0.3-5,1c-2.6-3.1-6.5-4.9-10.5-4.9h-5.8c-12.7,0-23,10.3-23,23v9.2   c0,1.4,1.1,2.5,2.5,2.5c0.6,0,1.1-0.2,1.6-0.5c1.3-1,2.9-1.5,4.5-1.2c1.2,0.2,2.4-0.5,2.8-1.7c4.6,0.7,14.3,0.8,21.4-7.1   c2.4,1.9,6.6,4.3,13.4,4.8v1.6c0,1.4,1.1,2.5,2.5,2.5c0.1,0,0.3,0,0.4,0c0.3,0,0.6-0.1,0.9-0.1c1.5,0,2.9,0.6,4,1.6   c1,1,2.6,0.9,3.5-0.1c0.4-0.5,0.7-1.1,0.7-1.7v-14.9C79.7,128.4,73.5,122.2,65.9,122.2z M74.7,146.6c-0.7-0.2-1.3-0.4-2-0.4v-0.5   c0-1.9-1.6-3.4-3.5-3.5c-7.5-0.2-11.3-3.2-12.6-4.4c-1.4-1.4-3.7-1.4-5,0c-0.1,0.1-0.2,0.2-0.3,0.3c-6.3,7.9-15.4,7-19.1,6.2   c-1.6-0.3-3.2,0.4-3.9,1.9c-0.6,0-1.2,0.2-1.8,0.3v-5.2c0-9.9,8.1-18,18-18h5.8c3.1,0,6,1.7,7.6,4.3c0.7,1.2,2.2,1.6,3.4,0.9   c0,0,0,0,0,0c4.2-2.5,9.6-1.2,12.1,3c0.8,1.4,1.3,3,1.3,4.6L74.7,146.6z"/>
	<path class="st4" d="M53.1,209.2c0-0.2-0.1-0.3-0.1-0.5c-0.1-0.2-0.1-0.3-0.2-0.4c-0.1-0.1-0.2-0.3-0.3-0.4   c-0.2-0.2-0.5-0.4-0.8-0.5c-0.2-0.1-0.3-0.1-0.5-0.1c-0.8-0.2-1.7,0.1-2.2,0.7c-0.1,0.1-0.2,0.2-0.3,0.4c-0.1,0.1-0.2,0.3-0.2,0.4   c-0.1,0.1-0.1,0.3-0.2,0.5c-0.1,0.3-0.1,0.7,0,1c0,0.2,0.1,0.3,0.2,0.5c0.1,0.2,0.1,0.3,0.2,0.4c0.1,0.1,0.2,0.3,0.3,0.4   c0.5,0.5,1.1,0.7,1.8,0.7c0.2,0,0.3,0,0.5-0.1c0.2,0,0.3-0.1,0.5-0.1c0.2-0.1,0.3-0.1,0.4-0.2c0.1-0.1,0.3-0.2,0.4-0.3   c0.1-0.1,0.2-0.2,0.3-0.4c0.1-0.1,0.2-0.3,0.2-0.4c0.1-0.2,0.1-0.3,0.1-0.5c0-0.2,0.1-0.3,0-0.5C53.1,209.5,53.1,209.3,53.1,209.2z   "/>
	<path class="st4" d="M53.1,219.8c0-0.2-0.1-0.3-0.1-0.5c-0.1-0.2-0.1-0.3-0.2-0.4c-0.1-0.1-0.2-0.3-0.3-0.4   c-0.1-0.1-0.2-0.2-0.4-0.3c-0.1-0.1-0.3-0.2-0.4-0.2c-0.1-0.1-0.3-0.1-0.5-0.1c-0.8-0.2-1.7,0.1-2.2,0.7c-0.1,0.1-0.2,0.2-0.3,0.4   c-0.1,0.1-0.2,0.3-0.2,0.4c-0.1,0.1-0.1,0.3-0.2,0.5c-0.1,0.3-0.1,0.7,0,1c0,0.2,0.1,0.3,0.2,0.5c0.1,0.2,0.1,0.3,0.2,0.4   c0.1,0.1,0.2,0.3,0.3,0.4c0.5,0.5,1.1,0.7,1.8,0.7c0.2,0,0.3,0,0.5,0c0.2,0,0.3-0.1,0.5-0.1c0.2-0.1,0.3-0.1,0.4-0.2   c0.1-0.1,0.3-0.2,0.4-0.3c0.1-0.1,0.2-0.2,0.3-0.4c0.1-0.1,0.2-0.3,0.2-0.4c0.1-0.2,0.1-0.3,0.1-0.5c0-0.2,0.1-0.3,0-0.5   C53.1,220.1,53.1,219.9,53.1,219.8z"/>
	<path class="st4" d="M53.1,230.4c0-0.2-0.1-0.3-0.1-0.5c-0.1-0.2-0.1-0.3-0.2-0.4c-0.2-0.3-0.4-0.5-0.7-0.7   c-0.1-0.1-0.3-0.2-0.4-0.2c-0.2-0.1-0.3-0.1-0.5-0.1c-0.8-0.2-1.7,0.1-2.2,0.7c-0.1,0.1-0.2,0.2-0.3,0.4c-0.1,0.1-0.2,0.3-0.2,0.4   c-0.1,0.1-0.1,0.3-0.2,0.5c-0.1,0.3-0.1,0.7,0,1c0,0.2,0.1,0.3,0.2,0.5c0.1,0.2,0.1,0.3,0.2,0.4c0.1,0.1,0.2,0.3,0.3,0.4   c0.5,0.5,1.1,0.7,1.8,0.7c0.3,0,0.7-0.1,1-0.2c0.2-0.1,0.3-0.1,0.4-0.2c0.3-0.2,0.5-0.4,0.7-0.7c0.1-0.1,0.2-0.3,0.2-0.4   c0.1-0.2,0.1-0.3,0.1-0.5c0-0.2,0.1-0.3,0-0.5C53.1,230.7,53.1,230.6,53.1,230.4z"/>
	<path class="st4" d="M53.1,241c0-0.2-0.1-0.3-0.1-0.5c-0.1-0.2-0.1-0.3-0.2-0.4c-0.1-0.1-0.2-0.3-0.3-0.4c-0.1-0.1-0.2-0.2-0.4-0.3   c-0.1-0.1-0.3-0.2-0.4-0.2c-0.2-0.1-0.3-0.1-0.5-0.1c-0.8-0.2-1.7,0.1-2.2,0.7c-0.1,0.1-0.2,0.2-0.3,0.4c-0.1,0.1-0.2,0.3-0.2,0.4   c-0.1,0.1-0.1,0.3-0.2,0.5c0,0.2,0,0.3,0,0.5c0,1.4,1.1,2.5,2.5,2.5c0.2,0,0.3,0,0.5-0.1c0.2,0,0.3-0.1,0.5-0.1   c0.2-0.1,0.3-0.1,0.4-0.2c0.1-0.1,0.3-0.2,0.4-0.3c0.5-0.5,0.7-1.1,0.7-1.8C53.1,241.3,53.1,241.2,53.1,241z"/>
	<path class="st4" d="M73.8,217.8c-1.4,0-2.5,1.1-2.5,2.5v29.9c0,1.4,1.1,2.5,2.5,2.5s2.5-1.1,2.5-2.5v-29.9   C76.3,218.9,75.2,217.8,73.8,217.8z"/>
	<path class="st4" d="M26.8,217.8c-1.4,0-2.5,1.1-2.5,2.5v29.9c0,1.4,1.1,2.5,2.5,2.5s2.5-1.1,2.5-2.5v-29.9   C29.3,218.9,28.2,217.8,26.8,217.8z"/>
	<path class="st4" d="M61,179.1c-0.8-0.5-1.7-0.5-2.5,0c-2.5,1.4-5.4,2.1-8.2,2.1c-2.7,0-5.3-0.6-7.7-1.8c-1.2-0.6-2.7-0.1-3.4,1.1   c-0.2,0.3-0.3,0.7-0.3,1.1v7.4c0,0.3,0,0.6,0.1,0.8l3.1,9c0.5,1.5,2,2.6,3.6,2.6h9.6c1.6,0,3.1-1,3.6-2.6l3.1-9   c0.1-0.3,0.1-0.5,0.1-0.8v-7.6C62.3,180.4,61.8,179.5,61,179.1z M57.3,188.5l-2.7,7.8h-7.9l-2.7-7.8v-3.2c4.3,1.3,9,1.2,13.3-0.2   L57.3,188.5z"/>
	<path class="st4" d="M95.1,245.1L95.1,245.1l-2.3-40.7c-0.2-4.5-3.4-8.4-7.8-9.4l-15.2-3.8l-9-4.5c-1.2-0.6-2.7-0.1-3.3,1.1   c0,0.1-0.1,0.2-0.1,0.3l-2.8,8.2h-7.9l-2.8-8.2c-0.5-1.3-1.9-2-3.2-1.5c-0.1,0-0.2,0.1-0.3,0.1l-9,4.5l-15.2,3.8   c-4.4,1.1-7.6,4.9-7.8,9.4l-2.3,40.7c-0.3,5.7,4,10.6,9.7,10.9c0.2,0,0.4,0,0.6,0h68.4c5.7,0,10.3-4.6,10.3-10.3   C95.2,245.5,95.2,245.3,95.1,245.1L95.1,245.1z M88.7,249.3c-1,1.1-2.4,1.7-3.9,1.7H16.4c-2.9,0-5.3-2.4-5.3-5.3c0-0.1,0-0.2,0-0.3   l2.3-40.7c0.1-2.3,1.8-4.3,4-4.9l15.4-3.9c0.2,0,0.3-0.1,0.5-0.2l6.7-3.3l2.2,6.3c0.5,1.5,2,2.6,3.6,2.6h9.6c1.6,0,3.1-1,3.6-2.6   l2.2-6.3l6.7,3.3c0.2,0.1,0.3,0.1,0.5,0.2l15.4,3.9c2.3,0.6,3.9,2.5,4,4.9l2.3,40.7C90.2,246.8,89.7,248.3,88.7,249.3z"/>
	<path class="st4" d="M222.5,37.6c-32.1-29.2-82-28.9-113.7,0.8c-28.9,27-35,70.5-14.6,104.5c0.4,0.7,0.5,1.6,0.1,2.4l-14,30.1   c-1.8,3.8-0.1,8.4,3.7,10.2c1,0.5,2.1,0.7,3.2,0.7c1.1,0,2.2-0.3,3.3-0.7l30.1-14c0.8-0.4,1.8-0.3,2.6,0.2   c39.8,23.8,91.3,10.8,115-29C258.5,108.4,252,64.4,222.5,37.6z M221.8,155.4c-25.5,25.6-65.2,30.5-96.2,11.9   c-2.2-1.3-4.9-1.5-7.2-0.4l-30.1,14c-1.3,0.6-2.9,0-3.5-1.3c-0.3-0.7-0.3-1.5,0-2.2l14-30.1c1.1-2.3,0.9-4.9-0.3-7.1   C76.1,102.8,88.3,54.4,125.7,32c29.8-17.8,67.7-14,93.4,9.2c32.2,29.3,34.6,79.2,5.3,111.4C223.6,153.6,222.7,154.5,221.8,155.4   L221.8,155.4z"/>
	<path class="st4" d="M182.1,70.9h-34.7c-1.4,0-2.5,1.1-2.5,2.5s1.1,2.5,2.5,2.5h34.7c1.4,0,2.5-1.1,2.5-2.5S183.5,70.9,182.1,70.9   L182.1,70.9z"/>
	<path class="st4" d="M202.5,83.9H127c-1.4,0-2.5,1.1-2.5,2.5s1.1,2.5,2.5,2.5h75.5c1.4,0,2.5-1.1,2.5-2.5S203.8,83.9,202.5,83.9   L202.5,83.9z"/>
	<path class="st4" d="M202.5,96.9H127c-1.4,0-2.5,1.1-2.5,2.5s1.1,2.5,2.5,2.5h75.5c1.4,0,2.5-1.1,2.5-2.5S203.8,96.9,202.5,96.9   L202.5,96.9z"/>
	<path class="st4" d="M202.5,110H127c-1.4,0-2.5,1.1-2.5,2.5s1.1,2.5,2.5,2.5h75.5c1.4,0,2.5-1.1,2.5-2.5S203.8,110,202.5,110   L202.5,110z"/>
	<path class="st4" d="M202.5,123H127c-1.4,0-2.5,1.1-2.5,2.5s1.1,2.5,2.5,2.5h75.5c1.4,0,2.5-1.1,2.5-2.5S203.8,123,202.5,123   L202.5,123z"/>
	<path class="st4" d="M136.7,149.5l1.9-2.8c0.8-1.1,0.5-2.7-0.6-3.5s-2.7-0.5-3.5,0.6c0,0,0,0,0,0l-2,2.9c-1.6,2.2-1,5.3,1.2,6.9   c0.8,0.6,1.8,0.9,2.8,0.9c1.4,0,2.5-1.1,2.6-2.4C139.1,150.7,138,149.5,136.7,149.5L136.7,149.5z"/>
	<path class="st4" d="M125.2,149.5l1.9-2.8c0.8-1.1,0.5-2.7-0.6-3.5c-1.1-0.8-2.7-0.5-3.5,0.6c0,0,0,0,0,0l-2,2.9   c-1.6,2.2-1,5.3,1.2,6.9c0.8,0.6,1.8,0.9,2.8,0.9c1.4,0,2.5-1.1,2.6-2.4C127.7,150.7,126.6,149.5,125.2,149.5L125.2,149.5z"/>
	<path class="st4" d="M195.1,51.1c-0.8-1.6-2.5-2.7-4.4-2.6c-1.4,0-2.5,1.1-2.6,2.4c0,1.4,1.1,2.5,2.4,2.6l0,0l-1.9,2.8   c-0.8,1.1-0.5,2.7,0.6,3.5c1.1,0.8,2.7,0.5,3.5-0.6c0,0,0,0,0,0l2-2.9C195.8,54.7,195.9,52.7,195.1,51.1z"/>
	<path class="st4" d="M206.5,51.1c-0.8-1.6-2.5-2.7-4.4-2.6c-1.4,0-2.5,1.1-2.6,2.4c0,1.4,1.1,2.5,2.4,2.6l0,0l-1.9,2.8   c-0.8,1.1-0.5,2.7,0.6,3.5c1.1,0.8,2.7,0.5,3.5-0.6c0,0,0,0,0,0l2-2.9C207.3,54.7,207.4,52.7,206.5,51.1z"/>
	<path class="st5" d="M229.7,185.4h-1.8v-1.8c0-1.4-1.1-2.5-2.5-2.5s-2.5,1.1-2.5,2.5v1.8H221c-1.4,0-2.5,1.1-2.5,2.5   s1.1,2.5,2.5,2.5h1.8v1.8c0,1.4,1.1,2.5,2.5,2.5s2.5-1.1,2.5-2.5v-1.8h1.8c1.4,0,2.5-1.1,2.5-2.5S231.1,185.4,229.7,185.4z"/>
	<path class="st3" d="M78.2,58.6h-1.8v-1.8c0-1.4-1.1-2.5-2.5-2.5s-2.5,1.1-2.5,2.5v1.8h-1.8c-1.4,0-2.5,1.1-2.5,2.5   s1.1,2.5,2.5,2.5h1.8v1.8c0,1.4,1.1,2.5,2.5,2.5s2.5-1.1,2.5-2.5v-1.8h1.8c1.4,0,2.5-1.1,2.5-2.5S79.6,58.6,78.2,58.6L78.2,58.6z"/>
	<path class="st6" d="M240,164.7c-0.1-0.3-0.2-0.6-0.4-0.9c-0.1-0.1-0.2-0.3-0.3-0.4c-1-0.9-2.5-0.9-3.5,0c-0.1,0.1-0.2,0.2-0.3,0.4   c-0.1,0.1-0.2,0.3-0.2,0.4c-0.1,0.2-0.1,0.3-0.1,0.5c-0.1,0.3-0.1,0.7,0,1c0,0.2,0.1,0.3,0.1,0.5c0.1,0.1,0.1,0.3,0.2,0.4   c0.1,0.1,0.2,0.3,0.3,0.4c1,1,2.5,1,3.5,0c0,0,0,0,0,0c0.1-0.1,0.2-0.2,0.3-0.4c0.1-0.1,0.2-0.3,0.2-0.4c0.1-0.1,0.1-0.3,0.1-0.5   C240.1,165.4,240.1,165,240,164.7z"/>
	<path class="st6" d="M87,28.5c0-0.2-0.1-0.3-0.1-0.5c-0.1-0.1-0.1-0.3-0.2-0.4c-0.1-0.1-0.2-0.3-0.3-0.4c-1-0.9-2.5-0.9-3.5,0   c-0.1,0.1-0.2,0.2-0.3,0.4c-0.2,0.3-0.3,0.6-0.4,0.9c-0.1,0.3-0.1,0.7,0,1c0,0.2,0.1,0.3,0.1,0.5c0.1,0.2,0.1,0.3,0.2,0.4   c0.1,0.1,0.2,0.3,0.3,0.4c1,1,2.5,1,3.5,0c0,0,0,0,0,0c0.1-0.1,0.2-0.2,0.3-0.4c0.1-0.1,0.2-0.3,0.2-0.4c0.1-0.1,0.1-0.3,0.1-0.5   C87,29.2,87,28.8,87,28.5z"/>
	<path class="st5" d="M109.2,8.2c-4.1-0.8-7.2-4-8-8c0-0.1-0.1-0.2-0.2-0.2c-0.1,0-0.1,0.1-0.2,0.2c-0.8,4.1-4,7.2-8,8   c-0.1,0-0.2,0.1-0.2,0.2c0,0.1,0.1,0.1,0.2,0.2c4.1,0.8,7.2,4,8,8c0,0.1,0.1,0.2,0.2,0.2c0.1,0,0.1-0.1,0.2-0.2c0.8-4.1,4-7.2,8-8   c0.1,0,0.2-0.1,0.2-0.2C109.4,8.2,109.3,8.2,109.2,8.2z"/>
</g>
</svg>
