<svg height="511pt" viewBox="0 -14 511.99739 511" width="511pt" xmlns="http://www.w3.org/2000/svg"><path d="m501.996094 189.003906h-280.632813c2.957031 13.089844 7.695313 25.5 13.949219 36.96875h252.738281c6.253907-11.464844 10.992188-23.878906 13.945313-36.96875" fill="#a3dce9"/><path d="m339.613281 98.027344c-10.558593-6.144532-15.738281-17.46875-22.648437-27.257813-11.128906 17.660157-19.574219 34.742188-19.574219 52.976563 0 37.046875 26.292969 65.257812 63.332031 65.257812 37.039063 0 65.25-28.214844 65.25-65.257812 0-46.449219-48.554687-54.511719-47.976562-113.246094-19.578125 13.820312-43.753906 48.566406-38.382813 87.527344zm0 0" fill="#f48264"/><path d="m384.484375 166.199219c0 12.59375-10.207031 22.804687-22.804687 22.804687-12.59375 0-22.800782-10.210937-22.800782-22.804687 0-12.597657 22.800782-38.257813 22.800782-38.257813s22.804687 25.664063 22.804687 38.257813zm0 0" fill="#fed8b2"/><path d="m333.9375 252.171875c15.769531 1.535156 27.308594 15.566406 25.773438 31.335937-.527344 5.378907-2.5 10.261719-5.5 14.304688h26.511718l76.800782-33.347656c12.246093-10.949219 22.605468-23.960938 30.527343-38.492188h-252.738281c3.277344 6.011719 6.976562 11.769532 11.050781 17.222656zm0 0" fill="#f79f8f"/><path d="m237.273438 300.40625 65.09375 6.34375c7.824218 11.199219 22.449218 15.335938 34.976562 9.898438l128.78125-55.917969c17.679688-4.140625 34.960938 9.535156 34.097656 27.671875-.566406 11.96875-8.765625 21.992187-20.082031 25.078125l-123.582031 53.59375c-29.40625 12.75-62.046875 16.023437-93.394532 9.363281l-68.285156-17.578125-74.992187 56.007813-53.289063-76.722657s86.890625-95.898437 122.691406-99.40625c4.832032-.472656 7.757813-.597656 7.757813-.597656l136.890625 14.03125c15.769531 1.535156 27.308594 15.566406 25.773438 31.335937-1.539063 15.773438-15.566407 27.3125-31.335938 25.777344z" fill="#e2a98a"/><path d="m54.164062 331.660156 88.894532 100.691406c8.964844 10.152344 24.457031 11.113282 34.605468 2.152344l1.296876-1.144531c10.148437-8.960937 11.109374-24.449219 2.148437-34.601563l-88.894531-100.691406c-8.960938-10.148437-24.457032-11.113281-34.605469-2.148437l-1.292969 1.140625c-10.148437 8.960937-11.109375 24.453125-2.152344 34.601562zm0 0" fill="#f68f7b"/><path d="m16.121094 365.257812 88.894531 100.691407c8.960937 10.152343 24.457031 11.117187 34.605469 2.152343l1.292968-1.140624c10.148438-8.960938 11.109376-24.453126 2.148438-34.601563l-88.890625-100.691406c-8.964844-10.152344-24.457031-11.113281-34.605469-2.152344l-1.296875 1.140625c-10.148437 8.964844-11.109375 24.453125-2.148437 34.601562zm0 0" fill="#81caa1"/><path d="m496.832031 230.761719c6.78125-12.4375 11.800781-25.742188 14.917969-39.554688.671875-2.960937-.042969-6.070312-1.941406-8.445312-1.898438-2.375-4.773438-3.757813-7.8125-3.757813h-89.410156c.582031-.542968 1.15625-1.097656 1.722656-1.664062 13.972656-13.972656 21.664062-33.007813 21.664062-53.59375 0-25.304688-12.289062-40.644532-24.171875-55.480469-12.382812-15.457031-24.078125-30.054687-23.804687-57.667969.035156-3.753906-2.03125-7.210937-5.355469-8.953125-3.324219-1.746093-7.347656-1.480469-10.410156.683594-16.1875 11.429687-37.214844 37.429687-42.265625 69.964844-1.527344-2.394531-3.113282-4.859375-4.828125-7.289063-1.925781-2.730468-5.082031-4.332031-8.429688-4.230468-3.339843.085937-6.417969 1.835937-8.199219 4.664062-10.441406 16.566406-21.117187 36.449219-21.117187 58.308594 0 20.636718 7.300781 39.617187 20.558594 53.441406.589843.621094 1.195312 1.226562 1.808593 1.820312h-88.394531c-3.039062 0-5.910156 1.378907-7.808593 3.753907-1.898438 2.375-2.613282 5.484375-1.945313 8.445312 3.121094 13.8125 8.140625 27.117188 14.921875 39.554688.003906.003906.003906.007812.007812.011719.234376.425781.46875.839843.703126 1.242187-20.578126-1.902344-36.117188-3.277344-37.964844-3.277344h-.011719c-13.746094.03125-33.785156 11.472657-61.261719 34.96875-12.070312 10.324219-22.714844 20.539063-29.105468 26.855469-6.027344-6.375-14.117188-10.171875-22.917969-10.71875-9.199219-.578125-18.078125 2.476562-24.988281 8.578125l-1.296876 1.144531c-7.171874 6.335938-11.082031 15.011719-11.59375 23.890625-.054687-.003906-.113281-.007812-.167968-.011719-9.199219-.570312-18.078125 2.472657-24.988282 8.578126l-1.292968 1.140624c-14.261719 12.597657-15.621094 34.453126-3.027344 48.714844l88.894531 100.691406c6.101563 6.914063 14.53125 11.035157 23.734375 11.605469.730469.046875 1.460938.070313 2.1875.070313 8.414063 0 16.4375-3.027344 22.800782-8.644532l1.292968-1.144531c7.175782-6.335937 11.082032-15.015625 11.59375-23.890625.058594.003906.113282.007813.171875.011719.730469.046875 1.460938.070313 2.1875.070313 8.414063 0 16.4375-3.03125 22.800781-8.648438l1.292969-1.140625c14.265625-12.597656 15.621094-34.449219 3.027344-48.714844l-8.574219-9.710937 16.992188-12.691406 63.644531 16.382812c.140625.035156.277344.066406.414063.097656 11.386718 2.417969 22.863281 3.621094 34.289062 3.621094 22.273438 0 44.351562-4.566406 65.164062-13.59375l122.976563-53.328125c15.25-4.492187 25.941406-18.078125 26.703125-34.042969.546875-11.59375-4.3125-22.550781-13.335938-30.058594-4.070312-3.386718-8.671874-5.835937-13.542968-7.285156 4.929687-6.363281 9.371094-13.214844 13.488281-20.757812-.003906-.007813 0-.011719.003906-.015625zm-134.347656-51.78125c-.367187.011719-.734375.019531-1.105469.019531-6.917968-.160156-12.5-5.839844-12.5-12.800781 0-3.464844 5.523438-12.925781 12.804688-22.503907 7.28125 9.566407 12.800781 19.023438 12.800781 22.503907 0 6.792969-5.3125 12.363281-12 12.78125zm-55.09375-55.234375c0-11.742188 4.273437-23.160156 10.0625-34.0625 4.339844 6.304687 9.566406 12.585937 17.128906 16.988281 3.304688 1.921875 7.417969 1.792969 10.597657-.335937 3.175781-2.132813 4.859374-5.886719 4.339843-9.675782-3.597656-26.0625 7.839844-49.648437 20.445313-64.84375 4.492187 21.824219 15.890625 36.054688 26.226562 48.953125 11.050782 13.796875 19.78125 24.695313 19.78125 42.976563 0 18.601562-8.28125 34.5-21.546875 44.402344.039063-.644532.058594-1.292969.058594-1.949219 0-15.214844-19.386719-38.210938-25.328125-44.898438-1.898438-2.136719-4.617188-3.355469-7.476562-3.355469-2.855469 0-5.578126 1.21875-7.476563 3.355469-5.9375 6.6875-25.328125 29.683594-25.328125 44.898438 0 .96875.042969 1.925781.125 2.875-13.371094-9.738281-21.609375-25.921875-21.609375-45.328125zm181.480469 75.261718c-1.910156 5.800782-4.214844 11.46875-6.902344 16.960938h-240.574219c-2.6875-5.492188-4.996093-11.160156-6.902343-16.960938zm-37.011719 57c-.011719.007813-.019531.015626-.027344.023438l-83.78125 36.378906c.804688-2.550781 1.34375-5.207031 1.609375-7.929687 2.070313-21.234375-13.519531-40.195313-34.765625-42.261719-13.398437-1.289062-39.207031-3.765625-65.429687-6.246094h200.527344c-5.296876 7.320313-11.242188 13.875-18.132813 20.035156zm-317.5625 203.453126-1.296875 1.144531c-2.90625 2.566406-6.640625 3.84375-10.507812 3.605469-3.871094-.238282-7.414063-1.972657-9.980469-4.878907l-88.894531-100.691406c-5.296876-6-4.726563-15.1875 1.273437-20.484375l1.292969-1.144531c2.675781-2.363281 6.050781-3.636719 9.585937-3.636719.308594 0 .613281.007812.921875.027344 3.863282.242187 7.40625 1.96875 9.96875 4.867187.003906.003907.003906.003907.007813.007813l88.894531 100.691406c0 .003906.003906.003906.007812.007812 5.292969 6.003907 4.722657 15.191407-1.273437 20.484376zm38.042969-33.597657-1.292969 1.144531c-2.90625 2.566407-6.636719 3.851563-10.507813 3.605469-3.867187-.238281-7.410156-1.96875-9.972656-4.871093 0 0-.003906-.003907-.003906-.003907l-88.894531-100.6875c-.003907-.003906-.007813-.011719-.011719-.015625-5.292969-5.996094-4.71875-15.183594 1.277344-20.476562l1.292968-1.144532c2.90625-2.566406 6.648438-3.847656 10.511719-3.605468 3.867188.238281 7.414063 1.972656 9.980469 4.878906l88.894531 100.691406c5.296875 5.996094 4.726563 15.1875-1.273437 20.484375zm317.894531-137.933593c-.355469 7.535156-5.46875 13.921874-12.722656 15.902343-.457031.125-.910157.28125-1.347657.472657l-123.585937 53.59375c-27.589844 11.964843-57.714844 15.003906-87.132813 8.800781l-68.074218-17.523438c-2.933594-.753906-6.050782-.140625-8.476563 1.671875l-22.140625 16.535156-54.578125-61.816406c6.074219-6.023437 16.871094-16.445312 28.9375-26.757812 32.277344-27.585938 44.875-30.015625 48.101563-30.070313 5.980468.253907 89.09375 8.128907 143.753906 13.386719 10.257812 1 17.789062 10.15625 16.789062 20.414062-.484374 4.96875-2.875 9.453126-6.730468 12.625-3.855469 3.171876-8.714844 4.648438-13.679688 4.167969l-91.101562-8.878906c-5.492188-.523437-10.386719 3.488281-10.921875 8.984375-.539063 5.496094 3.484375 10.386719 8.980469 10.921875l60.914062 5.9375c10.992188 12.121094 28.796875 16.171875 44.109375 9.523437l127.867187-55.519531c5.304688-1.007812 10.695313.394531 14.894532 3.890625 4.15625 3.460938 6.394531 8.464844 6.144531 13.738282zm0 0"/><path d="m201.957031 307.550781c-.660156 0-1.308593-.058593-1.960937-.1875-.640625-.132812-1.269532-.320312-1.867188-.570312-.601562-.25-1.183594-.5625-1.730468-.921875-.542969-.367188-1.0625-.789063-1.519532-1.25-.460937-.457032-.882812-.96875-1.242187-1.519532-.359375-.539062-.667969-1.121093-.917969-1.71875-.25-.609374-.441406-1.242187-.570312-1.871093-.132813-.648438-.191407-1.308594-.191407-1.960938 0-.648437.058594-1.308593.191407-1.949219.128906-.640624.320312-1.269531.570312-1.871093.25-.609375.558594-1.1875.917969-1.730469.371093-.546875.78125-1.058594 1.242187-1.519531.457032-.457031.976563-.878907 1.519532-1.238281.546874-.359376 1.128906-.671876 1.730468-.921876.597656-.25 1.226563-.4375 1.867188-.570312 1.292968-.257812 2.621094-.257812 3.910156 0 .640625.132812 1.269531.320312 1.871094.570312.601562.25 1.179687.5625 1.730468.921876.539063.359374 1.058594.78125 1.519532 1.238281.460937.460937.878906.972656 1.238281 1.519531.363281.542969.671875 1.121094.921875 1.730469.25.601562.441406 1.230469.570312 1.871093.128907.640626.191407 1.300782.191407 1.949219 0 .652344-.0625 1.3125-.191407 1.960938-.128906.628906-.320312 1.261719-.570312 1.871093-.25.597657-.558594 1.179688-.921875 1.71875-.359375.550782-.777344 1.0625-1.238281 1.519532-.460938.460937-.980469.882812-1.519532 1.25-.550781.359375-1.128906.671875-1.730468.921875-.601563.25-1.230469.4375-1.871094.570312-.648438.128907-1.300781.1875-1.949219.1875zm0 0"/></svg>