<svg height="512pt" viewBox="-17 0 512 512.00053" width="512pt" xmlns="http://www.w3.org/2000/svg"><path d="m318.410156 418.871094c0-12.503906-35.683594-22.636719-79.695312-22.636719-44.015625 0-79.699219 10.132813-79.699219 22.636719 0 12.5 35.683594 22.632812 79.699219 22.632812 44.011718 0 79.695312-10.132812 79.695312-22.632812zm0 0" fill="#ffd876"/><path d="m261.15625 421.316406c11.683594-7.144531 18.199219-19.996094 18.199219-35.199218 0-29.359376-30.695313-34.453126-30.328125-71.582032-12.378906 8.734375-27.664063 30.699219-24.265625 55.324219-6.675781-3.882813-9.949219-11.039063-14.316407-17.226563-7.039062 11.160157-12.378906 21.960938-12.378906 33.484376 0 15.425781 6.214844 28.429687 17.832032 35.507812" fill="#f48264"/><path d="m300.21875 433.265625c-8.339844 2.871094-17.515625 2.261719-25.3125-1.859375-.054688-.027344-.105469-.054688-.160156-.082031-16.582032-8.789063-28.625-23.539063-36.03125-34.578125-7.410156 11.039062-19.453125 25.789062-36.035156 34.578125-.054688.027343-.105469.054687-.160157.082031-7.796875 4.121094-16.972656 4.730469-25.3125 1.859375-11.363281-3.914063-18.191406-8.929687-18.191406-14.394531v37.007812c0 25.472656 20.648437 46.121094 46.121094 46.121094h67.152343c25.472657 0 46.121094-20.648438 46.121094-46.121094v-37.007812c0 5.464844-6.828125 10.480468-18.191406 14.394531zm0 0" fill="#81caa1"/><path d="m328.410156 418.871094c0-12.671875-13.535156-22.210938-39.253906-27.777344.132812-1.632812.199219-3.292969.199219-4.976562 0-17.285157-8.546875-27.953126-16.085938-37.367188-7.730469-9.644531-14.402343-17.976562-14.242187-34.113281.035156-3.753907-2.03125-7.210938-5.355469-8.957031-3.324219-1.742188-7.347656-1.476563-10.410156.6875-9.421875 6.648437-21.296875 20.691406-26.429688 38.570312-1.84375-1.527344-4.222656-2.367188-6.648437-2.300781-3.339844.085937-6.417969 1.835937-8.199219 4.664062-6.878906 10.917969-13.914063 24.0625-13.914063 38.816407 0 1.6875.0625 3.347656.1875 4.976562-25.71875 5.5625-39.242187 15.09375-39.242187 27.777344v37.007812c0 30.945313 25.175781 56.121094 56.121094 56.121094h67.152343c30.945313 0 56.121094-25.175781 56.121094-56.121094zm-21.097656-.011719c-1.644531 1.226563-4.832031 3.050781-10.347656 4.949219-5.785156 1.992187-12.125 1.539062-17.390625-1.246094l-.144531-.074219c-.851563-.449219-1.699219-.925781-2.542969-1.425781 2.820312-3.179688 5.199219-6.742188 7.09375-10.621094 13.652343 2.859375 20.5625 6.347656 23.332031 8.417969zm-95.847656-47.292969c2.246094 2.574219 4.910156 4.984375 8.265625 6.9375 3.308593 1.925782 7.421875 1.792969 10.597656-.335937 3.179687-2.128907 4.863281-5.882813 4.339844-9.671875-1.691407-12.277344 2.304687-23.625 7.777343-32.238282 3.734376 10.667969 9.886719 18.347657 15.214844 25 6.792969 8.472657 11.699219 14.597657 11.699219 24.859376 0 9.234374-2.867187 17-8.1875 22.492187-4.972656-4.992187-9.730469-10.84375-14.15625-17.433594-1.855469-2.769531-4.96875-4.429687-8.300781-4.429687-3.335938 0-6.449219 1.660156-8.304688 4.429687-4.515625 6.726563-9.375 12.675781-14.457031 17.734375-5.125-5.453125-7.886719-13.320312-7.886719-22.792968 0-4.890626 1.34375-9.765626 3.398438-14.550782zm-11.28125 49.703125c-.722656.421875-1.445313.828125-2.171875 1.210938l-.160157.085937c-5.265624 2.78125-11.605468 3.234375-17.390624 1.242188-5.515626-1.898438-8.703126-3.722656-10.347657-4.949219 2.757813-2.066406 9.609375-5.519531 23.101563-8.371094 1.855468 3.953125 4.191406 7.570313 6.96875 10.78125zm108.226562 34.609375c0 19.917969-16.203125 36.121094-36.121094 36.121094h-67.152343c-19.917969 0-36.121094-16.203125-36.121094-36.121094v-15.027344c1.554687.648438 3.203125 1.269532 4.9375 1.871094 10.988281 3.78125 23.105469 2.882813 33.234375-2.472656l.175781-.089844c11.300781-5.988281 21.808594-14.910156 31.351563-26.601562 9.542968 11.691406 20.054687 20.617187 31.363281 26.609375l.15625.082031c10.136719 5.355469 22.25 6.253906 33.238281 2.472656 1.734375-.601562 3.382813-1.222656 4.9375-1.871094zm0 0"/><path d="m299.011719 207.105469-1.828125-49.71875c7.648437-7.035157 9.28125-18.480469 3.910156-27.375l-55.230469-91.414063c-4.914062-12.90625 3.636719-27.324218 17.398438-28.515625 9.078125-.789062 17.46875 4.375 20.941406 12.59375l52.949219 87.730469c12.597656 20.875 18.378906 45.152344 16.542968 69.460938l-5.210937 68.980468 40.046875 56.1875-32.183594 32.175782s-91.566406-45.320313-97.847656-71.953126c-.84375-3.59375-1.234375-5.789062-1.234375-5.789062l-4.429687-120.339844c-.441407-12.046875 8.964843-22.167968 21.007812-22.613281 12.042969-.441406 22.164062 8.960937 22.609375 21.007813z" fill="#e2a98a"/><path d="m360.492188 379.421875 70.660156-81.617187c7.46875-8.628907 6.53125-21.679688-2.097656-29.148438-8.628907-7.472656-21.675782-6.53125-29.148438 2.097656l-70.660156 81.617188c-7.46875 8.628906-6.53125 21.675781 2.097656 29.148437 8.625 7.46875 21.675781 6.53125 29.148438-2.097656zm0 0" fill="#f79f8f"/><path d="m391.738281 406.472656 70.660157-81.617187c7.46875-8.628907 6.53125-21.679688-2.097657-29.148438-8.628906-7.46875-21.675781-6.53125-29.148437 2.097657l-70.660156 81.617187c-7.46875 8.628906-6.53125 21.679687 2.097656 29.148437 8.625 7.46875 21.675781 6.53125 29.148437-2.097656zm0 0" fill="#81caa1"/><path d="m178.414062 207.105469 1.828126-49.71875c-7.648438-7.035157-9.28125-18.480469-3.910157-27.375l55.230469-91.414063c4.914062-12.90625-3.636719-27.324218-17.398438-28.515625-9.078124-.789062-17.46875 4.375-20.941406 12.59375l-52.949218 87.730469c-12.597657 20.875-18.378907 45.152344-16.542969 69.460938l5.214843 68.980468-40.046874 56.1875 32.179687 32.175782s91.566406-45.320313 97.847656-71.953126c.847657-3.59375 1.234375-5.789062 1.234375-5.789062l4.429688-120.339844c.441406-12.046875-8.960938-22.167968-21.003906-22.613281-12.046876-.441406-22.167969 8.960937-22.613282 21.007813z" fill="#e2a98a"/><path d="m116.933594 379.421875-70.660156-81.617187c-7.472657-8.628907-6.53125-21.679688 2.097656-29.148438 8.625-7.472656 21.675781-6.53125 29.144531 2.097656l70.664063 81.617188c7.46875 8.628906 6.53125 21.675781-2.097657 29.148437-8.628906 7.46875-21.675781 6.53125-29.148437-2.097656zm0 0" fill="#f79f8f"/><path d="m85.691406 406.472656-70.664062-81.617187c-7.46875-8.628907-6.53125-21.679688 2.097656-29.148438s21.675781-6.53125 29.148438 2.097657l70.660156 81.617187c7.472656 8.628906 6.53125 21.679687-2.097656 29.148437-8.625 7.46875-21.675782 6.53125-29.144532-2.097656zm0 0" fill="#81caa1"/><path d="m466.847656 288.144531c-6.011718-5.199219-13.484375-7.648437-20.863281-7.453125-.890625-7.625-4.542969-14.539062-10.382813-19.597656-12.78125-11.0625-32.1875-9.667969-43.253906 3.113281l-11.320312 13.074219-22.300782-31.289062 4.941407-65.371094c2.003906-26.53125-4.203125-52.601563-17.953125-75.382813l-52.613282-87.175781c-5.382812-11.890625-17.628906-19.085938-30.703124-17.945312-9.546876.828124-17.976563 6.007812-23.125 14.214843-.191407.304688-.378907.617188-.558594.929688-.183594-.3125-.367188-.625-.5625-.929688-5.144532-8.207031-13.574219-13.386719-23.125-14.214843-13.089844-1.136719-25.316406 6.054687-30.699219 17.945312l-52.617187 87.175781c-13.75 22.785157-19.957032 48.851563-17.953126 75.382813l4.941407 65.371094-22.300781 31.289062-11.320313-13.074219c-11.066406-12.78125-30.46875-14.179687-43.253906-3.109375-5.839844 5.054688-9.492188 11.96875-10.382813 19.59375-7.378906-.195312-14.851562 2.253906-20.863281 7.457032-12.78125 11.066406-14.175781 30.46875-3.109375 43.253906l70.660156 81.617187c6.058594 6.996094 14.605469 10.578125 23.203125 10.578125 7.117188 0 14.261719-2.453125 20.050781-7.464844 6.007813-5.203124 9.5-12.246093 10.367188-19.582031.285156.007813.570312.011719.855469.011719 7.363281 0 14.402343-2.613281 20.023437-7.480469 12.78125-11.066406 14.179688-30.472656 3.113282-43.253906l-9.132813-10.542969c7.980469-4.246094 19.753906-10.773437 31.890625-18.453125 30.480469-19.285156 46.886719-35.402343 50.15625-49.277343.902344-3.820313 1.480469-7.25 1.496094-7.710938l4.429687-120.34375c.644531-17.535156-13.097656-32.328125-30.632812-32.972656-.582031-.019532-1.15625-.027344-1.730469-.015625l36.492188-60.40625 36.492187 60.402343c-.574219-.007812-1.148437-.003906-1.730469.019532-17.535156.644531-31.277344 15.4375-30.628906 32.972656l4.425781 120.34375c.015625.460938.597657 3.890625 1.496094 7.710938 3.273437 13.875 19.679687 29.992187 50.160156 49.277343 12.136719 7.679688 23.90625 14.207031 31.886719 18.453125l-9.128906 10.542969c-11.066406 12.78125-9.671875 32.1875 3.113281 43.253906 5.621094 4.867188 12.660156 7.484375 20.023437 7.484375.285157 0 .570313-.003906.855469-.011718.863281 7.332031 4.355469 14.375 10.367188 19.578124 5.621093 4.867188 12.660156 7.484376 20.019531 7.484376.746094 0 1.496094-.027344 2.25-.082032 8.167969-.589844 15.621094-4.320312 20.980469-10.515625l70.660156-81.617187c11.070313-12.785156 9.675781-32.1875-3.105469-43.257813zm-358.554687 112.867188c-4.449219 3.847656-11.195313 3.359375-15.042969-1.082031l-70.660156-81.621094c-3.851563-4.445313-3.363282-11.191406 1.078125-15.042969 2.015625-1.742187 4.5-2.597656 6.976562-2.597656 2.988281 0 5.964844 1.25 8.066407 3.679687l70.664062 81.617188c3.847656 4.445312 3.363281 11.195312-1.082031 15.046875zm31.246093-27.054688c-2.15625 1.867188-4.917968 2.78125-7.746093 2.574219-2.839844-.203125-5.433594-1.5-7.296875-3.65625l-70.664063-81.617188c-3.847656-4.445312-3.363281-11.191406 1.082031-15.042968 2.015626-1.742188 4.5-2.597656 6.976563-2.597656 2.988281 0 5.960937 1.25 8.066406 3.679687l70.664063 81.617187c3.847656 4.449219 3.363281 11.195313-1.082032 15.042969zm82.925782-339.636719-54.6875 90.519532c-6.9375 11.480468-5.8125 26.015625 2.320312 36.277344l-1.675781 45.621093c-.046875 1.207031.125 2.371094.476563 3.457031 1.261718 3.878907 4.835937 6.746094 9.148437 6.902344.042969.003906.085937.003906.128906.003906s.085938.003907.128907.003907c5.332031.0625 9.757812-4.066407 10.089843-9.375.003907-.085938.007813-.171875.011719-.257813l2.5625-69.582031c.238281-6.515625 5.757812-11.621094 12.246094-11.382813 6.515625.238282 11.621094 5.734376 11.382812 12.25l-4.402344 119.589844c-.160156.832032-.492187 2.449219-1.003906 4.613282-.699218 2.964843-5.742187 14.394531-41.25 36.878906-13.828125 8.757812-27.460937 16.101562-34.777344 19.910156l-23.296874-26.910156 27.21875-38.1875c1.355468-1.90625 2.003906-4.226563 1.828124-6.558594l-5.210937-68.980469c-1.691406-22.363281 3.542969-44.335937 15.132813-63.539062l52.949218-87.730469c.246094-.410156.464844-.835938.648438-1.273438 1.820312-4.308593 6.179687-6.929687 10.867187-6.527343 4.4375.386719 6.859375 3.246093 7.910157 4.917969 1.777343 2.835937 2.222656 6.207031 1.253906 9.359374zm87.152344 265.605469c-35.625-22.539062-40.683594-33.992187-41.382813-36.964843-.511719-2.167969-.84375-3.78125-1.003906-4.613282l-4.402344-119.589844c-.238281-6.515624 4.867187-12.007812 11.378906-12.25 6.492188-.238281 12.011719 4.867188 12.25 11.382813l2.5625 69.582031c.035157.949219.199219 1.863282.476563 2.722656.203125.628907.464844 1.226563.78125 1.789063.039062.070313.078125.140625.121094.210937 1.722656 2.917969 4.875 4.871094 8.464843 4.910157.171875.003906.34375 0 .515625-.003907 4.054688-.152343 7.453125-2.691406 8.894532-6.21875.03125-.074218.0625-.148437.089843-.226562.058594-.152344.113281-.304688.160157-.457031.355468-1.085938.523437-2.253907.480468-3.460938l-1.679687-45.621093c8.136719-10.261719 9.257812-24.796876 2.324219-36.273438l-54.691407-90.523438c-.96875-3.148437-.523437-6.519531 1.257813-9.359374 1.046875-1.667969 3.46875-4.53125 7.910156-4.914063 4.667969-.402344 9.042969 2.214844 10.863281 6.523437.1875.441407.402344.867188.652344 1.273438l52.945313 87.734375c11.589843 19.203125 16.824218 41.171875 15.132812 63.539063l-5.210938 68.980468c-.175781 2.332032.472657 4.652344 1.828126 6.554688l27.21875 38.191406-23.296876 26.910156c-7.28125-3.792968-20.835937-11.09375-34.640624-19.828125zm28.269531 74.03125c-4.445313-3.847656-4.929688-10.597656-1.082031-15.042969l70.664062-81.617187c2.105469-2.433594 5.078125-3.679687 8.070312-3.679687 2.472657 0 4.957032.855468 6.972657 2.597656 4.445312 3.847656 4.929687 10.597656 1.082031 15.042968l-70.664062 81.617188c-1.863282 2.15625-4.457032 3.453125-7.296876 3.65625-2.839843.207031-5.589843-.707031-7.746093-2.574219zm116.949219-55.648437-70.660157 81.617187c-3.847656 4.445313-10.59375 4.933594-15.042969 1.082031-4.445312-3.847656-4.929687-10.597656-1.082031-15.042968l70.664063-81.617188c2.101562-2.433594 5.078125-3.679687 8.066406-3.679687 2.476562 0 4.960938.855469 6.972656 2.597656 4.445313 3.851563 4.933594 10.597656 1.082032 15.042969zm0 0"/><path d="m178.542969 249c-.648438 0-1.3125-.070312-1.960938-.199219-.628906-.121093-1.261719-.320312-1.867187-.570312-.601563-.25-1.183594-.558594-1.722656-.917969-.550782-.359375-1.058594-.78125-1.519532-1.242188-.460937-.457031-.878906-.96875-1.25-1.519531-.359375-.539062-.660156-1.121093-.910156-1.730469-.25-.597656-.449219-1.230468-.566406-1.867187-.132813-.640625-.203125-1.300781-.203125-1.953125 0-.648438.070312-1.308594.203125-1.949219.117187-.640625.316406-1.269531.566406-1.871093.25-.609376.550781-1.1875.910156-1.726563.371094-.550781.789063-1.0625 1.25-1.523437.460938-.457032.96875-.878907 1.519532-1.238282.539062-.359375 1.121093-.667968 1.722656-.917968.605468-.25 1.238281-.453126 1.867187-.570313 1.292969-.261719 2.621094-.261719 3.910157 0 .640624.117187 1.269531.320313 1.871093.570313.609375.25 1.1875.558593 1.730469.917968.546875.359375 1.058594.78125 1.519531 1.238282 1.859375 1.863281 2.929688 4.441406 2.929688 7.070312 0 .652344-.070313 1.3125-.199219 1.953125-.128906.636719-.320312 1.269531-.570312 1.867187-.25.609376-.558594 1.191407-.921876 1.730469-.355468.550781-.777343 1.0625-1.238281 1.519531-.460937.460938-.96875.882813-1.519531 1.242188-.539062.359375-1.121094.667969-1.730469.917969-.601562.25-1.230469.449219-1.867187.570312-.644532.128907-1.304688.199219-1.953125.199219zm0 0"/><path d="m302.710938 249c-.648438 0-1.308594-.058594-1.949219-.1875-.640625-.132812-1.269531-.332031-1.867188-.582031-.613281-.25-1.191406-.558594-1.730469-.917969-.550781-.359375-1.0625-.78125-1.519531-1.242188-.460937-.457031-.882812-.96875-1.25-1.519531-.363281-.539062-.660156-1.121093-.910156-1.730469-.25-.597656-.453125-1.230468-.570313-1.867187-.132812-.640625-.199218-1.300781-.199218-1.953125 0-.648438.066406-1.308594.199218-1.949219.117188-.640625.320313-1.269531.570313-1.871093.25-.609376.546875-1.1875.910156-1.726563.367188-.550781.789063-1.0625 1.25-1.523437.457031-.457032.96875-.878907 1.519531-1.238282.539063-.359375 1.117188-.667968 1.730469-.917968.597657-.25 1.226563-.441407 1.867188-.570313 1.28125-.261719 2.609375-.261719 3.902343 0 .636719.128906 1.269532.320313 1.867188.570313.609375.25 1.191406.558593 1.730469.917968.550781.359375 1.058593.78125 1.519531 1.238282.460938.460937.882812.972656 1.242188 1.523437.359374.539063.667968 1.117187.917968 1.726563.25.601562.441406 1.230468.570313 1.871093.128906.640625.199219 1.300781.199219 1.949219 0 .652344-.070313 1.3125-.199219 1.953125-.128907.636719-.320313 1.269531-.570313 1.867187-.25.609376-.558594 1.191407-.917968 1.730469-.359376.550781-.78125 1.0625-1.242188 1.519531-.460938.460938-.96875.882813-1.519531 1.242188-.539063.359375-1.121094.667969-1.730469.917969-.597656.25-1.230469.449219-1.867188.582031-.640624.128906-1.300781.1875-1.953124.1875zm0 0"/></svg>