<svg height="511pt" viewBox="0 -121 511.99965 511" width="511pt" xmlns="http://www.w3.org/2000/svg"><g fill="#ffddcf"><path d="m260.703125 254.003906 5.460937-.796875c109.390626-15.921875 200.28125-92.507812 234.523438-197.613281 5.460938-16.753906-7.027344-33.957031-24.648438-33.957031-9.730468 0-18.640624 5.445312-23.078124 14.101562l-47.402344 92.515625zm0 0"/><path d="m431.6875 19.332031c-9.730469 0-18.636719 5.445313-23.074219 14.105469l-17.714843 34.570312c5.359374 8.636719 9.382812 18.117188 11.824218 28.136719 4.539063 18.644531 3.898438 37.65625-1.222656 55.28125 24.082031-28.34375 42.90625-61.503906 54.839844-98.136719 5.460937-16.753906-7.03125-33.957031-24.652344-33.957031zm0 0"/><path d="m10.003906 260.4375h192.316406c54.074219 0 106.890626-16.324219 151.535157-46.835938l5.183593-3.542968c36.84375-25.183594 54.242188-70.550782 43.679688-113.914063-5.308594-21.804687-18.027344-41.085937-35.984375-54.550781-13.019531-9.765625-31.53125-6.859375-40.929687 6.425781-7.820313 11.046875-5.453126 26.308594 5.347656 34.46875 7.191406 5.433594 12.238281 13.230469 14.246094 22.019531 4.640624 20.296876-4.011719 41.316407-21.59375 52.464844-17.160157 10.882813-37.0625 16.660156-57.382813 16.660156h-.933594c-19.378906 0-35.089843-15.710937-35.089843-35.09375 0-12.671874 6.832031-24.359374 17.875-30.578124l53.507812-27.761719c8.167969-4.238281 14.441406-11.398438 17.566406-20.050781 6.996094-19.375-3.363281-40.707032-22.917968-47.1875-11.898438-3.941407-24.867188-3.078126-36.140626 2.410156l-65.171874 31.734375c-13.929688 6.785156-28.769532 11.519531-44.050782 14.070312-31.402344 5.234375-60.546875 19.648438-83.761718 41.433594l-19.328126 18.132813h-37.972656zm0 0"/></g><path d="m505.109375 26.457031c-6.835937-9.421875-17.433594-14.824219-29.074219-14.824219-7.585937 0-14.769531 2.355469-20.703125 6.542969-6.445312-5.667969-14.761719-8.878906-23.660156-8.878906-13.546875 0-25.796875 7.488281-31.972656 19.542969l-10.371094 20.234375c-4.941406-5.707031-10.496094-10.90625-16.589844-15.480469-8.476562-6.355469-18.90625-8.949219-29.375-7.308594-5.300781.832032-10.257812 2.695313-14.65625 5.453125-.542969-1.480469-1.167969-2.945312-1.867187-4.386719-5.542969-11.410156-15.226563-19.890624-27.265625-23.882812-14.457031-4.789062-29.964844-3.757812-43.660157 2.910156l-65.175781 31.734375c-13.074219 6.367188-26.976562 10.808594-41.316406 13.195313-33.460937 5.578125-64.222656 20.796875-88.960937 44.007812l-16.4375 15.421875h-34.019532c-5.523437 0-9.99999975 4.480469-9.99999975 10 0 5.523438 4.47656275 10 9.99999975 10h37.972656c2.542969 0 4.988282-.96875 6.84375-2.707031l19.324219-18.132812c21.847657-20.496094 49.015625-33.933594 78.566407-38.859376 16.238281-2.707031 31.976562-7.734374 46.785156-14.941406l65.171875-31.734375c8.976562-4.371093 19.136719-5.050781 28.617187-1.910156 6.871094 2.277344 12.398438 7.121094 15.5625 13.632813 3.164063 6.515624 3.550782 13.855468 1.09375 20.667968-2.277344 6.308594-6.8125 11.480469-12.765625 14.570313l-53.511719 27.765625c-.101562.050781-.199218.105468-.300781.160156-14.167969 7.976562-22.96875 23.035156-22.96875 39.292969 0 24.863281 20.230469 45.09375 45.09375 45.09375h.933594c22.25 0 43.945313-6.300781 62.734375-18.21875 21.117188-13.390625 31.5625-38.761719 25.988281-63.136719-2.527343-11.066406-8.910156-20.929688-17.964843-27.769531-6.53125-4.9375-7.945313-14.035157-3.214844-20.714844 2.972656-4.203125 7.410156-6.957031 12.496094-7.753906 5.085937-.800781 10.15625.460937 14.273437 3.550781 16.058594 12.042969 27.515625 29.417969 32.269531 48.917969 9.519532 39.085937-6.398437 80.597656-39.609375 103.292969l-5.183593 3.542968c-27.140626 18.546875-57.164063 31.59375-88.710938 38.726563l-.238281.035156c-.503907.070313-.988281.191406-1.457031.335937-18.089844 3.960938-36.667969 5.992188-55.488282 5.992188h-147.316406c-5.519531 0-10 4.476562-10 10 0 5.519531 4.480469 10 10 10h147.320312c20.628907 0 40.992188-2.265625 60.800782-6.683594l4.484375-.648437c55.519531-8.082031 107.539062-31.464844 150.441406-67.613281 42.90625-36.152344 74.769531-83.457032 92.148437-136.800782 3.605469-11.066406 1.753907-22.816406-5.085937-32.234375zm-169.457031 80.28125c3.6875 16.132813-3.226563 32.929688-17.203125 41.789063-15.582031 9.882812-33.574219 15.105468-52.027344 15.105468h-.933594c-13.835937 0-25.089843-11.253906-25.089843-25.089843 0-8.996094 4.839843-17.332031 12.644531-21.789063l53.34375-27.679687c3.855469-2 7.371093-4.5 10.472656-7.414063 2.164063 3.296875 4.929687 6.285156 8.265625 8.804688 5.304688 4.011718 9.046875 9.789062 10.527344 16.273437zm81.84375-68.78125c2.738281-5.34375 8.171875-8.664062 14.175781-8.664062 4.214844 0 8.136719 1.621093 11.066406 4.46875l-30.457031 59.4375c-2.230469-8.949219-5.613281-17.523438-10.007812-25.527344zm73.683594 14.539063c-18.210938 55.894531-52.410157 103.089844-97.0625 136.914062 5.644531-7.957031 10.320312-16.636718 13.875-25.910156 4.042968-10.535156 6.5-21.460938 7.394531-32.503906l46.476562-90.699219c2.738281-5.34375 8.167969-8.664063 14.175781-8.664063 5.160157 0 9.855469 2.398438 12.890626 6.570313 3.03125 4.175781 3.851562 9.386719 2.25 14.292969zm0 0"/><path d="m10 250.433594c-2.628906 0-5.210938 1.070312-7.070312 2.929687-1.859376 1.863281-2.929688 4.441407-2.929688 7.070313 0 2.632812 1.070312 5.210937 2.929688 7.070312 1.871093 1.859375 4.441406 2.929688 7.070312 2.929688s5.210938-1.070313 7.066406-2.929688c1.871094-1.859375 2.933594-4.4375 2.933594-7.070312 0-2.628906-1.0625-5.207032-2.933594-7.070313-1.855468-1.859375-4.425781-2.929687-7.066406-2.929687zm0 0"/></svg>