<?xml version="1.0" encoding="iso-8859-1"?>
<!-- Generator: Adobe Illustrator 19.0.0, SVG Export Plug-In . SVG Version: 6.00 Build 0)  -->
<svg version="1.1" id="Layer_1" xmlns="http://www.w3.org/2000/svg" xmlns:xlink="http://www.w3.org/1999/xlink" x="0px" y="0px"
	 viewBox="0 0 496.2 496.2" style="enable-background:new 0 0 496.2 496.2;" xml:space="preserve">
<path style="fill:#D8DBBA;" d="M0,248.1C0,111.1,111.1,0,248.1,0s248.1,111.1,248.1,248.1S385.1,496.2,248.1,496.2S0,385.1,0,248.1z
	"/>
<path style="fill:#FFFFFF;" d="M379.8,176.2c0.1-0.5,0.2-1,0.1-1.5c-0.1-0.6-0.3-1.2-0.6-1.6c-0.2-0.3-0.4-0.5-0.6-0.7
	c-0.5-0.4-1-0.7-1.6-0.8c-4.8-1.4-8.8-2.4-12.4-3.2c-7.4-1.7-12.8-3-20.6-7.6c-6.6-3.9-16.7-8.6-27.7-8.6c-5.1,0-9.9,1-14.1,3.1
	c-1.4-18-18.2-29.3-25.6-33.5c-7.9-4.5-11.7-8.5-16.9-14.1c-2.5-2.6-5.3-5.6-8.9-9.1c-0.3-0.3-0.7-0.6-1.1-0.8
	c-0.9-0.4-1.9-0.5-2.9-0.1h-0.1c-0.5,0.2-0.9,0.5-1.2,0.8c-3.7,3.5-6.5,6.5-9,9.2c-5.2,5.6-9,9.6-16.9,14.1
	c-7.3,4.1-23.9,15.3-25.6,33c-4.2-1.9-8.8-2.9-13.8-2.9c-10.9,0-21,4.6-27.5,8.4c-7.8,4.6-13.2,5.8-20.7,7.5
	c-3.5,0.8-7.5,1.7-12.4,3.1c-0.6,0.1-1.1,0.4-1.6,0.8c-0.4,0.3-0.7,0.8-0.9,1.2c-0.2,0.4-0.3,0.9-0.3,1.5c0,0.4,0,0.8,0.1,1.1
	c1.2,4.9,2.3,8.9,3.4,12.3c2.2,7.3,3.8,12.6,3.6,21.7c-0.1,8.6,1.2,29.1,16.3,39.3c-15.2,10.1-16.6,30.6-16.5,39.2
	c0.1,9.1-1.5,14.4-3.7,21.7c-1.1,3.5-2.2,7.4-3.4,12.3c-0.1,0.4-0.2,0.8-0.2,1.3c0,0.7,0.3,1.3,0.7,1.9c0.3,0.4,0.7,0.8,1.1,1
	c0.3,0.2,0.7,0.4,1.1,0.4c4.9,1.4,8.8,2.4,12.4,3.2c7.4,1.7,12.8,3,20.6,7.6c6.6,3.9,16.7,8.6,27.7,8.6c5.1,0,9.9-1,14.1-3.1
	c1.4,18,18.2,29.3,25.6,33.5c7.9,4.5,11.7,8.5,16.9,14.1c2.5,2.6,5.3,5.6,8.9,9.1c0.3,0.4,0.8,0.7,1.3,0.9c0.5,0.2,0.9,0.3,1.4,0.3
	s0.9-0.1,1.4-0.3c0.1,0,0.2-0.1,0.2-0.1c0.4-0.2,0.7-0.4,1-0.7c3.7-3.5,6.5-6.5,9-9.2c5.2-5.6,9-9.6,16.9-14.1
	c7.3-4.1,23.9-15.3,25.6-33c4.2,1.9,8.8,2.9,13.8,2.9l0,0c10.9,0,21-4.6,27.5-8.4c7.8-4.6,13.2-5.8,20.7-7.5
	c3.5-0.8,7.5-1.7,12.3-3.1c1.7-0.3,2.9-1.8,2.9-3.6c0-0.4-0.1-0.8-0.2-1.2c-1.2-4.9-2.3-8.7-3.3-12.2c-2.2-7.3-3.8-12.6-3.6-21.7
	c0.1-8.6-1.2-29.1-16.3-39.3c15.2-10.1,16.6-30.6,16.5-39.2c-0.1-9.1,1.5-14.4,3.7-21.7C377.4,185,378.6,181.1,379.8,176.2z
	 M288.9,272.8L288.9,272.8L288.9,272.8C288.9,272.9,288.9,272.9,288.9,272.8c-5.5,9.4-9,20.2-9.5,30.8c-9.4-4.9-20.5-7.3-31.3-7.3
	l0,0l0,0c-10.9,0-22.2,2.5-31.6,7.5c-0.3-10.7-3.8-21.6-9.3-31.1l0,0v-0.1c-5.1-8.7-12.8-17.8-22.5-23.7
	c9.7-5.9,17.6-14.9,22.6-23.6l0,0l0,0l0,0c5.4-9.3,9-20.1,9.4-30.7c9.4,4.9,20.5,7.3,31.3,7.3c0,0,0,0,0.1,0l0,0l0,0
	c10.9,0,22.2-2.5,31.6-7.5c0.3,10.7,3.8,21.6,9.3,31.1c0,0,0,0,0,0.1v0.1c5.1,8.7,12.8,17.7,22.5,23.7
	C301.8,255.1,294,264.1,288.9,272.8z"/>
<g>
	<path style="fill:#E79E2F;" d="M274.9,124.9c-12.3-6.9-15.2-12.9-26.8-23.9l0,0l0,0l0,0l0,0c-11.5,11-14.4,16.9-26.8,23.9
		c-11.7,6.6-23.9,17.9-23.9,32.7c0,27.7,26.2,40.4,50.6,40.5l0,0l0,0l0,0l0,0l0,0l0,0c24.4-0.1,50.6-12.8,50.6-40.5
		C298.7,142.8,286.6,131.5,274.9,124.9z"/>
	<path style="fill:#E79E2F;" d="M221.3,373.1c12.3,6.9,15.2,12.9,26.8,23.9l0,0l0,0l0,0l0,0c11.5-11,14.4-16.9,26.8-23.9
		c11.7-6.6,23.9-17.9,23.9-32.7c0-27.7-26.2-40.4-50.6-40.5l0,0l0,0l0,0l0,0l0,0l0,0c-24.4,0.1-50.6,12.8-50.6,40.5
		C197.5,355.2,209.6,366.5,221.3,373.1z"/>
	<path style="fill:#E79E2F;" d="M369,210.2c-0.2-14.1,3.6-19.6,7.3-35.1l0,0l0,0l0,0l0,0c-15.3-4.5-21.9-4-34-11.3
		c-11.6-6.9-27.4-11.7-40.2-4.4c-24,13.9-21.9,42.9-9.8,64.1l0,0l0,0l0,0l0,0l0,0l0,0c12.2,21.1,36.3,37.4,60.4,23.6
		C365.4,239.8,369.1,223.7,369,210.2z"/>
	<path style="fill:#E79E2F;" d="M127.2,287.8c0.2,14.1-3.6,19.6-7.3,35.1l0,0l0,0l0,0l0,0c15.3,4.5,21.9,4,34,11.3
		c11.6,6.9,27.4,11.7,40.2,4.4c24-13.9,21.9-42.9,9.8-64.1l0,0l0,0l0,0l0,0l0,0l0,0c-12.2-21.1-36.3-37.4-60.4-23.6
		C130.8,258.2,127.1,274.4,127.2,287.8z"/>
	<path style="fill:#E79E2F;" d="M341.7,334.7c12.2-7.1,18.8-6.6,34.1-11.1l0,0l0,0l0,0l0,0c-3.6-15.5-7.3-21-7.1-35.1
		c0.2-13.5-3.4-29.6-16.2-37.1c-24-14-48.2,2.2-60.5,23.2l0,0l0,0l0,0l0,0l0,0l0,0c-12.2,21.1-14.5,50.1,9.5,64.1
		C314.3,346.3,330.1,341.5,341.7,334.7z"/>
	<path style="fill:#E79E2F;" d="M154.5,163.3c-12.2,7.1-18.8,6.6-34.1,11.1l0,0l0,0l0,0l0,0c3.6,15.5,7.3,21,7.1,35.1
		c-0.2,13.5,3.4,29.6,16.2,37.1c24,14,48.2-2.2,60.5-23.2l0,0l0,0l0,0l0,0l0,0l0,0c12.2-21.1,14.5-50.1-9.5-64.1
		C181.9,151.7,166.1,156.5,154.5,163.3z"/>
</g>
<path style="fill:#BC781E;" d="M152.6,248.1c0-52.8,42.8-95.5,95.5-95.5c52.8,0,95.5,42.8,95.5,95.5c0,52.8-42.8,95.5-95.5,95.5
	C195.3,343.6,152.6,300.9,152.6,248.1z"/>
<path style="fill:#FFFFFF;" d="M158.6,248.1c0-49.4,40.1-89.5,89.5-89.5s89.5,40.1,89.5,89.5s-40.1,89.5-89.5,89.5
	S158.6,297.5,158.6,248.1z"/>
<path style="fill:#FFBB69;" d="M248.1,274.4c38.3,0,69.6-35.2,71.9-79.6c-1.8-2.4-3.6-4.6-5.6-6.8c0,0.5,0,1.1,0,1.6
	c0,43.1-29.7,78.1-66.3,78.1s-66.3-35-66.3-78.1c0-0.6,0-1.1,0-1.6c-2,2.2-3.8,4.4-5.6,6.8C178.5,239.1,209.8,274.4,248.1,274.4z"/>
<g>
	<polygon style="fill:#E79E2F;" points="280.5,178.2 291.2,187.9 281.1,197.9 271,188.5 	"/>
	<path style="fill:#E79E2F;" d="M292.2,221.6c-0.2,0,6.9-15.9,6.5-15.9c-28.7,0-72.6,0-101.3,0c0.2,0,8.8,15.9,8.8,15.9H292.2z"/>
	<path style="fill:#E79E2F;" d="M297.5,300.4c-1.8,1.7-7.2,6-10.6,6c-0.9,0-1.5-0.3-2-1c-0.6-0.9-0.9-2.3-0.9-4.3V211l-13.7,1.4
		v92.8c0,8.3,4.4,12.8,12.3,12.8c0.3,0,0.7,0,1,0c9.9-0.4,15.1-6.1,15.6-16.8l0.1-2.4L297.5,300.4z"/>
	<path style="fill:#E79E2F;" d="M231.6,236.6c-24.8,0-38.2,15.2-38.2,34s13.4,34,38.2,34c24.7,0,51.4-15.2,51.4-34
		C283.1,251.8,256.4,236.6,231.6,236.6z M237,295c-16.7,0-25.7-10.9-25.7-24.4s7-25.6,24.5-25.6s35.9,12.1,35.9,25.6
		S253.7,295,237,295z"/>
</g>
<g>
</g>
<g>
</g>
<g>
</g>
<g>
</g>
<g>
</g>
<g>
</g>
<g>
</g>
<g>
</g>
<g>
</g>
<g>
</g>
<g>
</g>
<g>
</g>
<g>
</g>
<g>
</g>
<g>
</g>
</svg>
