<svg id="Layer_1" enable-background="new 0 0 496.001 496.001" height="512" viewBox="0 0 496.001 496.001" width="512" xmlns="http://www.w3.org/2000/svg"><path d="m225.64 121.082-9.41 75.21-142.11 108.13-17.94-33.06c2.021-2.808 83.569-115.974 85-117.96 0 0 10.19-24.17 23.75-32.32 19.961-11.991 52.188-13.042 60.71 0z" fill="#5fc68f"/><path d="m220.05 116.012c-5.285 42.294-27.22 82.119-62.904 109.271l-67.509 51.367c-10.608 8.072-25.915 4.786-32.277-6.928-.054-.1-2.245 3.115 83.82-116.32 0 0 10.19-24.17 23.75-32.32 17.28-10.38 42.58-12.31 55.12-5.07z" fill="#7adbae"/><path d="m42.71 337.322 7.213 36.064c1.162 5.809-4.188 10.877-9.9 9.308-12.308-3.381-22.846-11.84-28.722-23.592l-9.32-18.63c-3.672-7.345-2.174-16.398 3.98-22.14l50.22-46.97c14.158 26.086 10.123 18.65 17.94 33.06z" fill="#f9cfac"/><path d="m37.56 324.992 2.098 10.492c4.041 20.211-23.859 30.08-33.284 11.75-.191-.371-.24-.474-6.154-12.302-.93-6.03 1.11-12.28 5.74-16.6l50.22-46.97 11.81 21.76z" fill="#ffe4cc"/><path d="m485.09 310.672c-9.261 4.604-20.699 1.199-25.33-8.46-7.362-15.355-10.33-18.232-7.51-27.81 4.834-16.42 27.874-18.618 35.3-3.1 6.369 13.31 5.816 12.142 6.62 13.82 4.496 9.387.43 20.83-9.08 25.55z" fill="#6d6d6d"/><path d="m376.06 262.102-1.02 1.53c-4.716 2.988-9.478 7.101-11.906 9.789l-30.195-28.499c-9.21-9.223-24.829-6.461-30.35 5.37-3.23 6.96-1.97 15.48 3.77 21.21 17.126 14.179 10.314 8.537 28.66 23.74l-16.48 3.67c-23.645 5.254-45.9-12.756-45.9-36.81l-56.41-65.81c2.225-17.765.586-4.666 9.41-75.21l70.37 48.71c33.989 23.552 61.407 55.125 80.051 92.31z" fill="#b3cec9"/><path d="m370.24 251.182c-12.553 9.729-27.111 32.783-59.893 32.82-20.732.023-25.377-11.273-25.377-32l-24.067-24.969c-27.158-28.176-40.12-67.121-35.263-105.952.013-.101-1.037-.744 70.37 48.71 30.273 20.967 55.776 48.67 74.23 81.391z" fill="#cae0dd"/><path d="m464.49 308.372c-1.844 17.017-13.74 30.992-29.34 36.2l-24.1-24.12c2.09-7.48 6.1-14.58 12.03-20.52-9.648-31.526-5.624-20.221-16.5-45.85 16.237-.274 31.195 5.836 42.19 16.84 4.211 4.215 3.525 3.119 3.21 4.38-1.154 4.191-.87 8.793 1.17 13.1 2.523 5.326 7.174 15.892 10.19 18.89 1.189 1.19 1.15.979 1.15 1.08z" fill="#6d6d6d"/><path d="m423.08 299.932c-5.93 5.94-9.94 13.04-12.03 20.52-15.864-15.864-32.278-31.394-47.916-47.031 9.489-10.504 25.853-18.941 43.445-19.339 10.532 24.753 6.805 14.161 16.501 45.85z" fill="#f9cfac"/><path d="m418.98 286.532c-5.745 7.49-15.924 7.846-21.975 1.795l-23.605-23.605c8.958-6.303 20.586-10.355 33.18-10.64 10.552 24.802 7.852 17.598 12.4 32.45z" fill="#ffe4cc"/><path d="m478.953 378.88c.552 2.812-1.556 5.442-4.421 5.442h-30.432c-12.891 0-24.658-7.256-30.43-18.8-93.707-83.735-69.108-62.376-107.31-94.02-7.426-7.398-7.265-19.35 0-26.58 7.34-7.34 19.088-7.175 26.58 0 42.331 40.542 14.843 12.435 113.78 111.2 7.18 0 15.914-.309 24.5 8.26 3.913 3.931 6.653 8.996 7.733 14.498z" fill="#f9cfac"/><path d="m471.286 364.448c2.763 2.794.684 7.554-3.245 7.554h-23.941c-12.891 0-24.658-7.256-30.43-18.8-93.707-83.735-69.108-62.376-107.31-94.02-2.08-2.07-3.57-4.52-4.47-7.13 4.471-12.963 20.966-16.788 31.05-7.13 42.092 40.313 12.012 9.609 113.78 111.2 9.667 0 16.948.623 24.566 8.326z" fill="#ffe4cc"/><path d="m479.228 289.315c-16.513 4.216-36.981 3.583-52.934-2.705-5.261-2.074-9.269-6.46-10.924-11.867-.031-.102.494 1.161-8.09-19.01.32-.56.67-1.11 1.06-1.65 6.36.06 12.68 1.13 18.72 3.22 11.601 4.042 17.793 9.703 25.19 17.1 5.251-16.292 27.874-18.618 35.3-3.1 3.478 7.266-.475 16.008-8.322 18.012z" fill="#797a7a"/></svg>