<svg height="512pt" viewBox="0 0 512 512.17439" width="512pt" xmlns="http://www.w3.org/2000/svg"><path d="m256.089844 230.574219h-59.734375v81.066406c0 11.78125 9.550781 21.332031 21.332031 21.332031 2.941406.019532 5.847656-.59375 8.535156-1.789062 2.460938-1.035156 4.691406-2.542969 6.570313-4.4375 3.835937-3.839844 6.0625-8.996094 6.226562-14.421875.191407 11.78125 9.894531 21.179687 21.675781 20.992187s21.179688-9.894531 20.992188-21.675781v-81.066406zm0 0" fill="#37474f"/><path d="m256.089844 230.574219v81.066406c.007812 5.664063-2.234375 11.097656-6.230469 15.105469-.710937.71875-1.480469 1.375-2.304687 1.960937-5.171876-3.890625-8.308594-9.914062-8.535157-16.382812-.164062 5.425781-2.390625 10.582031-6.226562 14.421875-1.878907 1.894531-4.109375 3.402344-6.570313 4.4375-2.6875 1.195312-5.59375 1.808594-8.535156 1.789062-11.78125 0-21.332031-9.550781-21.332031-21.332031v-81.066406zm0 0" fill="#607d8b"/><path d="m179.289062 264.707031h-59.734374v81.066407c0 11.78125 9.550781 21.335937 21.332031 21.335937 2.941406.015625 5.851562-.597656 8.535156-1.792969 2.460937-1.035156 4.691406-2.542968 6.570313-4.4375 3.835937-3.839844 6.0625-8.996094 6.230468-14.421875.1875 11.78125 9.890625 21.179688 21.671875 20.992188 11.785157-.1875 21.183594-9.894531 20.992188-21.675781v-81.066407zm0 0" fill="#37474f"/><path d="m179.289062 264.707031v81.066407c.007813 5.664062-2.230468 11.097656-6.230468 15.105468-.710938.71875-1.480469 1.375-2.304688 1.960938-5.171875-3.890625-8.308594-9.914063-8.53125-16.382813-.167968 5.425781-2.394531 10.582031-6.230468 14.421875-1.878907 1.894532-4.109376 3.402344-6.570313 4.4375-2.683594 1.195313-5.59375 1.808594-8.535156 1.792969-5.65625 0-11.082031-2.25-15.082031-6.25-4.003907-4-6.25-9.425781-6.25-15.085937v-81.066407zm0 0" fill="#607d8b"/><path d="m102.488281 230.574219h-59.734375v81.066406c0 11.78125 9.550782 21.332031 21.335938 21.332031 2.9375.019532 5.847656-.59375 8.53125-1.789062 2.460937-1.035156 4.691406-2.542969 6.570312-4.4375 3.835938-3.839844 6.0625-8.996094 6.230469-14.421875.1875 11.78125 9.890625 21.179687 21.675781 20.992187 11.78125-.1875 21.179688-9.894531 20.992188-21.675781v-81.066406zm0 0" fill="#37474f"/><path d="m102.488281 230.574219v81.066406c.011719 5.664063-2.230469 11.097656-6.230469 15.105469-.707031.71875-1.480468 1.375-2.304687 1.960937-5.171875-3.890625-8.308594-9.914062-8.53125-16.382812-.167969 5.425781-2.394531 10.582031-6.230469 14.421875-1.878906 1.894531-4.109375 3.402344-6.570312 4.4375-2.683594 1.195312-5.59375 1.808594-8.53125 1.789062-5.660156 0-11.085938-2.246094-15.085938-6.246094s-6.25-9.425781-6.25-15.085937v-81.066406zm0 0" fill="#607d8b"/><path d="m162.222656 145.242188v51.199218c-.03125 9.414063-7.652344 17.039063-17.066406 17.066406-4.527344.023438-8.871094-1.792968-12.035156-5.035156-.253906-.253906-.511719-.597656-.765625-.851562-2.777344-3.058594-4.300781-7.050782-4.265625-11.179688v34.132813h-85.335938v-34.132813c-.003906 6.09375-3.261718 11.722656-8.539062 14.765625-5.28125 3.046875-11.78125 3.042969-17.058594-.003906-1.292969-.738281-2.472656-1.65625-3.5-2.730469-.257812-.253906-.511719-.597656-.769531-.851562-2.777344-3.058594-4.300781-7.050782-4.265625-11.179688v-51.199218c0-14.140626 11.460937-25.601563 25.601562-25.601563h102.398438c14.140625 0 25.601562 11.460937 25.601562 25.601563zm0 0" fill="#ad1457"/><g fill="#c03a2b"><path d="m128.089844 204.972656c-4.714844 0-8.535156-3.820312-8.535156-8.53125v-42.667968c0-4.710938 3.820312-8.53125 8.535156-8.53125 4.710937 0 8.53125 3.820312 8.53125 8.53125v42.667968c0 4.710938-3.820313 8.53125-8.53125 8.53125zm0 0"/><path d="m42.753906 204.972656c-4.710937 0-8.53125-3.820312-8.53125-8.53125v-42.667968c0-4.710938 3.820313-8.53125 8.53125-8.53125 4.714844 0 8.535156 3.820312 8.535156 8.53125v42.667968c0 4.710938-3.820312 8.53125-8.535156 8.53125zm0 0"/><path d="m128.089844 204.972656c-4.714844 0-8.535156-3.820312-8.535156-8.53125v-17.066406c0-4.714844 3.820312-8.535156 8.535156-8.535156 4.710937 0 8.53125 3.820312 8.53125 8.535156v17.066406c0 4.710938-3.820313 8.53125-8.53125 8.53125zm0 0"/><path d="m42.753906 204.972656c-4.710937 0-8.53125-3.820312-8.53125-8.53125v-17.066406c0-4.714844 3.820313-8.535156 8.53125-8.535156 4.714844 0 8.535156 3.820312 8.535156 8.535156v17.066406c0 4.710938-3.820312 8.53125-8.535156 8.53125zm0 0"/></g><path d="m315.820312 145.242188v51.199218c-.027343 9.414063-7.652343 17.039063-17.066406 17.066406-4.527344.023438-8.871094-1.792968-12.03125-5.035156-.257812-.253906-.511718-.597656-.769531-.851562-2.777344-3.058594-4.296875-7.050782-4.265625-11.179688v34.132813h-85.332031v-34.132813c-.007813 6.09375-3.261719 11.722656-8.542969 14.765625-5.277344 3.046875-11.78125 3.042969-17.058594-.003906-1.289062-.738281-2.46875-1.65625-3.496094-2.730469-.257812-.253906-.515624-.597656-.769531-.851562-2.777343-3.058594-4.300781-7.050782-4.265625-11.179688v-51.199218c0-14.140626 11.460938-25.601563 25.597656-25.601563h102.402344c14.136719 0 25.597656 11.460937 25.597656 25.601563zm0 0" fill="#ad1457"/><path d="m136.621094 145.242188v51.199218c-.007813 4.121094-1.523438 8.101563-4.265625 11.179688-1.195313 1.4375-2.640625 2.652344-4.265625 3.582031-2.59375 1.503906-5.539063 2.300781-8.535156 2.304687-9.398438-.070312-16.996094-7.671874-17.066407-17.066406v34.132813h-59.734375v-34.132813c-.003906 6.09375-3.261718 11.722656-8.539062 14.765625-5.28125 3.046875-11.78125 3.042969-17.058594-.003906v-14.761719c-.007812 4.121094-1.527344 8.101563-4.269531 11.179688-2.777344-3.058594-4.300781-7.050782-4.265625-11.179688v-51.199218c0-14.140626 11.460937-25.601563 25.601562-25.601563h76.796875c14.140625 0 25.601563 11.460937 25.601563 25.601563zm0 0" fill="#e91e63"/><path d="m290.222656 145.242188v51.199218c-.007812 4.121094-1.527344 8.101563-4.269531 11.179688-1.195313 1.4375-2.640625 2.652344-4.265625 3.582031-2.59375 1.503906-5.535156 2.300781-8.53125 2.304687-9.398438-.070312-17-7.671874-17.066406-17.066406v34.132813h-59.734375v-34.132813c-.007813 6.09375-3.261719 11.722656-8.542969 14.765625-5.277344 3.046875-11.78125 3.042969-17.058594-.003906v-14.761719c-.003906 4.121094-1.523437 8.101563-4.265625 11.179688-2.777343-3.058594-4.300781-7.050782-4.265625-11.179688v-51.199218c0-14.140626 11.460938-25.601563 25.597656-25.601563h76.800782c14.140625 0 25.601562 11.460937 25.601562 25.601563zm0 0" fill="#e91e63"/><path d="m281.6875 204.972656c-4.710938 0-8.53125-3.820312-8.53125-8.53125v-42.667968c0-4.710938 3.820312-8.53125 8.53125-8.53125 4.714844 0 8.535156 3.820312 8.535156 8.53125v42.667968c0 4.710938-3.820312 8.53125-8.535156 8.53125zm0 0" fill="#c03a2b"/><path d="m196.355469 204.972656c-4.714844 0-8.535157-3.820312-8.535157-8.53125v-42.667968c0-4.710938 3.820313-8.53125 8.535157-8.53125 4.710937 0 8.53125 3.820312 8.53125 8.53125v42.667968c0 4.710938-3.820313 8.53125-8.53125 8.53125zm0 0" fill="#c03a2b"/><path d="m281.6875 204.972656c-4.710938 0-8.53125-3.820312-8.53125-8.53125v-17.066406c0-4.714844 3.820312-8.535156 8.53125-8.535156 4.714844 0 8.535156 3.820312 8.535156 8.535156v17.066406c0 4.710938-3.820312 8.53125-8.535156 8.53125zm0 0" fill="#c03a2b"/><path d="m239.019531 179.375v51.199219c-.027343 9.414062-7.652343 17.039062-17.066406 17.066406-4.527344.023437-8.871094-1.792969-12.03125-5.035156-.253906-.253907-.511719-.597657-.765625-.851563-2.777344-3.058594-4.300781-7.050781-4.269531-11.179687v34.132812h-85.332031v-34.132812c-.007813 6.09375-3.261719 11.722656-8.539063 14.765625-5.28125 3.046875-11.78125 3.042968-17.0625-.003906-1.289063-.734376-2.46875-1.65625-3.496094-2.730469-.257812-.253907-.511719-.597657-.769531-.851563-2.777344-3.058594-4.300781-7.050781-4.265625-11.179687v-51.199219c0-14.140625 11.460937-25.601562 25.597656-25.601562h102.402344c14.136719 0 25.597656 11.460937 25.597656 25.601562zm0 0" fill="#2e7d32"/><path d="m213.421875 179.375v51.199219c-.007813 4.121093-1.523437 8.101562-4.265625 11.179687-1.199219 1.4375-2.644531 2.652344-4.269531 3.582032-2.589844 1.503906-5.535157 2.300781-8.53125 2.304687-9.398438-.070313-16.996094-7.667969-17.066407-17.066406v34.132812h-59.734374v-34.132812c-.007813 6.09375-3.261719 11.722656-8.539063 14.765625-5.28125 3.046875-11.78125 3.042968-17.0625-.003906v-14.761719c-.003906 4.121093-1.523437 8.101562-4.265625 11.179687-2.777344-3.058594-4.300781-7.050781-4.265625-11.179687v-51.199219c0-14.140625 11.460937-25.601562 25.597656-25.601562h76.800781c14.140626 0 25.601563 11.460937 25.601563 25.601562zm0 0" fill="#4caf50"/><path d="m204.886719 247.640625c-4.710938 0-8.53125-3.820313-8.53125-8.53125v-42.667969c0-4.714844 3.820312-8.535156 8.53125-8.535156 4.714843 0 8.535156 3.820312 8.535156 8.535156v42.667969c0 4.710937-3.820313 8.53125-8.535156 8.53125zm0 0" fill="#24ae5f"/><path d="m119.554688 247.640625c-4.710938 0-8.535157-3.820313-8.535157-8.53125v-42.667969c0-4.714844 3.824219-8.535156 8.535157-8.535156 4.710937 0 8.535156 3.820312 8.535156 8.535156v42.667969c0 4.710937-3.824219 8.53125-8.535156 8.53125zm0 0" fill="#24ae5f"/><path d="m204.886719 247.640625c-4.710938 0-8.53125-3.820313-8.53125-8.53125v-17.066406c0-4.714844 3.820312-8.535157 8.53125-8.535157 4.714843 0 8.535156 3.820313 8.535156 8.535157v17.066406c0 4.710937-3.820313 8.53125-8.535156 8.53125zm0 0" fill="#24ae5f"/><path d="m119.554688 247.640625c-4.710938 0-8.535157-3.820313-8.535157-8.53125v-17.066406c0-4.714844 3.824219-8.535157 8.535157-8.535157 4.710937 0 8.535156 3.820313 8.535156 8.535157v17.066406c0 4.710937-3.824219 8.53125-8.535156 8.53125zm0 0" fill="#24ae5f"/><path d="m503.554688 375.640625c0 70.691406-57.308594 128-128 128-70.691407 0-128-57.308594-128-128s57.308593-128 128-128c70.691406 0 128 57.308594 128 128zm0 0" fill="#ffb301"/><path d="m477.953125 375.640625c0-70.691406-51.574219-128-115.199219-128-63.621094 0-115.199218 57.308594-115.199218 128s51.578124 128 115.199218 128c63.625 0 115.199219-57.308594 115.199219-128zm0 0" fill="#fdd834"/><path d="m452.355469 375.640625c0 14.140625-11.460938 25.601563-25.601563 25.601563h-21.332031c-2.355469 0-4.265625 1.910156-4.265625 4.265624v21.332032c0 14.140625-11.464844 25.601562-25.601562 25.601562-14.136719 0-25.601563-11.460937-25.601563-25.601562v-21.332032c0-2.355468-1.910156-4.265624-4.265625-4.265624h-21.332031c-14.140625 0-25.601563-11.460938-25.601563-25.601563 0-14.136719 11.460938-25.597656 25.601563-25.597656h21.332031c2.355469 0 4.265625-1.914063 4.265625-4.269531v-21.332032c0-14.140625 11.464844-25.601562 25.601563-25.601562 14.136718 0 25.601562 11.460937 25.601562 25.601562v21.332032c0 2.355468 1.910156 4.269531 4.265625 4.269531h21.332031c14.140625 0 25.601563 11.460937 25.601563 25.597656zm0 0" fill="#e91e63"/><path d="m128.089844 51.375c0 23.5625-19.105469 42.667969-42.667969 42.667969-4.335937-.015625-8.644531-.648438-12.800781-1.878907-17.78125-5.632812-29.867188-22.136718-29.867188-40.789062s12.085938-35.15625 29.867188-40.789062c4.15625-1.234376 8.464844-1.863282 12.800781-1.878907 23.5625 0 42.667969 19.101563 42.667969 42.667969zm0 0" fill="#bfa885"/><path d="m102.488281 51.375c0-22.527344-13.371093-40.789062-29.867187-40.789062s-29.867188 18.261718-29.867188 40.789062 13.371094 40.789062 29.867188 40.789062 29.867187-18.261718 29.867187-40.789062zm0 0" fill="#ffe0b2"/><path d="m281.6875 51.375c0 23.5625-19.101562 42.667969-42.667969 42.667969-4.332031-.015625-8.644531-.648438-12.796875-1.878907-17.785156-5.632812-29.867187-22.136718-29.867187-40.789062s12.082031-35.15625 29.867187-40.789062c4.152344-1.234376 8.464844-1.863282 12.796875-1.878907 11.316407 0 22.171875 4.496094 30.171875 12.496094 8 8.003906 12.496094 18.855469 12.496094 30.171875zm0 0" fill="#bfa885"/><path d="m256.089844 51.375c0-22.527344-13.375-40.789062-29.867188-40.789062-16.496094 0-29.867187 18.261718-29.867187 40.789062s13.371093 40.789062 29.867187 40.789062c16.492188 0 29.867188-18.261718 29.867188-40.789062zm0 0" fill="#ffe0b2"/><path d="m204.886719 94.042969c0 11.3125-4.492188 22.167969-12.496094 30.167969-8 8-18.851563 12.496093-30.167969 12.496093-4.335937-.011719-8.644531-.644531-12.800781-1.875-17.785156-5.632812-29.867187-22.136719-29.867187-40.789062 0-18.65625 12.082031-35.160157 29.867187-40.792969 4.15625-1.230469 8.464844-1.863281 12.800781-1.875 11.316406 0 22.167969 4.496094 30.167969 12.496094 8.003906 8 12.496094 18.855468 12.496094 30.171875zm0 0" fill="#bfa885"/><path d="m179.289062 94.042969c0-22.527344-13.371093-40.792969-29.867187-40.792969s-29.867187 18.265625-29.867187 40.792969c0 22.523437 13.371093 40.789062 29.867187 40.789062s29.867187-18.265625 29.867187-40.789062zm0 0" fill="#ffe0b2"/><path d="m375.554688 239.109375c-31.050782-.011719-61.167969 10.621094-85.332032 30.121094v-48.742188c7.820313 2.871094 16.554688 1.71875 23.367188-3.078125 6.8125-4.800781 10.835937-12.636718 10.765625-20.96875v-51.199218c0-18.851563-15.28125-34.132813-34.132813-34.132813h-79.789062c1.769531-4.988281 2.75-10.21875 2.910156-15.507813 19.925781 11.582032 45.132812 8.425782 61.585938-7.710937 16.449218-16.136719 20.09375-41.277344 8.898437-61.421875s-34.46875-30.328125-56.859375-24.878906c-22.390625 5.449218-38.382812 25.1875-39.070312 48.222656-15.855469-9.292969-35.496094-9.292969-51.355469 0-.664063-23.082031-16.675781-42.875-39.109375-48.347656-22.4375-5.472656-45.761719 4.726562-56.980469 24.914062-11.21875 20.183594-7.5625 45.378906 8.933594 61.542969 16.496093 16.160156 41.757812 19.304687 61.710937 7.679687.160156 5.289063 1.144532 10.519532 2.910156 15.507813h-79.785156c-18.851562 0-34.1328122 15.28125-34.1328122 34.132813v51.199218c-.0585938 6.757813 2.6367182 13.25 7.4570312 17.988282 6.902344 7.132812 17.371094 9.503906 26.675781 6.042968v91.167969c-.019531 12.144531 7.332032 23.085937 18.578125 27.664063 11.25 4.578124 24.152344 1.878906 32.621094-6.824219 6.59375 6.914062 16.160156 10.15625 25.597656 8.675781v4.617188c-.015625 12.144531 7.335938 23.085937 18.582031 27.664062 11.25 4.578125 24.152344 1.878906 32.621094-6.824219 8.46875 8.703125 21.367188 11.402344 32.617188 6.824219s18.597656-15.519531 18.582031-27.664062v-4.617188c1.410156.222656 2.835937.335938 4.265625.351562 7.921875-.011718 15.519531-3.148437 21.136719-8.730468.085937-.085938.144531-.195313.230469-.28125 1.683593 1.726562 3.570312 3.242187 5.617187 4.515625-16.640625 56.410156 4.710937 117.136719 52.992187 150.71875 48.285157 33.582031 112.644532 32.46875 159.742188-2.757813 47.09375-35.230468 66.339844-96.65625 47.761719-152.457031-18.578125-55.804687-70.800781-93.4375-129.613281-93.40625zm-85.332032-110.933594c9.425782 0 17.066406 7.640625 17.066406 17.066407v51.199218c0 4.710938-3.820312 8.53125-8.535156 8.53125-2.300781.007813-4.503906-.9375-6.082031-2.609375-1.582031-1.5625-2.46875-3.699219-2.449219-5.921875v-42.667968c0-4.710938-3.820312-8.53125-8.535156-8.53125-4.710938 0-8.53125 3.820312-8.53125 8.53125v68.269531h-25.601562v-42.667969c0-18.851562-15.28125-34.132812-34.132813-34.132812h-42.667969c0-.273438.050782-.511719.070313-.777344 11.375-1.949219 21.757812-7.691406 29.457031-16.289063zm-76.800781 85.332031v-25.601562c0-4.710938-3.820313-8.53125-8.535156-8.53125-4.710938 0-8.53125 3.820312-8.53125 8.53125v68.269531h-68.265625v-68.269531c0-4.710938-3.824219-8.53125-8.535156-8.53125-4.710938 0-8.535157 3.820312-8.535157 8.53125v42.667969c0 4.714843-3.820312 8.535156-8.53125 8.535156-4.714843 0-8.535156-3.820313-8.535156-8.535156v-51.199219c0-9.425781 7.640625-17.066406 17.066406-17.066406h102.402344c9.425781 0 17.066406 7.640625 17.066406 17.066406v51.199219c0 4.714843-3.820312 8.535156-8.535156 8.535156-4.710937 0-8.53125-3.820313-8.53125-8.535156zm25.597656-196.265624c18.851563 0 34.136719 15.28125 34.136719 34.132812s-15.285156 34.132812-34.136719 34.132812c-18.847656 0-34.132812-15.28125-34.132812-34.132812s15.285156-34.132812 34.132812-34.132812zm-76.796875 42.664062c18.851563 0 34.132813 15.285156 34.132813 34.136719 0 18.847656-15.28125 34.132812-34.132813 34.132812-18.851562 0-34.132812-15.285156-34.132812-34.132812 0-18.851563 15.28125-34.136719 34.132812-34.136719zm-76.800781 25.601562c-18.851563 0-34.132813-15.28125-34.132813-34.132812s15.28125-34.132812 34.132813-34.132812 34.132813 15.28125 34.132813 34.132812c0 9.050781-3.597657 17.734375-9.996094 24.136719-6.402344 6.398437-15.085938 9.996093-24.136719 9.996093zm-59.734375 119.464844c-2.300781.007813-4.503906-.9375-6.082031-2.609375-1.585938-1.5625-2.46875-3.699219-2.449219-5.921875v-51.199218c0-9.425782 7.640625-17.066407 17.066406-17.066407h89.941406c7.699219 8.597657 18.078126 14.339844 29.457032 16.289063 0 .265625.066406.503906.066406.777344h-42.667969c-18.847656 0-34.132812 15.28125-34.132812 34.132812v42.667969h-25.597657v-68.269531c0-4.710938-3.820312-8.53125-8.535156-8.53125-4.710937 0-8.53125 3.820312-8.53125 8.53125v42.667968c0 4.710938-3.820312 8.53125-8.535156 8.53125zm81.066406 119.46875c-7.070312 0-12.800781-5.730468-12.800781-12.800781v-38.398437c0-4.714844-3.820313-8.535157-8.53125-8.535157-4.714844 0-8.535156 3.820313-8.535156 8.535157v38.398437c0 7.070313-5.730469 12.800781-12.796875 12.800781-7.070313 0-12.800782-5.730468-12.800782-12.800781v-72.53125h27.167969c2.183594 6.429687 6.875 11.707031 13.007813 14.625 6.132812 2.917969 13.1875 3.234375 19.554687.871094v69.066406c-1.367187.496094-2.808593.753906-4.265625.769531zm76.800782 34.132813c-7.070313 0-12.800782-5.730469-12.800782-12.800781v-38.398438c0-4.714844-3.820312-8.535156-8.53125-8.535156-4.714844 0-8.535156 3.820312-8.535156 8.535156v38.398438c0 7.070312-5.730469 12.800781-12.800781 12.800781-7.066407 0-12.796875-5.730469-12.796875-12.800781v-72.53125h68.265625v72.53125c0 7.070312-5.730469 12.800781-12.800781 12.800781zm64-46.933594v-38.398437c0-4.714844-3.820313-8.535157-8.535157-8.535157-4.710937 0-8.53125 3.820313-8.53125 8.535157v38.398437c0 3.398437-1.34375 6.660156-3.738281 9.070313-3.578125 3.332031-8.703125 4.417968-13.328125 2.824218v-68.929687c6.367187 2.363281 13.421875 2.046875 19.554687-.871094 6.132813-2.917969 10.824219-8.195313 13.007813-14.625h27.171875v46.53125c-9.09375 10.328125-16.570312 21.972656-22.1875 34.535156-2.164062-2.320312-3.382812-5.363281-3.414062-8.535156zm128 183.46875c-48.320313 0-91.882813-29.109375-110.371094-73.75-18.492188-44.640625-8.273438-96.027344 25.894531-130.195313 34.167969-34.164062 85.554687-44.386718 130.195313-25.894531 44.640624 18.488281 73.746093 62.050781 73.746093 110.371094-.070312 65.949219-53.515625 119.398437-119.464843 119.46875zm0 0"/><path d="m426.753906 341.507812h-17.066406v-17.066406c0-18.851562-15.28125-34.132812-34.132812-34.132812-18.851563 0-34.132813 15.28125-34.132813 34.132812v17.066406h-17.066406c-18.851563 0-34.132813 15.28125-34.132813 34.132813s15.28125 34.132813 34.132813 34.132813h17.066406v17.066406c0 18.851562 15.28125 34.132812 34.132813 34.132812 18.851562 0 34.132812-15.28125 34.132812-34.132812v-17.066406h17.066406c18.851563 0 34.132813-15.28125 34.132813-34.132813s-15.28125-34.132813-34.132813-34.132813zm0 51.199219h-21.332031c-7.070313 0-12.800781 5.730469-12.800781 12.800781v21.332032c0 9.425781-7.640625 17.066406-17.066406 17.066406-9.425782 0-17.066407-7.640625-17.066407-17.066406v-21.332032c0-7.070312-5.730469-12.800781-12.800781-12.800781h-21.332031c-9.425781 0-17.066407-7.640625-17.066407-17.066406s7.640626-17.066406 17.066407-17.066406h21.332031c7.070312 0 12.800781-5.730469 12.800781-12.800781v-21.332032c0-9.425781 7.640625-17.066406 17.066407-17.066406 9.425781 0 17.066406 7.640625 17.066406 17.066406v21.332032c0 7.070312 5.730468 12.800781 12.800781 12.800781h21.332031c9.425782 0 17.066406 7.640625 17.066406 17.066406s-7.640624 17.066406-17.066406 17.066406zm0 0"/></svg>