<?xml version="1.0" encoding="iso-8859-1"?>
<!-- Generator: Adobe Illustrator 19.0.0, SVG Export Plug-In . SVG Version: 6.00 Build 0)  -->
<svg version="1.1" id="Capa_1" xmlns="http://www.w3.org/2000/svg" xmlns:xlink="http://www.w3.org/1999/xlink" x="0px" y="0px"
	 viewBox="0 0 512 512" style="enable-background:new 0 0 512 512;" xml:space="preserve">
<circle style="fill:#52BBEF;" cx="256" cy="267" r="245"/>
<path style="fill:#FFD00D;" d="M437.7,237.49l-9.909-7.389v36.82l17.926-10.502v-2.952
	C445.717,247.968,442.109,240.777,437.7,237.49z"/>
<path style="fill:#EEF6FF;" d="M422.791,176.49h-21.999v106.25l26.999-15.818V181.49C427.791,178.74,425.541,176.49,422.791,176.49z
	"/>
<path style="fill:#D9EAFC;" d="M396.792,0H115.208c-2.75,0-5,2.25-5,5v55.026c9.071,6.33,15.022,16.837,15.022,28.713v37.094h8.203
	c2.757,0,4.999,2.242,4.999,4.999v25.798c0,2.757-2.242,5-4.999,5h-23.226v36.149c14.456,8.514,24.184,24.232,24.184,42.189
	c0,17.955-9.727,33.673-24.182,42.188l129.417,75.823c7.665-5.573,12.329-8.965,12.329-8.965c2.224-1.617,5.864-1.617,8.088,0
	c0,0,4.664,3.392,12.329,8.965l129.419-75.824V5C401.792,2.25,399.542,0,396.792,0z"/>
<g>
	<path style="fill:#AEC1ED;" d="M110.21,282.155l22.684,13.29v-43.458C129.645,264.801,121.326,275.607,110.21,282.155z"/>
	<path style="fill:#AEC1ED;" d="M125.23,88.739v37.094h7.663V5c0-2.75,2.25-5,5-5h-22.686c-2.75,0-5,2.25-5,5v55.026
		C119.279,66.356,125.23,76.863,125.23,88.739z"/>
	<path style="fill:#AEC1ED;" d="M110.208,161.63v36.149c11.118,6.548,19.437,17.355,22.686,30.169V161.63H110.208z"/>
</g>
<path style="fill:#2E4C89;" d="M362.998,70.586c0,2.75-2.25,5-5,5H154.002c-2.75,0-5-2.25-5-5V53.088c0-2.75,2.25-5,5-5h203.996
	c2.75,0,5,2.25,5,5V70.586z"/>
<path style="fill:#293D7C;" d="M168.845,70.586V53.088c0-2.75,2.25-5,5-5h-19.843c-2.75,0-5,2.25-5,5v17.498c0,2.75,2.25,5,5,5
	h19.843C171.095,75.586,168.845,73.336,168.845,70.586z"/>
<path style="fill:#2E4C89;" d="M218.477,345.587h75.047L336,320.701v-8.112c0-2.75-2.25-5-5-5H181c-2.75,0-5,2.25-5,5v8.112
	L218.477,345.587z"/>
<path style="fill:#293D7C;" d="M195.843,332.326v-19.737c0-2.75,2.25-5,5-5H181c-2.75,0-5,2.25-5,5v8.112L195.843,332.326z"/>
<path style="fill:#445EA0;" d="M359.998,283.075c0,2.75-2.25,5-5,5h-51.004c-2.75,0-5-2.25-5-5v-81.996c0-2.75,2.25-5,5-5h51.004
	c2.75,0,5,2.25,5,5V283.075z"/>
<path style="fill:#293D7C;" d="M318.837,283.075v-81.996c0-2.75,2.25-5,5-5h-19.843c-2.75,0-5,2.25-5,5v81.996c0,2.75,2.25,5,5,5
	h19.843C321.087,288.075,318.837,285.825,318.837,283.075z"/>
<g>
	<path style="fill:#445EA0;" d="M281.739,212.171H155.102c-4.142,0-7.5-3.357-7.5-7.5s3.358-7.5,7.5-7.5h126.637
		c4.143,0,7.5,3.357,7.5,7.5C289.239,208.814,285.882,212.171,281.739,212.171z"/>
	<path style="fill:#445EA0;" d="M281.739,236.868H155.102c-4.142,0-7.5-3.357-7.5-7.5s3.358-7.5,7.5-7.5h126.637
		c4.143,0,7.5,3.357,7.5,7.5S285.882,236.868,281.739,236.868z"/>
	<path style="fill:#445EA0;" d="M281.739,261.565H155.102c-4.142,0-7.5-3.357-7.5-7.5s3.358-7.5,7.5-7.5h126.637
		c4.143,0,7.5,3.357,7.5,7.5S285.882,261.565,281.739,261.565z"/>
	<path style="fill:#445EA0;" d="M281.739,286.263H155.102c-4.142,0-7.5-3.357-7.5-7.5s3.358-7.5,7.5-7.5h126.637
		c4.143,0,7.5,3.357,7.5,7.5S285.882,286.263,281.739,286.263z"/>
</g>
<path style="fill:#1A2B63;" d="M206.185,177.465h-48.369c-4.143,0-7.5-3.357-7.5-7.5s3.357-7.5,7.5-7.5h48.369
	c4.143,0,7.5,3.357,7.5,7.5C213.685,174.107,210.327,177.465,206.185,177.465z"/>
<g>
	<path style="fill:#445EA0;" d="M280.185,109.02h-48.369c-4.143,0-7.5-3.357-7.5-7.5s3.357-7.5,7.5-7.5h48.369
		c4.142,0,7.5,3.357,7.5,7.5C287.685,105.662,284.327,109.02,280.185,109.02z"/>
	<path style="fill:#445EA0;" d="M280.185,131.835h-48.369c-4.143,0-7.5-3.358-7.5-7.5c0-4.143,3.357-7.5,7.5-7.5h48.369
		c4.142,0,7.5,3.357,7.5,7.5C287.685,128.477,284.327,131.835,280.185,131.835z"/>
	<path style="fill:#445EA0;" d="M280.185,154.649h-48.369c-4.143,0-7.5-3.357-7.5-7.5s3.357-7.5,7.5-7.5h48.369
		c4.142,0,7.5,3.357,7.5,7.5S284.327,154.649,280.185,154.649z"/>
	<path style="fill:#445EA0;" d="M280.185,177.465h-48.369c-4.143,0-7.5-3.357-7.5-7.5s3.357-7.5,7.5-7.5h48.369
		c4.142,0,7.5,3.357,7.5,7.5C287.685,174.107,284.327,177.465,280.185,177.465z"/>
	<path style="fill:#445EA0;" d="M354.185,109.02h-48.369c-4.142,0-7.5-3.357-7.5-7.5s3.358-7.5,7.5-7.5h48.369
		c4.142,0,7.5,3.357,7.5,7.5C361.685,105.662,358.327,109.02,354.185,109.02z"/>
	<path style="fill:#445EA0;" d="M354.185,131.835h-48.369c-4.142,0-7.5-3.358-7.5-7.5c0-4.143,3.358-7.5,7.5-7.5h48.369
		c4.142,0,7.5,3.357,7.5,7.5C361.685,128.477,358.327,131.835,354.185,131.835z"/>
	<path style="fill:#445EA0;" d="M354.185,154.649h-48.369c-4.142,0-7.5-3.357-7.5-7.5s3.358-7.5,7.5-7.5h48.369
		c4.142,0,7.5,3.357,7.5,7.5S358.327,154.649,354.185,154.649z"/>
	<path style="fill:#445EA0;" d="M354.185,177.465h-48.369c-4.142,0-7.5-3.357-7.5-7.5s3.358-7.5,7.5-7.5h48.369
		c4.142,0,7.5,3.357,7.5,7.5C361.685,174.107,358.327,177.465,354.185,177.465z"/>
</g>
<path style="fill:#1A2B63;" d="M208.008,143.532l-21.72-44.943c-1.252-2.59-3.876-4.236-6.753-4.236s-5.501,1.646-6.753,4.236
	l-21.72,44.943c-1.802,3.73-0.24,8.214,3.489,10.017c3.729,1.8,8.214,0.24,10.017-3.489l3.461-7.161h23.012l3.461,7.161
	c1.294,2.678,3.971,4.238,6.759,4.238c1.094,0,2.206-0.241,3.258-0.749C208.248,151.746,209.81,147.262,208.008,143.532z
	 M175.277,127.898l4.258-8.81l4.258,8.81H175.277z"/>
<g>
	<path style="fill:#445EA0;" d="M354.185,32.089h-6.024c-4.143,0-7.5-3.358-7.5-7.5c0-4.143,3.357-7.5,7.5-7.5h6.024
		c4.142,0,7.5,3.357,7.5,7.5C361.685,28.731,358.327,32.089,354.185,32.089z"/>
	<path style="fill:#445EA0;" d="M179.701,32.089h-21.886c-4.143,0-7.5-3.358-7.5-7.5c0-4.143,3.357-7.5,7.5-7.5h21.886
		c4.143,0,7.5,3.357,7.5,7.5C187.201,28.731,183.844,32.089,179.701,32.089z"/>
</g>
<g>
	<path style="fill:#FFAF10;" d="M111.057,281.652c-7.453,4.594-16.222,7.252-25.602,7.252c-6.801,0-13.281-1.397-19.172-3.916
		V422.02c10.747,13.137,22.837,25.129,36.05,35.784c8.626-6.272,104.446-75.942,138.056-100.379L111.057,281.652z"/>
	<path style="fill:#FFAF10;" d="M271.611,357.425c33.605,24.435,129.411,94.094,138.056,100.38
		c13.213-10.656,25.303-22.648,36.05-35.785v-166.6L271.611,357.425z"/>
</g>
<path style="fill:#EF9614;" d="M85.455,288.904c-6.801,0-13.281-1.397-19.172-3.916V422.02c6.184,7.559,12.813,14.739,19.843,21.506
	V288.888C85.901,288.891,85.68,288.904,85.455,288.904z"/>
<path style="fill:#FFD00D;" d="M260.044,348.014c-2.224-1.617-5.864-1.617-8.088,0c0,0-150.27,109.259-150.271,109.261
	c0,0,0.01,0.017,0.012,0.02C143.822,491.493,197.513,512,256,512c58.492,0,112.185-20.509,154.31-54.713l0.007-0.01
	C410.316,457.276,260.044,348.014,260.044,348.014z"/>
<path style="fill:#FE3745;" d="M135.392,239.968c0,27.574-22.358,49.936-49.937,49.936c-27.577,0-49.938-22.362-49.938-49.936
	c0-27.579,22.36-49.937,49.938-49.937C113.033,190.031,135.392,212.389,135.392,239.968z"/>
<path style="fill:#B7092B;" d="M55.36,239.968c0-24.182,17.191-44.346,40.017-48.947c-3.207-0.646-6.524-0.989-9.922-0.989
	c-27.577,0-49.938,22.357-49.938,49.937c0,27.574,22.36,49.936,49.938,49.936c3.397,0,6.715-0.343,9.922-0.989
	C72.552,284.313,55.36,264.145,55.36,239.968z"/>
<path style="fill:#FFFFFF;" d="M86.97,261.61c-2.762,0-5-2.238-5-5v-28.29h-2.568c-2.762,0-5-2.238-5-5s2.238-5,5-5h7.568
	c2.762,0,5,2.238,5,5v33.29C91.97,259.372,89.731,261.61,86.97,261.61z"/>
<path style="fill:#FF9518;" d="M68.932,161.63c0.759,8.463,7.861,15.1,16.523,15.1c8.661,0,15.764-6.637,16.521-15.1H68.932z"/>
<path style="fill:#EF8318;" d="M80.271,161.63h-11.34c0.759,8.463,7.861,15.1,16.523,15.1c1.995,0,3.899-0.37,5.671-1.016
	C85.205,173.559,80.855,168.141,80.271,161.63z"/>
<path style="fill:#FF9518;" d="M126.23,125.833V88.739c0-19.799-16.199-35.998-35.998-35.998h-9.556
	c-19.8,0-35.998,16.199-35.998,35.998v37.094H126.23z"/>
<path style="fill:#EF8318;" d="M64.521,125.833V88.739c0-18.053,13.469-33.107,30.854-35.622c-1.682-0.243-3.397-0.376-5.144-0.376
	h-9.556c-19.8,0-35.998,16.199-35.998,35.998v37.094H64.521z"/>
<path style="fill:#FFD00D;" d="M139.433,156.63c0,3.299-2.7,6-5.999,6H37.477c-3.301,0-6.001-2.701-6.001-6v-25.798
	c0-3.299,2.7-5.999,6.001-5.999h95.957c3.299,0,5.999,2.7,5.999,5.999V156.63z"/>
<path style="fill:#FFAF10;" d="M51.318,156.63v-25.798c0-3.299,2.7-5.999,6.001-5.999H37.477c-3.301,0-6.001,2.7-6.001,5.999v25.798
	c0,3.299,2.7,6,6.001,6H57.32C54.019,162.63,51.318,159.929,51.318,156.63z"/>
<g>
</g>
<g>
</g>
<g>
</g>
<g>
</g>
<g>
</g>
<g>
</g>
<g>
</g>
<g>
</g>
<g>
</g>
<g>
</g>
<g>
</g>
<g>
</g>
<g>
</g>
<g>
</g>
<g>
</g>
</svg>
