<svg id="Capa_1" enable-background="new 0 0 512 512" height="512" viewBox="0 0 512 512" width="512" xmlns="http://www.w3.org/2000/svg"><path d="m445.234 422.619c34.841-42.318 55.766-96.524 55.766-155.619 0-135.31-109.69-245-245-245s-245 109.69-245 245c0 75.595 34.246 143.184 88.06 188.126z" fill="#003370"/><path d="m388.941 0h-263.122c-15.736 0-28.492 12.756-28.492 28.492 0 15.736 12.757 28.492 28.492 28.492h263.121c14.234 0 25.88 11.646 25.88 25.88v-56.984c0-14.234-11.646-25.88-25.879-25.88z" fill="#ffc533"/><path d="m125.82 27h43.642c-.611-.67-1.319-1.337-2.135-2-17.834-14.486 0-25 0-25h-41.507c-15.736 0-28.493 12.756-28.493 28.492 0 4.893 1.235 9.497 3.407 13.52 4.811-8.931 14.23-15.012 25.086-15.012z" fill="#f9a52b"/><path d="m384.697 25h-258.878c-11.252 0-20.976 6.523-25.607 15.993 4.631 9.469 14.356 15.992 25.607 15.992h263.001v-27.862c0-2.277-1.846-4.123-4.123-4.123z" fill="#ebf1f7"/><path d="m165.928 25.034c.463-.022.929-.034 1.398-.034h-41.506c-11.252 0-20.976 6.523-25.607 15.993 4.631 9.469 14.356 15.992 25.607 15.992h41.507c-.469 0-.935-.011-1.398-.034-19.821-.958-19.821-30.959-.001-31.917z" fill="#cee3f4"/><path d="m432.606 80.243h-23.786v98.83h23.785c7.425 0 13.5-6.075 13.5-13.5v-71.83c.001-7.425-6.074-13.5-13.499-13.5z" fill="#0090fc"/><path d="m432.606 131.715h-23.785v47.358h23.785c7.425 0 13.5-6.075 13.5-13.5v-47.358c0 7.424-6.075 13.5-13.5 13.5z" fill="#0065c6"/><path d="m432.606 179.072h-23.786v98.83h23.785c7.425 0 13.5-6.075 13.5-13.5v-71.83c.001-7.425-6.074-13.5-13.499-13.5z" fill="#65d2fc"/><path d="m432.606 230.544h-23.785v47.358h23.785c7.425 0 13.5-6.075 13.5-13.5v-47.358c0 7.425-6.075 13.5-13.5 13.5z" fill="#33bafe"/><path d="m432.606 277.902h-23.786v98.829h23.785c7.425 0 13.5-6.075 13.5-13.5v-71.829c.001-7.425-6.074-13.5-13.499-13.5z" fill="#6edb9a"/><path d="m432.606 329.374h-23.785v47.358h23.785c7.425 0 13.5-6.075 13.5-13.5v-47.358c0 7.424-6.075 13.5-13.5 13.5z" fill="#71c994"/><path d="m408.82 458.488c13.707-10.954 26.211-23.345 37.285-36.951v-31.305c0-7.425-6.075-13.5-13.5-13.5h-23.785z" fill="#e25ca5"/><path d="m432.606 428.059h-23.785v30.429c13.707-10.953 26.211-23.345 37.285-36.951v-6.978c0 7.425-6.075 13.5-13.5 13.5z" fill="#dd3f95"/><path d="m73.394 95.859c-4.143 0-7.5-3.357-7.5-7.5 0-11.583 9.423-21.006 21.006-21.006h10.427c4.143 0 7.5 3.357 7.5 7.5s-3.357 7.5-7.5 7.5h-10.427c-3.312 0-6.006 2.694-6.006 6.006 0 4.143-3.357 7.5-7.5 7.5z" fill="#b0d4ea"/><path d="m73.394 145.274c-4.143 0-7.5-3.357-7.5-7.5 0-11.583 9.423-21.006 21.006-21.006h10.427c4.143 0 7.5 3.357 7.5 7.5s-3.357 7.5-7.5 7.5h-10.427c-3.312 0-6.006 2.694-6.006 6.006 0 4.143-3.357 7.5-7.5 7.5z" fill="#b0d4ea"/><path d="m73.394 194.688c-4.143 0-7.5-3.357-7.5-7.5 0-11.583 9.423-21.006 21.006-21.006h10.427c4.143 0 7.5 3.357 7.5 7.5s-3.357 7.5-7.5 7.5h-10.427c-3.312 0-6.006 2.694-6.006 6.006 0 4.143-3.357 7.5-7.5 7.5z" fill="#b0d4ea"/><path d="m73.394 244.103c-4.143 0-7.5-3.357-7.5-7.5 0-11.583 9.423-21.006 21.006-21.006h10.427c4.143 0 7.5 3.357 7.5 7.5s-3.357 7.5-7.5 7.5h-10.427c-3.312 0-6.006 2.694-6.006 6.006 0 4.143-3.357 7.5-7.5 7.5z" fill="#b0d4ea"/><path d="m73.394 293.518c-4.143 0-7.5-3.357-7.5-7.5 0-11.583 9.423-21.006 21.006-21.006h10.427c4.143 0 7.5 3.358 7.5 7.5 0 4.143-3.357 7.5-7.5 7.5h-10.427c-3.312 0-6.006 2.694-6.006 6.006 0 4.143-3.357 7.5-7.5 7.5z" fill="#b0d4ea"/><path d="m73.394 342.933c-4.143 0-7.5-3.357-7.5-7.5 0-11.583 9.423-21.006 21.006-21.006h10.427c4.143 0 7.5 3.357 7.5 7.5s-3.357 7.5-7.5 7.5h-10.427c-3.312 0-6.006 2.694-6.006 6.006 0 4.143-3.357 7.5-7.5 7.5z" fill="#b0d4ea"/><path d="m73.394 441.762c-4.143 0-7.5-3.357-7.5-7.5 0-11.583 9.423-21.006 21.006-21.006h10.427c4.143 0 7.5 3.357 7.5 7.5s-3.357 7.5-7.5 7.5h-10.427c-3.312 0-6.006 2.694-6.006 6.006 0 4.143-3.357 7.5-7.5 7.5z" fill="#b0d4ea"/><path d="m73.394 392.347c-4.143 0-7.5-3.357-7.5-7.5 0-11.583 9.423-21.006 21.006-21.006h10.427c4.143 0 7.5 3.358 7.5 7.5 0 4.143-3.357 7.5-7.5 7.5h-10.427c-3.312 0-6.006 2.694-6.006 6.006 0 4.143-3.357 7.5-7.5 7.5z" fill="#b0d4ea"/><path d="m388.94 55.985h-263.123c-15.735-.001-28.49-12.757-28.49-28.493v47.841 378.327c42.75 36.377 98.143 58.34 158.673 58.34 60.6 0 116.05-22.013 158.82-58.464v-371.671c0-14.234-11.645-25.88-25.88-25.88z" fill="#fce453"/><path d="m414.821 453.536v-25.49h-290.004c-13.144-.001-24.203-8.905-27.49-21.009v46.623c42.75 36.377 98.143 58.34 158.673 58.34 60.6 0 116.05-22.013 158.821-58.464z" fill="#ffc533"/><path d="m125.819 55.985c-15.736 0-28.493-12.756-28.493-28.493v47.841 378.327c19.509 16.6 41.65 30.192 65.713 40.068v-437.743h-10.814z" fill="#ffc533"/><path d="m124.817 428.046c-13.144-.001-24.202-8.904-27.49-21.008v46.622c19.509 16.6 41.65 30.192 65.713 40.068v-65.683h-38.223z" fill="#f9a52b"/><g fill="#ebf1f7"><path d="m130.184 109.365h-43.284c-11.583 0-21.006-9.423-21.006-21.006 0-4.143 3.357-7.5 7.5-7.5s7.5 3.357 7.5 7.5c0 3.311 2.694 6.006 6.006 6.006h43.283c4.143 0 7.5 3.357 7.5 7.5s-3.357 7.5-7.499 7.5z"/><path d="m130.184 158.779h-43.284c-11.583 0-21.006-9.423-21.006-21.005 0-4.143 3.357-7.5 7.5-7.5s7.5 3.357 7.5 7.5c0 3.311 2.694 6.005 6.006 6.005h43.283c4.143 0 7.5 3.357 7.5 7.5.001 4.143-3.357 7.5-7.499 7.5z"/><path d="m130.184 208.194h-43.284c-11.583 0-21.006-9.423-21.006-21.006 0-4.143 3.357-7.5 7.5-7.5s7.5 3.357 7.5 7.5c0 3.311 2.694 6.006 6.006 6.006h43.283c4.143 0 7.5 3.357 7.5 7.5.001 4.143-3.357 7.5-7.499 7.5z"/><path d="m130.184 257.609h-43.284c-11.583 0-21.006-9.423-21.006-21.006 0-4.143 3.357-7.5 7.5-7.5s7.5 3.357 7.5 7.5c0 3.311 2.694 6.006 6.006 6.006h43.283c4.143 0 7.5 3.357 7.5 7.5s-3.357 7.5-7.499 7.5z"/><path d="m130.184 307.024h-43.284c-11.583 0-21.006-9.423-21.006-21.006 0-4.143 3.357-7.5 7.5-7.5s7.5 3.357 7.5 7.5c0 3.312 2.694 6.006 6.006 6.006h43.283c4.143 0 7.5 3.357 7.5 7.5.001 4.143-3.357 7.5-7.499 7.5z"/><path d="m130.184 356.438h-43.284c-11.583 0-21.006-9.423-21.006-21.005 0-4.142 3.357-7.5 7.5-7.5s7.5 3.358 7.5 7.5c0 3.312 2.694 6.005 6.006 6.005h43.283c4.143 0 7.5 3.357 7.5 7.5.001 4.143-3.357 7.5-7.499 7.5z"/><path d="m130.184 455.268h-43.284c-11.583 0-21.006-9.423-21.006-21.006 0-4.142 3.357-7.5 7.5-7.5s7.5 3.358 7.5 7.5c0 3.312 2.694 6.006 6.006 6.006h43.283c4.143 0 7.5 3.357 7.5 7.5.001 4.143-3.357 7.5-7.499 7.5z"/><path d="m130.184 405.853h-43.284c-11.583 0-21.006-9.423-21.006-21.006 0-4.143 3.357-7.5 7.5-7.5s7.5 3.357 7.5 7.5c0 3.312 2.694 6.006 6.006 6.006h43.283c4.143 0 7.5 3.357 7.5 7.5.001 4.143-3.357 7.5-7.499 7.5z"/></g><circle cx="275.958" cy="219.17" fill="#65d2fc" r="83.393"/><path d="m338.859 269.642c-73.754-22.288-89.497-55.311-105.012-88.02-17.585-3.856-13.011-23.477-12.536-25.335-17.609 15.29-28.745 37.84-28.745 62.992 0 46.056 37.336 83.393 83.393 83.393 26.594 0 50.28-12.449 65.55-31.837-.667-.72-1.655-.892-2.65-1.193z" fill="#33bafe"/><path d="m335.786 267.523c-9.305-5.247-18.767-9.131-29.175-11.533-4.742-4.742-5.944-13.732-6.161-20.022-2.475 2.883-5.072 5.294-7.554 7.221-4.835 3.755-10.802 5.794-16.947 5.794s-12.112-2.04-16.947-5.794c-2.482-1.927-5.079-4.338-7.554-7.221-.216 6.29-1.419 15.28-6.161 20.022-10.409 2.402-19.87 6.286-29.175 11.533-2.517 1.419-4.102 2.438-5.839 3.03 15.265 19.487 39.012 32.01 65.685 32.01 26.671 0 50.416-12.521 65.681-32.005-1.743-.592-3.33-1.613-5.853-3.035z" fill="#fca870"/><path d="m275.949 248.983c-6.145 0-12.112-2.04-16.947-5.794-2.482-1.927-5.079-4.338-7.554-7.221-.217 6.29-1.419 15.28-6.161 20.022-10.409 2.402-19.87 6.286-29.175 11.533-2.517 1.419-4.102 2.438-5.839 3.03 8.968 11.448 20.866 20.488 34.562 26.002 7.709-4.265 14.421-8.657 18.424-12.66 10.307-10.307 12.655-25.957 13.102-34.92-.138.001-.275.008-.412.008z" fill="#f9955f"/><path d="m335.786 266.299c-8.165-4.604-16.451-6.934-25.392-9.358-2.977 17.92-17.077 31.496-34.033 31.496-17.023 0-31.166-13.684-34.067-31.709-18.69 4.851-26.868 11.194-32.807 12.799 15.229 20.07 39.334 33.035 66.471 33.035 27.122 0 51.215-12.951 66.445-33.002-2.07-.534-3.732-1.634-6.617-3.261z" fill="#e779b5"/><path d="m242.293 256.728c-18.69 4.851-26.867 11.194-32.806 12.799 6.586 8.679 14.834 16.026 24.268 21.574l16.239-7.566c1.165-1.94 2.352-3.472 3.534-4.688-5.757-5.637-9.825-13.362-11.235-22.119z" fill="#e25ca5"/><path d="m322.312 182.125c-1.916-1.757-5.734-.866-7.385.209.362 2.252.382 4.555.07 6.831l-1.948 14.187c0 1.143-.036 2.265-.102 3.368 4.75 1.433 7.109-2.831 7.507-5.758.171-1.26.451-2.501.839-3.713 1.263-3.946 5.821-10.724 1.019-15.124z" fill="#fca870"/><path d="m229.587 182.125c1.917-1.757 5.734-.866 7.385.209-.361 2.252-.382 4.555-.07 6.831l1.948 14.187c0 1.143.036 2.265.102 3.368-4.75 1.433-7.109-2.831-7.507-5.758-.171-1.26-.451-2.501-.839-3.713-1.263-3.946-5.821-10.724-1.019-15.124z" fill="#f9955f"/><path d="m267.755 120.045c-24.607 3.353-26.945 17.304-26.956 22.423-.002 1.073-.597 2.068-1.562 2.538-12.8 6.227-5.899 36.236-5.899 36.236 1.285.086 2.631.606 3.634 1.092.245-1.529.647-3.035 1.213-4.49.432-1.109.971-2.229 1.646-3.288 1.171-1.836 1.704-4.003 1.544-6.168-.46-6.261-.238-18.597 8.026-22.315 7.001-3.15 15.589-1.326 21.065.495 3.557 1.183 7.409 1.183 10.966 0 5.477-1.821 14.064-3.645 21.065-.495 8.24 3.708 8.484 15.984 8.029 22.262-.158 2.182.361 4.371 1.54 6.222.696 1.092 1.249 2.251 1.687 3.395.545 1.422.933 2.891 1.172 4.383 1.265-.613 3.073-1.28 4.619-1.061.189-6.562.795-13.636.795-13.636 7.294-35.716-26.089-51.203-52.584-47.593z" fill="#0052a9"/><path d="m267.755 120.045c-24.607 3.353-26.945 17.304-26.956 22.423-.003 1.073-.597 2.068-1.562 2.538-12.799 6.227-5.899 36.236-5.899 36.236 1.286.086 2.631.606 3.634 1.092.246-1.529.647-3.035 1.213-4.49.432-1.109.971-2.229 1.646-3.288 1.171-1.836 1.704-4.003 1.544-6.168-.46-6.261-.238-18.597 8.026-22.315 6.621-2.979 14.658-1.509 20.144.2l-.258-.779s-12.323-16.222 8.023-25.925c-3.228-.105-6.439.051-9.555.476z" fill="#003370"/><path d="m276.361 285.389c-3.195-4.939-6.346-7.532-6.346-7.532l-8.14 13.074c3.889 2.503 5.658 7.4 6.464 11.282.376.034.752.071 1.13.1 1.196-7.31 4.155-13.006 6.892-16.924z" fill="#c6237c"/><path d="m269.282 302.296c2.203.174 4.428.266 6.676.266 2.563 0 5.097-.122 7.602-.348.807-3.884 2.575-8.781 6.463-11.284l-8.14-13.074c0 .001-10.496 8.633-12.601 24.44z" fill="#dd3f95"/><path d="m270.268 277.744c-16.234-8.978-20.033-22.346-20.633-27.465-.106-.907-1.156-1.355-1.892-.815l-10.319 8.057c-.586.43-.868 1.172-.691 1.877 4.372 17.402 18.427 30.109 24.622 35.007 1.577 1.247 3.877.885 4.999-.783 1.587-2.359 3.832-5.695 5.685-8.448 1.731-2.57.941-5.93-1.771-7.43z" fill="#e25ca5"/><path d="m268.724 276.854-.004-.003z" fill="#dd3f95"/><path d="m267.397 276.031c-13.82-8.887-17.199-20.948-17.762-25.752-.106-.907-1.156-1.355-1.892-.815l-10.319 8.057c-.587.43-.868 1.172-.691 1.877 2.431 9.678 7.857 17.9 13.26 24.137 6.839-11.384 14.407-9.071 17.404-7.504z" fill="#dd3f95"/><path d="m314.474 257.521-10.319-8.057c-.736-.54-1.786-.092-1.892.815-.6 5.12-4.399 18.487-20.633 27.465-2.711 1.5-3.502 4.859-1.772 7.43 1.853 2.753 4.098 6.089 5.685 8.448 1.122 1.668 3.422 2.029 4.999.783 6.195-4.898 20.251-17.605 24.622-35.007.178-.705-.104-1.447-.69-1.877z" fill="#e25ca5"/><path d="m312.632 174.196c-1.076-1.688-1.586-3.753-1.437-5.813.501-6.92.073-19.098-8.423-22.921-7.073-3.183-15.623-1.501-21.551.47-3.4 1.132-7.145 1.132-10.545 0-5.927-1.971-14.478-3.654-21.55-.47-8.512 3.83-8.928 16.038-8.419 22.975.306 4.172-1.739 5.549-3.147 9.164-3.275 8.415-.402 14.658.619 25.796.019 23.561 14.279 37.18 20.412 41.943 10.128 7.864 24.477 7.949 34.715 0 6.133-4.763 20.393-18.382 20.412-41.943l1.942-14.142c.783-5.699-.559-11.187-3.028-15.059z" fill="#f9bd91"/><path d="m275.932 245.34c-4.277-4.763-14.22-18.382-14.234-41.943-.712-11.138-2.716-17.381-.432-25.796.982-3.615 2.408-4.992 2.194-9.164-.355-6.919-.066-19.08 5.826-22.943-5.824-1.758-13.622-2.975-20.161-.032-8.512 3.83-8.928 16.038-8.419 22.975.306 4.172-1.739 5.549-3.147 9.164-3.275 8.415-.402 14.658.619 25.796.019 23.561 14.279 37.18 20.412 41.943 7.052 5.476 16.15 7.175 24.482 5.022-2.543-.943-4.979-2.617-7.14-5.022z" fill="#fca870"/><circle cx="341.971" cy="290.079" fill="#6edb9a" r="41.864"/><path d="m315.117 372.146h-65.004c-4.143 0-7.5-3.357-7.5-7.5 0-4.142 3.357-7.5 7.5-7.5h65.004c4.142 0 7.5 3.358 7.5 7.5 0 4.143-3.357 7.5-7.5 7.5z" fill="#ffc533"/><path d="m357.741 405.329h-150.251c-4.143 0-7.5-3.357-7.5-7.5s3.357-7.5 7.5-7.5h150.251c4.143 0 7.5 3.357 7.5 7.5 0 4.142-3.357 7.5-7.5 7.5z" fill="#fff0b3"/><path d="m357.741 438.512h-150.251c-4.143 0-7.5-3.358-7.5-7.5 0-4.143 3.357-7.5 7.5-7.5h150.251c4.143 0 7.5 3.357 7.5 7.5 0 4.142-3.357 7.5-7.5 7.5z" fill="#fff0b3"/><path d="m341.971 331.943c11.153 0 21.28-4.37 28.783-11.48-8.649-.002-7.324-7.442-7.324-7.442s-14.52.215-30.52-13.452-9.352-35.176-9.352-35.176c-8.096-1.185-5.803-8.451-5.803-8.452-10.676 7.587-17.648 20.044-17.648 34.139.001 23.12 18.744 41.863 41.864 41.863z" fill="#71c994"/><path d="m365.763 310.663c1.003-2.193.173-4.72-1.908-5.815l-9.74-5.126c-1.042-.548-2.339-.403-3.28.369l-3.091 2.534c-.929.762-2.206.917-3.242.389-7.037-3.588-12.862-11.069-14.841-18.1-.315-1.12.088-2.341 1.017-3.103l3.091-2.534c.941-.772 1.338-2.015 1.005-3.144l-3.118-10.555c-.666-2.255-2.982-3.564-5.329-3.01-1.104.26-2.089.91-2.768 1.825l-2.329 3.139c-2.646 3.566-3.874 7.957-3.358 12.256 1.412 11.762 9.614 22.045 9.614 22.045s8.476 10.058 19.734 13.747c4.115 1.349 8.662 1.005 12.677-.891l3.535-1.669c1.029-.487 1.859-1.325 2.331-2.357z" fill="#ebf1f7"/><path d="m328.702 302.27c0-3.157 2.559-5.716 5.716-5.716.839 0 1.634.185 2.352.51-3.366-3.595-5.927-7.95-7.109-12.15-.315-1.12.088-2.341 1.017-3.103l3.091-2.534c.941-.772 1.338-2.015 1.004-3.144l-3.117-10.555c-.666-2.255-2.982-3.564-5.329-3.01-1.104.26-2.089.91-2.768 1.825l-2.329 3.139c-2.646 3.566-3.874 7.957-3.358 12.256 1.412 11.762 9.614 22.045 9.614 22.045s.463.548 1.308 1.429c-.057-.323-.092-.653-.092-.992z" fill="#cee3f4"/></svg>