<svg height="512pt" viewBox="0 0 512.001 512" width="512pt" xmlns="http://www.w3.org/2000/svg"><path d="m512 256c0 141.386719-114.613281 256-256 256s-256-114.613281-256-256c0-141.382812 114.613281-256 256-256s256 114.617188 256 256zm0 0" fill="#584496"/><path d="m346.574219 74.988281h-181.144531c-4.847657 0-8.773438 3.929688-8.773438 8.773438v97.246093c0 4.84375 3.925781 8.773438 8.773438 8.773438h181.144531c4.84375 0 8.773437-3.929688 8.773437-8.773438v-97.246093c0-4.84375-3.929687-8.773438-8.773437-8.773438zm0 0" fill="#85d0f9"/><path d="m236.839844 74.988281h-71.414063c-4.84375 0-8.773437 3.929688-8.773437 8.773438v97.246093c0 4.84375 3.929687 8.773438 8.773437 8.773438h71.414063zm0 0" fill="#48a4ef"/><path d="m196.746094 181.007812v-97.246093c0-4.84375 3.929687-8.773438 8.773437-8.773438h-40.09375c-4.84375 0-8.773437 3.929688-8.773437 8.773438v97.246093c0 4.84375 3.929687 8.773438 8.773437 8.773438h40.09375c-4.84375 0-8.773437-3.925781-8.773437-8.773438zm0 0" fill="#5091de"/><path d="m292.488281 369.835938h-72.976562c-10.128907 0-18.414063 8.289062-18.414063 18.414062v117.828125c17.6875 3.867187 36.054688 5.921875 54.902344 5.921875s37.214844-2.054688 54.902344-5.921875v-117.828125c0-10.125-8.285156-18.414062-18.414063-18.414062zm0 0" fill="#48a4ef"/><path d="m224.277344 388.25c0-7.140625 2.832031-13.628906 7.425781-18.410156h-12.191406c-10.125 0-18.414063 8.285156-18.414063 18.410156v117.828125c7.605469 1.664063 15.339844 2.96875 23.179688 3.941406zm0 0" fill="#5091de"/><path d="m292.488281 361.636719h-72.976562c-14.675781 0-26.613281 11.941406-26.613281 26.613281v115.90625c5.402343 1.367188 10.871093 2.5625 16.398437 3.582031v-119.488281c0-5.640625 4.574219-10.210938 10.214844-10.210938h4.359375c2.046875 0 3.875 1.289063 4.542968 3.226563 2.144532 6.222656 8.0625 10.726563 14.992188 10.726563h25.191406c7.140625 0 13.207032-4.785157 15.179688-11.304688.46875-1.558594 1.867187-2.648438 3.496094-2.648438h5.214843c5.644531 0 10.214844 4.570313 10.214844 10.214844v119.484375c5.53125-1.019531 11-2.214843 16.398437-3.582031v-115.90625c0-14.671875-11.9375-26.613281-26.613281-26.613281zm0 0" fill="#eceeed"/><path d="m250.890625 361.636719h-31.378906c-14.675781 0-26.613281 11.941406-26.613281 26.613281v115.90625c5.398437 1.367188 10.871093 2.5625 16.398437 3.582031v-119.488281c0-5.640625 4.574219-10.210938 10.214844-10.210938h4.359375c.796875 0 1.554687.199219 2.230468.550782 3.875-9.910156 13.523438-16.953125 24.789063-16.953125zm0 0" fill="#d1d0d6"/><path d="m346.574219 218.207031h-181.144531c-4.847657 0-8.773438 3.925781-8.773438 8.773438v97.246093c0 4.84375 3.925781 8.773438 8.773438 8.773438h181.144531c4.84375 0 8.773437-3.929688 8.773437-8.773438v-97.246093c0-4.847657-3.929687-8.773438-8.773437-8.773438zm0 0" fill="#eceeed"/><path d="m196.746094 324.226562v-97.246093c0-4.847657 3.929687-8.773438 8.773437-8.773438h-40.09375c-4.84375 0-8.773437 3.929688-8.773437 8.773438v97.246093c0 4.84375 3.929687 8.773438 8.773437 8.773438h40.09375c-4.84375 0-8.773437-3.925781-8.773437-8.773438zm0 0" fill="#d1d0d6"/><path d="m504.339844 233.625-110.539063-14.152344c-5.246093-.671875-9.886719 3.414063-9.886719 8.703125v98.445313c0 3.804687 2.449219 7.171875 6.066407 8.347656l97.03125 31.472656c16.015625-33.441406 24.988281-70.890625 24.988281-110.441406 0-5.628906-.203125-11.210938-.558594-16.753906-1.117187-2.964844-3.792968-5.199219-7.101562-5.621094zm0 0" fill="#48a4ef"/><path d="m122.019531 334.96875c3.617188-1.175781 6.070313-4.542969 6.070313-8.347656v-98.445313c0-5.289062-4.644532-9.375-9.890625-8.703125l-110.539063 14.152344c-3.308594.421875-5.984375 2.65625-7.101562 5.621094-.355469 5.542968-.558594 11.125-.558594 16.753906 0 39.550781 8.972656 77.003906 24.988281 110.441406zm0 0" fill="#fab94f"/><path d="m502.480469 64.867188-110.539063 9.4375c-4.542968.386718-8.027344 4.183593-8.027344 8.742187v98.882813c0 4.46875 3.359376 8.226562 7.804688 8.71875l110.542969 12.265624c5.195312.578126 9.738281-3.492187 9.738281-8.71875v-120.585937c0-5.140625-4.398438-9.179687-9.519531-8.742187zm0 0" fill="#6cb964"/><path d="m435.320312 343.441406v-108.140625c0-4.757812 3.484376-8.753906 8.125-9.472656l-49.644531-6.355469c-5.246093-.671875-9.886719 3.414063-9.886719 8.703125v98.445313c0 3.804687 2.449219 7.171875 6.066407 8.347656l48.777343 15.820312c-2.109374-1.769531-3.4375-4.414062-3.4375-7.347656zm0 0" fill="#5091de"/><path d="m435.320312 187.425781v-108.140625c0-4.472656 3.074219-8.265625 7.292969-9.308594l-50.671875 4.328126c-4.542968.386718-8.027344 4.183593-8.027344 8.742187v98.882813c0 4.46875 3.359376 8.226562 7.804688 8.71875l49.113281 5.449218c-3.28125-1.546875-5.511719-4.867187-5.511719-8.671875zm0 0" fill="#5ba852"/><path d="m120.058594 74.304688-110.539063-9.4375c-5.121093-.4375-9.519531 3.601562-9.519531 8.742187v120.585937c0 5.226563 4.542969 9.292969 9.742188 8.71875l110.539062-12.265624c4.445312-.492188 7.808594-4.25 7.808594-8.71875v-98.882813c-.003906-4.558594-3.488282-8.355469-8.03125-8.742187zm0 0" fill="#f37254"/><path d="m51.496094 347.28125v-114.566406c0-1.839844.597656-3.535156 1.597656-4.90625l-45.433594 5.816406c-3.308594.425781-5.984375 2.65625-7.101562 5.621094-.355469 5.542968-.558594 11.125-.558594 16.753906 0 39.550781 8.972656 77.003906 24.988281 110.441406l33.65625-10.917968c-3.996093-.570313-7.148437-4-7.148437-8.242188zm0 0" fill="#f79552"/><path d="m51.496094 194.195312v-120.585937c0-1.875.59375-3.605469 1.585937-5.023437l-43.5625-3.71875c-5.121093-.4375-9.519531 3.601562-9.519531 8.742187v120.585937c0 5.226563 4.542969 9.296876 9.742188 8.71875l42.71875-4.742187c-.609376-1.191406-.964844-2.539063-.964844-3.976563zm0 0" fill="#ef4e57"/><path d="m196.128906 130.371094c-10.253906.363281-18.230468 9.101562-18.230468 19.363281v5.085937c0 3.210938 2.601562 5.8125 5.8125 5.8125h26.597656c3 0 5.429687-2.433593 5.429687-5.433593v-5.921875c0-10.675782-8.84375-19.289063-19.609375-18.90625zm0 0" fill="#5f6abb"/><path d="m209.929688 117.25c0 7.238281-5.871094 13.109375-13.109376 13.109375-7.242187 0-13.109374-5.871094-13.109374-13.109375 0-7.242188 5.867187-13.109375 13.109374-13.109375 7.238282 0 13.109376 5.867187 13.109376 13.109375zm0 0" fill="#fcd2a4"/><path d="m193.523438 154.820312v-5.085937c0-8.816406 3.460937-16.488281 8.25-18.710937-1.792969-.484376-3.683594-.722657-5.644532-.652344-10.253906.367187-18.230468 9.101562-18.230468 19.363281v5.085937c0 3.210938 2.601562 5.8125 5.8125 5.8125h13.226562c-1.882812-.003906-3.414062-2.605468-3.414062-5.8125zm0 0" fill="#584496"/><path d="m196.9375 117.25c0-5.5 1.988281-10.199219 4.804688-12.148438-1.519532-.613281-3.179688-.960937-4.921876-.960937-7.242187 0-13.109374 5.867187-13.109374 13.109375 0 7.238281 5.867187 13.109375 13.109374 13.109375 1.742188 0 3.402344-.347656 4.921876-.964844-2.816407-1.949219-4.804688-6.648437-4.804688-12.144531zm0 0" fill="#f2ba88"/><path d="m323.132812 111.660156h-57.292968c-4.527344 0-8.199219-3.671875-8.199219-8.199218 0-4.53125 3.671875-8.203126 8.199219-8.203126h57.292968c4.527344 0 8.199219 3.671876 8.199219 8.203126-.003906 4.527343-3.671875 8.199218-8.199219 8.199218zm0 0" fill="#d0f2fc"/><path d="m323.132812 139.683594h-57.292968c-4.527344 0-8.199219-3.671875-8.199219-8.199219 0-4.53125 3.671875-8.199219 8.199219-8.199219h57.292968c4.527344 0 8.199219 3.667969 8.199219 8.199219-.003906 4.527344-3.671875 8.199219-8.199219 8.199219zm0 0" fill="#d0f2fc"/><path d="m323.132812 167.707031h-57.292968c-4.527344 0-8.199219-3.671875-8.199219-8.199219 0-4.53125 3.671875-8.199218 8.199219-8.199218h57.292968c4.527344 0 8.199219 3.667968 8.199219 8.199218-.003906 4.527344-3.671875 8.199219-8.199219 8.199219zm0 0" fill="#d0f2fc"/><g fill="#85d0f9"><path d="m279.179688 434.496094h-46.359376c-4.527343 0-8.199218-3.671875-8.199218-8.199219 0-4.53125 3.671875-8.199219 8.199218-8.199219h46.359376c4.527343 0 8.199218 3.667969 8.199218 8.199219 0 4.527344-3.671875 8.199219-8.199218 8.199219zm0 0"/><path d="m279.179688 462.515625h-46.359376c-4.527343 0-8.199218-3.667969-8.199218-8.199219 0-4.527344 3.671875-8.199218 8.199218-8.199218h46.359376c4.527343 0 8.199218 3.671874 8.199218 8.199218 0 4.53125-3.671875 8.199219-8.199218 8.199219zm0 0"/><path d="m279.179688 490.542969h-46.359376c-4.527343 0-8.199218-3.671875-8.199218-8.199219 0-4.53125 3.671875-8.199219 8.199218-8.199219h46.359376c4.527343 0 8.199218 3.671875 8.199218 8.199219s-3.671875 8.199219-8.199218 8.199219zm0 0"/><path d="m464.417969 271.359375c-.460938 0-.929688-.035156-1.398438-.117187l-45.097656-7.746094c-4.460937-.769532-7.457031-5.007813-6.691406-9.46875.765625-4.464844 5-7.46875 9.46875-6.695313l45.097656 7.746094c4.464844.765625 7.460937 5.007813 6.691406 9.46875-.683593 3.992187-4.152343 6.8125-8.070312 6.8125zm0 0"/><path d="m476.609375 303.664062c-.554687 0-1.125-.054687-1.691406-.175781l-57.292969-12.027343c-4.429688-.929688-7.269531-5.277344-6.339844-9.707032.933594-4.433594 5.277344-7.265625 9.710938-6.339844l57.289062 12.027344c4.433594.929688 7.273438 5.273438 6.339844 9.707032-.808594 3.863281-4.21875 6.515624-8.015625 6.515624zm0 0"/><path d="m444.496094 327.484375c-.703125 0-1.414063-.089844-2.125-.28125l-25.175782-6.726563c-4.375-1.167968-6.976562-5.664062-5.804687-10.035156 1.167969-4.375 5.660156-6.972656 10.035156-5.808594l25.179688 6.726563c4.375 1.171875 6.972656 5.664063 5.804687 10.039063-.976562 3.667968-4.292968 6.085937-7.914062 6.085937zm0 0"/></g><path d="m325.316406 255.777344h-25.585937c-4.527344 0-8.199219-3.667969-8.199219-8.199219 0-4.527344 3.671875-8.199219 8.199219-8.199219h25.585937c4.527344 0 8.199219 3.671875 8.199219 8.199219 0 4.53125-3.667969 8.199219-8.199219 8.199219zm0 0" fill="#d1d0d6"/><path d="m325.316406 283.800781h-25.585937c-4.527344 0-8.199219-3.667969-8.199219-8.199219 0-4.527343 3.671875-8.199218 8.199219-8.199218h25.585937c4.527344 0 8.199219 3.671875 8.199219 8.199218 0 4.53125-3.667969 8.199219-8.199219 8.199219zm0 0" fill="#d1d0d6"/><path d="m325.316406 311.828125h-25.585937c-4.527344 0-8.199219-3.671875-8.199219-8.199219 0-4.53125 3.671875-8.199218 8.199219-8.199218h25.585937c4.527344 0 8.199219 3.667968 8.199219 8.199218 0 4.527344-3.667969 8.199219-8.199219 8.199219zm0 0" fill="#d1d0d6"/><path d="m275.027344 255.777344h-.441406c-4.527344 0-8.199219-3.667969-8.199219-8.199219 0-4.527344 3.671875-8.199219 8.199219-8.199219h.441406c4.527344 0 8.199218 3.671875 8.199218 8.199219 0 4.53125-3.671874 8.199219-8.199218 8.199219zm0 0" fill="#6cb964"/><path d="m275.027344 283.800781h-.441406c-4.527344 0-8.199219-3.667969-8.199219-8.199219 0-4.527343 3.671875-8.199218 8.199219-8.199218h.441406c4.527344 0 8.199218 3.671875 8.199218 8.199218 0 4.53125-3.671874 8.199219-8.199218 8.199219zm0 0" fill="#48a4ef"/><path d="m275.027344 311.828125h-.441406c-4.527344 0-8.199219-3.671875-8.199219-8.199219 0-4.53125 3.671875-8.199218 8.199219-8.199218h.441406c4.527344 0 8.199218 3.667968 8.199218 8.199218 0 4.527344-3.671874 8.199219-8.199218 8.199219zm0 0" fill="#fab94f"/><path d="m216.1875 312.59375c-20.398438 0-36.988281-16.59375-36.988281-36.992188 0-20.394531 16.589843-36.988281 36.988281-36.988281 4.527344 0 8.199219 3.671875 8.199219 8.199219s-3.671875 8.199219-8.199219 8.199219c-11.351562 0-20.589844 9.238281-20.589844 20.589843 0 11.351563 9.234375 20.589844 20.589844 20.589844 4.527344 0 8.199219 3.671875 8.199219 8.199219 0 4.53125-3.671875 8.203125-8.199219 8.203125zm0 0" fill="#fab94f"/><path d="m216.1875 312.59375c-4.527344 0-8.199219-3.671875-8.199219-8.203125 0-4.527344 3.671875-8.195313 8.199219-8.195313 11.351562 0 20.589844-9.238281 20.589844-20.59375 0-4.527343 3.671875-8.199218 8.199218-8.199218 4.527344 0 8.199219 3.671875 8.199219 8.199218 0 20.398438-16.59375 36.992188-36.988281 36.992188zm0 0" fill="#48a4ef"/><path d="m244.976562 283.800781c-4.527343 0-8.199218-3.667969-8.199218-8.199219 0-11.351562-9.238282-20.589843-20.589844-20.589843-4.527344 0-8.199219-3.667969-8.199219-8.199219 0-4.527344 3.671875-8.199219 8.199219-8.199219 20.394531 0 36.988281 16.59375 36.988281 36.988281 0 4.53125-3.671875 8.199219-8.199219 8.199219zm0 0" fill="#6cb964"/><path d="m410.226562 138.566406c-4.527343 0-8.199218 3.671875-8.199218 8.199219v17.492187c0 4.53125 3.671875 8.203126 8.199218 8.203126 4.527344 0 8.199219-3.671876 8.199219-8.203126v-17.492187c0-4.527344-3.671875-8.199219-8.199219-8.199219zm0 0" fill="#7dcf74"/><path d="m485.507812 105.769531c-4.527343 0-8.199218 3.671875-8.199218 8.199219v50.289062c0 4.53125 3.671875 8.203126 8.199218 8.203126 4.527344 0 8.199219-3.671876 8.199219-8.203126v-50.289062c0-4.527344-3.671875-8.199219-8.199219-8.199219zm0 0" fill="#7dcf74"/><path d="m460.414062 136.378906c-4.527343 0-8.199218 3.671875-8.199218 8.199219v19.679687c0 4.53125 3.671875 8.199219 8.199218 8.199219 4.527344 0 8.199219-3.667969 8.199219-8.199219v-19.675781c0-4.53125-3.671875-8.203125-8.199219-8.203125zm0 0" fill="#7dcf74"/><path d="m435.320312 127.632812c-4.527343 0-8.199218 3.671876-8.199218 8.199219v28.425781c0 4.53125 3.671875 8.199219 8.199218 8.199219 4.527344 0 8.199219-3.667969 8.199219-8.199219v-28.425781c0-4.527343-3.671875-8.199219-8.199219-8.199219zm0 0" fill="#7dcf74"/><path d="m101.683594 172.457031c-4.527344 0-8.199219-3.667969-8.199219-8.199219v-17.492187c0-4.527344 3.671875-8.199219 8.199219-8.199219s8.199218 3.671875 8.199218 8.199219v17.492187c0 4.53125-3.671874 8.199219-8.199218 8.199219zm0 0" fill="#f79552"/><path d="m26.402344 172.457031c-4.527344 0-8.199219-3.667969-8.199219-8.199219v-50.289062c0-4.527344 3.671875-8.199219 8.199219-8.199219 4.53125 0 8.199218 3.671875 8.199218 8.199219v50.289062c0 4.53125-3.667968 8.199219-8.199218 8.199219zm0 0" fill="#f79552"/><path d="m51.496094 172.457031c-4.527344 0-8.199219-3.667969-8.199219-8.199219v-19.675781c0-4.53125 3.671875-8.199219 8.199219-8.199219 4.53125 0 8.199218 3.667969 8.199218 8.199219v19.675781c0 4.53125-3.667968 8.199219-8.199218 8.199219zm0 0" fill="#f79552"/><path d="m76.589844 172.457031c-4.527344 0-8.199219-3.667969-8.199219-8.199219v-28.425781c0-4.527343 3.671875-8.199219 8.199219-8.199219s8.199218 3.671876 8.199218 8.199219v28.425781c0 4.53125-3.671874 8.199219-8.199218 8.199219zm0 0" fill="#f79552"/><path d="m106.492188 253.738281c-3.667969-2.65625-8.792969-1.835937-11.449219 1.832031l-27.210938 37.570313-11.398437-8.597656c-3.777344-2.832031-9.09375-1.832031-11.640625 1.828125l-25.09375 35.648437c-2.605469 3.703125-1.71875 8.820313 1.984375 11.425781 3.726562 2.621094 8.835937 1.695313 11.425781-1.984374l20.214844-28.722657c8.769531 5.636719 12.371093 12.066407 19 9.703125 1.089843-.386718 2.292969-1.132812 3.191406-2.082031.878906-.929687-.507813.734375 32.808594-45.167969 2.65625-3.667968 1.835937-8.792968-1.832031-11.453125zm0 0" fill="#fedc4c"/><path d="m216.1875 238.613281c-20.398438 0-36.988281 16.59375-36.988281 36.988281v.003907h16.398437v-.003907c0-11.351562 9.234375-20.585937 20.589844-20.585937 4.527344 0 8.199219-3.671875 8.199219-8.199219 0-4.53125-3.671875-8.203125-8.199219-8.203125zm0 0" fill="#fab94f"/></svg>