<?xml version="1.0" encoding="UTF-8"?>
<svg xmlns="http://www.w3.org/2000/svg" xmlns:xlink="http://www.w3.org/1999/xlink" viewBox="0 0 48 48" version="1.1" width="48px" height="48px">
<g id="surface1">
<path style=" fill:#FFCA28;" d="M 36.585938 38.375 C 36.394531 37.46875 36.054688 36.152344 35.523438 34.167969 C 33.742188 27.511719 45.3125 16.929688 34.574219 11.027344 C 24.347656 5.40625 20.324219 17.535156 17.375 19.707031 C 14.714844 21.707031 11.832031 22.125 9.816406 22.582031 C 9.183594 22.671875 8.644531 22.835938 8.210938 23.082031 C 7.757813 23.296875 7.4375 23.570313 7.296875 23.964844 C 5.671875 26.808594 10.890625 32.867188 18.953125 37.496094 C 24.21875 40.515625 29.390625 42.179688 32.796875 42.179688 C 34.613281 42.179688 35.929688 41.710938 36.496094 40.71875 C 36.695313 40.433594 36.804688 40.171875 36.773438 39.636719 C 36.789063 39.246094 36.722656 38.824219 36.585938 38.375 Z M 34.558594 39.589844 C 33.6875 43.0625 24.460938 39.199219 19.75 36.5 C 11.875 31.980469 7.328125 26.703125 9.234375 25.09375 C 9.316406 25.003906 9.8125 24.75 10.984375 24.75 C 14.121094 24.75 19 26.433594 23.714844 29.144531 C 31.59375 33.65625 34.871094 38.535156 34.558594 39.589844 Z "/>
<path style=" fill:#B78B27;" d="M 34.558594 39.589844 C 34.871094 38.535156 31.59375 33.65625 23.71875 29.144531 C 19 26.433594 14.125 24.75 10.988281 24.75 C 9.816406 24.75 9.316406 25.003906 9.234375 25.09375 C 7.328125 26.703125 11.875 31.980469 19.75 36.5 C 24.460938 39.199219 33.6875 43.0625 34.558594 39.589844 Z "/>
<path style=" fill:#B78B27;" d="M 34.574219 11.027344 C 35.511719 11.542969 36.269531 12.097656 36.890625 12.675781 C 38.132813 12.144531 39 10.914063 39 9.476563 C 39 7.558594 37.441406 6 35.519531 6 C 33.597656 6 32.046875 7.558594 32.046875 9.476563 C 32.046875 9.644531 32.070313 9.808594 32.09375 9.972656 C 32.878906 10.210938 33.703125 10.550781 34.574219 11.027344 Z "/>
<path style=" fill:#FDD835;" d="M 23.632813 29.019531 C 20.488281 29.210938 18 31.8125 18 35 C 18 38.3125 20.6875 41 24.003906 41 C 27.3125 41 30 38.3125 30 35 C 30 34.421875 29.914063 33.867188 29.761719 33.339844 C 27.414063 31.367188 25.296875 29.96875 23.632813 29.019531 Z "/>
<path style=" fill:#FFF9C4;" d="M 24 30 C 24.542969 30 25.0625 30.078125 25.5625 30.214844 C 24.875 29.765625 24.21875 29.351563 23.632813 29.019531 C 20.488281 29.210938 18 31.8125 18 35 C 18 35.167969 18.011719 35.335938 18.023438 35.5 C 18.28125 32.421875 20.855469 30 24 30 Z "/>
</g>
</svg>
