<?xml version="1.0" encoding="iso-8859-1"?>
<!-- Generator: Adobe Illustrator 19.0.0, SVG Export Plug-In . SVG Version: 6.00 Build 0)  -->
<svg version="1.1" id="Capa_1" xmlns="http://www.w3.org/2000/svg" xmlns:xlink="http://www.w3.org/1999/xlink" x="0px" y="0px"
	 viewBox="0 0 512 512" style="enable-background:new 0 0 512 512;" xml:space="preserve">
<circle style="fill:#88888F;" cx="256" cy="256" r="256"/>
<path style="fill:#9D9D9E;" d="M464.948,108.062c-36.259-51.12-90.811-88.339-154.112-102.155c2.155,2.367,3.48,5.503,3.48,8.957
	c0,7.358-5.965,13.323-13.323,13.323h-28.152H248.64c-7.358,0-13.323,5.965-13.323,13.323s5.965,13.323,13.323,13.323h24.202h39.626
	c7.358,0,13.323,5.965,13.323,13.323s-5.965,13.323-13.323,13.323h-5.611c-7.358,0-13.323,5.965-13.323,13.323
	s5.965,13.323,13.323,13.323h156.854C464.128,108.125,464.54,108.1,464.948,108.062z"/>
<path style="fill:#AA927D;" d="M47.072,403.966c7.767,10.947,16.382,21.245,25.732,30.825h366.392
	c9.351-9.579,17.966-19.878,25.733-30.825V213.674H47.072V403.966z"/>
<rect x="47.07" y="213.67" style="fill:#99806D;" width="417.86" height="28.667"/>
<path style="fill:#EBE4DD;" d="M141.481,485c34.46,17.267,73.351,27,114.52,27c41.168,0,80.059-9.733,114.519-27H141.481z"/>
<path style="fill:#D8CCBC;" d="M141.481,485H370.52c15.17-7.601,29.483-16.658,42.747-27c-26.793,0-301.19,0-314.534,0
	C111.998,468.342,126.311,477.399,141.481,485z"/>
<path style="fill:#BFA993;" d="M69.177,431c9.132,9.744,19.011,18.778,29.556,27h314.534c10.546-8.222,20.425-17.256,29.556-27
	H70.087H69.177z"/>
<path style="fill:#EBE4DD;" d="M33.479,213.674l-6.208,157.39c8.443,16.75,18.668,32.447,30.433,46.839H68.72l-8.055-204.229
	L33.479,213.674L33.479,213.674z"/>
<path style="fill:#D8CCBC;" d="M47.996,213.674H33.479l-6.208,157.39c6.025,11.953,12.973,23.357,20.725,34.145
	C47.996,405.209,47.996,213.674,47.996,213.674z"/>
<polygon style="fill:#EBE4DD;" points="152.291,417.904 108.995,417.904 117.05,213.674 144.236,213.674 "/>
<polygon style="fill:#D8CCBC;" points="130.724,213.674 117.05,213.674 108.995,417.904 130.724,417.904 "/>
<polygon style="fill:#EBE4DD;" points="235.862,417.904 192.566,417.904 200.621,213.674 227.807,213.674 "/>
<polygon style="fill:#D8CCBC;" points="214.295,213.674 200.622,213.674 192.566,417.904 214.295,417.904 "/>
<polygon style="fill:#EBE4DD;" points="319.434,417.904 276.138,417.904 284.193,213.674 311.379,213.674 "/>
<polygon style="fill:#D8CCBC;" points="297.867,213.674 284.193,213.674 276.138,417.904 297.867,417.904 "/>
<polygon style="fill:#EBE4DD;" points="403.005,417.904 359.709,417.904 367.764,213.674 394.95,213.674 "/>
<polygon style="fill:#D8CCBC;" points="381.438,213.674 367.764,213.674 359.709,417.904 381.438,417.904 "/>
<path style="fill:#EBE4DD;" d="M478.521,213.674h-27.186l-8.055,204.229h11.015c11.765-14.392,21.99-30.089,30.434-46.839
	L478.521,213.674z"/>
<g>
	<path style="fill:#D8CCBC;" d="M465.01,213.674h-13.674l-8.055,204.229h11.015c3.727-4.558,7.304-9.243,10.714-14.055V213.674z"/>
	<rect x="12.867" y="142.01" style="fill:#D8CCBC;" width="486.27" height="49.35"/>
</g>
<g>
	<rect x="12.867" y="142.01" style="fill:#BFA993;" width="148.63" height="49.35"/>
	<path style="fill:#BFA993;" d="M12.867,191.362v19.27c0,3.445,2.793,6.238,6.238,6.238h473.791c3.445,0,6.238-2.793,6.238-6.238
		v-19.27H12.867z"/>
</g>
<path style="fill:#AA927D;" d="M161.5,210.632v-19.27H12.867v19.27c0,3.445,2.793,6.238,6.238,6.238h148.633
	C164.293,216.87,161.5,214.077,161.5,210.632z"/>
<path style="fill:#D8CCBC;" d="M382.881,92.654l-125.214-44.52c-1.078-0.383-2.256-0.383-3.334,0L11.338,134.532
	c-5.266,1.872-3.921,9.665,1.667,9.665h485.991c5.589,0,6.933-7.793,1.667-9.665L382.881,92.654z"/>
<path style="fill:#BFA993;" d="M11.338,134.532c-5.266,1.872-3.921,9.665,1.667,9.665H161.44l91.135-95.438"/>
<path style="fill:#EBE4DD;" d="M382.881,124.203l-125.214-44.52c-1.078-0.383-2.256-0.383-3.334,0L72.887,144.197h366.227
	L382.881,124.203z"/>
<g>
	<polygon style="fill:#D8CCBC;" points="72.887,144.197 161.44,144.197 206.962,96.526 	"/>
	<path style="fill:#D8CCBC;" d="M481.039,231.973h-32.22c-4.171,0-7.552-3.381-7.552-7.552s3.38-7.552,7.552-7.552h32.22
		c4.171,0,7.552,3.381,7.552,7.552C488.59,228.592,485.21,231.973,481.039,231.973z"/>
</g>
<g>
	<path style="fill:#BFA993;" d="M463.068,224.421c0-4.171,3.38-7.552,7.551-7.552h-21.801c-4.171,0-7.552,3.381-7.552,7.552
		s3.381,7.551,7.552,7.551h21.801C466.448,231.973,463.068,228.592,463.068,224.421z"/>
	<path style="fill:#BFA993;" d="M453.937,415.897h-10.405c-4.171,0-7.552,3.381-7.552,7.552c0,3.942,3.021,7.174,6.875,7.517
		c4.543-4.85,8.899-9.877,13.058-15.069H453.937z"/>
</g>
<path style="fill:#D8CCBC;" d="M151.955,415.897H141.55h-21.816h-10.405c-4.171,0-7.552,3.381-7.552,7.552s3.381,7.552,7.552,7.552
	h10.405h21.816h10.405c4.171,0,7.552-3.381,7.552-7.552C159.507,419.277,156.127,415.897,151.955,415.897z"/>
<path style="fill:#BFA993;" d="M125.779,423.448c0-4.171,3.381-7.552,7.552-7.552h-13.595H109.33c-4.171,0-7.552,3.381-7.552,7.552
	S105.159,431,109.33,431h10.405h13.595C129.16,431,125.779,427.619,125.779,423.448z"/>
<g>
	<path style="fill:#D8CCBC;" d="M68.384,415.897H57.979h-1.892c4.158,5.191,8.512,10.216,13.054,15.065
		c3.815-0.38,6.794-3.598,6.794-7.513C75.936,419.277,72.555,415.897,68.384,415.897z"/>
	<path style="fill:#D8CCBC;" d="M397.548,231.973h-32.22c-4.171,0-7.552-3.381-7.552-7.552s3.381-7.552,7.552-7.552h32.22
		c4.171,0,7.552,3.381,7.552,7.552C405.1,228.592,401.719,231.973,397.548,231.973z"/>
</g>
<path style="fill:#BFA993;" d="M379.578,224.421c0-4.171,3.38-7.552,7.551-7.552h-21.801c-4.171,0-7.552,3.381-7.552,7.552
	s3.381,7.551,7.552,7.551h21.801C382.958,231.973,379.578,228.592,379.578,224.421z"/>
<path style="fill:#D8CCBC;" d="M313.896,231.973h-32.22c-4.171,0-7.552-3.381-7.552-7.552s3.381-7.552,7.552-7.552h32.22
	c4.171,0,7.552,3.381,7.552,7.552C321.447,228.592,318.067,231.973,313.896,231.973z"/>
<path style="fill:#BFA993;" d="M295.925,224.421c0-4.171,3.38-7.552,7.551-7.552h-21.801c-4.171,0-7.552,3.381-7.552,7.552
	s3.381,7.551,7.552,7.551h21.801C299.305,231.973,295.925,228.592,295.925,224.421z"/>
<path style="fill:#D8CCBC;" d="M230.406,231.973h-32.22c-4.171,0-7.552-3.381-7.552-7.552s3.381-7.552,7.552-7.552h32.22
	c4.171,0,7.552,3.381,7.552,7.552C237.957,228.592,234.577,231.973,230.406,231.973z"/>
<path style="fill:#BFA993;" d="M212.435,224.421c0-4.171,3.38-7.552,7.551-7.552h-21.801c-4.171,0-7.552,3.381-7.552,7.552
	s3.381,7.551,7.552,7.551h21.801C215.815,231.973,212.435,228.592,212.435,224.421z"/>
<path style="fill:#D8CCBC;" d="M146.753,231.973h-32.22c-4.171,0-7.552-3.381-7.552-7.552s3.381-7.552,7.552-7.552h32.22
	c4.171,0,7.552,3.381,7.552,7.552C154.305,228.592,150.924,231.973,146.753,231.973z"/>
<path style="fill:#BFA993;" d="M128.782,224.421c0-4.171,3.38-7.552,7.551-7.552h-21.801c-4.171,0-7.552,3.381-7.552,7.552
	s3.381,7.551,7.552,7.551h21.801C132.163,231.973,128.782,228.592,128.782,224.421z"/>
<path style="fill:#D8CCBC;" d="M63.263,231.973h-32.22c-4.171,0-7.552-3.381-7.552-7.552s3.381-7.552,7.552-7.552h32.22
	c4.171,0,7.552,3.381,7.552,7.552C70.815,228.592,67.434,231.973,63.263,231.973z"/>
<path style="fill:#BFA993;" d="M45.292,224.421c0-4.171,3.38-7.552,7.551-7.552h-21.8c-4.171,0-7.552,3.381-7.552,7.552
	s3.381,7.551,7.552,7.551h21.801C48.672,231.973,45.292,228.592,45.292,224.421z"/>
<path style="fill:#D8CCBC;" d="M235.527,415.897h-10.405h-21.816h-10.405c-4.171,0-7.552,3.381-7.552,7.552s3.381,7.552,7.552,7.552
	h10.405h21.816h10.405c4.171,0,7.552-3.381,7.552-7.552C243.079,419.277,239.698,415.897,235.527,415.897z"/>
<path style="fill:#BFA993;" d="M209.35,423.448c0-4.171,3.381-7.552,7.552-7.552h-13.595h-10.405c-4.171,0-7.552,3.381-7.552,7.552
	s3.381,7.552,7.552,7.552h10.405h13.595C212.731,431,209.35,427.619,209.35,423.448z"/>
<path style="fill:#D8CCBC;" d="M319.434,415.897h-10.405h-21.816h-10.405c-4.171,0-7.552,3.381-7.552,7.552s3.381,7.552,7.552,7.552
	h10.405h21.816h10.405c4.171,0,7.552-3.381,7.552-7.552C326.985,419.277,323.605,415.897,319.434,415.897z"/>
<path style="fill:#BFA993;" d="M293.257,423.448c0-4.171,3.381-7.552,7.552-7.552h-13.595h-10.405c-4.171,0-7.552,3.381-7.552,7.552
	s3.381,7.552,7.552,7.552h10.405h13.595C296.638,431,293.257,427.619,293.257,423.448z"/>
<path style="fill:#D8CCBC;" d="M403.005,415.897H392.6h-21.816H360.38c-4.171,0-7.552,3.381-7.552,7.552s3.38,7.552,7.552,7.552
	h10.405h21.816h10.405c4.171,0,7.552-3.381,7.552-7.552C410.557,419.277,407.176,415.897,403.005,415.897z"/>
<g>
	<path style="fill:#BFA993;" d="M376.828,423.448c0-4.171,3.381-7.552,7.552-7.552h-13.595H360.38c-4.171,0-7.552,3.381-7.552,7.552
		S356.209,431,360.38,431h10.405h13.595C380.209,431,376.828,427.619,376.828,423.448z"/>
	<path style="fill:#BFA993;" d="M152.291,471.5L152.291,471.5c0-6.125,3.79-11.355,9.149-13.5c-14.863,0-47.815,0-62.706,0
		c13.265,10.342,27.578,19.399,42.747,27h19.959C156.081,482.855,152.291,477.625,152.291,471.5z"/>
</g>
<path style="fill:#D8CCBC;" d="M161.44,485h-19.96c4.232,2.12,8.531,4.126,12.893,6.015C156.001,488.315,158.479,486.185,161.44,485
	z"/>
<path style="fill:#AA927D;" d="M152.291,444.5L152.291,444.5c0-6.125,3.79-11.355,9.149-13.5H70.087h-0.91
	c9.132,9.744,19.011,18.778,29.556,27h62.706C156.081,455.855,152.291,450.625,152.291,444.5z"/>
<g>
</g>
<g>
</g>
<g>
</g>
<g>
</g>
<g>
</g>
<g>
</g>
<g>
</g>
<g>
</g>
<g>
</g>
<g>
</g>
<g>
</g>
<g>
</g>
<g>
</g>
<g>
</g>
<g>
</g>
</svg>
