<svg id="Layer_1" enable-background="new 0 0 128 128" height="512" viewBox="0 0 128 128" width="512" xmlns="http://www.w3.org/2000/svg"><path d="m121.246 89.181c-.022-.025-.041-.05-.066-.072-1.89-1.978-4.33-3.416-7.075-4.077 2.314-1.504 4.043-3.807 4.801-6.509l.009-.013c.014 0 .027.004.041.004 1.442 0 2.572-1.403 2.572-3.195 0-1.303-.602-2.394-1.484-2.895l.218-2.621c.322-3.874-1.089-7.693-3.86-10.451l-.201-.2c-1.215-1.209-2.869-1.889-4.593-1.889h-7.509c-1.818 0-3.551.755-4.778 2.081l-.544.588c-2.523 2.727-3.782 6.369-3.476 10.052l.203 2.45c-.874.505-1.47 1.59-1.47 2.886 0 1.792 1.13 3.195 2.572 3.195.008 0 .015-.002.022-.002l.04.058c.086.302.186.598.296.889-.852-.893-2.317-1.187-3.607-1.25-.224-.429-.536-.8-.933-1.073-.629-.432-1.315-.559-1.933-.535-.341-1.648-.85-3.175-1.581-4.468-2.708-4.79-3.106-10.663-3.156-12.874h2.487c.344 0 .663-.177.847-.468.183-.291.203-.655.055-.966l-1.304-2.713c4.791-1.523 8.401-7.213 9.014-12.586.065-.549.097-1.081.097-1.628 0-6.998-5.312-12.91-11.6-12.91-6.282 0-11.59 5.912-11.59 12.91 0 .532.032 1.086.097 1.646.665 5.707 4.453 11.035 8.847 12.519l-1.131 2.823c-.123.309-.086.657.101.933.186.274.496.439.828.439h1.248c.036 2.097.37 7.198 2.491 11.981-1.847-1.312-4.105-2.094-6.553-2.094-4.922 0-9.095 3.13-10.622 7.482-.689-.081-1.493.005-2.224.508-.399.274-.712.647-.936 1.079-.008 0-.015.001-.023.001-.127-.152-.27-.281-.422-.395v-2.438c0-6.057-4.967-10.967-11.094-10.967s-11.094 4.91-11.094 10.967v2.438c-.682.511-1.133 1.424-1.133 2.498 0 1.644 1.047 2.932 2.383 2.933.706 2.31 2.201 4.291 4.155 5.623-2.064.574-3.916 1.663-5.395 3.134-.003.002-.005.005-.008.007-.89.887-1.639 1.913-2.227 3.037-.57-1.944-1.531-3.719-2.801-5.232-.002-.003-.002-.006-.003-.009-.053-.086-.126-.148-.198-.212-1.405-1.606-3.151-2.904-5.134-3.767 3.341-1.923 5.334-4.87 5.334-8.084 0-.725-.111-1.436-.308-2.13.007-.1.024-.197.024-.3 0-.889-.28-1.682-.737-2.256.084-.594.126-1.195.126-1.8 0-6.383-4.755-11.849-11.097-12.83-1.308-.922-3.014-1.333-4.856-1.086-3.125.419-4.695 2.325-6.213 4.17-.462.56-.938 1.139-1.466 1.69-1.748 1.828-3.775 1.921-3.88 1.924-.406.01-.767.264-.912.644-.146.382-.044.813.256 1.091.059.055.871.794 2.211 1.589-.207.924-.315 1.865-.315 2.809 0 .605.043 1.206.126 1.8-.457.574-.737 1.366-.737 2.256 0 .104.016.201.024.302-.196.693-.307 1.403-.307 2.127 0 3.214 1.992 6.161 5.333 8.084-1.978.861-3.72 2.155-5.123 3.755-.076.066-.152.133-.208.223-.002.003-.002.006-.003.009-2.114 2.519-3.393 5.761-3.393 9.3v2.537 5.617c0 1.654 1.346 3 3 3h4.522l107.89-.015c1.654 0 3-1.346 3-3v-8.154c.003-3.841-1.509-7.328-3.957-9.924zm-28.098-6.65c.238 1.023-1.463 2.467-1.414 3.64.062 1.471 1.97 2.735 2.68 2.905-.011.011-.02.023-.031.034-.024.021-.042.047-.064.071-1.844 1.955-3.156 4.415-3.689 7.156-.379-.574-.819-1.105-1.304-1.594.658-1.995 1.295-5.133 1.577-8.574.704-.511 1.172-1.442 1.172-2.541 0-.21-.017-.413-.049-.61.375-.215.704-.505.97-.86.066.116.12.24.152.373zm-26.921 0c.024-.102.074-.191.119-.283.278.345.616.63 1.001.831-.026.177-.044.359-.044.548 0 1.621 1.01 2.89 2.313 2.949l.076.101c.7 2.35 2.219 4.353 4.234 5.681-.071.028-.142.057-.213.086-.065.027-.132.051-.197.079-2.088.915-3.787 2.477-4.889 4.406-.613-1.879-1.661-3.562-3.031-4.925-.002-.001-.003-.003-.005-.005-1.485-1.474-3.345-2.563-5.419-3.134.486-.331.952-.698 1.383-1.115.905-.874 1.615-1.886 2.134-2.983.255.279.512.552.755.818 1.773 1.937-.074 3.227.28 3.489.303.224 2.845-1.202 2.916-2.903.051-1.173-1.651-2.617-1.413-3.64zm19.562 9.869c-.053-.021-.107-.04-.16-.06-.031-.012-.062-.023-.093-.035 1.212-.815 2.233-1.882 3.007-3.116-.249 1.608-.561 3.045-.887 4.183-.581-.383-1.206-.708-1.867-.972zm9.14-6.814c1.256-1.372 2.874-2.928 2.724-4.618.914 1.644 2.226 3.039 3.805 4.065-2.612.629-4.955 1.955-6.804 3.788-.217-.516-1.165-1.662.275-3.235z" fill="#e6e7e8"/><path d="m15.471 47.484.886.418.157.967c.113.69.6 1.247 1.269 1.451.178.055.359.081.538.081.494 0 .972-.201 1.324-.575l.671-.714.969.149c.697.108 1.371-.185 1.772-.758.4-.573.44-1.311.104-1.923l-.471-.859.44-.875c.315-.624.249-1.359-.171-1.918-.421-.56-1.106-.823-1.8-.696l-.961.182-.696-.688c-.497-.492-1.216-.655-1.878-.43-.662.228-1.129.801-1.218 1.495l-.124.972-.871.449c-.621.321-1 .955-.987 1.654.013.7.414 1.32 1.047 1.618z" fill="#e6e7e8"/><path d="m106.102 42.724c.369.596 1.042.926 1.727.856l.975-.094.629.75c.354.421.861.653 1.393.653.146 0 .293-.018.438-.053.681-.166 1.197-.694 1.35-1.378l.212-.956.907-.366c.649-.262 1.085-.858 1.138-1.557.052-.699-.291-1.354-.894-1.708l-.844-.497-.069-.979c-.049-.697-.481-1.296-1.129-1.561-.648-.267-1.377-.143-1.899.321l-.734.649-.949-.236c-.681-.175-1.383.056-1.835.59s-.561 1.266-.281 1.907l.39.899-.52.83c-.373.596-.375 1.335-.005 1.93z" fill="#e6e7e8"/><path d="m49.411 31.476-.475 2.768c-.136.791.183 1.575.832 2.047.366.267.796.401 1.228.401.333 0 .667-.08.977-.243l2.57-1.307 2.485 1.307c.711.375 1.557.313 2.204-.158.649-.472.968-1.256.832-2.047l-.448-2.85 2.012-1.96c.574-.561.776-1.382.528-2.145s-.896-1.309-1.688-1.423l-2.849-.455-1.242-2.518c-.355-.72-1.074-1.167-1.876-1.167-.803 0-1.521.447-1.876 1.167l-1.313 2.568-2.779.404c-.793.114-1.44.66-1.688 1.423s-.046 1.584.528 2.145z" fill="#e6e7e8"/><path d="m114.956 69.124c-.221 0-.432.065-.623.181 0 .019.002.039.002.058v2.113c0 .595-.053 1.177-.15 1.745.229.181.489.293.771.293.869 0 1.573-.983 1.573-2.195s-.705-2.195-1.573-2.195z" fill="#fff"/><path d="m93.228 71.476v-2.113c0-.019.002-.039.002-.058-.191-.115-.401-.181-.623-.181-.869 0-1.573.983-1.573 2.195s.704 2.195 1.573 2.195c.282 0 .542-.112.771-.293-.096-.568-.15-1.15-.15-1.745z" fill="#fff"/><path d="m106.718 81.616h-.495c-.785.184-1.6.292-2.442.292s-1.657-.108-2.442-.292h-.495c-7.449 0-13.488 6.039-13.488 13.488v10.154h30.849c1.105 0 2-.895 2-2v-8.154c.001-7.449-6.038-13.488-13.487-13.488z" fill="#0089ef"/><path d="m106.64 81.616h-5.718c-.746 0-1.477.05-2.19.164v23.478h10.097v-23.477c-.712-.115-1.443-.165-2.189-.165z" fill="#6dc9f7"/><path d="m103.782 81.908c-1.47 0-2.87-.298-4.141-.835v.124c0 2.261 1.854 4.094 4.141 4.094s4.141-1.833 4.141-4.094v-.124c-1.272.537-2.671.835-4.141.835z" fill="#fff"/><path d="m112.731 63.896-1.79-2.795c-.793-1.238-2.172-1.988-3.655-1.988h-7.009c-1.482 0-2.862.75-3.655 1.988l-1.79 2.795c-1.047 1.635-1.604 3.531-1.604 5.466v2.114c0 5.762 4.725 10.432 10.553 10.432s10.553-4.671 10.553-10.432v-2.114c.001-1.935-.555-3.831-1.603-5.466z" fill="#fff"/><path d="m31.393 69.124c-.221 0-.43.065-.621.179v2.173c0 .595-.053 1.177-.15 1.745.229.181.489.293.771.293.869 0 1.573-.983 1.573-2.195-.001-1.213-.705-2.195-1.573-2.195z" fill="#fff"/><path d="m23.666 58.896c.047 1.234-.371 2.57-1.367 3.812-2.116 2.638-6.852 3.308-10.483 2.48-.568-.13-1.105-.3-1.612-.49-.343.953-.539 1.974-.539 3.044v3.734c0 5.762 4.725 10.433 10.553 10.433 5.828 0 10.553-4.671 10.553-10.433v-3.734c.001-4.309-3.035-7.91-7.105-8.846z" fill="#fff"/><path d="m9.665 71.476v-2.173c-.191-.114-.4-.179-.621-.179-.869 0-1.573.983-1.573 2.195s.704 2.195 1.573 2.195c.282 0 .542-.112.771-.293-.097-.568-.15-1.15-.15-1.745z" fill="#fff"/><path d="m23.155 81.631h-.552c-.767.176-1.563.277-2.384.277s-1.617-.102-2.384-.277h-.552c-7.449 0-13.488 6.039-13.488 13.488v10.154h32.849v-10.154c-.001-7.449-6.04-13.488-13.489-13.488z" fill="#6dc9f7"/><path d="m19.58 87.087-.002-.004c-1.982-.305-3.5-1.995-3.5-4.04v-1.351c-.193.018-.385.041-.576.067-.978.841-2.383 2.495-1.292 4.424 1.581 2.8 5.37.904 5.37.904z" fill="#ffd7e5"/><path d="m20.219 81.908c-1.47 0-2.87-.298-4.141-.835v1.97c0 2.261 1.854 4.094 4.141 4.094s4.141-1.833 4.141-4.094v-1.97c-1.272.537-2.671.835-4.141.835z" fill="#fff"/><path d="m26.186 86.184c1.095-1.937-.323-3.593-1.302-4.431-.174-.023-.348-.044-.524-.061v1.351c0 2.059-1.539 3.758-3.541 4.046.096.048 3.805 1.858 5.367-.905z" fill="#ffd7e5"/><path d="m23.666 58.896c.047 1.234-.371 2.57-1.367 3.812-2.116 2.638-6.852 3.308-10.483 2.48-.568-.13-1.105-.3-1.612-.49-.343.953-.539 1.974-.539 3.044v3.734c0 5.762 4.725 10.433 10.553 10.433 5.828 0 10.553-4.671 10.553-10.433v-3.734c.001-4.309-3.035-7.91-7.105-8.846z" fill="#fff"/><path d="m26.237 72.117c-.518 0-.937.261-.937.584s.42.584.937.584c.518 0 .937-.261.937-.584s-.419-.584-.937-.584z" fill="#ffd7e5"/><ellipse cx="14.2" cy="72.572" fill="#ffd7e5" rx=".937" ry=".584"/><path d="m20.219 77.886c-1.622 0-2.45-1.108-2.484-1.155-.163-.223-.114-.536.108-.698s.533-.114.696.105c.032.042.589.748 1.68.748 1.075 0 1.678-.747 1.683-.754.169-.221.481-.261.701-.094.22.168.261.482.094.701-.037.047-.897 1.147-2.478 1.147z" fill="#fa759e"/><path d="m3.794 97.656v5.617c0 1.105.895 2 2 2h4.523v-7.617z" fill="#fff"/><path d="m30.12 97.656h6.523v7.617h-6.523z" fill="#fff"/><path d="m87.362 98.129v7.14h-23.12v-7.14c0-4.4 3-8.11 7.07-9.18.19-.05.37-.09.56-.13.14-.02.27-.05.42-.07.17-.03.35-.05.53-.07.2 1.38 1.4 2.51 2.86 2.51 1.47 0 2.68-1.12 2.87-2.52.26.01.51.04.76.08.22.03.43.07.65.12.03.01.06.01.09.02 4.19.99 7.31 4.75 7.31 9.24z" fill="#ffd7e5"/><path d="m82.582 89.899v15.374h-13.8v-15.234c.77-.49 1.62-.85 2.53-1.09v6.06h8.74v-6.12c.901.21 1.75.55 2.53 1.01z" fill="#6dc9f7"/><path d="m64.241 99.913h4.537v5.36h-4.537z" fill="#fff"/><path d="m82.582 99.913h4.776v5.36h-4.776z" fill="#fff"/><path d="m87.86 73.961c-.417-.287-.864-.37-1.261-.364.214.858.341 1.749.341 2.672v2.091c.076-.012.152-.017.226-.041 1.743-.579 2.151-3.357.694-4.358z" fill="#6dc9f7"/><path d="m64.439 76.269c0-.92.125-1.809.338-2.664-.423-.025-.911.042-1.367.355-1.457 1.001-1.049 3.779.694 4.358.11.036.222.052.334.061v-2.11z" fill="#6dc9f7"/><path d="m82.485 72.604c-.975-1.153-2.417-1.819-3.938-1.819h-5.716c-1.52 0-2.962.666-3.938 1.819-1.699 2.009-2.63 4.544-2.63 7.163 0 5.146 4.22 9.318 9.426 9.318s9.426-4.172 9.426-9.318c0-2.619-.931-5.154-2.63-7.163z" fill="#fff"/><path d="m81.065 80.34c-.462 0-.837.234-.837.522s.375.521.837.521.837-.233.837-.521-.374-.522-.837-.522z" fill="#ffd7e5"/><path d="m70.314 80.224c-.462 0-.837.233-.837.521s.375.522.837.522.837-.234.837-.522-.375-.521-.837-.521z" fill="#ffd7e5"/><path d="m75.689 86.348c-1.477 0-2.23-1.011-2.263-1.054-.162-.224-.113-.536.109-.699.221-.159.534-.114.696.106.029.037.512.646 1.457.646.936 0 1.456-.646 1.462-.652.167-.221.484-.262.7-.093.22.168.261.481.093.7-.031.044-.815 1.046-2.254 1.046z" fill="#fa759e"/><path d="m81.352 50.519c-.44 0-.87-.053-1.296-.133l-1.552 3.874h5.741l-1.839-3.824c-.347.052-.698.083-1.054.083z" fill="#ffd7e5"/><path d="m81.357 24.992c-5.849 0-10.591 5.646-10.591 11.904 0 5.475 3.63 11.8 8.456 13.296.689.214 1.403.329 2.134.329 5.849 0 10.591-7.367 10.591-13.625s-4.741-11.904-10.59-11.904z" fill="#fff"/><path d="m91.862 38.409c-.67 5.87-5.13 12.11-10.51 12.11-.73 0-1.44-.11-2.13-.33-4.39-1.35-7.78-6.7-8.37-11.76.67-5.65 5.12-10.44 10.5-10.44s9.83 4.78 10.51 10.42z" fill="#ffd7e5"/><path d="m64.239 105.272h-27.591v-8.529c0-6.257 5.072-11.329 11.329-11.329h4.933c6.257 0 11.329 5.072 11.329 11.329z" fill="#fff"/><path d="m52.846 85.413h-.44c-.762.169-1.555.256-2.375.227-.587-.021-1.157-.102-1.709-.227h-.278c-3.184 0-6.065 1.291-8.132 3.376 1.945 1.039 3.489 3.329 3.489 5.477v11.008h14.087v-11.009c0-2.147 1.545-4.438 3.489-5.477-2.066-2.084-4.948-3.375-8.131-3.375z" fill="#0089ef"/><path d="m43.401 96.262h14.087v2.035h-14.087z" fill="#ffd7e5"/><path d="m43.401 98.587h14.087v2.035h-14.087z" fill="#ffd7e5"/><path d="m43.401 100.913h14.087v2.035h-14.087z" fill="#ffd7e5"/><path d="m50.121 85.641c-1.122-.039-2.184-.224-3.155-.646v1.217c0 1.899 1.557 3.439 3.478 3.439s3.478-1.54 3.478-3.439v-1.269c-1.161.491-2.448.746-3.801.698z" fill="#fff"/><path d="m60.21 74.387c-.194 0-.379.057-.547.158v1.914c0 .524-.046 1.037-.132 1.537.201.159.431.257.678.257.765 0 1.385-.866 1.385-1.933.001-1.068-.619-1.933-1.384-1.933z" fill="#fff"/><path d="m41.074 76.238v-1.694c-.168-.101-.352-.158-.547-.158-.765 0-1.385.866-1.385 1.933 0 1.068.62 1.933 1.385 1.933.26 0 .501-.106.709-.281-.105-.563-.162-1.143-.162-1.733z" fill="#fff"/><path d="m57.373 67.502c-.837-.839-2.09-1.081-3.22-.709-.976.322-2.31.52-3.784.52s-2.808-.198-3.784-.52c-1.13-.373-2.383-.13-3.22.709-1.416 1.418-2.29 3.365-2.29 5.515v3.221c0 4.982 3.919 9.226 8.956 9.403 5.288.186 9.633-3.997 9.633-9.182v-3.441c0-2.151-.875-4.099-2.291-5.516z" fill="#fff"/><path d="m14.799 38.436.761.754c.193.191.468.275.734.225l1.053-.199c.672-.127 1.198.571.891 1.182l-.482.957c-.122.243-.117.53.013.768l.515.939c.329.6-.173 1.316-.849 1.212l-1.059-.163c-.268-.041-.54.052-.726.25l-.734.78c-.469.498-1.305.242-1.415-.433l-.173-1.057c-.044-.268-.217-.497-.462-.613l-.969-.457c-.619-.292-.634-1.166-.026-1.48l.952-.491c.241-.124.406-.36.441-.629l.136-1.063c.086-.679.913-.963 1.399-.482z" fill="#ffd7e5"/><path d="m108.066 33.467.075 1.069c.019.271.17.515.404.653l.923.544c.589.347.524 1.22-.11 1.476l-.993.402c-.252.102-.437.321-.496.586l-.232 1.046c-.148.668-.998.876-1.438.352l-.689-.821c-.175-.208-.44-.317-.711-.291l-1.066.102c-.681.065-1.141-.678-.779-1.259l.568-.909c.144-.23.165-.517.057-.766l-.427-.983c-.272-.627.293-1.295.956-1.13l1.04.259c.264.066.543-.003.746-.182l.803-.71c.511-.451 1.321-.12 1.369.562z" fill="#6dc9f7"/><path d="m51.48 19.336 1.243 2.518c.159.322.467.546.822.597l2.779.404c.896.13 1.254 1.231.605 1.863l-2.011 1.96c-.257.251-.375.612-.314.967l.475 2.768c.153.892-.783 1.573-1.585 1.151l-2.486-1.307c-.318-.167-.698-.167-1.016 0l-2.486 1.307c-.801.421-1.738-.259-1.585-1.151l.475-2.768c.061-.354-.057-.716-.314-.967l-2.011-1.96c-.648-.632-.291-1.733.605-1.863l2.779-.404c.356-.052.663-.275.822-.597l1.243-2.518c.402-.812 1.559-.812 1.96 0z" fill="#fa759e"/><path d="m83.962 101.214c-.669-1.33-2.302-1.873-3.648-1.212l-.722.355c-.947.465-1.333 1.601-.863 2.537l.586 1.166c.543 1.081 1.87 1.522 2.964.985l.457-.224c1.345-.662 1.894-2.276 1.226-3.607z" fill="#fff"/><g fill="#3a2c60"><path d="m117.265 85.21c-.038-.045-.075-.086-.119-.123-1.888-1.96-4.316-3.394-7.049-4.05 2.317-1.504 4.05-3.808 4.808-6.514l.01-.015c.014 0 .027.005.04.005 1.442 0 2.572-1.403 2.572-3.195 0-1.303-.602-2.394-1.484-2.895l.218-2.621c.322-3.874-1.089-7.693-3.86-10.451l-.201-.2c-1.215-1.209-2.869-1.889-4.593-1.889h-7.509c-1.818 0-3.551.755-4.778 2.081l-.544.588c-2.523 2.727-3.782 6.369-3.476 10.052l.203 2.45c-.874.505-1.47 1.59-1.47 2.886 0 1.792 1.13 3.195 2.572 3.195.007 0 .015-.003.022-.003l.041.059c.089.314.194.621.309.923-.849-.913-2.316-1.217-3.617-1.279-.224-.431-.537-.803-.935-1.077-.63-.433-1.312-.549-1.931-.523-.341-1.652-.85-3.184-1.583-4.48-2.708-4.79-3.106-10.663-3.156-12.874h2.487c.344 0 .663-.177.847-.468.183-.291.203-.655.055-.966l-1.304-2.713c4.791-1.523 8.401-7.213 9.014-12.586.065-.549.097-1.081.097-1.628 0-6.998-5.312-12.91-11.6-12.91-6.282 0-11.59 5.912-11.59 12.91 0 .532.032 1.086.097 1.646.665 5.707 4.453 11.035 8.847 12.519l-1.131 2.823c-.123.309-.086.657.101.933.186.274.496.439.828.439h1.248c.036 2.097.37 7.198 2.491 11.981-1.847-1.312-4.105-2.094-6.553-2.094-4.922 0-9.095 3.13-10.622 7.482-.689-.081-1.493.005-2.224.508-.402.276-.716.652-.94 1.088-.003 0-.007 0-.01 0-.129-.156-.275-.287-.431-.404v-2.438c0-6.057-4.967-10.967-11.094-10.967s-11.094 4.91-11.094 10.967v2.438c-.682.511-1.133 1.424-1.133 2.498 0 1.644 1.047 2.932 2.383 2.933.708 2.315 2.208 4.3 4.169 5.632-2.056.569-3.899 1.651-5.376 3.108-.064.047-.114.112-.166.176-.831.852-1.538 1.823-2.096 2.886-.567-1.932-1.533-3.691-2.793-5.196-.008-.015-.008-.031-.017-.045-.042-.068-.103-.114-.157-.168-1.414-1.626-3.182-2.935-5.187-3.805 3.348-1.923 5.345-4.873 5.345-8.091 0-.725-.111-1.436-.308-2.13.007-.1.024-.197.024-.3 0-.889-.28-1.682-.737-2.256.084-.594.126-1.195.126-1.8 0-6.383-4.755-11.849-11.097-12.83-1.308-.922-3.014-1.333-4.856-1.086-3.125.419-4.695 2.325-6.213 4.17-.462.56-.938 1.139-1.466 1.69-1.748 1.828-3.775 1.921-3.88 1.924-.406.01-.767.264-.912.644-.146.382-.044.813.256 1.091.059.055.871.794 2.211 1.589-.207.924-.315 1.865-.315 2.809 0 .605.043 1.206.126 1.8-.457.574-.737 1.366-.737 2.256 0 .104.016.201.024.302-.196.693-.307 1.403-.307 2.127 0 3.217 1.997 6.168 5.345 8.091-2.004.869-3.771 2.177-5.185 3.803-.054.054-.115.101-.157.169-.009.014-.009.031-.017.045-2.103 2.512-3.38 5.737-3.38 9.264v2.537 5.617c0 1.654 1.346 3 3 3h4.522 3.337c.553 0 1-.447 1-1s-.447-1-1-1h-2.336v-12.106c0-2.33-1.021-4.478-2.768-5.96 1.278-1.253 2.826-2.224 4.544-2.839-.422 1.101-.361 2.235.244 3.307.874 1.546 2.281 2.038 3.646 2.038 1.049 0 2.055-.293 2.789-.621.149.013.294.045.446.045.141 0 .274-.03.412-.041.732.326 1.735.617 2.78.617 1.363 0 2.771-.492 3.646-2.038.609-1.078.667-2.219.237-3.325 1.738.614 3.304 1.593 4.595 2.858-1.748 1.482-2.769 3.63-2.769 5.959v12.105h-4.15c-.553 0-1 .447-1 1s.447 1 1 1h5.151 6.522c.002 0 .003-.001.005-.001h27.588c.002 0 .003.001.005.001h4.537.002s.001 0 .002 0h13.8 4.776c.026 0 .047-.013.073-.015h7.778c.025.002.047.015.073.015s.047-.013.073-.015h3.38 10.097 3.38c.025.002.047.015.073.015s.047-.013.073-.015h5.851c1.654 0 3-1.346 3-3v-8.154c.001-3.83-1.503-7.305-3.94-9.894zm-34.612-31.95h-2.671l.717-1.79c.218.018.433.05.653.05.152 0 .299-.023.449-.031zm-10.807-14.944c-.055-.483-.083-.96-.083-1.417 0-5.812 4.481-10.91 9.59-10.91 5.114 0 9.6 5.099 9.6 10.91 0 .467-.027.922-.083 1.396-.606 5.309-4.663 11.224-9.517 11.224-.623 0-1.237-.095-1.836-.286-3.721-1.144-7.091-5.94-7.671-10.917zm39.436 65.943h-1.452v-21.234c1.872.483 3.576 1.383 5.001 2.606-2.187 1.442-3.549 3.87-3.549 6.538zm-54.794.013h-12.09v-10.058c-.038-2.038-1.177-4.146-2.872-5.524 1.28-1.028 2.808-1.757 4.48-2.082.205 2.261 2.105 4.045 4.438 4.045 2.332 0 4.232-1.784 4.437-4.045 1.675.325 3.205 1.056 4.486 2.087-1.718 1.397-2.841 3.479-2.88 5.538v10.039zm-8.51-17.858h.219c.315.066.643.118.984.155.269.032.54.061.815.07.127.005.253.007.379.007.347 0 .691-.018 1.031-.051.148-.014.293-.042.439-.063.235-.033.468-.069.699-.118h.364c-.105 1.25-1.166 2.238-2.463 2.238-1.298 0-2.362-.987-2.467-2.238-.001 0-.001 0 0 0zm13.769 1.767c-.058-.073-.115-.145-.188-.198-1.483-1.46-3.335-2.542-5.399-3.108.491-.333.961-.704 1.397-1.125.905-.874 1.615-1.886 2.134-2.984.255.279.511.553.755.818 1.773 1.937-.074 3.227.28 3.489.303.224 2.845-1.202 2.916-2.903.049-1.173-1.652-2.617-1.414-3.64.024-.104.063-.201.109-.294.28.351.621.639 1.011.842-.026.177-.044.359-.044.548 0 1.621 1.01 2.89 2.313 2.949l.076.101c.7 2.35 2.219 4.353 4.234 5.681-.071.028-.142.057-.213.086-.065.027-.132.051-.197.079-2.091.917-3.792 2.481-4.893 4.414-.589-1.803-1.582-3.423-2.877-4.755zm27.248-10.023c.067.116.122.239.153.373.238 1.023-1.463 2.467-1.414 3.64.062 1.479 1.99 2.748 2.692 2.908-.003.003-.005.006-.008.009-.044.036-.08.077-.117.121-1.834 1.948-3.14 4.396-3.671 7.123-.379-.573-.818-1.102-1.302-1.59.658-1.995 1.295-5.133 1.577-8.574.704-.511 1.172-1.442 1.172-2.541 0-.21-.017-.413-.049-.61.371-.215.7-.504.967-.859zm-21.217 26.112h-2.536v-3.357h2.536zm-2.536-5.358v-.783c0-2.337.959-4.494 2.54-6.051v6.835h-2.54zm4.54-8.296c.081-.043.163-.084.246-.124.079-.039.157-.079.238-.116.015-.007.031-.012.046-.018v4.651c0 .553.447 1 1 1h8.74c.553 0 1-.447 1-1v-4.75c.018.007.038.013.056.021.159.067.317.136.47.213.001 0 .002.001.003.001v8.245c-.575-.01-1.159.096-1.709.365l-.722.354c-.701.344-1.225.939-1.473 1.676-.246.732-.19 1.517.157 2.207l.465.928h-8.519v-13.653zm-2.439-9.77c-.014-.104-.03-.207-.04-.311-.024-.253-.039-.509-.039-.769 0-.277.014-.552.037-.827.024-.274.059-.552.106-.831v-.001c.284-1.69 1.001-3.29 2.085-4.644-.031.249-.064.497-.064.754 0 .293.028.579.068.861h2.449l.61-1.82.481 1.82h.714l.228-2.401.258 2.401h4.939l.385-.961.425.961h1.885c.04-.282.068-.568.068-.861 0-.266-.033-.522-.067-.779 1.095 1.359 1.819 2.968 2.104 4.669v.001c.047.279.082.556.106.831.023.274.037.55.037.827 0 .26-.016.515-.039.769-.01.104-.026.207-.04.311-.539 4.078-4.072 7.239-8.346 7.239s-7.811-3.161-8.35-7.239zm14.019 23.424c-.47.026-.933-.218-1.154-.658l-.585-1.167c-.106-.211-.123-.449-.048-.672.076-.227.238-.411.457-.519l.723-.354h.001c.247-.121.509-.179.768-.179.635 0 1.245.346 1.545.941.201.401.233.855.091 1.279-.146.43-.452.778-.863.98l-.458.225c-.149.073-.306.113-.462.123h-.015zm-9.049-14.071c.679 1.192 1.95 1.991 3.37 1.991 1.421 0 2.689-.784 3.37-1.962v3.781h-6.74zm12.599 10.713h1.445v3.357h-1.619c.127-.217.235-.447.317-.69.296-.883.237-1.821-.143-2.667zm-1.121-2c.157-2.541.425-4.578.79-5.997 1.102 1.419 1.75 3.191 1.776 5.099v.898zm-2.002-10.512c-.053-.021-.107-.04-.16-.06-.031-.012-.062-.023-.093-.035 1.212-.815 2.233-1.882 3.007-3.116-.249 1.608-.561 3.045-.887 4.183-.581-.383-1.206-.708-1.867-.972zm6.568 9.614v-2.909c0-3.052 1.104-5.849 2.929-8.021 1.836 1.038 2.995 2.961 2.995 5.084v12.091h-5.919v-6.13c0-.039-.004-.077-.005-.115zm4.375-12.384c1.426-1.223 3.129-2.123 5.002-2.606v21.234h-1.452v-12.09c-.001-2.668-1.363-5.096-3.55-6.538zm8.491-3.014c.282.063.569.112.859.154.126.018.249.043.376.057.435.049.875.081 1.324.081.448 0 .888-.031 1.322-.081.13-.015.257-.04.386-.058.286-.042.57-.09.849-.153h.229c-.523.994-1.574 1.676-2.787 1.676-1.212 0-2.264-.682-2.786-1.676zm2.558-1.708c-5.268 0-9.553-4.231-9.553-9.433v-2.113c0-1.747.5-3.451 1.445-4.928l1.79-2.794c.614-.957 1.666-1.528 2.813-1.528h7.009c1.147 0 2.199.571 2.813 1.527l1.791 2.795c.945 1.478 1.445 3.182 1.445 4.928v2.113c.001 5.202-4.285 9.433-9.553 9.433zm-12.852.678c1.256-1.372 2.874-2.928 2.724-4.618.915 1.646 2.23 3.043 3.812 4.07-2.616.628-4.955 1.967-6.806 3.8-.202-.508-1.186-1.661.27-3.252zm-3.635-6.801c.346.237.516.762.435 1.335-.055.387-.269.85-.648 1.103-.021-.018-.038-.042-.06-.059-.025-.629-.07-1.252-.13-1.869-.012-.131-.027-.26-.043-.389-.011-.099-.021-.198-.033-.296.162.02.328.072.479.175zm-22.516-1.182c.001-.004.002-.007.003-.011-.001.004-.002.007-.003.011zm-.801 1.182c.189-.13.4-.175.602-.182-.083.545-.14 1.098-.14 1.666v.841c-.066.05-.128.105-.189.162-.422-.241-.65-.743-.708-1.152-.081-.573.089-1.098.435-1.335zm-21.903 1.453v-3.222c0-1.811.709-3.518 1.998-4.809.383-.383.905-.587 1.458-.587.244 0 .494.04.741.121 2.228.736 5.964.737 8.195 0 .802-.266 1.646-.086 2.198.466v.001c1.289 1.29 1.998 2.997 1.998 4.808v1.527 1.914c0 .251-.015.499-.037.746-.011.116-.029.231-.044.347-.242 1.804-1.073 3.466-2.413 4.761-1.64 1.582-3.795 2.4-6.103 2.329-4.406-.154-7.991-3.923-7.991-8.402zm-18.775 7.392c-.018.091-.05.177-.076.266-.027.093-.052.188-.087.277-.042.105-.096.204-.15.303-.035.065-.067.13-.106.192-.064.102-.138.197-.214.29-.042.052-.083.104-.128.153-.082.089-.171.172-.263.252-.051.044-.103.087-.157.128-.096.072-.195.139-.299.2-.061.036-.124.069-.188.101-.107.054-.216.103-.329.145-.068.025-.139.044-.209.064-.118.034-.238.066-.362.086-.168.027-.337.051-.513.051-.183 0-.359-.023-.534-.053-.116-.02-.226-.052-.337-.083-.084-.024-.168-.046-.249-.076-.088-.033-.171-.073-.255-.113-.101-.049-.2-.099-.294-.157-.06-.037-.116-.076-.173-.116-.108-.078-.212-.161-.309-.251-.04-.037-.079-.073-.116-.112-.101-.104-.193-.215-.278-.332-.028-.039-.058-.076-.084-.116-.081-.122-.15-.253-.213-.386-.021-.044-.045-.086-.063-.131-.057-.137-.099-.282-.135-.428-.012-.047-.029-.091-.039-.139-.039-.194-.062-.394-.062-.599v-.397c.094-.002.188-.016.282-.016h.359c.222.049.448.084.674.12.131.02.26.043.392.059.471.058.948.098 1.434.098.487 0 .964-.04 1.435-.098.131-.016.259-.039.389-.059.227-.036.454-.072.677-.121h.358c.094 0 .188.014.282.016v.397c0 .2-.023.395-.06.585zm-5.991-3.173c-2.938-.931-5.26-3.228-6.195-6.132-.012-.037-.023-.074-.034-.111-.072-.235-.133-.475-.187-.717-.015-.07-.032-.139-.045-.209-.016-.082-.024-.166-.038-.248-.028-.164-.056-.328-.075-.493-.006-.056-.016-.11-.021-.166-.029-.298-.047-.6-.047-.906v-3.174-.561c0-.268.018-.535.046-.802.008-.081.021-.161.032-.241.027-.195.06-.389.101-.582.01-.047.02-.093.031-.139.235.068.474.131.719.187.504.115 1.031.202 1.571.262.022.002.043.003.065.006.521.056 1.053.085 1.59.086.013 0 .025.002.038.002.036 0 .072-.004.108-.004.318-.002.635-.015.954-.037.064-.005.128-.008.192-.013.36-.03.718-.071 1.073-.127.043-.007.085-.016.127-.023.314-.052.624-.117.931-.191.071-.017.142-.033.213-.052.34-.089.674-.188.999-.304.034-.012.067-.027.101-.04.289-.106.568-.226.841-.356.072-.034.145-.068.216-.105.297-.15.586-.311.858-.491.02-.013.038-.029.059-.043.249-.168.484-.352.708-.545.062-.054.123-.108.183-.163.234-.217.458-.444.658-.693.21-.263.397-.533.567-.808.039-.063.069-.128.105-.191.127-.219.244-.439.344-.664.03-.068.054-.136.082-.204.09-.22.17-.441.235-.665.023-.08.042-.16.062-.241.028-.114.067-.228.088-.343.023.009.047.017.07.026.336.132.659.286.969.457.055.03.109.062.164.094.308.18.604.376.883.592.039.03.076.063.115.094.287.231.562.476.813.741.007.007.012.015.019.022.251.267.48.553.692.851.022.031.046.06.068.092.201.292.379.599.541.915.026.051.053.102.078.154.151.314.282.639.392.972.019.057.036.116.054.174.104.341.188.69.246 1.047.007.046.011.092.018.138.054.378.089.763.089 1.155v.561 3.174c0 .306-.018.607-.047.906-.006.066-.018.13-.025.195-.01.085-.026.17-.039.255-.022.153-.041.306-.071.457-.014.071-.031.141-.046.211-.054.241-.114.479-.186.713-.012.039-.023.077-.036.115-.935 2.902-3.255 5.198-6.19 6.129-.125.039-.254.071-.382.105-.808.22-1.654.347-2.532.347-.882 0-1.733-.128-2.544-.35-.124-.033-.248-.063-.368-.101zm-11.514 23.816c-.552 0-1-.448-1-1v-4.617h4.522v5.617zm3.523-12.105v4.488h-4.523v-1.537c0-2.77.918-5.324 2.451-7.398 1.308 1.106 2.072 2.709 2.072 4.447zm5.762-6.477c-.36-.639-.347-1.303.041-1.985.009.073.034.141.046.214.02.111.045.219.071.328.053.216.119.426.198.631.031.08.061.16.096.238.109.243.237.474.382.696.022.033.04.069.063.102.192.278.401.543.645.778-.6-.075-1.173-.348-1.542-1.002zm10.236 0c-.369.652-.935.928-1.528 1.006.131-.125.242-.267.358-.406.078-.092.16-.18.231-.277.099-.136.183-.28.269-.425.072-.121.141-.242.202-.369.067-.139.125-.28.179-.425.059-.156.107-.316.15-.479.034-.13.069-.259.092-.393.01-.053.029-.104.037-.157.357.661.361 1.305.01 1.925zm7.877 2.03c1.532 2.074 2.45 4.628 2.45 7.398v1.537h-4.523v-4.488c0-1.738.765-3.342 2.073-4.447zm2.451 16.552h-4.523v-5.617h4.522v5.617zm2.005-7.53c0-2.534.921-4.854 2.441-6.654 1.343 1 2.281 2.642 2.309 4.143v10.04h-4.75zm25.591 7.529h-4.751v-10.02c.029-1.515.953-3.131 2.315-4.156 1.517 1.798 2.435 4.117 2.435 6.648v7.528zm36.494-.013v-19.958c.941 1.202 2.397 1.991 4.048 1.991s3.107-.789 4.049-1.992v19.958h-8.097zm19.473-1c0 .552-.448 1-1 1h-4.924v-12.091c0-2.123 1.159-4.046 2.994-5.084 1.825 2.172 2.929 4.968 2.929 8.02v8.155z"/><path d="m99.126 67.88c-.583 0-1.055.467-1.055 1.043s.472 1.043 1.055 1.043 1.055-.467 1.055-1.043-.472-1.043-1.055-1.043z"/><path d="m108.438 67.88c-.583 0-1.055.467-1.055 1.043s.472 1.043 1.055 1.043 1.055-.467 1.055-1.043-.473-1.043-1.055-1.043z"/><path d="m103.781 73.066c.937 0 1.7-.757 1.7-1.687v-.695c0-.276-.224-.5-.5-.5s-.5.224-.5.5v.695c0 .379-.314.687-.7.687s-.7-.308-.7-.687v-.695c0-.276-.224-.5-.5-.5s-.5.224-.5.5v.695c0 .931.763 1.687 1.7 1.687z"/><path d="m109.866 66.311-2.066-.355c-.279-.049-.531.136-.578.408s.137.531.408.578l2.066.355c.029.005.058.007.086.007.238 0 .45-.172.492-.415.047-.273-.136-.532-.408-.578z"/><path d="m100.342 66.363c-.047-.272-.304-.456-.578-.408l-2.066.355c-.271.047-.455.306-.408.578.042.243.254.415.492.415.028 0 .057-.002.086-.007l2.066-.355c.271-.046.455-.305.408-.578z"/><path d="m105.726 76.573c-.028.036-.704.875-1.944.875-1.262 0-1.902-.821-1.936-.865-.164-.222-.476-.269-.697-.107-.223.163-.271.476-.109.699.038.052.95 1.273 2.742 1.273 1.747 0 2.696-1.213 2.735-1.265.168-.218.126-.528-.091-.697s-.53-.13-.7.087z"/><path d="m103.782 74.155c-1.952 0-3.571.742-3.872 1.506-.048.122.055.251.187.251h7.371c.132 0 .235-.13.187-.251-.303-.764-1.921-1.506-3.873-1.506z"/><path d="m21.531 104.273h-4.438c-.553 0-1 .447-1 1s.447 1 1 1h4.438c.553 0 1-.447 1-1s-.447-1-1-1z"/><path d="m20.219 95.149c.336 0 .609-.269.609-.602 0-.332-.272-.602-.609-.602-.336 0-.609.269-.609.602s.272.602.609.602z"/><path d="m20.221 91.513c.336 0 .609-.269.609-.602 0-.332-.273-.602-.609-.602s-.609.269-.609.602.272.602.609.602z"/><path d="m20.219 98.785c.336 0 .609-.269.609-.602s-.272-.602-.609-.602c-.336 0-.609.27-.609.602s.272.602.609.602z"/><ellipse cx="20.219" cy="101.819" rx=".609" ry=".602"/><path d="m15.563 68.972c-.583 0-1.055.467-1.055 1.043s.472 1.043 1.055 1.043 1.055-.467 1.055-1.043-.472-1.043-1.055-1.043z"/><path d="m24.874 68.972c-.583 0-1.055.467-1.055 1.043s.472 1.043 1.055 1.043 1.055-.467 1.055-1.043-.472-1.043-1.055-1.043z"/><path d="m21.919 73.473v-.695c0-.276-.224-.5-.5-.5s-.5.224-.5.5v.695c0 .379-.314.687-.7.687s-.7-.308-.7-.687v-.695c0-.276-.224-.5-.5-.5s-.5.224-.5.5v.695c0 .93.763 1.687 1.7 1.687.937-.001 1.7-.758 1.7-1.687z"/><path d="m24.066 68.033 2.066.356c.028.005.058.007.086.007.238 0 .45-.172.492-.415.047-.272-.136-.53-.408-.578l-2.066-.356c-.268-.047-.531.136-.578.408s.136.53.408.578z"/><path d="m16.2 67.047-2.066.356c-.272.048-.455.306-.408.578.042.243.254.415.492.415.028 0 .058-.002.086-.007l2.066-.356c.272-.048.455-.306.408-.578s-.31-.454-.578-.408z"/><ellipse cx="71.531" cy="78.864" rx=".943" ry=".932"/><path d="m79.848 77.932c-.521 0-.943.417-.943.932s.422.932.943.932.943-.417.943-.932-.422-.932-.943-.932z"/><path d="m75.689 83.379c.867 0 1.572-.699 1.572-1.56v-.372c0-.276-.224-.5-.5-.5s-.5.224-.5.5v.372c0 .309-.257.56-.572.56s-.572-.251-.572-.56v-.372c0-.276-.224-.5-.5-.5s-.5.224-.5.5v.372c0 .861.705 1.56 1.572 1.56z"/><path d="m79.117 76.745 1.846.318c.028.005.058.007.086.007.238 0 .45-.172.492-.415.047-.272-.136-.53-.408-.578l-1.846-.318c-.27-.048-.531.136-.578.408s.136.53.408.578z"/><path d="m70.33 77.07c.028 0 .058-.002.086-.007l1.846-.318c.272-.048.455-.306.408-.578s-.313-.455-.578-.408l-1.846.318c-.272.048-.455.306-.408.578.042.243.254.415.492.415z"/><path d="m46.268 74.253c-.513 0-.93.411-.93.919 0 .507.416.919.93.919.513 0 .929-.411.929-.919.001-.507-.415-.919-.929-.919z"/><path d="m54.469 74.253c-.513 0-.929.411-.929.919 0 .507.416.919.929.919s.929-.411.929-.919c.001-.507-.415-.919-.929-.919z"/><path d="m50.369 79.762c.858 0 1.557-.693 1.557-1.545v-.612c0-.276-.224-.5-.5-.5s-.5.224-.5.5v.612c0 .301-.25.545-.557.545-.308 0-.558-.244-.558-.545v-.612c0-.276-.224-.5-.5-.5s-.5.224-.5.5v.612c.001.851.7 1.545 1.558 1.545z"/><path d="m53.748 73.485 1.82.313c.029.005.058.007.086.007.238 0 .45-.172.492-.415.047-.272-.136-.531-.408-.578l-1.82-.313c-.278-.047-.531.136-.578.408s.136.531.408.578z"/><path d="m46.82 72.499-1.82.314c-.272.047-.455.306-.408.578.042.243.254.415.492.415.028 0 .058-.002.086-.007l1.82-.313c.272-.047.455-.306.408-.578s-.312-.456-.578-.409z"/><path d="m52.825 81.026c.167-.218.126-.528-.091-.696-.217-.171-.531-.132-.7.086-.024.03-.604.747-1.665.747-1.082 0-1.631-.703-1.658-.738-.163-.22-.475-.267-.696-.106-.223.163-.271.476-.109.699.034.047.855 1.146 2.464 1.146 1.567-.001 2.42-1.091 2.455-1.138z"/><path d="m11.471 43.484.886.418.157.967c.113.69.6 1.247 1.269 1.451.178.055.359.081.538.081.494 0 .972-.201 1.324-.575l.671-.714.969.149c.697.108 1.371-.185 1.772-.758.4-.573.44-1.311.104-1.923l-.471-.859.44-.875c.315-.624.249-1.359-.171-1.918-.421-.56-1.106-.823-1.8-.696l-.961.182-.696-.688c-.497-.492-1.216-.655-1.878-.43-.662.228-1.129.801-1.218 1.495l-.124.972-.871.449c-.621.321-1 .955-.987 1.654.013.7.414 1.32 1.047 1.618zm1.808-1.985c.535-.273.9-.795.977-1.392l.091-.713.509.504c.427.424 1.032.612 1.626.498l.704-.134-.323.643c-.27.537-.259 1.172.03 1.697l.345.629-.709-.109c-.594-.095-1.192.115-1.606.553l-.491.522-.116-.709c-.097-.592-.479-1.098-1.021-1.355l-.648-.306z"/><path d="m102.102 38.724c.369.596 1.042.926 1.727.856l.975-.094.629.75c.354.421.861.653 1.393.653.146 0 .293-.018.438-.053.681-.166 1.197-.694 1.35-1.378l.212-.956.907-.366c.649-.262 1.085-.858 1.138-1.557.052-.699-.291-1.354-.894-1.708l-.844-.497-.069-.979c-.049-.697-.481-1.296-1.129-1.561-.648-.267-1.377-.143-1.899.321l-.734.649-.949-.236c-.681-.175-1.383.056-1.835.59s-.561 1.266-.281 1.907l.39.899-.52.83c-.373.596-.375 1.335-.005 1.93zm2.393-3.47-.285-.658.696.174c.582.145 1.198-.006 1.649-.404l.537-.475.05.714c.041.599.375 1.139.895 1.446l.617.364-.664.268c-.558.226-.969.71-1.099 1.297l-.155.7-.461-.55c-.349-.415-.861-.651-1.4-.651-.057 0-.114.003-.172.009l-.714.068.381-.609c.318-.51.364-1.143.125-1.693z"/><path d="m45.411 27.476-.475 2.768c-.136.791.183 1.575.832 2.047.366.267.796.401 1.228.401.333 0 .667-.08.977-.243l2.57-1.307 2.485 1.307c.711.375 1.557.313 2.204-.158.649-.472.968-1.256.832-2.047l-.448-2.85 2.012-1.96c.574-.561.776-1.382.528-2.145s-.896-1.309-1.688-1.423l-2.849-.455-1.242-2.518c-.355-.72-1.074-1.167-1.876-1.167-.803 0-1.521.447-1.876 1.167l-1.313 2.568-2.779.404c-.793.114-1.44.66-1.688 1.423s-.046 1.584.528 2.145zm-.591-3.631 2.78-.404c.681-.099 1.27-.526 1.574-1.145l1.326-2.569c.057 0 .072.032.081.052h.001l1.243 2.518c.305.618.894 1.046 1.575 1.145l2.779.404.051.157-2.013 1.961c-.491.48-.716 1.172-.6 1.851l.475 2.768s-.135.098-.134.098l-2.486-1.308c-.305-.159-.639-.239-.973-.239-.335 0-.669.08-.975.24l-2.485 1.307-.134-.098.475-2.768c.116-.679-.108-1.37-.601-1.852l-2.012-1.96-.698.716z"/></g><ellipse cx="32.122" cy="73.156" fill="#fa759e" rx=".819" ry=".81"/><ellipse cx="8.316" cy="73.156" fill="#fa759e" rx=".819" ry=".81"/></svg>