<?xml version="1.0" encoding="iso-8859-1"?>
<!-- Generator: Adobe Illustrator 16.0.0, SVG Export Plug-In . SVG Version: 6.00 Build 0)  -->
<!DOCTYPE svg PUBLIC "-//W3C//DTD SVG 1.1//EN" "http://www.w3.org/Graphics/SVG/1.1/DTD/svg11.dtd">
<svg version="1.1" id="Capa_1" xmlns="http://www.w3.org/2000/svg" xmlns:xlink="http://www.w3.org/1999/xlink" x="0px" y="0px"
	 width="31.99px" height="31.99px" viewBox="0 0 31.99 31.99" style="enable-background:new 0 0 31.99 31.99;" xml:space="preserve"
	>
<g>
	<g>
		<ellipse cx="6.737" cy="22.946" rx="2.711" ry="2.664"/>
		<polygon points="6.782,27.188 5.751,26.011 3.358,26.439 3.358,31.195 4.211,31.195 4.253,31.99 9.148,31.99 9.189,31.195 
			9.827,31.195 9.827,26.439 7.783,26.011 		"/>
		<ellipse cx="15.848" cy="22.821" rx="2.709" ry="2.663"/>
		<polygon points="15.892,27.061 14.862,25.884 12.469,26.314 12.469,31.068 13.322,31.068 13.364,31.864 18.259,31.864 
			18.3,31.068 18.937,31.068 18.937,26.314 16.894,25.884 		"/>
		<ellipse cx="24.711" cy="22.819" rx="2.711" ry="2.664"/>
		<polygon points="24.756,27.061 23.726,25.884 21.332,26.314 21.332,31.068 22.185,31.068 22.228,31.864 27.122,31.864 
			27.163,31.068 27.8,31.068 27.8,26.314 25.757,25.884 		"/>
		<ellipse cx="11.632" cy="12.452" rx="2.174" ry="2.136"/>
		<polygon points="9.641,19.703 13.565,19.703 13.599,19.064 14.109,19.064 14.109,15.253 12.47,14.908 11.668,15.852 
			10.842,14.908 8.924,15.253 8.924,19.064 9.607,19.064 		"/>
		<ellipse cx="20.743" cy="12.351" rx="2.173" ry="2.135"/>
		<polygon points="20.779,15.751 19.953,14.808 18.035,15.151 18.035,18.966 18.718,18.966 18.752,19.602 22.677,19.602 
			22.709,18.966 23.22,18.966 23.22,15.151 21.582,14.808 		"/>
		<ellipse cx="27.849" cy="12.351" rx="2.174" ry="2.135"/>
		<polygon points="28.688,14.808 27.886,15.751 27.06,14.808 25.142,15.151 25.142,18.966 25.825,18.966 25.858,19.602 
			29.783,19.602 29.815,18.966 30.327,18.966 30.327,15.151 		"/>
		<ellipse cx="4.372" cy="12.35" rx="2.173" ry="2.135"/>
		<polygon points="6.338,18.965 6.849,18.965 6.849,15.151 5.21,14.806 4.408,15.75 3.582,14.806 1.663,15.151 1.663,18.965 
			2.347,18.965 2.381,19.602 6.306,19.602 		"/>
		<circle cx="15.967" cy="2.311" r="2.311"/>
		<polygon points="13.914,10.216 18.081,10.216 18.289,6.167 22.415,4.801 22.06,3.721 18.29,4.968 16.808,4.968 15.928,5.989 
			15.075,4.968 13.213,5.25 13.084,9.469 13.877,9.469 		"/>
	</g>
</g>
<g>
</g>
<g>
</g>
<g>
</g>
<g>
</g>
<g>
</g>
<g>
</g>
<g>
</g>
<g>
</g>
<g>
</g>
<g>
</g>
<g>
</g>
<g>
</g>
<g>
</g>
<g>
</g>
<g>
</g>
</svg>
