<svg height="512" viewBox="0 0 64 64" width="512" xmlns="http://www.w3.org/2000/svg"><path d="m18 19h28v36h-28z" fill="#e58f48"/><path d="m18 19h4v36h-4z" fill="#d3752f"/><path d="m42 19h4v36h-4z" fill="#d3752f"/><circle cx="32" cy="30" fill="#fcf05a" r="5"/><g fill="#66342e"><path d="m25 36h2v20h-2z"/><path d="m29 38h2v17h-2z"/><path d="m37 36h2v20h-2z"/><path d="m33 38h2v17h-2z"/></g><path d="m25 22h2v2h-2z" fill="#ffd782"/><path d="m37 22h2v2h-2z" fill="#ffd782"/><path d="m48 19h-32l-2-6h36z" fill="#ad6327"/><path d="m19 13h-2v-4a1 1 0 0 1 .648-.937l8-3 .7 1.874-7.348 2.756z" fill="#32b1cc"/><circle cx="27" cy="6" fill="#f9bb4b" r="2"/><path d="m47 13h-2v-3.307l-7.352-2.756.7-1.874 8 3a1 1 0 0 1 .652.937z" fill="#32b1cc"/><circle cx="37" cy="6" fill="#f9bb4b" r="2"/><path d="m14 55h36v6h-36z" fill="#ad6327"/></svg>