<?xml version="1.0" encoding="iso-8859-1"?>
<!-- Generator: Adobe Illustrator 19.0.0, SVG Export Plug-In . SVG Version: 6.00 Build 0)  -->
<svg version="1.1" id="Layer_1" xmlns="http://www.w3.org/2000/svg" xmlns:xlink="http://www.w3.org/1999/xlink" x="0px" y="0px"
	 viewBox="0 0 511.999 511.999" style="enable-background:new 0 0 511.999 511.999;" xml:space="preserve">
<g>
	<path style="fill:#D89932;" d="M469.592,161.546c0,0-84.75-77.878-127.125-121.398S255.999,0.064,255.999,0.064
		s-44.093-3.437-86.468,40.084S42.406,161.546,42.406,161.546L32.099,199.34v312.659H479.9V199.34L469.592,161.546z"/>
	<path style="fill:#E2E5E7;" d="M443.251,346.352c0,7.18-5.82,13-13,13H90.909c-7.18,0-13-5.82-13-13V108.12c0-7.18,5.82-13,13-13
		h339.342c7.18,0,13,5.82,13,13V346.352z"/>
	<polygon style="opacity:0.07;fill:#2D404E;enable-background:new    ;" points="189.383,330.665 205.03,329.902 71.42,204.685 
		32.099,199.34 	"/>
	<polygon style="opacity:0.07;fill:#2D404E;enable-background:new    ;" points="322.521,330.665 306.874,329.902 440.484,204.685 
		479.805,199.34 	"/>
	<polygon style="fill:#F2B643;" points="32.099,199.34 32.099,511.998 189.511,330.472 69.893,207.739 	"/>
	<polygon style="fill:#F2B643;" points="479.805,199.34 479.805,511.998 322.394,330.472 442.011,207.739 	"/>
	<polygon style="opacity:0.54;fill:#D89932;enable-background:new    ;" points="32.099,511.998 32.099,474.205 184.084,324.904 
		189.511,330.472 	"/>
	<polygon style="opacity:0.54;fill:#D89932;enable-background:new    ;" points="479.805,511.998 479.805,474.205 327.821,324.904 
		322.394,330.472 	"/>
	<path style="fill:#F2B643;" d="M468.685,475.922c0,0-120.859-126.551-131.796-136.858c-10.938-10.307-19.688-9.161-19.688-9.161
		h-61.249h-61.25c0,0-8.75-1.146-19.688,9.161C164.076,349.372,43.219,475.922,43.219,475.922l-10.392,36.076h223.125h223.124
		L468.685,475.922z"/>
	<g>
		<path style="fill:#D1D5D5;" d="M132.133,226.84l29.855-55.562l12.741,30.735c0,0-0.289-13.965,9.309-13.743
			s16.927,38.57,16.927,38.57H132.133L132.133,226.84z"/>
		<circle style="fill:#D1D5D5;" cx="180.515" cy="177.364" r="6.087"/>
	</g>
	<path style="fill:#D1D5D5;" d="M373.652,183.307c0,3.162-2.563,5.727-5.727,5.727H255.376c-3.163,0-5.727-2.564-5.727-5.727v-0.216
		c0-3.162,2.564-5.727,5.727-5.727h112.549c3.163,0,5.727,2.564,5.727,5.727V183.307z"/>
	<path style="fill:#D1D5D5;" d="M373.652,205.282c0,3.162-2.563,5.727-5.727,5.727H255.376c-3.163,0-5.727-2.564-5.727-5.727v-0.216
		c0-3.162,2.564-5.727,5.727-5.727h112.549c3.163,0,5.727,2.564,5.727,5.727V205.282z"/>
	<path style="fill:#D1D5D5;" d="M373.652,227.259c0,3.162-2.563,5.726-5.727,5.726H255.376c-3.163,0-5.727-2.563-5.727-5.726v-0.216
		c0-3.163,2.564-5.727,5.727-5.727h112.549c3.163,0,5.727,2.563,5.727,5.727V227.259z"/>
	<g>
		<g>
			<g>
				<g>
					<polygon style="fill:#DF584C;" points="166.55,95.12 152.627,120.698 174.729,120.698 188.652,95.12 					"/>
					<polygon style="fill:#E2E5E7;" points="144.447,95.12 130.525,120.698 152.627,120.698 166.55,95.12 					"/>
					<polygon style="fill:#E2E5E7;" points="188.652,95.12 174.729,120.698 196.832,120.698 210.754,95.12 					"/>
					<polygon style="fill:#E2E5E7;" points="232.857,95.12 218.934,120.698 241.037,120.698 254.959,95.12 					"/>
					<polygon style="fill:#DF584C;" points="77.91,95.12 77.91,120.698 86.32,120.698 100.243,95.12 					"/>
					<polygon style="fill:#E2E5E7;" points="100.243,95.12 86.32,120.698 108.422,120.698 122.345,95.12 					"/>
					<polygon style="fill:#E2E5E7;" points="365.471,95.12 351.549,120.698 373.652,120.698 387.574,95.12 					"/>
					<polygon style="fill:#E2E5E7;" points="409.676,95.12 395.753,120.698 417.856,120.698 431.779,95.12 					"/>
					<polygon style="fill:#DF584C;" points="254.959,95.12 241.037,120.698 263.139,120.698 277.062,95.12 					"/>
					<polygon style="fill:#DF584C;" points="431.779,95.12 417.856,120.698 443.251,120.698 443.251,95.12 					"/>
					<polygon style="fill:#DF584C;" points="343.369,95.12 329.447,120.698 351.549,120.698 365.471,95.12 					"/>
					<polygon style="fill:#E2E5E7;" points="277.062,95.12 263.139,120.698 285.242,120.698 299.164,95.12 					"/>
					<g>
						<polygon style="fill:#2D404E;" points="210.754,95.12 196.832,120.698 218.934,120.698 232.857,95.12 						"/>
						<polygon style="fill:#2D404E;" points="122.345,95.12 108.422,120.698 130.525,120.698 144.447,95.12 						"/>
						<polygon style="fill:#2D404E;" points="387.574,95.12 373.652,120.698 395.753,120.698 409.676,95.12 						"/>
						<polygon style="fill:#2D404E;" points="299.164,95.12 285.242,120.698 307.344,120.698 321.266,95.12 						"/>
					</g>
					<polygon style="fill:#E2E5E7;" points="321.266,95.12 307.344,120.698 329.447,120.698 343.369,95.12 					"/>
				</g>
			</g>
		</g>
	</g>
</g>
<g>
</g>
<g>
</g>
<g>
</g>
<g>
</g>
<g>
</g>
<g>
</g>
<g>
</g>
<g>
</g>
<g>
</g>
<g>
</g>
<g>
</g>
<g>
</g>
<g>
</g>
<g>
</g>
<g>
</g>
</svg>
