<svg height="512" viewBox="0 0 64 64" width="512" xmlns="http://www.w3.org/2000/svg"><path d="m3 11h44v50h-44z" fill="#006df0"/><path d="m7 11h36v46h-36z" fill="#d1e7f8"/><path d="m21 15h14v-8h-6a4 4 0 0 0 -8 0h-6v8zm4-7a2 2 0 1 1 -2 2 2 2 0 0 1 2-2z" fill="#ffcd00"/><path d="m21 17a2 2 0 0 0 2 2h4a2 2 0 0 0 2-2v-2h-8z" fill="#ff5023"/><circle cx="25" cy="10" fill="#ff3051" r="2"/><path d="m58 61 3-7h-6z" fill="#d80027"/><path d="m55 29h6v25h-6z" fill="#2488ff"/><path d="m60 11a2 2 0 0 0 -4 0v4h4z" fill="#d80027"/><path d="m30.65 46a3.228 3.228 0 0 1 -.24.58l2.37 2.37-2.83 2.83-2.37-2.37a3.228 3.228 0 0 1 -.58.24v3.35h-4v-3.35a3.228 3.228 0 0 1 -.58-.24l-2.37 2.37-2.83-2.83 2.37-2.37a3.228 3.228 0 0 1 -.24-.58h-3.35v-4h3.35a3.228 3.228 0 0 1 .24-.58l-2.37-2.37 2.83-2.83 2.37 2.37a3.228 3.228 0 0 1 .58-.24v-3.35h4v3.35a3.228 3.228 0 0 1 .58.24l2.37-2.37 2.83 2.83-2.37 2.37a3.228 3.228 0 0 1 .24.58h3.35v4z" fill="#ffa733"/><circle cx="25" cy="44" fill="#ff3051" r="3"/><path d="m7 36v21h22c-12.16 0-22-9.393-22-21z" fill="#96c8ef"/><path d="m52 30a1 1 0 0 1 -1-1v-8a5.006 5.006 0 0 1 5-5 1 1 0 0 1 0 2 3 3 0 0 0 -3 3v8a1 1 0 0 1 -1 1z" fill="#006df0"/><g fill="#ff6243"><path d="m37 24h-24a1 1 0 0 1 0-2h24a1 1 0 0 1 0 2z"/><path d="m37 28h-24a1 1 0 0 1 0-2h24a1 1 0 0 1 0 2z"/><path d="m37 32h-24a1 1 0 0 1 0-2h24a1 1 0 0 1 0 2z"/></g><path d="m56 15h-1v2 12h6v-14h-1z" fill="#006df0"/></svg>