<svg height="512pt" viewBox="0 -2 512 512" width="512pt" xmlns="http://www.w3.org/2000/svg"><path d="m256 73.808594h89.808594c2.78125 0 4.082031-3.445313 1.996094-5.285156l-23.332032-20.546876c-1.363281-1.203124-1.363281-3.328124 0-4.53125l23.332032-20.550781c2.085937-1.835937.785156-5.285156-1.996094-5.285156h-89.808594zm0 0" fill="#fdb659"/><path d="m324.472656 47.976562c-1.363281-1.203124-1.363281-3.328124 0-4.53125l23.332032-20.550781c2.085937-1.835937.785156-5.28125-1.996094-5.28125h-25.621094c2.78125 0 4.082031 3.445313 1.996094 5.28125l-23.328125 20.550781c-1.367188 1.203126-1.367188 3.328126 0 4.53125l23.328125 20.546876c2.085937 1.839843.789062 5.285156-1.996094 5.285156h25.621094c2.78125 0 4.082031-3.445313 1.996094-5.285156zm0 0" fill="#fd9e28"/><path d="m504.5 377.738281c0-2.449219-.972656-4.792969-2.699219-6.523437l-229.449219-229.503906c-8.476562-8.46875-22.207031-8.46875-30.683593 0l-83.78125 83.8125h-.011719l-147.667969 147.710937c-1.730469 1.730469-2.703125 4.078125-2.703125 6.523437v71.6875c0 27.265626 22.097656 49.367188 49.355469 49.367188h398.285156c27.257813 0 49.355469-22.101562 49.355469-49.367188zm0 0" fill="#ffae85"/><path d="m501.800781 371.214844-229.449219-229.503906c-4.488281-4.480469-10.441406-6.566407-16.3125-6.304688l137.46875 176.648438c29.921876 38.453124 46.917969 85.386718 48.558594 134.085937l.179688 5.304687c0 27.265626-22.097656 49.367188-49.355469 49.367188h62.253906c27.257813 0 49.355469-22.101562 49.355469-49.367188v-73.707031c.003906-2.449219-.96875-4.792969-2.699219-6.523437zm0 0" fill="#ea9e7d"/><path d="m332.949219 202.324219-31.113281 20.527343c-2.441407 1.613282-5.625 1.566407-8.023438-.113281l-23.761719-16.628906c-2.535156-1.773437-5.917969-1.714844-8.390625.144531l-21.542968 16.222656c-2.421876 1.824219-5.734376 1.917969-8.257813.234376l-21.558594-14.398438c-1.941406-1.296875-4.390625-1.558594-6.566406-.710938l-45.847656 17.921876 83.78125-83.8125c8.476562-8.46875 22.207031-8.46875 30.683593 0zm0 0" fill="#e9edf1"/><path d="m256.039062 135.40625 60.5 77.742188 16.410157-10.824219-60.597657-60.613281c-4.488281-4.480469-10.441406-6.566407-16.3125-6.304688zm0 0" fill="#dae2e8"/><path d="m102.824219 432.691406c2.539062-.851562 4.804687-2.21875 6.679687-3.964844 3.675782-3.4375 5.898438-8.304687 5.898438-13.570312v-15.671875h30.859375v15.671875c0 4.886719 1.902343 9.433594 5.128906 12.804688 2.019531 2.113281 4.546875 3.761718 7.449219 4.730468zm0 0" fill="#fedfc5"/><path d="m146.257812 398.757812v9.839844l-7.023437 4.285156c-5.164063 3.148438-11.644531 3.148438-16.808594 0l-7.023437-4.285156v-9.839844zm0 0" fill="#fecbaa"/><path d="m160.980469 343.808594v37.460937c0 5.652344-2.945313 10.894531-7.757813 13.832031l-13.988281 8.523438c-5.164063 3.148438-11.640625 3.148438-16.808594 0l-13.988281-8.523438c-4.820312-2.9375-7.753906-8.179687-7.753906-13.832031v-37.460937c0-10.304688 8.335937-18.652344 18.625-18.652344h23.046875c10.285156 0 18.625 8.347656 18.625 18.652344zm0 0" fill="#fedfc5"/><path d="m142.355469 325.15625h-11.683594c10.285156 0 18.625 8.347656 18.625 18.652344v37.460937c0 5.652344-2.945313 10.894531-7.757813 13.832031l-13.988281 8.523438c-.824219.503906-1.679687.914062-2.5625 1.257812 4.636719 1.800782 9.90625 1.386719 14.246094-1.257812l13.988281-8.523438c4.8125-2.9375 7.757813-8.179687 7.757813-13.832031v-37.460937c0-10.304688-8.339844-18.652344-18.625-18.652344zm0 0" fill="#fecbaa"/><path d="m160.980469 343.808594v17.40625l-37.804688-12.179688c-1.398437-.449218-2.917969-.320312-4.222656.359375l-18.269531 9.542969v-15.128906c0-10.304688 8.335937-18.652344 18.625-18.652344h23.046875c10.285156 0 18.625 8.347656 18.625 18.652344zm0 0" fill="#c97f4c"/><path d="m142.355469 325.15625h-11.679688c10.289063 0 18.625 8.347656 18.625 18.652344v13.640625l11.679688 3.765625v-17.40625c0-10.304688-8.339844-18.652344-18.625-18.652344zm0 0" fill="#aa6344"/><path d="m73.121094 500.8125c-2.875 0-5.203125-2.332031-5.203125-5.207031v-26.15625c0-14.9375 9.511719-28.203125 23.648437-32.964844l11.261719-3.792969c2.539063-.851562 4.800781-2.222656 6.675781-3.96875 6.042969 2.191406 13.160156 3.671875 21.203125 3.5 7.921875-.171875 14.847657-1.910156 20.679688-4.261718 2.015625 2.113281 4.550781 3.757812 7.453125 4.730468l11.257812 3.789063c14.128906 4.761719 23.652344 18.03125 23.652344 32.964843v31.363282h-120.628906zm0 0" fill="#43a3f9"/><path d="m130.101562 432.324219-13.242187 46.808593c-.339844 1.207032-.039063 2.507813.800781 3.441407l9.851563 10.988281c1.40625 1.566406 3.839843 1.625 5.320312.132812l10.964844-11.058593c.957031-.960938 1.300781-2.375.894531-3.667969zm0 0" fill="#83d9ff"/><path d="m354.488281 432.691406c2.535157-.851562 4.804688-2.21875 6.679688-3.964844 3.675781-3.4375 5.898437-8.304687 5.898437-13.570312v-15.671875h30.855469v15.671875c0 4.886719 1.90625 9.433594 5.132813 12.804688 2.015624 2.113281 4.546874 3.761718 7.445312 4.730468zm0 0" fill="#fedfc5"/><path d="m397.921875 398.757812v9.839844l-7.023437 4.285156c-5.167969 3.148438-11.644532 3.148438-16.808594 0l-7.027344-4.285156v-9.839844zm0 0" fill="#fecbaa"/><path d="m412.640625 343.808594v37.460937c0 5.652344-2.941406 10.894531-7.753906 13.832031l-13.988281 8.523438c-5.164063 3.148438-11.644532 3.148438-16.808594 0l-13.988282-8.523438c-4.820312-2.9375-7.753906-8.179687-7.753906-13.832031v-37.460937c0-10.304688 8.335938-18.652344 18.621094-18.652344h23.050781c10.285157 0 18.621094 8.347656 18.621094 18.652344zm0 0" fill="#fedfc5"/><path d="m394.019531 325.15625h-11.683593c10.285156 0 18.625 8.347656 18.625 18.652344v37.460937c0 5.652344-2.945313 10.894531-7.757813 13.832031l-13.988281 8.523438c-.824219.503906-1.683594.914062-2.5625 1.257812 4.636718 1.800782 9.902344 1.386719 14.246094-1.257812l13.988281-8.523438c4.8125-2.9375 7.753906-8.179687 7.753906-13.832031v-37.460937c0-10.304688-8.335937-18.652344-18.621094-18.652344zm0 0" fill="#fecbaa"/><path d="m412.640625 343.808594v17.40625l-37.800781-12.179688c-1.398438-.449218-2.917969-.320312-4.222656.359375l-18.269532 9.542969v-15.128906c0-10.304688 8.335938-18.652344 18.621094-18.652344h23.050781c10.285157 0 18.621094 8.347656 18.621094 18.652344zm0 0" fill="#c97f4c"/><path d="m394.019531 325.15625h-11.679687c10.285156 0 18.625 8.347656 18.625 18.652344v13.640625l11.675781 3.765625v-17.40625c0-10.304688-8.335937-18.652344-18.621094-18.652344zm0 0" fill="#aa6344"/><path d="m324.785156 500.8125c-2.875 0-5.207031-2.332031-5.207031-5.207031v-26.15625c0-14.9375 9.515625-28.203125 23.652344-32.964844l11.257812-3.792969c2.542969-.851562 4.800781-2.222656 6.679688-3.96875 6.042969 2.191406 13.15625 3.671875 21.203125 3.5 7.917968-.171875 14.847656-1.910156 20.679687-4.261718 2.015625 2.113281 4.550781 3.757812 7.449219 4.730468l11.261719 3.789063c14.125 4.761719 23.648437 18.03125 23.648437 32.964843v25.511719c0 3.234375-2.617187 5.851563-5.851562 5.851563h-114.773438zm0 0" fill="#43a3f9"/><path d="m381.765625 432.324219-13.242187 46.808593c-.339844 1.207032-.039063 2.507813.796874 3.441407l9.855469 10.988281c1.402344 1.566406 3.839844 1.625 5.320313.132812l10.964844-11.058593c.953124-.960938 1.296874-2.375.894531-3.667969zm0 0" fill="#83d9ff"/><path d="m222.183594 416.949219c3.125-1.054688 5.914062-2.734375 8.226562-4.882813 4.523438-4.234375 7.257813-10.226562 7.257813-16.707031v-19.296875h37.988281v19.296875c0 6.015625 2.34375 11.613281 6.316406 15.761719 2.484375 2.605468 5.597656 4.632812 9.167969 5.828125zm0 0" fill="#fedfc5"/><path d="m275.65625 375.171875v12.113281l-8.648438 5.277344c-6.359374 3.875-14.332031 3.875-20.691406 0l-8.648437-5.277344v-12.113281zm0 0" fill="#fecbaa"/><path d="m293.777344 307.523438v46.117187c0 6.957031-3.625 13.414063-9.546875 17.03125l-17.222657 10.492187c-6.359374 3.875-14.332031 3.875-20.691406 0l-17.222656-10.492187c-5.933594-3.617187-9.546875-10.074219-9.546875-17.03125v-46.117187c0-12.6875 10.261719-22.964844 22.925781-22.964844h28.375c12.664063 0 22.929688 10.277344 22.929688 22.964844zm0 0" fill="#fedfc5"/><path d="m270.851562 284.558594h-14.382812c12.660156 0 22.925781 10.277344 22.925781 22.964844v46.117187c0 6.957031-3.625 13.414063-9.546875 17.027344l-17.222656 10.496093c-1.015625.617188-2.070312 1.125-3.15625 1.546876 5.710938 2.21875 12.195312 1.710937 17.539062-1.546876l17.222657-10.496093c5.921875-3.613281 9.546875-10.070313 9.546875-17.027344v-46.117187c0-12.6875-10.265625-22.964844-22.925782-22.964844zm0 0" fill="#fecbaa"/><path d="m293.777344 307.523438v21.425781l-46.539063-14.988281c-1.722656-.558594-3.59375-.398438-5.199219.441406l-22.492187 11.746094v-18.625c0-12.6875 10.265625-22.964844 22.925781-22.964844h28.375c12.664063 0 22.929688 10.277344 22.929688 22.964844zm0 0" fill="#c97f4c"/><path d="m270.851562 284.558594h-14.378906c12.664063 0 22.925782 10.277344 22.925782 22.964844v16.792968l14.378906 4.632813v-21.425781c0-12.6875-10.265625-22.964844-22.925782-22.964844zm0 0" fill="#aa6344"/><path d="m179.207031 500.8125v-38.613281c0-18.386719 11.714844-34.722657 29.117188-40.585938l13.859375-4.664062c3.128906-1.050781 5.910156-2.738281 8.21875-4.890625 7.441406 2.703125 16.203125 4.523437 26.105468 4.3125 9.753907-.214844 18.28125-2.355469 25.460938-5.246094 2.484375 2.601562 5.601562 4.628906 9.171875 5.824219l13.863281 4.667969c17.390625 5.859374 29.117188 22.195312 29.117188 40.582031v38.613281zm0 0" fill="#83d9ff"/><path d="m255.765625 416.492188-16.300781 57.628906c-.421875 1.488281-.050782 3.085937.980468 4.238281l12.128907 13.527344c1.730469 1.929687 4.726562 2.003906 6.554687.164062l13.496094-13.613281c1.175781-1.183594 1.597656-2.921875 1.101562-4.515625zm0 0" fill="#43a3f9"/><path d="m424.148438 429.371094-11.28125-3.796875c-1.664063-.554688-3.175782-1.515625-4.40625-2.8125-1.957032-2.039063-3.035157-4.738281-3.035157-7.601563v-11.605468l3.363281-2.050782c7.003907-4.269531 11.351563-12.023437 11.351563-20.230468v-19.960938c0-.027344 0-.050781 0-.074219v-17.429687c0-14.421875-11.71875-26.15625-26.125-26.15625h-23.050781c-14.40625 0-26.125 11.734375-26.125 26.15625v15.007812.023438 22.433594c0 8.207031 4.351562 15.960937 11.355468 20.230468l3.371094 2.054688v11.601562c0 3.042969-1.285156 5.988282-3.507812 8.066406-1.140625 1.0625-2.476563 1.855469-3.964844 2.355469l-11.265625 3.789063c-5.863281 1.972656-11.089844 5.128906-15.550781 9.371094-.042969.039062-.082032.078124-.125.117187-.042969.039063-.085938.078125-.128906.117187-.042969.042969-.078126.085938-.121094.128907-.105469.109375-.210938.21875-.3125.335937-.070313.078125-.136719.160156-.203125.242188-.082031.105468-.164063.210937-.242188.320312-.070312.101563-.140625.203125-.207031.308594-.058594.09375-.121094.1875-.175781.285156-.070313.121094-.136719.242188-.199219.363282-.042969.089843-.089844.179687-.128906.269531-.058594.132812-.117188.261719-.167969.394531-.039063.09375-.070313.1875-.105469.28125-.042968.128906-.085937.257812-.125.394531-.027344.101563-.054687.207031-.082031.3125-.027344.125-.054687.246094-.078125.367188-.023438.121093-.042969.246093-.058594.367187-.015625.109375-.027344.21875-.039062.328125-.011719.136719-.019532.273438-.027344.410157-.003906.097656-.003906.199218-.003906.296874 0 .144532.003906.285157.011718.429688.003907.097656.011719.199219.023438.300781.011719.132813.03125.269531.050781.40625.019531.113281.039063.222657.0625.335938.023438.117187.050781.238281.078125.359375.035156.128906.074219.257812.113282.386718.03125.097657.0625.199219.097656.296876.050781.144531.109375.289062.171875.4375.023437.050781.039062.105468.0625.15625 2.125 4.632812 3.199219 9.578124 3.199219 14.703124v38.613282c0 4.144531 3.359374 7.5 7.5 7.5 4.140624 0 7.5-3.355469 7.5-7.5v-38.613282c0-5.304687-.820313-10.476562-2.429688-15.445312 1.980469-1.324219 4.125-2.386719 6.429688-3.164062l11.257812-3.785157c2.027344-.683593 3.933594-1.601562 5.710938-2.738281 3.113281.910156 6.269531 1.597656 9.464843 2.042969l-11.292969 39.925781c-.699218 2.476562-.082031 5.132812 1.632813 7.046875l13.789063 15.378906c1.378906 1.539063 3.332031 2.441407 5.398437 2.492188h.1875c1.996094 0 3.914063-.796875 5.324219-2.21875l15.25-15.375c1.957031-1.976563 2.660156-4.871094 1.832031-7.523438l-12.496094-39.953125c3.332031-.542968 6.617188-1.351562 9.847657-2.402344 2.023437 1.410157 4.242187 2.542969 6.582031 3.324219l11.253906 3.785157c11.09375 3.738281 18.546875 14.132812 18.546875 25.859374v31.363282c0 4.144531 3.355469 7.5 7.5 7.5 4.140625 0 7.5-3.355469 7.5-7.5v-31.363282c0-18.171874-11.554688-34.277343-28.757812-40.074218zm-41.9375-4.644532c-3.109376.0625-6.195313-.15625-9.234376-.648437 1.039063-2.835937 1.589844-5.851563 1.589844-8.917969v-3.03125c2.566406.917969 5.246094 1.378906 7.925782 1.378906 2.683593 0 5.367187-.464843 7.933593-1.382812v3.035156c0 2.910156.476563 5.75 1.390625 8.429688-3.15625.679687-6.367187 1.0625-9.605468 1.136718zm-22.367188-61.242187 13.5-7.046875 31.796875 10.238281v14.59375c0 3.015625-1.59375 5.863281-4.164063 7.429688l-13.984374 8.527343c-2.777344 1.691407-6.222657 1.691407-9 0l-13.984376-8.527343c-2.570312-1.566407-4.164062-4.414063-4.164062-7.429688zm11.121094-30.832031h23.054687c6.132813 0 11.121094 5.003906 11.121094 11.15625v7.105468l-30.1875-9.71875c-1.914063-.617187-3.992187-.4375-5.773437.492188l-9.335938 4.875v-2.753906c0-6.152344 4.988281-11.15625 11.121094-11.15625zm11.074218 152.871094-5.722656-6.382813 5.808594-20.539063 6.382812 20.398438zm0 0"/><path d="m307.402344 414.511719-13.875-4.675781c-2.328125-.78125-4.449219-2.125-6.132813-3.878907 0-.003906-.003906-.007812-.007812-.011719-2.734375-2.871093-4.238281-6.628906-4.238281-10.589843v-15.246094l4.980468-3.035156c8.109375-4.945313 13.148438-13.921875 13.148438-23.429688v-24.597656c0-.027344 0-.050781 0-.074219v-21.449218c0-16.800782-13.652344-30.46875-30.429688-30.46875h-28.378906c-16.777344 0-30.425781 13.667968-30.425781 30.46875v18.503906.023437 27.59375c0 9.507813 5.035156 18.484375 13.144531 23.429688l4.984375 3.039062v15.242188c0 4.234375-1.78125 8.328125-4.863281 11.203125-1.609375 1.492187-3.464844 2.59375-5.527344 3.28125l-13.859375 4.675781c-10.164063 3.425781-18.9375 10.070313-25.046875 18.742187-2.621094-1.585937-5.421875-2.886718-8.386719-3.886718l-11.285156-3.796875c-1.683594-.558594-3.160156-1.496094-4.402344-2.800781-1.960937-2.054688-3.042969-4.753907-3.042969-7.613282v-11.601562l3.367188-2.054688c7.003906-4.269531 11.351562-12.023437 11.351562-20.230468v-19.960938c0-.027344 0-.050781 0-.074219v-17.429687c0-14.421875-11.71875-26.15625-26.125-26.15625h-23.050781c-14.40625 0-26.125 11.734375-26.125 26.15625v15.007812.023438 22.433594c0 8.207031 4.351563 15.960937 11.355469 20.230468l3.367188 2.054688v11.601562c0 3.050782-1.28125 5.992188-3.507813 8.066406-1.144531 1.066407-2.476563 1.859376-3.957031 2.355469l-11.261719 3.789063c-17.199219 5.796875-28.753906 21.898437-28.753906 40.074218v31.363282c0 4.140625 3.355469 7.5 7.5 7.5 4.140625 0 7.5-3.359375 7.5-7.5v-31.363282c0-11.730468 7.453125-22.121093 18.539062-25.859374l11.257813-3.785157c2.027344-.683593 3.929687-1.605469 5.707031-2.742187 3.113281.914062 6.269531 1.601562 9.464844 2.042968l-11.292969 39.929688c-.699219 2.472656-.082031 5.132812 1.632812 7.046875l13.789063 15.378906c1.378906 1.539063 3.332031 2.4375 5.394531 2.492188h.1875c2 0 3.917969-.796875 5.328125-2.21875l15.246094-15.378907c1.957031-1.972656 2.664063-4.867187 1.832031-7.519531l-12.496094-39.953125c3.332032-.542968 6.621094-1.351562 9.851563-2.40625 2.03125 1.417969 4.25 2.550782 6.585937 3.324219l11.253907 3.789063c2.308593.777343 4.457031 1.839843 6.433593 3.164062-1.605468 4.96875-2.425781 10.140625-2.425781 15.441406v38.617188c0 4.140625 3.355469 7.5 7.5 7.5 4.140625 0 7.5-3.359375 7.5-7.5v-38.617188c0-5.121094 1.074219-10.066406 3.199219-14.707031 4.03125-8.820313 11.613281-15.660156 20.808594-18.757813l13.839844-4.667968c2.609374-.871094 5.054687-2.085938 7.320312-3.621094 4.632812 1.410156 9.359375 2.382812 14.148438 2.925781l-14.453126 51.105469c-.699218 2.472656-.085937 5.132812 1.632813 7.046875l16.972656 18.933594c1.378907 1.535156 3.332031 2.4375 5.398438 2.488281.0625.003906.125.003906.1875.003906 1.996093 0 3.914062-.796875 5.324219-2.21875l18.773437-18.933594c1.957031-1.972656 2.660156-4.867187 1.832031-7.519531l-15.992187-51.136719c4.980469-.679687 9.890625-1.828124 14.6875-3.449218 2.539062 1.878906 5.363281 3.367187 8.359375 4.371094l13.859375 4.671874c.796875.265626 1.605469.394532 2.398437.394532 3.128906 0 6.050782-1.976563 7.105469-5.105469 1.328125-3.925781-.78125-8.179687-4.707031-9.503906zm-176.855469 10.214843c-3.109375.0625-6.195313-.15625-9.234375-.648437 1.035156-2.835937 1.585938-5.851563 1.585938-8.917969v-3.035156c2.566406.921875 5.25 1.382812 7.929687 1.382812 2.683594 0 5.363281-.460937 7.929687-1.382812v3.035156c0 2.90625.480469 5.75 1.390626 8.429688-3.152344.679687-6.363282 1.0625-9.601563 1.136718zm-22.367187-61.242187 13.5-7.046875 31.800781 10.238281v14.59375c0 3.015625-1.597657 5.863281-4.164063 7.429688l-13.988281 8.527343c-2.773437 1.691407-6.222656 1.691407-8.996094 0l-13.988281-8.527343c-2.566406-1.566407-4.164062-4.414063-4.164062-7.429688zm11.125-30.832031h23.050781c6.132812 0 11.125 5.003906 11.125 11.15625v7.105468l-30.191407-9.71875c-1.910156-.617187-3.992187-.4375-5.769531.492188l-9.339843 4.875v-2.753906c0-6.152344 4.992187-11.15625 11.125-11.15625zm11.070312 152.871094-5.722656-6.382813 5.8125-20.539063 6.378906 20.398438zm125.972656-76.652344c-4.648437.097656-9.265625-.316406-13.800781-1.210938 1.710937-3.84375 2.628906-8.035156 2.628906-12.304687v-6.320313c3.648438 1.695313 7.566407 2.554688 11.484375 2.554688 3.921875 0 7.835938-.863282 11.488282-2.558594v6.324219c0 4.042969.800781 7.980469 2.316406 11.625-4.625 1.152343-9.34375 1.789062-14.117188 1.890625zm-13.878906-116.816406h28.382812c8.503907 0 15.425782 6.9375 15.425782 15.46875v11.128906l-39.433594-12.699219c-1.910156-.613281-3.988281-.4375-5.769531.492187l-14.03125 7.328126v-6.25c0-8.53125 6.921875-15.46875 15.425781-15.46875zm-15.425781 38.640624 18.191406-9.5 41.042969 13.214844v19.234375c0 4.3125-2.28125 8.382813-5.957032 10.621094l-17.21875 10.5c-3.972656 2.421875-8.910156 2.421875-12.882812 0l-17.21875-10.5c-3.671875-2.238281-5.957031-6.3125-5.957031-10.621094zm28.996093 153.820313-8.910156-9.9375 8.996094-31.804687 9.90625 31.664062zm0 0"/><path d="m509.804688 368.613281-171.539063-171.578125c-.011719-.011718-.023437-.019531-.035156-.03125l-60.578125-60.59375c-3.949219-3.953125-8.835938-6.625-14.152344-7.824218v-47.277344h82.308594c4.417968 0 8.28125-2.667969 9.839844-6.800782 1.5625-4.132812.429687-8.691406-2.886719-11.609374l-19.511719-17.1875 19.511719-17.1875c3.316406-2.917969 4.449219-7.476563 2.886719-11.609376-1.558594-4.132812-5.421876-6.804687-9.839844-6.804687h-82.308594v-2.609375c0-4.144531-3.359375-7.5-7.5-7.5s-7.5 3.355469-7.5 7.5v121.609375c-4.535156 1.375-8.6875 3.851563-12.132812 7.300781l-26.675782 26.683594c-2.929687 2.929688-2.929687 7.675781 0 10.605469 2.929688 2.925781 7.679688 2.929687 10.605469-.003907l26.675781-26.679687c2.679688-2.683594 6.246094-4.160156 10.035156-4.160156 3.792969 0 7.355469 1.476562 10.039063 4.160156l54.097656 54.113281-23.230469 15.324219-27.8125-19.464844c-2.660156-1.863281-6.21875-1.800781-8.8125.152344l-25.476562 19.1875-24.445312-16.320313c-2.039063-1.359374-4.613282-1.640624-6.898438-.746093l-15.972656 6.242187 8.023437-8.027344c2.929688-2.929687 2.929688-7.675781 0-10.605468-2.929687-2.925782-7.679687-2.925782-10.605469 0l-33.253906 33.265625c-.015625.011719-.027344.023437-.039062.039062l-150.425782 150.457031c-2.929687 2.929688-2.925781 7.679688 0 10.605469 1.464844 1.464844 3.386719 2.195313 5.304688 2.195313 1.921875 0 3.839844-.730469 5.304688-2.195313l149.265624-149.300781 44.21875-17.28125 25.617188 17.105469c2.652344 1.769531 6.132812 1.671875 8.675781-.246094l25.378907-19.113281 27.523437 19.265625c2.519531 1.765625 5.863281 1.8125 8.433594.117187l30.050781-19.828125 167.226562 167.261719c1.464844 1.464844 3.382813 2.199219 5.304688 2.199219 1.917969 0 3.835938-.734375 5.300781-2.195313 2.929688-2.929687 2.929688-7.679687.003907-10.609375zm-175.863282-343.503906-14.425781 12.707031c-2.265625 1.996094-3.5625 4.875-3.5625 7.894532 0 3.019531 1.296875 5.898437 3.5625 7.894531l14.425781 12.703125h-70.441406v-41.199219zm0 0"/></svg>