<svg height="512pt" viewBox="-40 0 512 512" width="512pt" xmlns="http://www.w3.org/2000/svg"><g fill-rule="evenodd"><path d="m89.289062 393.765625c-43.789062 0-79.289062-35.5-79.289062-79.292969 0-43.789062 35.5-79.289062 79.289062-79.289062zm0 0" fill="#49aaee"/><path d="m342.113281 393.765625c43.789063 0 79.289063-35.5 79.289063-79.292969 0-43.789062-35.5-79.289062-79.289063-79.289062zm0 0" fill="#49aaee"/><path d="m175.855469 502c29.511719 0 53.582031-14.671875 53.582031-32.660156 0-17.988282-24.070312-32.660156-53.582031-32.660156s-53.585938 14.671874-53.585938 32.660156c0 17.988281 24.074219 32.660156 53.585938 32.660156zm0 0" fill="#35dc86"/><path d="m89.289062 225.183594c-27.929687 0-52.902343 12.894531-69.289062 33.042968v-42.527343c0-48.292969 17.941406-94.765625 50.519531-130.851563 3.699219-4.101562 3.378907-10.421875-.722656-14.125-4.101563-3.699218-10.421875-3.375-14.121094.722656-35.902343 39.769532-55.675781 91-55.675781 144.253907v98.773437c0 49.234375 40.054688 89.292969 89.289062 89.292969 5.523438 0 10-4.480469 10-10v-158.582031c0-5.523438-4.476562-10-10-10zm-10 157.859375c-33.484374-4.859375-59.289062-33.757813-59.289062-68.570313 0-34.808594 25.804688-63.707031 59.289062-68.570312zm0 0"/><path d="m368.050781 63.355469c-40.855469-40.855469-94.960937-63.355469-152.351562-63.355469-32.601563 0-63.980469 7.179688-93.269531 21.335938-4.972657 2.402343-7.054688 8.382812-4.652344 13.355468 2.40625 4.972656 8.386718 7.054688 13.355468 4.648438 26.554688-12.832032 55.007813-19.339844 84.570313-19.339844 107.90625 0 195.699219 87.789062 195.699219 195.699219v42.523437c-16.386719-20.144531-41.355469-33.039062-69.289063-33.039062-5.523437 0-10 4.476562-10 10v158.578125c0 5.523437 4.476563 10 10 10 49.234375 0 89.289063-40.054688 89.289063-89.289063v-98.773437c0-57.386719-22.5-111.492188-63.351563-152.34375zm-15.9375 319.6875v-137.140625c33.484375 4.863281 59.289063 33.757812 59.289063 68.570312s-25.804688 63.710938-59.289063 68.570313zm0 0"/><path d="m296.675781 264.867188-61.238281-45.925782c-3.03125-2.273437-7.085938-2.636718-10.472656-.945312-3.390625 1.695312-5.527344 5.15625-5.527344 8.945312v81.199219c0 5.519531 4.476562 10 10 10 5.519531 0 10-4.480469 10-10v-61.199219l41.238281 30.925782v63.382812c0 5.523438 4.476563 10 10 10 5.523438 0 10-4.476562 10-10v-68.382812c0-3.144532-1.480469-6.109376-4-8zm0 0"/><path d="m239.4375 388.140625c0-5.523437-4.480469-10-10-10-5.523438 0-10 4.476563-10 10v49.890625c-11.304688-7.070312-26.558594-11.351562-43.582031-11.351562-35.65625 0-63.585938 18.738281-63.585938 42.660156s27.929688 42.660156 63.585938 42.660156c35.652343 0 63.582031-18.738281 63.582031-42.660156 0-.007813 0-.019532 0-.027344zm-63.582031 103.859375c-24.945313 0-43.585938-11.964844-43.585938-22.660156 0-10.695313 18.640625-22.660156 43.585938-22.660156 24.929687 0 43.558593 11.949218 43.582031 22.644531v.027343c-.011719 10.691407-18.648438 22.648438-43.582031 22.648438zm0 0"/><path d="m92.621094 41.160156c-5.507813 0-10 4.492188-10 10 0 5.507813 4.492187 10 10 10 5.507812 0 10-4.492187 10-10 0-5.507812-4.492188-10-10-10zm0 0"/><path d="m229.4375 338.140625c-5.507812 0-10 4.492187-10 10s4.492188 10 10 10 10-4.492187 10-10-4.492188-10-10-10zm0 0"/></g></svg>