<?xml version="1.0" encoding="iso-8859-1"?>
<!-- Generator: Adobe Illustrator 19.0.0, SVG Export Plug-In . SVG Version: 6.00 Build 0)  -->
<svg version="1.1" id="Capa_1" xmlns="http://www.w3.org/2000/svg" xmlns:xlink="http://www.w3.org/1999/xlink" x="0px" y="0px"
	 viewBox="0 0 512 512" style="enable-background:new 0 0 512 512;" xml:space="preserve">
<circle style="fill:#3EB7FF;" cx="256" cy="267" r="245"/>
<path style="fill:#EEF6FF;" d="M397.011,201.721c-49.015,0-88.751-39.734-88.751-88.752c0-21.435,7.599-41.094,20.249-56.432H68.982
	V425.25c11.335,13.383,24.078,25.529,38.005,36.217h298.025c13.927-10.688,26.67-22.834,38.005-36.217V188.881
	C429.602,197.029,413.854,201.721,397.011,201.721z"/>
<path style="fill:#D9EAFC;" d="M68.982,56.537V425.25c8.696,10.268,18.243,19.781,28.499,28.488V56.537H68.982z"/>
<path style="fill:#293D7C;" d="M397.011,24.218c16.844,0,32.591,4.692,46.007,12.84V10c0-5.5-4.5-10-10-10H78.982
	c-5.5,0-10,4.5-10,10v47.537h258.721C343.968,37.228,368.969,24.218,397.011,24.218z"/>
<path style="fill:#E26693;" d="M97.352,37.291c-2.139,0-4.224-0.865-5.735-2.365c-1.502-1.514-2.366-3.598-2.366-5.736
	c0-2.129,0.864-4.213,2.366-5.725c1.512-1.514,3.597-2.377,5.735-2.377c2.128,0,4.224,0.863,5.725,2.377
	c1.513,1.512,2.377,3.596,2.377,5.725c0,2.139-0.864,4.223-2.377,5.736C101.575,36.426,99.479,37.291,97.352,37.291z"/>
<path style="fill:#FFD00D;" d="M123.919,37.291c-2.128,0-4.224-0.865-5.725-2.377c-1.512-1.502-2.376-3.586-2.376-5.725
	c0-2.129,0.864-4.213,2.376-5.725c1.513-1.514,3.598-2.377,5.725-2.377c2.139,0,4.223,0.863,5.736,2.377
	c1.501,1.512,2.365,3.596,2.365,5.725s-0.864,4.223-2.365,5.725C128.142,36.426,126.058,37.291,123.919,37.291z"/>
<path style="fill:#02AF8E;" d="M150.497,37.291c-2.139,0-4.224-0.865-5.725-2.365c-1.513-1.514-2.377-3.598-2.377-5.736
	c0-2.129,0.864-4.213,2.377-5.725c1.501-1.514,3.586-2.377,5.725-2.377c2.128,0,4.224,0.863,5.725,2.377
	c1.513,1.512,2.377,3.596,2.377,5.725c0,2.139-0.864,4.223-2.377,5.736C154.71,36.426,152.625,37.291,150.497,37.291z"/>
<path style="fill:#293D7C;" d="M198.348,196.023v-30.725c0-1.65-1.35-3-3-3h-36.521c-1.65,0-3,1.35-3,3v61.24L198.348,196.023z"/>
<polygon style="fill:#FE3745;" points="365.589,395.207 365.589,248.521 255.998,169.876 146.407,248.521 146.407,395.207 "/>
<polygon style="fill:#B7092B;" points="166.249,395.207 166.249,253.892 269.661,179.681 255.998,169.876 146.407,248.521 
	146.407,395.207 "/>
<path style="fill:#293D7C;" d="M288.984,395.207V282.552c0-1.65-1.35-3-3-3h-59.973c-1.65,0-3,1.35-3,3v112.655H288.984z"/>
<path style="fill:#1A2B63;" d="M242.854,395.207V282.552c0-1.65,1.35-3,3-3h-19.842c-1.65,0-3,1.35-3,3v112.655H242.854z"/>
<g>
	<path style="fill:#FFFFFF;" d="M306.242,369.221c0,1.65,1.35,3,3,3h29.311c1.65,0,3-1.35,3-3v-63.4c0-1.65-1.35-3-3-3h-29.311
		c-1.65,0-3,1.35-3,3V369.221z"/>
	<path style="fill:#FFFFFF;" d="M170.443,369.221c0,1.65,1.35,3,3,3h29.313c1.65,0,3-1.35,3-3v-63.4c0-1.65-1.35-3-3-3h-29.313
		c-1.65,0-3,1.35-3,3V369.221z"/>
</g>
<path style="fill:#445EA0;" d="M123.408,408.502c0,1.65,1.35,3,3,3H385.59c1.65,0,3-1.35,3-3v-11.295c0-1.65-1.35-3-3-3H126.408
	c-1.65,0-3,1.35-3,3V408.502z"/>
<path style="fill:#293D7C;" d="M163.093,408.502v-11.295c0-1.65,1.35-3,3-3h-39.685c-1.65,0-3,1.35-3,3v11.295c0,1.65,1.35,3,3,3
	h39.685C164.443,411.502,163.093,410.152,163.093,408.502z"/>
<path style="fill:#1A2B63;" d="M379.717,259.175c-1.515,0-3.043-0.457-4.367-1.407l-119.352-85.652l-119.352,85.652
	c-3.366,2.414-8.051,1.645-10.466-1.721c-2.415-3.365-1.645-8.052,1.72-10.467l121.287-87.041c3.947-2.83,9.675-2.832,13.62,0
	l121.288,87.041c3.365,2.415,4.136,7.102,1.721,10.467C384.352,258.088,382.051,259.175,379.717,259.175z"/>
<circle style="fill:#2BB381;" cx="397.01" cy="112.97" r="88.75"/>
<path style="fill:#0F9390;" d="M493.264,112.969c0-53.073-43.179-96.251-96.253-96.251c-53.073,0-96.251,43.178-96.251,96.251
	c0,52.652,42.498,95.558,94.993,96.236c0.409,0.069,0.828,0.113,1.258,0.113s0.849-0.044,1.258-0.113
	C450.765,208.527,493.264,165.621,493.264,112.969z M316.119,120.469h28.506c0.45,11.18,1.904,21.766,4.194,31.478
	c-7.042,1.674-13.551,3.721-19.362,6.111C322.124,147.107,317.391,134.283,316.119,120.469z M329.458,67.879
	c5.811,2.391,12.319,4.438,19.361,6.111c-2.29,9.713-3.744,20.299-4.194,31.479h-28.506
	C317.391,91.654,322.125,78.83,329.458,67.879z M477.904,105.469h-28.506c-0.45-11.181-1.904-21.766-4.194-31.479
	c7.041-1.674,13.55-3.721,19.361-6.11C471.898,78.83,476.633,91.654,477.904,105.469z M434.381,105.469h-29.87V79.135
	c8.984-0.281,17.706-1.066,25.959-2.311C432.607,85.74,433.939,95.406,434.381,105.469z M404.511,64.125V33.569
	c6.396,3.101,12.576,10.02,17.66,20.037c1.39,2.737,2.665,5.642,3.833,8.683C419.122,63.248,411.898,63.871,404.511,64.125z
	 M389.511,33.568v30.557c-7.388-0.254-14.61-0.877-21.493-1.836c1.168-3.041,2.443-5.945,3.833-8.683
	C376.935,43.588,383.115,36.668,389.511,33.568z M389.511,79.135v26.334h-29.868c0.441-10.063,1.773-19.729,3.91-28.645
	C371.806,78.069,380.527,78.853,389.511,79.135z M359.643,120.469h29.868v26.334c-8.983,0.282-17.705,1.065-25.958,2.311
	C361.416,140.197,360.084,130.53,359.643,120.469z M389.511,161.813v30.558c-6.396-3.1-12.576-10.02-17.66-20.038
	c-1.39-2.737-2.665-5.642-3.833-8.684C374.899,162.689,382.123,162.066,389.511,161.813z M404.511,192.369v-30.557
	c7.388,0.254,14.611,0.877,21.493,1.836c-1.167,3.041-2.443,5.946-3.833,8.684C417.087,182.35,410.906,189.27,404.511,192.369z
	 M404.511,146.803v-26.334h29.87c-0.442,10.062-1.773,19.728-3.911,28.644C422.217,147.868,413.495,147.084,404.511,146.803z
	 M449.398,120.469h28.506c-1.271,13.814-6.006,26.639-13.339,37.59c-5.81-2.391-12.319-4.438-19.361-6.111
	C447.494,142.234,448.948,131.648,449.398,120.469z M454.53,55.639c-4.171,1.479-8.712,2.794-13.565,3.918
	c-2.728-7.613-6.032-14.441-9.812-20.291C439.895,43.331,447.804,48.891,454.53,55.639z M362.869,39.266
	c-3.779,5.85-7.084,12.678-9.812,20.291c-4.853-1.123-9.393-2.439-13.565-3.917C346.219,48.892,354.128,43.331,362.869,39.266z
	 M339.491,170.298c4.172-1.478,8.713-2.793,13.566-3.917c2.728,7.614,6.032,14.442,9.812,20.292
	C354.128,182.607,346.218,177.047,339.491,170.298z M431.152,186.673c3.779-5.85,7.085-12.678,9.813-20.292
	c4.854,1.124,9.395,2.439,13.566,3.917C447.805,177.047,439.895,182.607,431.152,186.673z"/>
<g>
</g>
<g>
</g>
<g>
</g>
<g>
</g>
<g>
</g>
<g>
</g>
<g>
</g>
<g>
</g>
<g>
</g>
<g>
</g>
<g>
</g>
<g>
</g>
<g>
</g>
<g>
</g>
<g>
</g>
</svg>
