<?xml version="1.0" encoding="iso-8859-1"?>
<!-- Generator: Adobe Illustrator 19.0.0, SVG Export Plug-In . SVG Version: 6.00 Build 0)  -->
<svg xmlns="http://www.w3.org/2000/svg" xmlns:xlink="http://www.w3.org/1999/xlink" version="1.1" id="Capa_1" x="0px" y="0px" viewBox="0 0 512 512" style="enable-background:new 0 0 512 512;" xml:space="preserve" width="512" height="512">
<g>
	<path style="fill:#FFA754;" d="M392.25,82.5h-37.5c-20.678,0-37.5-16.822-37.5-37.5V7.5c0-4.143,3.357-7.5,7.5-7.5h30l37.5,15h-60   v30c0,12.406,10.094,22.5,22.5,22.5h37.5V82.5z"/>
	<path style="fill:#FF8646;" d="M429.75,82.5h-37.5v-15h37.5c12.406,0,22.5-10.094,22.5-22.5V15h-60l37.5-15h30   c4.143,0,7.5,3.357,7.5,7.5V45C467.25,65.678,450.428,82.5,429.75,82.5z"/>
	<path style="fill:#FFA754;" d="M422.25,135h-22.5V92.5h-15V135h-22.5c-4.143,0-7.5,3.357-7.5,7.5s3.357,7.5,7.5,7.5h60   c4.143,0,7.5-3.357,7.5-7.5S426.393,135,422.25,135z"/>
	<path style="fill:#A45E43;" d="M194.75,292.5v196.592l-24.87,8.29c-3.93,1.31-6.053,5.557-4.744,9.487   c1.31,3.93,5.559,6.054,9.487,4.744l29.998-10c3.063-1.021,5.128-3.887,5.128-7.115V292.5H194.75z"/>
	<path style="fill:#85453D;" d="M269.75,292.5v196.592l24.87,8.29c3.93,1.31,6.053,5.557,4.744,9.487   c-1.31,3.93-5.559,6.054-9.487,4.744l-29.998-10c-3.063-1.021-5.128-3.887-5.128-7.115V292.5H269.75z"/>
	<path style="fill:#85453D;" d="M392.25,165h-15c-4.143,0-7.5,3.357-7.5,7.5s3.357,7.5,7.5,7.5h15c4.136,0,7.5,3.364,7.5,7.5   s-3.364,7.5-7.5,7.5h-160v15h160c12.406,0,22.5-10.094,22.5-22.5S404.656,165,392.25,165z"/>
	<path style="fill:#A45E43;" d="M112.25,195c-28.949,0-52.5-23.552-52.5-52.5c0-4.143-3.358-7.5-7.5-7.5s-7.5,3.357-7.5,7.5   c0,37.22,30.28,67.5,67.5,67.5h120v-15H112.25z"/>
	<path style="fill:#40211D;" d="M262.25,15c-2.255,0-4.385,0.512-6.303,1.403C253.609,11.16,248.361,7.5,242.25,7.5   c-3.847,0-7.345,1.461-10,3.842c-2.655-2.381-6.153-3.842-10-3.842c-6.111,0-11.359,3.66-13.697,8.903   C206.635,15.512,204.505,15,202.25,15c-8.284,0-15,6.716-15,15v67.5h90V30C277.25,21.716,270.534,15,262.25,15z"/>
	<path style="fill:#85453D;" d="M232.25,52.5v90c24.853,0,45-20.147,45-45S257.103,52.5,232.25,52.5z"/>
	<path style="fill:#A45E43;" d="M247.25,97.5c0-24.853-6.716-45-15-45c-24.853,0-45,20.147-45,45s20.147,45,45,45   C240.534,142.5,247.25,122.353,247.25,97.5z"/>
	<path style="fill:#85453D;" d="M247.25,292.5c0,0,0,90.749,0,99.033s6.716,15,15,15s15-6.716,15-15s0-99.033,0-99.033H247.25z"/>
	<path style="fill:#A45E43;" d="M187.25,391.533c0,8.284,6.716,15,15,15s15-6.716,15-15s0-99.033,0-99.033h-30   C187.25,292.5,187.25,383.249,187.25,391.533z"/>
	<path style="fill:#2DADE3;" d="M232.25,337.5c24.853,0,45-20.147,45-45l-45-30V337.5z"/>
	<path style="fill:#49C9FF;" d="M232.25,337.5c8.284,0,15-20.147,15-45l-30-30l-30,30C187.25,317.353,207.397,337.5,232.25,337.5z"/>
	<path style="fill:#85453D;" d="M322.25,172.5h-37.5l-7.5,11.25l-7.5-11.25h-22.5l-30,92.647l86.5-50.074   c1.296-4.076,2.237-8.227,2.817-12.574h45.684C352.25,185.931,338.819,172.5,322.25,172.5z"/>
	<path style="fill:#A45E43;" d="M194.75,172.5l-7.5,11.25l-7.5-11.25h-37.5c-16.569,0-30,13.431-30,30h45.684   c0.58,4.347,1.521,8.498,2.817,12.574l86.5,50.074V172.5H194.75z"/>
	<path style="fill:#A8E5FF;" d="M297.25,215c-6.893,0-12.5-5.607-12.5-12.5v-30h-15v30h-22.5l-30,49.98l30,40.02h30v-40.02   c12.379-9.309,21.748-22.292,26.5-37.407L297.25,215z"/>
	<path style="fill:#DBF4FF;" d="M194.75,202.5v-30h-15v30c0,6.893-5.607,12.5-12.5,12.5l-6.5,0.074   c4.748,15.101,14.136,28.074,26.5,37.381V292.5h60v-90H194.75z"/>
	<path style="fill:#FFA754;" d="M399.75,0l-7.5,112.5c20.711,0,37.5-16.789,37.5-37.5s0-75,0-75H399.75z"/>
	<path style="fill:#FFCB63;" d="M399.75,75c0-20.711,0-75,0-75h-45c0,0,0,54.289,0,75s16.789,37.5,37.5,37.5   C396.392,112.5,399.75,95.711,399.75,75z"/>
</g>















</svg>
