<svg height="512pt" viewBox="0 -2 512 512" width="512pt" xmlns="http://www.w3.org/2000/svg"><path d="m268.03125 93.097656c0-31.773437-25.765625-57.535156-57.554688-57.535156-6.96875 0-13.644531 1.238281-19.828124 3.507812-12.785157-17.609374-33.523438-29.070312-56.953126-29.070312-27.582031 0-51.4375 15.875-62.96875 38.976562-2.40625-.347656-4.867187-.539062-7.375-.539062-28.230468 0-51.113281 22.878906-51.113281 51.097656h255.429688c.230469-2.113281.363281-4.261718.363281-6.4375zm0 0" fill="#4bc6ff"/><path d="m267.664062 109.535156h-255.429687c-5.523437 0-10-4.476562-10-10 0-33.6875 27.417969-61.097656 61.117187-61.097656.585938 0 1.175782.007812 1.765626.027344 14.546874-23.894532 40.234374-38.464844 68.578124-38.464844 23.214844 0 45.351563 10.175781 60.527344 27.53125 5.292969-1.308594 10.734375-1.96875 16.253906-1.96875 37.25 0 67.554688 30.296875 67.554688 67.535156 0 2.449219-.144531 4.988282-.425781 7.542969-.566407 5.0625-4.84375 8.894531-9.941407 8.894531zm-244.199218-20h234.433594c-1.828126-24.554687-22.398438-43.972656-47.421876-43.972656-5.636718 0-11.148437.972656-16.382812 2.894531-4.199219 1.542969-8.910156.105469-11.539062-3.511719-11.335938-15.621093-29.605469-24.945312-48.859376-24.945312-23.027343 0-43.726562 12.8125-54.019531 33.441406-1.925781 3.859375-6.109375 6.050782-10.375 5.429688-1.996093-.285156-4-.433594-5.949219-.433594-19.222656 0-35.40625 13.253906-39.886718 31.097656zm0 0"/><path d="m432.171875 406.3125c0-24.984375-20.257813-45.234375-45.25-45.234375-5.480469 0-10.730469.972656-15.589844 2.757813-10.050781-13.847657-26.359375-22.855469-44.78125-22.855469-21.535156 0-40.183593 12.316406-49.316406 30.277343v40.117188h154.648437c.1875-1.664062.289063-3.351562.289063-5.0625zm0 0" fill="#4ce0a1"/><path d="m437.890625 310.386719c35.40625 0 64.109375-28.691407 64.109375-64.085938 0-19.285156-8.523438-36.578125-22.003906-48.328125.625-2.917968.953125-5.945312.953125-9.050781 0-23.769531-19.277344-43.042969-43.058594-43.042969" fill="#18bb7d"/><path d="m437.890625 145.878906c-23.78125 0-43.058594 19.273438-43.058594 43.042969 0 3.105469.328125 6.132813.953125 9.050781-13.484375 11.75-22.003906 29.042969-22.003906 48.328125 0 35.394531 28.703125 64.085938 64.109375 64.085938v-129.964844" fill="#4ce0a1"/><path d="m172.1875 199.566406-105.042969 77.136719.003907 134.671875h210.085937v-134.671875zm0 0" fill="#fcc595"/><path d="m143.066406 348.960938h58.246094v62.414062h-58.246094zm0 0" fill="#d38a5a"/><path d="m102.996094 199.3125v-26.394531h-34.433594v51.679687" fill="#db9970"/><path d="m294.097656 289.085938-121.910156-89.519532-121.90625 89.519532v-48.796876l121.90625-89.519531 121.910156 89.519531zm0 0" fill="#ff5046"/><path d="m201.847656 282.796875c0-16.375-13.277344-29.652344-29.660156-29.652344-16.378906 0-29.660156 13.277344-29.660156 29.652344 0 16.371094 13.28125 29.648437 29.660156 29.648437 16.382812 0 29.660156-13.277343 29.660156-29.648437zm0 0" fill="#a7dbd8"/><path d="m172.1875 322.445312c-21.867188 0-39.660156-17.789062-39.660156-39.648437 0-21.863281 17.792968-39.652344 39.660156-39.652344 21.871094 0 39.660156 17.789063 39.660156 39.652344 0 21.859375-17.789062 39.648437-39.660156 39.648437zm0-59.300781c-10.839844 0-19.660156 8.816407-19.660156 19.648438 0 10.835937 8.820312 19.648437 19.660156 19.648437 10.84375 0 19.660156-8.8125 19.660156-19.648437 0-10.832031-8.816406-19.648438-19.660156-19.648438zm0 0"/><path d="m10 411.375h487.53125v85.972656h-487.53125zm0 0" fill="#a7dbd8"/><path d="m289.320312 464.363281c-.648437 0-1.308593-.070312-1.949218-.199219-.640625-.128906-1.269532-.320312-1.871094-.570312-.609375-.25-1.191406-.558594-1.730469-.917969-.550781-.363281-1.058593-.78125-1.519531-1.242187-.460938-.460938-.878906-.96875-1.238281-1.519532-.363281-.539062-.671875-1.121093-.921875-1.730468-.25-.597656-.441406-1.230469-.570313-1.871094-.128906-.636719-.199219-1.296875-.199219-1.949219 0-.648437.070313-1.308593.199219-1.960937.128907-.628906.320313-1.257813.570313-1.867188.25-.601562.558594-1.179687.921875-1.722656.359375-.546875.777343-1.058594 1.238281-1.519531.460938-.457031.96875-.878907 1.519531-1.25.539063-.359375 1.121094-.667969 1.730469-.917969.601562-.25 1.230469-.441406 1.871094-.570312 1.289062-.261719 2.617187-.261719 3.910156 0 .628906.128906 1.257812.320312 1.867188.570312.601562.25 1.179687.558594 1.722656.917969.550781.371093 1.058594.792969 1.519531 1.25.460937.460937.878906.972656 1.25 1.519531.359375.542969.671875 1.121094.921875 1.722656.25.609375.4375 1.238282.570312 1.867188.128907.652344.1875 1.3125.1875 1.960937 0 .652344-.058593 1.3125-.1875 1.949219-.132812.640625-.320312 1.273438-.570312 1.871094-.25.609375-.5625 1.191406-.921875 1.730468-.371094.550782-.789063 1.058594-1.25 1.519532-.460937.460937-.96875.878906-1.519531 1.242187-.542969.359375-1.121094.667969-1.722656.917969-.609376.25-1.238282.441406-1.867188.570312-.652344.128907-1.3125.199219-1.960938.199219zm0 0"/><path d="m398.769531 464.359375h-52.847656c-5.523437 0-10-4.476563-10-10 0-5.519531 4.476563-10 10-10h52.847656c5.523438 0 10 4.480469 10 10 0 5.523437-4.480469 10-10 10zm0 0"/><path d="m497.53125 401.375h-49.640625v-81.660156c36.152344-4.894532 64.109375-35.949219 64.109375-73.414063 0-19.53125-7.707031-38.183593-21.320312-51.996093.179687-1.785157.269531-3.582032.269531-5.382813 0-29.246094-23.800781-53.042969-53.058594-53.042969s-53.058594 23.796875-53.058594 53.042969c0 1.796875.089844 3.597656.269531 5.382813-13.613281 13.8125-21.320312 32.464843-21.320312 51.996093 0 37.464844 27.957031 68.519531 64.109375 73.414063v49.574218c-10.117187-11.179687-24.738281-18.210937-40.96875-18.210937-4.074219 0-8.101563.441406-12.03125 1.3125-12.304687-13.519531-29.902344-21.410156-48.339844-21.410156-14.523437 0-28.214843 4.730469-39.316406 13.109375v-47.640625l.941406.695312c1.75 1.285157 3.832031 1.941407 5.921875 1.941407 1.542969 0 3.089844-.355469 4.515625-1.078126 3.363281-1.703124 5.484375-5.152343 5.484375-8.921874v-48.796876c0-3.183593-1.519531-6.175781-4.082031-8.058593l-121.910156-89.519531c-3.519531-2.589844-8.3125-2.589844-11.835938 0l-53.273437 39.117187v-8.910156c0-5.523438-4.476563-10-10-10h-34.433594c-5.523438 0-10 4.476562-10 10v48.882812l-14.199219 10.429688c-2.566406 1.882812-4.082031 4.875-4.082031 8.058593v48.796876c0 3.769531 2.121094 7.21875 5.484375 8.917968 3.359375 1.703125 7.394531 1.371094 10.433594-.859375l.945312-.695312.003907 104.921875h-47.148438c-5.523438 0-10 4.480468-10 10v85.976562c0 5.519532 4.476562 10 10 10h487.53125c5.523438 0 10-4.480468 10-10v-85.976562c0-5.519532-4.476562-9.996094-10-9.996094zm-113.75-155.074219c0-15.636719 6.769531-30.5 18.574219-40.785156 2.738281-2.390625 3.96875-6.078125 3.207031-9.632813-.484375-2.273437-.730469-4.613281-.730469-6.960937 0-18.21875 14.828125-33.042969 33.058594-33.042969 18.226563 0 33.058594 14.824219 33.058594 33.042969 0 2.347656-.246094 4.6875-.730469 6.960937-.761719 3.554688.464844 7.242188 3.207031 9.632813 11.804688 10.285156 18.574219 25.148437 18.574219 40.785156 0 26.410157-19.035156 48.460938-44.109375 53.160157v-25.847657c.4375-.316406.859375-.667969 1.253906-1.0625l23.042969-23.035156c3.90625-3.90625 3.90625-10.238281 0-14.144531-3.902344-3.902344-10.234375-3.90625-14.140625 0l-10.15625 10.152344v-65.101563c0-5.523437-4.476563-10-10-10s-10 4.476563-10 10v65.101563l-10.15625-10.152344c-3.90625-3.90625-10.238281-3.902344-14.140625 0-3.90625 3.90625-3.902344 10.238281 0 14.144531l23.042969 23.035156c.394531.390625.816406.746094 1.253906 1.058594v25.851563c-25.074219-4.703126-44.109375-26.75-44.109375-53.160157zm-96.546875 127.476563c8.078125-14.121094 22.941406-22.796875 39.316406-22.796875 14.457031 0 28.171875 7 36.6875 18.730469 2.628907 3.617187 7.339844 5.054687 11.539063 3.511718 3.878906-1.421875 7.964844-2.144531 12.144531-2.144531 17.761719 0 32.496094 13.195313 34.90625 30.296875h-134.59375zm-115.046875-210.601563 111.910156 82.175781v23.984376l-105.988281-77.832032c-.222656-.160156-.445313-.3125-.675781-.453125-.117188-.070312-.230469-.140625-.347656-.207031-.117188-.066406-.234376-.128906-.351563-.1875-2.851563-1.457031-6.238281-1.457031-9.089844 0-.117187.0625-.234375.125-.351562.1875-.117188.066406-.234375.136719-.347657.207031-.230468.140625-.453124.292969-.675781.453125l-105.988281 77.832032v-23.980469zm-93.625 19.742188h14.433594v13.597656l-14.433594 10.597656zm-1.417969 98.847656 95.042969-69.792969 95.046875 69.792969v119.609375h-55.921875v-52.414062c0-5.523438-4.476562-10-10-10h-58.246094c-5.523437 0-10 4.476562-10 10v52.414062h-55.921875zm114.167969 119.609375h-38.246094v-42.414062h38.246094zm-171.3125 85.972656v-22.988281h229.800781c5.523438 0 10-4.476563 10-10 0-5.519531-4.476562-10-10-10h-229.800781v-22.984375h467.53125v22.984375h-44.011719c-5.523437 0-10 4.480469-10 10 0 5.523437 4.476563 10 10 10h44.007813v22.988281zm0 0"/></svg>