<svg id="Capa_1" enable-background="new 0 0 501 501" height="512" viewBox="0 0 501 501" width="512" xmlns="http://www.w3.org/2000/svg"><path d="m130.141 469.447c-74.41-42.048-124.641-121.881-124.641-213.447 0-135.31 109.69-245 245-245s245 109.69 245 245c0 109.987-72.476 203.046-172.274 234.025-1.266.393-78.783-28.859-121.392-28.859-23.929.001-70.771 8.802-71.693 8.281z" fill="#013f69"/><path d="m260.191 277.687c14.769-.956 29.054-4.065 42.497-9.058v21.165c-13.174 4.252-26.992 6.931-41.205 7.852-3.753.242-7.497.363-11.224.363-41.271 0-80.66-14.8-111.95-42.285-34.116-29.968-54.521-71.427-57.454-116.74-1.556-24.039 1.988-47.251 9.702-68.578 10.842-9.352 22.512-17.77 34.885-25.128-17.494 26.379-26.827 58.462-24.629 92.413 2.588 39.983 20.592 76.564 50.694 103.007s68.701 39.582 108.684 36.989zm150.621-150.044c5.511-.357 9.69-5.114 9.333-10.626-1.042-16.103-4.292-31.718-9.578-46.504-10.806-9.333-22.435-17.737-34.765-25.09 14.226 21.511 22.674 46.455 24.385 72.886.356 5.51 5.102 9.676 10.625 9.334zm-6.548 45.867c-5.188-1.894-10.929.771-12.827 5.956-13.694 37.435-41.37 67.103-76 83.745v21.897c43.27-17.9 78.139-53.273 94.783-98.771 1.897-5.187-.769-10.93-5.956-12.827zm3.903-32.51c-5.523 0-10 4.477-10 10s4.477 10 10 10 10-4.477 10-10-4.477-10-10-10z" fill="#056099"/><path d="m378.5 128c0 70.692-57.308 128-128 128s-128-57.308-128-128 57.308-128 128-128 128 57.308 128 128z" fill="#059bc3"/><path d="m378.5 128c0 25.244-7.308 48.78-19.923 68.61-19.83 12.615-43.367 19.923-68.61 19.923-70.692 0-128-57.307-128-128 0-25.244 7.308-48.78 19.923-68.61 19.83-12.615 43.366-19.923 68.61-19.923 70.692 0 128 57.307 128 128z" fill="#08a8f0"/><path d="m273.198 54.555c0 12.536-10.162 22.698-22.698 22.698-12.536 0-22.698-10.162-22.698-22.698 0-12.535 10.162-22.698 22.698-22.698 12.536 0 22.698 10.163 22.698 22.698zm-22.698 37.83c-12.536 0-22.698 10.162-22.698 22.698v64.077c0 12.536 10.162 22.698 22.698 22.698 12.536 0 22.698-10.162 22.698-22.698v-64.077c0-12.536-10.162-22.698-22.698-22.698z" fill="#ececf1"/><path d="m273.198 115.083v64.077c0 9.241-5.523 17.192-13.448 20.733-7.925-3.541-13.448-11.492-13.448-20.733v-64.077c0-9.241 5.523-17.192 13.448-20.733 7.925 3.541 13.448 11.491 13.448 20.733zm-13.448-81.261c-7.925 3.541-13.448 11.492-13.448 20.733 0 9.241 5.523 17.192 13.448 20.733 7.925-3.541 13.448-11.492 13.448-20.733 0-9.241-5.523-17.192-13.448-20.733z" fill="#fff5f5"/><path d="m358.701 274.13v100.475c0 20.161-4.796 40.033-13.992 57.975-9.389 18.318-16.582 37.6-21.482 57.445-22.978 7.133-47.404 10.975-72.727 10.975-43.744 0-84.811-11.465-120.359-31.553-1.279-1.731-2.624-3.42-4.034-5.064-13.943-16.267-21.607-36.984-21.607-58.409v-126.099c0-10.529 8.536-19.065 19.065-19.065 17.549 0 31.775 14.226 31.775 31.775v-151.28c0-14.347 11.885-25.917 26.347-25.404 13.775.49 24.493 12.23 24.493 26.013v106.186c0-14.347 11.885-25.917 26.347-25.404 13.775.49 24.493 12.23 24.493 26.014v6.79h.556c2.503-11.78 13.165-20.542 25.791-20.094 13.775.49 24.493 12.23 24.493 26.014v12.101c0-14.347 11.885-25.918 26.347-25.404 13.775.49 24.494 12.229 24.494 26.013z" fill="#e3ac6e"/><path d="m152.798 455.485c8.106 9.457 14.089 20.418 17.679 32.148-14.07-4.86-27.56-10.966-40.336-18.187-1.279-1.731-2.624-3.42-4.034-5.064-13.943-16.267-21.607-36.984-21.607-58.409v-126.098c0-10.529 8.536-19.065 19.065-19.065 5.502 0 10.677 1.398 15.189 3.859-4.595 3.481-7.563 8.996-7.563 15.206v117.201c0 21.425 7.664 42.143 21.607 58.409zm180.139-207.469c-15 0-25.178 12.111-25.178 26.12l.102 93.79c0 6.669 5.406 12.075 12.075 12.075s12.075-5.406 12.075-12.075v-94.405c0-9.669 5.337-18.033 13.284-22.331-3.561-2.174-7.859-3.174-12.358-3.174zm-152.673-132.148c-14.41.194-25.077 12.024-25.077 26.032v226.005c0 6.669 5.406 12.075 12.075 12.075s12.075-5.406 12.075-12.075v-226.62c0-9.669 5.382-18.072 13.329-22.37-3.648-2.044-7.904-3.108-12.402-3.047zm50.554 106.376c-14.694-.002-24.73 12.463-24.73 26.471l.092 119.21c0 6.669 5.406 12.075 12.075 12.075 6.669 0 12.074-5.406 12.074-12.075v-119.825c0-9.669 5.341-18.03 13.288-22.328-3.552-2.113-8.3-3.527-12.799-3.528zm51.552 12.876c-15.139-.003-26.08 12.297-26.08 26.306l.085 106.5c0 6.669 6.051 12.075 12.72 12.075 6.669 0 12.075-5.406 12.075-12.075v-107.115c0-9.669 5.339-18.032 13.286-22.33-3.556-2.152-7.588-3.361-12.086-3.361z" fill="#c78a51"/><path d="m193.47 134.58v10.42c0 2.761-2.239 5-5 5h-15.42c-2.761 0-5-2.239-5-5v-10.42c0-5.523 4.477-10 10-10h5.42c5.523 0 10 4.477 10 10z" fill="#f3d6ac"/></svg>