<?xml version="1.0" encoding="iso-8859-1"?>
<!-- Generator: Adobe Illustrator 19.0.0, SVG Export Plug-In . SVG Version: 6.00 Build 0)  -->
<svg version="1.1" id="Capa_1" xmlns="http://www.w3.org/2000/svg" xmlns:xlink="http://www.w3.org/1999/xlink" x="0px" y="0px"
	 viewBox="0 0 512.001 512.001" style="enable-background:new 0 0 512.001 512.001;" xml:space="preserve">
<rect x="240.996" y="76.709" style="fill:#33BC00;" width="29.999" height="136.967"/>
<rect x="255.995" y="76.709" style="fill:#00AC00;" width="15" height="136.967"/>
<path style="fill:#79D60D;" d="M412.642,25.616c-1.834-1.486-45.526-36.246-97.435-22.339C286.548,10.956,267.478,30.233,256,46.331
	c-11.478-16.098-30.547-35.374-59.207-43.053c-51.903-13.906-95.6,20.853-97.435,22.339l-8.463,6.857l3.901,10.17
	c0.845,2.205,21.308,54.155,73.212,68.063c8.624,2.311,17.017,3.278,25.033,3.278c27.604,0,50.69-11.475,62.959-19.08
	c12.268,7.604,35.352,19.08,62.96,19.08c8.013,0,16.413-0.968,25.033-3.278c51.904-13.908,72.367-65.858,73.212-68.063l3.901-10.17
	L412.642,25.616z"/>
<path style="fill:#33BC00;" d="M412.642,25.616c-1.834-1.486-45.526-36.246-97.435-22.339C286.548,10.956,267.478,30.233,256,46.331
	c0,13.056-0.001,28.23-0.001,48.573c12.268,7.604,35.352,19.08,62.96,19.08c8.013,0,16.413-0.968,25.033-3.278
	c51.904-13.908,72.367-65.858,73.212-68.063l3.901-10.17L412.642,25.616z"/>
<polygon style="fill:#984D00;" points="98.954,286.452 121.283,512.001 390.718,512.001 413.046,286.452 "/>
<polygon style="fill:#723802;" points="256,286.452 256,512.001 390.718,512.001 413.046,286.452 "/>
<rect x="62.869" y="197.637" style="fill:#E47700;" width="386.262" height="95.968"/>
<rect x="255.995" y="197.637" style="fill:#984D00;" width="193.126" height="95.968"/>
<g>
</g>
<g>
</g>
<g>
</g>
<g>
</g>
<g>
</g>
<g>
</g>
<g>
</g>
<g>
</g>
<g>
</g>
<g>
</g>
<g>
</g>
<g>
</g>
<g>
</g>
<g>
</g>
<g>
</g>
</svg>
