<?xml version="1.0" encoding="iso-8859-1"?>
<!-- Generator: Adobe Illustrator 19.0.0, SVG Export Plug-In . SVG Version: 6.00 Build 0)  -->
<svg xmlns="http://www.w3.org/2000/svg" xmlns:xlink="http://www.w3.org/1999/xlink" version="1.1" id="Layer_1" x="0px" y="0px" viewBox="0 0 512 512" style="enable-background:new 0 0 512 512;" xml:space="preserve" width="512" height="512">
<g>
	<g>
		<path style="fill:#FFCEBF;" d="M434.2,404.55c-31.201,31.199-73.5,48.3-116.7,48.6c-41.1,0.3-83.101-15-116.7-48.6    C74.2,277.949,136.899,340.65,36.4,240.149c-9-9-9-23.099,0-31.8c8.699-9,23.101-9,31.8,0l83.101,83.101l21.299-21.301    l-125.7-125.698c-8.699-8.701-8.699-22.8,0-31.802c8.701-8.699,23.101-8.699,31.8,0l125.7,125.7l21-21.299l-146.7-146.7    c-8.699-8.699-8.699-23.101,0-31.8c8.701-8.699,23.101-8.699,31.8,0l147.001,146.7l0.3-0.3l20.7-21L153.1,38.55    c-9.001-8.699-9.001-23.101,0-31.8c8.699-9,22.8-9,31.8,0l100.8,100.8c2.4-15.599,9.3-30.599,21.301-42.299l10.499-10.8    l116.7,116.699C498.4,235.65,498.4,340.049,434.2,404.55z"/>
	</g>
	<path style="fill:#FFB99C;" d="M434.2,404.55c-31.201,31.199-73.5,48.3-116.7,48.6V54.451l116.7,116.699   C498.4,235.65,498.4,340.049,434.2,404.55z"/>
	<g>
		<g>
			<g>
				<g>
					<path style="fill:#FFB64C;" d="M317.499,362c-24.9,0-45,20.099-45,45v105h89.8V407C362.299,382.099,342.4,362,317.499,362z"/>
				</g>
			</g>
		</g>
	</g>
	<path style="fill:#FF9100;" d="M362.299,407v105h-44.8V362C342.4,362,362.299,382.099,362.299,407z"/>
	<g>
		<path style="fill:#B35F49;" d="M317.499,302c-24.9,0-45,20.099-45,45c0,24.899,20.1,45,45,45c24.901,0,44.8-20.101,44.8-45    C362.299,322.099,342.4,302,317.499,302z"/>
	</g>
	<path style="fill:#99503D;" d="M362.299,347c0,24.899-19.9,45-44.8,45v-90C342.4,302,362.299,322.099,362.299,347z"/>
	<g>
		<path style="fill:#C6715A;" d="M317.499,242c-24.9,0-45,20.099-45,45c0,24.899,20.1,45,45,45c24.901,0,44.8-20.101,44.8-45    C362.299,262.099,342.4,242,317.499,242z"/>
	</g>
	<path style="fill:#B35F49;" d="M362.299,287c0,24.899-19.9,45-44.8,45v-90C342.4,242,362.299,262.099,362.299,287z"/>
	<g>
		<path style="fill:#B35F49;" d="M317.499,182c-24.9,0-45,20.099-45,45c0,24.899,20.1,45,45,45c24.901,0,44.8-20.101,44.8-45    C362.299,202.099,342.4,182,317.499,182z"/>
	</g>
	<path style="fill:#99503D;" d="M317.499,272v-90c24.901,0,44.8,20.099,44.8,45C362.299,251.899,342.4,272,317.499,272z"/>
	<g>
		<path style="fill:#C6715A;" d="M317.499,122c-24.9,0-45,20.099-45,45c0,24.899,20.1,45,45,45c24.901,0,44.8-20.101,44.8-45    C362.299,142.099,342.4,122,317.499,122z"/>
	</g>
	<path style="fill:#B35F49;" d="M317.499,212v-90c24.901,0,44.8,20.099,44.8,45C362.299,191.899,342.4,212,317.499,212z"/>
</g>















</svg>
