<?xml version="1.0" encoding="iso-8859-1"?>
<!-- Generator: Adobe Illustrator 19.0.0, SVG Export Plug-In . SVG Version: 6.00 Build 0)  -->
<svg version="1.1" id="Layer_1" xmlns="http://www.w3.org/2000/svg" xmlns:xlink="http://www.w3.org/1999/xlink" x="0px" y="0px"
	 viewBox="0 0 512 512" style="enable-background:new 0 0 512 512;" xml:space="preserve">
<circle style="fill:#FFECB3;" cx="256" cy="256" r="256"/>
<path style="fill:#FFD863;" d="M256,512c141.384,0,256-114.616,256-256c0-35.194-7.106-68.727-19.956-99.249l-28.313-28.315
	l-37.064,42.231l-308.398-4.491l-37.74-37.74L62.347,423.44C109.289,477.682,178.636,512,256,512z"/>
<rect x="78.574" y="135.775" style="fill:#175D76;" width="354.849" height="225.814"/>
<rect x="256" y="135.775" style="fill:#00263F;" width="177.424" height="225.814"/>
<rect x="92.748" y="150.928" style="fill:#FF9451;" width="326.508" height="195.508"/>
<rect x="256" y="150.928" style="fill:#F7674F;" width="163.254" height="195.508"/>
<g>
	<polygon style="fill:#983262;" points="276.944,346.433 302.714,346.433 354.197,150.921 328.426,150.921 	"/>
	<polygon style="fill:#983262;" points="344.262,346.433 419.252,248.637 419.252,207.477 312.701,346.433 	"/>
</g>
<rect x="243.295" y="150.928" style="fill:#FF3F84;" width="25.417" height="195.508"/>
<rect x="256.328" y="150.928" style="fill:#983262;" width="12.381" height="195.508"/>
<g>
	<polygon style="fill:#FF3F84;" points="209.286,346.433 235.056,346.433 183.574,150.921 157.803,150.921 	"/>
	<polygon style="fill:#FF3F84;" points="167.738,346.433 199.299,346.433 92.748,207.477 92.748,248.637 	"/>
</g>
<g>
	<circle style="fill:#590F38;" cx="364.537" cy="287.065" r="18.323"/>
	<path style="fill:#590F38;" d="M409.886,274.973l-9.98-4.884c-1.146-0.562-2.532-0.086-3.093,1.06l-17.941,36.662h-28.656
		l-17.941-36.662c-0.562-1.146-1.946-1.622-3.093-1.06l-9.98,4.884c-1.146,0.56-1.622,1.946-1.06,3.093l17.532,35.828v32.537h57.744
		v-32.537l17.532-35.828C411.508,276.92,411.033,275.535,409.886,274.973z"/>
</g>
<g>
	<circle style="fill:#662E57;" cx="256" cy="287.065" r="18.323"/>
	<path style="fill:#662E57;" d="M301.342,274.973l-9.98-4.884c-1.146-0.562-2.532-0.086-3.093,1.06l-17.941,36.662h-28.656
		l-17.941-36.662c-0.562-1.146-1.946-1.622-3.093-1.06l-9.98,4.884c-1.146,0.56-1.622,1.946-1.06,3.093l17.532,35.828v32.537h57.744
		v-32.537l17.532-35.828C302.964,276.92,302.49,275.535,301.342,274.973z"/>
</g>
<g>
	<path style="fill:#590F38;" d="M274.323,287.07c0-10.009-8.03-18.13-17.996-18.306v36.612
		C266.293,305.2,274.323,297.079,274.323,287.07z"/>
	<path style="fill:#590F38;" d="M301.342,274.973l-9.98-4.884c-1.146-0.562-2.532-0.086-3.093,1.06l-17.941,36.662h-14.002v38.619
		h28.546v-32.537l17.532-35.828C302.964,276.92,302.49,275.535,301.342,274.973z"/>
</g>
<g>
	<circle style="fill:#662E57;" cx="147.463" cy="287.065" r="18.323"/>
	<path style="fill:#662E57;" d="M192.8,274.973l-9.98-4.884c-1.146-0.562-2.532-0.086-3.093,1.06l-17.941,36.662h-28.658
		l-17.941-36.662c-0.562-1.146-1.946-1.622-3.093-1.06l-9.98,4.884c-1.146,0.56-1.622,1.946-1.06,3.093l17.532,35.828v32.537h57.744
		v-32.537l17.532-35.828C194.422,276.92,193.946,275.535,192.8,274.973z"/>
</g>
<path style="fill:#4B7689;" d="M48.269,405.62c9.571,13.265,20.38,25.576,32.259,36.764V128.436H48.269V405.62z"/>
<path style="fill:#175D76;" d="M431.471,442.384c11.879-11.188,22.688-23.5,32.259-36.764V128.436h-32.259V442.384z"/>
<g>
</g>
<g>
</g>
<g>
</g>
<g>
</g>
<g>
</g>
<g>
</g>
<g>
</g>
<g>
</g>
<g>
</g>
<g>
</g>
<g>
</g>
<g>
</g>
<g>
</g>
<g>
</g>
<g>
</g>
</svg>
