<svg id="Layer_1" enable-background="new 0 0 256 256" height="512" viewBox="0 0 256 256" width="512" xmlns="http://www.w3.org/2000/svg"><path d="m179.511 212.368h-145.409c-4.029 0-7.296-3.266-7.296-7.296v-93.702c0-4.029 3.266-7.296 7.296-7.296h145.409c4.029 0 7.296 3.266 7.296 7.296v93.702c0 4.03-3.267 7.296-7.296 7.296z" fill="#4671c6"/><path d="m26.807 188.776h-11.801c-5.153 0-9.33-4.177-9.33-9.33v-43.801c0-5.153 4.177-9.33 9.33-9.33h11.801z" fill="#a4c9ff"/><path d="m199.08 122.438v35.784 35.784l20.068 13.721c1.382.945 3.371.061 3.371-1.498v-48.007-48.006c0-1.559-1.99-2.443-3.371-1.498z" fill="#4671c6"/><circle cx="106.807" cy="158.118" fill="#e0ebfc" r="35.964"/><path d="m90.649 143.09v31.621c0 3.811 4.107 6.21 7.427 4.337l28.022-15.811c3.377-1.905 3.377-6.768 0-8.674l-28.022-15.811c-3.32-1.872-7.427.527-7.427 4.338z" fill="#f9a7a7"/><circle cx="70.786" cy="71.908" fill="#f9a7a7" r="32.292"/><path d="m70.786 87.35c-8.514 0-15.441-6.927-15.441-15.441 0-8.515 6.927-15.442 15.441-15.442s15.441 6.927 15.441 15.442c.001 8.513-6.926 15.441-15.441 15.441z" fill="#f9cfcf"/><circle cx="141.931" cy="65.222" fill="#f9a7a7" r="38.853"/><path d="m141.931 86.24c-11.589 0-21.018-9.428-21.018-21.018s9.429-21.018 21.018-21.018c11.59 0 21.019 9.429 21.019 21.018s-9.429 21.018-21.019 21.018z" fill="#f9cfcf"/><path d="m61.769 202.464h-20.734c-2.856 0-5.171-2.315-5.171-5.171 0-2.856 2.315-5.171 5.171-5.171h20.734c2.856 0 5.171 2.315 5.171 5.171 0 2.856-2.315 5.171-5.171 5.171z" fill="#f9a7a7"/><path d="m199.08 194.005v-35.783-35.784h-12.273v71.568h12.273z" fill="#a4c9ff"/><path d="m228.569 184.967-.101.101c-1.405 1.405-1.405 3.682 0 5.087l7.882 7.882c1.405 1.405 3.682 1.405 5.087 0l.101-.101c1.405-1.405 1.405-3.682 0-5.087l-7.882-7.882c-1.404-1.404-3.682-1.404-5.087 0z" fill="#6bdddd"/><path d="m233.885 161.483v-.133c0-1.989 1.613-3.602 3.602-3.602h11.187c1.989 0 3.602 1.613 3.602 3.602v.133c0 1.989-1.613 3.602-3.602 3.602h-11.187c-1.989 0-3.602-1.612-3.602-3.602z" fill="#6bdddd"/><path d="m228.569 138.172-.101-.101c-1.405-1.405-1.405-3.682 0-5.087l7.882-7.882c1.405-1.405 3.682-1.405 5.087 0l.101.101c1.405 1.405 1.405 3.682 0 5.087l-7.882 7.882c-1.404 1.405-3.682 1.405-5.087 0z" fill="#6bdddd"/><g fill="#3762cc"><path d="m70.787 106.2c-18.909 0-34.292-15.384-34.292-34.292s15.383-34.292 34.292-34.292c18.908 0 34.292 15.384 34.292 34.292s-15.384 34.292-34.292 34.292zm0-64.584c-16.703 0-30.292 13.589-30.292 30.292s13.588 30.292 30.292 30.292c16.703 0 30.292-13.589 30.292-30.292s-13.59-30.292-30.292-30.292z"/><path d="m70.787 89.35c-9.617 0-17.441-7.824-17.441-17.441s7.824-17.441 17.441-17.441 17.441 7.824 17.441 17.441-7.824 17.441-17.441 17.441zm0-30.883c-7.412 0-13.441 6.03-13.441 13.441s6.03 13.441 13.441 13.441 13.441-6.03 13.441-13.441-6.03-13.441-13.441-13.441z"/><path d="m141.931 106.075c-22.526 0-40.853-18.326-40.853-40.853s18.327-40.854 40.853-40.854 40.853 18.327 40.853 40.854-18.326 40.853-40.853 40.853zm0-77.706c-20.321 0-36.853 16.532-36.853 36.854 0 20.32 16.532 36.853 36.853 36.853 20.32 0 36.853-16.532 36.853-36.853 0-20.322-16.533-36.854-36.853-36.854z"/><path d="m141.931 88.24c-12.692 0-23.018-10.326-23.018-23.019s10.326-23.018 23.018-23.018c12.693 0 23.019 10.325 23.019 23.018s-10.326 23.019-23.019 23.019zm0-42.036c-10.487 0-19.018 8.531-19.018 19.018s8.531 19.019 19.018 19.019 19.019-8.531 19.019-19.019c0-10.487-8.532-19.018-19.019-19.018z"/><path d="m179.511 214.368h-145.409c-5.125 0-9.295-4.17-9.295-9.295v-93.702c0-5.126 4.17-9.296 9.295-9.296h145.409c5.126 0 9.296 4.17 9.296 9.296v93.702c0 5.125-4.17 9.295-9.296 9.295zm-145.409-108.293c-2.92 0-5.295 2.376-5.295 5.296v93.702c0 2.92 2.375 5.295 5.295 5.295h145.409c2.92 0 5.296-2.375 5.296-5.295v-93.702c0-2.92-2.375-5.296-5.296-5.296z"/><path d="m26.807 190.775h-11.801c-6.248 0-11.33-5.083-11.33-11.33v-43.801c0-6.247 5.083-11.33 11.33-11.33h11.801c1.104 0 2 .896 2 2v62.461c0 1.105-.896 2-2 2zm-11.801-62.461c-4.042 0-7.33 3.288-7.33 7.33v43.801c0 4.042 3.288 7.33 7.33 7.33h9.801v-58.461z"/><path d="m220.414 210.118c-.841 0-1.675-.249-2.395-.74l-20.068-13.721c-.545-.373-.871-.991-.871-1.651v-71.568c0-.66.326-1.278.871-1.651l20.068-13.72c1.306-.891 2.991-.983 4.401-.242 1.314.693 2.099 1.961 2.099 3.392v96.013c0 1.43-.784 2.697-2.098 3.391-.633.332-1.322.497-2.007.497zm-19.334-17.168 19.197 13.125c.082.056.18.042.242.021v-95.748c-.062-.021-.159-.036-.242.021l-19.197 13.125z"/><path d="m199.08 196.006h-12.273c-1.104 0-2-.896-2-2v-71.568c0-1.104.896-2 2-2h12.273c1.104 0 2 .896 2 2v71.568c0 1.104-.895 2-2 2zm-10.273-4h8.273v-67.568h-8.273z"/></g></svg>