<svg height="512pt" viewBox="0 -53 512 512" width="512pt" xmlns="http://www.w3.org/2000/svg"><g fill-rule="evenodd"><path d="m10 10h492v337.339844h-492zm0 0" fill="#88c9f7"/><path d="m310.371094 148.257812-54.371094-31.394531-54.371094-31.390625v125.566406zm0 0" fill="#fa5c66"/><path d="m194.125 347.339844h123.75v49.5h-123.75zm0 0" fill="#fed049"/><path d="m502 0h-492c-5.523438 0-10 4.476562-10 10v337.339844c0 5.523437 4.476562 10 10 10h174.125v29.5h-53.53125c-5.523438 0-10 4.476562-10 10 0 5.523437 4.476562 10 10 10h250.8125c5.523438 0 10-4.476563 10-10 0-5.523438-4.476562-10-10-10h-53.53125v-29.5h174.125c5.523438 0 10-4.476563 10-10v-128.667969c0-5.523437-4.476562-10-10-10s-10 4.476563-10 10v118.667969h-472v-317.339844h472v118.671875c0 5.519531 4.476562 10 10 10s10-4.480469 10-10v-128.671875c0-5.523438-4.476562-10-10-10zm-194.125 357.339844v29.5h-103.75v-29.5zm0 0"/><path d="m201.628906 221.039062c1.726563 0 3.449219-.445312 5-1.339843l108.742188-62.78125c3.09375-1.785157 5-5.089844 5-8.660157 0-3.574218-1.90625-6.875-5-8.660156l-108.742188-62.785156c-3.097656-1.785156-6.90625-1.785156-10 0-3.097656 1.785156-5 5.089844-5 8.660156v125.566406c0 3.574219 1.902344 6.875 5 8.660157 1.546875.894531 3.269532 1.339843 5 1.339843zm10-118.246093 78.742188 45.464843-78.742188 45.460938zm0 0"/><path d="m122.40625 281.335938c0 5.523437 4.476562 10 10 10h316.5c5.523438 0 10-4.476563 10-10 0-5.519532-4.476562-10-10-10h-316.5c-5.523438 0-10 4.476562-10 10zm0 0"/><path d="m50.402344 253.585938v55.5c0 5.523437 4.476562 10 10 10 5.519531 0 10-4.476563 10-10v-55.5c0-5.519532-4.480469-10-10-10-5.523438 0-10 4.476562-10 10zm0 0"/><path d="m86.402344 253.585938v55.5c0 5.523437 4.480468 10 10 10 5.523437 0 10-4.476563 10-10v-55.5c0-5.519532-4.476563-10-10-10-5.519532 0-10 4.476562-10 10zm0 0"/><path d="m502 168.667969c-5.507812 0-10 4.492187-10 10.003906 0 5.507813 4.492188 10 10 10s10-4.492187 10-10c0-5.511719-4.492188-10.003906-10-10.003906zm0 0"/></g></svg>