<svg height="512pt" viewBox="0 0 512 512" width="512pt" xmlns="http://www.w3.org/2000/svg"><path d="m512 256c0 9.089844-.46875 18.078125-1.410156 26.925781-1.945313 18.683594-5.902344 36.761719-11.652344 54.023438-18.609375 55.878906-55.953125 103.191406-104.59375 134.488281-7.847656 5.058594-15.996094 9.6875-24.40625 13.875-.816406.410156-1.632812.804688-2.457031 1.210938-4.210938 2.039062-8.484375 3.972656-12.8125 5.78125-23.550781 9.84375-48.898438 16.257812-75.398438 18.652343-7.667969.6875-15.421875 1.042969-23.269531 1.042969-141.386719 0-256-114.613281-256-256s114.613281-256 256-256 256 114.613281 256 256zm0 0" fill="#66baed"/><path d="m369.9375 485.3125c-27.742188 13.8125-58.339844 22.726562-90.667969 25.644531.46875-7.828125 4.398438-13.972656 15.390625-14.347656 31.347656-1.046875 57.605469-26.5 57.605469-26.5zm0 0" fill="#dd3033"/><path d="m306.886719 449.578125v29.246094c-26.855469 15.234375-56.75 25.757812-88.535157 30.425781-42.714843-6.296875-82.003906-23.140625-115.117187-47.800781-16.203125-12.070313-30.9375-26.019531-43.875-41.527344 11.683594-35.648437 43.875-62.023437 82.640625-65.15625 2.570312-.210937 5.164062-.316406 7.785156-.316406h61.953125c7.324219 0 14.449219.816406 21.292969 2.382812 42.300781 9.675781 73.855469 47.53125 73.855469 92.746094zm0 0" fill="#dd3033"/><path d="m306.886719 449.578125v57.363281c-16.445313 3.3125-33.457031 5.058594-50.886719 5.058594-9.082031 0-18.046875-.46875-26.886719-1.398438-46.882812-4.890624-89.996093-22.4375-125.878906-49.152343v-11.871094c0-52.539063 42.601563-95.128906 95.148437-95.128906h13.355469c23.238281 0 44.535157 8.328125 61.054688 22.164062v.007813c9.714843 8.132812 17.78125 18.164062 23.625 29.53125 6.695312 13.019531 10.46875 27.785156 10.46875 43.425781zm0 0" fill="#f74f4f"/><path d="m87.652344 249.535156c0 15.710938-11.476563 28.742188-26.507813 31.160156-1.644531.265626-3.332031.402344-5.058593.402344-17.4375 0-31.5625-14.125-31.5625-31.5625s14.125-31.566406 31.5625-31.566406c1.726562 0 3.414062.140625 5.058593.40625 15.03125 2.417969 26.507813 15.445312 26.507813 31.160156zm0 0" fill="#d3a489"/><path d="m206.300781 388.773438-25.535156 40.960937-25.539063-40.960937" fill="#3d4159"/><path d="m203.222656 506.546875c-14.378906-3.011719-28.316406-7.230469-41.691406-12.550781l19.234375-74.917969zm0 0" fill="#3d4159"/><path d="m87.652344 249.535156c0 15.710938-11.476563 28.742188-26.507813 31.160156-2.730469-9.929687-4.191406-20.378906-4.191406-31.160156 0-10.785156 1.457031-21.234375 4.191406-31.160156 15.03125 2.417969 26.507813 15.445312 26.507813 31.160156zm0 0" fill="#bf8e75"/><path d="m67.367188 249.535156c0 6.230469-5.050782 11.28125-11.28125 11.28125-6.230469 0-11.28125-5.050781-11.28125-11.28125 0-6.230468 5.050781-11.28125 11.28125-11.28125 6.230468 0 11.28125 5.050782 11.28125 11.28125zm0 0" fill="#bf8e75"/><path d="m180.753906 393.394531-42.828125 23.800781-13.027343-60.601562 26.613281-15.675781" fill="#dd3033"/><path d="m180.753906 393.394531 42.832032 23.800781 13.027343-60.601562-26.609375-15.675781" fill="#dd3033"/><path d="m273.867188 249.535156c0 15.710938 11.480468 28.742188 26.511718 31.160156 1.640625.265626 3.332032.402344 5.054688.402344 17.4375 0 31.566406-14.125 31.566406-31.5625s-14.128906-31.566406-31.566406-31.566406c-1.722656 0-3.414063.140625-5.054688.40625-15.03125 2.417969-26.511718 15.445312-26.511718 31.160156zm0 0" fill="#d3a489"/><g fill="#bf8e75"><path d="m273.867188 249.535156c0 15.710938 11.480468 28.742188 26.511718 31.160156 2.730469-9.929687 4.1875-20.378906 4.1875-31.160156 0-10.785156-1.457031-21.234375-4.1875-31.160156-15.03125 2.417969-26.511718 15.445312-26.511718 31.160156zm0 0"/><path d="m316.714844 249.535156c0 6.230469-5.050782 11.28125-11.28125 11.28125-6.230469 0-11.28125-5.050781-11.28125-11.28125 0-6.230468 5.050781-11.28125 11.28125-11.28125 6.230468 0 11.28125 5.050782 11.28125 11.28125zm0 0"/><path d="m298.207031 232.757812c0 58.441407-42.699219 106.925782-98.597656 115.925782-6.128906 1.007812-12.425781 1.515625-18.847656 1.515625-64.867188 0-117.441407-52.578125-117.441407-117.441407 0-30.691406 22.417969-76.761718 41.691407-97.683593 21.460937-23.300781 41.574219-19.761719 75.75-19.761719 6.421875 0 12.71875.507812 18.847656 1.515625 55.898437 9.003906 98.597656 57.484375 98.597656 115.929687zm0 0"/><path d="m214.703125 317.800781v41.65625c0 15.25-10.054687 28.140625-23.902344 32.421875-3.171875.980469-6.550781 1.515625-10.046875 1.515625-18.742187 0-33.933594-15.195312-33.933594-33.9375v-41.65625zm0 0"/></g><path d="m214.703125 356.816406v2.640625c0 15.25-10.054687 28.140625-23.902344 32.421875-12.496093-3.84375-21.894531-14.707031-23.628906-28.003906 2.269531.140625 4.546875.210938 6.839844.210938 6.421875 0 12.714843-.511719 18.847656-1.519532 7.554687-1.210937 14.855469-3.15625 21.84375-5.75zm0 0" fill="#d3a489"/><path d="m298.207031 232.757812c0 58.441407-42.699219 106.925782-98.597656 115.925782-55.898437-9-98.59375-57.484375-98.59375-115.925782 0-35.988281 16.1875-68.199218 41.691406-89.746093 15.898438-13.445313 35.429688-22.722657 56.902344-26.183594 52.117187 8.386719 92.765625 51.109375 98.015625 104.21875.382812 3.851563.582031 7.765625.582031 11.710937zm0 0" fill="#d3a489"/><path d="m155.75 225.921875c0 7.359375-5.964844 13.320313-13.320312 13.320313-7.359376 0-13.324219-5.960938-13.324219-13.320313s5.964843-13.324219 13.324219-13.324219c7.355468 0 13.320312 5.964844 13.320312 13.324219zm0 0" fill="#3d4159"/><path d="m232.417969 225.921875c0 7.359375-5.964844 13.320313-13.320313 13.320313-7.359375 0-13.324218-5.960938-13.324218-13.320313s5.964843-13.324219 13.324218-13.324219c7.355469 0 13.320313 5.964844 13.320313 13.324219zm0 0" fill="#3d4159"/><path d="m153.035156 223.570312c0 3.152344-2.558594 5.707032-5.710937 5.707032-3.152344 0-5.707031-2.554688-5.707031-5.707032 0-3.152343 2.554687-5.707031 5.707031-5.707031 3.152343 0 5.710937 2.554688 5.710937 5.707031zm0 0" fill="#fff"/><path d="m230.355469 223.570312c0 3.152344-2.554688 5.707032-5.707031 5.707032-3.152344 0-5.707032-2.554688-5.707032-5.707032 0-3.152343 2.554688-5.707031 5.707032-5.707031 3.152343 0 5.707031 2.554688 5.707031 5.707031zm0 0" fill="#fff"/><path d="m194.085938 259.464844h-26.644532c-3.175781 0-5.75-2.574219-5.75-5.746094 0-3.175781 2.574219-5.746094 5.75-5.746094h26.644532c3.171874 0 5.746093 2.570313 5.746093 5.746094 0 3.171875-2.574219 5.746094-5.746093 5.746094zm0 0" fill="#bf8e75"/><path d="m219.429688 446.453125h51.199218v15.675781h-51.199218zm0 0" fill="#dd3033"/><path d="m173.890625 81.761719c35.574219 2.542969 64.140625 31.28125 65.953125 67.460937l.335938 6.789063h20.460937l11.027344 73.300781 26.699219-8.265625-3.585938-71.824219c-1.894531-38-33.324219-67.785156-71.363281-67.644531zm0 0" fill="#2a2f4f"/><path d="m292.519531 53.417969c28.328125 28.328125 28.328125 74.261719 0 102.59375-28.332031 28.328125-74.265625 28.328125-102.597656 0zm0 0" fill="#3d4159"/><path d="m189.921875 156.007812h-89.035156l-11.027344 73.304688-26.695313-8.261719 3.582032-71.832031c1.890625-37.992188 33.324218-67.785156 71.367187-67.640625l128.585938.480469 17.003906 30.601562" fill="#3d4159"/><path d="m187.632812 81.761719c-35.574218 2.542969-64.140624 31.28125-65.953124 67.460937l-.335938 6.789063h-20.464844l-11.023437 73.300781-26.699219-8.265625 3.585938-71.824219c1.894531-38 33.324218-67.785156 71.363281-67.644531zm0 0" fill="#2a2f4f"/><path d="m142.09375 276.492188c0 21.355468 17.3125 38.664062 38.667969 38.664062s38.667969-17.308594 38.667969-38.664062" fill="#f2f0ec"/><path d="m352.273438 380.40625h28.730468v89.703125h-28.730468zm0 0" fill="#e8c934"/><path d="m381.003906 414.046875v56.0625h-15.773437v-41.082031c0-8.273438 6.707031-14.984375 14.984375-14.984375h.789062zm0 0" fill="#ffe152"/><path d="m510.589844 282.925781c-1.945313 18.683594-5.902344 36.761719-11.652344 54.023438-2.632812 4.324219-5.628906 8.503906-8.964844 12.414062-14.679687 17.199219-33.4375 26.320313-53.195312 26.320313-5.765625 0-11.609375-.773438-17.46875-2.351563l5.464844-20.304687c24.355468 6.5625 41.28125-8.035156 49.203124-17.3125 14.585938-17.082032 19.90625-39.820313 15.558594-49.539063-3.15625-7.050781-8.339844-10.480469-16.300781-10.761719-7.199219-.261718-13.636719 2.203126-13.699219 2.234376l-7.761718-19.539063c1.011718-.40625 10.207031-3.949219 21.355468-3.730469 16.394532.304688 29.039063 8.546875 35.601563 23.21875.75 1.683594 1.367187 3.460938 1.859375 5.328125zm0 0" fill="#ffe152"/><path d="m296.5 375.683594c-19.761719 0-38.511719-9.121094-53.195312-26.320313-19.023438-22.289062-27.085938-53.144531-18.753907-71.769531 6.5625-14.664062 19.199219-22.90625 35.59375-23.214844 11.179688-.214844 20.347657 3.328125 21.355469 3.730469l-3.902344 9.757813-3.855468 9.78125c-.0625-.023438-6.515626-2.492188-13.695313-2.234376-7.964844.285157-13.144531 3.703126-16.300781 10.761719-4.347656 9.71875.96875 32.453125 15.550781 49.539063 7.925781 9.28125 24.851563 23.871094 49.207031 17.3125l5.46875 20.300781c-5.859375 1.578125-11.710937 2.355469-17.472656 2.355469zm0 0" fill="#e8c934"/><path d="m465.453125 239.835938c0 8.578124-.394531 17.003906-1.140625 25.230468-6.253906 68.382813-37.539062 122.984375-77.699219 136.777344-6.457031 2.21875-13.132812 3.382812-19.972656 3.382812-54.574219 0-98.816406-74.046874-98.816406-165.390624zm0 0" fill="#e8c934"/><path d="m464.308594 265.066406c-6.25 68.382813-37.535156 122.984375-77.699219 136.777344-36.332031-12.476562-65.390625-58.347656-75.238281-117.605469-1.664063-10.027343 6.007812-19.171875 16.171875-19.171875zm0 0" fill="#ffe152"/><path d="m483.679688 241.496094c0 2.25-.914063 4.292968-2.390626 5.761718-1.480468 1.480469-3.511718 2.390626-5.769531 2.390626h-213.558593c-4.5 0-8.148438-3.652344-8.148438-8.152344 0-2.246094.910156-4.292969 2.390625-5.765625 1.46875-1.480469 3.507813-2.390625 5.757813-2.390625h213.558593c4.507813 0 8.160157 3.652344 8.160157 8.15625zm0 0" fill="#e8c934"/><path d="m483.679688 241.496094c0 2.25-.914063 4.292968-2.390626 5.761718-1.480468 1.480469-3.511718 2.390626-5.769531 2.390626h-162.398437c-4.5 0-8.148438-3.652344-8.148438-8.152344 0-2.246094.910156-4.292969 2.386719-5.765625 1.472656-1.480469 3.511719-2.390625 5.761719-2.390625h162.398437c4.507813 0 8.160157 3.652344 8.160157 8.15625zm0 0" fill="#ffe152"/><path d="m366.636719 276.796875 12 24.316406 26.832031 3.898438-19.414062 18.921875 4.582031 26.722656-24-12.613281-23.996094 12.613281 4.582031-26.722656-19.414062-18.921875 26.832031-3.898438zm0 0" fill="#e8c934"/><path d="m394.449219 439.378906v29.75c0 .78125-.03125 1.546875-.105469 2.308594-7.847656 5.058594-15.996094 9.6875-24.40625 13.875-.816406.410156-1.632812.804688-2.457031 1.210938-4.210938 2.039062-8.484375 3.972656-12.8125 5.78125-8.066407-4.566407-13.507813-13.238282-13.507813-23.175782v-29.75c0-14.710937 11.933594-26.644531 26.644532-26.644531 3.511718 0 6.855468.679687 9.925781 1.914063 3.363281 1.347656 6.394531 3.363281 8.914062 5.890624 4.816407 4.828126 7.804688 11.484376 7.804688 18.839844zm0 0" fill="#eab599"/><path d="m394.449219 439.378906v29.75c0 .78125-.03125 1.546875-.105469 2.308594-7.847656 5.058594-15.996094 9.6875-24.40625 13.875-.816406.410156-1.632812.804688-2.457031 1.210938-4.035157-4.660157-6.46875-10.75-6.46875-17.394532v-29.75c0-11.199218 6.917969-20.792968 16.71875-24.730468 3.363281 1.347656 6.394531 3.363281 8.914062 5.890624 4.816407 4.828126 7.804688 11.484376 7.804688 18.839844zm0 0" fill="#f6caae"/></svg>