<?xml version="1.0" encoding="iso-8859-1"?>
<!-- Generator: Adobe Illustrator 19.0.0, SVG Export Plug-In . SVG Version: 6.00 Build 0)  -->
<svg version="1.1" id="Capa_1" xmlns="http://www.w3.org/2000/svg" xmlns:xlink="http://www.w3.org/1999/xlink" x="0px" y="0px"
	 viewBox="0 0 512 512" style="enable-background:new 0 0 512 512;" xml:space="preserve">
<path style="fill:#F2BB80;" d="M255.987,0L255.987,0c24.373,0,44.138,19.765,44.138,44.138v52.966
	c0,24.373-19.765,44.138-44.138,44.138l0,0c-24.373,0-44.138-19.765-44.138-44.138V44.138C211.849,19.765,231.605,0,255.987,0z"/>
<path style="fill:#EBB071;" d="M270.905,2.737c1.766,4.776,2.692,9.825,2.737,14.919v52.966
	c-0.079,24.373-19.897,44.076-44.279,43.997c-5.041-0.018-10.037-0.892-14.777-2.595c8.448,22.863,33.836,34.551,56.7,26.112
	c17.205-6.356,28.681-22.687,28.84-41.031V44.138C300.063,25.565,288.384,9.013,270.905,2.737z"/>
<path style="fill:#F2BB80;" d="M432.539,495.934c0-6.338-3.69-12.094-9.446-14.742l-73.975-33.633
	c-7.892-3.558-17.205-0.865-21.981,6.356l-9.357,13.948l-211.862-61.793h-35.31c-29.255,0-52.966,23.711-52.966,52.966
	S41.353,512,70.608,512h345.865C425.326,511.956,432.486,504.788,432.539,495.934z"/>
<path style="fill:#4398D1;" d="M150.056,141.241v61.793L163.297,256l13.241,52.966v97.103h158.897v-97.103
	C334.376,306.759,348.676,256,348.676,256l13.241-52.966v-61.793H150.056z"/>
<path style="fill:#3E8CC7;" d="M324.136,141.241c-13.656,45.286-30.526,89.538-50.494,132.414
	c-22.343,46.133-55.693,86.06-97.103,116.259v16.155h158.897v-97.103C334.376,306.759,348.676,256,348.676,256l13.241-52.966
	v-61.793H324.136z"/>
<path style="fill:#E8A864;" d="M439.159,406.069H238.332l-4.767-14.389c-2.401-7.23-9.163-12.103-16.772-12.094h-95.779
	c-8.386,0.185-15.033,7.124-14.848,15.51c0.141,6.506,4.414,12.2,10.611,14.151l201.004,58.615l9.357-13.948
	c4.776-7.221,14.089-9.913,21.981-6.356l73.975,33.633c8.095,3.752,11.608,13.356,7.857,21.451
	c-2.622,5.65-8.254,9.287-14.477,9.357h24.894c29.255,0.009,52.974-23.693,52.992-52.939c0-0.538-0.009-1.077-0.026-1.615
	C492.672,428.306,468.343,405.645,439.159,406.069z"/>
<path style="fill:#F2BB80;" d="M219.087,218.571L203.021,256H97.09l52.966-52.966v-61.793c-22.563,0.106-44.032,9.728-59.145,26.483
	l-61.793,67.09c-7.415,8.236-11.502,18.935-11.476,30.014l0,0c0,24.373,19.765,44.138,44.138,44.138h194.207V194.207
	C239.912,194.198,225.39,203.785,219.087,218.571z"/>
<path style="fill:#E8A864;" d="M421.063,167.724c-15.113-16.755-36.582-26.377-59.145-26.483v61.793L414.883,256H308.952
	l-16.066-37.429c-6.303-14.786-20.824-24.373-36.899-24.364v114.759h194.207c24.373,0,44.138-19.765,44.138-44.138l0,0
	c0-11.132-4.149-21.875-11.652-30.102L421.063,167.724z"/>
<path style="fill:#EBB071;" d="M432.539,495.934c0-6.338-3.69-12.094-9.446-14.742l-9.975-4.502H88.263
	c-27.975,0-53.319-16.508-64.618-42.108c-13.506,25.944-3.416,57.927,22.528,71.433C53.72,509.943,62.098,512,70.607,512h345.865
	C425.326,511.956,432.486,504.788,432.539,495.934z"/>
<path style="fill:#E3A35F;" d="M414.883,476.69h-1.766l9.975,4.502c8.095,3.752,11.608,13.356,7.857,21.451
	c-2.622,5.65-8.254,9.287-14.477,9.357h24.894c29.255,0.009,52.974-23.693,52.992-52.939c0-0.538-0.009-1.077-0.026-1.615
	c-0.265-9.128-3.019-18.008-7.945-25.688C473.145,459.211,445.365,476.672,414.883,476.69z"/>
<path style="fill:#E8A864;" d="M343.027,446.058h3.09H343.027z"/>
<path style="fill:#E3A35F;" d="M478.001,264.828c-6.321,10.937-17.999,17.673-30.632,17.655H292.003
	c-11.167-0.071-21.08-7.133-24.806-17.655l-11.211-29.396v73.534h194.207c24.373,0,44.138-19.765,44.138-44.138
	c-0.035-6.886-1.695-13.656-4.855-19.774L478.001,264.828z"/>
<path style="fill:#EBB071;" d="M219.97,282.483H64.605c-12.632,0.018-24.311-6.718-30.632-17.655l-11.476-19.95
	c-3.187,6.17-4.846,13.012-4.855,19.95c0,24.373,19.765,44.138,44.138,44.138h194.207v-26.483H219.97z"/>
<g>
</g>
<g>
</g>
<g>
</g>
<g>
</g>
<g>
</g>
<g>
</g>
<g>
</g>
<g>
</g>
<g>
</g>
<g>
</g>
<g>
</g>
<g>
</g>
<g>
</g>
<g>
</g>
<g>
</g>
</svg>
