<?xml version="1.0" encoding="utf-8"?>
<!-- Generator: Adobe Illustrator 16.0.0, SVG Export Plug-In . SVG Version: 6.00 Build 0)  -->
<!DOCTYPE svg PUBLIC "-//W3C//DTD SVG 1.1//EN" "http://www.w3.org/Graphics/SVG/1.1/DTD/svg11.dtd">
<svg version="1.1" id="Layer_1" xmlns="http://www.w3.org/2000/svg" xmlns:xlink="http://www.w3.org/1999/xlink" x="0px" y="0px"
	 width="500px" height="500px" viewBox="0 0 500 500" enable-background="new 0 0 500 500" xml:space="preserve">
<path fill="#010101" d="M93.895,65.197c-3.157-3.908-6.054-6.617-7.787-9.936C84.931,53,85.38,49.89,85.097,47.15
	c3.279,0.073,6.904-0.72,9.746,0.429c3.658,1.484,6.681,4.53,11.443,7.956c-1.59-4.563-2.688-7.543-3.667-10.566
	c-0.837-2.587-2.182-5.229-2.127-7.822c0.058-2.777,1.485-5.527,2.317-8.293c2.419,1.5,5.633,2.456,7.089,4.606
	c3.743,5.529,6.7,11.592,11.107,17.206c0-5.149-0.28-10.321,0.151-15.431c0.155-1.877,2.012-5.108,3.07-5.099
	c2.283,0.009,5.995,1.216,6.569,2.836c1.913,5.411,2.763,11.208,3.887,16.886c0.439,2.234,0.52,4.548,0.915,8.242
	c2.682-2.998,4.326-5.279,6.407-7.035c1.851-1.554,4.065-3.16,6.342-3.616c4.029-0.808,5.854,1.566,3.863,5.047
	c-4.054,7.09-4.336,14.658-4.541,22.528c-0.146,5.664-2.095,11.254-2.939,16.928c-0.316,2.15-0.382,4.703,0.478,6.606
	c2.875,6.369,6.198,12.535,9.415,18.747c0.521,1.012,1.208,2.448,2.082,2.68c6.805,1.802,7.4,7.781,9.154,13.038
	c2.744,8.218,5.541,16.426,8.529,25.267c5.456-10.358,9.844-20.067,15.493-28.976c4.063-6.403,8.777-13.479,15.025-17.189
	c13.22-7.869,28.025-12.996,43.701-12.447c6.871,0.244,13.705,3.353,20.433,5.557c4.025,1.318,7.737,3.595,11.718,5.088
	c8.913,3.343,15.709,9.096,18.194,18.311c1.664,6.162,5.096,8.66,11.598,9.026c-1.283,1.133-2.074,1.83-2.845,2.514
	c3.539,2.766,7.07,5.529,11.02,8.62c1.323-8.483,2.499-16.831,3.995-25.123c0.832-4.574,1.772-9.23,3.53-13.497
	c1.197-2.904,3.924-5.172,5.902-7.767c0.907-1.178,1.91-2.364,2.461-3.713c1.39-3.415,2.348-7.007,3.838-10.375
	c2.037-4.605,1.85-8.212-1.292-12.791c-2.623-3.834-3.363-9.402-3.629-14.272c-0.295-5.299-1.187-9.769-4.961-13.799
	c-1.549-1.659-1.712-4.633-2.501-7.005c2.711-0.604,5.514-1.941,8.088-1.606c2.937,0.385,5.674,2.261,9.054,3.737
	c0.557-7.806,1.089-15.414,1.641-23.029c0.245-3.397,0.475-6.949,5.084-7.094c4.483-0.142,4.456,3.673,5.12,6.548
	c0.931,4.113,1.512,8.305,2.414,13.45c1.335-3.796,2.395-6.837,3.489-9.874c0.778-2.189,1.06-4.909,2.541-6.427
	c2.355-2.404,5.537-3.994,8.368-5.935c1.168,2.834,2.899,5.58,3.358,8.523c0.586,3.743,0.138,7.645,0.138,11.479
	c0.543,0.52,1.094,1.045,1.641,1.565c1.191-1.922,2.058-4.241,3.707-5.633c1.381-1.168,4.367-2.274,5.416-1.569
	c1.573,1.063,3.113,3.895,2.807,5.665c-0.824,4.898-2.612,9.634-4.15,14.894c2.774-0.989,5.549-1.975,8.801-3.134
	c1.367,6.51,0.302,11.677-3.87,16.844c-3.93,4.868-6.651,10.711-9.827,16.176c-1.263,2.173-1.8,5.06-3.562,6.603
	c-5.685,4.982-5.804,11.254-5.739,18.045c0.094,9.124-0.677,18.252-0.924,27.381c-0.08,3.086-0.379,6.416,0.59,9.234
	c2.903,8.44,1.696,16.302-1.378,24.413c-3.162,8.334-4.81,17.304-8.481,25.37c-2.885,6.336-3.432,13.017-5.494,19.375
	c-1.206,3.718-4.072,6.895-6.04,10.077c-1.54,5.28-2.406,10.847-4.721,15.74c-7.188,15.226-12.352,31.155-14.267,47.728
	c-2.118,18.395,2.591,36.31,7.346,53.995c1.87,6.938,4.477,13.694,6.017,20.699c1.188,5.445,4.125,6.347,9.069,6.229
	c6.364-0.139,12.902-0.043,19.071,1.298c14.918,3.239,22.011,12.257,24.127,27.266c0.487,3.429,3.839,7.035,6.786,9.445
	c20.015,16.392,40.332,32.405,60.413,48.725c5.427,4.399,10.63,9.16,15.424,14.231c1.929,2.037,2.505,5.363,3.694,8.096
	c-2.478,0.804-4.9,2.116-7.423,2.332c-40.082,3.557-80.13,7.88-120.286,10.213c-54.724,3.179-109.531,4.947-164.316,7.02
	c-15.935,0.607-31.91,0.272-47.868,0.289c-34.641,0.033-69.281,0.051-103.918-0.081c-2.419-0.011-6.77-1.075-6.886-2.043
	c-0.341-2.88,0.062-6.711,1.804-8.83c20.87-25.402,42.119-50.482,63.006-75.86c2.546-3.094,4.755-7.305,5.115-11.18
	c1.145-12.247,16.086-29.461,29.41-28.911c6.553,0.276,13.15-0.669,19.715-0.531c13.274,0.291,24.756-9.34,25.2-22.361
	c0.521-15.509,0.866-31.057,0.165-46.539c-0.27-5.948-2.991-12.06-5.683-17.571c-8.167-16.738-16.923-33.19-25.34-49.807
	c-9.479-18.708-18.768-37.511-28.304-56.189c-2.234-4.374-2.079-7.805,0.237-12.436c2.279-4.562,3.008-10.394,2.79-15.599
	c-0.482-11.25-1.903-22.467-3.199-33.667c-0.242-2.097-1.342-4.334-2.674-6.014c-4.41-5.567-9.629-10.559-13.488-16.465
	c-2.335-3.582-4.754-5.664-8.76-6.715c-3.311-0.871-6.674-2.156-9.491-4.043c-1.31-0.872-2.118-3.768-1.758-5.449
	c0.291-1.351,2.561-2.902,4.167-3.198C86.862,64.817,89.847,65.197,93.895,65.197z M248.285,148.903
	c-2.081,2.18-4.163,4.365-6.653,6.974c12.612-1.228,19.5-10.136,27.285-19.208c5.417,11.237,13.461,12.93,22.347,8.939
	c-0.808,2.875-1.905,5.474-2.224,8.17c-0.726,6.156,2.542,10.703,5.46,15.925c2.592,4.652,1.368,11.436,1.883,17.27
	c0.018,0.17,0.635,0.286-0.106-0.025c3.243-2.088,6.443-5.729,8.495-5.171c6.964,1.897,8.591-1.937,9.911-7.031
	c0.639-2.438,1.495-4.846,1.888-7.329c2.041-12.719-3.806-21.308-16.082-24.636c-1.408-0.38-2.892-3.283-3.017-5.103
	c-0.844-12.568-7.591-20.374-19.007-24.69c-2.177-0.822-4.53-1.39-6.483-2.592c-23.468-14.485-44.859-4.16-66.151,5.698
	c-3.002,1.393-5.79,4.253-7.566,7.118c-6.631,10.696-13.234,21.448-18.987,32.625c-3.838,7.457-1.819,19.245,3.914,23.298
	c6.032,4.268,10.81,8.651,10.703,17.165c2.127-1.508,4.035-2.917,4.238-4.549c0.356-2.82,0.041-5.873-0.666-8.655
	c-2.142-8.413,0.564-14.597,7.333-19.862c4.601-3.575,8.426-8.149,12.62-12.295c-2.574-2.331-4.161-3.756-5.741-5.191
	c7.402,0.281,14.361,3.487,20.801-1.934c-2.837-4.49-9.221-7.094-6.872-14.882c8.278,5.433,16.447,6.134,25.022,3.021
	c0.067,0.708,0.121,1.421,0.181,2.13c-6.619,0.998-13.248,1.995-19.869,2.988c-0.152,0.54-0.306,1.085-0.459,1.625
	c4.414,1.101,8.881,3.241,13.229,3.013c4.553-0.24,8.982-2.756,13.467-4.272c0.393,0.49,0.778,0.981,1.168,1.469
	c-3.423,3.406-6.849,6.807-10.273,10.214c1.23-2.19,2.462-4.383,4.063-7.241c-1.924,0.536-3.003,0.862-4.102,1.14
	c-13.508,3.414-27.989,4.811-36.337,18.543c-1.115,1.831-3.602,2.909-5.596,4.096c-5.084,3.032-7.066,7.465-6.532,13.26
	c0.376,4.063,1.073,8.204,0.646,12.202c-0.279,2.618-2.044,5.236-3.681,7.465c-0.647,0.886-2.857,1.157-4.125,0.822
	c-0.667-0.176-0.929-2.228-1.216-3.469c-0.599-2.585-0.307-5.877-1.825-7.605c-1.757-1.99-5.075-2.604-7.717-3.815
	c-0.374,2.471-1.177,4.983-0.979,7.411c0.155,1.874,1.571,3.648,2.428,5.463c0.531-0.074,1.06-0.144,1.593-0.217
	c0.294-2.299,0.59-4.592,0.888-6.891c1.354,3.883,3.82,7.61,0.186,11.463c-0.47,0.502-0.302,2.512,0.244,2.906
	c2.234,1.629,4.729,2.908,8.106,4.889c0.011,0.088,0.082,1.612,0.307,3.11c1.794,12.072,6.168,22.589,18.046,28.094
	c8.627,3.999,17.453,7.565,26.145,11.436c5.876,2.615,11.664,2.727,17.432-0.146c4.866-2.424,9.552-5.261,14.554-7.337
	c16.495-6.862,29.175-16.631,29.148-35.42c2.94-1.118,6.4-1.38,7.103-2.903c2.158-4.715,3.922-9.846,4.462-14.958
	c0.23-2.174-2.95-4.71-4.586-7.084c-2.052,1.712-4.722,3.06-5.976,5.23c-1.256,2.16-1.092,5.146-1.555,7.77
	c-3.321-5.113-8.037-11-7.218-15.973c1.493-9.04-2.831-15.545-5.313-23.07c-1.216-3.702-1.986-5.896-6.681-6.111
	c-2.934-0.136-5.938-2.962-8.506-5.071c-1.472-1.202-2.133-3.38-3.229-5.25c-17.611,16.421-26.857,20.452-35.465,15.029
	C238.153,154.118,243.219,151.51,248.285,148.903z M318.025,194.68c-2.923-2.22-3.53,0.408-4.367,2.181
	c-6.025,12.639-8.286,25.704-4.484,39.539c-2.064-4.307-4.13-8.617-6.616-13.804c-8.115,8.396-15.613,16.158-23.207,24.011
	c-3.876-2.807-5.854-1.493-7.55,2.337c-1.534,3.473-3.463,7.054-6.109,9.691c-3.059,3.042-8.274,4.15-7.687,10.039
	c0.034,0.303-1.471,0.773-2.384,1.234c-0.75-2.225-1.358-4.02-1.988-5.877c-4.987,0.841-6.08,3.882-5.406,8.097
	c1.208,7.473,2.387,14.947,3.726,23.305c-0.144-0.036,1.374,0.364,2.9,0.762c-0.049,0.341-0.092,0.694-0.134,1.041
	c-2.408,0-4.818,0-7.232,0c0.232-2.391,0.638-4.786,0.665-7.18c0.038-3.997,0.038-8.013-0.332-11.983
	c-0.239-2.48-1.968-5-1.634-7.299c0.67-4.666-1.711-6.05-5.403-7.355c-7.173-2.539-13.018-6.637-16.232-14.08
	c-0.798-1.852-3.889-2.707-6.537-4.415c-2.805,14.035,0.508,25.163,6.527,36.816c-9.424-8.657-12.005-18.6-11.235-29.801
	c0.593-8.599-2.111-11.681-10.545-12.718c-7.64,11.887-10.078,24.738-7.44,38.589c-4.578-11.676-0.568-23.341-0.924-35.436
	c-2.261,2.597-4.524,5.196-6.783,7.794c-0.525-4.354-0.47-8.481,0.765-12.214c3.589-10.87,4.048-20.976-2.915-31.065
	c-3.752-5.437-5.693-12.117-8.666-18.706c-1.82,3.134-3.231,5.558-4.637,7.98c7.507-23.637-2.38-44.005-10.665-66.602
	c-9.09,20.207-23.542,31.674-43.02,37.472c6.001,12.189,11.634,23.695,17.352,35.158c0.583,1.169,1.836,1.986,2.521,3.12
	c1.609,2.682,3.244,5.373,4.52,8.218c0.938,2.093,1.071,4.546,2,6.648c4.527,10.28,8.919,20.639,13.929,30.682
	c3.636,7.284,8.034,14.202,12.388,21.104c1.154,1.822,5.091,3.286,4.88,4.354c-1.112,5.623,3.806,8.408,5.09,12.666
	c3.767,12.473,10.155,23.483,17.454,34.09c14.695,21.345,32.445,38.197,59.798,41.206c3.268,0.351,6.479,1.253,9.706,1.957
	c10.116,2.215,12.273,7.412,6.784,16.338l0.214-0.216c-11.509,1.943-21.487-0.731-29.488-9.673c9.788,0.46,18.931,8.24,29.646,3.036
	c-3.434-5.199-5.517-5.956-12.645-7.132c-21.068-3.492-40.368-11.372-53.958-28.287c-9.151-11.391-15.935-24.69-23.744-37.154
	c-1.541-2.463-2.938-5.012-4.405-7.532c-1.25,9.009-1.241,17.525-1.253,26.041c-0.009,5.749-0.07,11.486-0.065,17.238
	c0,4.39,0.608,8.705-3.025,12.478c-2.088,2.156-2.989,5.474-4.312,8.06c20.392,7.87,39.87,15.386,56.633,21.856
	c-8.147-0.469-19.012-3.012-29.497-7.39c-8.958-3.738-17.873-7.615-27.016-10.855c-2.903-1.027-6.476-0.152-9.741-0.152
	c0.933,2.148,1.839,2.964,2.901,3.33c18.275,6.174,32.727,18.281,47.591,29.933c8.199,6.423,17.376,11.65,26.388,16.944
	c5.227,3.07,11.233,3.578,16.849,0.868c7.327-3.538,14.669-7.16,21.585-11.428c19.991-12.344,39.688-25.188,59.737-37.454
	c3.952-2.422,4.753-4.455,3.562-8.77c-4.874-17.781-9.76-35.579-13.878-53.542c-2.97-12.963-4.724-26.217-7.02-39.336
	c0.381-0.099,0.771-0.207,1.149-0.316c1.104,2.76,2.196,5.515,3.709,9.298c1.244-2.68,2.212-4.504,2.953-6.427
	c4.183-10.849,8.09-21.821,12.553-32.556c2.549-6.126,5.689-11.855,3.884-18.917c-0.433-1.689,0.71-5.425,1.435-5.502
	c8.507-0.951,6.383-7.018,6.401-12.213c0.011-1.784,0.1-4.142,1.169-5.261c10.21-10.632,9.512-25.276,14.745-36.422
	c-8.854-6.739-16.443-13.108-24.623-18.583c-8.816-5.895-11.4-15.227-14.755-24.495c-3.459,18.051-9.609,35.355-6.435,53.772
	c0.296,1.75,0.158,4.431-0.93,5.433c-7.604,7.031-6.856,14.904-3.016,23.283L318.025,194.68z M395.478,402.642
	c-1.115,1.549-1.268,1.696-1.334,1.873c-0.466,1.073-0.885,2.151-1.359,3.217c-11.755,26.177-32.971,37.895-60.632,40.432
	c-3.578,0.328-7.788,3.251-10.068,6.214c-4.747,6.161-13.808,8.107-20.026,3.432c-1.236-0.929-3.227-1.218-4.859-1.218
	c-14.032,0.011-27.578-2.85-40.883-6.935c-3.413-1.056-5.684-0.361-7.399,2.537c-6.581,11.133-17.035,13.608-28.693,12.088
	c-10.762-1.411-21.362-4.091-32.11-5.641c-3.78-0.537-7.856,0.342-11.71,1.061c-3.558,0.655-8.204,3.906-10.277,2.618
	c-7.795-4.815-14.802-10.915-21.944-16.731c-2.429-1.972-4.048-5.07-6.638-6.702c-13.112-8.267-28.809-13.271-35.538-30.039
	c-16.353,22.197-32.153,43.641-48.911,66.383c13.606,0.646,25.238,1.814,36.854,1.633c38.294-0.606,76.577-1.748,114.865-2.593
	c27.793-0.613,55.63-0.334,83.381-1.757c52.982-2.726,105.922-6.354,158.874-9.652c4.514-0.28,9.003-0.955,13.498-1.443
	c0.291-0.61,0.58-1.212,0.871-1.815C439.579,440.724,417.721,421.85,395.478,402.642z M267.172,416.64
	c-0.935,0.167-1.877,0.342-2.813,0.504c-0.956,0.158-1.942,0.229-2.881,0.467c-15.236,3.853-28.321-0.148-39.937-10.454
	c-6.253-5.544-12.819-10.749-19.491-15.79c-3.041-2.294-6.592-3.952-10.039-5.659c-8.891-4.391-17.887-7.546-27.929-3.213
	c-1.3,0.561-3.707-1.454-5.6-2.276c1.546-1.393,2.875-3.334,4.689-4.063c2.828-1.12,5.979-1.421,8.994-2.07
	c-13.172-7.062-26.442-11.571-41.071-8.486c-14.852,3.127-23.79,11.925-25.075,25.432c-1.385,14.558,2.938,27.278,15.519,35.562
	c31.859,20.954,67.005,32.196,105.12,34.305c7.648,0.429,13.149-2.545,17.303-8.617c1.75-2.563,3.85-5.027,4.97-7.865
	C253.055,433.982,258.039,424.224,267.172,416.64z M330.385,444.104c1.959,0.21,2.651,0.325,3.346,0.354
	c27.352,0.972,53.388-21.108,58.287-48.929c1.936-11.01-1.216-19.443-10.19-25.905c-11.057-7.955-34.907-7.646-45.769,0.507
	c3.885,1.5,9.256-2.153,13.342,3.735c-2.75,0.693-4.532,1.331-6.366,1.567c-5.354,0.693-10.863,0.655-16.065,1.915
	c-18.774,4.537-32.613,17.539-47.419,28.733c-2.585,1.959-3.771,5.75-6.376,9.921c11.945,0,21.982-0.018,32.009,0.011
	c3.829,0.009,7.896-0.704,11.445,0.34c9.648,2.834,19.046,6.797,29.256,2.496c0.129-0.06,0.352,0.12,1.156,0.432
	c-3.479,1.522-6.539,2.851-9.634,4.192C343.479,434.489,343.108,435.681,330.385,444.104z M126.577,90.67
	c-5.381-6.734-4.141-14.145,2.632-19.64c1.568-1.269,4.094-3.061,3.976-4.421c-0.861-10.242-2.169-20.452-3.669-30.62
	c-0.163-1.143-2.368-1.991-3.63-2.972c-0.911,1.273-2.593,2.545-2.602,3.828c-0.024,6.015,0.482,12.028,0.646,18.042
	c0.059,1.967-0.326,3.94-0.506,5.913c-7.805-8.715-7.955-21.988-20.026-28.854c-1.837,12.095,6.788,20.262,8.306,30.509
	c-8.761-3.08-14.317-11.835-23.599-12.564c-0.385,0.594-0.775,1.188-1.16,1.782c5.171,5.759,10.34,11.516,15.512,17.272
	c-5.615,0.627-10.519-0.097-15.448-0.458c-1.245-0.094-2.584,0.983-3.877,1.518c0.846,1.335,1.395,3.348,2.592,3.868
	c3.003,1.3,6.276,2.02,9.484,2.786c3.157,0.747,4.856,2.354,6.666,5.403c3.994,6.727,6.51,15.451,16.038,16.389
	c1.561,20.986,3.24,41.529,7.021,62.603c5.697-3.164,10.311-5.635,14.83-8.261c6.968-4.044,12.204-9.806,14.856-17.356
	c1.049-2.995,1.286-7.033,0.145-9.898c-3.784-9.541-8.422-18.742-12.583-28.137c-0.719-1.632-1.602-4.181-0.868-5.31
	c4.439-6.875,3.546-14.436,4.021-21.993c0.404-6.364,2.521-12.616,3.875-18.893c-5.343-0.306-9.703,3.493-10.948,10.608
	c-0.834,4.747-2.771,8.164-6.958,10.757c-4.755,2.944-6.375,7.601-5.261,13.156C126.339,87.157,126.368,88.636,126.577,90.67z
	 M357.052,44.046c-0.798-0.132-1.598-0.267-2.396-0.4c-0.1-2.01-0.189-4.022-0.293-6.031c-0.305-5.617-0.36-11.265-1.047-16.836
	c-0.212-1.737-2.076-3.281-3.183-4.912c-1.06,1.602-2.936,3.149-3.041,4.813c-0.521,8.335-0.84,16.702-0.666,25.049
	c0.067,3.41,1.548,6.788,2.4,10.178c-2.191-1.333-2.895-3.328-4.157-4.866c-2.654-3.246-5.3-6.655-8.574-9.185
	c-1.594-1.233-4.608-0.634-6.982-0.867c0.849,2.087,1.633,4.201,2.551,6.253c1.679,3.742,4.828,7.435,4.871,11.176
	c0.105,9.337,0.703,17.852,10.008,21.784c-1.749,2.224-3.82,3.878-4.592,6.004c-2.774,7.669-5.778,15.362-7.355,23.307
	c-0.875,4.384-0.518,10.209,1.766,13.804c6.532,10.258,17.322,16.087,26.857,23.598c4.373-12.061,5.777-51.516,2.667-59.21
	c3.078-2.968,7.181-5.227,8.597-8.606c3.868-9.24,8.903-17.542,15.205-25.267c1.384-1.695,1.101-4.746,1.576-7.168
	c-0.549-0.122-1.102-0.248-1.653-0.376c-4.771,3.676-9.541,7.349-14.311,11.022c-0.41-0.506-0.817-1.012-1.236-1.523
	c4.066-9.026,13.638-16.12,10.914-27.536c-0.604-0.364-1.201-0.73-1.802-1.093c-4.847,6.751-9.692,13.512-14.538,20.266
	c-0.499-0.264-1-0.527-1.498-0.789c2.876-10.758,6.392-21.458,4.833-33.452c-7.926,2.847-8.324,9.264-10.216,14.476
	C359.821,32.985,358.587,38.572,357.052,44.046z M32.761,484.447c48.133,5.475,408.404-5.216,443.396-17.677
	c-5.51-9.988-73.399-67.365-81.966-67.273c1.15,1.974,3.448,2.737,5.191,4.185c20.524,17.008,40.996,34.076,61.369,51.253
	c2.828,2.379,5.065,5.475,8.749,9.521c-4.207,0.404-6.431,0.71-8.654,0.818c-7.388,0.338-14.777,0.471-22.155,0.927
	c-38.42,2.375-76.812,5.407-115.265,7.118c-50.688,2.252-101.417,3.947-152.153,4.993c-38.293,0.795-76.611,0.273-114.918,0.152
	c-7.59-0.022-8.505-2.2-4.404-8.634c0.729-1.14,1.621-2.187,2.458-3.26c14.815-19.025,29.69-38.013,44.385-57.144
	c1.537-1.996,2.043-4.785,3.036-7.208c-0.826-0.405-1.652-0.807-2.484-1.209C77.175,428.301,54.195,454.948,32.761,484.447z
	 M251.393,445.92c7.546,1.725,13.246,2.353,18.431,4.35c9.47,3.634,18.991,5.4,29.047,3.709c2.909-0.491,5.195-0.417,6.266,3.2
	c0.36,1.211,2.651,1.852,4.952,3.33c-0.507-4.087-0.801-6.382-1.123-8.991c2.407,1.679,4.219,2.938,6.028,4.182
	c0.415-0.303,0.822-0.617,1.237-0.922c-0.348-2.101-0.71-4.199-0.993-5.917c3.095,0,6.186,0,10.696,0
	c-2.781-2.245-4.434-3.575-5.404-4.355c2.691-1.018,5.384-2.022,8.084-3.042c-1.209-2.51-2.41-5.008-3.479-7.232
	c1.345-0.663,3.614-1.78,6.41-3.152c-0.37,1.471-0.932,2.44-0.767,3.263c0.311,1.526,1.055,2.957,1.618,4.424
	c1.394-0.894,3.406-1.449,4.066-2.718c2.104-4.078,0.736-8.165-2.852-10.198c-8.093-4.571-16.55-8.313-26.402-6.911
	c-5.474,0.782-11.056,1.058-16.577,1.078c-4.447,0.009-8.998-1.484-13.31-0.889c-3.905,0.536-8.743,1.994-11.067,4.789
	C260.763,430.491,256.534,438.107,251.393,445.92z M228.641,250.964c3.806,6.208,8.65,9.945,15.158,11.339
	c0.921,0.2,2.113-0.87,3.175-1.352c-0.504-0.896-0.798-2.261-1.554-2.617C240.184,255.887,234.844,253.653,228.641,250.964z
	 M267.813,248.281c-5.273,3.937-10.538,7.87-16.983,12.67C259.955,260.172,265.947,255.793,267.813,248.281z M194.524,227.155
	c-2.024,5.14-3.579,9.097-5.13,13.053c0.345,0.221,0.691,0.444,1.032,0.667c3.085-2.058,6.165-4.112,9.674-6.452
	C198.254,232.013,196.786,230.103,194.524,227.155z M165.727,454.327c-0.214-0.775-0.428-1.555-0.642-2.333
	c-2.452-1.979-5.099-2.842-7.163,0.476c-0.577,0.936,0.459,2.884,0.751,4.36C161.022,455.999,163.372,455.163,165.727,454.327z"/>
<path fill="#FFFFFF" d="M395.478,402.642c22.243,19.208,44.102,38.082,65.96,56.95c-0.295,0.603-0.58,1.206-0.875,1.816
	c-4.502,0.488-8.989,1.163-13.504,1.443c-52.953,3.303-105.892,6.933-158.869,9.649c-27.75,1.427-55.588,1.145-83.38,1.758
	c-38.29,0.846-76.572,1.988-114.866,2.595c-11.615,0.182-23.247-0.989-36.854-1.635c16.758-22.741,32.556-44.186,48.911-66.379
	c6.723,16.769,22.421,21.771,35.538,30.038c2.589,1.625,4.209,4.728,6.639,6.7c7.141,5.815,14.153,11.917,21.943,16.729
	c2.074,1.291,6.721-1.961,10.278-2.623c3.853-0.705,7.925-1.591,11.71-1.054c10.749,1.546,21.347,4.229,32.109,5.641
	c11.66,1.521,22.108-0.954,28.694-12.095c1.71-2.894,3.981-3.576,7.403-2.529c13.301,4.084,26.851,6.946,40.88,6.931
	c1.633,0,3.618,0.289,4.86,1.223c6.214,4.677,15.281,2.727,20.023-3.432c2.285-2.965,6.49-5.887,10.064-6.215
	c27.663-2.532,48.886-14.255,60.629-40.432c0.486-1.07,0.905-2.145,1.361-3.218C394.21,404.338,394.362,404.19,395.478,402.642z"/>
<path fill="#FFFFFF" d="M267.172,416.64c-9.133,7.584-14.117,17.336-18.245,27.76c-1.127,2.838-3.223,5.303-4.976,7.869
	c-4.148,6.073-9.651,9.039-17.301,8.616c-38.113-2.11-73.257-13.35-105.12-34.31c-12.578-8.276-16.902-20.997-15.516-35.565
	c1.286-13.495,10.229-22.295,25.074-25.425c14.63-3.085,27.905,1.425,41.072,8.485c-3.018,0.65-6.17,0.946-8.993,2.072
	c-1.815,0.726-3.143,2.665-4.69,4.063c1.898,0.827,4.3,2.838,5.601,2.281c10.043-4.339,19.04-1.18,27.931,3.212
	c3.445,1.7,6.996,3.359,10.037,5.654c6.672,5.041,13.243,10.245,19.492,15.79c11.615,10.305,24.699,14.309,39.937,10.45
	c0.932-0.239,1.921-0.306,2.882-0.469C265.295,416.981,266.237,416.807,267.172,416.64z M217.539,414.864
	c5.469,7.602,4.495,13.117-3.764,17.006c-5.678,2.685-12.061,4.433-18.303,5.208c-12.613,1.563-24.951,0.945-34.427-9.584
	c-1.123-1.246-3.116-1.712-4.708-2.533c4.5,8.188,10.739,14.081,19.789,15.542c12.252,1.998,24.684,1.711,35.99-3.625
	c5.042-2.381,9.504-7.237,12.663-12.008C227.94,420.091,224.398,415.539,217.539,414.864z M151.689,395.485
	c11.751-2.63,23.415-5.231,35.171,0.305C181.348,386.989,163.432,388.905,151.689,395.485z M208.491,456.026
	c8.974,0.861,18.224,0.125,26.297-6.085C225.828,452.012,216.876,454.084,208.491,456.026z"/>
<path fill="#FFFFFF" d="M248.29,148.903c-5.071,2.607-10.137,5.215-15.522,7.991c8.613,5.416,17.855,1.39,35.465-15.032
	c1.093,1.871,1.758,4.048,3.23,5.25c2.565,2.108,5.573,4.935,8.507,5.071c4.693,0.213,5.46,2.413,6.68,6.111
	c2.482,7.52,6.794,14.029,5.313,23.069c-0.818,4.972,3.905,10.86,7.218,15.973c0.461-2.621,0.298-5.605,1.553-7.77
	c1.26-2.17,3.929-3.522,5.978-5.23c1.632,2.375,4.816,4.91,4.581,7.084c-0.536,5.112-2.3,10.242-4.456,14.958
	c-0.706,1.523-4.163,1.78-7.108,2.904c0.031,18.787-12.658,28.562-29.142,35.419c-5.004,2.077-9.689,4.913-14.555,7.336
	c-5.77,2.869-11.557,2.764-17.436,0.148c-8.688-3.871-17.515-7.438-26.144-11.436c-11.877-5.504-16.251-16.023-18.047-28.095
	c-0.224-1.499-0.297-3.023-0.306-3.11c-3.376-1.981-5.873-3.26-8.107-4.889c-0.539-0.399-0.714-2.409-0.241-2.907
	c3.636-3.853,1.168-7.585-0.186-11.463c-0.296,2.298-0.594,4.592-0.891,6.891c-0.529,0.073-1.058,0.144-1.589,0.218
	c-0.857-1.821-2.273-3.59-2.427-5.465c-0.199-2.428,0.607-4.939,0.976-7.41c2.642,1.212,5.962,1.825,7.719,3.817
	c1.523,1.722,1.231,5.02,1.825,7.604c0.285,1.242,0.544,3.298,1.216,3.469c1.265,0.331,3.479,0.059,4.125-0.822
	c1.635-2.229,3.401-4.847,3.678-7.465c0.43-3.999-0.267-8.135-0.641-12.203c-0.535-5.793,1.443-10.228,6.531-13.259
	c1.993-1.188,4.48-2.266,5.595-4.095c8.349-13.733,22.829-15.131,36.339-18.544c1.097-0.279,2.175-0.609,4.102-1.141
	c-1.602,2.859-2.833,5.051-4.063,7.242L248.29,148.903z M212.916,202.918c1.513,0.516,3.673,1.955,5.711,1.803
	c4.327-0.316,6.424,1.945,8.106,5.271c3.077,6.059,6.365,12.018,9.179,18.199c2.122,4.666,5.218,8.032,10.396,8.037
	c5.26,0.004,9.978-2.091,12.659-7.002c2.033-3.742,3.953-7.606,5.383-11.605c2.104-5.871,4.69-10.615,12.196-8.917
	c0.141,0.028,0.419-0.557,1.266-1.723c-8.04,0.428-9.466-6.244-12.012-11.425c-0.979,4.257-0.781,8.695-2.889,11.097
	c-2.468,2.817-6.871,5.154-10.572,5.372c-5.575,0.333-11.585-0.469-16.817-2.402c-7.502-2.77-8.228-5.226-7.177-13.207
	c0.102-0.758-0.205-1.566-0.165-1.314C223,197.744,218.013,200.3,212.916,202.918z M236.427,179.198
	c-5.859-6.857-6.841-7.649-9.829-6.428c-5.023,2.053-8.641,5.395-9.281,11.24C223.868,182.361,229.926,180.833,236.427,179.198z
	 M279.271,183.582c-2.572-7.108-6.463-10.399-12.309-10.915c-5.051-0.447-6.914,3.186-8.224,7.548
	c3.35-0.361,6.599-1.331,9.632-0.862C271.605,179.849,274.639,181.702,279.271,183.582z M251.521,195.454
	c-2.817-0.721-4.608-1.179-6.2-1.588c-0.191-3.013-0.353-5.688-0.522-8.362c-0.847-0.02-1.703-0.047-2.548-0.07
	c-0.132,3.59-1.458,7.767-0.062,10.594C243.405,198.495,247.705,199.949,251.521,195.454z M221.542,167.484
	c4.676-1.862,9.072-3.615,13.426-5.353C230.548,157.15,225.781,158.872,221.542,167.484z M240.712,238.506
	c-0.096,0.807-0.193,1.613-0.292,2.422c2.585,0.56,5.204,1.669,7.74,1.493c1.692-0.11,3.26-2.046,4.884-3.166
	c-0.257-0.511-0.512-1.022-0.769-1.538C248.417,237.979,244.56,238.244,240.712,238.506z M272.005,164.854
	c0.305-0.376,0.613-0.75,0.912-1.129c-3.169-1.138-6.271-2.74-9.54-3.203c-1.336-0.19-3.022,2.084-4.559,3.231
	c0.281,0.366,0.548,0.729,0.827,1.101C263.774,164.854,267.89,164.854,272.005,164.854z M305.309,202.247c0-4.629,0-9.254,0-13.566
	C300.866,191.596,300.543,194.275,305.309,202.247z"/>
<path fill="#FFFFFF" d="M248.066,149.122c3.426-3.406,6.852-6.807,10.274-10.214c-0.391-0.492-0.778-0.982-1.17-1.468
	c-4.486,1.517-8.914,4.033-13.467,4.272c-4.348,0.229-8.814-1.913-13.228-3.011c0.151-0.541,0.307-1.087,0.458-1.626
	c6.622-0.999,13.245-1.996,19.869-2.989c-0.063-0.708-0.114-1.421-0.181-2.128c-8.577,3.112-16.745,2.411-25.023-3.022
	c-2.35,7.788,4.034,10.388,6.872,14.883c-6.439,5.421-13.399,2.214-20.801,1.933c1.58,1.431,3.167,2.861,5.74,5.191
	c-4.188,4.146-8.02,8.72-12.62,12.295c-6.769,5.265-9.475,11.454-7.335,19.862c0.71,2.785,1.024,5.835,0.667,8.655
	c-0.203,1.626-2.112,3.041-4.238,4.549c0.107-8.514-4.671-12.893-10.703-17.165c-5.733-4.053-7.752-15.843-3.914-23.298
	c5.752-11.175,12.354-21.929,18.986-32.625c1.776-2.865,4.564-5.726,7.566-7.119c21.293-9.856,42.683-20.182,66.151-5.697
	c1.954,1.208,4.304,1.771,6.476,2.592c11.429,4.322,18.172,12.127,19.018,24.69c0.124,1.825,1.606,4.73,3.012,5.104
	c12.274,3.328,18.124,11.917,16.082,24.635c-0.393,2.482-1.246,4.887-1.884,7.33c-1.321,5.093-2.949,8.927-9.911,7.029
	c-2.053-0.559-5.257,3.086-8.495,5.172c0.736,0.307,0.118,0.195,0.103,0.024c-0.514-5.837,0.713-12.615-1.88-17.267
	c-2.918-5.224-6.186-9.771-5.461-15.926c0.318-2.692,1.415-5.293,2.224-8.17c-8.885,3.986-16.93,2.293-22.347-8.938
	c-7.789,9.075-14.673,17.979-27.285,19.206c2.49-2.609,4.572-4.79,6.658-6.973L248.066,149.122z"/>
<path fill="#FFFFFF" d="M330.385,444.104c12.724-8.42,13.095-9.615,7.032-20.631c3.089-1.342,6.149-2.68,9.628-4.192
	c-0.804-0.303-1.027-0.491-1.161-0.432c-10.204,4.306-19.595,0.338-29.252-2.496c-3.543-1.044-7.609-0.331-11.449-0.34
	c-10.026-0.028-20.054-0.011-32.009-0.011c2.605-4.171,3.791-7.962,6.384-9.921c14.806-11.194,28.637-24.205,47.416-28.733
	c5.197-1.26,10.71-1.222,16.061-1.915c1.834-0.236,3.616-0.874,6.366-1.567c-4.086-5.889-9.45-2.235-13.338-3.735
	c10.857-8.152,34.712-8.459,45.765-0.507c8.979,6.462,12.135,14.904,10.197,25.905c-4.906,27.82-30.942,49.9-58.294,48.929
	C333.036,444.43,332.344,444.314,330.385,444.104z M356.406,409.418c-10.899,1.444-21.355,2.828-32.908,4.357
	C335.702,416.566,346.173,415.339,356.406,409.418z"/>
<path fill="#FFFFFF" d="M126.577,90.67c-0.209-2.034-0.242-3.513-0.531-4.942c-1.113-5.558,0.507-10.214,5.261-13.158
	c4.189-2.594,6.125-6.015,6.959-10.757c1.245-7.115,5.605-10.915,10.948-10.608c-1.354,6.277-3.471,12.529-3.875,18.893
	c-0.476,7.557,0.419,15.118-4.022,21.993c-0.732,1.129,0.145,3.678,0.869,5.31c4.156,9.399,8.798,18.596,12.583,28.137
	c1.141,2.865,0.909,6.903-0.146,9.898c-2.651,7.551-7.892,13.318-14.856,17.356c-4.523,2.626-9.132,5.098-14.83,8.261
	c-3.785-21.078-5.46-41.617-7.021-62.603c-9.528-0.938-12.043-9.662-16.036-16.389c-1.812-3.045-3.504-4.656-6.667-5.403
	c-3.208-0.766-6.482-1.486-9.485-2.786c-1.197-0.52-1.746-2.533-2.591-3.868c1.292-0.534,2.632-1.611,3.877-1.518
	c4.929,0.365,9.833,1.089,15.447,0.458C97.29,63.188,92.123,57.426,86.95,51.672c0.385-0.594,0.775-1.188,1.16-1.782
	c9.283,0.724,14.839,9.484,23.6,12.564c-1.518-10.247-10.135-18.415-8.306-30.509c12.067,6.866,12.221,20.146,20.026,28.854
	c0.186-1.972,0.565-3.951,0.506-5.913c-0.171-6.018-0.67-12.034-0.647-18.042c0.004-1.279,1.692-2.55,2.603-3.828
	c1.261,0.981,3.465,1.829,3.629,2.972c1.5,10.168,2.808,20.378,3.667,30.62c0.12,1.361-2.406,3.152-3.975,4.421
	C122.44,76.525,121.196,83.936,126.577,90.67z M130.431,67.032c-6.57-3.631-15.188-1.43-21.963,5.259
	c-1.191,1.177-1.646,3.114-2.436,4.695c0.622,0.449,1.239,0.896,1.861,1.341C113.488,71.071,120.759,67.181,130.431,67.032z"/>
<path fill="#FFFFFF" d="M357.052,44.046c1.535-5.474,2.77-11.061,4.704-16.387c1.896-5.212,2.296-11.629,10.22-14.476
	c1.555,11.994-1.961,22.699-4.831,33.452c0.503,0.262,0.997,0.525,1.5,0.789c4.847-6.754,9.695-13.515,14.543-20.266
	c0.595,0.362,1.191,0.729,1.795,1.093c2.728,11.416-6.843,18.51-10.911,27.536c0.41,0.506,0.817,1.012,1.236,1.523
	c4.767-3.673,9.541-7.346,14.306-11.022c0.548,0.129,1.109,0.25,1.654,0.376c-0.48,2.427-0.194,5.474-1.572,7.168
	c-6.311,7.725-11.346,16.022-15.214,25.267c-1.416,3.379-5.513,5.639-8.592,8.606c3.117,7.698,1.711,47.149-2.665,59.21
	c-9.539-7.51-20.332-13.334-26.864-23.598c-2.283-3.594-2.641-9.419-1.766-13.804c1.586-7.945,4.581-15.638,7.361-23.307
	c0.769-2.131,2.84-3.785,4.586-6.004c-9.305-3.927-9.895-12.442-10-21.784c-0.046-3.742-3.2-7.435-4.876-11.176
	c-0.911-2.052-1.705-4.166-2.545-6.253c2.365,0.232,5.38-0.367,6.98,0.867c3.274,2.53,5.913,5.939,8.576,9.185
	c1.263,1.538,1.964,3.533,4.152,4.866c-0.845-3.39-2.327-6.768-2.398-10.178c-0.176-8.347,0.139-16.714,0.66-25.049
	c0.105-1.66,1.985-3.212,3.05-4.813c1.108,1.63,2.965,3.17,3.18,4.912c0.681,5.571,0.746,11.219,1.045,16.836
	c0.1,2.013,0.196,4.021,0.298,6.031C355.444,43.779,356.254,43.914,357.052,44.046z M355.444,77.353
	c5.821-2.989,6.973-6.156,5.817-11.946c-1.207-6.073-4.941-9.903-10.768-10.511C357.611,60.676,360.853,67.319,355.444,77.353z
	 M350.627,45.656c8.847,5.502,16.413,10.205,24.785,15.415C368.718,53.173,361.604,47.763,350.627,45.656z"/>
<path fill="#FFFFFF" d="M32.761,484.447c21.434-29.499,44.41-56.146,66.594-83.431c0.827,0.399,1.652,0.803,2.485,1.208
	c-0.989,2.423-1.5,5.207-3.037,7.212c-14.695,19.127-29.562,38.109-44.386,57.141c-0.836,1.079-1.728,2.123-2.457,3.265
	c-4.101,6.43-3.182,8.609,4.405,8.626c38.308,0.118,76.626,0.642,114.917-0.148c50.732-1.053,101.463-2.748,152.156-4.99
	c38.449-1.718,76.845-4.746,115.263-7.128c7.379-0.456,14.767-0.578,22.156-0.922c2.225-0.104,4.447-0.412,8.653-0.817
	c-3.683-4.048-5.921-7.137-8.749-9.522c-20.375-17.177-40.845-34.245-61.362-51.253c-1.75-1.448-4.049-2.212-5.2-4.189
	c8.567-0.087,76.459,57.29,81.966,67.279C441.165,479.221,80.894,489.922,32.761,484.447z"/>
<path fill="#FFFFFF" d="M251.393,445.92c5.142-7.805,9.37-15.429,14.854-22.004c2.332-2.795,7.17-4.253,11.072-4.789
	c4.314-0.596,8.86,0.897,13.31,0.889c5.524-0.021,11.106-0.296,16.568-1.078c9.855-1.402,18.317,2.337,26.409,6.911
	c3.583,2.033,4.957,6.12,2.853,10.198c-0.656,1.269-2.682,1.824-4.067,2.718c-0.561-1.467-1.303-2.903-1.616-4.424
	c-0.168-0.822,0.395-1.792,0.77-3.263c-2.799,1.372-5.074,2.498-6.413,3.152c1.072,2.225,2.271,4.729,3.475,7.232
	c-2.696,1.02-5.396,2.024-8.076,3.042c0.966,0.78,2.619,2.116,5.398,4.355c-4.515,0-7.604,0-10.697,0
	c0.29,1.718,0.643,3.816,0.995,5.917c-0.416,0.305-0.822,0.619-1.237,0.922c-1.81-1.255-3.619-2.508-6.029-4.182
	c0.323,2.609,0.614,4.904,1.126,8.991c-2.298-1.479-4.589-2.119-4.949-3.33c-1.076-3.617-3.36-3.691-6.266-3.2
	c-10.056,1.702-19.577-0.075-29.05-3.709C264.639,448.272,258.938,447.641,251.393,445.92z"/>
<path fill="#FFFFFF" d="M228.641,250.964c6.199,2.689,11.537,4.923,16.779,7.37c0.755,0.356,1.049,1.722,1.554,2.617
	c-1.064,0.486-2.254,1.552-3.175,1.352C237.296,260.914,232.447,257.176,228.641,250.964z"/>
<path fill="#FFFFFF" d="M267.813,248.281c-1.866,7.508-7.85,11.891-16.983,12.67C257.275,256.15,262.54,252.218,267.813,248.281z"/>
<path fill="#FFFFFF" d="M194.524,227.155c2.257,2.944,3.73,4.857,5.576,7.268c-3.51,2.34-6.589,4.394-9.674,6.452
	c-0.345-0.223-0.692-0.446-1.032-0.667C190.945,236.252,192.504,232.295,194.524,227.155z"/>
<path fill="#FFFFFF" d="M165.727,454.327c-2.35,0.836-4.704,1.672-7.054,2.503c-0.292-1.477-1.328-3.422-0.751-4.36
	c2.064-3.317,4.711-2.455,7.163-0.476C165.298,452.772,165.512,453.552,165.727,454.327z"/>
<path fill="#010101" d="M274.887,382.572c5.875-2.901,11.755-5.779,17.632-8.677c0.228,0.446,0.459,0.883,0.688,1.319
	c-0.28,0.477-0.445,1.209-0.855,1.369c-11.613,4.712-19.017,14.463-27.492,22.923c-11.129,11.104-16.318,10.696-26.603-3.144
	c4.131,1.062,7.263,2.315,10.471,2.555c3.111,0.227,7.112,0.492,9.284-1.152c6.092-4.612,11.438-10.205,17.082-15.409
	L274.887,382.572z"/>
<path fill="#010101" d="M305.233,235.28c1.527,2.947,3.722,5.746,4.448,8.878c5.574,23.924,3.939,47.375-5.411,70.177
	c-0.125,0.311-0.514,0.515-2.103,2.027c8.649-27.624,13.572-54,1.151-80.547C303.957,235.639,304.592,235.458,305.233,235.28z"/>
<path fill="#010101" d="M328.141,356.295c2.511,1.026,4.873,1.986,7.233,2.95c-0.104,0.29-0.218,0.585-0.316,0.874
	c-5.396,0-10.783,0-16.066,0c4-6.159,7.905-12.18,11.812-18.193c0.505,0.151,1.012,0.304,1.521,0.455
	C330.953,346.924,329.593,351.465,328.141,356.295z"/>
<path fill="#010101" d="M293.646,239.455c2.594,12.305,0.632,23.683-4.008,36.313C291.063,262.863,292.328,251.424,293.646,239.455z
	"/>
<path fill="#010101" d="M303.859,256.137c-2.831-6.82-5.668-13.646-8.5-20.467C301.822,241.032,304.208,248.114,303.859,256.137z"/>
<path fill="#010101" d="M324.465,170.916c1.913,5.814,3.749,11.394,5.824,17.686C324.137,183.98,322.194,177.528,324.465,170.916z"
	/>
<path fill="#010101" d="M318.191,194.534c2.832,0.832,3.213,7.434,8.567,3.409c-1.43-1.575-2.655-2.931-3.882-4.281
	c0.171-0.205,0.361-0.404,0.543-0.605c1.045,0.985,2.493,1.778,3.039,2.985c0.811,1.762,0.97,3.818,1.399,5.747
	c-2.328-0.522-5.029-0.496-6.884-1.733c-1.506-1.008-2.005-3.529-2.949-5.373C318.025,194.68,318.191,194.534,318.191,194.534z"/>
<path fill="#010101" d="M261.874,285.538c-2.687,1.932-4.243,3.439-6.102,4.137c-0.465,0.182-2.974-2.77-2.688-3.327
	c0.855-1.663,2.45-3.211,4.14-4.029C257.855,282.011,259.527,283.845,261.874,285.538z"/>
<path fill="#010101" d="M217.539,414.864c6.859,0.675,10.401,5.227,7.24,10.015c-3.158,4.762-7.621,9.624-12.663,12.005
	c-11.306,5.335-23.738,5.617-35.99,3.628c-9.055-1.47-15.294-7.363-19.789-15.545c1.592,0.825,3.585,1.292,4.708,2.536
	c9.477,10.529,21.814,11.147,34.427,9.578c6.242-0.774,12.625-2.526,18.303-5.207C222.034,427.981,223.008,422.456,217.539,414.864z
	"/>
<path fill="#010101" d="M151.689,395.485c11.743-6.585,29.659-8.496,35.171,0.305C175.104,390.254,163.44,392.855,151.689,395.485z"
	/>
<path fill="#010101" d="M208.491,456.026c8.385-1.932,17.336-4.015,26.297-6.085C226.715,456.151,217.465,456.888,208.491,456.026z"
	/>
<path fill="#010101" d="M212.916,202.918c5.097-2.618,10.084-5.175,15.269-7.826c-0.04-0.256,0.267,0.556,0.165,1.314
	c-1.051,7.985-0.326,10.441,7.177,13.207c5.23,1.932,11.247,2.732,16.817,2.402c3.7-0.219,8.105-2.555,10.571-5.372
	c2.114-2.409,1.906-6.84,2.893-11.098c2.538,5.182,3.964,11.858,12.004,11.426c-0.835,1.167-1.116,1.755-1.266,1.72
	c-7.506-1.697-10.082,3.045-12.189,8.918c-1.437,4.001-3.346,7.869-5.39,11.606c-2.681,4.909-7.394,7.006-12.656,7.002
	c-5.172-0.005-8.274-3.372-10.396-8.038c-2.813-6.181-6.095-12.14-9.178-18.199c-1.681-3.32-3.779-5.586-8.104-5.27
	C216.589,204.874,214.429,203.435,212.916,202.918z M232.596,212.27c-0.251,0.506-0.505,1.012-0.751,1.519
	c1.531,3.722,2.771,7.604,4.666,11.137c3.317,6.181,13.975,9.492,17.95,4.845c4.496-5.248,7.147-12.072,10.596-18.211
	c-0.524-0.496-1.063-0.998-1.6-1.493C253.674,216.979,243.466,218.687,232.596,212.27z"/>
<path fill="#010101" d="M236.427,179.198c-6.501,1.635-12.559,3.163-19.109,4.812c0.64-5.839,4.258-9.187,9.281-11.24
	C229.585,171.548,230.568,172.341,236.427,179.198z"/>
<path fill="#010101" d="M279.271,183.582c-4.633-1.875-7.666-3.733-10.9-4.229c-3.033-0.473-6.282,0.501-9.632,0.862
	c1.313-4.362,3.173-8,8.224-7.548C272.809,173.183,276.699,176.469,279.271,183.582z"/>
<path fill="#010101" d="M251.521,195.454c-3.816,4.499-8.115,3.041-9.337,0.58c-1.401-2.833-0.075-7.005,0.063-10.595
	c0.85,0.018,1.706,0.045,2.552,0.069c0.161,2.675,0.332,5.357,0.522,8.362C246.912,194.271,248.703,194.733,251.521,195.454z"/>
<path fill="#010101" d="M221.542,167.484c4.24-8.616,9.007-10.334,13.426-5.353C230.613,163.873,226.218,165.622,221.542,167.484z"
	/>
<path fill="#010101" d="M240.712,238.506c3.857-0.262,7.706-0.527,11.555-0.788c0.262,0.51,0.519,1.021,0.778,1.538
	c-1.624,1.119-3.192,3.049-4.884,3.166c-2.537,0.176-5.16-0.933-7.744-1.493C240.519,240.115,240.616,239.313,240.712,238.506z"/>
<path fill="#010101" d="M272.005,164.854c-4.115,0-8.23,0-12.354,0c-0.277-0.367-0.552-0.73-0.828-1.101
	c1.531-1.147,3.218-3.421,4.554-3.231c3.269,0.463,6.376,2.061,9.551,3.203C272.618,164.104,272.31,164.478,272.005,164.854z"/>
<path fill="#010101" d="M305.309,202.247c-4.766-7.971-4.442-10.647,0-13.566C305.309,192.987,305.309,197.614,305.309,202.247z"/>
<path fill="#010101" d="M356.406,409.418c-10.233,5.921-20.704,7.156-32.908,4.357C335.051,412.246,345.507,410.862,356.406,409.418
	z"/>
<path fill="#010101" d="M130.431,67.032c-9.678,0.145-16.943,4.039-22.533,11.296c-0.622-0.445-1.24-0.892-1.862-1.341
	c0.791-1.585,1.244-3.519,2.436-4.695C115.244,65.602,123.868,63.401,130.431,67.032z"/>
<path fill="#010101" d="M355.444,77.353c5.403-10.034,2.162-16.677-4.95-22.457c5.826,0.608,9.561,4.438,10.768,10.511
	C362.417,71.191,361.271,74.364,355.444,77.353z"/>
<path fill="#010101" d="M350.627,45.656c10.977,2.107,18.091,7.512,24.785,15.415C367.04,55.865,359.483,51.158,350.627,45.656z"/>
<path fill="#FFFFFF" d="M232.596,212.27c10.87,6.417,21.078,4.714,30.861-2.209c0.536,0.497,1.075,0.998,1.6,1.496
	c-3.448,6.138-6.1,12.962-10.596,18.209c-3.975,4.648-14.633,1.335-17.95-4.845c-1.895-3.532-3.135-7.409-4.666-11.137
	C232.091,213.277,232.345,212.771,232.596,212.27z"/>
</svg>
