<?xml version="1.0" encoding="utf-8"?>
<!-- Generator: Adobe Illustrator 16.0.0, SVG Export Plug-In . SVG Version: 6.00 Build 0)  -->
<!DOCTYPE svg PUBLIC "-//W3C//DTD SVG 1.1//EN" "http://www.w3.org/Graphics/SVG/1.1/DTD/svg11.dtd">
<svg version="1.1" id="Layer_1" xmlns="http://www.w3.org/2000/svg" xmlns:xlink="http://www.w3.org/1999/xlink" x="0px" y="0px"
	 width="150px" height="150px" viewBox="0 0 150 150" enable-background="new 0 0 150 150" xml:space="preserve">
<path fill="#FFFFFF" d="M66.601,74.026c0.888,0.312,1.763,0.67,2.666,0.926c3.825,1.083,7.417,2.666,10.657,4.984
	c1.102,0.787,0.99,1.774-0.26,2.372c-0.654,0.313-1.381,0.562-2.1,0.646c-3.887,0.455-6.469,2.816-8.651,5.793
	c-0.217,0.297-0.407,0.613-0.629,0.905c-1.398,1.838-1.772,1.722-3.77,0.688c-3.044-1.575-6.277-2.782-9.371-4.269
	c-2.989-1.437-5.904-3.026-8.463-4.349c2.153,1.967,1.426,4.85,0.894,7.955c-2.511-1.455-4.992-1.25-7.5-0.366
	c-1.339,0.472-2.68,1.045-4.067,1.245c-1.232,0.178-2.537-0.045-3.791-0.221c-0.224-0.031-0.563-0.738-0.499-1.066
	c0.262-1.354,0.659-2.686,1.013-4.047c1.984,1.322,4.168,2.636,6.851,2.496c0.033-0.111,0.067-0.225,0.1-0.338
	C39.086,87.219,38.5,87,37.894,86.9c-5.602-0.927-12.114-7.998-10.301-15.264c0.476-1.908,1.832-3.696,3.103-5.284
	c1.824-2.279,3.809-4.469,5.962-6.436c3.478-3.176,7.756-5.104,12.175-6.482c2.259-0.705,4.831-0.351,7.242-0.641
	c3.385-0.408,6.556,0.322,9.697,1.448c3.746,1.342,7.536,2.565,11.25,3.985c2.061,0.788,4.006,1.873,6.045,2.844
	c-0.226,0.895-0.226,0.895-2.828,0.369c2.059,1.001,3.853,2.251,4.648,4.616c-5.625-0.117-5.625-0.117-10.696,2.417
	c0.115-2.112,2.902-4.051,6.276-4.367c-3.42-1.441-7.693,2.84-7.832,7.844c1.008-2.774,4.372-5.15,7.355-5.335
	c5.282-0.328,8.943,2.29,11.844,6.354c0.611,0.859,1.188,1.742,1.836,2.697c-1.688,1.627-1.43,3.42-0.258,5.188
	c0.219,0.33,0.783,0.432,1.188,0.639c0.195-0.453,0.539-0.902,0.553-1.359c0.021-0.676-0.273-1.354-0.293-2.035
	c-0.027-0.956,0.637-1.426,1.442-1.083c5.969,2.53,12.348,3.588,18.553,5.265c0.261,0.07,0.515,0.165,1.154,0.373
	c-1.103,1.089-1.972,2.126-3.015,2.938c-1.949,1.52-3.72,3.136-4.529,5.563c-0.389,1.163-1.34,0.857-2.078,0.641
	c-2.725-0.806-5.423-1.697-8.127-2.57c-7.036-2.273-13.104-6.319-19.125-10.449c-1.438-0.986-3-1.673-4.63-2.361
	c-4.385-1.851-8.532-4.264-12.772-6.456c-0.406-0.209-0.803-0.437-1.204-0.655c-0.06,0.098-0.119,0.196-0.178,0.294
	c2.67,1.516,5.34,3.034,8.01,4.548c-0.03,0.081-0.06,0.162-0.089,0.243c-0.565-0.115-1.13-0.229-1.701-0.34
	c-5.077-0.998-10.149-2-15.22-3c3.006,0.946,6.07,1.629,9.157,2.185C62.521,73.592,64.569,73.768,66.601,74.026z M77.277,81.26
	c-4.991-3.232-10.489-4.182-16.314-3.799c-2.146,0.142-4.311,0.062-6.464-0.004c-0.437-0.015-0.861-0.416-1.292-0.639
	c0.213-0.365,0.426-0.73,0.639-1.098c-0.032-0.051-0.065-0.104-0.097-0.155c-0.434,0.331-0.868,0.662-1.302,0.993
	c0.404,0.391,0.776,0.824,1.225,1.154c0.238,0.176,0.604,0.228,0.917,0.244c1.465,0.072,2.944,0.264,4.396,0.144
	C65.354,77.569,71.539,78.012,77.277,81.26z M41.491,84.352c-2.939-0.377-5.817-0.745-8.258-1.059
	C34.798,84.689,39.684,85.502,41.491,84.352z"/>
<path fill="#FFFFFF" d="M115.057,73.154c-0.588,2.238-1.171,4.479-1.768,6.713c-0.232,0.868-0.801,1.145-1.67,0.92
	c-3.013-0.775-6.028-1.533-9.043-2.302c-0.266-0.067-0.521-0.22-0.787-0.233c-1.683-0.096-2.943-0.468-3.375-2.519
	c-0.139-0.661-1.746-1.365-2.721-1.426c-2.025-0.125-3.335-0.935-4.38-2.652c-0.673-1.106-1.771-1.959-2.706-2.899
	c-1.626-1.635-1.208-4.026,0.84-4.97c3.076-1.42,6.109-2.937,9.198-4.331c2.788-1.257,8.156,0.23,10.039,2.623
	c0.61,0.777,1.308,1.553,2.12,2.093c3.232,2.146,3.869,5.373,3.898,8.892C114.822,73.094,114.939,73.125,115.057,73.154z"/>
<path fill="#FFFFFF" d="M42.004,93.424c0.313-1.319,0.496-2.396,0.849-3.416c0.115-0.33,0.718-0.768,1.015-0.711
	c1.371,0.254,2.714,0.664,4.362,1.096c0.251-2.004,0.512-4.094,0.795-6.359c1.153,0.547,2.226,1.125,3.351,1.575
	c2.935,1.175,5.919,2.229,8.829,3.462c1.383,0.587,2.759,1.322,3.918,2.262c1.046,0.848,1.864,0.646,2.67-0.051
	c0.684-0.59,1.256-1.334,1.78-2.078c1.431-2.031,1.467-2.068,3.917-1.678c-0.346-0.396-0.692-0.79-1.188-1.355
	c1.153-0.974,2.387-1.869,4.003-2.225c1.771-0.388,3.669-0.477,5.03-1.971c0.127-0.139,0.699-0.063,0.906,0.105
	c0.344,0.28,0.654,0.682,0.811,1.096c1.889,5.053,0.878,10.326-5.494,11.721c-9.223,2.018-18.41,1.521-27.606-0.121
	C47.299,94.301,44.638,93.871,42.004,93.424z M53.075,88.094c4.907,4.324,6.804,5.392,8.898,4.953
	C58.187,92.963,56.558,89.161,53.075,88.094z"/>
<path fill="#FFFFFF" d="M132.627,89.631c-0.76,1.434-2.037,1.399-3.24,1.451c-1.18,0.051-2.363,0.012-3.58,0.252
	c1.361,0.16,2.725,0.32,4.232,0.498c-1.166,1.168-2.547,0.979-3.726,0.783c-2.196-0.361-4.338-1.045-6.508-1.57
	c-1.015-0.244-2.032-0.519-3.063-0.631c-2-0.22-4.011-0.328-6.015-0.498c-0.21-0.019-0.411-0.147-0.964-0.357
	c0.98-0.951,1.79-1.768,2.633-2.547c1.143-1.057,2.375-2.021,3.441-3.146c0.602-0.633,1.121-0.847,1.916-0.523
	c0.859,0.35,1.588,0.152,2.449-0.291c2.653-1.366,5.496-1.457,8.36-0.955c0.056,0.174,0.11,0.348,0.165,0.521
	c-1.395,0.566-2.789,1.134-4.014,1.63c1.412,0.193,2.885,0.334,4.33,0.609c1.381,0.265,2.895,0.313,3.939,1.371
	c-0.048,0.158-0.097,0.318-0.146,0.477c-1.703-0.133-3.407-0.265-5.111-0.396c1.982,1.031,4.387,0.408,6.557,1.801
	c-2.176,1.513-4.26,0.965-6.33,0.967C129.475,89.254,130.994,89.436,132.627,89.631z"/>
<path fill="#FFFFFF" d="M29.165,90.659c-0.516-0.085-1.036-0.26-1.546-0.231c-0.569,0.029-1.329,0.725-1.464-0.367
	c-0.035-0.278,0.764-0.659,1.248-1.049c-0.426-0.032-1.014-0.079-1.725-0.135c0.076-1.17,0.717-1.049,1.702-0.307
	c-0.645-1.699-1.556-0.939-2.539-0.717c-0.039-0.461-0.229-0.956-0.061-1.233c0.151-0.249,0.733-0.418,1.062-0.344
	c0.984,0.222,2.308,0.091,2.113,1.821c-0.043,0.389,0.504,0.844,0.912,1.154c-0.185-0.808-0.37-1.613-0.613-2.679
	c-0.856-0.312-1.997-0.725-3.415-1.239c0.359-0.447,0.65-1.127,0.97-1.142c0.557-0.024,1.394,0.199,1.648,0.606
	c0.588,0.949,1.171,1.021,2.232,0.886c1.478-0.188,2.563,0.401,1.648,2.153c-0.37,0.707-0.781,1.393-1.207,2.147
	c3.871,2.888,7.699,0.576,11.529-0.458c0.633,1.42-0.128,2.051-1.161,2.166c-2.681,0.299-5.378,0.477-8.073,0.604
	c-1.09,0.052-2.192-0.15-3.289-0.242c-0.319-0.026-0.685,0.012-0.941-0.133c-0.268-0.152-0.431-0.492-0.639-0.748
	c0.295-0.092,0.587-0.229,0.889-0.258c0.18-0.017,0.375,0.139,0.564,0.217C29.061,90.977,29.113,90.818,29.165,90.659z"/>
<path fill="#FFFFFF" d="M103.748,92.957c-1.973,0.483-2.918-0.703-3.866-1.885c-0.121,0.03-0.242,0.059-0.363,0.088
	c0.093,0.741,0.185,1.481,0.274,2.213c-1.12-0.248-1.922-1.188-1.608-2.152c0.127-0.393,0.813-0.9,1.197-0.861
	C101.056,90.528,102.474,91.428,103.748,92.957z"/>
<path fill="#FFFFFF" d="M127.707,83.965c1.623-1.234,4.213-0.594,5.213,1.287C131.146,84.813,129.511,84.409,127.707,83.965z"/>
<path fill="#FFFFFF" d="M94.496,76.155c0,1.544,0,2.988,0,4.563c-1.016-0.418-1.269-1.328-1.371-2.234
	C93.013,77.476,93.361,76.623,94.496,76.155z"/>
<path fill="#FFFFFF" d="M113.541,80.98c0.697-1.503,0.697-1.503,3.328-0.623C115.899,81.813,115.466,81.902,113.541,80.98z"/>
<path fill="#FFFFFF" d="M94.031,74.99c2.736-0.227,3.676,0.191,3.991,1.875c-1.421-0.525-2.776-1.027-4.131-1.531
	C93.938,75.219,93.984,75.104,94.031,74.99z"/>
<path fill="#FFFFFF" d="M86.31,67.603c-0.426-0.868-0.851-1.736-1.319-2.694c1.981-0.143,2.09,0.038,1.748,2.472
	C86.595,67.455,86.453,67.528,86.31,67.603z"/>
<path fill="#FFFFFF" d="M88.209,87.537c0.312-0.471,0.647-1.353,0.929-1.335c0.782,0.05,1.542,0.472,2.312,0.745
	c-0.021,0.143-0.043,0.285-0.063,0.428c-0.935,0.172-1.866,0.342-2.8,0.514C88.459,87.771,88.334,87.654,88.209,87.537z"/>
<path fill="#FFFFFF" d="M28.641,84.629c-0.832-0.514-1.633-1.006-2.81-1.73c0.765-0.18,1.404-0.551,1.778-0.369
	C28.436,82.924,29.033,83.639,28.641,84.629z"/>
<path fill="#FFFFFF" d="M97.55,89.58c-2.285,0.606-3.185,0.229-3.108-1.257C95.525,88.762,96.537,89.172,97.55,89.58z"/>
<path fill="#FFFFFF" d="M30.348,82.943c0.286,0.618,0.572,1.236,0.858,1.855c-0.096,0.119-0.192,0.24-0.289,0.359
	c-0.546-0.262-1.224-0.413-1.58-0.835c-0.155-0.185,0.346-0.923,0.549-1.409C30.04,82.924,30.194,82.934,30.348,82.943z"/>
<path fill="#FFFFFF" d="M120.17,82.258c-1.414,1.125-2.609,0.922-3.453-0.545C117.877,81.896,118.91,82.06,120.17,82.258z"/>
<path d="M77.277,81.26c-5.739-3.248-11.922-3.69-18.292-3.158c-1.452,0.121-2.931-0.07-4.396-0.145
	c-0.313-0.017-0.679-0.068-0.917-0.242c-0.448-0.332-0.82-0.766-1.225-1.155c0.434-0.331,0.868-0.662,1.302-0.993
	c0.032,0.052,0.065,0.104,0.097,0.156c-0.213,0.365-0.426,0.73-0.639,1.097c0.431,0.224,0.855,0.624,1.292,0.638
	c2.154,0.065,4.318,0.146,6.464,0.006C66.788,77.08,72.287,78.027,77.277,81.26z"/>
<path d="M41.491,84.352c-1.807,1.148-6.693,0.338-8.258-1.059C35.674,83.606,38.552,83.975,41.491,84.352z"/>
<path d="M66.601,74.026c-2.032-0.259-4.08-0.435-6.093-0.796c-3.087-0.555-6.15-1.238-9.157-2.185c5.071,1.001,10.143,2.003,15.22,3
	C66.578,74.043,66.601,74.026,66.601,74.026z"/>
<path d="M53.075,88.094c3.482,1.066,5.112,4.869,8.898,4.953C59.878,93.485,57.981,92.418,53.075,88.094z"/>
<path fill="#FFFFFF" d="M9.835,91.519"/>
<path d="M9.835,91.519"/>
<path d="M9.79,91.48"/>
<path d="M68.716,74.516c0.052,0.011,0.104,0.021,0.157,0.032c-0.044-0.016-0.088-0.033-0.133-0.048L68.716,74.516z"/>
<g>
	<path d="M37.869,92.583h0.49c0.66,0.01,1.31-0.08,2-0.19C39.529,92.463,38.699,92.532,37.869,92.583z M79.698,95.373
		c-0.159,0.04-0.329,0.069-0.489,0.1c0.41-0.06,0.81-0.13,1.22-0.2c1.59-0.27,2.97-1.189,3.94-2.439
		C83.349,94.013,81.818,94.913,79.698,95.373z M104.299,93.442c-0.98-0.27-1.63-1.09-2.28-1.899c-0.12,0.029-0.24,0.06-0.36,0.09
		c0.08,0.68,0.16,1.35,0.25,2.02c0.12,0,0.25-0.02,0.37-0.04c-0.14-0.31-0.27-0.609-0.449-1.029
		C102.749,93.063,103.579,93.343,104.299,93.442z M116.379,90.663c0.05,0.01,0.09,0.01,0.13,0.02c0.17,0.03,0.35,0.03,0.53,0.03
		C116.818,90.683,116.599,90.673,116.379,90.663z M121.948,91.513c-0.21-0.05-0.43-0.1-0.64-0.15c2.07,0.95,4.21,1.49,6.42,1.591
		C125.778,92.572,123.879,91.982,121.948,91.513z M131.528,91.553c-1.18,0.05-2.359,0.01-3.58,0.25c1.171,0.14,2.341,0.28,3.61,0.43
		c0.25-0.149,0.49-0.319,0.71-0.49c0.11-0.079,0.21-0.159,0.311-0.25C132.229,91.532,131.879,91.543,131.528,91.553z
		 M130.099,89.543c1.35,0.16,2.71,0.33,4.16,0.5c0.27-0.25,0.54-0.511,0.81-0.761C133.379,89.883,131.738,89.543,130.099,89.543z
		 M30.119,92.223c0.07,0.07,0.14,0.13,0.22,0.17c0.25,0.15,0.62,0.11,0.94,0.14c1.09,0.091,2.19,0.29,3.29,0.24
		c1.1-0.05,2.2-0.109,3.3-0.189C35.279,92.572,32.659,92.583,30.119,92.223z M40.369,92.393c0.67-0.06,1.33-0.12,2-0.189
		c0.03-0.051,0.05-0.11,0.07-0.16C41.719,92.152,41.029,92.282,40.369,92.393z M70.619,96.482c-1.45,0.13-2.88,0.2-4.31,0.2
		c4.29,0.05,8.58-0.31,12.87-1.21C76.349,95.913,73.479,96.203,70.619,96.482z M85.809,85.813c-0.02,0.63-0.02,1.21,0.061,1.79
		c0.229,1.83-0.341,3.72-1.471,5.18C85.988,90.942,86.339,88.423,85.809,85.813z M91.499,87.833c-0.44,0.04-0.801,0.08-1.091,0.08
		c-0.02,0.029-0.039,0.069-0.06,0.1c0.12,0.11,0.25,0.229,0.37,0.35c0.74-0.13,1.47-0.27,2.2-0.399
		C92.448,87.833,91.929,87.793,91.499,87.833z M97.869,90.152c-0.32-0.05-0.65-0.109-0.961-0.16c0.301,0.29,0.79,0.391,1.521,0.311
		C98.269,90.232,98.089,90.192,97.869,90.152z M101.908,93.652c-0.18,0.03-0.35,0.03-0.51,0c0.17,0.09,0.34,0.15,0.53,0.19
		C101.919,93.782,101.908,93.713,101.908,93.652z M105.809,93.343c-0.42,0.14-0.93,0.18-1.51,0.1c0.45,0.13,0.97,0.141,1.59-0.01
		C105.858,93.402,105.839,93.373,105.809,93.343z M114.959,90.553c0.43,0.03,0.859,0.06,1.3,0.1
		C115.818,90.583,115.389,90.553,114.959,90.553z M121.198,91.313c-0.88-0.399-1.93-0.47-2.909-0.609c-0.41-0.061-0.83,0-1.25,0.01
		c0.609,0.05,1.229,0.1,1.84,0.17c0.819,0.09,1.62,0.28,2.43,0.479C121.269,91.343,121.238,91.333,121.198,91.313z M131.559,92.232
		c-0.61,0.37-1.3,0.66-1.939,0.7c-0.641,0.04-1.271,0.05-1.891,0.021c0.24,0.05,0.49,0.09,0.73,0.13c1.17,0.199,2.56,0.39,3.72-0.78
		C131.969,92.272,131.759,92.253,131.559,92.232z M134.259,90.043c-0.55,0.5-1.101,0.989-1.68,1.449
		c0.85-0.1,1.649-0.369,2.189-1.39C134.599,90.083,134.429,90.063,134.259,90.043z M136.049,88.362c-0.33,0.301-0.66,0.61-0.98,0.92
		c0.45-0.159,0.9-0.39,1.36-0.699C136.299,88.503,136.179,88.423,136.049,88.362z M116.879,73.542c-0.04,0.7-0.12,1.4-0.21,2.11
		c0.17-0.68,0.35-1.35,0.529-2.03C117.089,73.593,116.988,73.573,116.879,73.542z M108.759,92.322c0.59,0.181,1.26,0.311,1.66-0.31
		C109.929,92.192,109.369,92.272,108.759,92.322z"/>
	<path d="M11.188,100.813l-0.09-0.54l0.11-6.439C11.509,96.782,11.809,100.902,11.188,100.813z"/>
	<path d="M144.948,99.992v1.101c-4.22-0.11-8.439-0.28-12.659-0.33c-10.75-0.11-21.49-0.23-32.24-0.22
		c-6.28,0.01-12.57,0.34-18.851,0.39c-5.419,0.05-10.839-0.18-16.25-0.12c-11.71,0.11-23.41,0.351-35.12,0.5
		c-5.46,0.07-10.92,0.061-16.38,0.09h-1.6c-0.02-0.149-0.05-0.29-0.08-0.439c0.39-0.09,0.77-0.25,1.16-0.25
		c7.57-0.12,15.14-0.25,22.71-0.311c4.49-0.029,8.99,0.141,13.48,0.09c8.31-0.1,16.62-0.34,24.93-0.439
		c6.1-0.08,12.21-0.05,18.32-0.04c13.039,0.01,26.069,0.03,39.109,0.07c3.811,0.01,7.62,0.09,11.43,0.109
		C143.589,100.192,144.269,100.063,144.948,99.992z"/>
	<path d="M136.339,87.232c-0.2-0.13-0.26-0.46-0.38-0.689c-0.94-1.75-1.74-3.65-4.12-3.88c-0.07,0-0.141-0.11-0.21-0.16
		c-0.07-1.53-0.48-2.011-2.04-2.15c-2.271-0.22-4.48-0.02-6.65,0.79c-0.74,0.28-1.609,0.24-2.7,0.38
		c0.641-1.439,0.24-1.819-0.89-1.89c-1.12-0.061-2.22-0.391-3.41-0.61c0.23-0.91,0.48-1.649,0.59-2.41
		c0.051-0.319,0.101-0.64,0.141-0.96c-0.41,1.561-0.82,3.13-1.24,4.69c-0.23,0.87-0.8,1.14-1.67,0.92c-3.01-0.78-6.03-1.54-9.04-2.3
		c-0.271-0.07-0.521-0.221-0.79-0.24c-1.68-0.09-2.94-0.47-3.37-2.52c-0.14-0.66-1.75-1.36-2.729-1.42
		c-2.021-0.13-3.33-0.93-4.381-2.65c-0.67-1.11-1.77-1.96-2.699-2.9c-1.63-1.64-1.21-4.03,0.84-4.97c3.069-1.42,6.109-2.94,9.2-4.33
		c2.779-1.26,8.149,0.23,10.04,2.62c0.609,0.78,1.3,1.55,2.119,2.09c3.23,2.15,3.86,5.37,3.891,8.89c0.01,0,0.03,0.01,0.04,0.01
		c0.3-3.93-0.311-7.62-4-10.49c-0.19-0.14-0.08-0.67-0.12-1.14c-1.18-0.22-2.16-0.97-2.5-1.91c-0.69-0.12-1.07-0.09-1.33-0.25
		c-2.25-1.38-4.68-2.28-7.31-1.9c-4.4,0.63-8.41,2.17-11.69,5.36c-0.59,0.58-1.82,0.57-2.78,0.66c-0.77,0.08-1.109-0.55-0.85-1.19
		c0.6-1.49-0.34-1.97-1.41-2.43c-3.05-1.3-6.09-2.66-9.17-3.89c-3.2-1.27-6.41-2.48-9.67-3.56c-1.62-0.54-3.34-0.91-5.05-1.04
		c-1.82-0.14-3.67,0-5.5,0.17c-2.49,0.23-5.06-0.01-7.42,1.2c-2.24,1.15-4.56,2.15-6.76,3.35c-5.3,2.89-8.69,7.61-11.97,12.47
		c-1.13,1.67-1.35,3.36-1.12,5.21c0.2,1.66,0.49,3.32,0.75,5.06c-0.27,0.07-0.59,0.25-0.87,0.21c-2.02-0.31-3.41,0.82-4.89,1.94
		c-3.76,2.859-7.61,5.6-11.41,8.409c-0.39,0.29-0.62,0.771-0.93,1.16c0,0,0.16,1.271,0.33,2.891l0.04-2.57
		c0.02,0.01,0.03,0.02,0.05,0.04c0-0.01,0-0.01,0.01-0.01c0-0.011,0.01-0.011,0.02-0.021c4.06-2.96,8.26-5.76,12.11-8.979
		c1.65-1.37,3.19-2.25,5.27-2.41c0.88-0.061,1.27,0.149,1.35,1c-0.42,0.21-0.77,0.52-1.15,0.57c-1.74,0.22-2.43,1.67-3.02,2.89
		c-0.63,1.31-0.8,2.89,0.54,4.149c0.26,0.25,0.19,0.841,0.44,1.11c0.9,0.93,1.79,2.39,2.85,2.561c0.13,0.02,0.26,0.04,0.4,0.06
		c-0.15-0.17-0.28-0.39-0.42-0.57c0.29-0.1,0.58-0.229,0.89-0.26c0.18-0.02,0.37,0.14,0.56,0.21c0.05-0.149,0.1-0.31,0.15-0.47
		c-0.51-0.09-1.03-0.26-1.54-0.23c-0.57,0.03-1.33,0.721-1.46-0.37c-0.04-0.279,0.76-0.659,1.24-1.05
		c-0.42-0.029-1.01-0.08-1.72-0.13c0.07-1.17,0.72-1.05,1.7-0.31c-0.64-1.7-1.56-0.94-2.54-0.71c-0.04-0.471-0.23-0.96-0.06-1.24
		c0.15-0.25,0.73-0.41,1.06-0.34c0.99,0.22,2.31,0.09,2.12,1.819c-0.05,0.391,0.5,0.841,0.91,1.15c-0.19-0.8-0.37-1.61-0.62-2.67
		c-0.85-0.311-1.99-0.73-3.41-1.24c0.36-0.45,0.65-1.13,0.97-1.149c0.56-0.021,1.39,0.199,1.65,0.609
		c0.58,0.95,1.17,1.021,2.23,0.891c1.48-0.19,2.56,0.399,1.65,2.149c-0.37,0.71-0.78,1.391-1.21,2.15
		c3.87,2.89,7.7,0.569,11.53-0.46c0.63,1.42-0.13,2.05-1.16,2.17c-0.09,0.01-0.18,0.02-0.27,0.03c-0.17,0.439-0.31,0.77-0.53,1.3
		c2.31,0.42,4.46,0.84,6.62,1.2c5.87,0.979,11.74,1.979,17.69,1.979c-4.69-0.06-9.37-0.59-14.06-1.43
		c-2.65-0.48-5.31-0.91-7.95-1.36c0.32-1.32,0.5-2.39,0.85-3.41c0.12-0.33,0.72-0.77,1.02-0.71c1.37,0.25,2.71,0.66,4.36,1.09
		c0.25-2,0.51-4.09,0.8-6.359c1.15,0.55,2.22,1.13,3.35,1.58c2.93,1.17,5.92,2.229,8.83,3.46c1.38,0.59,2.75,1.319,3.91,2.26
		c1.05,0.85,1.87,0.65,2.67-0.05c0.69-0.59,1.26-1.33,1.78-2.08c1.43-2.03,1.47-2.07,3.92-1.67c-0.35-0.4-0.69-0.79-1.19-1.36
		c1.16-0.97,2.39-1.87,4.01-2.22c1.761-0.391,3.66-0.48,5.03-1.98c0.12-0.13,0.7-0.06,0.9,0.11c0.35,0.28,0.66,0.68,0.81,1.1
		c0.271,0.721,0.48,1.45,0.62,2.16c0.01-0.53,0.04-1.109,0.04-1.729c1.3,0.59,2.45,1.109,3.61,1.64
		c-0.32,1.83-0.271,2.24,0.949,2.19c0.301-0.49,0.61-1.261,0.87-1.24c0.78,0.05,1.54,0.47,2.311,0.75
		c-0.021,0.14-0.04,0.28-0.07,0.43c-0.2,0.04-0.399,0.07-0.6,0.11c0.41,0.109,0.779,0.3,1.01,0.55c0.86,0.96,1.9,1.27,2.979,1.47
		c-0.25-0.26-0.359-0.649-0.329-1.189c1.09,0.439,2.1,0.85,3.109,1.26c-0.479,0.12-0.899,0.21-1.26,0.25
		c0.42,0.15,0.63,0.439,0.71,1.09c0.17,1.35,1.05,2.18,2.26,2.26c-0.83-0.37-1.34-1.149-1.08-1.96c0.13-0.39,0.82-0.899,1.2-0.859
		c1.64,0.17,3.03,1.029,4.29,2.51c0.47-0.15,0.83-0.42,1.07-0.8c0.649-0.11,1.29-0.16,1.88-0.221c-0.08-0.01-0.16-0.04-0.23-0.06
		c-2.729-0.8-5.43-1.69-8.13-2.57c-7.04-2.27-13.1-6.319-19.12-10.45c-1.439-0.979-3-1.67-4.63-2.359
		c-4.39-1.85-8.54-4.26-12.78-6.45c-0.4-0.21-0.8-0.44-1.2-0.66c-0.06,0.1-0.12,0.2-0.18,0.3c2.67,1.51,5.34,3.03,8.01,4.54
		c-0.03,0.08-0.06,0.16-0.09,0.25c-0.51-0.11-1.02-0.21-1.54-0.32c0.85,0.31,1.68,0.64,2.54,0.88c3.82,1.09,7.41,2.67,10.65,4.99
		c1.11,0.779,1,1.77-0.25,2.369c-0.66,0.311-1.39,0.561-2.1,0.641c-3.891,0.46-6.47,2.819-8.66,5.8c-0.21,0.29-0.4,0.61-0.62,0.9
		c-1.4,1.84-1.78,1.729-3.77,0.689c-3.05-1.57-6.28-2.78-9.38-4.27c-2.98-1.431-5.9-3.021-8.46-4.351
		c2.15,1.971,1.43,4.851,0.9,7.96c-2.52-1.46-5-1.25-7.5-0.37c-1.34,0.48-2.68,1.051-4.07,1.25c-1.23,0.181-2.54-0.05-3.79-0.22
		c-0.23-0.03-0.56-0.74-0.5-1.07c0.26-1.35,0.66-2.68,1.01-4.05c1.99,1.33,4.17,2.641,6.85,2.5c0.04-0.109,0.07-0.22,0.1-0.34
		c-0.59-0.16-1.18-0.38-1.79-0.479c-5.6-0.931-12.11-8-10.3-15.26c0.48-1.91,1.84-3.7,3.11-5.29c1.82-2.28,3.8-4.47,5.96-6.43
		c3.48-3.18,7.76-5.11,12.17-6.49c2.26-0.7,4.83-0.35,7.25-0.64c3.38-0.4,6.55,0.33,9.69,1.45c3.75,1.34,7.54,2.57,11.25,3.99
		c2.061,0.78,4.011,1.87,6.051,2.84c-0.23,0.9-0.23,0.9-2.83,0.37c2.06,1,3.85,2.25,4.649,4.62c-5.63-0.12-5.63-0.12-10.7,2.41
		c0.121-2.11,2.9-4.05,6.28-4.36c-3.42-1.45-7.7,2.84-7.83,7.84c1-2.77,4.37-5.15,7.35-5.34c5.279-0.32,8.95,2.29,11.85,6.36
		c0.61,0.86,1.18,1.74,1.83,2.7c-1.689,1.62-1.43,3.41-0.26,5.18c0.22,0.33,0.79,0.44,1.189,0.641c0.2-0.45,0.54-0.9,0.551-1.36
		c0.02-0.67-0.271-1.35-0.29-2.03c-0.03-0.96,0.64-1.43,1.439-1.09c5.97,2.54,12.351,3.59,18.561,5.271
		c0.26,0.069,0.51,0.16,1.149,0.37c-1.1,1.09-1.97,2.13-3.02,2.939c-1.95,1.521-3.71,3.141-4.521,5.561
		c-0.05,0.159-0.109,0.29-0.189,0.39c0.18-0.06,0.359-0.15,0.52-0.25c1.311-0.84,2.61-1.2,3.99-1.21c-0.69-0.05-1.37-0.1-2.06-0.16
		c-0.211-0.02-0.41-0.15-0.961-0.36c0.98-0.949,1.79-1.77,2.631-2.55c1.14-1.05,2.369-2.02,3.439-3.149
		c0.601-0.63,1.12-0.841,1.92-0.521c0.86,0.351,1.58,0.15,2.45-0.29c2.65-1.37,5.49-1.46,8.36-0.96c0.05,0.18,0.109,0.351,0.16,0.53
		c-1.391,0.56-2.79,1.13-4.011,1.63c1.41,0.19,2.88,0.33,4.33,0.6c1.38,0.271,2.891,0.32,3.94,1.381
		c-0.05,0.149-0.101,0.31-0.15,0.47c-1.7-0.13-3.41-0.26-5.109-0.4c1.869,0.98,4.109,0.48,6.18,1.59
		c0.05-0.05,0.109-0.109,0.17-0.159c0.22,0.149,0.4,0.279,0.59,0.399c2.48,1.64,4.97,3.271,7.46,4.91v-1.11
		C141.619,90.683,138.969,88.973,136.339,87.232z M32.029,83.383c0.15,0.01,0.3,0.02,0.46,0.03c0.28,0.619,0.57,1.239,0.86,1.859
		c-0.1,0.12-0.2,0.24-0.29,0.36c-0.55-0.26-1.23-0.41-1.58-0.84C31.319,84.612,31.819,83.873,32.029,83.383z M30.779,85.103
		c-0.83-0.51-1.63-1.01-2.81-1.729c0.77-0.181,1.4-0.551,1.78-0.37C30.579,83.402,31.168,84.112,30.779,85.103z M88.879,67.853
		c-0.15,0.07-0.29,0.15-0.431,0.22c-0.43-0.87-0.85-1.73-1.319-2.69C89.108,65.243,89.219,65.423,88.879,67.853z M96.639,81.192
		c-1.02-0.42-1.27-1.33-1.38-2.239c-0.11-1,0.24-1.86,1.38-2.32V81.192z M96.028,75.803c0.051-0.109,0.091-0.23,0.141-0.34
		c2.739-0.23,3.68,0.189,3.989,1.88C98.738,76.813,97.389,76.313,96.028,75.803z M115.679,81.453c0.7-1.5,0.7-1.5,3.33-0.62
		C118.039,82.282,117.608,82.373,115.679,81.453z M118.858,82.183c1.16,0.19,2.19,0.35,3.45,0.55
		C120.898,83.853,119.698,83.652,118.858,82.183z M129.849,84.433c1.62-1.229,4.21-0.59,5.21,1.29
		C133.289,85.282,131.648,84.883,129.849,84.433z"/>
</g>
<path d="M142.188,92.594c0.094,0-0.313,7.75-0.313,7.75l0.875,0.125l0.06-7.844L142.188,92.594z"/>
</svg>
