<?xml version="1.0" encoding="utf-8"?>
<!-- Generator: Adobe Illustrator 16.0.0, SVG Export Plug-In . SVG Version: 6.00 Build 0)  -->
<!DOCTYPE svg PUBLIC "-//W3C//DTD SVG 1.1//EN" "http://www.w3.org/Graphics/SVG/1.1/DTD/svg11.dtd">
<svg version="1.1" id="Layer_1" xmlns="http://www.w3.org/2000/svg" xmlns:xlink="http://www.w3.org/1999/xlink" x="0px" y="0px"
	 width="150px" height="150px" viewBox="0 0 150 150" enable-background="new 0 0 150 150" xml:space="preserve">
<g>
	<path fill-rule="evenodd" clip-rule="evenodd" fill="#FFFFFF" d="M126.542,145.938c-34.291,0-68.582,0-102.873,0
		c0-47.444,0-94.889,0-142.333c34.291,0,68.582,0,102.873,0C126.542,51.05,126.542,98.494,126.542,145.938z M65.427,112.561
		c-0.15,0.019-0.303,0.045-0.457,0.058c-1.614,0.124-3.213,0.354-4.79,0.718c-0.923,0.214-1.833,0.484-2.755,0.704
		c-2.254,0.538-4.365,1.431-6.398,2.527c-0.136,0.073-0.302,0.089-0.445,0.153c-0.25,0.113-0.547,0.19-0.73,0.375
		c-0.691,0.697-0.958,1.539-0.702,2.511c0.072,0.271,0.183,0.532,0.262,0.801c0.388,1.313,1.297,2.181,2.438,2.847
		c1.865,1.089,3.933,1.588,6.018,2.006c1.324,0.265,2.669,0.428,4.007,0.621c1.078,0.156,2.155,0.333,3.239,0.423
		c1.96,0.163,3.926,0.257,5.888,0.398c2.864,0.207,5.726,0.118,8.588-0.036c0.613-0.033,1.231-0.039,1.84-0.119
		c1.026-0.136,2.041-0.371,3.07-0.476c2.163-0.22,4.249-0.764,6.327-1.365c1.271-0.367,2.463-0.934,3.664-1.471
		c0.918-0.411,1.798-0.942,2.405-1.757c1.041-1.394,0.975-2.289-0.201-3.366c-0.153-0.141-0.338-0.249-0.515-0.361
		c-0.414-0.264-0.828-0.529-1.25-0.78c-0.92-0.549-1.813-1.159-2.776-1.617c-1.46-0.693-2.999-1.201-4.574-1.582
		c-0.547-0.132-1.101-0.231-1.65-0.349c-1.324-0.281-2.652-0.533-4.008-0.606c-0.234-0.013-0.466-0.068-0.743-0.111
		c0.061-0.206,0.098-0.337,0.139-0.467c0.391-1.258,0.809-2.508,1.162-3.775c0.188-0.674,0.285-1.375,0.389-2.069
		c0.214-1.43,0.288-2.867,0.172-4.311c-0.049-0.595-0.229-1.199-0.162-1.777c0.069-0.596,0.401-1.156,0.556-1.748
		c0.104-0.398,0.106-0.825,0.14-1.24c0.018-0.222,0.003-0.446,0.003-0.676c0.172-0.05,0.286-0.088,0.402-0.117
		c0.426-0.108,0.856-0.199,1.277-0.323c0.417-0.123,0.433-0.178,0.394-0.6c-0.063-0.682-0.125-1.364-0.172-2.047
		c-0.082-1.21-0.156-2.419-0.229-3.629c-0.036-0.59,0-1.161,0.442-1.627c0.094-0.099,0.154-0.234,0.215-0.36
		c0.242-0.498,0.262-0.949-0.14-1.412c-0.233-0.27-0.372-0.634-0.504-0.975c-0.118-0.304-0.053-0.392,0.238-0.533
		c0.41-0.198,0.433-0.257,0.298-0.686c-0.121-0.385-0.268-0.767-0.343-1.161c-0.207-1.087-0.384-2.18-0.567-3.271
		c-0.013-0.078,0.018-0.163,0.03-0.265c0.112-0.008,0.197-0.021,0.281-0.02c0.561,0.016,1.126,0.084,1.683,0.042
		c0.883-0.067,1.749-0.053,2.618,0.138c0.445,0.098,0.913,0.099,1.354-0.073c0.426-0.167,0.784-0.402,0.809-0.931
		c0.006-0.12,0.06-0.238,0.094-0.356c0.351-1.2,0.618-2.417,0.704-3.667c0.035-0.503,0.023-0.504,0.513-0.685
		c0.759-0.279,0.995-0.741,0.752-1.519c-0.067-0.213-0.185-0.415-0.303-0.606c-0.193-0.314-0.426-0.605-0.605-0.926
		c-0.809-1.439-1.599-2.89-2.405-4.33c-1.279-2.286-2.572-4.564-4.297-6.559c-0.191-0.221-0.413-0.455-0.671-0.573
		c-1.143-0.523-2.305-1.005-3.487-1.515c0.077-0.077,0.169-0.174,0.266-0.265c0.396-0.372,0.823-0.716,1.186-1.119
		c0.484-0.54,0.838-1.168,1.056-1.868c0.065-0.212,0.12-0.437,0.44-0.43c1.007,0.021,1.654-0.521,2.019-1.406
		c0.221-0.534,0.396-1.094,0.521-1.658c0.116-0.521,0.085-1.063-0.265-1.512c-0.189-0.244-0.139-0.424,0.013-0.658
		c0.227-0.352,0.459-0.713,0.607-1.102c0.475-1.239,0.773-2.515,0.678-3.86c-0.046-0.649-0.044-1.31-0.335-1.908
		c-0.47-0.963-0.95-1.925-1.689-2.721c-0.622-0.67-1.256-1.327-2.135-1.677c-0.188-0.075-0.382-0.203-0.51-0.359
		c-1.503-1.821-3.563-2.659-5.767-3.143c-1.597-0.351-3.242-0.426-4.863-0.02c-1.122,0.28-2.271,0.475-3.251,1.168
		c-0.929,0.656-1.808,1.341-2.214,2.463c-0.04,0.111-0.134,0.202-0.202,0.302c-0.029-0.017-0.058-0.033-0.087-0.05
		c0.065-0.253,0.131-0.507,0.198-0.767c-0.259-0.092-0.355,0.032-0.42,0.181c-0.062,0.144-0.113,0.295-0.144,0.448
		c-0.029,0.146-0.026,0.299-0.038,0.457c-0.876-0.216-0.876-0.216-1.153,0.053c0.211,0.094,0.405,0.181,0.625,0.279
		c-0.07,0.038-0.099,0.067-0.127,0.067c-1.124,0.006-1.875,0.766-2.629,1.413c-0.824,0.706-1.167,1.745-1.334,2.801
		c-0.083,0.531-0.12,1.1-0.021,1.622c0.216,1.138,0.737,2.149,1.553,2.993c0.143,0.147,0.276,0.304,0.455,0.502
		c-0.798,0.293-0.869,0.942-0.874,1.58c-0.005,0.725,0.167,1.434,0.521,2.071c0.253,0.458,0.57,0.881,0.876,1.307
		c0.321,0.448,0.479,0.473,0.958,0.199c0.072-0.042,0.143-0.085,0.286-0.169c0.381,1.436,1.219,2.57,2.136,3.718
		c-0.175,0.043-0.257,0.065-0.339,0.083c-0.738,0.159-1.492,0.265-2.21,0.486c-1.531,0.472-2.792,1.38-3.826,2.595
		c-1.163,1.366-2.212,2.816-3.121,4.366c-0.187,0.317-0.396,0.623-0.613,0.919c-0.236,0.322-0.536,0.603-0.737,0.944
		c-0.542,0.92-0.981,1.909-1.588,2.782c-0.514,0.739-0.427,1.35,0.03,2.015c0.04,0.058,0.068,0.128,0.12,0.172
		c0.169,0.146,0.174,0.319,0.143,0.525c-0.145,0.97-0.056,1.92,0.205,2.867c0.204,0.741,0.448,1.471,0.48,2.257
		c0.02,0.478,0.277,0.863,0.794,0.994c0.269,0.068,0.533,0.165,0.806,0.207c0.381,0.058,0.774,0.042,1.15,0.12
		c0.8,0.166,1.602,0.199,2.413,0.135c0.18-0.015,0.364,0.009,0.573,0.016c-0.049,0.385-0.085,0.697-0.129,1.008
		c-0.117,0.816-0.25,1.631-0.354,2.448c-0.107,0.852-0.154,1.714-0.518,2.512c-0.011,0.024,0.015,0.065,0.03,0.127
		c0.117,0.037,0.252,0.069,0.379,0.12c0.195,0.077,0.292,0.248,0.188,0.421c-0.187,0.309-0.264,0.682-0.591,0.915
		c-0.524,0.373-0.386,0.699-0.168,1.094c0.051,0.092,0.114,0.178,0.169,0.268c0.419,0.683,0.702,1.38,0.642,2.227
		c-0.114,1.615-0.265,3.219-0.714,4.781c-0.083,0.287-0.013,0.472,0.245,0.625c0.331,0.198,0.665,0.394,1.011,0.562
		c0.236,0.114,0.339,0.256,0.323,0.528c-0.08,1.316,0.113,2.597,0.635,3.809c0.207,0.48,0.23,0.947,0.134,1.439
		c-0.275,1.404-0.132,2.804,0.089,4.192c0.161,1.003,0.413,1.992,0.647,2.982c0.227,0.957,0.495,1.904,0.721,2.861
		C65.395,111.759,65.539,112.13,65.427,112.561z"/>
	<path fill-rule="evenodd" clip-rule="evenodd" d="M65.427,112.561c0.112-0.431-0.033-0.802-0.12-1.171
		c-0.226-0.957-0.494-1.904-0.721-2.861c-0.234-0.99-0.486-1.979-0.647-2.982c-0.222-1.389-0.365-2.788-0.089-4.192
		c0.097-0.492,0.073-0.959-0.134-1.439c-0.522-1.212-0.714-2.492-0.635-3.809c0.016-0.272-0.087-0.414-0.323-0.528
		c-0.346-0.168-0.68-0.363-1.011-0.562c-0.257-0.153-0.327-0.338-0.245-0.625c0.449-1.563,0.6-3.166,0.714-4.781
		c0.06-0.847-0.223-1.544-0.642-2.227c-0.055-0.09-0.118-0.176-0.169-0.268c-0.217-0.395-0.355-0.721,0.168-1.094
		c0.327-0.233,0.404-0.606,0.591-0.915c0.104-0.173,0.007-0.344-0.188-0.421c-0.127-0.051-0.262-0.083-0.379-0.12
		c-0.016-0.062-0.042-0.103-0.03-0.127c0.364-0.798,0.411-1.66,0.518-2.512c0.104-0.817,0.237-1.632,0.354-2.448
		c0.044-0.311,0.08-0.623,0.129-1.008c-0.208-0.007-0.393-0.03-0.573-0.016c-0.811,0.064-1.613,0.031-2.413-0.135
		c-0.375-0.078-0.769-0.063-1.15-0.12c-0.273-0.042-0.537-0.139-0.806-0.207c-0.517-0.131-0.774-0.517-0.794-0.994
		c-0.032-0.786-0.277-1.517-0.48-2.257c-0.261-0.947-0.35-1.897-0.205-2.867c0.031-0.206,0.026-0.379-0.143-0.525
		c-0.052-0.044-0.08-0.115-0.12-0.172c-0.457-0.665-0.544-1.276-0.03-2.015c0.607-0.873,1.045-1.862,1.588-2.782
		c0.201-0.341,0.5-0.622,0.737-0.944c0.218-0.297,0.427-0.602,0.613-0.919c0.909-1.55,1.958-3,3.121-4.366
		c1.034-1.214,2.295-2.123,3.826-2.595c0.718-0.222,1.472-0.327,2.21-0.486c0.083-0.018,0.164-0.04,0.339-0.083
		c-0.917-1.148-1.755-2.282-2.136-3.718c-0.143,0.084-0.214,0.128-0.286,0.169c-0.479,0.273-0.636,0.249-0.958-0.199
		c-0.306-0.426-0.623-0.85-0.876-1.307c-0.353-0.637-0.526-1.346-0.521-2.071c0.005-0.637,0.076-1.287,0.874-1.58
		c-0.178-0.198-0.312-0.354-0.455-0.502c-0.816-0.843-1.337-1.854-1.553-2.993c-0.099-0.522-0.063-1.091,0.021-1.622
		c0.167-1.056,0.51-2.095,1.334-2.801c0.754-0.646,1.506-1.406,2.629-1.413c0.029,0,0.058-0.029,0.127-0.067
		c-0.219-0.098-0.413-0.185-0.625-0.279c0.277-0.269,0.277-0.269,1.153-0.053c0.012-0.157,0.009-0.31,0.038-0.457
		c0.031-0.153,0.082-0.304,0.144-0.448c0.065-0.149,0.161-0.273,0.42-0.181c-0.067,0.26-0.133,0.514-0.198,0.767
		c0.029,0.017,0.058,0.033,0.087,0.05c0.068-0.1,0.162-0.191,0.202-0.302c0.406-1.122,1.285-1.807,2.214-2.463
		c0.981-0.693,2.129-0.888,3.251-1.168c1.621-0.406,3.267-0.331,4.863,0.02c2.203,0.484,4.264,1.322,5.767,3.143
		c0.128,0.156,0.321,0.284,0.51,0.359c0.879,0.35,1.513,1.007,2.135,1.677c0.739,0.796,1.22,1.757,1.689,2.721
		c0.291,0.598,0.289,1.258,0.335,1.908c0.096,1.345-0.203,2.621-0.678,3.86c-0.148,0.388-0.381,0.75-0.607,1.102
		c-0.151,0.234-0.202,0.415-0.013,0.658c0.35,0.449,0.381,0.99,0.265,1.512c-0.125,0.564-0.3,1.124-0.521,1.658
		c-0.364,0.886-1.012,1.427-2.019,1.406c-0.32-0.007-0.375,0.218-0.44,0.43c-0.218,0.7-0.571,1.329-1.056,1.868
		c-0.362,0.403-0.789,0.747-1.186,1.119c-0.097,0.091-0.188,0.188-0.266,0.265c1.183,0.509,2.345,0.992,3.487,1.515
		c0.258,0.118,0.479,0.352,0.671,0.573c1.725,1.994,3.018,4.272,4.297,6.559c0.807,1.44,1.597,2.891,2.405,4.33
		c0.18,0.321,0.412,0.612,0.605,0.926c0.118,0.192,0.235,0.394,0.303,0.606c0.243,0.778,0.007,1.24-0.752,1.519
		c-0.489,0.18-0.478,0.181-0.513,0.685c-0.086,1.25-0.354,2.467-0.704,3.667c-0.034,0.118-0.088,0.236-0.094,0.356
		c-0.024,0.528-0.383,0.764-0.809,0.931c-0.44,0.172-0.908,0.171-1.354,0.073c-0.869-0.19-1.735-0.205-2.618-0.138
		c-0.557,0.042-1.122-0.026-1.683-0.042c-0.084-0.002-0.169,0.012-0.281,0.02c-0.013,0.102-0.043,0.187-0.03,0.265
		c0.184,1.092,0.36,2.185,0.567,3.271c0.075,0.395,0.222,0.776,0.343,1.161c0.135,0.429,0.112,0.487-0.298,0.686
		c-0.291,0.142-0.356,0.229-0.238,0.533c0.132,0.341,0.271,0.705,0.504,0.975c0.401,0.463,0.382,0.914,0.14,1.412
		c-0.061,0.126-0.121,0.262-0.215,0.36c-0.442,0.466-0.479,1.037-0.442,1.627c0.072,1.21,0.146,2.419,0.229,3.629
		c0.047,0.683,0.109,1.365,0.172,2.047c0.039,0.422,0.023,0.477-0.394,0.6c-0.421,0.124-0.852,0.215-1.277,0.323
		c-0.116,0.029-0.23,0.067-0.402,0.117c0,0.229,0.015,0.454-0.003,0.676c-0.033,0.415-0.036,0.842-0.14,1.24
		c-0.154,0.592-0.486,1.152-0.556,1.748c-0.067,0.578,0.113,1.183,0.162,1.777c0.116,1.443,0.042,2.881-0.172,4.311
		c-0.104,0.694-0.2,1.396-0.389,2.069c-0.354,1.268-0.771,2.518-1.162,3.775c-0.041,0.13-0.078,0.261-0.139,0.467
		c0.277,0.043,0.509,0.099,0.743,0.111c1.355,0.073,2.684,0.325,4.008,0.606c0.55,0.117,1.104,0.217,1.65,0.349
		c1.575,0.381,3.114,0.889,4.574,1.582c0.964,0.458,1.856,1.068,2.776,1.617c0.422,0.251,0.836,0.517,1.25,0.78
		c0.177,0.112,0.361,0.221,0.515,0.361c1.176,1.077,1.242,1.973,0.201,3.366c-0.607,0.814-1.487,1.346-2.405,1.757
		c-1.201,0.537-2.393,1.104-3.664,1.471c-2.078,0.602-4.164,1.146-6.327,1.365c-1.029,0.104-2.044,0.34-3.07,0.476
		c-0.608,0.08-1.227,0.086-1.84,0.119c-2.862,0.154-5.724,0.243-8.588,0.036c-1.962-0.142-3.928-0.235-5.888-0.398
		c-1.084-0.09-2.161-0.267-3.239-0.423c-1.338-0.193-2.683-0.356-4.007-0.621c-2.085-0.418-4.153-0.917-6.018-2.006
		c-1.142-0.666-2.05-1.533-2.438-2.847c-0.08-0.269-0.19-0.529-0.262-0.801c-0.256-0.972,0.011-1.813,0.702-2.511
		c0.184-0.185,0.48-0.262,0.73-0.375c0.143-0.064,0.309-0.08,0.445-0.153c2.033-1.097,4.144-1.989,6.398-2.527
		c0.922-0.22,1.832-0.49,2.755-0.704c1.577-0.363,3.176-0.594,4.79-0.718C65.124,112.605,65.277,112.579,65.427,112.561z
		 M69.888,120.541c-0.101,0.106-0.18,0.197-0.267,0.279c-0.487,0.457-1.398,0.546-1.833,0.092c-0.267-0.279-0.476-0.273-0.779-0.17
		c-0.229,0.077-0.483,0.18-0.708,0.006c-0.345-0.267-0.842-0.274-1.112-0.669c-0.042-0.061-0.151-0.087-0.235-0.106
		c-0.584-0.138-0.789-0.601-0.936-1.102c-0.096-0.328-0.019-0.659,0.228-0.876c0.219-0.191,0.293-0.419,0.372-0.669
		c0.074-0.234,0.15-0.472,0.26-0.69c0.307-0.61,0.631-1.209,0.515-1.935c-0.025-0.155,0.032-0.324,0.054-0.515
		c-1.443,0.133-2.8,0.297-4.126,0.657c-1.168,0.317-2.341,0.622-3.508,0.944c-0.557,0.154-1.109,0.326-1.658,0.509
		c-0.399,0.133-0.79,0.294-1.183,0.444c-0.942,0.361-1.741,0.927-2.28,1.784c-0.289,0.46-0.515,1.021-0.275,1.554
		c0.233,0.519,0.579,0.998,0.939,1.441c0.176,0.218,0.509,0.301,0.755,0.469c0.914,0.625,1.945,0.977,3,1.241
		c2.288,0.572,4.62,0.9,6.964,1.13c1.818,0.178,3.642,0.271,5.471,0.252c0.361-0.003,0.723,0.119,1.086,0.13
		c1,0.028,2.002,0.021,3.003,0.043c0.913,0.021,1.825,0.071,2.737,0.092c0.632,0.015,1.264,0.003,1.896-0.002
		c0.613-0.005,1.229-0.002,1.842-0.027c0.455-0.019,0.91-0.069,1.364-0.116c1.066-0.108,2.143-0.158,3.194-0.349
		c2.755-0.498,5.456-1.209,8.032-2.33c0.546-0.237,1.08-0.52,1.577-0.846c0.481-0.316,0.894-0.778,0.802-1.389
		c-0.096-0.641-0.373-1.218-0.97-1.619c-1.241-0.836-2.615-1.379-4.021-1.816c-1.761-0.548-3.549-1.01-5.338-1.457
		c-1.004-0.25-2.032-0.408-3.053-0.584c-0.421-0.072-0.466-0.004-0.589,0.401c-0.155,0.51-0.014,0.969,0.193,1.426
		c0.145,0.319,0.326,0.634,0.403,0.971c0.146,0.64,0.327,1.205,0.858,1.68c0.509,0.454,0.298,1.536-0.301,1.701
		c-0.422,0.116-0.802,0.32-1.219,0.427c-0.113,0.029-0.253,0.048-0.356,0.008c-0.212-0.082-0.37-0.004-0.542,0.097
		c-0.35,0.203-0.712,0.297-1.103,0.103c-0.215-0.107-0.403-0.016-0.599,0.083c-0.4,0.202-0.8,0.262-1.179-0.063
		c-0.178-0.151-0.361-0.145-0.587-0.07c-0.259,0.086-0.545,0.136-0.815,0.124c-0.61-0.025-0.947-0.452-1.262-0.919
		c-0.271-0.401-0.161-0.756,0.021-1.138c0.087-0.185,0.18-0.401,0.164-0.595c-0.082-1.007,0.237-1.923,0.688-2.776
		c0.366-0.691,0.294-1.331,0.068-2.075c-1.452,0.015-2.9-0.102-4.412,0.104c0.072,0.648,0.139,1.246,0.206,1.843
		c0.002,0.018,0.013,0.033,0.02,0.049c0.45,1,0.729,2.05,0.913,3.128c0.026,0.151,0.092,0.297,0.131,0.447
		c0.078,0.302,0.175,0.602,0.217,0.909c0.038,0.283-0.117,0.51-0.351,0.665c-0.6,0.401-1.52,0.507-2.126-0.121
		C70.072,120.678,69.986,120.622,69.888,120.541z M75.669,47.644c-0.842-0.525-1.704-1.022-2.521-1.583s-1.525-1.245-1.957-2.169
		c0.418,0.192,0.816,0.402,1.176,0.663c1.281,0.929,2.764,1.353,4.262,1.744c0.253,0.066,0.517,0.124,0.777,0.129
		c2.094,0.038,4.103-0.257,5.847-1.546c0.07-0.052,0.145-0.101,0.223-0.141c0.222-0.116,0.358-0.036,0.445,0.206
		c-0.313,0.42-0.713,0.726-1.158,0.979c-0.586,0.334-0.642,0.437-0.446,1.078c0.064,0.21,0.205,0.403,0.334,0.587
		c0.12,0.172,0.298,0.306,0.404,0.484c0.692,1.165,1.61,2.214,1.852,3.683c0.074-0.119,0.12-0.17,0.143-0.23
		c0.182-0.475,0.348-0.956,0.542-1.425c0.062-0.151,0.172-0.298,0.297-0.404c0.159-0.134,0.345-0.251,0.539-0.326
		c0.267-0.104,0.412-0.298,0.555-0.53c0.441-0.717,0.64-1.521,0.833-2.322c0.151-0.628,0.289-1.263,0.211-1.927
		c-0.132-1.125-0.335-2.218-0.931-3.209c-0.66-1.099-1.414-2.113-2.578-2.713c-0.669-0.345-1.249-0.775-1.757-1.322
		c-0.238-0.256-0.478-0.533-0.771-0.713c-1.175-0.724-2.449-1.25-3.789-1.55c-1.763-0.396-3.551-0.454-5.326-0.018
		c-0.938,0.23-1.881,0.461-2.668,1.072c-0.277,0.215-0.54,0.451-0.823,0.657c-0.367,0.268-0.645,0.602-0.791,1.028
		c-0.214,0.628-0.577,1.2-0.672,1.875c-0.029,0.205-0.179,0.393-0.286,0.615c-0.57-0.785-1.321-1.043-2.043-0.712
		c-0.269,0.123-0.534,0.281-0.756,0.474c-1.413,1.229-1.942,2.797-1.714,4.632c0.038,0.308,0.126,0.628,0.271,0.9
		c0.39,0.738,0.82,1.456,1.242,2.177c0.077,0.132,0.17,0.302,0.295,0.35c0.43,0.163,0.596,0.519,0.756,0.896
		c0.136,0.318,0.28,0.633,0.425,0.959c0.065-0.049,0.105-0.064,0.119-0.091c0.239-0.507,0.462-1.023,0.719-1.521
		c0.101-0.196,0.259-0.373,0.424-0.522c0.167-0.152,0.369-0.269,0.565-0.386c0.604-0.361,0.963-0.908,1.209-1.547
		c0.154-0.402,0.115-0.789-0.05-1.178c-0.102-0.24-0.181-0.49-0.275-0.733c-0.089-0.228-0.172-0.46-0.281-0.679
		c-0.435-0.877-0.621-1.79-0.39-2.755c0.068-0.284,0.142-0.602,0.561-0.725c-0.042,0.189-0.089,0.319-0.097,0.451
		c-0.022,0.417-0.079,0.839-0.035,1.25c0.115,1.079,0.629,1.995,1.295,2.824c0.506,0.631,1.055,1.229,1.765,1.646
		c0.605,0.354,1.228,0.682,1.816,1.063C74.129,47.524,74.887,47.601,75.669,47.644z M65.939,51.568
		c0.439,0.238,0.447,0.241,0.531,0.491c0.144,0.432,0.317,0.858,0.415,1.3c0.183,0.824,0.562,1.539,1.048,2.22
		c0.56,0.783,1.261,1.428,2.031,1.967c1.174,0.824,2.454,1.497,3.501,2.5c0.111,0.106,0.259,0.179,0.4,0.248
		c0.854,0.412,1.707,0.372,2.533-0.067c0.479-0.254,0.95-0.503,1.467-0.689c0.773-0.278,1.508-0.665,2.257-1.01
		c0.954-0.441,1.758-1.095,2.474-1.849c0.333-0.352,0.632-0.757,0.858-1.185c0.361-0.681,0.651-1.4,0.964-2.105
		c0.048-0.107,0.084-0.234,0.074-0.348c-0.026-0.309-0.071-0.617-0.127-0.922c-0.074-0.413-0.07-0.876-0.269-1.222
		c-0.512-0.896-1.066-1.778-1.7-2.591c-0.362-0.464-0.624-0.92-0.695-1.495c-0.012-0.099-0.045-0.196-0.061-0.26
		c-1.154,0.172-2.273,0.378-3.402,0.497c-1.16,0.122-2.268-0.297-3.408-0.475c0.048,0.096,0.106,0.156,0.177,0.196
		c0.786,0.447,1.644,0.706,2.515,0.919c0.247,0.061,0.463,0.119,0.564,0.469c-0.382,0.024-0.724,0.052-1.066,0.066
		c-1.208,0.049-2.377-0.117-3.509-0.564c-1.199-0.474-2.225-1.187-3.11-2.115c-0.138-0.144-0.289-0.275-0.506-0.482
		c0,0.194,0,0.262,0,0.33c0.008,0.793-0.41,1.416-0.891,1.971c-0.278,0.32-0.69,0.543-1.077,0.745
		c-0.447,0.233-0.771,0.567-0.952,1.014c-0.216,0.534-0.373,1.091-0.551,1.64c-0.038,0.116-0.038,0.248-0.094,0.352
		c-0.043,0.08-0.147,0.173-0.224,0.173c-0.07,0-0.166-0.106-0.203-0.187c-0.05-0.109-0.04-0.244-0.082-0.358
		c-0.192-0.526-0.357-1.066-0.603-1.567c-0.214-0.437-0.743-0.436-0.958-0.002c-0.142,0.286-0.233,0.634-0.227,0.952
		c0.02,0.931,0.482,1.708,0.98,2.459c0.094,0.143,0.239,0.261,0.382,0.359c0.279,0.192,0.62,0.02,0.641-0.325
		c0.01-0.154-0.04-0.312-0.055-0.468C65.966,51.987,65.958,51.825,65.939,51.568z M63.663,96.019
		c-0.133,0.541-0.098,1.006,0.039,1.462c0.141,0.471,0.275,0.947,0.469,1.397c0.288,0.669,0.34,1.357,0.286,2.065
		c-0.016,0.21-0.057,0.419-0.066,0.629c-0.037,0.788-0.16,1.586-0.08,2.361c0.199,1.922,0.583,3.815,1.112,5.676
		c0.211,0.741,0.432,1.479,0.62,2.227c0.115,0.457,0.204,0.923,0.072,1.403c-0.106,0.387-0.173,0.785-0.25,1.18
		c-0.022,0.117-0.062,0.26-0.018,0.356c0.212,0.464,0.038,0.848-0.194,1.24c-0.133,0.225-0.228,0.475-0.326,0.719
		c-0.228,0.568-0.448,1.139-0.667,1.711c-0.095,0.248-0.13,0.492,0.146,0.761c0.066-0.278,0.09-0.507,0.177-0.707
		c0.089-0.206,0.244-0.381,0.55-0.35c-0.034,0.307-0.06,0.597-0.099,0.884c-0.042,0.302,0.005,0.564,0.278,0.793
		c0.023-0.95,0.305-1.329,0.941-1.255c-0.038,0.098-0.045,0.221-0.109,0.269c-0.274,0.203-0.278,0.462-0.209,0.756
		c0.036,0.153,0.028,0.319,0.079,0.466c0.041,0.12,0.122,0.292,0.215,0.313c0.115,0.026,0.26-0.079,0.485-0.162
		c-0.246-0.135-0.381-0.209-0.517-0.284c0.007-0.026,0.014-0.054,0.021-0.081c0.23,0,0.46,0,0.688,0
		c0.3-0.928,0.584-1.199,1.025-0.943c-0.058,0.103-0.11,0.21-0.176,0.308c-0.199,0.295-0.228,0.616-0.179,0.959
		c0.036,0.251,0.146,0.447,0.389,0.51c0.263,0.068,0.538,0.059,0.72-0.188c0.196-0.268,0.411-0.531,0.351-0.905
		c-0.046-0.286,0.09-0.522,0.283-0.707c0.082-0.078,0.24-0.075,0.364-0.108c0.02,0.111,0.081,0.233,0.053,0.33
		c-0.131,0.449-0.126,0.819,0.259,1.189c0.206,0.198,0.354,0.357,0.648,0.332c0.283-0.024,0.569-0.029,0.771-0.271
		c0.144-0.172,0.189-0.361,0.123-0.506c-0.531-0.183-1.055,0.116-1.55-0.209c0.431-0.436,0.905-0.31,1.393-0.207
		c0-0.173,0.014-0.292-0.002-0.406c-0.14-0.979-0.423-1.922-0.808-2.829c-0.22-0.521-0.458-1.006-0.34-1.612
		c0.111-0.57-0.328-1.115-0.165-1.709c0.014-0.051,0.02-0.104,0.023-0.157c0.109-1.636,0.676-3.185,0.895-4.807
		c0.198-1.47,0.306-2.929,0.253-4.403c-0.015-0.42-0.056-0.844-0.138-1.256c-0.085-0.425-0.183-0.863-0.373-1.248
		c-0.131-0.267-0.144-0.479-0.073-0.744c0.171-0.644,0.339-1.29,0.473-1.941c0.122-0.594-0.005-1.168-0.163-1.759
		c-0.259,0.027-0.449,0.049-0.64,0.069c-1.36,0.141-2.72,0.294-4.083,0.413c-0.267,0.023-0.56-0.049-0.816-0.145
		C65.118,96.631,64.425,96.331,63.663,96.019z M75.023,96.81c0.023,0.387,0.01,0.668,0.062,0.937
		c0.159,0.826,0.313,1.655,0.533,2.466c0.095,0.348,0.052,0.644-0.024,0.97c-0.131,0.563-0.27,1.128-0.338,1.7
		c-0.123,1.034-0.029,2.068,0.088,3.098c0.178,1.558,0.54,3.077,0.91,4.597c0.188,0.771,0.259,1.549,0.056,2.344
		c-0.103,0.4-0.131,0.837-0.099,1.249c0.039,0.489-0.012,0.939-0.209,1.385c-0.334,0.757-0.628,1.526-0.695,2.362
		c-0.051,0.625-0.057,1.247-0.306,1.854c-0.16,0.39,0.336,0.941,0.795,1.006c0.417,0.059,0.78-0.072,0.926-0.354
		c0.119-0.23,0.217-0.474,0.333-0.732c-0.052-0.078-0.116-0.159-0.166-0.248c-0.042-0.075-0.067-0.159-0.122-0.293
		c0.745,0.384,0.781,0.485,0.588,1.219c-0.034,0.131-0.01,0.322,0.066,0.43c0.261,0.366,0.568,0.279,0.869-0.247
		c-0.22-0.081-0.436-0.159-0.652-0.238c0.005-0.037,0.01-0.073,0.015-0.11c0.265-0.023,0.53-0.046,0.852-0.074
		c-0.088-0.337-0.168-0.643-0.261-0.994c0.653,0.097,0.563,0.691,0.772,0.981c0.207,0.16,0.493-0.134,0.641,0.239
		c-0.174,0.016-0.313,0.004-0.436,0.045c-0.094,0.032-0.165,0.129-0.247,0.197c0.086,0.068,0.168,0.19,0.258,0.196
		c0.349,0.022,0.606-0.151,0.771-0.454c0.151-0.279,0.103-0.537-0.105-0.776c-0.117-0.136-0.218-0.287-0.326-0.431
		c0.028-0.038,0.058-0.077,0.087-0.115c0.116,0.041,0.253,0.056,0.346,0.128c0.3,0.234,0.487,0.547,0.569,0.923
		c0.028,0.129,0.069,0.256,0.104,0.38c0.689-0.132,0.894-0.66,0.494-1.15c-0.145-0.177-0.394-0.28-0.442-0.561
		c0.09-0.014,0.143-0.036,0.188-0.026c0.067,0.016,0.147,0.036,0.189,0.084c0.315,0.361,0.623,0.73,0.935,1.098
		c0.37-0.305,0.423-0.618,0.062-0.99c-0.406-0.418-0.661-0.889-0.791-1.451c-0.066-0.289-0.21-0.559-0.312-0.84
		c-0.143-0.396-0.288-0.792-0.411-1.194c-0.044-0.146-0.09-0.342-0.028-0.458c0.303-0.565,0.221-1.154,0.17-1.747
		c-0.011-0.131,0.003-0.272,0.039-0.399c0.413-1.47,0.804-2.946,1.257-4.403c0.594-1.909,0.685-3.866,0.644-5.838
		c-0.01-0.47-0.003-1.01-0.225-1.388c-0.238-0.405-0.181-0.729-0.073-1.086c0.191-0.639,0.446-1.259,0.629-1.9
		c0.095-0.331,0.111-0.689,0.127-1.037c0.01-0.222-0.113-0.363-0.369-0.322c-0.277,0.044-0.561,0.062-0.832,0.128
		c-0.698,0.17-1.387,0.385-2.09,0.533c-0.335,0.07-0.701,0.077-1.041,0.03c-0.468-0.065-0.92-0.228-1.385-0.315
		C76.655,97.069,75.895,96.954,75.023,96.81z M63.349,78.314c-0.121,1.052-0.23,2.042-0.349,3.031
		c-0.026,0.216,0.063,0.333,0.257,0.392c0.218,0.065,0.438,0.129,0.656,0.194c1.278,0.381,2.549,0.788,3.835,1.136
		c1.425,0.386,2.877,0.62,4.351,0.768c1.569,0.156,3.125,0.024,4.683-0.073c1.119-0.07,2.237-0.229,3.343-0.427
		c1.33-0.236,2.648-0.544,3.966-0.847c0.423-0.098,0.476-0.219,0.416-0.59c-0.098-0.606-0.2-1.212-0.303-1.818
		c-0.07-0.411-0.146-0.445-0.565-0.396c-0.993,0.115-1.987,0.259-2.984,0.304c-1.632,0.074-3.269,0.135-4.9,0.099
		c-2.246-0.051-4.49-0.186-6.734-0.305c-1.682-0.089-3.278-0.59-4.876-1.072c-0.075-0.023-0.138-0.086-0.264-0.167
		c0.142-0.067,0.229-0.147,0.31-0.141c0.226,0.019,0.458,0.046,0.671,0.117c1.509,0.501,3.06,0.787,4.639,0.938
		c0.507,0.049,1.011,0.141,1.519,0.161c1.281,0.051,2.563,0.08,3.845,0.103c1.282,0.022,2.566,0.07,3.847,0.025
		c1.404-0.049,2.804-0.189,4.205-0.296c0.13-0.01,0.258-0.057,0.386-0.087c0.003-0.038,0.006-0.076,0.009-0.114
		c-0.524-0.185-1.008-0.492-1.621-0.399c-0.485,0.074-0.977,0.129-1.467,0.152c-1.244,0.062-2.49,0.107-3.735,0.146
		c-1.775,0.056-3.55,0.045-5.318-0.146c-1.186-0.128-2.38-0.207-3.536-0.54c-0.294-0.084-0.567-0.252-0.903-0.214
		c-0.11,0.013-0.239-0.135-0.459-0.27c0.402-0.129,0.67-0.126,0.945-0.069c0.491,0.102,0.982,0.21,1.477,0.291
		c0.45,0.072,0.905,0.125,1.359,0.164c1.347,0.117,2.694,0.285,4.043,0.317c1.843,0.045,3.688-0.017,5.533-0.035
		c0.368-0.004,0.737-0.015,1.105-0.034c0.113-0.007,0.225-0.054,0.456-0.112c-0.324-0.206-0.556-0.354-0.788-0.501
		c-0.937-0.594-1.829-1.244-2.596-2.053c-0.532-0.561-1.059-1.127-1.591-1.688c-0.12-0.127-0.231-0.284-0.381-0.359
		c-0.563-0.281-0.948-0.713-1.196-1.282c-0.019-0.042-0.071-0.07-0.129-0.125c-0.072,0.051-0.149,0.09-0.205,0.149
		c-0.391,0.416-0.851,0.728-1.366,0.972c-0.252,0.119-0.498,0.263-0.724,0.427c-0.738,0.537-1.463,1.092-2.199,1.632
		c-1.636,1.203-3.456,2.005-5.438,2.436C64.153,78.197,63.721,78.252,63.349,78.314z M70.978,71.309
		c-0.26,0.054-0.424,0.085-0.587,0.124c-0.238,0.057-0.474,0.163-0.713,0.172c-1.297,0.052-2.595,0.084-3.893,0.118
		c-0.544,0.014-1.091-0.021-1.631,0.025c-0.901,0.077-1.776,0.289-2.526,0.823c-0.398,0.284-0.75,0.633-1.125,0.952
		c-0.125,0.107-0.254,0.211-0.418,0.349c-0.009-0.39,0.021-0.448,0.761-1.16c0.345-0.333,0.719-0.636,1.15-1.014
		c-1.705-0.488-3.303-0.945-4.946-1.415c-0.297,1.025-0.429,2.01-0.305,3.009c0.082,0.659,0.276,1.303,0.399,1.958
		c0.109,0.584,0.199,1.172,0.274,1.761c0.03,0.235,0.114,0.402,0.336,0.484c0.147,0.055,0.297,0.123,0.451,0.139
		c0.854,0.087,1.709,0.183,2.566,0.23c1.019,0.057,2.019-0.05,3.031-0.249c1.027-0.203,2-0.535,2.97-0.888
		c1.526-0.555,2.93-1.347,4.231-2.325c0.742-0.558,1.489-1.1,2.321-1.538c0.869-0.457,1.338-1.224,1.142-2.271
		c-0.022-0.121-0.045-0.242-0.061-0.363c-0.14-1.082-0.229-2.163-0.052-3.253c0.096-0.588,0.134-1.186,0.193-1.78
		c0.021-0.215,0.01-0.424-0.289-0.546c-0.55,0.849-1.104,1.704-1.658,2.558c-0.154-0.338-0.045-0.599,0.119-0.846
		c0.486-0.731,0.967-1.465,1.463-2.189c0.286-0.418,0.285-0.606-0.099-0.961c-0.902,0.958-1.656,2.048-2.602,2.974
		c-0.002-0.482,0.276-0.82,0.547-1.152c0.444-0.544,0.91-1.069,1.357-1.611c0.139-0.168,0.244-0.364,0.369-0.553
		c-0.335-0.227-0.563-0.165-0.788,0.078c-0.606,0.654-1.225,1.296-1.837,1.945c-0.06,0.063-0.125,0.133-0.155,0.212
		c-0.194,0.526-0.405,1.048-0.56,1.586c-0.14,0.489-0.067,0.99-0.042,1.498c0.041,0.816,0.193,1.596,0.413,2.373
		C70.854,70.807,70.913,71.055,70.978,71.309z M89.295,75.26c-0.038,0.024-0.076,0.049-0.115,0.073
		c-0.152-0.16-0.3-0.324-0.458-0.479c-0.301-0.293-0.575-0.625-0.917-0.861c-1.13-0.781-2.372-1.277-3.757-1.407
		c-1.153-0.108-2.304-0.255-3.452-0.415c-0.449-0.063-0.885-0.22-1.331-0.312c-0.621-0.128-0.688-0.207-0.625-0.851
		c0.007-0.07,0.005-0.142,0.022-0.209c0.223-0.855,0.288-1.705,0.186-2.6c-0.102-0.886-0.243-1.74-0.657-2.528
		c-0.534-1.017-1.141-1.977-2.12-2.646c-0.319-0.219-0.654-0.228-1.004-0.208c-0.066,0.004-0.127,0.115-0.23,0.215
		c0.147,0.042,0.228,0.079,0.311,0.088c0.475,0.048,0.813,0.285,1.021,0.712c0.022,0.046,0.065,0.083,0.097,0.125
		c0.481,0.65,0.947,1.312,1.236,2.076c0.081,0.214,0.13,0.44,0.194,0.661c-0.043,0.016-0.086,0.033-0.128,0.049
		c-0.152-0.288-0.315-0.57-0.454-0.864c-0.343-0.723-0.82-1.347-1.377-1.915c-0.179-0.184-0.362-0.342-0.665-0.119
		c0.079,0.169,0.124,0.37,0.243,0.505c0.604,0.682,0.821,1.541,1.119,2.364c0.099,0.275,0.137,0.555-0.018,0.955
		c-0.139-0.249-0.236-0.39-0.3-0.546c-0.106-0.26-0.186-0.53-0.284-0.793c-0.141-0.379-0.281-0.758-0.435-1.132
		c-0.072-0.177-0.166-0.354-0.445-0.246c0.054,0.619,0.109,1.227,0.159,1.834c0.086,1.048,0.209,2.092-0.047,3.143
		c-0.132,0.542-0.179,1.108-0.218,1.667c-0.047,0.663,0.237,1.177,0.788,1.56c0.255,0.178,0.482,0.4,0.701,0.624
		c0.737,0.752,1.403,1.592,2.214,2.255c1.221,0.998,2.503,1.914,4.041,2.434c0.992,0.335,1.995,0.535,3.019,0.686
		c0.188,0.027,0.387,0.009,0.578-0.007c1.14-0.093,2.269-0.168,3.411,0.066c1.012,0.208,1.621-0.228,1.864-1.233
		c0.344-1.418,0.641-2.845,0.586-4.319c-0.019-0.483-0.059-0.548-0.539-0.573c-0.938-0.048-1.859,0.084-2.769,0.304
		c-0.109,0.027-0.207,0.104-0.318,0.162C88.654,74.177,89.346,74.538,89.295,75.26z M73.388,87.433c0,0.324-0.002,0.563,0,0.804
		c0.003,0.278,0.043,0.562,0.006,0.835c-0.036,0.264-0.006,0.467,0.175,0.676c0.416,0.479,0.492,1.036,0.46,1.67
		c-0.041,0.837,0.019,1.685,0.102,2.521c0.062,0.625,0.258,1.235,0.338,1.859c0.04,0.315,0.174,0.398,0.454,0.453
		c1.241,0.239,2.476,0.509,3.717,0.751c0.197,0.039,0.415,0.023,0.615-0.014c0.245-0.044,0.347-0.207,0.282-0.468
		c-0.047-0.187-0.085-0.38-0.091-0.571c-0.032-1.159-0.056-2.319-0.078-3.479c-0.002-0.142,0.019-0.283,0.029-0.426
		c0.115,0.167,0.166,0.334,0.177,0.503c0.051,0.824,0.09,1.649,0.137,2.474c0.01,0.175-0.017,0.377,0.063,0.517
		c0.167,0.295,0.165,0.603,0.182,0.917c0.006,0.098,0.045,0.193,0.067,0.281c0.391,0.021,4.887-0.943,5.196-1.106
		c-0.104-0.598-0.188-0.642-0.749-0.503c-1.058,0.263-2.119,0.507-3.181,0.755c-0.073,0.017-0.154-0.005-0.355-0.014
		c0.488-0.368,0.974-0.352,1.41-0.475c0.439-0.124,0.88-0.243,1.32-0.365c0.453-0.125,0.906-0.25,1.337-0.368
		c0.025-0.109,0.049-0.161,0.047-0.211c-0.092-1.876-0.214-3.751-0.258-5.628c-0.01-0.432-0.155-0.603-0.497-0.727
		c-0.082-0.03-0.164-0.066-0.238-0.113c-0.507-0.317-1.023-0.628-1.281-1.208c-0.085-0.189-0.148-0.389-0.215-0.567
		c-0.062-0.019-0.097-0.041-0.128-0.037c-0.156,0.024-0.313,0.048-0.465,0.086c-2.271,0.565-4.552,1.06-6.905,1.119
		c-0.39,0.01-0.455,0.087-0.537,0.504c-0.077,0.394-0.216,0.756-0.5,1.14c-0.185-0.543,0.218-1.011,0.006-1.517
		C73.848,87.48,73.664,87.461,73.388,87.433z M66.039,96.557c0.133-1.251,0.273-2.413,0.377-3.579
		c0.104-1.17,0.024-2.354,0.321-3.513c0.072,0.285,0.097,0.571,0.084,0.855c-0.087,1.942-0.181,3.883-0.277,5.824
		c-0.015,0.304,0.039,0.383,0.33,0.391c0.105,0.003,0.211-0.004,0.315-0.017c1.064-0.121,2.129-0.233,3.191-0.373
		c0.676-0.089,1.346-0.219,2.082-0.341c0.113-0.601,0.198-1.188,0.337-1.764c0.232-0.953,0.485-1.903,0.761-2.845
		c0.106-0.359,0.025-0.647-0.238-0.85c-0.373-0.286-0.416-0.652-0.417-1.074c-0.002-0.488-0.07-0.976-0.08-1.464
		c-0.006-0.324-0.169-0.404-0.457-0.441c-1.009-0.13-2.015-0.287-3.023-0.43c-1.08-0.151-2.143-0.378-3.184-0.704
		c-0.328-0.103-0.649-0.226-0.997-0.347c-0.434,1.305-1.145,2.189-2.627,2.039c-0.007,0.081-0.034,0.145-0.013,0.183
		c0.301,0.556,0.269,1.151,0.221,1.749c-0.042,0.524-0.077,1.051-0.147,1.572c-0.067,0.502-0.165,1.001-0.269,1.497
		c-0.083,0.395-0.2,0.781-0.291,1.175c-0.088,0.377-0.08,0.374,0.269,0.556c0.965,0.503,1.926,1.013,2.892,1.514
		C65.459,96.307,65.733,96.417,66.039,96.557z M90.939,68.611c-0.202-0.388-0.35-0.704-0.525-1.003
		c-0.809-1.378-1.607-2.763-2.443-4.124c-0.441-0.717-0.946-1.394-1.436-2.08c-0.121-0.169-0.239-0.39-0.563-0.345
		c0.035,0.663,0.354,1.264,0.205,1.934c-0.201,0.902-0.403,1.52-0.771,1.799c0.032-0.425,0.026-0.789,0.094-1.14
		c0.092-0.484,0.197-0.952,0.095-1.455c-0.08-0.392-0.047-0.805-0.121-1.198c-0.07-0.372-0.134-0.796-0.534-0.975
		c-0.831-0.371-1.674-0.719-2.521-1.053c-0.385-0.151-0.791-0.247-1.203-0.373c-0.384,0.179-0.791,0.385-1.211,0.559
		c-0.238,0.099-0.368,0.254-0.411,0.499c-0.027,0.156-0.053,0.313-0.093,0.465c-0.274,1.068-0.77,1.993-1.722,2.616
		c-0.203,0.132-0.398,0.276-0.65,0.451c0.614,0.752,1.212,1.472,1.501,2.367c0.29,0.897,0.546,1.807,0.821,2.725
		c0.816,0.134,3.973-0.016,4.455-0.224c0-0.277,0-0.56,0-0.843c0.031-0.008,0.062-0.016,0.092-0.024
		c0.148,0.272,0.297,0.545,0.494,0.908c0.24-0.421,0.423-0.742,0.645-1.132c0.08,0.373,0.081,0.374,0.004,0.585
		c-0.369,1.01-0.678,2.034-0.731,3.117c-0.006,0.126,0.018,0.254,0.032,0.454C86.426,69.764,88.597,69.113,90.939,68.611z
		 M63.779,68.598c0.151-0.351,0.115-0.657,0.087-0.968c-0.041-0.454-0.067-0.91-0.081-1.366c-0.003-0.097,0.077-0.197,0.118-0.295
		c0.041-0.002,0.081-0.005,0.121-0.007c0.099,0.248,0.198,0.495,0.307,0.767c0.201-0.232,0.263-0.579,0.648-0.725
		c0.106,0.516-0.27,0.894-0.268,1.325c0.544,0.201,4.505,0.56,5.051,0.45c-0.03-0.87,0.318-1.651,0.63-2.455
		c0.325-0.836,1.075-1.323,1.563-2.024c-0.252-0.121-0.501-0.184-0.674-0.333c-0.727-0.629-1.092-1.44-1.146-2.403
		c-0.019-0.341-0.035-0.704-0.334-0.936c0.13-0.408,0.252-0.788,0.37-1.155c-0.438-0.313-0.831-0.604-1.235-0.877
		c-0.091-0.062-0.238-0.108-0.336-0.081c-1.181,0.33-2.362,0.661-3.534,1.021c-0.702,0.216-0.881,0.527-0.879,1.276
		c0.001,0.649-0.008,1.299-0.038,1.948s-0.088,1.296-0.143,1.943c-0.026,0.304-0.071,0.606-0.107,0.909
		c-0.044,0.006-0.088,0.012-0.132,0.018c-0.123-0.359-0.34-0.676-0.312-1.1c0.093-1.36,0.169-2.722,0.249-4.083
		c0.003-0.059-0.024-0.119-0.059-0.274c-2.24,1.968-3.682,4.418-5.134,6.832c0.934,0.367,1.826,0.718,2.718,1.07
		C62.147,67.435,62.981,67.939,63.779,68.598z M65.534,113.006c-0.341,0-0.626-0.041-0.895,0.007
		c-1.797,0.323-3.595,0.644-5.382,1.013c-0.753,0.156-1.477,0.453-2.224,0.646c-1.882,0.486-3.642,1.278-5.388,2.107
		c-0.946,0.448-1.393,1.297-1.706,2.235c-0.038,0.113-0.046,0.246-0.033,0.365c0.137,1.215,0.541,2.289,1.622,2.991
		c0.294,0.19,0.595,0.371,0.9,0.545c0.61,0.348,1.224,0.683,1.926,0.823c1.532,0.307,3.055,0.664,4.594,0.93
		c1.765,0.304,3.538,0.571,5.316,0.78c1.673,0.197,3.356,0.305,5.036,0.439c1.118,0.09,2.238,0.157,3.356,0.236
		c1.98,0.14,3.96,0.065,5.943,0.04c3.113-0.041,6.152-0.572,9.158-1.325c1.055-0.264,2.077-0.663,3.134-0.92
		c0.959-0.234,1.889-0.534,2.805-0.896c0.995-0.393,1.923-0.877,2.596-1.737c0.784-1.001,0.704-1.864-0.075-2.758
		c-0.294-0.338-0.697-0.591-1.076-0.843c-1.022-0.68-2.056-1.324-3.201-1.81c-1.542-0.653-3.104-1.236-4.724-1.639
		c-1.344-0.333-2.716-0.554-4.078-0.808c-0.5-0.094-1.006-0.157-1.512-0.2c-0.128-0.011-0.346,0.082-0.383,0.18
		c-0.074,0.192-0.041,0.433,0.165,0.56c0.113,0.069,0.267,0.078,0.403,0.104c1.434,0.258,2.878,0.47,4.301,0.78
		c2.026,0.442,4.017,1.018,5.966,1.739c0.916,0.34,1.766,0.783,2.562,1.337c0.332,0.23,0.648,0.486,0.719,0.934
		c0.019,0.114,0.087,0.239,0.17,0.321c0.253,0.25,0.231,0.539,0.142,0.833c-0.204,0.664-0.608,1.194-1.184,1.565
		c-0.486,0.313-1.008,0.572-1.525,0.833c-1.678,0.845-3.497,1.27-5.292,1.764c-0.66,0.183-1.33,0.334-2.001,0.468
		c-1.641,0.325-3.304,0.466-4.969,0.583c-0.421,0.03-0.84,0.112-1.26,0.11c-2.231-0.01-4.462-0.015-6.693-0.065
		c-2.353-0.053-4.705-0.1-7.054-0.308c-2.172-0.191-4.33-0.438-6.471-0.858c-1.991-0.39-3.941-0.888-5.728-1.89
		c-0.122-0.068-0.271-0.113-0.357-0.213c-0.369-0.422-0.725-0.855-1.074-1.295c-0.416-0.525-0.464-1.124-0.296-1.748
		c0.277-1.028,1.006-1.678,1.917-2.111c0.868-0.413,1.771-0.755,2.674-1.088c0.525-0.193,1.08-0.309,1.622-0.455
		c1.254-0.34,2.501-0.705,3.764-1.005c0.818-0.194,1.657-0.297,2.489-0.427c0.427-0.066,0.859-0.103,1.3-0.154
		C65.534,113.49,65.534,113.286,65.534,113.006z M73.646,93.047c-0.048-0.018-0.079-0.029-0.079-0.028
		c-0.39,0.883-0.612,1.813-0.765,2.761c-0.062,0.383-0.063,0.431-0.44,0.538c-0.05,0.015-0.105,0.014-0.155,0.027
		c-0.318,0.087-0.345,0.133-0.264,0.438c0.031,0.118,0.09,0.236,0.087,0.354c-0.018,0.826-0.043,1.647-0.371,2.432
		c-0.185,0.441-0.233,0.896-0.01,1.368c0.445,0.944,0.473,1.976,0.506,2.989c0.035,1.069-0.011,2.14-0.193,3.2
		c-0.106,0.622-0.145,1.255-0.251,1.876c-0.114,0.657-0.278,1.305-0.409,1.959c-0.078,0.393-0.122,0.789-0.013,1.181
		c1.512-0.037,2.995-0.074,4.549-0.112c-0.021-0.283-0.013-0.544-0.063-0.793c-0.362-1.806-0.828-3.59-0.964-5.439
		c-0.111-1.517-0.115-3.026,0.213-4.51c0.133-0.601,0.111-1.129-0.118-1.685c-0.297-0.722-0.415-1.487-0.446-2.264
		c-0.011-0.283,0.004-0.532-0.251-0.753c-0.14-0.121-0.201-0.371-0.232-0.573c-0.094-0.606-0.159-1.219-0.227-1.829
		C73.706,93.8,73.679,93.416,73.646,93.047z M74.613,85.374c1.066-0.125,2.202-0.233,3.33-0.396
		c1.075-0.156,2.144-0.361,3.212-0.558c0.726-0.134,1.454-0.26,2.167-0.445c0.42-0.108,0.814-0.321,1.216-0.497
		c0.224-0.097,0.248-0.289,0.163-0.486c-0.083-0.19-0.256-0.152-0.41-0.104c-0.369,0.114-0.73,0.256-1.104,0.352
		c-2.423,0.617-4.878,0.997-7.383,1.093c-2.592,0.099-5.161-0.007-7.686-0.65c-1.627-0.415-3.312-0.622-4.848-1.36
		c-0.205-0.099-0.372-0.036-0.474,0.179c-0.219,0.457-0.107,0.764,0.36,0.967c0.113,0.049,0.231,0.087,0.349,0.118
		c0.677,0.181,1.367,0.319,2.028,0.545c1.022,0.348,2.095,0.415,3.142,0.613c1.014,0.191,2.056,0.238,3.085,0.345
		C72.685,85.184,73.609,85.273,74.613,85.374z M85.038,84.433c-0.086-0.611-0.168-0.664-0.692-0.456
		c-0.114,0.045-0.221,0.107-0.335,0.152c-0.359,0.139-0.71,0.313-1.082,0.4c-1.983,0.465-3.977,0.864-6.01,1.084
		c-1.966,0.214-3.917,0.297-5.876-0.039c-1.021-0.176-2.053-0.274-3.076-0.439c-0.5-0.08-0.986-0.239-1.481-0.351
		c-0.627-0.141-1.266-0.239-1.884-0.409c-0.672-0.185-1.327-0.431-2.002-0.653c-0.161,0.222-0.189,0.401,0.1,0.497
		c0.146,0.048,0.31,0.042,0.461,0.077c0.131,0.03,0.266,0.067,0.382,0.132c0.441,0.244,0.857,0.545,1.317,0.743
		c0.594,0.255,1.216,0.453,1.837,0.637c0.707,0.208,1.417,0.438,2.143,0.543c1.145,0.167,2.302,0.274,3.458,0.341
		c1.669,0.096,3.334,0.062,4.981-0.304c0.719-0.159,1.45-0.296,2.183-0.348c0.604-0.042,1.181-0.156,1.755-0.322
		c0.236-0.068,0.477-0.126,0.71-0.202c0.985-0.32,1.969-0.645,2.952-0.972C84.94,84.523,84.99,84.467,85.038,84.433z M64.547,68.186
		c-0.119,0.733-0.379,1.375-0.315,1.993c2.021,0.416,4.005,0.554,6.034,0.635c-0.024-0.165-0.034-0.266-0.055-0.364
		c-0.104-0.499-0.222-0.994-0.312-1.495c-0.092-0.516-0.188-0.596-0.727-0.61c-1.193-0.03-2.386-0.072-3.579-0.111
		C65.264,68.223,64.933,68.204,64.547,68.186z M63.431,70.333c-1.978-1.043-3.891-2.063-6.06-2.649
		c-0.388,0.574-0.75,1.191-1.061,1.839c1.272,0.34,2.474,0.654,3.671,0.985c0.794,0.22,1.582,0.461,2.37,0.701
		c0.399,0.122,0.75,0.045,1.08-0.187C63.431,70.777,63.431,70.552,63.431,70.333z M93.038,72.424
		c-0.114-0.243-0.178-0.401-0.26-0.547c-0.224-0.396-0.454-0.79-0.686-1.182c-0.229-0.388-0.313-0.404-0.772-0.363
		c-0.967,0.085-1.9,0.333-2.816,0.625c-0.833,0.267-1.637,0.623-2.447,0.954c-0.142,0.058-0.346,0.094-0.362,0.356
		c0.714,0.161,1.382,0.406,1.984,0.818c0.109,0.075,0.307,0.077,0.448,0.044c0.664-0.155,1.322-0.335,1.983-0.505
		c0.649-0.167,1.308-0.241,1.979-0.202C92.366,72.438,92.645,72.424,93.038,72.424z M79.362,69.048
		c-0.112,0.694-0.227,1.391-0.354,2.169c0.4,0,0.729,0.005,1.056,0c1.123-0.02,2.246-0.033,3.368-0.07
		c0.436-0.015,0.529-0.138,0.579-0.586c0.023-0.209,0.063-0.418,0.069-0.628c0.012-0.361,0.004-0.724,0.004-1.13
		C82.495,68.885,80.963,68.964,79.362,69.048z M71.47,59.143c-0.055,0.176-0.094,0.241-0.092,0.303
		c0.037,0.983,0.447,1.797,1.185,2.427c0.189,0.162,0.463,0.39,0.76,0.195c0.311-0.203,0.525-0.074,0.743,0.134
		c0.086,0.083,0.175,0.163,0.256,0.238c0.644-0.377,0.643-0.372,1.432-0.261c0.129,0.018,0.28-0.021,0.403-0.075
		c0.837-0.365,1.441-0.984,1.876-1.774c0.058-0.104,0.049-0.245,0.072-0.379c-0.339-0.033-0.532,0.123-0.724,0.275
		c-0.391,0.311-0.83,0.519-1.312,0.645c-1.245,0.324-2.351,0.122-3.312-0.793C72.396,59.733,71.945,59.482,71.47,59.143z
		 M91.443,69.726c-0.152-0.645-0.251-0.715-0.791-0.6c-0.496,0.106-1.003,0.181-1.484,0.333c-0.835,0.265-1.676,0.528-2.472,0.887
		c-0.714,0.322-1.372,0.769-2.049,1.168c-0.143,0.084-0.268,0.237-0.127,0.386c0.089,0.093,0.271,0.11,0.414,0.135
		c0.056,0.009,0.126-0.052,0.185-0.089c1.241-0.786,2.638-1.211,4.005-1.7c0.643-0.229,1.298-0.434,1.995-0.431
		C91.217,69.815,91.314,69.763,91.443,69.726z M84.803,53.024c0,0.19-0.02,0.316,0.004,0.434c0.063,0.321,0.359,0.488,0.628,0.313
		c0.521-0.338,1.102-0.631,1.273-1.321c0.071-0.287,0.223-0.556,0.285-0.844c0.065-0.303,0.08-0.619,0.097-0.93
		c0.017-0.322-0.195-0.51-0.441-0.663c-0.189-0.118-0.397-0.108-0.513,0.079c-0.228,0.37-0.498,0.743-0.6,1.152
		c-0.104,0.422-0.297,0.778-0.504,1.136C84.901,52.606,84.688,52.794,84.803,53.024z M57.744,67.17
		c2.123,0.387,3.942,1.374,5.724,2.529c0.04-0.156,0.068-0.237,0.081-0.321c0.018-0.12,0.024-0.24,0.036-0.366
		c-1.488-1.173-3.197-1.834-4.988-2.313C58.063,66.557,58.049,66.585,57.744,67.17z M71.125,113.415
		c1.373-0.222,2.704-0.172,4.034-0.169c0.545,0.002,0.638-0.118,0.548-0.745c-1.513-0.045-3.031-0.057-4.582,0.163
		C71.125,112.896,71.125,113.114,71.125,113.415z M83.739,85.746c0.256,0.754,0.51,1.45,1.315,1.756
		c0.175,0.066,0.334,0.134,0.476-0.036c0.14-0.167,0.061-0.319-0.036-0.479c-0.227-0.375-0.455-0.75-0.653-1.14
		c-0.196-0.388-0.233-0.426-0.636-0.3C84.059,85.594,83.921,85.668,83.739,85.746z M63.647,85.43
		c-0.087-0.047-0.146-0.083-0.208-0.111c-0.515-0.229-0.524-0.212-0.784,0.298c-0.187,0.366-0.419,0.709-0.675,1.138
		c0.046,0.079,0.138,0.238,0.22,0.381C63.129,87.045,63.473,86.566,63.647,85.43z M70.52,58.727
		c-0.077,0.572-0.147,1.101-0.043,1.64c0.165,0.857,0.647,1.538,1.227,2.157c0.226,0.241,0.616,0.284,0.879,0.127
		c-0.033-0.04-0.057-0.097-0.098-0.115c-1.058-0.468-1.387-1.44-1.638-2.438c-0.077-0.305,0.003-0.658,0.052-0.983
		C70.936,58.866,70.868,58.753,70.52,58.727z M76.478,62.684c0.334,0.155,0.7-0.005,1.486-0.627
		c0.605-0.479,1.237-1.869,1.122-2.473c-0.294-0.053-0.365,0.154-0.402,0.367c-0.069,0.408-0.236,0.771-0.491,1.088
		c-0.206,0.257-0.432,0.503-0.672,0.729C77.187,62.083,76.832,62.375,76.478,62.684z M85.099,87.919
		c-0.278-0.217-0.525-0.356-0.7-0.558c-0.329-0.38-0.716-0.722-0.891-1.221c-0.076-0.218-0.259-0.273-0.472-0.181
		c-0.229,0.1-0.16,0.282-0.106,0.448c0.22,0.687,0.615,1.217,1.341,1.417C84.507,87.89,84.729,88.098,85.099,87.919z M64.691,85.764
		c-0.224-0.063-0.427-0.119-0.609-0.17c-0.134,0.415-0.197,0.789-0.373,1.098c-0.168,0.293-0.455,0.518-0.69,0.772
		C63.875,87.233,64.477,86.743,64.691,85.764z M82.61,71.792c0.425,0.014,0.848,0.269,1.332,0.02
		C83.63,71.546,83.277,71.543,82.61,71.792z M92.512,73.167c0.036,0.262,0.056,0.405,0.077,0.56c0.313,0.007,0.494-0.087,0.578-0.42
		C92.963,73.262,92.79,73.226,92.512,73.167z M56.032,70.235c0.079,0.224,0.077,0.414,0.291,0.551
		c0.057-0.203,0.103-0.368,0.167-0.597C56.317,70.207,56.197,70.218,56.032,70.235z"/>
	<path fill-rule="evenodd" clip-rule="evenodd" fill="#FFFFFF" d="M69.888,120.541c0.099,0.081,0.185,0.137,0.254,0.209
		c0.606,0.628,1.526,0.522,2.126,0.121c0.233-0.155,0.389-0.382,0.351-0.665c-0.042-0.308-0.139-0.607-0.217-0.909
		c-0.039-0.15-0.105-0.296-0.131-0.447c-0.185-1.078-0.463-2.128-0.913-3.128c-0.007-0.016-0.018-0.031-0.02-0.049
		c-0.067-0.597-0.134-1.194-0.206-1.843c1.512-0.206,2.96-0.09,4.412-0.104c0.226,0.744,0.298,1.384-0.068,2.075
		c-0.451,0.854-0.77,1.77-0.688,2.776c0.016,0.193-0.076,0.41-0.164,0.595c-0.182,0.382-0.292,0.736-0.021,1.138
		c0.314,0.467,0.651,0.894,1.262,0.919c0.271,0.012,0.557-0.038,0.815-0.124c0.226-0.074,0.409-0.081,0.587,0.07
		c0.379,0.324,0.778,0.265,1.179,0.063c0.195-0.099,0.384-0.19,0.599-0.083c0.391,0.194,0.753,0.101,1.103-0.103
		c0.172-0.101,0.33-0.179,0.542-0.097c0.104,0.04,0.243,0.021,0.356-0.008c0.417-0.106,0.797-0.311,1.219-0.427
		c0.599-0.165,0.81-1.247,0.301-1.701c-0.531-0.475-0.713-1.04-0.858-1.68c-0.077-0.337-0.259-0.651-0.403-0.971
		c-0.207-0.457-0.349-0.916-0.193-1.426c0.123-0.405,0.168-0.474,0.589-0.401c1.021,0.176,2.049,0.334,3.053,0.584
		c1.789,0.447,3.577,0.909,5.338,1.457c1.406,0.438,2.78,0.98,4.021,1.816c0.597,0.401,0.874,0.979,0.97,1.619
		c0.092,0.61-0.32,1.072-0.802,1.389c-0.497,0.326-1.031,0.608-1.577,0.846c-2.576,1.121-5.277,1.832-8.032,2.33
		c-1.052,0.19-2.128,0.24-3.194,0.349c-0.454,0.047-0.909,0.098-1.364,0.116c-0.613,0.025-1.229,0.022-1.842,0.027
		c-0.632,0.005-1.264,0.017-1.896,0.002c-0.912-0.021-1.824-0.071-2.737-0.092c-1.001-0.022-2.003-0.015-3.003-0.043
		c-0.363-0.011-0.725-0.133-1.086-0.13c-1.829,0.019-3.653-0.074-5.471-0.252c-2.344-0.229-4.676-0.558-6.964-1.13
		c-1.055-0.265-2.087-0.616-3-1.241c-0.246-0.168-0.579-0.251-0.755-0.469c-0.361-0.443-0.706-0.923-0.939-1.441
		c-0.24-0.533-0.014-1.094,0.275-1.554c0.539-0.857,1.338-1.423,2.28-1.784c0.394-0.15,0.784-0.312,1.183-0.444
		c0.549-0.183,1.101-0.354,1.658-0.509c1.167-0.322,2.339-0.627,3.508-0.944c1.327-0.36,2.684-0.524,4.126-0.657
		c-0.022,0.19-0.079,0.359-0.054,0.515c0.116,0.726-0.208,1.324-0.515,1.935c-0.11,0.219-0.186,0.456-0.26,0.69
		c-0.079,0.25-0.153,0.478-0.372,0.669c-0.247,0.217-0.324,0.548-0.228,0.876c0.147,0.501,0.351,0.964,0.936,1.102
		c0.083,0.02,0.193,0.046,0.235,0.106c0.271,0.395,0.768,0.402,1.112,0.669c0.224,0.174,0.479,0.071,0.708-0.006
		c0.304-0.104,0.513-0.109,0.779,0.17c0.435,0.454,1.346,0.365,1.833-0.092C69.708,120.738,69.787,120.647,69.888,120.541z"/>
	<path fill-rule="evenodd" clip-rule="evenodd" fill="#FFFFFF" d="M75.669,47.644c-0.782-0.043-1.54-0.12-2.215-0.559
		c-0.588-0.381-1.211-0.708-1.816-1.063c-0.71-0.417-1.258-1.015-1.765-1.646c-0.666-0.829-1.18-1.745-1.295-2.824
		c-0.044-0.411,0.012-0.833,0.035-1.25c0.007-0.132,0.055-0.262,0.097-0.451c-0.419,0.123-0.492,0.441-0.561,0.725
		c-0.231,0.965-0.045,1.878,0.39,2.755c0.109,0.219,0.192,0.451,0.281,0.679c0.095,0.243,0.173,0.493,0.275,0.733
		c0.165,0.389,0.205,0.776,0.05,1.178c-0.246,0.64-0.605,1.187-1.209,1.547c-0.196,0.117-0.398,0.233-0.565,0.386
		c-0.165,0.15-0.323,0.327-0.424,0.522c-0.257,0.499-0.479,1.014-0.719,1.521c-0.013,0.027-0.053,0.042-0.119,0.091
		c-0.145-0.326-0.29-0.641-0.425-0.959c-0.16-0.376-0.327-0.732-0.756-0.896c-0.125-0.048-0.218-0.218-0.295-0.35
		c-0.422-0.721-0.852-1.439-1.242-2.177c-0.144-0.272-0.232-0.592-0.271-0.9c-0.228-1.835,0.302-3.403,1.714-4.632
		c0.222-0.193,0.487-0.351,0.756-0.474c0.722-0.331,1.473-0.073,2.043,0.712c0.107-0.222,0.257-0.41,0.286-0.615
		c0.095-0.675,0.458-1.248,0.672-1.875c0.146-0.426,0.424-0.761,0.791-1.028c0.284-0.207,0.546-0.442,0.823-0.657
		c0.787-0.611,1.73-0.841,2.668-1.072c1.775-0.436,3.563-0.377,5.326,0.018c1.34,0.3,2.614,0.826,3.789,1.55
		c0.293,0.18,0.532,0.457,0.771,0.713c0.508,0.547,1.088,0.977,1.757,1.322c1.164,0.6,1.918,1.614,2.578,2.713
		c0.596,0.992,0.799,2.085,0.931,3.209c0.078,0.665-0.06,1.299-0.211,1.927c-0.193,0.801-0.392,1.605-0.833,2.322
		c-0.143,0.232-0.288,0.427-0.555,0.53c-0.194,0.075-0.38,0.192-0.539,0.326c-0.125,0.105-0.235,0.252-0.297,0.404
		c-0.194,0.469-0.36,0.95-0.542,1.425c-0.022,0.06-0.068,0.111-0.143,0.23c-0.241-1.469-1.159-2.518-1.852-3.683
		c-0.106-0.178-0.284-0.313-0.404-0.484c-0.129-0.184-0.27-0.376-0.334-0.587c-0.195-0.641-0.14-0.743,0.446-1.078
		c0.445-0.254,0.846-0.56,1.158-0.979c-0.087-0.242-0.224-0.322-0.445-0.206c-0.078,0.041-0.152,0.089-0.223,0.141
		c-1.744,1.29-3.753,1.584-5.847,1.546c-0.261-0.005-0.524-0.063-0.777-0.129c-1.498-0.391-2.981-0.815-4.262-1.744
		c-0.36-0.261-0.758-0.471-1.176-0.663c0.432,0.925,1.14,1.608,1.957,2.169S74.827,47.119,75.669,47.644z"/>
	<path fill-rule="evenodd" clip-rule="evenodd" fill="#FFFFFF" d="M65.939,51.568c0.018,0.257,0.026,0.419,0.042,0.581
		c0.016,0.156,0.065,0.313,0.055,0.468c-0.021,0.344-0.362,0.517-0.641,0.325c-0.143-0.098-0.288-0.217-0.382-0.359
		c-0.498-0.75-0.96-1.528-0.98-2.459c-0.007-0.318,0.084-0.666,0.227-0.952c0.215-0.434,0.744-0.435,0.958,0.002
		c0.245,0.501,0.411,1.041,0.603,1.567c0.042,0.114,0.031,0.249,0.082,0.358c0.037,0.081,0.133,0.187,0.203,0.187
		c0.077,0,0.181-0.094,0.224-0.173c0.056-0.104,0.056-0.236,0.094-0.352c0.179-0.549,0.335-1.106,0.551-1.64
		c0.181-0.447,0.505-0.781,0.952-1.014c0.386-0.202,0.799-0.425,1.077-0.745c0.481-0.555,0.899-1.177,0.891-1.971
		c0-0.067,0-0.135,0-0.33c0.218,0.207,0.369,0.338,0.506,0.482c0.885,0.929,1.911,1.641,3.11,2.115
		c1.132,0.447,2.301,0.613,3.509,0.564c0.343-0.014,0.685-0.042,1.066-0.066c-0.102-0.35-0.317-0.408-0.564-0.469
		c-0.871-0.213-1.729-0.472-2.515-0.919c-0.07-0.04-0.129-0.1-0.177-0.196c1.141,0.177,2.248,0.597,3.408,0.475
		c1.129-0.119,2.248-0.325,3.402-0.497c0.016,0.064,0.049,0.161,0.061,0.26c0.071,0.575,0.333,1.03,0.695,1.495
		c0.634,0.813,1.188,1.694,1.7,2.591c0.198,0.346,0.194,0.81,0.269,1.222c0.056,0.305,0.101,0.613,0.127,0.922
		c0.01,0.114-0.026,0.241-0.074,0.348c-0.313,0.706-0.603,1.424-0.964,2.105c-0.227,0.428-0.525,0.833-0.858,1.185
		c-0.716,0.754-1.52,1.407-2.474,1.849c-0.749,0.346-1.483,0.732-2.257,1.01c-0.517,0.186-0.987,0.435-1.467,0.689
		c-0.826,0.438-1.678,0.479-2.533,0.067c-0.141-0.068-0.29-0.141-0.4-0.248c-1.047-1.004-2.327-1.677-3.501-2.5
		c-0.77-0.54-1.472-1.184-2.031-1.967c-0.486-0.681-0.865-1.396-1.048-2.22c-0.098-0.442-0.271-0.868-0.415-1.3
		C66.387,51.809,66.378,51.806,65.939,51.568z M78.942,55.727c-0.271-0.317-0.665-0.383-1.113-0.573
		c0.138,0.517-0.21,0.575-0.505,0.659c-1.163,0.331-2.289,0.181-3.382-0.296c-0.329-0.143-0.643-0.307-0.539-0.755
		c-0.405,0-0.725,0.164-1.144,0.567c0.097,0.252,0.302,0.232,0.52,0.223c0.145-0.006,0.315-0.003,0.433,0.065
		c1.333,0.779,2.743,1.029,4.243,0.621c0.464-0.126,0.871-0.445,1.386-0.405C78.862,55.834,78.888,55.786,78.942,55.727z
		 M77.734,50.99c-0.323,0.316-0.305,0.302-0.08,0.589c0.307,0.395,0.707,0.592,1.176,0.738c0.649,0.202,1.276,0.155,1.919,0.006
		c0.623-0.145,1.018-0.561,1.396-1.088c-0.257-0.206-0.445-0.188-0.684-0.026c-0.241,0.165-0.514,0.298-0.788,0.399
		c-0.262,0.096-0.546,0.125-0.817,0.197c-0.446,0.119-0.865,0.084-1.25-0.192C78.325,51.411,78.043,51.21,77.734,50.99z
		 M70.048,50.322c-0.282,0.488-0.274,0.516,0.033,0.815c0.508,0.494,1.138,0.727,1.812,0.888c0.916,0.218,1.626-0.23,2.33-0.694
		c0.061-0.04,0.081-0.241,0.035-0.316c-0.045-0.075-0.205-0.129-0.3-0.112c-0.131,0.023-0.247,0.125-0.372,0.188
		c-1.065,0.539-2.21,0.363-3.082-0.46C70.38,50.515,70.22,50.437,70.048,50.322z M74.194,57.878c0.119,0.378,0.392,0.27,0.575,0.211
		c0.457-0.145,0.863-0.067,1.263,0.162c0.065,0.038,0.143,0.056,0.214,0.083c0.023-0.025,0.047-0.049,0.071-0.074
		c-0.131-0.201-0.262-0.403-0.378-0.582c0.112-0.262,0.548-0.232,0.447-0.601c-0.857-0.19-1.398-0.187-1.733,0.012
		c0.044,0.144,0.088,0.29,0.133,0.436C74.575,57.651,74.386,57.764,74.194,57.878z M70.963,48.899
		c0.207,0.057,0.318,0.125,0.411,0.105c0.238-0.05,0.491-0.1,0.697-0.219c0.376-0.217,0.714-0.224,1.067,0.03
		c0.153,0.11,0.339,0.165,0.447-0.045c0.096-0.186,0.064-0.364-0.144-0.491c-0.535-0.327-1.077-0.416-1.623-0.049
		C71.55,48.411,71.306,48.63,70.963,48.899z M80.531,49.551c-0.138-0.292-0.138-0.292-0.666-0.704
		c-0.631-0.493-1.264-0.468-1.813,0.089c-0.065,0.066-0.078,0.222-0.054,0.322c0.011,0.045,0.173,0.078,0.264,0.073
		c0.08-0.004,0.16-0.063,0.236-0.106c0.319-0.178,0.642-0.138,0.955,0.003c0.174,0.079,0.332,0.192,0.5,0.285
		C80.138,49.613,80.327,49.685,80.531,49.551z M76.705,53.94c-0.024-0.412-0.274-0.94-0.612-1.31
		c-0.133,0.227-0.173,0.443-0.101,0.699c0.08,0.281,0.023,0.355-0.252,0.372c-0.227,0.014-0.455-0.016-0.683-0.011
		c-0.147,0.003-0.322-0.027-0.382,0.176C75.194,54.315,75.771,54.338,76.705,53.94z M64.309,49.671
		c0.534,0.427,0.547,0.428,0.477,1.127c-0.06,0.589,0.425,0.892,0.617,1.448c0.261-0.456,0.098-0.742-0.112-1
		c-0.148-0.182-0.219-0.345-0.106-0.57c0.161-0.32,0.039-0.619-0.106-0.905C64.888,49.395,64.753,49.376,64.309,49.671z
		 M73.822,49.904c-0.36-0.489-0.931-0.623-1.323-0.291c0.237,0.059,0.45,0.121,0.667,0.162C73.38,49.816,73.55,50.121,73.822,49.904
		z M78.995,49.945c0.604,0.13,1.094,0.148,1.303,0.047C79.901,49.645,79.374,49.625,78.995,49.945z"/>
	<path fill-rule="evenodd" clip-rule="evenodd" fill="#FFFFFF" d="M63.663,96.019c0.762,0.313,1.455,0.612,2.16,0.877
		c0.256,0.096,0.549,0.168,0.816,0.145c1.363-0.119,2.722-0.272,4.083-0.413c0.19-0.021,0.38-0.042,0.64-0.069
		c0.157,0.591,0.285,1.165,0.163,1.759c-0.134,0.651-0.302,1.298-0.473,1.941c-0.07,0.266-0.058,0.478,0.073,0.744
		c0.189,0.385,0.288,0.823,0.373,1.248c0.082,0.412,0.123,0.836,0.138,1.256c0.053,1.475-0.055,2.934-0.253,4.403
		c-0.219,1.622-0.786,3.171-0.895,4.807c-0.003,0.053-0.009,0.106-0.023,0.157c-0.163,0.594,0.276,1.139,0.165,1.709
		c-0.118,0.606,0.12,1.092,0.34,1.612c0.384,0.907,0.668,1.85,0.808,2.829c0.016,0.114,0.002,0.233,0.002,0.406
		c-0.488-0.103-0.962-0.229-1.393,0.207c0.496,0.325,1.019,0.026,1.55,0.209c0.067,0.145,0.021,0.334-0.123,0.506
		c-0.202,0.241-0.488,0.246-0.771,0.271c-0.294,0.025-0.442-0.134-0.648-0.332c-0.385-0.37-0.39-0.74-0.259-1.189
		c0.028-0.097-0.033-0.219-0.053-0.33c-0.124,0.033-0.282,0.03-0.364,0.108c-0.193,0.185-0.329,0.421-0.283,0.707
		c0.06,0.374-0.155,0.638-0.351,0.905c-0.182,0.247-0.457,0.257-0.72,0.188c-0.243-0.063-0.354-0.259-0.389-0.51
		c-0.049-0.343-0.021-0.664,0.179-0.959c0.065-0.098,0.118-0.205,0.176-0.308c-0.441-0.256-0.725,0.016-1.025,0.943
		c-0.227,0-0.458,0-0.688,0c-0.007,0.027-0.014,0.055-0.021,0.081c0.136,0.075,0.271,0.149,0.517,0.284
		c-0.226,0.083-0.371,0.188-0.485,0.162c-0.093-0.021-0.174-0.192-0.215-0.313c-0.05-0.146-0.042-0.313-0.079-0.466
		c-0.069-0.294-0.065-0.553,0.209-0.756c0.064-0.048,0.072-0.171,0.109-0.269c-0.636-0.074-0.917,0.305-0.941,1.255
		c-0.272-0.229-0.32-0.491-0.278-0.793c0.04-0.287,0.065-0.577,0.099-0.884c-0.307-0.031-0.461,0.144-0.55,0.35
		c-0.087,0.2-0.111,0.429-0.177,0.707c-0.276-0.269-0.24-0.513-0.146-0.761c0.219-0.572,0.439-1.143,0.667-1.711
		c0.098-0.244,0.192-0.494,0.326-0.719c0.232-0.393,0.406-0.776,0.194-1.24c-0.044-0.097-0.004-0.239,0.018-0.356
		c0.077-0.395,0.144-0.793,0.25-1.18c0.131-0.48,0.043-0.946-0.072-1.403c-0.188-0.747-0.409-1.485-0.62-2.227
		c-0.529-1.86-0.913-3.754-1.112-5.676c-0.08-0.775,0.043-1.573,0.08-2.361c0.01-0.21,0.05-0.419,0.066-0.629
		c0.054-0.708,0.001-1.396-0.286-2.065c-0.194-0.45-0.328-0.927-0.469-1.397C63.565,97.024,63.53,96.56,63.663,96.019z
		 M68.896,120.245c-0.133-0.276-0.133-0.276-0.459-0.133C68.63,120.168,68.763,120.207,68.896,120.245z"/>
	<path fill-rule="evenodd" clip-rule="evenodd" fill="#FFFFFF" d="M75.023,96.81c0.871,0.145,1.632,0.26,2.387,0.401
		c0.465,0.088,0.917,0.25,1.385,0.315c0.34,0.047,0.706,0.04,1.041-0.03c0.703-0.148,1.392-0.363,2.09-0.533
		c0.271-0.066,0.555-0.084,0.832-0.128c0.256-0.041,0.379,0.101,0.369,0.322c-0.016,0.348-0.032,0.706-0.127,1.037
		c-0.183,0.642-0.438,1.262-0.629,1.9c-0.107,0.357-0.165,0.681,0.073,1.086c0.222,0.378,0.215,0.918,0.225,1.388
		c0.041,1.972-0.05,3.929-0.644,5.838c-0.453,1.457-0.844,2.934-1.257,4.403c-0.036,0.127-0.05,0.269-0.039,0.399
		c0.051,0.593,0.133,1.182-0.17,1.747c-0.062,0.116-0.016,0.313,0.028,0.458c0.123,0.402,0.269,0.798,0.411,1.194
		c0.102,0.281,0.245,0.551,0.312,0.84c0.13,0.563,0.385,1.033,0.791,1.451c0.361,0.372,0.309,0.686-0.062,0.99
		c-0.312-0.367-0.619-0.736-0.935-1.098c-0.042-0.048-0.122-0.068-0.189-0.084c-0.045-0.01-0.098,0.013-0.188,0.026
		c0.049,0.28,0.298,0.384,0.442,0.561c0.399,0.49,0.195,1.019-0.494,1.15c-0.034-0.124-0.075-0.251-0.104-0.38
		c-0.082-0.376-0.27-0.688-0.569-0.923c-0.093-0.072-0.229-0.087-0.346-0.128c-0.029,0.038-0.059,0.077-0.087,0.115
		c0.108,0.144,0.209,0.295,0.326,0.431c0.208,0.239,0.257,0.497,0.105,0.776c-0.165,0.303-0.423,0.477-0.771,0.454
		c-0.09-0.006-0.172-0.128-0.258-0.196c0.082-0.068,0.153-0.165,0.247-0.197c0.122-0.041,0.262-0.029,0.436-0.045
		c-0.147-0.373-0.434-0.079-0.641-0.239c-0.21-0.29-0.119-0.885-0.772-0.981c0.093,0.352,0.173,0.657,0.261,0.994
		c-0.321,0.028-0.587,0.051-0.852,0.074c-0.005,0.037-0.01,0.073-0.015,0.11c0.217,0.079,0.433,0.157,0.652,0.238
		c-0.301,0.526-0.608,0.613-0.869,0.247c-0.076-0.107-0.101-0.299-0.066-0.43c0.193-0.733,0.157-0.835-0.588-1.219
		c0.055,0.134,0.08,0.218,0.122,0.293c0.05,0.089,0.114,0.17,0.166,0.248c-0.116,0.259-0.214,0.502-0.333,0.732
		c-0.146,0.282-0.509,0.413-0.926,0.354c-0.459-0.064-0.955-0.616-0.795-1.006c0.249-0.606,0.255-1.229,0.306-1.854
		c0.067-0.836,0.361-1.605,0.695-2.362c0.197-0.445,0.248-0.896,0.209-1.385c-0.032-0.412-0.004-0.849,0.099-1.249
		c0.203-0.795,0.132-1.573-0.056-2.344c-0.37-1.52-0.732-3.039-0.91-4.597c-0.117-1.029-0.211-2.063-0.088-3.098
		c0.068-0.572,0.207-1.138,0.338-1.7c0.076-0.326,0.119-0.622,0.024-0.97c-0.22-0.811-0.374-1.64-0.533-2.466
		C75.033,97.478,75.047,97.196,75.023,96.81z M75.312,119.398c0.414,0.327,0.821,0.411,1.292,0.493
		C76.35,119.324,75.928,119.157,75.312,119.398z"/>
	<path fill-rule="evenodd" clip-rule="evenodd" fill="#FFFFFF" d="M63.349,78.314c0.372-0.063,0.804-0.117,1.228-0.209
		c1.982-0.431,3.802-1.232,5.438-2.436c0.735-0.54,1.46-1.095,2.199-1.632c0.226-0.164,0.471-0.308,0.724-0.427
		c0.515-0.244,0.975-0.556,1.366-0.972c0.056-0.059,0.133-0.098,0.205-0.149c0.058,0.055,0.11,0.083,0.129,0.125
		c0.248,0.569,0.634,1.001,1.196,1.282c0.149,0.075,0.261,0.232,0.381,0.359c0.532,0.562,1.059,1.128,1.591,1.688
		c0.767,0.809,1.659,1.459,2.596,2.053c0.232,0.147,0.464,0.295,0.788,0.501c-0.231,0.059-0.343,0.105-0.456,0.112
		c-0.368,0.02-0.737,0.03-1.105,0.034c-1.845,0.019-3.69,0.08-5.533,0.035c-1.35-0.032-2.696-0.2-4.043-0.317
		c-0.455-0.039-0.909-0.092-1.359-0.164c-0.495-0.081-0.985-0.189-1.477-0.291c-0.275-0.057-0.543-0.06-0.945,0.069
		c0.22,0.135,0.349,0.282,0.459,0.27c0.336-0.038,0.608,0.13,0.903,0.214c1.156,0.333,2.35,0.412,3.536,0.54
		c1.768,0.191,3.543,0.202,5.318,0.146c1.245-0.038,2.491-0.084,3.735-0.146c0.49-0.023,0.981-0.078,1.467-0.152
		c0.613-0.093,1.097,0.215,1.621,0.399c-0.003,0.038-0.006,0.076-0.009,0.114c-0.128,0.03-0.256,0.077-0.386,0.087
		c-1.401,0.106-2.801,0.247-4.205,0.296c-1.28,0.045-2.564-0.003-3.847-0.025c-1.282-0.022-2.564-0.052-3.845-0.103
		c-0.507-0.021-1.012-0.112-1.519-0.161c-1.579-0.15-3.13-0.437-4.639-0.938c-0.214-0.071-0.445-0.099-0.671-0.117
		c-0.081-0.007-0.168,0.073-0.31,0.141c0.126,0.081,0.189,0.144,0.264,0.167c1.598,0.482,3.194,0.983,4.876,1.072
		c2.244,0.119,4.488,0.254,6.734,0.305c1.632,0.036,3.269-0.024,4.9-0.099c0.997-0.045,1.991-0.188,2.984-0.304
		c0.42-0.049,0.495-0.015,0.565,0.396c0.103,0.606,0.205,1.212,0.303,1.818c0.06,0.371,0.007,0.492-0.416,0.59
		c-1.317,0.303-2.636,0.61-3.966,0.847c-1.105,0.197-2.224,0.356-3.343,0.427c-1.558,0.098-3.114,0.229-4.683,0.073
		c-1.473-0.147-2.926-0.382-4.351-0.768c-1.287-0.348-2.558-0.755-3.835-1.136c-0.218-0.065-0.438-0.129-0.656-0.194
		c-0.194-0.059-0.284-0.176-0.257-0.392C63.119,80.356,63.229,79.366,63.349,78.314z"/>
	<path fill-rule="evenodd" clip-rule="evenodd" fill="#FFFFFF" d="M70.978,71.309c-0.065-0.254-0.124-0.502-0.192-0.747
		c-0.22-0.777-0.372-1.557-0.413-2.373c-0.026-0.507-0.099-1.009,0.042-1.498c0.155-0.538,0.366-1.06,0.56-1.586
		c0.029-0.079,0.095-0.148,0.155-0.212c0.612-0.648,1.231-1.291,1.837-1.945c0.225-0.243,0.453-0.305,0.788-0.078
		c-0.125,0.189-0.23,0.385-0.369,0.553c-0.447,0.542-0.913,1.067-1.357,1.611c-0.271,0.332-0.55,0.67-0.547,1.152
		c0.946-0.926,1.7-2.017,2.602-2.974c0.384,0.355,0.385,0.543,0.099,0.961c-0.496,0.724-0.977,1.458-1.463,2.189
		c-0.165,0.248-0.273,0.508-0.119,0.846c0.554-0.854,1.108-1.709,1.658-2.558c0.298,0.122,0.31,0.331,0.289,0.546
		c-0.059,0.594-0.097,1.192-0.193,1.78c-0.178,1.09-0.088,2.171,0.052,3.253c0.016,0.122,0.038,0.243,0.061,0.363
		c0.196,1.047-0.273,1.814-1.142,2.271c-0.833,0.438-1.58,0.98-2.321,1.538c-1.301,0.979-2.705,1.771-4.231,2.325
		c-0.97,0.353-1.942,0.685-2.97,0.888c-1.012,0.199-2.012,0.306-3.031,0.249c-0.857-0.048-1.712-0.144-2.566-0.23
		c-0.153-0.016-0.303-0.084-0.451-0.139c-0.222-0.082-0.306-0.249-0.336-0.484c-0.075-0.589-0.165-1.177-0.274-1.761
		c-0.123-0.655-0.317-1.299-0.399-1.958c-0.125-0.999,0.007-1.984,0.305-3.009c1.643,0.47,3.241,0.927,4.946,1.415
		c-0.431,0.378-0.805,0.682-1.15,1.014c-0.739,0.711-0.77,0.77-0.761,1.16c0.165-0.137,0.293-0.242,0.418-0.349
		c0.374-0.319,0.726-0.668,1.125-0.952c0.75-0.534,1.625-0.746,2.526-0.823c0.541-0.046,1.087-0.012,1.631-0.025
		c1.298-0.033,2.596-0.065,3.893-0.118c0.24-0.01,0.475-0.115,0.713-0.172C70.553,71.394,70.718,71.363,70.978,71.309z"/>
	<path fill-rule="evenodd" clip-rule="evenodd" fill="#FFFFFF" d="M89.295,75.26c0.051-0.722-0.641-1.083-0.871-1.708
		c0.111-0.058,0.209-0.135,0.318-0.162c0.909-0.22,1.83-0.352,2.769-0.304c0.48,0.025,0.521,0.09,0.539,0.573
		c0.055,1.475-0.242,2.901-0.586,4.319c-0.243,1.006-0.853,1.441-1.864,1.233c-1.143-0.234-2.271-0.159-3.411-0.066
		c-0.191,0.016-0.39,0.034-0.578,0.007c-1.023-0.15-2.026-0.351-3.019-0.686c-1.538-0.52-2.82-1.436-4.041-2.434
		c-0.811-0.663-1.477-1.502-2.214-2.255c-0.219-0.223-0.446-0.446-0.701-0.624c-0.551-0.383-0.835-0.897-0.788-1.56
		c0.039-0.559,0.086-1.125,0.218-1.667c0.256-1.051,0.133-2.095,0.047-3.143c-0.05-0.607-0.104-1.215-0.159-1.834
		c0.279-0.108,0.373,0.068,0.445,0.246c0.153,0.374,0.294,0.753,0.435,1.132c0.099,0.263,0.178,0.534,0.284,0.793
		c0.063,0.156,0.161,0.297,0.3,0.546c0.154-0.399,0.116-0.68,0.018-0.955c-0.298-0.823-0.515-1.682-1.119-2.364
		c-0.119-0.135-0.164-0.336-0.243-0.505c0.303-0.223,0.486-0.064,0.665,0.119c0.557,0.568,1.034,1.192,1.377,1.915
		c0.139,0.294,0.302,0.577,0.454,0.864c0.042-0.016,0.085-0.033,0.128-0.049c-0.064-0.221-0.113-0.447-0.194-0.661
		c-0.289-0.764-0.755-1.425-1.236-2.076c-0.031-0.042-0.074-0.079-0.097-0.125c-0.209-0.427-0.547-0.664-1.021-0.712
		c-0.083-0.009-0.164-0.045-0.311-0.088c0.103-0.1,0.164-0.211,0.23-0.215c0.35-0.02,0.685-0.011,1.004,0.208
		c0.979,0.67,1.586,1.63,2.12,2.646c0.414,0.788,0.556,1.642,0.657,2.528c0.103,0.895,0.037,1.745-0.186,2.6
		c-0.018,0.067-0.016,0.14-0.022,0.209c-0.063,0.644,0.004,0.723,0.625,0.851c0.446,0.092,0.882,0.249,1.331,0.312
		c1.148,0.16,2.299,0.306,3.452,0.415c1.385,0.13,2.627,0.625,3.757,1.407c0.342,0.236,0.616,0.568,0.917,0.861
		c0.158,0.154,0.306,0.318,0.458,0.479C89.219,75.309,89.257,75.284,89.295,75.26z"/>
	<path fill-rule="evenodd" clip-rule="evenodd" fill="#FFFFFF" d="M73.388,87.433c0.275,0.028,0.459,0.048,0.643,0.067
		c0.212,0.506-0.191,0.974-0.006,1.517c0.284-0.384,0.422-0.746,0.5-1.14c0.082-0.417,0.147-0.494,0.537-0.504
		c2.354-0.06,4.635-0.554,6.905-1.119c0.152-0.038,0.309-0.062,0.465-0.086c0.031-0.004,0.066,0.019,0.128,0.037
		c0.066,0.179,0.13,0.378,0.215,0.567c0.258,0.58,0.774,0.891,1.281,1.208c0.074,0.047,0.156,0.083,0.238,0.113
		c0.342,0.124,0.487,0.295,0.497,0.727c0.044,1.877,0.166,3.752,0.258,5.628c0.002,0.05-0.021,0.102-0.047,0.211
		c-0.431,0.118-0.884,0.243-1.337,0.368c-0.44,0.122-0.881,0.241-1.32,0.365c-0.437,0.123-0.922,0.106-1.41,0.475
		c0.201,0.009,0.282,0.03,0.355,0.014c1.062-0.248,2.123-0.492,3.181-0.755c0.561-0.139,0.646-0.095,0.749,0.503
		c-0.31,0.163-4.806,1.128-5.196,1.106c-0.022-0.088-0.062-0.184-0.067-0.281c-0.017-0.314-0.015-0.622-0.182-0.917
		c-0.079-0.14-0.053-0.342-0.063-0.517c-0.047-0.824-0.086-1.649-0.137-2.474c-0.011-0.169-0.062-0.336-0.177-0.503
		c-0.011,0.143-0.031,0.284-0.029,0.426c0.022,1.159,0.046,2.319,0.078,3.479c0.006,0.191,0.044,0.385,0.091,0.571
		c0.064,0.261-0.037,0.424-0.282,0.468c-0.2,0.037-0.418,0.053-0.615,0.014c-1.241-0.242-2.477-0.512-3.717-0.751
		c-0.28-0.055-0.414-0.138-0.454-0.453c-0.08-0.624-0.276-1.234-0.338-1.859c-0.083-0.836-0.143-1.684-0.102-2.521
		c0.031-0.634-0.044-1.191-0.46-1.67c-0.181-0.209-0.211-0.412-0.175-0.676c0.037-0.273-0.003-0.557-0.006-0.835
		C73.386,87.996,73.388,87.757,73.388,87.433z M74.978,95.262c0.127,0.317,0.292,0.382,0.703,0.445
		c0.711,0.107,1.421,0.225,2.129,0.348c0.332,0.059,0.888,0.033,1.314-0.108C77.69,95.71,76.334,95.486,74.978,95.262z"/>
	<path fill-rule="evenodd" clip-rule="evenodd" fill="#FFFFFF" d="M66.039,96.557c-0.306-0.14-0.58-0.25-0.841-0.386
		c-0.966-0.501-1.927-1.011-2.892-1.514c-0.348-0.182-0.356-0.179-0.269-0.556c0.091-0.394,0.208-0.78,0.291-1.175
		c0.104-0.496,0.202-0.995,0.269-1.497c0.07-0.521,0.104-1.048,0.147-1.572c0.048-0.598,0.081-1.193-0.221-1.749
		c-0.021-0.038,0.006-0.102,0.013-0.183c1.482,0.15,2.194-0.734,2.627-2.039c0.348,0.121,0.669,0.244,0.997,0.347
		c1.041,0.326,2.104,0.553,3.184,0.704c1.008,0.143,2.014,0.3,3.023,0.43c0.288,0.037,0.451,0.117,0.457,0.441
		c0.01,0.488,0.078,0.976,0.08,1.464c0.001,0.422,0.045,0.788,0.417,1.074c0.263,0.202,0.344,0.49,0.238,0.85
		c-0.276,0.941-0.529,1.892-0.761,2.845c-0.14,0.575-0.224,1.163-0.337,1.764c-0.736,0.122-1.406,0.252-2.082,0.341
		c-1.062,0.14-2.127,0.252-3.191,0.373c-0.104,0.013-0.21,0.02-0.315,0.017c-0.292-0.008-0.345-0.087-0.33-0.391
		c0.096-1.941,0.189-3.882,0.277-5.824c0.013-0.284-0.012-0.57-0.084-0.855c-0.297,1.158-0.217,2.343-0.321,3.513
		C66.312,94.144,66.172,95.306,66.039,96.557z M67.98,95.524c1.362-0.039,2.708-0.152,4.018-0.557
		c-0.073-0.078-0.152-0.128-0.221-0.116C70.51,95.071,69.245,95.299,67.98,95.524z M63.922,94.304
		c-0.01,0.026-0.021,0.053-0.031,0.079c0.158,0.083,0.316,0.166,0.474,0.248c0.014-0.029,0.027-0.06,0.041-0.089
		C64.245,94.463,64.084,94.383,63.922,94.304z M65.713,95.336c0.021-0.019,0.041-0.037,0.062-0.056
		c-0.058-0.039-0.116-0.079-0.174-0.118c-0.011,0.015-0.021,0.028-0.032,0.043C65.617,95.249,65.665,95.293,65.713,95.336z"/>
	<path fill-rule="evenodd" clip-rule="evenodd" fill="#FFFFFF" d="M90.939,68.611c-2.343,0.502-4.514,1.153-6.498,2.512
		c-0.015-0.2-0.038-0.328-0.032-0.454c0.054-1.083,0.362-2.107,0.731-3.117c0.077-0.211,0.076-0.212-0.004-0.585
		c-0.222,0.39-0.404,0.71-0.645,1.132c-0.197-0.362-0.346-0.635-0.494-0.908c-0.03,0.008-0.061,0.016-0.092,0.024
		c0,0.283,0,0.566,0,0.843c-0.482,0.208-3.639,0.357-4.455,0.224c-0.275-0.918-0.531-1.828-0.821-2.725
		c-0.289-0.896-0.887-1.615-1.501-2.367c0.252-0.175,0.447-0.319,0.65-0.451c0.952-0.624,1.447-1.548,1.722-2.616
		c0.04-0.153,0.065-0.31,0.093-0.465c0.043-0.245,0.173-0.4,0.411-0.499c0.42-0.174,0.827-0.379,1.211-0.559
		c0.412,0.125,0.818,0.221,1.203,0.373c0.848,0.334,1.69,0.682,2.521,1.053c0.4,0.179,0.464,0.603,0.534,0.975
		c0.074,0.393,0.041,0.807,0.121,1.198c0.103,0.502-0.003,0.971-0.095,1.455c-0.067,0.351-0.062,0.714-0.094,1.14
		c0.367-0.279,0.569-0.897,0.771-1.799c0.149-0.67-0.17-1.271-0.205-1.934c0.323-0.044,0.441,0.176,0.563,0.345
		c0.489,0.686,0.994,1.363,1.436,2.08c0.836,1.361,1.635,2.745,2.443,4.124C90.59,67.907,90.737,68.223,90.939,68.611z"/>
	<path fill-rule="evenodd" clip-rule="evenodd" fill="#FFFFFF" d="M63.779,68.598c-0.798-0.659-1.632-1.163-2.548-1.524
		c-0.892-0.352-1.785-0.703-2.718-1.07c1.452-2.414,2.894-4.864,5.134-6.832c0.034,0.155,0.062,0.216,0.059,0.274
		c-0.08,1.361-0.156,2.723-0.249,4.083c-0.029,0.424,0.189,0.741,0.312,1.1c0.044-0.006,0.088-0.012,0.132-0.018
		c0.037-0.303,0.082-0.605,0.107-0.909c0.054-0.647,0.112-1.294,0.143-1.943s0.04-1.298,0.038-1.948
		c-0.002-0.749,0.178-1.06,0.879-1.276c1.172-0.36,2.353-0.691,3.534-1.021c0.098-0.027,0.245,0.02,0.336,0.081
		c0.405,0.273,0.798,0.564,1.235,0.877c-0.117,0.367-0.239,0.747-0.37,1.155c0.299,0.232,0.315,0.594,0.334,0.936
		c0.054,0.963,0.418,1.774,1.146,2.403c0.173,0.15,0.422,0.212,0.674,0.333c-0.489,0.701-1.239,1.188-1.563,2.024
		c-0.312,0.803-0.66,1.584-0.63,2.455c-0.546,0.11-4.507-0.249-5.051-0.45c-0.001-0.432,0.375-0.81,0.268-1.325
		c-0.385,0.146-0.447,0.493-0.648,0.725c-0.109-0.272-0.208-0.52-0.307-0.767c-0.041,0.002-0.081,0.005-0.121,0.007
		c-0.042,0.099-0.121,0.198-0.118,0.295c0.014,0.456,0.041,0.912,0.081,1.366C63.894,67.941,63.93,68.247,63.779,68.598z"/>
	<path fill-rule="evenodd" clip-rule="evenodd" fill="#FFFFFF" d="M65.534,113.006c0,0.28,0,0.484,0,0.717
		c-0.441,0.052-0.873,0.088-1.3,0.154c-0.832,0.13-1.671,0.232-2.489,0.427c-1.263,0.3-2.51,0.665-3.764,1.005
		c-0.542,0.146-1.096,0.262-1.622,0.455c-0.903,0.333-1.807,0.675-2.674,1.088c-0.91,0.434-1.64,1.083-1.917,2.111
		c-0.168,0.624-0.12,1.223,0.296,1.748c0.349,0.439,0.705,0.873,1.074,1.295c0.086,0.1,0.236,0.145,0.357,0.213
		c1.787,1.002,3.736,1.5,5.728,1.89c2.141,0.42,4.298,0.667,6.471,0.858c2.35,0.208,4.701,0.255,7.054,0.308
		c2.23,0.051,4.461,0.056,6.693,0.065c0.42,0.002,0.839-0.08,1.26-0.11c1.665-0.117,3.328-0.258,4.969-0.583
		c0.671-0.134,1.341-0.285,2.001-0.468c1.795-0.494,3.614-0.919,5.292-1.764c0.518-0.261,1.039-0.521,1.525-0.833
		c0.575-0.371,0.979-0.901,1.184-1.565c0.09-0.294,0.111-0.583-0.142-0.833c-0.083-0.082-0.151-0.207-0.17-0.321
		c-0.07-0.447-0.387-0.703-0.719-0.934c-0.796-0.554-1.646-0.997-2.562-1.337c-1.949-0.722-3.939-1.297-5.966-1.739
		c-1.423-0.311-2.867-0.522-4.301-0.78c-0.137-0.025-0.29-0.034-0.403-0.104c-0.206-0.127-0.239-0.367-0.165-0.56
		c0.037-0.098,0.255-0.19,0.383-0.18c0.506,0.043,1.012,0.106,1.512,0.2c1.362,0.254,2.734,0.475,4.078,0.808
		c1.62,0.402,3.182,0.985,4.724,1.639c1.146,0.485,2.179,1.13,3.201,1.81c0.379,0.252,0.782,0.505,1.076,0.843
		c0.779,0.894,0.859,1.757,0.075,2.758c-0.673,0.86-1.601,1.345-2.596,1.737c-0.916,0.362-1.846,0.662-2.805,0.896
		c-1.057,0.257-2.079,0.656-3.134,0.92c-3.006,0.753-6.045,1.284-9.158,1.325c-1.982,0.025-3.963,0.1-5.943-0.04
		c-1.119-0.079-2.239-0.146-3.356-0.236c-1.68-0.135-3.363-0.242-5.036-0.439c-1.778-0.209-3.552-0.477-5.316-0.78
		c-1.539-0.266-3.062-0.623-4.594-0.93c-0.702-0.141-1.316-0.476-1.926-0.823c-0.305-0.174-0.605-0.354-0.9-0.545
		c-1.082-0.702-1.485-1.776-1.622-2.991c-0.013-0.119-0.005-0.252,0.033-0.365c0.313-0.938,0.76-1.787,1.706-2.235
		c1.746-0.829,3.506-1.621,5.388-2.107c0.747-0.193,1.47-0.49,2.224-0.646c1.787-0.369,3.585-0.689,5.382-1.013
		C64.908,112.965,65.193,113.006,65.534,113.006z"/>
	<path fill-rule="evenodd" clip-rule="evenodd" fill="#FFFFFF" d="M73.646,93.047c0.033,0.369,0.06,0.753,0.102,1.136
		c0.068,0.61,0.133,1.223,0.227,1.829c0.031,0.202,0.092,0.452,0.232,0.573c0.255,0.221,0.24,0.47,0.251,0.753
		c0.032,0.776,0.149,1.542,0.446,2.264c0.229,0.556,0.25,1.084,0.118,1.685c-0.328,1.483-0.324,2.993-0.213,4.51
		c0.136,1.85,0.602,3.634,0.964,5.439c0.05,0.249,0.042,0.51,0.063,0.793c-1.554,0.038-3.037,0.075-4.549,0.112
		c-0.108-0.392-0.065-0.788,0.013-1.181c0.131-0.654,0.295-1.302,0.409-1.959c0.107-0.621,0.145-1.254,0.251-1.876
		c0.182-1.061,0.229-2.131,0.193-3.2c-0.033-1.014-0.061-2.045-0.506-2.989c-0.223-0.472-0.174-0.927,0.01-1.368
		c0.328-0.784,0.353-1.605,0.371-2.432c0.002-0.117-0.057-0.235-0.087-0.354c-0.081-0.305-0.054-0.351,0.264-0.438
		c0.05-0.014,0.105-0.013,0.155-0.027c0.377-0.107,0.379-0.155,0.44-0.538c0.153-0.947,0.375-1.878,0.765-2.761
		C73.567,93.018,73.598,93.029,73.646,93.047z"/>
	<path fill-rule="evenodd" clip-rule="evenodd" fill="#FFFFFF" d="M74.613,85.374c-1.004-0.101-1.929-0.19-2.853-0.286
		c-1.03-0.106-2.072-0.153-3.085-0.345c-1.047-0.198-2.12-0.266-3.142-0.613c-0.661-0.226-1.352-0.364-2.028-0.545
		c-0.118-0.031-0.236-0.069-0.349-0.118c-0.468-0.203-0.579-0.51-0.36-0.967c0.103-0.215,0.269-0.277,0.474-0.179
		c1.537,0.738,3.221,0.945,4.848,1.36c2.525,0.644,5.093,0.749,7.686,0.65c2.505-0.096,4.96-0.476,7.383-1.093
		c0.374-0.096,0.735-0.237,1.104-0.352c0.154-0.048,0.327-0.086,0.41,0.104c0.085,0.197,0.061,0.39-0.163,0.486
		c-0.401,0.176-0.796,0.389-1.216,0.497c-0.713,0.186-1.441,0.312-2.167,0.445c-1.068,0.196-2.137,0.401-3.212,0.558
		C76.815,85.141,75.68,85.249,74.613,85.374z"/>
	<path fill-rule="evenodd" clip-rule="evenodd" fill="#FFFFFF" d="M85.038,84.433c-0.048,0.034-0.098,0.091-0.159,0.111
		c-0.983,0.327-1.967,0.651-2.952,0.972c-0.233,0.076-0.474,0.134-0.71,0.202c-0.574,0.166-1.15,0.28-1.755,0.322
		c-0.732,0.052-1.464,0.188-2.183,0.348c-1.647,0.365-3.313,0.399-4.981,0.304c-1.156-0.066-2.313-0.174-3.458-0.341
		c-0.726-0.105-1.436-0.335-2.143-0.543c-0.621-0.184-1.243-0.382-1.837-0.637c-0.46-0.198-0.876-0.499-1.317-0.743
		c-0.116-0.064-0.251-0.102-0.382-0.132c-0.151-0.035-0.314-0.029-0.461-0.077c-0.289-0.096-0.261-0.275-0.1-0.497
		c0.675,0.223,1.33,0.469,2.002,0.653c0.619,0.17,1.257,0.269,1.884,0.409c0.495,0.111,0.981,0.271,1.481,0.351
		c1.022,0.165,2.055,0.264,3.076,0.439c1.959,0.336,3.91,0.253,5.876,0.039c2.033-0.22,4.026-0.619,6.01-1.084
		c0.372-0.087,0.723-0.262,1.082-0.4c0.114-0.045,0.221-0.107,0.335-0.152C84.87,83.769,84.952,83.821,85.038,84.433z"/>
	<path fill-rule="evenodd" clip-rule="evenodd" fill="#FFFFFF" d="M64.547,68.186c0.386,0.018,0.716,0.037,1.048,0.048
		c1.193,0.039,2.385,0.081,3.579,0.111c0.539,0.014,0.635,0.094,0.727,0.61c0.09,0.501,0.208,0.996,0.312,1.495
		c0.021,0.099,0.03,0.2,0.055,0.364c-2.029-0.082-4.013-0.22-6.034-0.635C64.168,69.562,64.428,68.919,64.547,68.186z"/>
	<path fill-rule="evenodd" clip-rule="evenodd" fill="#FFFFFF" d="M63.431,70.333c0,0.218,0,0.444,0,0.689
		c-0.329,0.232-0.68,0.309-1.08,0.187c-0.788-0.24-1.576-0.481-2.37-0.701c-1.197-0.332-2.399-0.645-3.671-0.985
		c0.31-0.648,0.672-1.265,1.061-1.839C59.54,68.27,61.453,69.291,63.431,70.333z"/>
	<path fill-rule="evenodd" clip-rule="evenodd" fill="#FFFFFF" d="M93.038,72.424c-0.394,0-0.672,0.014-0.949-0.002
		c-0.671-0.039-1.329,0.034-1.979,0.202c-0.661,0.17-1.319,0.35-1.983,0.505c-0.142,0.033-0.339,0.031-0.448-0.044
		c-0.603-0.412-1.271-0.657-1.984-0.818c0.017-0.262,0.221-0.298,0.362-0.356c0.811-0.331,1.614-0.687,2.447-0.954
		c0.916-0.293,1.85-0.54,2.816-0.625c0.46-0.041,0.543-0.025,0.772,0.363c0.231,0.392,0.462,0.785,0.686,1.182
		C92.86,72.023,92.924,72.181,93.038,72.424z"/>
	<path fill-rule="evenodd" clip-rule="evenodd" fill="#FFFFFF" d="M79.362,69.048c1.601-0.083,3.133-0.163,4.723-0.246
		c0,0.407,0.008,0.769-0.004,1.13c-0.007,0.21-0.046,0.418-0.069,0.628c-0.05,0.448-0.144,0.572-0.579,0.586
		c-1.122,0.037-2.245,0.05-3.368,0.07c-0.327,0.005-0.655,0-1.056,0C79.136,70.438,79.25,69.742,79.362,69.048z"/>
	<path fill-rule="evenodd" clip-rule="evenodd" fill="#FFFFFF" d="M71.47,59.143c0.475,0.34,0.926,0.591,1.288,0.935
		c0.961,0.915,2.067,1.117,3.312,0.793c0.481-0.125,0.921-0.333,1.312-0.645c0.191-0.152,0.385-0.308,0.724-0.275
		c-0.023,0.135-0.015,0.275-0.072,0.379c-0.435,0.791-1.039,1.41-1.876,1.774c-0.123,0.054-0.274,0.093-0.403,0.075
		c-0.789-0.11-0.788-0.116-1.432,0.261c-0.081-0.076-0.17-0.156-0.256-0.238c-0.218-0.208-0.433-0.337-0.743-0.134
		c-0.297,0.194-0.571-0.033-0.76-0.195c-0.737-0.63-1.147-1.444-1.185-2.427C71.376,59.383,71.415,59.319,71.47,59.143z"/>
	<path fill-rule="evenodd" clip-rule="evenodd" fill="#FFFFFF" d="M91.443,69.726c-0.129,0.037-0.227,0.09-0.324,0.09
		c-0.697-0.002-1.353,0.202-1.995,0.431c-1.367,0.489-2.764,0.914-4.005,1.7c-0.059,0.037-0.129,0.098-0.185,0.089
		c-0.144-0.024-0.325-0.042-0.414-0.135c-0.141-0.149-0.016-0.302,0.127-0.386c0.677-0.4,1.335-0.846,2.049-1.168
		c0.796-0.359,1.637-0.623,2.472-0.887c0.481-0.152,0.988-0.227,1.484-0.333C91.192,69.011,91.291,69.081,91.443,69.726z"/>
	<path fill-rule="evenodd" clip-rule="evenodd" fill="#FFFFFF" d="M84.803,53.024c-0.114-0.23,0.099-0.418,0.229-0.644
		c0.207-0.358,0.4-0.714,0.504-1.136c0.102-0.409,0.372-0.783,0.6-1.152c0.115-0.188,0.323-0.197,0.513-0.079
		c0.246,0.153,0.458,0.341,0.441,0.663c-0.017,0.312-0.031,0.627-0.097,0.93c-0.063,0.288-0.214,0.557-0.285,0.844
		c-0.172,0.69-0.752,0.983-1.273,1.321c-0.269,0.175-0.565,0.007-0.628-0.313C84.783,53.341,84.803,53.215,84.803,53.024z
		 M86.673,50.769c-0.237-0.191-0.398-0.095-0.503,0.045c-0.254,0.339-0.496,0.7-0.373,1.155c0.069,0.256,0.017,0.441-0.187,0.602
		c-0.071,0.057-0.122,0.139-0.202,0.233c0.586,0.048,0.888-0.248,0.753-0.777c-0.114-0.444,0.054-0.742,0.317-1.04
		C86.535,50.924,86.591,50.861,86.673,50.769z"/>
	<path fill-rule="evenodd" clip-rule="evenodd" fill="#FFFFFF" d="M57.744,67.17c0.306-0.585,0.319-0.613,0.853-0.471
		c1.791,0.479,3.5,1.139,4.988,2.313c-0.012,0.125-0.018,0.246-0.036,0.366c-0.013,0.084-0.041,0.166-0.081,0.321
		C61.686,68.544,59.866,67.557,57.744,67.17z"/>
	<path fill-rule="evenodd" clip-rule="evenodd" fill="#FFFFFF" d="M71.125,113.415c0-0.301,0-0.52,0-0.751
		c1.551-0.22,3.068-0.208,4.582-0.163c0.09,0.627-0.003,0.747-0.548,0.745C73.828,113.243,72.497,113.193,71.125,113.415z"/>
	<path fill-rule="evenodd" clip-rule="evenodd" fill="#FFFFFF" d="M83.739,85.746c0.182-0.078,0.319-0.152,0.466-0.199
		c0.402-0.126,0.439-0.088,0.636,0.3c0.198,0.39,0.427,0.765,0.653,1.14c0.097,0.16,0.176,0.313,0.036,0.479
		c-0.142,0.17-0.301,0.103-0.476,0.036C84.249,87.196,83.995,86.5,83.739,85.746z"/>
	<path fill-rule="evenodd" clip-rule="evenodd" fill="#FFFFFF" d="M63.647,85.43c-0.175,1.137-0.519,1.615-1.447,1.705
		c-0.083-0.143-0.174-0.302-0.22-0.381c0.256-0.429,0.488-0.771,0.675-1.138c0.26-0.51,0.269-0.526,0.784-0.298
		C63.502,85.347,63.561,85.383,63.647,85.43z"/>
	<path fill-rule="evenodd" clip-rule="evenodd" fill="#FFFFFF" d="M70.52,58.727c0.348,0.026,0.416,0.14,0.378,0.388
		c-0.048,0.325-0.128,0.678-0.052,0.983c0.251,0.998,0.581,1.97,1.638,2.438c0.042,0.019,0.065,0.075,0.098,0.115
		c-0.263,0.156-0.653,0.114-0.879-0.127c-0.58-0.62-1.062-1.3-1.227-2.157C70.373,59.827,70.443,59.298,70.52,58.727z"/>
	<path fill-rule="evenodd" clip-rule="evenodd" fill="#FFFFFF" d="M76.478,62.684c0.354-0.309,0.709-0.601,1.043-0.916
		c0.24-0.227,0.466-0.472,0.672-0.729c0.255-0.317,0.422-0.68,0.491-1.088c0.037-0.213,0.108-0.42,0.402-0.367
		c0.115,0.604-0.517,1.994-1.122,2.473C77.178,62.678,76.812,62.839,76.478,62.684z"/>
	<path fill-rule="evenodd" clip-rule="evenodd" fill="#FFFFFF" d="M85.099,87.919c-0.37,0.179-0.592-0.029-0.828-0.094
		c-0.726-0.2-1.121-0.73-1.341-1.417c-0.054-0.166-0.123-0.349,0.106-0.448c0.213-0.093,0.396-0.037,0.472,0.181
		c0.175,0.499,0.562,0.841,0.891,1.221C84.573,87.563,84.82,87.702,85.099,87.919z"/>
	<path fill-rule="evenodd" clip-rule="evenodd" fill="#FFFFFF" d="M64.691,85.764c-0.214,0.979-0.816,1.47-1.672,1.7
		c0.235-0.255,0.522-0.479,0.69-0.772c0.176-0.309,0.239-0.683,0.373-1.098C64.264,85.645,64.467,85.701,64.691,85.764z"/>
	<path fill-rule="evenodd" clip-rule="evenodd" fill="#FFFFFF" d="M82.61,71.792c0.667-0.249,1.02-0.246,1.332,0.02
		C83.458,72.061,83.035,71.806,82.61,71.792z"/>
	<path fill-rule="evenodd" clip-rule="evenodd" fill="#FFFFFF" d="M92.512,73.167c0.278,0.059,0.451,0.096,0.655,0.139
		c-0.084,0.333-0.265,0.428-0.578,0.42C92.567,73.571,92.548,73.428,92.512,73.167z"/>
	<path fill-rule="evenodd" clip-rule="evenodd" fill="#FFFFFF" d="M56.032,70.235c0.166-0.017,0.286-0.028,0.458-0.046
		c-0.064,0.229-0.11,0.394-0.167,0.597C56.108,70.649,56.11,70.458,56.032,70.235z"/>
	<path fill-rule="evenodd" clip-rule="evenodd" d="M78.942,55.727c-0.055,0.06-0.08,0.108-0.102,0.106
		c-0.515-0.04-0.922,0.279-1.386,0.405c-1.5,0.408-2.91,0.158-4.243-0.621c-0.118-0.069-0.289-0.071-0.433-0.065
		c-0.217,0.009-0.423,0.029-0.52-0.223c0.419-0.403,0.739-0.567,1.144-0.567c-0.104,0.449,0.21,0.612,0.539,0.755
		c1.093,0.477,2.219,0.626,3.382,0.296c0.295-0.083,0.643-0.142,0.505-0.659C78.277,55.344,78.671,55.41,78.942,55.727z"/>
	<path fill-rule="evenodd" clip-rule="evenodd" d="M77.734,50.99c0.309,0.221,0.591,0.421,0.872,0.624
		c0.385,0.276,0.804,0.311,1.25,0.192c0.271-0.072,0.556-0.102,0.817-0.197c0.274-0.101,0.547-0.234,0.788-0.399
		c0.238-0.162,0.427-0.18,0.684,0.026c-0.379,0.527-0.773,0.943-1.396,1.088c-0.643,0.149-1.27,0.196-1.919-0.006
		c-0.469-0.146-0.869-0.344-1.176-0.738C77.43,51.292,77.411,51.306,77.734,50.99z"/>
	<path fill-rule="evenodd" clip-rule="evenodd" d="M70.048,50.322c0.172,0.115,0.333,0.193,0.456,0.31
		c0.872,0.823,2.017,0.999,3.082,0.46c0.125-0.063,0.241-0.165,0.372-0.188c0.095-0.017,0.255,0.038,0.3,0.112
		c0.046,0.075,0.026,0.276-0.035,0.316c-0.704,0.464-1.414,0.912-2.33,0.694c-0.674-0.161-1.304-0.394-1.812-0.888
		C69.774,50.838,69.766,50.81,70.048,50.322z"/>
	<path fill-rule="evenodd" clip-rule="evenodd" d="M74.194,57.878c0.192-0.114,0.381-0.227,0.592-0.353
		c-0.045-0.146-0.089-0.292-0.133-0.436c0.335-0.199,0.876-0.202,1.733-0.012c0.101,0.369-0.335,0.339-0.447,0.601
		c0.116,0.179,0.247,0.381,0.378,0.582c-0.024,0.025-0.048,0.049-0.071,0.074c-0.071-0.027-0.148-0.045-0.214-0.083
		c-0.399-0.229-0.806-0.307-1.263-0.162C74.586,58.148,74.313,58.256,74.194,57.878z"/>
	<path fill-rule="evenodd" clip-rule="evenodd" d="M70.963,48.899c0.342-0.27,0.587-0.488,0.856-0.669
		c0.546-0.367,1.087-0.277,1.623,0.049c0.208,0.127,0.24,0.305,0.144,0.491c-0.108,0.21-0.294,0.155-0.447,0.045
		c-0.353-0.254-0.691-0.247-1.067-0.03c-0.207,0.119-0.459,0.169-0.697,0.219C71.282,49.024,71.17,48.956,70.963,48.899z"/>
	<path fill-rule="evenodd" clip-rule="evenodd" d="M80.531,49.551c-0.204,0.134-0.394,0.063-0.578-0.039
		c-0.168-0.092-0.326-0.206-0.5-0.285c-0.313-0.141-0.636-0.182-0.955-0.003c-0.076,0.042-0.156,0.102-0.236,0.106
		c-0.091,0.005-0.253-0.027-0.264-0.073c-0.024-0.1-0.012-0.256,0.054-0.322c0.55-0.557,1.183-0.582,1.813-0.089
		C80.394,49.258,80.394,49.258,80.531,49.551z"/>
	<path fill-rule="evenodd" clip-rule="evenodd" d="M76.705,53.94c-0.934,0.398-1.511,0.375-2.029-0.074
		c0.06-0.203,0.235-0.173,0.382-0.176c0.228-0.005,0.456,0.024,0.683,0.011c0.275-0.016,0.332-0.09,0.252-0.372
		c-0.072-0.256-0.032-0.473,0.101-0.699C76.431,53,76.681,53.529,76.705,53.94z"/>
	<path fill-rule="evenodd" clip-rule="evenodd" d="M64.309,49.671c0.444-0.295,0.579-0.276,0.769,0.1
		c0.145,0.287,0.267,0.585,0.106,0.905c-0.113,0.226-0.042,0.389,0.106,0.57c0.21,0.258,0.374,0.544,0.112,1
		c-0.191-0.556-0.676-0.859-0.617-1.448C64.856,50.1,64.842,50.098,64.309,49.671z"/>
	<path fill-rule="evenodd" clip-rule="evenodd" d="M73.822,49.904c-0.272,0.216-0.442-0.088-0.656-0.128
		c-0.217-0.042-0.431-0.104-0.667-0.162C72.892,49.281,73.462,49.415,73.822,49.904z"/>
	<path fill-rule="evenodd" clip-rule="evenodd" d="M78.995,49.945c0.379-0.319,0.906-0.3,1.303,0.047
		C80.089,50.093,79.6,50.075,78.995,49.945z"/>
	<path fill-rule="evenodd" clip-rule="evenodd" d="M68.896,120.245c-0.133-0.038-0.266-0.077-0.459-0.133
		C68.763,119.969,68.763,119.969,68.896,120.245z"/>
	<path fill-rule="evenodd" clip-rule="evenodd" d="M75.312,119.398c0.616-0.241,1.038-0.074,1.292,0.493
		C76.133,119.81,75.726,119.726,75.312,119.398z"/>
	<path fill-rule="evenodd" clip-rule="evenodd" d="M74.978,95.262c1.356,0.225,2.713,0.448,4.146,0.685
		c-0.427,0.142-0.982,0.167-1.314,0.108c-0.708-0.123-1.418-0.24-2.129-0.348C75.27,95.644,75.104,95.579,74.978,95.262z"/>
	<path fill-rule="evenodd" clip-rule="evenodd" d="M67.98,95.524c1.265-0.226,2.53-0.453,3.797-0.673
		c0.068-0.012,0.147,0.038,0.221,0.116C70.688,95.372,69.342,95.485,67.98,95.524z"/>
	<path fill-rule="evenodd" clip-rule="evenodd" d="M63.922,94.304c0.162,0.079,0.323,0.159,0.484,0.238
		c-0.014,0.029-0.027,0.06-0.041,0.089c-0.158-0.082-0.316-0.165-0.474-0.248C63.902,94.356,63.912,94.33,63.922,94.304z"/>
	<path fill-rule="evenodd" clip-rule="evenodd" d="M65.713,95.336c-0.048-0.043-0.096-0.087-0.145-0.131
		c0.011-0.015,0.021-0.028,0.032-0.043c0.058,0.039,0.116,0.079,0.174,0.118C65.754,95.299,65.733,95.317,65.713,95.336z"/>
	<path fill-rule="evenodd" clip-rule="evenodd" d="M86.673,50.769c-0.082,0.093-0.138,0.156-0.194,0.219
		c-0.264,0.298-0.432,0.596-0.317,1.04c0.135,0.529-0.167,0.825-0.753,0.777c0.08-0.094,0.131-0.176,0.202-0.233
		c0.203-0.161,0.256-0.346,0.187-0.602c-0.123-0.455,0.119-0.816,0.373-1.155C86.274,50.673,86.436,50.578,86.673,50.769z"/>
</g>
</svg>
