<?xml version="1.0" encoding="utf-8"?>
<!-- Generator: Adobe Illustrator 16.0.0, SVG Export Plug-In . SVG Version: 6.00 Build 0)  -->
<!DOCTYPE svg PUBLIC "-//W3C//DTD SVG 1.1//EN" "http://www.w3.org/Graphics/SVG/1.1/DTD/svg11.dtd">
<svg version="1.1" id="Layer_1" xmlns="http://www.w3.org/2000/svg" xmlns:xlink="http://www.w3.org/1999/xlink" x="0px" y="0px"
	 width="820px" height="312px" viewBox="0 0 820 312" enable-background="new 0 0 820 312" xml:space="preserve">
<g>
	<path fill="#FFFFFF" d="M408.802,10.15c49.109,0,98.224,0,147.342,0c0,97.323,0,194.645,0,291.984c-97.313,0-194.626,0-291.968,0
		c0-97.317,0-194.651,0-291.984c4.317,0,8.659,0,13.001,0c0.018,0.198,0.043,0.396,0.051,0.594
		c0.137,3.689,0.267,7.378,0.408,11.067c0.389,9.947,0.792,19.893,1.175,29.84c0.28,7.28,0.534,14.561,0.81,21.84
		c0.375,9.997,0.761,19.994,1.134,29.99c0.23,6.232,0.446,12.464,0.677,18.696c0.326,8.876,0.657,17.752,0.989,26.628
		c0.215,5.76,0.435,11.52,0.652,17.278c0.112,2.94,0.234,5.883,0.351,8.825c0.033,0.845,0.107,0.902,0.937,0.648
		c0.119-0.037,0.239-0.07,0.357-0.111c4.454-1.531,8.907-3.067,13.359-4.596c5.59-1.918,11.182-3.836,16.772-5.744
		c6.516-2.225,13.026-4.461,19.56-6.629c1.603-0.531,3.138-1.266,4.964-1.123c1.145,0.088,1.748,0.479,2.188,1.396
		c0.156,0.324,0.496,0.758,0.395,0.977c-0.457,0.976-0.885,2.004-2.167,2.258c-1.242,0.248-2.49,0.537-3.689,0.947
		c-6.158,2.103-12.301,4.243-18.447,6.383c-4.216,1.467-8.418,2.975-12.645,4.408c-2.976,1.008-5.98,1.91-8.964,2.889
		c-0.776,0.254-1.547,0.55-2.277,0.912c-0.726,0.359-0.737,1.388-0.061,1.846c0.225,0.152,0.479,0.27,0.73,0.371
		c4.167,1.65,8.339,3.293,12.504,4.949c2.524,1.002,5.022,2.074,7.564,3.026c2.657,0.999,5.367,1.863,8.034,2.847
		c3.649,1.342,7.281,2.73,10.916,4.112c2.4,0.913,4.767,1.937,7.194,2.759c4.276,1.442,8.604,2.737,12.884,4.17
		c2.079,0.691,4.089,1.592,6.155,2.322c2.702,0.958,5.432,1.842,8.146,2.768c3.021,1.029,6.054,2.023,9.048,3.123
		c2.712,0.994,5.382,2.104,8.067,3.166c1.067,0.42,2.125,0.862,3.203,1.252c1.989,0.716,3.988,1.399,5.986,2.093
		c1.441,0.5,2.882,1.022,4.343,1.467c0.831,0.252,1.712,0.331,2.555,0.55c1.182,0.307,2.338,0.688,3.518,1.002
		c0.267,0.07,0.613,0.1,0.848-0.015c1.182-0.582,2.361-1.177,3.497-1.841c1.979-1.157,3.89-2.438,5.897-3.54
		c2.233-1.229,4.563-2.29,6.819-3.483c1.409-0.744,2.771-1.58,4.137-2.406c4.301-2.604,8.604-5.207,12.879-7.854
		c1.31-0.813,2.482-1.838,3.797-2.645c2.014-1.24,4.106-2.347,6.138-3.563c2.938-1.767,5.874-3.534,8.757-5.388
		c3.226-2.069,6.362-4.27,9.579-6.351c2.191-1.416,4.46-2.714,6.67-4.104c0.271-0.17,0.526-0.575,0.528-0.875
		c0.001-0.233-0.356-0.588-0.629-0.688c-1.093-0.406-2.222-0.727-3.325-1.102c-1.694-0.575-3.385-1.166-5.074-1.76
		c-2.951-1.031-5.896-2.078-8.851-3.104c-2.416-0.84-4.837-1.662-7.259-2.484c-0.715-0.242-1.434-0.463-2.373-0.77
		c0.474-0.393,0.753-0.653,1.063-0.869c1.005-0.688,1.494-1.674,1.813-2.814c0.479-1.729-0.228-3.256-0.779-4.778
		c-0.648-1.783-1.986-2.982-3.677-3.85c-2.341-1.202-4.764-2.095-7.368-2.529c-1.072-0.179-2.423,0.188-3.074-1.169
		c-0.019-0.037-0.082-0.057-0.128-0.074c-1.036-0.378-2.073-0.755-3.113-1.134c-0.055-0.362-0.146-0.798-0.182-1.238
		c-0.149-1.83-1.128-2.869-2.979-3.142c-0.146-0.022-0.306-0.02-0.438-0.078c-1.521-0.662-3.047-1.311-4.552-2.006
		c-2.737-1.264-5.651-1.886-8.577-2.513c-0.941-0.202-1.875-0.659-2.691-1.188c-1.337-0.865-2.707-1.5-4.301-1.767
		c-1.543-0.258-1.61-0.34-1.828-1.641c-0.033-0.194-0.102-0.385-0.171-0.571c-0.337-0.897-0.68-1.792-1.047-2.756
		c2.624-0.996,5.173-1.985,7.742-2.919c0.411-0.149,0.938-0.166,1.362-0.055c2.92,0.759,5.823,1.567,8.732,2.36
		c4.448,1.212,8.896,2.427,13.343,3.638c2.769,0.753,5.536,1.49,8.299,2.254c2.904,0.804,5.798,1.66,8.706,2.442
		c4.476,1.201,8.965,2.335,13.437,3.544c3.221,0.871,6.413,1.844,9.632,2.722c4.831,1.317,9.678,2.578,14.512,3.886
		c4.11,1.113,8.207,2.274,12.317,3.389c5.528,1.499,11.064,2.966,16.599,4.46c4.399,1.188,8.793,2.398,13.192,3.594
		c1.217,0.33,2.44,0.625,3.666,0.938c0.057-0.063,0.112-0.126,0.171-0.188c-0.133-0.164-0.232-0.397-0.404-0.479
		c-0.335-0.153-0.709-0.231-1.066-0.33c-3.604-0.965-7.207-1.923-10.812-2.895c-2.999-0.813-5.994-1.636-8.991-2.453
		c-2.519-0.688-5.031-1.383-7.554-2.066c-2.881-0.781-5.763-1.554-8.646-2.326c-2.064-0.554-4.139-1.086-6.196-1.655
		c-2.494-0.688-4.978-1.421-7.47-2.106c-2.538-0.696-5.089-1.345-7.628-2.034c-2.449-0.665-4.893-1.363-7.342-2.03
		c-2.997-0.817-6.003-1.611-9.002-2.427c-1.678-0.457-3.346-0.95-5.021-1.404c-2.113-0.572-4.234-1.114-6.35-1.685
		c-2.064-0.559-4.127-1.144-6.189-1.706c-2.951-0.804-5.905-1.593-8.856-2.396c-2.547-0.692-5.089-1.398-7.635-2.09
		c-2.565-0.698-5.14-1.381-7.707-2.08c-1.604-0.438-3.203-0.918-4.815-1.324c-1.265-0.317-1.329-0.333-1.378-1.618
		c-0.129-3.515-0.235-7.03-0.366-10.544c-0.271-7.329-0.553-14.658-0.824-21.986c-0.32-8.576-0.646-17.152-0.959-25.729
		c-0.227-6.031-0.436-12.063-0.661-18.095c-0.305-8.075-0.625-16.149-0.935-24.223C409.24,21.813,409.023,15.981,408.802,10.15z
		 M461.13,23.273c-0.001-0.062-0.002-0.123-0.002-0.185c-2.646,0-5.287,0.051-7.932-0.014c-2.848-0.069-5.694-0.166-8.496,0.438
		c-0.79,0.17-1.657,0.548-2.2,1.111c-0.5,0.519-0.781,1.396-0.857,2.146c-0.193,1.904-0.219,3.825-0.313,5.74
		c-0.159,3.361-0.337,6.722-0.479,10.084c-0.099,2.316-0.146,4.634-0.232,6.951c-0.093,2.415-0.229,4.828-0.312,7.243
		c-0.132,4.035-0.23,8.07-0.347,12.105c-0.145,4.956-0.288,9.912-0.434,14.868c-0.042,1.443-0.096,2.887-0.102,4.33
		c-0.001,0.354,0.085,0.757,0.267,1.053c0.446,0.726,0.957,1.414,1.477,2.092c0.176,0.23,0.425,0.5,0.683,0.555
		c0.799,0.172,1.618,0.248,2.429,0.362c3.85,0.542,7.69,1.111,11.541,1.62c3.333,0.441,6.676,0.804,10.012,1.222
		c3.831,0.481,7.659,0.987,11.489,1.479c4.716,0.605,9.429,1.25,14.15,1.798c3.831,0.445,7.674,0.793,11.515,1.142
		c2.152,0.195,4.313,0.332,6.472,0.442c2.188,0.112,4.381,0.157,6.568,0.235c0.248,0.009,0.496,0.031,0.742,0.064
		c1.032,0.136,2.064,0.269,3.092,0.426c0.253,0.039,0.623,0.095,0.711,0.263c0.217,0.412,0.442,0.361,0.786,0.225
		c1.896-0.749,3.807-1.458,5.686-2.244c0.291-0.122,0.597-0.558,0.635-0.88c0.145-1.208,0.188-2.43,0.256-3.647
		c0.098-1.792,0.166-3.584,0.277-5.375c0.184-2.907,0.399-5.812,0.587-8.719c0.113-1.815,0.18-3.633,0.299-5.447
		c0.261-4.002,0.549-8.003,0.813-12.005c0.226-3.38,0.436-6.762,0.644-10.144c0.229-3.756,0.459-7.512,0.676-11.268
		c0.247-4.277,0.459-8.555,0.739-12.829c0.051-0.772-0.235-1.061-0.907-1.26c-1.528-0.454-3.058-0.917-4.551-1.471
		c-0.921-0.341-1.729-0.938-2.787-0.946c-0.634-0.006-1.261-0.337-1.898-0.373c-2.512-0.139-5.023-0.247-7.542-0.311
		c-2.688-0.068-5.384-0.032-8.071-0.119c-2.593-0.083-5.178-0.317-7.769-0.389c-1.968-0.055-3.938,0.061-5.909,0.063
		c-4.355,0.004-8.717-0.007-13.074-0.028c-2.769-0.013-5.532-0.029-8.302-0.093C467.811,23.508,464.47,23.379,461.13,23.273z"/>
	<path fill="#FFFFFF" d="M277.926,10.15c43.375,0,86.751,0,130.127,0c0.032,0.847,0.063,1.694,0.095,2.542
		c0.28,7.628,0.552,15.256,0.84,22.884c0.273,7.229,0.569,14.456,0.845,21.685c0.234,6.157,0.448,12.314,0.685,18.471
		c0.313,8.301,0.646,16.602,0.959,24.903c0.223,5.907,0.426,11.815,0.644,17.722c0.127,3.464,0.266,6.928,0.401,10.393
		c0.019,0.447,0.007,0.826-0.516,1.023c-2.428,0.913-4.836,1.861-7.27,2.757c-0.199,0.073-0.672-0.08-0.733-0.24
		c-0.635-1.591-1.286-3.181-1.768-4.821c-0.306-1.048-0.174-2.228-0.504-3.263c-0.901-2.82-1.907-5.609-2.949-8.38
		c-0.333-0.885-0.924-1.671-1.369-2.517c-0.764-1.453-1.484-2.927-2.271-4.369c-0.18-0.33-0.493-0.66-0.826-0.821
		c-0.954-0.461-1.938-0.866-2.932-1.237c-1.443-0.538-2.585-1.387-3.129-2.878c-0.229-0.625-0.35-1.291-0.592-1.909
		c-0.22-0.557-0.051-0.821,0.473-1.025c0.923-0.363,1.88-0.684,2.729-1.178c2.687-1.558,4.778-3.712,6.281-6.443
		c1.063-1.926,1.708-3.965,1.904-6.154c0.072-0.81,0.257-1.529,1.132-1.932c0.419-0.193,0.765-0.637,1.036-1.04
		c0.597-0.888,0.171-1.734-0.822-2.148c-0.653-0.273-1.195-0.821-1.764-1.275c-0.104-0.084-0.188-0.381-0.127-0.458
		c0.604-0.764,0.139-1.216-0.533-1.635c1.07-1.137,0.725-2.857,1.876-3.919c0.296-0.274,0.471-0.704,0.638-1.089
		c0.247-0.57-0.021-1.016-0.454-1.552c-0.415,0.925-0.742,1.779-1.844,2.082c0.021-0.356,0.037-0.636,0.047-0.916
		c0.021-0.546,0.142-1.112,0.037-1.634c-0.389-1.991-0.967-3.915-2.246-5.558c-0.118-0.151-0.094-0.606,0.039-0.728
		c1.589-1.449,2.317-3.344,2.782-5.356c0.259-1.126,0.345-2.286-0.429-3.298c-0.864-1.131-2.06-1.706-3.433-1.907
		c-0.301-0.044-0.727,0.046-0.921,0.244c-0.127,0.129,0.091,0.565,0.102,0.866c0.012,0.444,0.124,0.99-0.091,1.302
		c-0.188,0.277-0.769,0.431-1.154,0.399c-0.788-0.063-1.573-0.251-2.342-0.454c-2.263-0.597-4.51-1.244-6.771-1.834
		c-1.441-0.376-2.884-0.842-4.354-0.983c-1.771-0.17-3.578-0.122-5.361-0.017c-2.159,0.127-4.286,0.414-6.359,1.177
		c-3.568,1.314-6.884,3.015-9.711,5.597c-0.215,0.196-0.5,0.328-0.771,0.451c-1.688,0.762-3.021,1.923-3.994,3.49
		c-0.437,0.697-0.868,1.396-1.242,2.126c-0.991,1.932-1.68,4.021-1.603,6.159c0.095,2.574,0.629,5.131,0.95,7.697
		c0.109,0.863,0.192,1.732,0.229,2.601c0.026,0.726-0.234,1.325-0.833,1.825c-0.704,0.588-1.348,1.262-1.942,1.961
		c-0.273,0.323-0.38,0.792-0.562,1.195c2.262-0.088,3.25-1.864,4.668-3.064c0.129,0.154,0.233,0.254,0.311,0.375
		c0.719,1.176,1.491,2.288,2.77,2.958c0.359,0.189,0.646,0.543,0.936,0.851c1.068,1.139,2.084,2.331,3.2,3.42
		c0.537,0.524,1.257,0.861,1.889,1.289c0.117,0.079,0.314,0.212,0.299,0.283c-0.161,0.792-0.105,1.905-0.604,2.294
		c-0.966,0.752-1.917,1.594-3.208,1.972c-2.353,0.688-4.385,1.979-6.037,3.842c-1.659,1.871-3.271,3.786-4.411,6.014
		c-0.766,1.496-1.455,3.077-1.857,4.7c-0.541,2.169-0.784,4.413-1.139,6.628c-0.438,2.756-0.855,5.516-1.285,8.274
		c-0.225,1.451-0.327,2.932-0.695,4.346c-0.733,2.818-1.544,5.621-2.455,8.387c-0.534,1.623-1.26,3.192-2.016,4.73
		c-0.737,1.511-1.973,2.615-3.365,3.536c-0.518,0.339-0.902,0.728-0.904,1.437c-0.006,2.123,0.924,3.788,2.431,5.184
		c0.558,0.514,0.557,0.648-0.188,0.91c-1.317,0.465-2.646,0.903-3.967,1.354c-8.051,2.747-16.099,5.496-24.146,8.241
		c-4.555,1.554-9.11,3.104-13.667,4.647c-3.306,1.121-6.618,2.229-9.919,3.36c-0.558,0.189-0.808,0.082-0.798-0.521
		c0.004-0.199-0.017-0.397-0.023-0.6c-0.236-6.333-0.474-12.666-0.716-18.999c-0.358-9.45-0.729-18.898-1.09-28.348
		c-0.339-8.875-0.674-17.751-1.007-26.626c-0.234-6.233-0.468-12.467-0.693-18.701c-0.293-8.154-0.565-16.309-0.867-24.462
		c-0.319-8.65-0.661-17.3-0.991-25.951C278.437,23.713,278.182,16.932,277.926,10.15z"/>
	<path d="M277.926,10.15c0.256,6.782,0.51,13.563,0.769,20.345c0.33,8.65,0.675,17.3,0.992,25.951
		c0.301,8.154,0.576,16.309,0.869,24.462c0.225,6.234,0.459,12.467,0.693,18.701c0.333,8.875,0.668,17.751,1.007,26.626
		c0.361,9.45,0.729,18.898,1.09,28.348c0.242,6.333,0.477,12.666,0.715,18.999c0.007,0.199,0.028,0.398,0.024,0.598
		c-0.013,0.604,0.237,0.715,0.798,0.522c3.302-1.134,6.613-2.239,9.919-3.36c4.557-1.547,9.109-3.097,13.667-4.65
		c8.05-2.742,16.098-5.491,24.146-8.238c1.322-0.451,2.648-0.893,3.966-1.354c0.746-0.264,0.747-0.396,0.191-0.912
		c-1.506-1.396-2.438-3.061-2.431-5.184c0.002-0.709,0.389-1.098,0.901-1.437c1.396-0.921,2.628-2.025,3.368-3.536
		c0.753-1.538,1.479-3.107,2.016-4.73c0.908-2.766,1.722-5.568,2.452-8.387c0.368-1.414,0.477-2.895,0.698-4.346
		c0.427-2.758,0.85-5.518,1.285-8.274c0.352-2.215,0.595-4.459,1.136-6.628c0.405-1.623,1.098-3.204,1.86-4.7
		c1.14-2.228,2.752-4.144,4.411-6.014c1.649-1.862,3.687-3.154,6.037-3.842c1.29-0.378,2.239-1.22,3.208-1.972
		c0.5-0.389,0.44-1.502,0.604-2.294c0.018-0.071-0.183-0.204-0.299-0.283c-0.632-0.428-1.352-0.765-1.889-1.289
		c-1.116-1.089-2.134-2.281-3.2-3.42c-0.289-0.308-0.574-0.662-0.938-0.851c-1.273-0.669-2.048-1.782-2.767-2.958
		c-0.074-0.121-0.182-0.222-0.313-0.375c-1.418,1.201-2.404,2.977-4.668,3.064c0.184-0.403,0.285-0.872,0.563-1.195
		c0.596-0.699,1.238-1.373,1.941-1.961c0.6-0.5,0.859-1.099,0.833-1.825c-0.033-0.869-0.116-1.738-0.228-2.601
		c-0.324-2.566-0.856-5.124-0.952-7.697c-0.078-2.138,0.611-4.227,1.604-6.159c0.374-0.729,0.809-1.429,1.241-2.126
		c0.976-1.567,2.31-2.729,3.992-3.49c0.271-0.123,0.558-0.254,0.771-0.451c2.827-2.582,6.141-4.282,9.711-5.597
		c2.073-0.764,4.201-1.05,6.358-1.177c1.781-0.105,3.59-0.153,5.36,0.017c1.472,0.141,2.913,0.607,4.354,0.983
		c2.262,0.59,4.51,1.238,6.771,1.834c0.771,0.203,1.555,0.39,2.341,0.454c0.391,0.031,0.973-0.122,1.157-0.399
		c0.212-0.313,0.103-0.858,0.088-1.302c-0.008-0.3-0.226-0.736-0.099-0.866c0.195-0.198,0.62-0.288,0.921-0.244
		c1.373,0.201,2.565,0.776,3.43,1.907c0.773,1.012,0.688,2.172,0.432,3.298c-0.465,2.012-1.193,3.907-2.782,5.356
		c-0.133,0.122-0.157,0.577-0.039,0.728c1.279,1.644,1.856,3.567,2.246,5.558c0.102,0.522-0.019,1.088-0.037,1.634
		c-0.01,0.28-0.028,0.56-0.047,0.916c1.1-0.302,1.429-1.157,1.844-2.082c0.434,0.536,0.701,0.982,0.454,1.552
		c-0.167,0.385-0.341,0.815-0.638,1.089c-1.151,1.062-0.809,2.782-1.876,3.919c0.671,0.419,1.139,0.871,0.53,1.635
		c-0.061,0.077,0.023,0.374,0.128,0.458c0.567,0.454,1.11,1.002,1.766,1.275c0.993,0.414,1.419,1.261,0.821,2.148
		c-0.271,0.403-0.616,0.847-1.035,1.04c-0.875,0.403-1.062,1.122-1.133,1.932c-0.196,2.189-0.847,4.229-1.903,6.154
		c-1.503,2.731-3.598,4.886-6.281,6.443c-0.852,0.494-1.809,0.815-2.73,1.178c-0.521,0.205-0.689,0.469-0.473,1.025
		c0.243,0.618,0.362,1.284,0.59,1.909c0.544,1.491,1.688,2.34,3.13,2.878c0.993,0.371,1.979,0.776,2.934,1.237
		c0.333,0.161,0.646,0.491,0.826,0.821c0.784,1.442,1.508,2.917,2.271,4.369c0.445,0.846,1.036,1.632,1.369,2.517
		c1.042,2.771,2.048,5.56,2.949,8.38c0.331,1.036,0.199,2.215,0.504,3.263c0.479,1.64,1.132,3.23,1.765,4.821
		c0.063,0.16,0.537,0.313,0.736,0.24c2.431-0.896,4.842-1.844,7.267-2.757c0.522-0.197,0.534-0.576,0.519-1.023
		c-0.142-3.464-0.274-6.928-0.401-10.393c-0.218-5.907-0.421-11.815-0.644-17.722c-0.313-8.301-0.646-16.602-0.959-24.903
		c-0.233-6.157-0.447-12.314-0.685-18.471c-0.273-7.229-0.571-14.456-0.845-21.685c-0.289-7.627-0.563-15.256-0.84-22.884
		c-0.031-0.847-0.063-1.694-0.096-2.542c0.25,0,0.497,0,0.747,0c0.224,5.831,0.439,11.663,0.663,17.494
		c0.313,8.074,0.631,16.148,0.938,24.223c0.229,6.031,0.438,12.063,0.661,18.095c0.313,8.577,0.639,17.153,0.959,25.729
		c0.271,7.329,0.555,14.657,0.823,21.986c0.132,3.514,0.238,7.03,0.366,10.544c0.047,1.284,0.114,1.301,1.376,1.618
		c1.615,0.405,3.211,0.887,4.818,1.324c2.567,0.698,5.14,1.381,7.707,2.08c2.546,0.692,5.088,1.398,7.635,2.09
		c2.951,0.802,5.905,1.592,8.856,2.396c2.063,0.562,4.125,1.147,6.188,1.706c2.113,0.571,4.234,1.113,6.351,1.685
		c1.678,0.455,3.346,0.948,5.021,1.404c2.999,0.816,6.004,1.61,9.002,2.427c2.449,0.667,4.893,1.366,7.339,2.03
		c2.54,0.689,5.093,1.338,7.629,2.034c2.493,0.685,4.978,1.417,7.472,2.106c2.061,0.569,4.132,1.102,6.194,1.655
		c2.885,0.772,5.767,1.545,8.646,2.326c2.52,0.683,5.035,1.377,7.554,2.066c2.997,0.818,5.992,1.645,8.991,2.453
		c3.604,0.972,7.206,1.93,10.811,2.896c0.358,0.099,0.732,0.174,1.067,0.33c0.172,0.078,0.271,0.313,0.404,0.479
		c-0.061,0.063-0.114,0.126-0.171,0.188c-1.226-0.313-2.449-0.605-3.666-0.938c-4.399-1.192-8.793-2.404-13.192-3.594
		c-5.531-1.494-11.069-2.961-16.599-4.46c-4.11-1.114-8.207-2.276-12.317-3.389c-4.834-1.309-9.681-2.569-14.512-3.886
		c-3.219-0.877-6.411-1.851-9.632-2.722c-4.474-1.208-8.961-2.343-13.437-3.544c-2.91-0.782-5.802-1.638-8.706-2.442
		c-2.763-0.764-5.531-1.501-8.299-2.254c-4.448-1.211-8.895-2.426-13.343-3.638c-2.909-0.793-5.814-1.602-8.732-2.36
		c-0.426-0.11-0.953-0.094-1.363,0.055c-2.568,0.934-5.118,1.923-7.741,2.919c0.366,0.964,0.71,1.859,1.047,2.756
		c0.069,0.186,0.139,0.377,0.171,0.571c0.218,1.301,0.285,1.383,1.828,1.641c1.595,0.268,2.964,0.902,4.301,1.767
		c0.816,0.528,1.75,0.985,2.691,1.188c2.926,0.627,5.84,1.249,8.576,2.513c1.506,0.695,3.029,1.344,4.553,2.006
		c0.133,0.058,0.291,0.056,0.438,0.078c1.854,0.273,2.83,1.312,2.979,3.142c0.036,0.44,0.127,0.875,0.182,1.238
		c1.04,0.378,2.077,0.755,3.113,1.134c0.046,0.017,0.108,0.037,0.128,0.074c0.65,1.358,2.002,0.99,3.074,1.169
		c2.604,0.434,5.025,1.327,7.367,2.529c1.688,0.868,3.026,2.067,3.678,3.85c0.555,1.521,1.261,3.049,0.778,4.776
		c-0.318,1.146-0.811,2.132-1.813,2.816c-0.313,0.215-0.593,0.479-1.066,0.869c0.942,0.305,1.661,0.524,2.374,0.77
		c2.423,0.824,4.845,1.646,7.261,2.484c2.95,1.026,5.896,2.072,8.851,3.106c1.689,0.591,3.38,1.182,5.074,1.757
		c1.104,0.375,2.229,0.691,3.325,1.102c0.271,0.104,0.63,0.453,0.629,0.688c-0.002,0.299-0.262,0.706-0.528,0.875
		c-2.21,1.39-4.479,2.688-6.67,4.104c-3.217,2.08-6.356,4.276-9.579,6.35c-2.883,1.853-5.819,3.619-8.757,5.387
		c-2.028,1.219-4.124,2.321-6.139,3.563c-1.313,0.809-2.486,1.834-3.799,2.646c-4.271,2.646-8.576,5.249-12.878,7.854
		c-1.361,0.826-2.726,1.662-4.135,2.404c-2.257,1.193-4.586,2.256-6.822,3.483c-2.008,1.104-3.918,2.383-5.896,3.54
		c-1.136,0.665-2.315,1.259-3.497,1.841c-0.232,0.112-0.582,0.085-0.849,0.015c-1.179-0.313-2.336-0.693-3.517-1
		c-0.843-0.221-1.725-0.3-2.555-0.552c-1.461-0.442-2.899-0.967-4.343-1.467c-1.998-0.688-3.997-1.377-5.986-2.095
		c-1.078-0.387-2.136-0.832-3.203-1.252c-2.688-1.061-5.355-2.17-8.068-3.164c-2.994-1.098-6.026-2.094-9.048-3.125
		c-2.713-0.926-5.44-1.807-8.145-2.764c-2.066-0.733-4.077-1.633-6.155-2.326c-4.282-1.431-8.605-2.726-12.884-4.17
		c-2.431-0.819-4.794-1.844-7.194-2.757c-3.634-1.382-7.266-2.771-10.916-4.112c-2.667-0.98-5.377-1.847-8.035-2.847
		c-2.544-0.954-5.041-2.024-7.563-3.028c-4.166-1.654-8.337-3.297-12.504-4.947c-0.254-0.104-0.508-0.219-0.731-0.371
		c-0.679-0.458-0.666-1.482,0.062-1.846c0.729-0.362,1.501-0.658,2.277-0.914c2.981-0.975,5.988-1.879,8.963-2.889
		c4.228-1.435,8.43-2.939,12.646-4.408c6.146-2.138,12.289-4.278,18.447-6.383c1.196-0.41,2.444-0.699,3.689-0.945
		c1.282-0.254,1.71-1.282,2.167-2.258c0.104-0.217-0.237-0.649-0.395-0.977c-0.44-0.917-1.046-1.313-2.188-1.396
		c-1.829-0.143-3.361,0.593-4.964,1.121c-6.534,2.168-13.044,4.406-19.56,6.629c-5.594,1.908-11.185,3.826-16.772,5.744
		c-4.453,1.527-8.905,3.063-13.359,4.596c-0.118,0.041-0.238,0.076-0.357,0.111c-0.827,0.254-0.901,0.195-0.937-0.646
		c-0.114-2.942-0.236-5.885-0.351-8.825c-0.221-5.759-0.438-11.519-0.652-17.278c-0.332-8.876-0.663-17.752-0.989-26.628
		c-0.229-6.232-0.444-12.464-0.677-18.696c-0.373-9.997-0.762-19.993-1.137-29.99c-0.271-7.28-0.523-14.561-0.807-21.84
		c-0.383-9.947-0.787-19.893-1.175-29.84c-0.146-3.688-0.271-7.378-0.408-11.067c-0.007-0.198-0.033-0.396-0.051-0.594
		C277.427,10.15,277.677,10.15,277.926,10.15z M384.684,106.031c0.021-0.076,0.042-0.151,0.062-0.227
		c-0.243-0.1-0.487-0.207-0.737-0.296c-0.206-0.073-0.504-0.056-0.616-0.195c-0.581-0.726-1.388-1.007-2.226-1.284
		c-2.549-0.842-5.052-1.846-7.64-2.536c-3.365-0.896-6.788-1.582-10.203-2.276c-0.545-0.11-1.213,0.13-1.763,0.356
		c-0.696,0.287-1.292,0.831-1.995,1.081c-2.771,0.987-5.236,2.415-7.136,4.705c-0.686,0.824-1.329,1.678-2,2.512
		c-1.386,1.722-2.479,3.619-2.9,5.794c-0.524,2.706-0.931,5.438-1.318,8.168c-0.164,1.149-0.063,2.338-0.246,3.482
		c-0.236,1.473-0.648,2.918-0.968,4.379c-1.149,5.314-2.448,10.586-4.685,15.57c-0.964,2.152-2.139,4.175-4.271,5.431
		c-0.574,0.339-0.604,0.898-0.438,1.453c0.348,1.146,1.176,1.949,2.089,2.648c0.385,0.295,0.865,0.505,1.334,0.643
		c0.771,0.228,0.984,0.019,0.941-0.764c-0.011-0.198-0.051-0.431,0.034-0.588c0.127-0.236,0.352-0.42,0.532-0.626
		c0.156,0.196,0.426,0.379,0.448,0.59c0.13,1.114,0.816,1.829,1.635,2.477c1.146,0.906,2.987,1.055,4.175,0.277
		c-0.229-0.375-0.513-0.733-0.658-1.142c-0.083-0.227,0.061-0.537,0.103-0.81c0.254,0.091,0.562,0.122,0.751,0.286
		c0.413,0.353,0.697,0.915,1.157,1.143c1.667,0.823,3.376,1.562,5.084,2.299c0.774,0.334,1.668,0.461,2.354,0.915
		c1.158,0.771,2.384,0.729,3.658,0.679c1.846-0.071,3.688-0.106,5.533-0.129c0.688-0.009,1.381,0.124,2.064,0.078
		c1.142-0.077,2.276-0.363,3.416-0.351c1.476,0.019,2.971,0.037,4.345,0.807c0.871,0.486,1.826,0.834,2.767,1.178
		c0.561,0.204,1.157,0.357,1.746,0.396c1.083,0.072,2.182,0.063,2.731-1.168c0.047-0.105,0.157-0.204,0.262-0.262
		c1.412-0.75,2.696-1.813,4.493-1.535c0.504,0.076,1.142-0.129,1.584-0.414c0.437-0.281,0.723-0.813,1.04-1.262
		c0.555-0.781,0.486-1.407,0.026-2.255c-0.374-0.69-0.82-1.467-0.822-2.207c-0.006-1.78,0.25-3.56,0.354-5.342
		c0.027-0.461,0.02-1.013-0.207-1.385c-1.357-2.263-2.777-4.491-4.192-6.721c-0.389-0.608-0.82-1.185-1.275-1.837
		c-0.576,0.749-0.499,1.724-1.431,2.095c-0.044-0.572-0.062-1.141,0.093-1.66c0.399-1.355,0.238-2.483-0.519-3.781
		c-1.386-2.37-2.479-4.915-3.601-7.428c-0.585-1.313-0.728-2.749-0.438-4.178c0.06-0.297,0.356-0.546,0.548-0.816
		c0.143,0.25,0.306,0.492,0.422,0.755c0.068,0.154,0.063,0.341,0.088,0.513c0.406,2.729,1.228,5.366,2.499,7.776
		c1.658,3.143,3.625,6.123,5.476,9.162c0.896,1.466,1.815,2.916,2.749,4.357c1.016,1.566,2.015,3.144,3.101,4.659
		c0.643,0.897,1.298,1.918,2.2,2.472c2.771,1.705,5.648,3.213,8.806,4.187c3.292,1.019,6.569,1.813,10.052,1.547
		c0.602-0.046,1.412,0.117,1.813,0.509c1.438,1.404,3.313,1.887,5.062,2.633c1.319,0.563,2.582,0.217,3.813-0.367
		c-0.67-0.235-1.296-0.426-1.893-0.686c-0.21-0.094-0.343-0.356-0.512-0.543c0.236-0.082,0.469-0.229,0.707-0.236
		c1.207-0.045,2.33-0.243,3.133-1.285c0.137-0.178,0.47-0.399,0.616-0.346c1.063,0.399,1.319-0.449,1.354-1.058
		c0.104-1.742,1.144-2.984,2.021-4.332c0.341-0.524,0.946-1.125,0.88-1.616c-0.166-1.223-0.787-2.324-2.011-2.865
		c-1.196-0.529-2.423-0.994-3.646-1.462c-1.139-0.436-2.307-0.795-3.431-1.265c-2.362-0.987-4.873-1.404-7.333-2.025
		c-1.114-0.282-2.214-0.757-3.21-1.334c-1-0.58-1.963-1.134-3.123-1.352c-0.399-0.075-0.788-0.457-1.08-0.788
		c-0.439-0.5-0.709-1.177-1.202-1.606c-1.395-1.215-1.719-2.897-1.944-4.542c-0.195-1.42-0.709-2.495-1.855-3.329
		c-0.36-0.262-0.711-0.65-0.864-1.057c-0.238-0.638-0.303-1.342-0.45-2.016c-0.193-0.898-0.323-1.819-0.617-2.685
		c-0.405-1.198-0.964-2.345-1.411-3.531c-0.892-2.35-1.627-4.767-2.653-7.054c-1.13-2.519-2.938-4.435-5.806-5.023
		c-0.437-0.089-0.905-0.004-1.333-0.105c-1.936-0.457-3.518,0.518-5.083,1.226c-0.068,0.379-0.168,0.754-0.412,0.934
		c-2.392,1.764-3.819,4.147-4.607,6.964c-0.048,0.173-0.166,0.326-0.313,0.606c-0.541-0.861-0.303-1.614-0.065-2.313
		c0.736-2.18,2.06-3.962,3.84-5.413c0.179-0.144,0.291-0.37,0.417-0.569c0.147-0.231,0.227-0.545,0.427-0.697
		c0.414-0.313,0.882-0.564,1.349-0.798c0.924-0.465,0.935-0.593,0.105-1.192c-0.15-0.11-0.207-0.356-0.308-0.54
		c0.185-0.089,0.36-0.217,0.554-0.256C384.265,105.974,384.479,106.021,384.684,106.031z M432.337,171.848
		c-0.029-0.021-0.062-0.046-0.087-0.066c0.189-0.243,0.469-0.461,0.562-0.735c0.3-0.896,0.608-1.799,0.764-2.728
		c0.097-0.56-0.023-1.18-0.162-1.743c-0.427-1.781-1.489-3.216-2.639-4.591c-0.119-0.144-0.312-0.23-0.48-0.32
		c-1.059-0.559-2.19-0.698-3.371-0.83c-0.907-0.104-1.539,0.15-2.155,0.662c-0.791,0.652-1.722,0.74-2.677,0.721
		c-0.343-0.008-0.679-0.199-1.021-0.215c-2.181-0.083-4.072-0.979-5.952-1.98c-0.68-0.363-1.478-0.596-2.244-0.688
		c-1.825-0.226-3.665-0.338-5.504-0.483c-1.206-0.098-2.431-0.34-3.617-0.226c-3.023,0.291-6.034,0.724-9.041,1.158
		c-0.468,0.067-0.931,0.397-1.316,0.702c-0.712,0.563-1.118,0.478-1.771-0.193c-0.427-0.438-1.04-0.704-1.601-0.986
		c-0.137-0.068-0.549,0.063-0.564,0.154c-0.115,0.604-0.562,0.549-0.979,0.555c-2.016,0.029-3.854,0.706-5.626,1.584
		c-1.686,0.838-3.346,1.723-5.026,2.567c-0.484,0.245-0.98,0.524-1.507,0.631c-2.063,0.416-4.155,0.481-6.25,0.269
		c-1.907-0.194-3.805-0.53-5.716-0.623c-2.684-0.131-5.306-0.422-7.791-1.534c-0.485-0.218-1.055-0.287-1.593-0.334
		c-1.188-0.104-2.408-0.009-3.564-0.242c-2.342-0.476-4.652-1.104-6.971-1.698c-0.533-0.138-0.813-0.025-1.063,0.48
		c-0.396,0.802-0.94,1.525-1.328,2.33c-1.33,2.76-2.732,5.49-2.597,8.703c0.083,1.938-0.03,3.896,0.658,5.75
		c0.356,0.957,0.8,1.881,1.215,2.813c0.615,1.384,1.522,2.506,2.896,3.215c0.396,0.206,0.771,0.453,1.157,0.687
		c1.387,0.834,2.839,1.424,4.495,1.465c0.915,0.021,1.825,0.224,2.739,0.328c0.271,0.029,0.546,0.004,0.917,0.004
		c-0.624-0.713-1.251-1.27-1.668-1.949c-0.384-0.63-1.205-1.15-0.687-2.254c0.248,0.138,0.309,0.441,0.49,0.619
		c1.069,1.039,2.048,2.242,3.282,3.027c3.175,2.018,6.661,3.33,10.362,4.104c4.737,0.988,9.43,0.688,14.103-0.316
		c2.701-0.576,5.372-1.293,8.063-1.935c0.282-0.067,0.587-0.087,0.877-0.067c0.469,0.031,0.941,0.203,1.398,0.16
		c2.403-0.229,4.802-0.64,7.209-0.729c4.515-0.172,8.994-0.482,13.473-1.172c5.225-0.805,10.188-2.336,14.938-4.582
		c1.227-0.578,2.543-1.283,3.371-2.295c1.241-1.521,2.139-3.334,3.076-5.078C432.142,173.32,432.171,172.548,432.337,171.848z
		 M383.215,78.335c-0.063-0.102-0.121-0.205-0.185-0.307c0.258-0.309,0.466-0.687,0.781-0.917c2.523-1.837,3.629-4.481,4.256-7.397
		c0.05-0.232-0.053-0.514-0.139-0.753c-0.091-0.25-0.408-0.617-0.347-0.689c0.202-0.235,0.519-0.417,0.821-0.516
		c0.943-0.304,1.914-0.526,2.854-0.842c1.711-0.575,2.909-1.875,4.217-3.029c0.694-0.613,1.298-1.271,1.521-2.161
		c0.204-0.815,0.367-1.671,0.354-2.504c-0.02-0.875-0.171-1.799-1.216-2.313c-0.144,0.321-0.269,0.605-0.395,0.89
		c-0.075,0.172-0.116,0.462-0.233,0.499c-1.06,0.331-2.169,0.971-3.188,0.852c-3.362-0.395-6.592-1.472-9.821-2.47
		c-2.024-0.627-4.104-0.999-6.182-0.896c-3.271,0.16-6.521,0.437-9.619,1.862c-2.713,1.25-5.31,2.583-7.559,4.571
		c-0.792,0.7-1.857,1.11-2.578,1.863c-1.229,1.287-2.508,2.615-3.367,4.149c-1.729,3.094-1.662,6.415-0.646,9.772
		c0.466,1.541,0.886,3.125,1.056,4.719c0.224,2.102,1.186,3.708,2.705,5.059c0.144,0.128,0.399,0.121,0.596,0.201
		c0.292,0.121,0.661,0.189,0.852,0.408c1.143,1.33,2.215,2.722,3.376,4.035c0.356,0.406,0.887,0.809,1.396,0.91
		c2.119,0.422,4.26,0.733,6.396,1.073c0.731,0.117,1.479,0.304,2.211,0.27c0.9-0.042,1.806-0.238,2.688-0.447
		c0.547-0.129,1.066-0.392,1.586-0.62c0.461-0.202,0.556-0.49,0.238-0.941c-0.339-0.486-0.636-1.01-0.888-1.547
		c-0.918-1.961-0.855-4.128-1.261-6.198c-0.025-0.14,0.02-0.297,0.047-0.443c0.302-1.575,1.004-2.988,1.966-4.235
		c0.62-0.803,1.466-1.433,2.577-1.493c0.621-0.034,1.244-0.044,1.862-0.09c1.405-0.105,2.604,0.271,3.499,1.421
		c0.416,0.534,0.861,1.045,1.292,1.566c0.088-0.013,0.176-0.026,0.264-0.039c0.084-1.025,0.204-2.048,0.236-3.075
		c0.021-0.591-0.297-0.788-0.886-0.521C384.007,78.175,383.6,78.231,383.215,78.335z M351.576,187.786
		c-0.023,0.123-0.053,0.246-0.08,0.368c0.914,0.313,1.814,0.675,2.744,0.929c2.813,0.769,5.655,1.437,8.453,2.255
		c3.157,0.924,6.273,1.982,9.415,2.96c6.402,1.993,12.813,3.962,19.21,5.961c2.54,0.794,5.059,1.66,7.601,2.447
		c0.358,0.112,0.843,0.056,1.199-0.09c0.736-0.298,1.432-0.704,2.14-1.073c5.723-2.982,11.444-5.964,17.168-8.954
		c2.025-1.06,4.066-2.099,6.062-3.225c1.82-1.028,3.522-2.276,5.381-3.226c4.46-2.275,8.982-4.433,13.479-6.643
		c0.674-0.331,1.329-0.7,1.993-1.055c-0.016-0.067-0.024-0.141-0.036-0.211c-0.292-0.104-0.581-0.221-0.878-0.312
		c-1.479-0.446-2.979-0.821-4.425-1.349c-2.104-0.766-4.175-1.629-6.246-2.478c-0.5-0.202-0.788-0.22-1.026,0.382
		c-0.354,0.894-0.744,1.797-1.274,2.59c-0.986,1.479-2.303,2.645-3.716,3.734c-1.573,1.219-3.248,2.184-5.104,2.864
		c-1.632,0.603-3.239,1.264-4.87,1.862c-0.935,0.346-1.871,0.707-2.839,0.912c-1.875,0.398-3.767,0.761-5.662,1.019
		c-2.938,0.396-5.877,0.772-8.828,1.021c-2.822,0.229-5.659,0.26-8.488,0.414c-2.158,0.117-4.315,0.269-6.472,0.461
		c-1.063,0.097-2.121,0.271-3.161,0.504c-1.532,0.34-3.028,0.851-4.569,1.133c-2.967,0.542-5.947,0.922-8.982,0.916
		c-2.571-0.006-5.063-0.471-7.521-1.082c-2.313-0.577-4.549-1.471-6.841-2.153C354.146,188.303,352.853,188.078,351.576,187.786z
		 M430.945,199.898c-0.358-0.123-0.471-0.17-0.585-0.196c-1.843-0.418-3.687-0.836-5.53-1.25c-2.938-0.659-5.872-1.332-8.814-1.962
		c-0.73-0.156-1.449-0.123-2.161,0.299c-0.465,0.273-0.477,0.473-0.256,0.865c0.302,0.539,0.658,1.063,0.854,1.641
		c0.577,1.684,1.094,3.387,1.622,5.085c0.213,0.685,0.492,1.3,1.326,1.415c-0.138,0.579-0.396,0.77-0.924,0.498
		c-0.192-0.1-0.428-0.139-0.646-0.152c-1.314-0.082-2.639-0.119-3.95-0.229c-3.821-0.316-7.643-0.657-11.458-1.012
		c-0.191-0.021-0.364-0.248-0.548-0.379c0.174-0.108,0.346-0.313,0.516-0.311c0.594,0.005,1.188,0.075,1.781,0.13
		c3.467,0.32,6.933,0.649,10.397,0.966c0.957,0.086,1.917,0.127,2.956,0.192c-0.055-0.3-0.063-0.47-0.116-0.626
		c-0.478-1.463-0.933-2.936-1.454-4.38c-0.294-0.813-0.682-1.601-1.062-2.379c-0.185-0.375-0.493-0.541-0.93-0.333
		c-1.414,0.675-2.854,1.3-4.248,2.016c-1.484,0.764-2.884,1.708-4.4,2.387c-1.634,0.728-3.369,1.226-5.054,1.838
		c-0.76,0.274-1.08,0.146-1.512-0.629c-0.069-0.129-0.271-0.209-0.428-0.265c-2.21-0.767-4.413-1.555-6.638-2.271
		c-2.703-0.875-5.424-1.692-8.146-2.521c-0.21-0.063-0.462,0.017-0.692,0.026c0.034,0.211,0.025,0.438,0.105,0.631
		c0.897,2.146,1.565,4.348,1.816,6.671c0.112,1.039,0.419,1.253,1.378,0.871c3.248-1.297,6.713-1.688,10.079-2.49
		c0.485-0.112,0.974-0.228,1.467-0.288c0.146-0.019,0.313,0.141,0.465,0.217c-0.1,0.14-0.173,0.318-0.308,0.403
		c-0.137,0.088-0.381,0.028-0.493,0.129c-0.139,0.123-0.191,0.347-0.28,0.524c0.063,0.055,0.121,0.107,0.185,0.162
		c-0.165,0.027-0.394,0.142-0.484,0.07c-0.632-0.461-1.239-0.129-1.853,0.012c-0.391,0.091-0.774,0.191-1.163,0.277
		c-2.578,0.566-5.156,1.129-7.733,1.701c-0.144,0.031-0.271,0.131-0.537,0.266c0.819,0.303,1.488,0.562,2.166,0.793
		c3.038,1.049,6.093,2.047,9.111,3.146c2.364,0.861,4.682,1.852,7.027,2.766c0.291,0.111,0.625,0.115,1.095,0.196
		c-0.165-0.354-0.232-0.507-0.309-0.655c-1.354-2.74-2.721-5.478-4.05-8.229c-0.104-0.215,0.042-0.551,0.072-0.829
		c0.25,0.151,0.605,0.247,0.73,0.474c0.336,0.604,0.563,1.271,0.853,1.902c1.134,2.493,2.258,4.99,3.421,7.473
		c0.366,0.776,0.681,0.842,1.425,0.414c1.019-0.582,2.02-1.191,3.029-1.781c2.081-1.211,4.167-2.416,6.248-3.629
		c1.635-0.953,3.26-1.922,4.896-2.873c3.515-2.037,7.027-4.066,10.542-6.103C430.089,200.395,430.423,200.2,430.945,199.898z
		 M396.827,73.213c-0.565,0.643-1.025,1.18-1.507,1.699c-0.248,0.269-0.496,0.566-0.805,0.742c-0.282,0.16-0.684,0.085-0.587-0.354
		c0.136-0.618,0.286-1.291,0.643-1.788c0.472-0.655,1.154-1.153,1.729-1.738c0.162-0.165,0.402-0.454,0.354-0.591
		c-0.459-1.254-0.878-2.541-1.51-3.708c-0.401-0.74-0.958-0.692-1.736-0.3c-0.8,0.402-1.615,0.781-2.456,1.095
		c-0.78,0.293-1.626,0.47-1.188,1.626c0.008,0.021,0,0.05-0.004,0.074c-0.339,2.189-1.105,4.208-2.641,5.832
		c-0.688,0.729-0.776,1.39-0.463,2.283c0.484,1.37,0.563,2.823,0.145,4.195c-0.364,1.19-0.994,2.304-1.561,3.425
		c-0.107,0.22-0.444,0.433-0.695,0.458c-1.097,0.107-2.122-1.255-1.729-2.261c0.336-0.854,0.281-1.664-0.218-2.423
		c-0.123-0.188-0.365-0.297-0.552-0.443c0.271,1.914,0.652,2.124-0.571,3.274c-0.092,0.087-0.104,0.421-0.021,0.51
		c0.493,0.512,0.887,1.047,1.229,1.697c0.299,0.565,0.285,0.932,0.101,1.418c-0.167,0.443-0.342,0.883-0.521,1.321
		c-0.383,0.928-1.306,1.723-1.97,1.6c-0.785-0.145-1.508-0.419-2.071-1.081c-1.007-1.177-1.455-2.6-1.865-4.027
		c-0.267-0.929-0.333-1.917-0.489-2.877c-0.068-0.01-0.141-0.02-0.211-0.029c-0.101,0.762-0.328,1.532-0.278,2.284
		c0.175,2.826,0.58,5.599,2.765,7.91c-1.19,0.853-2.284,1.636-3.416,2.447c0.111,0.067,0.203,0.148,0.312,0.185
		c1.199,0.401,2.427,0.737,3.6,1.205c2.08,0.83,4.14,1.71,6.183,2.625c1.1,0.491,2.083,0.698,3.327,0.258
		c2.457-0.868,4.563-2.224,6.137-4.223c2.521-3.194,3.941-6.844,3.82-10.997c-0.006-0.219,0.09-0.545,0.246-0.635
		c0.143-0.082,0.514,0.015,0.641,0.16c0.513,0.583,0.691,0.197,0.87-0.249c0.195-0.486-0.104-0.662-0.494-0.82
		c-0.729-0.297-1.412-0.694-1.599-1.539c-0.188-0.851-0.696-1.319-1.505-1.579c-0.361-0.116-0.758-0.33-0.976-0.622
		c-0.155-0.211-0.045-0.624-0.053-0.946c0.24,0.018,0.481,0.033,0.723,0.056c0.113,0.011,0.229,0.036,0.422,0.067
		c0-0.5,0-0.944,0-1.499c-0.257,0.143-0.395,0.263-0.546,0.293c-0.245,0.05-0.502,0.041-0.756,0.057
		c0.051-0.23,0.054-0.482,0.151-0.687c0.274-0.556,0.57-1.105,0.898-1.63c0.134-0.215,0.346-0.435,0.57-0.528
		C397.283,74.194,397.18,73.853,396.827,73.213z M296.099,178.271c0.004,0.084,0.008,0.166,0.012,0.248
		c0.22,0.1,0.433,0.207,0.65,0.299c2.412,1.011,4.819,2.023,7.239,3.022c2.37,0.981,4.753,1.944,7.128,2.923
		c2.468,1.012,4.906,2.094,7.402,3.028c5.205,1.953,10.438,3.836,15.66,5.733c3.938,1.435,7.867,2.887,11.825,4.257
		c2.922,1.012,5.896,1.868,8.826,2.856c4.963,1.672,9.917,3.371,14.857,5.1c4.687,1.638,9.354,3.311,14.021,4.99
		c2.224,0.805,4.355,1.865,6.729,2.232c0.391,0.061,0.763,0.23,1.14,0.357c4.316,1.465,8.633,2.945,12.964,4.373
		c0.455,0.148,1.104,0.168,1.503-0.051c2.157-1.191,4.273-2.455,6.382-3.738c2.661-1.619,5.269-3.33,7.952-4.911
		c2.79-1.646,5.666-3.144,8.463-4.776c3.244-1.893,6.438-3.869,9.664-5.795c1.818-1.085,3.681-2.098,5.479-3.212
		c2.97-1.837,5.896-3.739,8.852-5.595c2.804-1.76,5.623-3.495,8.438-5.239c2.877-1.784,5.768-3.554,8.629-5.356
		c0.592-0.373,1.099-0.873,1.69-1.354c-0.838-0.441-1.396-0.227-1.995,0.191c-1.162,0.81-2.349,1.59-3.576,2.295
		c-2.304,1.326-4.673,2.539-6.958,3.896c-1.729,1.026-3.354,2.233-5.058,3.31c-2.696,1.696-5.438,3.323-8.128,5.028
		c-2.144,1.354-4.232,2.785-6.354,4.179c-1.882,1.234-3.744,2.506-5.665,3.684c-1.141,0.699-2.384,1.229-3.563,1.867
		c-3.217,1.738-6.455,3.443-9.627,5.265c-3.825,2.194-7.603,4.479-11.379,6.753c-1.306,0.784-2.535,1.686-3.848,2.453
		c-0.376,0.223-1.183,0.393-1.327,0.21c-0.742-0.917-1.806-1.132-2.795-1.487c-2.242-0.808-4.507-1.563-6.765-2.334
		c-4.055-1.387-8.107-2.767-12.166-4.146c-3.375-1.147-6.762-2.261-10.119-3.459c-2.228-0.795-4.385-1.794-6.622-2.562
		c-3.938-1.352-7.934-2.531-11.861-3.896c-3.577-1.245-7.089-2.676-10.647-3.971c-3.992-1.448-8.004-2.846-12.011-4.254
		c-2.188-0.77-4.385-1.494-6.564-2.276c-4.012-1.442-8.019-2.899-12.017-4.378c-2.407-0.891-4.804-1.811-7.188-2.76
		c-1.475-0.586-2.921-1.246-4.374-1.889c-0.569-0.253-0.524-0.685-0.099-0.977c0.693-0.475,1.412-0.971,2.194-1.242
		c3.929-1.372,7.888-2.66,11.826-4.007c6.229-2.13,12.449-4.275,18.673-6.429c1.838-0.638,3.661-1.314,5.49-1.974
		c0.642-0.229,0.824-0.854,0.727-1.328c-0.126-0.596-0.705-0.214-1.074-0.132c-0.509,0.113-1.007,0.286-1.498,0.471
		c-1.449,0.536-2.879,1.131-4.34,1.635c-5.116,1.765-10.251,3.471-15.358,5.258c-1.899,0.664-3.717,1.58-5.622,2.229
		c-4.413,1.497-8.861,2.893-13.287,4.354C297.769,177.527,296.942,177.927,296.099,178.271z M363.841,200.073
		c-0.045,0.021-0.09,0.043-0.138,0.063c-0.087-0.112-0.196-0.218-0.258-0.346c-0.664-1.444-1.324-2.896-1.978-4.345
		c-0.35-0.771-0.694-1.54-1.02-2.321c-0.188-0.458-0.485-0.656-0.982-0.592c-1.162,0.147-2.322,0.315-3.488,0.418
		c-3.33,0.284-6.663,0.54-9.994,0.813c-0.271,0.021-0.542,0.098-1.021,0.186c0.389,0.197,0.556,0.3,0.732,0.371
		c2.133,0.846,4.246,1.746,6.406,2.518c4.719,1.682,9.458,3.307,14.195,4.936c4.975,1.711,9.954,3.408,14.937,5.097
		c0.989,0.335,1.068,0.233,0.858-0.806c-0.049-0.242-0.082-0.49-0.125-0.735c-0.375-2.144-0.811-4.257-1.986-6.149
		c-0.323-0.52-0.667-0.697-1.216-0.595c-3.844,0.729-7.688,1.464-11.53,2.19c-0.51,0.099-1.022,0.168-1.538,0.25
		c-0.021-0.109-0.043-0.226-0.063-0.338c4.143-1.725,8.608-2.179,12.98-3.109c-0.267-0.215-0.527-0.34-0.804-0.432
		c-4.122-1.354-8.242-2.715-12.37-4.049c-1.23-0.396-2.483-0.732-3.734-1.076c-0.392-0.104-0.84-0.146-0.608,0.502
		c0.515,1.457,1.058,2.902,1.586,4.354C363.073,197.941,363.455,199.008,363.841,200.073z M446.163,188.818
		c-0.538,0.543-1.024,0.556-1.551,0.39c-0.16-0.052-0.314-0.153-0.478-0.159c-1.329-0.041-2.663-0.008-3.986-0.105
		c-2.086-0.152-4.163-0.428-6.249-0.586c-1.216-0.092-2.44-0.1-3.663-0.063c-1.096,0.03-1.337,0.563-0.872,1.541
		c0.398,0.839,0.729,1.714,1.042,2.589c0.262,0.72,0.391,1.485,0.688,2.185c0.526,1.224,1.158,2.4,1.72,3.613
		c0.249,0.534,0.567,0.42,0.954,0.194c1.315-0.759,2.666-1.462,3.947-2.271c1.954-1.237,3.864-2.539,5.787-3.828
		c1.303-0.873,2.588-1.773,3.885-2.657c0.454-0.31,0.623-0.653,0.329-1.195c-1.111-2.05-1.71-4.267-2.104-6.551
		c-0.107-0.644-0.324-1.269-0.522-2.032c-4.611,2.547-9.192,4.746-13.618,7.235c0.028,0.057,0.06,0.112,0.089,0.168
		C436.377,187.788,441.192,188.296,446.163,188.818z M466.353,178.254c-0.027-0.102-0.055-0.201-0.082-0.303
		c-6.774-1.859-13.107-5.032-19.984-6.789c0.126,1.213,0.229,2.271,0.352,3.326c0.093,0.813,0.149,1.638,0.331,2.435
		c0.204,0.912,0.457,0.991,1.321,0.687c0.558-0.194,1.131-0.34,1.692-0.508c0.028,0.076,0.056,0.152,0.083,0.229
		c-0.509,0.287-1.018,0.571-1.525,0.858c0.033,0.086,0.067,0.172,0.104,0.26c5.26-0.652,10.508-0.126,15.885-0.04
		c-0.346,0.481-0.594,0.786-1.098,0.507c-0.076-0.042-0.192-0.037-0.283-0.021c-0.599,0.114-1.195,0.332-1.794,0.34
		c-1.419,0.018-2.84-0.104-4.26-0.104c-2.839,0.008-5.681,0.057-8.519,0.1c-0.564,0.012-1.146,0.179-1.691,0.086
		c-0.672-0.109-0.73,0.123-0.646,0.67c0.15,0.955,0.256,1.916,0.396,2.873c0.042,0.293,0.104,0.589,0.195,0.865
		c0.393,1.174,0.783,2.346,1.198,3.51c0.187,0.521,0.42,1.019,0.709,1.705c2.031-1.277,3.889-2.434,5.729-3.61
		c0.646-0.417,1.218-0.968,1.887-1.339c2.502-1.396,5.04-2.725,7.542-4.115C464.742,179.396,465.531,178.797,466.353,178.254z
		 M446.4,165.049c0.063,0.026,0.124,0.053,0.188,0.077c0.188-0.495,0.396-0.985,0.563-1.487c0.771-2.273,0.507-4.304-1.296-6.063
		c-1.064-1.04-2.362-1.629-3.656-2.261c-2.062-1.007-4.256-1.536-6.521-1.78c-0.31-0.033-0.823,0.133-0.938,0.36
		c-0.645,1.28-1.168,2.623-1.79,3.916c-0.472,0.979-0.883,1.823-0.37,3.031c0.4,0.943,0.771,1.813,1.675,2.231
		c0.927,0.435,1.952,0.653,2.938,0.968c0.577,0.186,1.408,0.191,1.68,0.588c0.596,0.857,1.056,1.876,0.889,3.01
		c-0.071,0.48-0.187,0.956-0.306,1.562c0.729-0.304,1.375-0.604,1.614-1.296c0.271-0.78,0.41-1.611,0.571-2.43
		c0.1-0.511,0.058-1.061,0.228-1.539c0.096-0.264,0.494-0.416,0.759-0.617c0.149,0.273,0.438,0.555,0.433,0.826
		c-0.025,1.227-0.134,2.447-0.216,3.725c0.66-0.462,1.53-0.854,1.774-1.753c0.242-0.896,0.296-1.854,0.336-2.791
		c0.021-0.482-0.238-0.976-0.23-1.461c0.005-0.31,0.271-0.612,0.42-0.919c0.246,0.144,0.586,0.229,0.719,0.439
		c0.215,0.35,0.37,0.771,0.415,1.178C446.363,163.384,446.363,164.219,446.4,165.049z M387.117,105.734
		c-0.57-1.519-1.067-2.88-1.606-4.223c-0.078-0.195-0.336-0.354-0.546-0.455c-1.551-0.742-3.075-1.542-4.668-2.174
		c-1.939-0.77-3.916-1.468-5.917-2.059c-1.617-0.478-3.289-0.783-4.948-1.104c-1.563-0.302-3.137-0.524-4.706-0.782
		c-0.355-0.058-0.554,0.03-0.594,0.446c-0.063,0.661-0.148,1.327-0.311,1.969c-0.138,0.557,0.021,0.75,0.573,0.835
		c1.426,0.222,2.863,0.423,4.261,0.773c2.504,0.627,5.002,1.296,7.466,2.063c2.229,0.693,4.429,1.483,6.591,2.353
		c0.818,0.331,1.472,1.061,2.261,1.499C385.638,105.243,386.389,105.449,387.117,105.734z M304.295,178.633
		c0.016,0.059,0.028,0.117,0.047,0.176c0.167,0,0.333,0.002,0.5,0c3.688-0.021,7.375-0.07,11.062-0.056
		c2.342,0.011,4.687,0.121,7.026,0.175c0.395,0.01,0.829,0.032,0.902-0.539c0.229-1.826,0.508-3.647,0.693-5.479
		c0.146-1.399-0.247-1.64-1.603-1.134c-1.263,0.472-2.528,0.924-3.793,1.379c-4.267,1.537-8.531,3.068-12.792,4.617
		C305.646,178.023,304.977,178.344,304.295,178.633z M416.222,195.54c0.01,0.058,0.02,0.116,0.028,0.174
		c0.522,0.108,1.053,0.202,1.57,0.328c2.338,0.567,4.67,1.159,7.014,1.715c1.353,0.321,2.72,0.585,4.073,0.888
		c0.917,0.203,1.823,0.459,2.744,0.641c0.502,0.098,0.771-0.117,0.427-0.624c-1.698-2.536-2.465-5.47-3.503-8.281
		c-0.377-1.021-0.547-1.133-1.555-0.646c-1.051,0.512-2.089,1.045-3.121,1.592c-1.867,0.982-3.729,1.977-5.586,2.98
		C417.605,194.691,416.92,195.127,416.222,195.54z M359.736,191.919c0.021-0.103,0.042-0.204,0.063-0.306
		c-0.349-0.146-0.685-0.333-1.041-0.434c-1.464-0.406-2.949-0.742-4.401-1.188c-4.123-1.264-8.229-2.57-12.353-3.836
		c-0.495-0.151-1.037-0.147-1.56-0.219c0.104,0.572,0.136,1.17,0.324,1.713c0.503,1.461,1.102,2.887,1.604,4.345
		c0.481,1.396,0.794,1.603,2.307,1.448c4.762-0.475,9.522-0.926,14.287-1.391C359.227,192.032,359.48,191.966,359.736,191.919z
		 M305.972,179.807c-0.011,0.078-0.021,0.158-0.032,0.237c0.381,0.167,0.756,0.353,1.146,0.497c3.869,1.45,7.731,2.932,11.627,4.32
		c1.682,0.602,3.43,1.019,5.148,1.506c0.397,0.111,0.788,0.131,0.718-0.481c-0.191-1.706-0.398-3.413-0.586-5.12
		c-0.07-0.674-0.421-0.938-1.089-0.941c-5.135-0.035-10.269-0.094-15.401-0.131C306.99,179.689,306.482,179.768,305.972,179.807z
		 M326.305,179.08c0.639,0.33,1.102,0.626,1.604,0.818c1.907,0.73,3.82,1.451,5.742,2.142c2.771,0.993,5.544,1.963,8.322,2.928
		c0.297,0.104,0.628,0.105,1.019,0.167c-0.083-0.188-0.092-0.24-0.124-0.273c-0.066-0.068-0.146-0.135-0.226-0.191
		c-1.715-1.27-2.958-2.896-3.607-4.924c-0.476-1.485-0.854-3.006-1.205-4.525c-0.15-0.662-0.431-0.851-1.032-0.596
		c-0.23,0.1-0.46,0.189-0.688,0.299c-1.188,0.569-2.354,1.194-3.572,1.701C330.543,177.456,328.515,178.213,326.305,179.08z
		 M434.222,172.887c4.034,1.432,7.894,2.801,11.804,4.188c-0.164-1.701-0.301-3.255-0.479-4.8c-0.024-0.217-0.299-0.6-0.393-0.58
		c-0.806,0.156-1.499-0.334-2.206-0.371c-1.249-0.067-2.516,0.279-3.777,0.369c-0.842,0.061-1.688-0.027-2.533-0.049
		c-0.002-0.078-0.003-0.154-0.005-0.232c0.592-0.123,1.183-0.246,1.771-0.37c-0.759-0.345-0.998-0.839-0.774-1.59
		c0.13-0.438,0.479-1.019,0.316-1.288c-0.208-0.352-0.826-0.46-1.271-0.666c-0.184-0.084-0.369-0.15-0.556-0.229
		c-0.481-0.203-0.662-0.043-0.691,0.479c-0.063,0.984-0.2,1.966-0.272,2.951c-0.021,0.301,0.07,0.609,0.089,0.75
		C434.869,171.975,434.561,172.411,434.222,172.887z M327.865,187.564c0.016,0.074,0.025,0.146,0.037,0.224
		c0.15,0.078,0.294,0.175,0.452,0.231c4.197,1.518,8.396,3.029,12.599,4.531c0.25,0.092,0.542,0.063,0.951,0.104
		c-0.141-0.408-0.222-0.662-0.313-0.912c-0.638-1.704-1.345-3.387-1.875-5.121c-0.229-0.736-0.572-0.932-1.221-0.835
		c-3.18,0.47-6.356,0.944-9.533,1.437C328.587,187.279,328.231,187.448,327.865,187.564z M338.516,185.152
		c0.006-0.055,0.013-0.11,0.019-0.166c-0.104-0.061-0.205-0.133-0.314-0.172c-3.738-1.301-7.462-2.648-11.227-3.877
		c-1.776-0.58-1.827-0.478-1.685,1.412c0.101,1.336,0.238,2.672,0.381,4.006c0.063,0.554,0.382,0.679,0.906,0.513
		c2.895-0.915,5.89-1.245,8.896-1.496C336.5,185.288,337.509,185.227,338.516,185.152z M337.265,173.449
		c-0.382-0.105-0.564-0.182-0.753-0.204c-3.315-0.406-6.632-0.793-9.944-1.218c-0.753-0.098-1.051,0.22-1.146,0.902
		c-0.26,1.799-0.523,3.596-0.807,5.391c-0.063,0.41,0.08,0.621,0.471,0.693c0.324,0.062,0.579,0.107,0.771-0.328
		c0.141-0.319,0.507-0.615,0.843-0.766c2.233-0.986,4.484-1.938,6.734-2.895C334.639,174.52,335.854,174.029,337.265,173.449z
		 M326.3,170.734c0.146,0.133,0.181,0.188,0.22,0.19c2.709,0.403,5.418,0.81,8.128,1.202c0.715,0.104,1.432,0.205,2.151,0.273
		c0.471,0.05,0.896-0.086,0.856-0.66c-0.103-1.565,0.462-2.984,0.89-4.439c0.073-0.26,0.002-0.562-0.002-0.845
		c-0.266,0.021-0.55-0.021-0.787,0.063c-3.644,1.291-7.276,2.599-10.91,3.905C326.673,170.491,326.52,170.609,326.3,170.734z
		 M390.723,157.706c0.56,0.271,1.104,0.746,1.667,0.761c1.183,0.03,2.375-0.162,3.558-0.303c0.404-0.048,0.528-0.292,0.294-0.697
		c-0.21-0.363-0.316-0.783-0.52-1.155c-0.62-1.146-1.037-2.395-2.176-3.242c-0.938-0.694-1.688-1.634-2.543-2.438
		c-0.341-0.317-0.746-0.561-1.237-0.923c-0.423,1.844,0.098,3.22,0.979,4.548c0.274,0.413,0.461,0.981,0.442,1.469
		C391.159,156.377,390.896,157.02,390.723,157.706z M427.783,159.145c0.407,0.205,0.709,0.365,1.021,0.51
		c1.452,0.682,1.958,0.396,2.405-1.187c0.256-0.901,0.629-1.774,1.017-2.631c0.379-0.836,0.885-1.616,1.244-2.459
		c0.109-0.263,0.046-0.816-0.146-0.953c-0.587-0.425-1.271-0.715-1.771-0.979c-0.571,0.712-1.127,1.324-1.586,2.002
		c-0.421,0.623-0.803,1.292-1.078,1.988c-0.244,0.613-0.295,1.3-0.48,1.94C428.232,157.98,427.99,158.566,427.783,159.145z
		 M444.05,168.736c0.237,0.121,0.439,0.254,0.664,0.328c2.044,0.693,4.102,1.354,6.136,2.076c2.198,0.779,4.362,1.659,6.563,2.426
		c3.425,1.187,6.861,2.318,10.309,3.438c0.305,0.1,0.729-0.015,1.045-0.154c0.363-0.162,0.29-0.449-0.063-0.578
		c-0.979-0.354-1.947-0.785-2.963-1.004c-3.129-0.676-6.102-1.813-9.075-2.947c-1.09-0.416-2.132-0.959-3.229-1.346
		c-2.695-0.947-5.418-1.816-8.114-2.765C444.716,167.999,444.388,168.184,444.05,168.736z M379.411,84.979
		c0.03,0.041,0.063,0.082,0.094,0.124c0.125-0.402,0.204-0.826,0.386-1.199c0.192-0.396,0.517-0.728,0.717-1.121
		c0.089-0.175,0.104-0.529-0.005-0.629c-0.134-0.123-0.507-0.164-0.647-0.063c-0.351,0.256-0.604,0.638-0.941,0.918
		c-0.16,0.133-0.42,0.201-0.629,0.188c-0.072-0.004-0.229-0.391-0.165-0.517c0.167-0.344,0.388-0.683,0.662-0.948
		c0.321-0.315,0.724-0.551,1.091-0.821c-0.017-0.062-0.028-0.125-0.042-0.187c-0.166-0.021-0.338-0.082-0.495-0.054
		c-1.14,0.202-2.038,1.466-1.914,2.635c0.191,1.816,0.92,3.426,1.872,4.953c0.264,0.422,0.538,0.912,1.137,0.767
		c0.617-0.149,1.043-0.544,1.082-1.369c-0.658-0.128-1.31-0.23-1.948-0.387c-0.654-0.162-1.171-0.935-0.991-1.625
		C378.737,85.376,379.155,85.198,379.411,84.979z M368.42,162.615c0.019-0.928-0.1-1.016-0.9-0.738
		c-0.374,0.13-0.758,0.248-1.107,0.43c-0.502,0.264-0.941,0.219-1.389-0.107c-0.537-0.398-1.076-0.797-1.633-1.163
		c-0.166-0.109-0.559-0.195-0.575-0.162c-0.188,0.396-0.392,0.81-0.434,1.229c-0.016,0.133,0.428,0.407,0.688,0.453
		c1.492,0.256,3,0.42,4.486,0.7C368.254,163.389,368.501,163.211,368.42,162.615z M350.189,159.611
		c-0.118-0.123-0.292-0.396-0.542-0.545c-0.446-0.27-0.917-0.534-1.414-0.662c-0.476-0.121-1.007-0.127-1.495-0.057
		c-0.198,0.026-0.509,0.42-0.479,0.604c0.042,0.298,0.266,0.723,0.513,0.809c0.862,0.301,1.762,0.494,2.655,0.693
		C349.925,160.564,350.172,160.298,350.189,159.611z M375.751,163.26c0.006-0.1,0.013-0.197,0.02-0.298
		c-0.778-0.397-1.537-0.842-2.34-1.178c-0.43-0.181-1.104-0.392-1.365-0.191c-0.284,0.218-0.287,0.896-0.271,1.368
		c0.007,0.209,0.325,0.497,0.564,0.586c0.286,0.105,0.643,0.07,0.958,0.035C374.132,163.492,374.941,163.369,375.751,163.26z
		 M397.438,155.51c0.226,0.781,0.38,1.418,0.608,2.026c0.049,0.13,0.366,0.239,0.552,0.224c0.813-0.072,1.624-0.187,2.431-0.31
		c0.138-0.021,0.258-0.161,0.521-0.334C400.118,156.559,398.836,156.057,397.438,155.51z M434.93,164.762
		c-0.092,0.285-0.108,0.313-0.105,0.332c0.058,0.479,0.311,0.667,0.798,0.797c0.815,0.215,1.589,0.602,2.438,0.938
		c0.054-0.635,0.007-1.07-0.696-1.118c-0.213-0.017-0.422-0.133-0.628-0.215C436.144,165.258,435.558,165.018,434.93,164.762z
		 M355.577,161.688c0.024-0.072,0.051-0.147,0.072-0.226c-0.603-0.378-1.194-0.776-1.813-1.126c-0.457-0.257-0.635,0.155-0.76,0.458
		c-0.051,0.124,0.099,0.474,0.201,0.496C354.038,161.456,354.813,161.563,355.577,161.688z M439.393,170.959
		c1.063,0.141,2.011-0.223,2.896-0.928c-0.417-0.545-0.881-0.48-1.354-0.166C440.411,170.214,439.907,170.591,439.393,170.959z
		 M370.228,161.68c-0.539,0.553-0.441,1.1-0.248,1.646c0.083-0.005,0.165-0.007,0.248-0.009
		C370.228,162.771,370.228,162.225,370.228,161.68z"/>
	<path d="M461.13,23.273c3.34,0.106,6.681,0.235,10.021,0.312c2.77,0.064,5.533,0.08,8.301,0.093
		c4.358,0.021,8.72,0.033,13.075,0.028c1.97-0.002,3.941-0.118,5.909-0.063c2.591,0.072,5.176,0.306,7.767,0.389
		c2.689,0.087,5.386,0.05,8.073,0.119c2.516,0.064,5.03,0.172,7.542,0.311c0.639,0.035,1.265,0.367,1.898,0.373
		c1.059,0.009,1.866,0.605,2.787,0.946c1.491,0.553,3.021,1.017,4.551,1.471c0.672,0.199,0.958,0.488,0.907,1.26
		c-0.28,4.274-0.492,8.552-0.739,12.829c-0.217,3.756-0.445,7.512-0.676,11.268c-0.208,3.381-0.419,6.763-0.644,10.144
		c-0.265,4.002-0.553,8.002-0.813,12.005c-0.119,1.814-0.186,3.632-0.301,5.447c-0.186,2.907-0.401,5.812-0.587,8.719
		c-0.109,1.791-0.181,3.583-0.275,5.375c-0.067,1.217-0.111,2.438-0.256,3.647c-0.038,0.322-0.345,0.758-0.637,0.88
		c-1.878,0.787-3.788,1.495-5.684,2.244c-0.344,0.136-0.569,0.187-0.786-0.225c-0.088-0.168-0.458-0.225-0.711-0.263
		c-1.027-0.157-2.06-0.29-3.092-0.426c-0.246-0.033-0.494-0.055-0.742-0.064c-2.189-0.078-4.382-0.123-6.569-0.235
		c-2.156-0.11-4.315-0.247-6.471-0.442c-3.841-0.348-7.684-0.697-11.515-1.142c-4.726-0.548-9.438-1.192-14.15-1.798
		c-3.83-0.492-7.658-0.998-11.49-1.479c-3.335-0.418-6.678-0.781-10.011-1.222c-3.851-0.509-7.694-1.078-11.541-1.62
		c-0.811-0.114-1.63-0.19-2.429-0.362c-0.258-0.055-0.507-0.325-0.686-0.555c-0.517-0.679-1.024-1.367-1.474-2.092
		c-0.182-0.296-0.268-0.699-0.267-1.053c0.006-1.443,0.06-2.887,0.102-4.33c0.144-4.956,0.289-9.912,0.431-14.868
		c0.116-4.035,0.218-8.071,0.35-12.105c0.079-2.415,0.219-4.829,0.312-7.243c0.09-2.317,0.134-4.635,0.232-6.951
		c0.145-3.362,0.316-6.723,0.479-10.084c0.096-1.915,0.118-3.836,0.313-5.74c0.076-0.75,0.354-1.628,0.854-2.146
		c0.543-0.563,1.413-0.94,2.203-1.111c2.799-0.603,5.648-0.507,8.496-0.438c2.645,0.065,5.286,0.014,7.929,0.014
		C461.128,23.15,461.129,23.212,461.13,23.273z M452.072,24.575c0-0.03,0-0.059,0-0.089c-0.896,0-1.796-0.026-2.689,0.007
		c-1.169,0.042-2.346,0.076-3.501,0.217c-1.198,0.146-2.121,0.708-2.345,2.036c-0.021,0.133-0.156,0.244-0.22,0.375
		c-0.126,0.278-0.329,0.561-0.339,0.847c-0.075,2.086-0.063,4.177-0.172,6.261c-0.116,2.23-0.521,4.43-0.41,6.693
		c0.107,2.208-0.11,4.432-0.192,6.649c-0.103,2.763-0.214,5.525-0.315,8.288c-0.16,4.209-0.322,8.417-0.479,12.626
		c-0.15,4.159-0.302,8.318-0.443,12.478c-0.085,2.44-0.169,4.881-0.226,7.322c-0.008,0.349,0.101,0.728,0.247,1.047
		c0.521,1.106,1.581,1.385,2.646,1.565c1.129,0.19,2.274,0.271,3.416,0.41c4.274,0.52,8.555,1.043,12.833,1.565
		c1.93,0.235,3.858,0.451,5.788,0.71c2.396,0.323,4.779,0.723,7.181,1.016c3.313,0.403,6.639,0.721,9.955,1.105
		c4.874,0.564,9.734,1.229,14.619,1.713c4.858,0.481,9.734,0.818,14.608,1.165c2.756,0.196,5.521,0.294,8.281,0.401
		c0.15,0.006,0.425-0.299,0.451-0.486c0.105-0.764,0.149-1.537,0.202-2.308c0.462-7.039,0.896-14.08,1.389-21.117
		c0.35-4.997,0.783-9.988,1.168-14.982c0.367-4.772,0.728-9.545,1.074-14.318c0.138-1.889,0.278-3.78,0.345-5.672
		c0.127-3.609,0.234-7.219,0.28-10.83c0.021-1.648-0.98-2.709-2.604-3.03c-0.558-0.11-1.183-0.152-1.643-0.44
		c-1.614-1.013-3.236-1.344-5.009-0.446c-0.228,0.114-0.534,0.091-0.807,0.086c-3.188-0.063-6.375-0.139-9.563-0.206
		c-1.919-0.041-3.837-0.083-5.756-0.107c-4.662-0.058-9.323-0.116-13.985-0.153c-3.139-0.025-6.277,0.028-9.416-0.034
		c-4.036-0.079-8.067-0.288-12.104-0.35C460.253,24.526,456.159,24.575,452.072,24.575z"/>
	<path fill="#FFFFFF" d="M384.684,106.031c-0.206-0.009-0.419-0.057-0.615-0.017c-0.191,0.04-0.37,0.167-0.554,0.256
		c0.1,0.184,0.154,0.43,0.307,0.54c0.828,0.6,0.817,0.728-0.104,1.192c-0.469,0.234-0.936,0.486-1.351,0.798
		c-0.202,0.152-0.275,0.466-0.425,0.697c-0.126,0.199-0.241,0.425-0.417,0.569c-1.782,1.451-3.104,3.232-3.84,5.413
		c-0.236,0.699-0.475,1.452,0.065,2.313c0.146-0.28,0.266-0.434,0.313-0.606c0.788-2.817,2.218-5.2,4.607-6.964
		c0.241-0.18,0.344-0.555,0.411-0.934c1.566-0.708,3.148-1.683,5.082-1.226c0.431,0.101,0.899,0.017,1.334,0.105
		c2.865,0.588,4.677,2.504,5.807,5.023c1.023,2.288,1.764,4.704,2.653,7.054c0.446,1.186,1.006,2.333,1.409,3.531
		c0.293,0.866,0.426,1.787,0.619,2.685c0.147,0.674,0.21,1.377,0.45,2.016c0.153,0.407,0.504,0.795,0.864,1.057
		c1.146,0.834,1.661,1.909,1.854,3.329c0.229,1.644,0.554,3.326,1.946,4.542c0.492,0.429,0.76,1.106,1.202,1.606
		c0.292,0.331,0.681,0.712,1.08,0.788c1.159,0.218,2.122,0.772,3.123,1.352c0.996,0.578,2.096,1.053,3.21,1.334
		c2.46,0.622,4.971,1.038,7.333,2.025c1.124,0.469,2.292,0.829,3.431,1.265c1.225,0.468,2.449,0.933,3.646,1.462
		c1.224,0.541,1.845,1.643,2.011,2.865c0.064,0.491-0.539,1.092-0.88,1.616c-0.877,1.348-1.913,2.59-2.021,4.332
		c-0.037,0.606-0.291,1.457-1.354,1.057c-0.146-0.056-0.479,0.166-0.616,0.347c-0.803,1.042-1.926,1.237-3.133,1.284
		c-0.238,0.012-0.473,0.152-0.707,0.234c0.169,0.188,0.302,0.452,0.512,0.545c0.595,0.26,1.221,0.448,1.891,0.687
		c-1.229,0.584-2.488,0.932-3.811,0.366c-1.747-0.745-3.623-1.228-5.063-2.633c-0.396-0.391-1.213-0.554-1.812-0.508
		c-3.481,0.271-6.76-0.531-10.052-1.547c-3.155-0.974-6.032-2.482-8.808-4.187c-0.9-0.554-1.558-1.575-2.198-2.472
		c-1.087-1.515-2.085-3.093-3.101-4.659c-0.933-1.441-1.854-2.891-2.749-4.357c-1.852-3.039-3.815-6.02-5.476-9.162
		c-1.271-2.41-2.092-5.047-2.499-7.776c-0.025-0.172-0.021-0.359-0.088-0.513c-0.116-0.263-0.279-0.504-0.423-0.755
		c-0.188,0.271-0.487,0.52-0.549,0.816c-0.287,1.43-0.146,2.865,0.439,4.178c1.12,2.514,2.215,5.059,3.599,7.428
		c0.758,1.298,0.918,2.426,0.521,3.781c-0.152,0.519-0.138,1.087-0.094,1.66c0.933-0.371,0.854-1.346,1.432-2.095
		c0.455,0.652,0.89,1.229,1.274,1.837c1.414,2.23,2.835,4.458,4.193,6.721c0.226,0.372,0.234,0.924,0.207,1.385
		c-0.104,1.782-0.357,3.562-0.354,5.342c0.003,0.74,0.447,1.517,0.821,2.207c0.459,0.848,0.527,1.47-0.024,2.253
		c-0.317,0.444-0.604,0.979-1.04,1.26c-0.442,0.285-1.081,0.492-1.584,0.414c-1.798-0.274-3.081,0.787-4.493,1.537
		c-0.104,0.057-0.215,0.152-0.262,0.26c-0.554,1.229-1.648,1.242-2.731,1.17c-0.589-0.04-1.188-0.193-1.746-0.397
		c-0.938-0.344-1.896-0.69-2.767-1.178c-1.374-0.769-2.87-0.788-4.346-0.806c-1.138-0.017-2.272,0.271-3.416,0.35
		c-0.685,0.046-1.377-0.087-2.063-0.078c-1.845,0.021-3.689,0.059-5.533,0.129c-1.274,0.051-2.5,0.092-3.66-0.679
		c-0.686-0.454-1.579-0.581-2.354-0.915c-1.708-0.736-3.417-1.475-5.084-2.299c-0.46-0.228-0.745-0.79-1.157-1.143
		c-0.191-0.164-0.497-0.195-0.751-0.286c-0.042,0.273-0.187,0.583-0.104,0.81c0.146,0.409,0.434,0.767,0.657,1.143
		c-1.186,0.773-3.023,0.629-4.173-0.279c-0.817-0.646-1.504-1.359-1.635-2.476c-0.024-0.211-0.292-0.394-0.448-0.59
		c-0.183,0.207-0.407,0.39-0.534,0.626c-0.084,0.157-0.046,0.39-0.033,0.588c0.044,0.783-0.171,0.992-0.94,0.764
		c-0.47-0.138-0.949-0.348-1.334-0.643c-0.913-0.699-1.741-1.501-2.089-2.648c-0.168-0.555-0.142-1.114,0.438-1.453
		c2.132-1.256,3.308-3.278,4.271-5.431c2.232-4.984,3.532-10.256,4.685-15.57c0.317-1.461,0.729-2.906,0.966-4.379
		c0.186-1.145,0.083-2.333,0.245-3.482c0.393-2.73,0.794-5.462,1.321-8.168c0.424-2.175,1.515-4.072,2.9-5.794
		c0.671-0.834,1.314-1.688,2-2.512c1.897-2.29,4.362-3.718,7.136-4.705c0.704-0.25,1.299-0.794,1.995-1.081
		c0.55-0.227,1.217-0.467,1.763-0.356c3.415,0.694,6.837,1.38,10.203,2.276c2.588,0.689,5.091,1.694,7.639,2.536
		c0.837,0.276,1.646,0.558,2.227,1.284c0.109,0.14,0.409,0.122,0.614,0.195c0.25,0.089,0.493,0.196,0.739,0.296
		C384.726,105.88,384.702,105.955,384.684,106.031z M416.257,155.432c-0.031,0.148-0.063,0.296-0.097,0.443
		c0.436,0.162,0.855,0.413,1.305,0.467c0.859,0.103,1.736,0.144,2.605,0.121c2.396-0.061,4.686-0.583,6.739-1.868
		c0.682-0.425,0.637-0.925-0.09-1.248c-0.977-0.433-1.963-0.835-2.964-1.197c-0.192-0.069-0.476,0.106-0.712,0.168
		c0.073,0.236,0.08,0.561,0.24,0.689c0.324,0.256,0.742,0.391,1.104,0.606c0.179,0.106,0.317,0.28,0.476,0.423
		c-0.185,0.139-0.349,0.336-0.556,0.408c-2.042,0.708-4.143,1.069-6.311,0.991C417.423,155.414,416.84,155.432,416.257,155.432z"/>
	<path fill="#FFFFFF" d="M432.337,171.848c-0.166,0.7-0.195,1.477-0.524,2.086c-0.94,1.743-1.835,3.563-3.076,5.078
		c-0.828,1.012-2.146,1.717-3.371,2.295c-4.752,2.245-9.715,3.779-14.938,4.582c-4.479,0.688-8.958,1-13.475,1.172
		c-2.406,0.092-4.804,0.504-7.209,0.73c-0.457,0.043-0.93-0.129-1.396-0.16c-0.29-0.02-0.595,0-0.877,0.067
		c-2.688,0.642-5.359,1.354-8.063,1.935c-4.673,1.002-9.363,1.309-14.103,0.316c-3.701-0.774-7.188-2.088-10.362-4.105
		c-1.237-0.785-2.213-1.988-3.283-3.027c-0.183-0.178-0.241-0.479-0.489-0.617c-0.521,1.104,0.302,1.621,0.687,2.254
		c0.417,0.683,1.044,1.234,1.668,1.947c-0.372,0-0.646,0.025-0.917-0.004c-0.914-0.104-1.824-0.306-2.739-0.328
		c-1.656-0.041-3.107-0.631-4.497-1.465c-0.384-0.229-0.76-0.479-1.155-0.685c-1.372-0.709-2.278-1.831-2.896-3.215
		c-0.415-0.935-0.856-1.856-1.215-2.813c-0.688-1.854-0.575-3.813-0.658-5.75c-0.138-3.214,1.268-5.945,2.597-8.703
		c0.388-0.804,0.934-1.527,1.326-2.33c0.25-0.51,0.529-0.617,1.063-0.479c2.316,0.599,4.629,1.226,6.971,1.698
		c1.156,0.232,2.376,0.141,3.564,0.24c0.539,0.049,1.105,0.117,1.593,0.334c2.485,1.113,5.107,1.404,7.791,1.535
		c1.911,0.092,3.809,0.43,5.716,0.623c2.094,0.215,4.188,0.148,6.25-0.268c0.524-0.105,1.021-0.387,1.507-0.631
		c1.683-0.848,3.341-1.73,5.026-2.567c1.771-0.878,3.61-1.555,5.626-1.584c0.421-0.006,0.864,0.052,0.979-0.555
		c0.021-0.093,0.433-0.226,0.566-0.155c0.563,0.283,1.174,0.551,1.599,0.987c0.654,0.671,1.062,0.756,1.771,0.194
		c0.388-0.307,0.851-0.635,1.316-0.703c3.007-0.438,6.018-0.867,9.038-1.158c1.188-0.114,2.413,0.128,3.62,0.224
		c1.836,0.147,3.679,0.261,5.503,0.485c0.771,0.095,1.565,0.324,2.245,0.688c1.879,1.006,3.771,1.899,5.952,1.982
		c0.342,0.014,0.677,0.207,1.021,0.215c0.953,0.021,1.886-0.066,2.677-0.721c0.616-0.51,1.248-0.764,2.155-0.662
		c1.181,0.132,2.313,0.273,3.368,0.83c0.175,0.09,0.364,0.18,0.483,0.322c1.146,1.375,2.212,2.808,2.639,4.588
		c0.139,0.564,0.259,1.188,0.162,1.746c-0.152,0.927-0.464,1.83-0.764,2.726c-0.093,0.276-0.369,0.492-0.563,0.735
		C432.278,171.802,432.308,171.824,432.337,171.848z"/>
	<path fill="#FFFFFF" d="M383.215,78.335c0.385-0.104,0.792-0.16,1.146-0.323c0.588-0.267,0.905-0.07,0.886,0.521
		c-0.031,1.026-0.152,2.05-0.236,3.075c-0.087,0.013-0.174,0.026-0.264,0.039c-0.432-0.521-0.876-1.033-1.292-1.566
		c-0.896-1.15-2.094-1.526-3.496-1.421c-0.621,0.046-1.244,0.057-1.865,0.09c-1.11,0.06-1.957,0.689-2.577,1.493
		c-0.961,1.247-1.664,2.66-1.966,4.235c-0.028,0.146-0.073,0.304-0.045,0.443c0.401,2.07,0.341,4.237,1.259,6.198
		c0.251,0.537,0.549,1.061,0.888,1.547c0.314,0.451,0.225,0.739-0.238,0.941c-0.521,0.228-1.037,0.491-1.586,0.62
		c-0.885,0.208-1.787,0.405-2.688,0.447c-0.731,0.034-1.479-0.153-2.211-0.27c-2.136-0.34-4.276-0.651-6.396-1.073
		c-0.511-0.101-1.039-0.504-1.396-0.91c-1.161-1.313-2.233-2.705-3.376-4.035c-0.188-0.218-0.559-0.287-0.852-0.408
		c-0.191-0.08-0.452-0.073-0.596-0.201c-1.52-1.351-2.481-2.957-2.705-5.059c-0.17-1.594-0.59-3.178-1.056-4.719
		c-1.019-3.357-1.086-6.678,0.646-9.772c0.859-1.535,2.141-2.863,3.367-4.149c0.72-0.753,1.786-1.164,2.578-1.863
		c2.249-1.988,4.846-3.322,7.559-4.571c3.098-1.425,6.349-1.702,9.619-1.862c2.077-0.102,4.155,0.27,6.185,0.896
		c3.229,0.999,6.458,2.075,9.818,2.47c1.02,0.12,2.129-0.521,3.188-0.852c0.119-0.037,0.16-0.327,0.233-0.499
		c0.125-0.284,0.25-0.568,0.395-0.89c1.045,0.514,1.199,1.438,1.216,2.313c0.017,0.833-0.146,1.689-0.352,2.504
		c-0.227,0.89-0.828,1.547-1.522,2.161c-1.308,1.155-2.505,2.454-4.217,3.029c-0.939,0.315-1.91,0.538-2.854,0.842
		c-0.305,0.099-0.618,0.28-0.82,0.516c-0.063,0.072,0.255,0.439,0.346,0.689c0.086,0.239,0.188,0.521,0.139,0.753
		c-0.626,2.917-1.729,5.561-4.256,7.397c-0.313,0.23-0.521,0.607-0.781,0.917C383.094,78.131,383.155,78.233,383.215,78.335z"/>
	<path fill="#FFFFFF" d="M351.576,187.786c1.273,0.292,2.567,0.517,3.817,0.889c2.292,0.685,4.526,1.576,6.841,2.153
		c2.455,0.611,4.947,1.076,7.521,1.082c3.035,0.006,6.019-0.374,8.981-0.916c1.541-0.282,3.038-0.793,4.57-1.133
		c1.04-0.231,2.1-0.407,3.161-0.504c2.151-0.192,4.313-0.342,6.472-0.461c2.829-0.154,5.667-0.186,8.488-0.414
		c2.951-0.242,5.893-0.619,8.828-1.021c1.896-0.258,3.787-0.614,5.662-1.017c0.968-0.205,1.903-0.568,2.839-0.913
		c1.631-0.604,3.235-1.267,4.87-1.863c1.855-0.687,3.529-1.646,5.104-2.862c1.413-1.095,2.729-2.261,3.715-3.736
		c0.531-0.793,0.921-1.696,1.275-2.59c0.238-0.602,0.523-0.584,1.023-0.381c2.074,0.848,4.146,1.711,6.246,2.477
		c1.447,0.527,2.949,0.9,4.428,1.349c0.297,0.091,0.586,0.206,0.878,0.312c0.012,0.07,0.021,0.144,0.035,0.214
		c-0.663,0.352-1.318,0.721-1.992,1.052c-4.494,2.21-9.02,4.364-13.479,6.643c-1.855,0.946-3.561,2.194-5.381,3.226
		c-1.992,1.126-4.033,2.165-6.063,3.225c-5.723,2.99-11.444,5.972-17.168,8.954c-0.708,0.369-1.399,0.775-2.139,1.073
		c-0.357,0.146-0.841,0.202-1.202,0.09c-2.542-0.787-5.058-1.653-7.598-2.446c-6.398-2-12.81-3.969-19.21-5.962
		c-3.142-0.978-6.258-2.036-9.415-2.96c-2.798-0.818-5.64-1.486-8.453-2.255c-0.93-0.254-1.83-0.614-2.744-0.928
		C351.526,188.032,351.553,187.909,351.576,187.786z"/>
	<path fill="#FFFFFF" d="M430.945,199.898c-0.521,0.302-0.854,0.494-1.188,0.688c-3.518,2.033-7.03,4.063-10.542,6.102
		c-1.64,0.949-3.265,1.918-4.896,2.871c-2.081,1.215-4.167,2.418-6.248,3.631c-1.012,0.59-2.013,1.197-3.027,1.781
		c-0.743,0.426-1.062,0.363-1.427-0.416c-1.163-2.479-2.288-4.977-3.421-7.47c-0.289-0.634-0.517-1.299-0.853-1.905
		c-0.124-0.224-0.48-0.314-0.73-0.471c-0.028,0.279-0.175,0.614-0.069,0.829c1.327,2.753,2.692,5.487,4.05,8.229
		c0.071,0.146,0.141,0.301,0.306,0.653c-0.471-0.081-0.805-0.085-1.095-0.196c-2.349-0.914-4.663-1.901-7.027-2.766
		c-3.019-1.102-6.074-2.1-9.11-3.146c-0.679-0.231-1.348-0.49-2.165-0.793c0.266-0.133,0.395-0.231,0.535-0.266
		c2.577-0.57,5.155-1.135,7.733-1.699c0.389-0.086,0.775-0.188,1.163-0.279c0.614-0.141,1.221-0.473,1.853-0.012
		c0.097,0.068,0.319-0.043,0.484-0.068c-0.063-0.057-0.121-0.109-0.182-0.164c0.089-0.182,0.141-0.401,0.277-0.524
		c0.112-0.101,0.356-0.041,0.493-0.129c0.134-0.085,0.208-0.269,0.311-0.403c-0.155-0.076-0.321-0.232-0.468-0.217
		c-0.49,0.063-0.979,0.174-1.467,0.288c-3.366,0.806-6.831,1.192-10.079,2.49c-0.958,0.382-1.266,0.168-1.378-0.871
		c-0.251-2.323-0.918-4.524-1.813-6.671c-0.08-0.189-0.074-0.42-0.108-0.631c0.232-0.014,0.485-0.092,0.695-0.026
		c2.719,0.825,5.438,1.646,8.143,2.519c2.228,0.721,4.428,1.51,6.639,2.272c0.156,0.056,0.355,0.136,0.429,0.263
		c0.43,0.773,0.751,0.905,1.51,0.631c1.685-0.612,3.42-1.11,5.054-1.84c1.521-0.677,2.916-1.621,4.4-2.385
		c1.394-0.716,2.833-1.341,4.248-2.016c0.437-0.208,0.748-0.043,0.93,0.332c0.38,0.779,0.77,1.563,1.063,2.38
		c0.521,1.444,0.977,2.917,1.452,4.38c0.053,0.154,0.063,0.326,0.115,0.626c-1.039-0.065-1.999-0.108-2.956-0.195
		c-3.468-0.313-6.934-0.643-10.397-0.963c-0.593-0.055-1.188-0.125-1.781-0.13c-0.17-0.002-0.342,0.199-0.513,0.309
		c0.181,0.131,0.354,0.36,0.545,0.379c3.815,0.354,7.637,0.693,11.458,1.014c1.313,0.107,2.636,0.146,3.953,0.229
		c0.219,0.014,0.454,0.053,0.646,0.151c0.527,0.271,0.786,0.081,0.924-0.498c-0.834-0.116-1.11-0.729-1.324-1.415
		c-0.53-1.697-1.047-3.402-1.621-5.085c-0.198-0.577-0.558-1.103-0.856-1.64c-0.221-0.396-0.209-0.592,0.256-0.866
		c0.712-0.422,1.434-0.455,2.161-0.3c2.944,0.631,5.879,1.304,8.817,1.963c1.844,0.414,3.688,0.832,5.527,1.25
		C430.475,199.729,430.584,199.775,430.945,199.898z"/>
	<path fill="#FFFFFF" d="M396.827,73.213c0.354,0.64,0.457,0.981-0.134,1.223c-0.227,0.094-0.438,0.313-0.573,0.528
		c-0.325,0.525-0.624,1.074-0.896,1.63c-0.103,0.204-0.104,0.457-0.151,0.688c0.252-0.016,0.509-0.007,0.754-0.057
		c0.153-0.031,0.289-0.15,0.545-0.293c0,0.554,0,0.999,0,1.499c-0.189-0.031-0.306-0.057-0.421-0.067
		c-0.237-0.022-0.479-0.038-0.721-0.056c0.008,0.322-0.104,0.734,0.052,0.946c0.216,0.292,0.613,0.505,0.977,0.622
		c0.809,0.259,1.315,0.728,1.505,1.579c0.186,0.845,0.866,1.242,1.599,1.539c0.393,0.158,0.689,0.333,0.494,0.82
		c-0.179,0.446-0.359,0.832-0.87,0.249c-0.126-0.145-0.498-0.242-0.641-0.16c-0.156,0.09-0.252,0.416-0.246,0.635
		c0.122,4.152-1.302,7.802-3.82,10.997c-1.576,1.999-3.68,3.355-6.137,4.223c-1.244,0.439-2.229,0.233-3.327-0.258
		c-2.043-0.915-4.104-1.796-6.183-2.625c-1.172-0.468-2.398-0.804-3.601-1.205c-0.104-0.036-0.196-0.117-0.311-0.185
		c1.132-0.811,2.225-1.594,3.416-2.447c-2.187-2.311-2.589-5.084-2.768-7.91c-0.046-0.752,0.183-1.522,0.281-2.284
		c0.07,0.009,0.144,0.019,0.211,0.029c0.156,0.961,0.225,1.948,0.489,2.877c0.411,1.427,0.858,2.85,1.865,4.027
		c0.563,0.662,1.286,0.937,2.068,1.081c0.665,0.123,1.59-0.672,1.973-1.6c0.181-0.438,0.354-0.878,0.521-1.321
		c0.187-0.487,0.198-0.854-0.101-1.418c-0.344-0.65-0.735-1.186-1.229-1.697c-0.085-0.089-0.071-0.423,0.021-0.51
		c1.226-1.15,0.842-1.36,0.57-3.274c0.188,0.146,0.43,0.255,0.553,0.443c0.5,0.76,0.555,1.569,0.218,2.423
		c-0.396,1.006,0.632,2.368,1.726,2.261c0.251-0.025,0.591-0.237,0.698-0.458c0.564-1.121,1.194-2.234,1.561-3.425
		c0.419-1.372,0.342-2.825-0.145-4.195c-0.313-0.894-0.225-1.554,0.463-2.283c1.532-1.624,2.298-3.643,2.641-5.832
		c0.004-0.024,0.012-0.053,0.004-0.074c-0.438-1.156,0.404-1.333,1.188-1.626c0.838-0.314,1.656-0.693,2.456-1.095
		c0.779-0.392,1.335-0.44,1.736,0.3c0.632,1.167,1.051,2.454,1.51,3.708c0.05,0.138-0.191,0.426-0.354,0.591
		c-0.572,0.585-1.26,1.083-1.729,1.738c-0.354,0.497-0.507,1.17-0.643,1.788c-0.1,0.438,0.306,0.513,0.587,0.354
		c0.31-0.175,0.557-0.473,0.805-0.742C395.801,74.393,396.262,73.855,396.827,73.213z"/>
	<path fill="#FFFFFF" d="M296.099,178.271c0.844-0.348,1.67-0.744,2.534-1.029c4.426-1.463,8.875-2.855,13.288-4.354
		c1.904-0.646,3.722-1.563,5.624-2.229c5.104-1.787,10.239-3.493,15.355-5.259c1.461-0.504,2.894-1.098,4.34-1.635
		c0.49-0.184,0.989-0.354,1.498-0.47c0.369-0.082,0.948-0.464,1.074,0.132c0.101,0.479-0.084,1.1-0.725,1.328
		c-1.831,0.656-3.654,1.336-5.492,1.973c-6.223,2.151-12.444,4.299-18.673,6.43c-3.938,1.347-7.897,2.635-11.826,4.007
		c-0.782,0.271-1.501,0.771-2.194,1.242c-0.428,0.292-0.473,0.724,0.102,0.978c1.45,0.643,2.896,1.303,4.374,1.889
		c2.384,0.949,4.777,1.869,7.188,2.759c3.998,1.479,8.005,2.936,12.017,4.378c2.182,0.783,4.382,1.51,6.564,2.277
		c4.007,1.408,8.019,2.805,12.011,4.254c3.563,1.295,7.071,2.725,10.647,3.97c3.931,1.366,7.927,2.548,11.861,3.897
		c2.237,0.767,4.396,1.766,6.622,2.561c3.357,1.199,6.744,2.311,10.119,3.459c4.059,1.382,8.111,2.762,12.166,4.146
		c2.257,0.771,4.521,1.525,6.767,2.334c0.987,0.354,2.051,0.569,2.793,1.486c0.146,0.184,0.952,0.014,1.33-0.21
		c1.31-0.771,2.541-1.669,3.845-2.453c3.777-2.271,7.554-4.559,11.379-6.753c3.172-1.818,6.41-3.521,9.627-5.265
		c1.18-0.642,2.423-1.169,3.563-1.867c1.922-1.179,3.782-2.446,5.664-3.685c2.118-1.393,4.211-2.82,6.354-4.178
		c2.688-1.705,5.432-3.332,8.128-5.029c1.704-1.071,3.327-2.278,5.058-3.309c2.285-1.355,4.654-2.568,6.958-3.896
		c1.229-0.705,2.414-1.485,3.576-2.295c0.602-0.418,1.157-0.635,1.995-0.191c-0.595,0.48-1.102,0.98-1.69,1.354
		c-2.861,1.806-5.752,3.571-8.629,5.355c-2.813,1.744-5.634,3.479-8.438,5.24c-2.956,1.854-5.882,3.757-8.85,5.594
		c-1.802,1.113-3.661,2.127-5.479,3.212c-3.226,1.927-6.42,3.901-9.664,5.795c-2.797,1.634-5.673,3.134-8.463,4.776
		c-2.685,1.58-5.291,3.292-7.952,4.912c-2.104,1.281-4.225,2.546-6.382,3.736c-0.396,0.221-1.048,0.2-1.503,0.051
		c-4.331-1.429-8.646-2.907-12.964-4.371c-0.377-0.129-0.749-0.299-1.14-0.358c-2.367-0.367-4.504-1.431-6.729-2.231
		c-4.667-1.684-9.337-3.354-14.021-4.99c-4.941-1.729-9.896-3.428-14.857-5.1c-2.933-0.988-5.904-1.849-8.826-2.857
		c-3.958-1.37-7.888-2.822-11.825-4.256c-5.224-1.898-10.455-3.781-15.66-5.734c-2.496-0.938-4.937-2.021-7.402-3.03
		c-2.375-0.977-4.759-1.938-7.128-2.921c-2.417-0.999-4.827-2.015-7.239-3.023c-0.22-0.092-0.434-0.198-0.65-0.299
		C296.107,178.438,296.103,178.355,296.099,178.271z"/>
	<path fill="#FFFFFF" d="M363.841,200.073c-0.387-1.065-0.768-2.132-1.152-3.194c-0.528-1.452-1.071-2.898-1.586-4.354
		c-0.229-0.648,0.219-0.609,0.608-0.504c1.25,0.342,2.504,0.679,3.734,1.076c4.128,1.336,8.248,2.693,12.37,4.051
		c0.274,0.09,0.537,0.213,0.804,0.429c-4.372,0.934-8.841,1.388-12.98,3.112c0.021,0.109,0.044,0.226,0.063,0.338
		c0.516-0.084,1.027-0.154,1.538-0.252c3.847-0.729,7.688-1.463,11.53-2.191c0.549-0.104,0.893,0.075,1.216,0.594
		c1.178,1.896,1.61,4.01,1.986,6.15c0.043,0.244,0.075,0.492,0.125,0.736c0.21,1.039,0.131,1.14-0.858,0.805
		c-4.98-1.688-9.962-3.383-14.937-5.096c-4.737-1.629-9.479-3.252-14.195-4.937c-2.16-0.771-4.271-1.672-6.406-2.521
		c-0.179-0.068-0.346-0.174-0.732-0.369c0.479-0.09,0.748-0.161,1.021-0.186c3.332-0.271,6.664-0.527,9.994-0.813
		c1.166-0.102,2.326-0.271,3.488-0.418c0.497-0.064,0.796,0.134,0.982,0.592c0.323,0.781,0.67,1.552,1.02,2.32
		c0.651,1.451,1.313,2.896,1.978,4.346c0.062,0.128,0.17,0.23,0.258,0.346C363.751,200.116,363.796,200.096,363.841,200.073z"/>
	<path fill="#FFFFFF" d="M446.163,188.818c-4.974-0.522-9.786-1.03-14.604-1.539c-0.029-0.055-0.062-0.11-0.089-0.168
		c4.426-2.488,9.007-4.688,13.618-7.234c0.198,0.764,0.415,1.391,0.522,2.032c0.396,2.284,0.993,4.501,2.104,6.551
		c0.294,0.542,0.125,0.886-0.329,1.194c-1.297,0.885-2.582,1.785-3.885,2.658c-1.923,1.289-3.833,2.59-5.787,3.828
		c-1.281,0.812-2.632,1.514-3.947,2.271c-0.387,0.223-0.705,0.34-0.954-0.196c-0.562-1.211-1.188-2.391-1.72-3.611
		c-0.301-0.696-0.433-1.465-0.688-2.185c-0.313-0.875-0.644-1.75-1.042-2.589c-0.465-0.979-0.224-1.514,0.872-1.541
		c1.223-0.034,2.447-0.025,3.663,0.063c2.086,0.158,4.163,0.434,6.249,0.586c1.323,0.101,2.657,0.064,3.986,0.105
		c0.16,0.005,0.314,0.107,0.478,0.159C445.139,189.374,445.626,189.361,446.163,188.818z"/>
	<path fill="#FFFFFF" d="M466.353,178.254c-0.819,0.543-1.607,1.143-2.463,1.618c-2.502,1.394-5.04,2.722-7.542,4.114
		c-0.669,0.375-1.238,0.923-1.887,1.34c-1.842,1.18-3.694,2.333-5.729,3.611c-0.289-0.688-0.522-1.188-0.709-1.703
		c-0.415-1.166-0.809-2.338-1.198-3.51c-0.093-0.279-0.153-0.574-0.195-0.865c-0.141-0.957-0.243-1.92-0.396-2.873
		c-0.086-0.549-0.027-0.782,0.646-0.672c0.545,0.092,1.127-0.076,1.691-0.084c2.838-0.045,5.679-0.096,8.519-0.103
		c1.42-0.004,2.841,0.118,4.26,0.104c0.599-0.006,1.195-0.227,1.794-0.338c0.091-0.021,0.207-0.022,0.283,0.02
		c0.504,0.281,0.752-0.023,1.098-0.507c-5.377-0.087-10.625-0.612-15.885,0.04c-0.033-0.086-0.067-0.172-0.104-0.258
		c0.511-0.287,1.02-0.573,1.525-0.86c-0.027-0.075-0.055-0.151-0.083-0.228c-0.564,0.166-1.138,0.311-1.692,0.506
		c-0.864,0.307-1.118,0.228-1.321-0.688c-0.182-0.797-0.238-1.621-0.331-2.438c-0.12-1.055-0.226-2.11-0.352-3.323
		c6.877,1.757,13.21,4.93,19.984,6.789C466.298,178.053,466.323,178.152,466.353,178.254z"/>
	<path fill="#FFFFFF" d="M446.4,165.049c-0.037-0.83-0.037-1.665-0.127-2.488c-0.045-0.406-0.2-0.83-0.415-1.178
		c-0.133-0.213-0.473-0.299-0.719-0.441c-0.149,0.309-0.415,0.61-0.42,0.918c-0.008,0.486,0.255,0.979,0.23,1.465
		c-0.04,0.936-0.094,1.894-0.336,2.787c-0.244,0.902-1.117,1.293-1.774,1.756c0.082-1.274,0.188-2.498,0.216-3.727
		c0.006-0.271-0.28-0.551-0.435-0.826c-0.263,0.203-0.664,0.355-0.757,0.619c-0.17,0.479-0.128,1.028-0.228,1.539
		c-0.161,0.815-0.3,1.646-0.571,2.43c-0.239,0.688-0.888,0.992-1.614,1.297c0.119-0.604,0.231-1.079,0.306-1.563
		c0.167-1.134-0.293-2.15-0.889-3.01c-0.271-0.395-1.103-0.402-1.68-0.588c-0.983-0.313-2.012-0.533-2.938-0.967
		c-0.899-0.422-1.271-1.289-1.673-2.232c-0.513-1.208-0.102-2.053,0.37-3.031c0.622-1.293,1.146-2.635,1.79-3.916
		c0.115-0.228,0.632-0.394,0.938-0.36c2.265,0.244,4.459,0.773,6.521,1.78c1.294,0.632,2.591,1.221,3.656,2.261
		c1.803,1.761,2.063,3.789,1.296,6.063c-0.17,0.504-0.376,0.993-0.564,1.488C446.524,165.102,446.462,165.075,446.4,165.049z"/>
	<path fill="#FFFFFF" d="M387.117,105.734c-0.729-0.285-1.479-0.491-2.145-0.858c-0.79-0.438-1.44-1.168-2.261-1.499
		c-2.162-0.87-4.363-1.66-6.589-2.353c-2.466-0.768-4.964-1.436-7.468-2.063c-1.396-0.35-2.835-0.551-4.261-0.773
		c-0.553-0.086-0.711-0.279-0.573-0.835c0.16-0.643,0.244-1.309,0.311-1.969c0.04-0.417,0.237-0.504,0.594-0.446
		c1.569,0.258,3.145,0.48,4.706,0.782c1.66,0.321,3.331,0.627,4.948,1.104c2.001,0.591,3.977,1.289,5.917,2.059
		c1.593,0.633,3.12,1.433,4.668,2.174c0.21,0.101,0.468,0.259,0.546,0.455C386.05,102.854,386.547,104.215,387.117,105.734z"/>
	<path fill="#FFFFFF" d="M304.295,178.633c0.681-0.289,1.351-0.609,2.045-0.861c4.261-1.549,8.524-3.08,12.792-4.617
		c1.265-0.455,2.529-0.907,3.793-1.379c1.354-0.506,1.746-0.269,1.603,1.134c-0.188,1.832-0.463,3.653-0.696,5.479
		c-0.07,0.571-0.507,0.549-0.899,0.539c-2.342-0.054-4.687-0.164-7.026-0.175c-3.687-0.017-7.375,0.034-11.062,0.056
		c-0.167,0.002-0.333,0-0.5,0C304.324,178.75,304.311,178.691,304.295,178.633z"/>
	<path fill="#FFFFFF" d="M416.222,195.54c0.698-0.413,1.384-0.849,2.095-1.233c1.855-1.007,3.719-1.998,5.586-2.98
		c1.032-0.547,2.07-1.08,3.121-1.592c1.008-0.487,1.178-0.377,1.555,0.646c1.038,2.813,1.805,5.745,3.503,8.281
		c0.344,0.507,0.075,0.722-0.427,0.624c-0.921-0.182-1.827-0.438-2.744-0.641c-1.354-0.303-2.724-0.563-4.073-0.888
		c-2.344-0.556-4.676-1.146-7.014-1.715c-0.521-0.126-1.048-0.22-1.57-0.328C416.24,195.656,416.231,195.598,416.222,195.54z"/>
	<path fill="#FFFFFF" d="M359.736,191.919c-0.256,0.047-0.509,0.113-0.768,0.14c-4.765,0.465-9.525,0.916-14.287,1.393
		c-1.512,0.148-1.823-0.055-2.306-1.45c-0.506-1.458-1.104-2.883-1.605-4.342c-0.188-0.543-0.221-1.144-0.324-1.716
		c0.521,0.068,1.063,0.064,1.56,0.219c4.122,1.266,8.229,2.572,12.353,3.836c1.452,0.441,2.938,0.775,4.401,1.188
		c0.356,0.101,0.692,0.285,1.041,0.434C359.778,191.715,359.757,191.816,359.736,191.919z"/>
	<path fill="#FFFFFF" d="M305.972,179.807c0.51-0.039,1.021-0.117,1.531-0.113c5.135,0.037,10.269,0.096,15.401,0.131
		c0.667,0.004,1.019,0.271,1.089,0.941c0.188,1.707,0.395,3.414,0.586,5.12c0.07,0.612-0.317,0.595-0.718,0.481
		c-1.722-0.487-3.47-0.904-5.148-1.506c-3.896-1.393-7.758-2.87-11.627-4.32c-0.393-0.146-0.767-0.33-1.146-0.497
		C305.948,179.965,305.961,179.885,305.972,179.807z"/>
	<path fill="#FFFFFF" d="M326.305,179.08c2.21-0.867,4.238-1.624,6.231-2.458c1.219-0.507,2.385-1.132,3.572-1.701
		c0.228-0.106,0.455-0.202,0.688-0.299c0.604-0.255,0.882-0.069,1.032,0.595c0.352,1.521,0.729,3.041,1.205,4.526
		c0.65,2.026,1.896,3.657,3.607,4.924c0.08,0.06,0.157,0.123,0.226,0.194c0.032,0.031,0.041,0.086,0.124,0.271
		c-0.391-0.063-0.722-0.063-1.019-0.167c-2.778-0.965-5.554-1.936-8.322-2.928c-1.922-0.688-3.835-1.408-5.742-2.145
		C327.406,179.706,326.944,179.41,326.305,179.08z"/>
	<path fill="#FFFFFF" d="M434.222,172.887c0.339-0.476,0.647-0.912,1.021-1.437c-0.019-0.14-0.107-0.449-0.089-0.75
		c0.072-0.985,0.212-1.966,0.272-2.951c0.029-0.522,0.21-0.685,0.691-0.479c0.187,0.078,0.372,0.146,0.556,0.229
		c0.441,0.206,1.063,0.313,1.271,0.666c0.161,0.271-0.188,0.851-0.316,1.288c-0.224,0.751,0.019,1.245,0.774,1.59
		c-0.591,0.124-1.182,0.247-1.771,0.37c0.002,0.078,0.003,0.153,0.005,0.231c0.845,0.021,1.691,0.107,2.533,0.049
		c1.265-0.09,2.528-0.438,3.777-0.368c0.707,0.036,1.4,0.526,2.206,0.37c0.094-0.019,0.365,0.363,0.393,0.58
		c0.18,1.545,0.313,3.1,0.479,4.801C442.115,175.688,438.256,174.316,434.222,172.887z"/>
	<path fill="#FFFFFF" d="M327.865,187.564c0.365-0.116,0.724-0.285,1.098-0.342c3.177-0.492,6.354-0.97,9.533-1.438
		c0.646-0.097,0.992,0.099,1.221,0.835c0.53,1.734,1.237,3.417,1.875,5.121c0.093,0.25,0.174,0.504,0.313,0.912
		c-0.409-0.039-0.701-0.014-0.951-0.104c-4.2-1.502-8.398-3.017-12.599-4.531c-0.158-0.06-0.301-0.153-0.452-0.231
		C327.891,187.714,327.879,187.641,327.865,187.564z"/>
	<path fill="#FFFFFF" d="M338.516,185.152c-1.007,0.072-2.016,0.136-3.022,0.22c-3.007,0.251-6.003,0.581-8.896,1.496
		c-0.524,0.166-0.847,0.041-0.906-0.513c-0.143-1.334-0.28-2.67-0.381-4.006c-0.146-1.89-0.094-1.992,1.685-1.412
		c3.765,1.229,7.486,2.576,11.227,3.877c0.109,0.039,0.211,0.111,0.314,0.172C338.529,185.042,338.522,185.098,338.516,185.152z"/>
	<path fill="#FFFFFF" d="M337.265,173.449c-1.411,0.58-2.626,1.07-3.832,1.58c-2.25,0.953-4.5,1.904-6.734,2.894
		c-0.336,0.147-0.702,0.443-0.843,0.765c-0.192,0.438-0.447,0.391-0.773,0.328c-0.388-0.074-0.529-0.283-0.468-0.691
		c0.281-1.797,0.546-3.596,0.807-5.393c0.098-0.685,0.396-1,1.146-0.904c3.313,0.428,6.629,0.813,9.944,1.221
		C336.698,173.268,336.883,173.344,337.265,173.449z"/>
	<path fill="#FFFFFF" d="M326.3,170.734c0.22-0.125,0.373-0.243,0.546-0.305c3.634-1.313,7.27-2.615,10.91-3.906
		c0.237-0.086,0.521-0.047,0.787-0.064c0.005,0.283,0.075,0.585,0.002,0.846c-0.428,1.454-0.99,2.873-0.89,4.438
		c0.038,0.577-0.388,0.71-0.856,0.663c-0.722-0.071-1.438-0.172-2.151-0.276c-2.71-0.396-5.419-0.799-8.128-1.202
		C326.48,170.922,326.448,170.867,326.3,170.734z"/>
	<path fill="#FFFFFF" d="M390.723,157.706c0.173-0.688,0.438-1.329,0.465-1.98c0.019-0.488-0.167-1.056-0.442-1.469
		c-0.882-1.329-1.399-2.704-0.979-4.548c0.491,0.362,0.896,0.606,1.237,0.923c0.854,0.804,1.605,1.744,2.543,2.438
		c1.14,0.847,1.556,2.096,2.176,3.242c0.2,0.372,0.31,0.792,0.52,1.155c0.234,0.405,0.11,0.649-0.294,0.697
		c-1.184,0.141-2.375,0.333-3.558,0.303C391.827,158.452,391.281,157.977,390.723,157.706z"/>
	<path fill="#FFFFFF" d="M427.783,159.145c0.206-0.578,0.446-1.164,0.622-1.769c0.188-0.64,0.236-1.327,0.48-1.94
		c0.274-0.696,0.657-1.365,1.078-1.988c0.459-0.678,1.015-1.291,1.586-2.002c0.501,0.265,1.188,0.554,1.771,0.979
		c0.189,0.137,0.257,0.69,0.146,0.953c-0.359,0.843-0.865,1.623-1.244,2.459c-0.388,0.856-0.761,1.729-1.017,2.631
		c-0.447,1.581-0.953,1.865-2.405,1.187C428.492,159.51,428.193,159.35,427.783,159.145z"/>
	<path fill="#FFFFFF" d="M444.05,168.736c0.338-0.555,0.666-0.737,1.271-0.524c2.696,0.945,5.419,1.815,8.114,2.765
		c1.098,0.385,2.14,0.932,3.229,1.348c2.977,1.135,5.946,2.271,9.075,2.943c1.016,0.219,1.982,0.648,2.963,1.006
		c0.354,0.127,0.43,0.414,0.063,0.578c-0.313,0.143-0.74,0.254-1.045,0.154c-3.444-1.117-6.884-2.253-10.309-3.438
		c-2.201-0.768-4.365-1.646-6.563-2.426c-2.034-0.726-4.092-1.383-6.136-2.076C444.49,168.99,444.287,168.857,444.05,168.736z"/>
	<path fill="#FFFFFF" d="M379.411,84.979c-0.259,0.219-0.677,0.396-0.742,0.664c-0.18,0.69,0.337,1.463,0.991,1.625
		c0.641,0.157,1.29,0.259,1.948,0.387c-0.038,0.825-0.464,1.22-1.082,1.369c-0.599,0.145-0.873-0.345-1.137-0.767
		c-0.952-1.526-1.68-3.136-1.872-4.953c-0.124-1.168,0.773-2.433,1.914-2.635c0.157-0.028,0.329,0.034,0.495,0.054
		c0.014,0.062,0.025,0.125,0.042,0.187c-0.367,0.271-0.771,0.506-1.091,0.821c-0.273,0.265-0.495,0.604-0.662,0.948
		c-0.063,0.126,0.093,0.512,0.165,0.517c0.208,0.013,0.469-0.055,0.629-0.188c0.337-0.28,0.594-0.662,0.941-0.918
		c0.143-0.102,0.516-0.06,0.647,0.063c0.108,0.1,0.094,0.454,0.005,0.629c-0.2,0.394-0.523,0.725-0.717,1.121
		c-0.184,0.374-0.262,0.797-0.387,1.199C379.475,85.062,379.444,85.021,379.411,84.979z"/>
	<path fill="#FFFFFF" d="M368.42,162.615c0.081,0.596-0.166,0.771-0.861,0.641c-1.486-0.281-2.995-0.445-4.486-0.701
		c-0.262-0.045-0.703-0.32-0.688-0.453c0.042-0.424,0.246-0.836,0.434-1.229c0.018-0.033,0.409,0.053,0.575,0.162
		c0.557,0.367,1.096,0.765,1.633,1.163c0.445,0.327,0.887,0.372,1.39,0.108c0.351-0.183,0.732-0.301,1.106-0.431
		C368.323,161.602,368.438,161.688,368.42,162.615z"/>
	<path fill="#FFFFFF" d="M350.189,159.611c-0.017,0.687-0.265,0.953-0.765,0.843c-0.896-0.199-1.793-0.394-2.655-0.693
		c-0.247-0.086-0.47-0.511-0.513-0.809c-0.027-0.185,0.281-0.575,0.479-0.604c0.488-0.07,1.021-0.063,1.495,0.057
		c0.497,0.13,0.968,0.396,1.414,0.662C349.897,159.216,350.071,159.488,350.189,159.611z"/>
	<path fill="#FFFFFF" d="M375.751,163.26c-0.813,0.109-1.619,0.232-2.435,0.322c-0.315,0.035-0.672,0.07-0.958-0.035
		c-0.239-0.089-0.56-0.377-0.564-0.586c-0.019-0.473-0.016-1.15,0.271-1.368c0.261-0.198,0.937,0.013,1.365,0.191
		c0.804,0.336,1.563,0.778,2.34,1.178C375.764,163.063,375.757,163.16,375.751,163.26z"/>
	<path fill="#FFFFFF" d="M397.438,155.51c1.398,0.547,2.683,1.049,4.109,1.606c-0.263,0.173-0.379,0.313-0.521,0.334
		c-0.808,0.123-1.618,0.235-2.431,0.31c-0.186,0.018-0.503-0.094-0.552-0.224C397.818,156.928,397.661,156.291,397.438,155.51z"/>
	<path fill="#FFFFFF" d="M434.93,164.762c0.628,0.256,1.214,0.496,1.803,0.73c0.206,0.082,0.415,0.201,0.628,0.215
		c0.703,0.048,0.75,0.484,0.696,1.118c-0.852-0.337-1.619-0.72-2.438-0.937c-0.487-0.131-0.74-0.315-0.798-0.798
		C434.821,165.07,434.838,165.047,434.93,164.762z"/>
	<path fill="#FFFFFF" d="M355.577,161.688c-0.768-0.125-1.539-0.229-2.298-0.396c-0.104-0.021-0.252-0.372-0.201-0.496
		c0.125-0.303,0.303-0.715,0.76-0.458c0.617,0.35,1.211,0.748,1.813,1.126C355.628,161.538,355.604,161.613,355.577,161.688z"/>
	<path fill="#FFFFFF" d="M439.393,170.959c0.518-0.368,1.021-0.745,1.544-1.094c0.473-0.314,0.937-0.379,1.354,0.166
		C441.403,170.736,440.454,171.1,439.393,170.959z"/>
	<path fill="#FFFFFF" d="M370.228,161.68c0,0.545,0,1.092,0,1.637c-0.083,0.002-0.166,0.004-0.248,0.009
		C369.783,162.779,369.688,162.232,370.228,161.68z"/>
	<path fill="#FFFFFF" d="M452.072,24.575c4.09,0,8.184-0.049,12.271,0.014c4.037,0.062,8.067,0.271,12.104,0.35
		c3.141,0.062,6.277,0.008,9.416,0.034c4.662,0.038,9.323,0.096,13.985,0.153c1.919,0.024,3.837,0.067,5.756,0.107
		c3.188,0.067,6.375,0.142,9.563,0.206c0.271,0.005,0.579,0.028,0.807-0.086c1.771-0.898,3.395-0.567,5.009,0.446
		c0.46,0.288,1.085,0.33,1.644,0.44c1.62,0.321,2.621,1.382,2.604,3.03c-0.046,3.611-0.153,7.221-0.28,10.83
		c-0.063,1.893-0.207,3.783-0.345,5.672c-0.35,4.773-0.707,9.546-1.074,14.318c-0.385,4.995-0.816,9.985-1.168,14.982
		c-0.493,7.037-0.927,14.078-1.389,21.117c-0.05,0.771-0.094,1.544-0.202,2.308c-0.026,0.187-0.301,0.492-0.451,0.486
		c-2.762-0.107-5.523-0.205-8.281-0.401c-4.874-0.347-9.75-0.684-14.608-1.165c-4.883-0.483-9.745-1.149-14.619-1.713
		c-3.316-0.384-6.642-0.702-9.955-1.105c-2.398-0.292-4.785-0.693-7.181-1.016c-1.93-0.259-3.858-0.475-5.788-0.71
		c-4.278-0.522-8.559-1.046-12.833-1.565c-1.142-0.139-2.287-0.22-3.416-0.41c-1.063-0.18-2.124-0.459-2.646-1.565
		c-0.146-0.32-0.255-0.699-0.247-1.047c0.057-2.441,0.141-4.882,0.226-7.322c0.145-4.159,0.293-8.318,0.443-12.478
		c0.155-4.209,0.317-8.417,0.479-12.626c0.104-2.763,0.216-5.525,0.317-8.288c0.081-2.217,0.301-4.441,0.19-6.649
		c-0.109-2.263,0.294-4.462,0.41-6.693c0.108-2.084,0.097-4.175,0.172-6.261c0.01-0.286,0.213-0.568,0.339-0.847
		c0.063-0.132,0.197-0.242,0.222-0.375c0.222-1.329,1.145-1.89,2.343-2.036c1.157-0.141,2.332-0.174,3.501-0.217
		c0.896-0.033,1.795-0.007,2.689-0.007C452.072,24.516,452.072,24.545,452.072,24.575z M445.99,75.753
		c0.413,0.285,0.811,0.61,1.249,0.851c0.8,0.436,1.588,1.026,2.45,1.189c2.317,0.438,4.67,0.696,7.011,1.005
		c2.644,0.349,5.282,0.697,7.931,1.009c2.991,0.353,5.99,0.664,8.986,0.996c2.747,0.304,5.493,0.627,8.242,0.913
		c2.279,0.236,4.564,0.416,6.845,0.646c2.751,0.279,5.495,0.644,8.253,0.865c3.429,0.275,6.861,0.45,10.298,0.651
		c1.964,0.115,3.93,0.221,5.896,0.281c0.769,0.024,1.541-0.062,2.307-0.15c0.246-0.029,0.557-0.163,0.698-0.352
		c1.021-1.335,1.771-2.813,2.333-4.403c0.629-1.771,0.368-3.586,0.434-5.389c0.084-2.441,0.188-4.882,0.314-7.321
		c0.146-2.786,0.354-5.569,0.484-8.355c0.114-2.465,0.164-4.933,0.234-7.399c0.14-4.682,0.292-9.363,0.374-14.046
		c0.01-0.494-0.392-1.013-0.656-1.487c-0.256-0.449-0.59-0.852-0.881-1.281c-0.418-0.615-0.777-1.276-1.252-1.846
		c-1.249-1.504-3.099-1.794-4.843-2.03c-2.239-0.303-4.521-0.326-6.789-0.409c-3.388-0.125-6.774-0.2-10.166-0.289
		c-2.169-0.056-4.34-0.07-6.507-0.167c-0.43-0.02-0.937-0.234-1.251-0.527c-0.617-0.577-0.691-0.598-1.371-0.096
		c-0.324,0.24-0.788,0.428-1.185,0.42c-5.335-0.109-10.668-0.269-16.002-0.391c-5.687-0.13-11.367-0.22-17.053-0.357
		c-1.497-0.036-2.938,0.014-4.122,1.102c-0.142,0.128-0.392,0.136-0.528,0.264c-0.203,0.186-0.464,0.41-0.506,0.652
		c-0.243,1.392-0.504,2.788-0.618,4.194c-0.223,2.731-0.375,5.468-0.505,8.206c-0.047,0.968,0.097,1.943,0.085,2.915
		c-0.045,3.986-0.115,7.971-0.18,11.957c-0.059,3.689-0.111,7.377-0.18,11.066c-0.021,1.245-0.115,2.49-0.088,3.733
		C445.764,73.539,445.906,74.702,445.99,75.753z M513.813,93.998c1.453,0,2.82-1.367,2.844-2.845
		c0.023-1.48-1.285-2.782-2.774-2.762c-1.477,0.02-2.757,1.376-2.752,2.912C511.132,92.702,512.422,93.998,513.813,93.998z"/>
	<path d="M416.257,155.432c0.583,0,1.166-0.018,1.748,0.003c2.168,0.078,4.268-0.284,6.31-0.991
		c0.207-0.072,0.371-0.269,0.556-0.408c-0.154-0.143-0.297-0.316-0.476-0.423c-0.362-0.215-0.78-0.35-1.104-0.606
		c-0.159-0.128-0.167-0.453-0.24-0.689c0.236-0.062,0.52-0.237,0.712-0.168c1.001,0.362,1.987,0.764,2.964,1.197
		c0.727,0.323,0.771,0.823,0.09,1.248c-2.057,1.285-4.343,1.807-6.739,1.868c-0.869,0.022-1.746-0.019-2.605-0.121
		c-0.446-0.054-0.869-0.305-1.305-0.467C416.194,155.728,416.226,155.58,416.257,155.432z"/>
	<path d="M513.813,93.998c-1.392,0-2.682-1.295-2.686-2.695c-0.006-1.536,1.275-2.892,2.752-2.912
		c1.489-0.02,2.801,1.282,2.774,2.762C516.634,92.63,515.267,93.998,513.813,93.998z M515.97,91.238
		c-0.009-1.249-0.942-2.184-2.175-2.176c-1.067,0.006-1.959,0.893-1.958,1.948c0,1.307,0.919,2.297,2.14,2.307
		C515.092,93.325,515.977,92.402,515.97,91.238z"/>
	<path fill="#FFFFFF" d="M511.531,45.238c-0.759,0.321-1.453,0.594-2.131,0.907c-0.53,0.244-0.653,0.715-0.582,1.255
		c0.086,0.642-0.157,1.076-0.723,1.418c-0.415,0.251-0.739,0.65-1.112,0.974c-0.143,0.124-0.297,0.261-0.47,0.319
		c-0.782,0.261-1.573,0.497-2.528,0.793c-0.389-0.406-0.939-0.963-1.465-1.547c-0.1-0.111-0.051-0.341-0.117-0.497
		c-0.107-0.257-0.213-0.543-0.402-0.735c-0.313-0.317-0.479-0.535-0.021-0.889c0.571-0.443,0.588-1.081,0.032-1.5
		c-0.438-0.33-0.313-0.627-0.155-1.02c0.097-0.244,0.169-0.593,0.066-0.804c-0.878-1.801-1.615-3.687-3.042-5.172
		c-0.137-0.14-0.178-0.52-0.084-0.698c0.784-1.546,1.626-3.065,2.422-4.607c0.211-0.41,0.317-0.872,0.484-1.305
		c0.163-0.421,0.469-0.6,0.933-0.586c2.139,0.063,4.275,0.095,6.417,0.16c0.993,0.03,1.98,0.13,2.977,0.155
		c0.529,0.013,0.665,0.229,0.669,0.736c0.003,0.647,0.13,1.292,0.193,1.939c0.012,0.119-0.007,0.248-0.039,0.364
		c-0.455,1.637-0.794,3.287-0.793,5.003c0.001,0.885-0.168,1.77-0.258,2.655C511.701,43.488,511.612,44.42,511.531,45.238z"/>
	<path fill="#FFFFFF" d="M498.28,31.516c-0.811,1.52-1.149,3.14-2.419,4.278c-0.729,0.656-1.415,1.145-2.436,0.592
		c-0.36-0.195-0.811-0.278-1.226-0.311c-1.146-0.09-1.802-0.799-2.173-1.771c-0.263-0.687-0.354-1.438-0.521-2.162
		c-0.121-0.528,0.094-0.759,0.629-0.688c0.414,0.056,0.828,0.118,1.317,0.189c-0.11,0.531-0.211,0.992-0.309,1.453
		c0.035,0.015,0.069,0.029,0.104,0.044c0.188-0.241,0.344-0.519,0.565-0.715c0.612-0.532,1.29-0.886,2.152-0.878
		c1.146,0.011,2.291-0.074,3.438-0.104C497.663,31.437,497.926,31.485,498.28,31.516z"/>
	<path fill="#FFFFFF" d="M460.966,45.192c0.277,0,0.479,0,0.7,0c-0.061,0.433-0.082,0.824-0.175,1.199
		c-0.046,0.195-0.175,0.396-0.319,0.535c-0.262,0.246-0.563,0.447-0.91,0.718c0.94,0.583,0.94,0.583-0.106,2.352
		c0.269,0.193,0.608,0.401,0.9,0.665c0.297,0.269,0.221,0.542-0.136,0.701c-0.412,0.186-1.145-0.123-1.361-0.543
		c-0.229-0.436-0.583-0.846-0.662-1.305c-0.052-0.298,0.291-0.665,0.457-1c0.087,0.016,0.173,0.032,0.26,0.049
		c-0.208-0.514-0.415-1.027-0.638-1.581c0.258-0.101,0.516-0.202,0.773-0.303c0.002-0.051,0.003-0.103,0.005-0.154
		c-0.289-0.076-0.578-0.151-0.978-0.256c0.111-0.249,0.162-0.538,0.333-0.703c0.382-0.37,0.18-0.622-0.104-0.867
		c-0.95-0.833-0.942-0.822-0.257-1.932c0.124-0.201,0.114-0.482,0.17-0.727c-0.068-0.044-0.141-0.089-0.206-0.134
		c0.354-0.146,0.711-0.292,0.921-0.377c0.25-0.47,0.466-0.823,0.625-1.201c0.062-0.145-0.002-0.344-0.018-0.519
		c-0.014-0.174-0.081-0.362-0.03-0.514c0.022-0.081,0.294-0.175,0.372-0.128c0.174,0.103,0.438,0.321,0.411,0.439
		c-0.075,0.367-0.196,0.774-0.438,1.047c-0.457,0.521-0.459,0.891,0.09,1.31c0.154,0.118,0.229,0.34,0.34,0.515
		c-0.177,0.106-0.352,0.215-0.527,0.319c-0.157,0.092-0.318,0.179-0.479,0.268c0.096,0.13,0.163,0.325,0.291,0.378
		c0.478,0.2,0.969,0.354,1.538,0.553C461.516,44.416,461.266,44.77,460.966,45.192z"/>
	<path fill="#FFFFFF" d="M458.879,54.002c-0.927-0.81-1.063-1.268-0.652-2.118c0.053-0.109,0.113-0.233,0.205-0.301
		c0.354-0.262,2.087,0.12,2.371,0.487c0.141,0.182,0.341,0.317,0.548,0.505c-0.432,0.208-0.787,0.306-1.084-0.2
		c-0.196-0.332-0.441-0.305-0.599,0.054c-0.279,0.636,0.017,1.301,0.537,1.793c0.248,0.233,0.274,0.747,0.313,1.142
		c0.021,0.223-0.146,0.463-0.159,0.506c0.402,0.525,0.788,0.912,1.026,1.374c0.217,0.418-0.022,0.661-0.507,0.594
		c-0.123-0.017-0.246-0.049-0.37-0.049c-0.23,0.001-0.462,0.021-0.693,0.032c0.087,0.212,0.173,0.425,0.261,0.637
		c0.012,0.021,0.048,0.035,0.05,0.054c0.032,0.376,0.063,0.751,0.093,1.127c-0.343-0.075-0.736-0.064-1.004-0.246
		c-0.342-0.23-0.482-0.603-0.168-1.035c0.446-0.617,0.428-1.542-0.063-2.154C458.399,55.479,458.607,54.737,458.879,54.002z"/>
	<path fill="#FFFFFF" d="M462.463,66.492c-0.58,0.981-1.356,1.339-2.371,1.125c-0.2-0.042-0.479-0.151-0.537-0.302
		c-0.053-0.131,0.1-0.424,0.244-0.543c0.419-0.343,0.875-0.645,1.328-0.944c0.304-0.201,0.628-0.372,1.128-0.664
		c-0.054,0.387-0.089,0.681-0.144,1.069C462.143,66.254,462.289,66.365,462.463,66.492z"/>
	<path fill="#FFFFFF" d="M458.26,48.592c0.08,0.104,0.145,0.162,0.135,0.18c-0.383,0.737-0.229,1.38,0.29,1.994
		c0.046,0.054-0.139,0.442-0.229,0.447c-0.271,0.015-0.786-0.059-0.797-0.138c-0.081-0.832-0.677-1.011-1.318-1.173
		c-0.062-0.015-0.086-0.154-0.182-0.335c0.279-0.021,0.479-0.036,0.68-0.051C456.857,48.44,457.838,48.982,458.26,48.592z"/>
	<path fill="#FFFFFF" d="M456.903,58.818c0.241,0.343,0.461,0.705,0.729,1.023c0.258,0.306,0.591,0.549,0.848,0.856
		c0.185,0.22,0.479,0.577,0.41,0.737c-0.17,0.392-0.535,0.341-0.869,0.081c-0.392-0.306-0.863-0.534-1.188-0.896
		c-0.263-0.292-0.391-0.725-0.494-1.116c-0.039-0.142,0.153-0.347,0.245-0.523C456.691,58.925,456.797,58.872,456.903,58.818z"/>
	<path fill="#FFFFFF" d="M462.484,61.995c0.436-0.444,0.734-0.813,1.099-1.103c0.17-0.133,0.454-0.136,0.689-0.145
		c0.05-0.001,0.188,0.279,0.147,0.348c-0.138,0.226-0.35,0.597-0.507,0.584c-0.503-0.039-0.657,0.239-0.845,0.599
		c-0.083,0.161-0.278,0.29-0.453,0.372c-0.252,0.119-0.528,0.181-0.799,0.268c0.003-0.255,0.007-0.51,0.01-0.764
		c0.001-0.14,0-0.279,0-0.474C462.129,61.824,462.365,61.939,462.484,61.995z"/>
	<path fill="#FFFFFF" d="M458.574,57.328c-0.396,0.472-0.674,0.799-0.946,1.125c-0.274-0.351-0.705-0.672-0.78-1.062
		c-0.08-0.415,0.222-0.941,0.785-0.833C457.934,56.616,458.175,56.985,458.574,57.328z"/>
	<path fill="#FFFFFF" d="M456.607,54.62c1.065,0.185,1.538,0.596,1.369,1.196c-0.149,0.532-0.541,0.5-0.945,0.381
		C456.411,56.015,456.281,55.507,456.607,54.62z"/>
	<path fill="#FFFFFF" d="M489.213,71.718c-1.227-0.547-2.018-2.321-1.335-3.252C488.34,69.59,488.753,70.597,489.213,71.718z"/>
	<path fill="#FFFFFF" d="M460.948,63.573c-0.499,0.43-0.882,0.797-1.31,1.102c-0.103,0.072-0.409-0.011-0.515-0.124
		c-0.104-0.114-0.148-0.382-0.093-0.532C459.26,63.435,460.069,63.192,460.948,63.573z"/>
	<path fill="#FFFFFF" d="M457.474,46.529c-0.132-0.532-0.313-1.06-0.368-1.6c-0.017-0.162,0.309-0.36,0.479-0.541
		c0.222,0.3,0.639,0.611,0.618,0.896c-0.024,0.439-0.351,0.861-0.548,1.291C457.595,46.56,457.531,46.544,457.474,46.529z"/>
	<path fill="#FFFFFF" d="M458.379,63.639c-0.637,0.019-1.53-0.643-1.575-1.143c-0.015-0.129,0.047-0.314,0.141-0.39
		c0.09-0.072,0.286-0.083,0.403-0.038C457.823,62.252,458.306,62.989,458.379,63.639z"/>
	<path fill="#FFFFFF" d="M484.526,47.253c0.322,0.131,0.729,0.186,0.943,0.417c0.223,0.237,0.286,0.64,0.359,0.983
		c0.019,0.07-0.271,0.305-0.334,0.276c-0.254-0.116-0.542-0.259-0.688-0.478c-0.185-0.268-0.237-0.622-0.347-0.938
		C484.482,47.427,484.505,47.34,484.526,47.253z"/>
	<path fill="#FFFFFF" d="M484.99,49.45c-0.512,0.186-1.063,0.424-1.645,0.575c-0.175,0.046-0.438-0.119-0.608-0.252
		c-0.056-0.043-0.005-0.349,0.089-0.437C483.284,48.903,484.626,49.055,484.99,49.45z"/>
	<path fill="#FFFFFF" d="M484.899,44.556c0.257,0.328,0.564,0.631,0.747,0.997c0.073,0.147-0.129,0.432-0.206,0.653
		c-0.224-0.175-0.555-0.309-0.646-0.537c-0.112-0.282-0.026-0.644-0.026-0.971C484.812,44.651,484.855,44.604,484.899,44.556z"/>
	<path fill="#FFFFFF" d="M456.936,64.251c0.411,0.211,0.846,0.389,1.223,0.65c0.128,0.089,0.11,0.387,0.16,0.589
		c-0.24,0.011-0.58,0.128-0.701,0.014c-0.329-0.313-0.563-0.724-0.841-1.096C456.826,64.356,456.883,64.304,456.936,64.251z"/>
	<path fill="#FFFFFF" d="M465.906,53.696c0.229-0.262,0.394-0.449,0.556-0.635c0.168,0.25,0.397,0.485,0.468,0.76
		c0.021,0.097-0.343,0.359-0.563,0.412C466.275,54.254,466.1,53.928,465.906,53.696z"/>
	<path fill="#FFFFFF" d="M456.673,41.278c0.815,0.076,1.051,0.334,0.779,0.852c-0.061,0.116-0.2,0.259-0.309,0.26
		c-0.103,0-0.26-0.148-0.297-0.263C456.761,41.857,456.729,41.569,456.673,41.278z"/>
	<path fill="#FFFFFF" d="M467.061,56.079c0,0.318,0,0.637,0,0.955c-0.249-0.115-0.498-0.231-0.746-0.347
		c0.12-0.234,0.24-0.469,0.361-0.703C466.804,56.016,466.932,56.048,467.061,56.079z"/>
	<path fill="#FFFFFF" d="M518.618,37.167c-0.021,0.416-0.043,0.831-0.063,1.247c-0.068-0.002-0.136-0.004-0.204-0.006
		c0-0.415,0-0.83,0-1.244C518.442,37.164,518.531,37.166,518.618,37.167z"/>
	<path fill="#FFFFFF" d="M515.97,91.238c0.007,1.164-0.878,2.087-1.993,2.079c-1.221-0.01-2.14-1-2.14-2.307
		c-0.001-1.055,0.891-1.941,1.958-1.948C515.027,89.055,515.961,89.989,515.97,91.238z"/>
</g>
<g>
	<g>
		<defs>
			<polygon id="SVGID_1_" points="460.496,28.24 509.833,35.166 496.829,94.57 447.493,87.645 			"/>
		</defs>
		<clipPath id="SVGID_2_">
			<use xlink:href="#SVGID_1_"  overflow="visible"/>
		</clipPath>
		<g transform="matrix(1 0 0 1 6.103516e-005 7.629395e-006)" clip-path="url(#SVGID_2_)">
		</g>
	</g>
</g>
<image overflow="visible" width="51" height="46" xlink:href="BF8FBB1.jpg"  transform="matrix(1.522 0.0254 -0.02 1.2022 444.4221 30.1982)">
</image>
<path fill="#FFFFFF" stroke="#FFFFFF" stroke-miterlimit="10" d="M277.166,10.148"/>
<polygon fill="none" stroke="#000000" stroke-width="0.75" stroke-miterlimit="10" points="408.281,10.923 277.31,10.381 
	284.492,175.787 385.977,236.066 536.233,163.746 554.144,8.483 "/>
</svg>
