<?xml version="1.0" encoding="utf-8"?>
<!-- Generator: Adobe Illustrator 16.0.0, SVG Export Plug-In . SVG Version: 6.00 Build 0)  -->
<!DOCTYPE svg PUBLIC "-//W3C//DTD SVG 1.1//EN" "http://www.w3.org/Graphics/SVG/1.1/DTD/svg11.dtd">
<svg version="1.1" id="Layer_1" xmlns="http://www.w3.org/2000/svg" xmlns:xlink="http://www.w3.org/1999/xlink" x="0px" y="0px"
	 width="612px" height="792px" viewBox="0 0 612 792" enable-background="new 0 0 612 792" xml:space="preserve">
<path fill="#FFFFFF" d="M504.441,572.253c0.746-2.484,1.348-4.718,2.087-6.905c1.766-5.219,3.599-10.414,5.396-15.621
	c1.617-4.683,3.081-9.425,4.878-14.038c2.028-5.216,4.124-10.396,5.552-15.819c0.326-1.237,0.674-2.472,1.058-3.69
	c2.231-7.079,4.48-14.149,6.712-21.229c0.266-0.838,0.44-1.703,0.688-2.547c0.294-1.001-0.076-1.772-0.911-2.244
	c-0.679-0.384-1.447-0.73-2.21-0.828c-6.659-0.856-13.32-1.696-19.991-2.45c-3.647-0.412-7.316-0.658-10.979-0.955
	c-0.907-0.073-1.85-0.098-2.078-1.204c-0.634-3.046-1.422-6.063-0.062-9.171c1.39-3.161,2.137-6.512,2.638-9.938
	c0.656-4.501,1.43-8.988,2.274-13.459c1.556-8.205,2.668-16.396,0.822-24.729c-1.091-4.921-2.248-9.798-4.102-14.506
	c-1.136-2.877-2.314-5.727-2.392-8.969c-0.043-1.827-0.709-3.855-1.714-5.387c-1.081-1.644-2.344-3.141-3.262-4.939
	c-0.636-1.248-1.014-2.317-0.474-3.598c0.652-1.546,0.339-2.915-0.49-4.317c-0.497-0.843-0.724-1.848-1.028-2.671
	c8.241-5.622,16.19-11.043,24.089-16.43c2.536,1.98,2.694,2.419,1.959,5.153c-0.083,0.309-0.217,0.608-0.257,0.922
	c-0.3,2.359-1.521,4.696-0.742,7.071c0.657,2.013,0.994,4,0.999,6.091c0.003,1.016,0.407,1.84,1.541,2.062
	c0.706-1.299,0.604-1.288,0.434-2.91c-0.223-2.127-0.5-4.294-0.315-6.406c0.171-1.962,0.867-3.889,1.42-5.805
	c1.096-3.794,1.089-7.408-1.442-10.711c-0.524-0.687-0.504-1.391-0.089-2.226c1.063-2.136,2.171-4.277,2.938-6.526
	c2.288-6.699,3.868-13.563,3.052-20.698c-0.444-3.883-1.184-7.751-3.653-11.024c-1.386-1.837-2.779-3.693-3.922-5.683
	c-1.689-2.947-3.646-5.668-6.297-7.775c-6.703-5.326-14.659-7.333-22.956-8.043c-3.719-0.318-7.501,0.122-11.255,0.177
	c-0.868,0.013-1.759-0.052-2.605-0.238c-2.554-0.56-5.094-0.424-7.615,0.085c-7.389,1.49-13.068,6.153-19.026,10.296
	c-2.406,3.287-5.034,6.451-5.849,10.614c-0.585,2.984,0.085,5.54,2.554,7.485c0.553,0.436,1.084,0.898,1.737,1.441
	c-2.06,1.856-3.039,4.19-3.948,6.585c-0.242,0.639-0.706,1.265-1.229,1.713c-1.833,1.578-1.736,1.519-1.148,3.946
	c0.327,1.351,0.456,2.878,0.172,4.219c-0.447,2.109-2.666,2.534-4.215,0.993c-0.241-0.239-0.527-0.432-0.945-0.77
	c-0.372,1.195-0.668,2.145-1.06,3.404c0.896,0.473,1.738,1.043,2.669,1.385c2.352,0.862,2.816,2.727,0.981,4.452
	c-1.278,1.204-2.672,2.288-3.983,3.457c-1.677,1.492-2.589,3.726-0.205,5.709c0.896,0.747,1.003,1.458,0.771,2.504
	c-0.582,2.628-0.428,5.273,0.406,7.814c2.316,7.05,6.397,12.833,15.523,13.391c3.656,0.223,6.065,2.775,7.88,5.721
	c-1.288,2.151-2.839,3.292-5.149,3.872c-2.518,0.629-5.007,1.744-7.219,3.113c-1.926,1.193-3.931,2.756-5.048,4.653
	c-2.378,4.043-4.898,8.01-6.756,12.394c-2.476,5.834-4.596,11.746-5.999,17.909c-0.676,2.958-1.093,5.977-1.658,8.959
	c-0.109,0.577-0.376,1.125-0.57,1.688c-0.21,0.119-0.421,0.237-0.631,0.354c-0.212-0.425-0.346-0.917-0.648-1.262
	c-1.417-1.616-2.779-3.298-4.351-4.758c-2.438-2.27-5.588-2.63-8.545-1.104c-3.181,1.646-6.401,2.95-10.096,2.137
	c-0.382-0.084-0.8-0.017-1.195,0.013c-3.903,0.271-4.541,0.89-5.092,4.869c-0.03,0.219-0.185,0.421-0.277,0.629
	c-0.25,0.094-0.47,0.241-0.694,0.249c-1.276,0.043-2.558,0.051-3.836,0.074c-1.117,0.02-2.254-0.074-3.351,0.09
	c-1.845,0.274-2.731,1.394-2.364,3.188c0.163,0.803,0.979,1.47,1.688,2.464c-1.157,2.917,1.843,3.123,3.656,4.279
	c-0.71,4.117,2.72,4.167,5.273,5.175c-0.444,1.472-0.488,3.004-2.201,3.549c-5.33,1.694-10.673,3.352-15.982,5.1
	c-1.647,0.542-2.869,0.078-4.188-0.912c-3.997-2.997-8.438-3.459-13.173-2.078c-2.605,0.761-5.244,1.405-7.871,2.093
	c-0.463,0.121-0.95,0.154-1.407,0.292c-0.977,0.293-1.352,0.855-1.204,1.977c0.128,0.974-0.057,2.027-0.298,3
	c-0.43,1.725-1.007,3.413-1.564,5.262c-1.265,0.369-2.776,0.883-4.325,1.248c-1.929,0.454-2.956,1.736-3.585,3.487
	c-0.241,0.673-0.35,1.552-0.833,1.95c-1.771,1.455-1.933,3.327-1.863,5.395c0.063,1.966,0.313,2.353,2.32,2.467
	c1.063,0.063,2.136,0.011,3.669,0.011c-0.844,0.907-1.298,1.443-1.802,1.933c-1.665,1.613-3.405,3.151-5.012,4.822
	c-7.809,8.13-15.66,16.219-23.343,24.465c-6.429,6.898-12.651,13.99-18.94,21.021c-0.485,0.542-0.767,1.271-1.322,2.221
	c1.859,0.564,3.326,1.218,4.854,1.428c2.523,0.347,5.093,0.354,7.631,0.599c7.798,0.742,15.597,1.482,23.386,2.313
	c5.801,0.615,11.568,1.6,17.383,2.002c7.261,0.503,14.476,1.304,21.697,2.154c8.093,0.955,16.229,1.521,24.353,2.212
	c6.688,0.57,13.382,1.031,20.066,1.635c5.487,0.492,10.961,1.188,16.449,1.673c8.194,0.725,16.408,1.247,24.599,2.032
	c9.303,0.893,18.584,2.016,27.881,2.971c8.899,0.915,17.81,1.75,26.717,2.597C503.061,572.438,503.695,572.306,504.441,572.253z"/>
<path d="M504.441,572.253c-0.746,0.053-1.381,0.186-1.997,0.127c-8.907-0.847-17.814-1.682-26.717-2.597
	c-9.297-0.955-18.578-2.078-27.881-2.972c-8.188-0.784-16.402-1.309-24.599-2.031c-5.488-0.485-10.962-1.182-16.449-1.673
	c-6.687-0.604-13.38-1.063-20.066-1.635c-8.122-0.69-16.26-1.257-24.352-2.212c-7.225-0.853-14.438-1.651-21.698-2.154
	c-5.813-0.402-11.582-1.387-17.383-2.002c-7.789-0.828-15.587-1.568-23.386-2.313c-2.539-0.242-5.106-0.252-7.631-0.599
	c-1.527-0.21-2.994-0.861-4.854-1.427c0.557-0.951,0.837-1.68,1.322-2.222c6.289-7.031,12.513-14.123,18.94-21.021
	c7.683-8.246,15.534-16.335,23.343-24.466c1.604-1.67,3.348-3.209,5.013-4.821c0.503-0.487,0.958-1.023,1.801-1.933
	c-1.533,0-2.604,0.052-3.669-0.011c-2.009-0.114-2.256-0.501-2.32-2.467c-0.067-2.065,0.093-3.938,1.863-5.396
	c0.483-0.397,0.592-1.276,0.833-1.949c0.629-1.751,1.657-3.033,3.585-3.487c1.549-0.365,3.063-0.879,4.325-1.248
	c0.56-1.849,1.137-3.537,1.564-5.262c0.241-0.973,0.426-2.026,0.298-3c-0.146-1.119,0.229-1.684,1.204-1.977
	c0.457-0.138,0.944-0.171,1.407-0.292c2.627-0.688,5.266-1.332,7.871-2.093c4.733-1.381,9.176-0.919,13.173,2.078
	c1.319,0.99,2.541,1.454,4.188,0.912c5.312-1.748,10.652-3.403,15.982-5.099c1.713-0.546,1.757-2.078,2.201-3.55
	c-2.556-1.008-5.983-1.058-5.273-5.175c-1.813-1.156-4.813-1.362-3.656-4.279c-0.71-0.994-1.523-1.661-1.688-2.464
	c-0.367-1.796,0.521-2.913,2.364-3.188c1.097-0.164,2.23-0.07,3.351-0.09c1.278-0.023,2.56-0.031,3.836-0.074
	c0.227-0.008,0.444-0.155,0.694-0.249c0.095-0.208,0.247-0.41,0.277-0.629c0.551-3.979,1.188-4.598,5.092-4.869
	c0.396-0.027,0.814-0.097,1.195-0.013c3.692,0.813,6.915-0.49,10.096-2.137c2.957-1.526,6.105-1.166,8.545,1.104
	c1.569,1.46,2.934,3.142,4.351,4.758c0.305,0.345,0.438,0.837,0.648,1.262c0.21-0.118,0.421-0.235,0.631-0.354
	c0.194-0.563,0.461-1.109,0.57-1.688c0.565-2.982,0.983-6.001,1.658-8.959c1.403-6.163,3.523-12.075,5.999-17.91
	c1.855-4.383,4.378-8.35,6.756-12.393c1.117-1.898,3.122-3.46,5.048-4.652c2.212-1.369,4.701-2.484,7.219-3.115
	c2.313-0.576,3.861-1.719,5.149-3.871c-1.813-2.946-4.224-5.498-7.88-5.721c-9.126-0.558-13.207-6.341-15.523-13.391
	c-0.834-2.541-0.988-5.186-0.406-7.814c0.231-1.046,0.126-1.757-0.771-2.504c-2.384-1.983-1.47-4.218,0.205-5.709
	c1.313-1.169,2.705-2.253,3.983-3.457c1.835-1.726,1.368-3.59-0.981-4.452c-0.93-0.341-1.773-0.912-2.669-1.385
	c0.392-1.259,0.688-2.209,1.06-3.404c0.418,0.338,0.704,0.53,0.945,0.77c1.549,1.541,3.768,1.116,4.215-0.993
	c0.284-1.341,0.155-2.869-0.172-4.219c-0.588-2.428-0.685-2.368,1.148-3.946c0.521-0.448,0.984-1.075,1.229-1.713
	c0.909-2.395,1.891-4.729,3.948-6.585c-0.653-0.543-1.187-1.005-1.737-1.441c-2.469-1.946-3.139-4.501-2.554-7.485
	c0.813-4.163,3.44-7.327,5.849-10.614c5.958-4.143,11.64-8.806,19.026-10.296c2.521-0.51,5.063-0.645,7.616-0.085
	c0.848,0.186,1.736,0.251,2.604,0.238c3.754-0.055,7.536-0.495,11.255-0.177c8.297,0.71,16.253,2.717,22.956,8.043
	c2.651,2.107,4.605,4.829,6.297,7.775c1.144,1.99,2.536,3.846,3.922,5.683c2.472,3.273,3.209,7.142,3.653,11.024
	c0.816,7.136-0.764,13.999-3.052,20.698c-0.77,2.249-1.877,4.39-2.938,6.526c-0.415,0.835-0.438,1.54,0.089,2.226
	c2.531,3.303,2.538,6.917,1.442,10.711c-0.553,1.917-1.249,3.843-1.42,5.805c-0.185,2.111,0.095,4.278,0.317,6.406
	c0.171,1.622,0.271,1.611-0.436,2.91c-1.134-0.222-1.538-1.045-1.541-2.062c-0.005-2.091-0.342-4.078-0.999-6.091
	c-0.774-2.375,0.442-4.712,0.742-7.071c0.04-0.313,0.174-0.613,0.257-0.922c0.735-2.734,0.577-3.173-1.959-5.153
	c-7.896,5.387-15.848,10.808-24.089,16.43c0.307,0.823,0.531,1.828,1.028,2.671c0.829,1.402,1.145,2.771,0.491,4.317
	c-0.54,1.281-0.163,2.351,0.473,3.598c0.918,1.8,2.181,3.297,3.262,4.94c1.005,1.528,1.671,3.559,1.714,5.386
	c0.075,3.241,1.256,6.092,2.392,8.969c1.854,4.708,3.011,9.585,4.102,14.506c1.846,8.333,0.731,16.521-0.822,24.729
	c-0.847,4.471-1.617,8.958-2.274,13.459c-0.501,3.426-1.248,6.774-2.638,9.938c-1.36,3.105-0.572,6.125,0.062,9.171
	c0.229,1.106,1.171,1.131,2.078,1.204c3.662,0.297,7.331,0.543,10.979,0.955c6.671,0.754,13.332,1.594,19.991,2.45
	c0.763,0.098,1.531,0.444,2.21,0.828c0.835,0.472,1.205,1.243,0.911,2.244c-0.248,0.844-0.425,1.709-0.688,2.547
	c-2.23,7.079-4.479,14.149-6.713,21.229c-0.384,1.222-0.729,2.453-1.058,3.69c-1.428,5.424-3.521,10.604-5.552,15.82
	c-1.797,4.612-3.26,9.354-4.878,14.037c-1.798,5.207-3.631,10.402-5.396,15.621C505.787,567.535,505.188,569.769,504.441,572.253z
	 M465.101,353.909c-0.389-1.491-0.389-1.491-1.976-1.962c0.675,0.637,1.349,1.274,2.021,1.912c0.089,0.552,0.277,1.109,0.25,1.655
	c-0.294,5.819-3.323,9.998-8.009,13.138c-0.518,0.346-1.17,0.59-1.785,0.66c-1.439,0.163-2.725-0.348-3.582-1.503
	c-0.634-0.854-0.938-1.846,0.048-2.814c0.229-0.225,0.152-0.851,0.083-1.27c-0.245-1.492-0.268-1.572,1.305-1.579
	c1.189-0.005,1.578-0.629,1.54-1.609c-0.036-0.993-0.243-1.979-0.396-3.105c-2.431,0.906-2.951,3.877-5.373,4.69
	c-0.903-0.617-1.804-1.231-2.494-1.703c1.115-3.145,2.088-6.079,3.199-8.958c0.938-2.43,0.452-4.472-1.161-6.44
	c-2.491-3.038-2.88-6.491-1.678-10.159c0.435-1.326,0.966-2.62,1.505-4.067c-1.233-0.126-2.263-0.196-3.28-0.347
	c-1.128-0.167-2.014,0.038-2.644,1.117c-1.078,1.849-2.127,3.733-3.398,5.445c-1.002,1.349-1.188,2.657-0.839,4.227
	c0.27,1.215,0.314,2.479,0.494,4.028c-0.819-0.332-1.287-0.521-2.253-0.913c0.641,1.838,1.146,3.294,1.702,4.881
	c-0.861,0.046-1.379,0.074-1.897,0.102c-0.118,0.159-0.237,0.319-0.354,0.478c0.744,0.404,1.49,0.809,2.236,1.214
	c0.057,0.23,0.108,0.46,0.163,0.689c-2.188-0.337-1.946,0.902-2.006,1.95c-0.077,1.343,0.505,2.908-1.291,3.68
	c-0.186,0.08-0.291,0.574-0.271,0.865c0.08,1.234-0.747,2.021-1.262,3.002c-0.952,1.821-2.113,3.751-2.294,5.717
	c-0.548,6.021,0.889,11.569,5.068,16.208c3.259,3.616,7.147,4.501,11.718,3.046c1.483-0.472,3.028-0.747,4.546-1.112
	c0.093,0.181,0.188,0.363,0.278,0.544c-0.96,0.701-1.921,1.403-2.959,2.161c1.865,1.706,3.604,3.297,5.506,5.037
	c3.981-3.257,8.436-5.571,13.112-7.448c4.736-1.901,9.734-2.749,14.849-3.283c-0.295-0.451-0.575-0.803-0.898-0.846
	c-2.523-0.339-5.056-0.663-7.593-0.901c-1.43-0.134-2.882-0.02-4.311-0.158c-1.764-0.171-2.651-1.518-2.196-3.229
	c0.225-0.847,0.581-1.659,0.88-2.487c0.906-2.513,1.289-5.14,1.121-7.768c-0.265-4.14-1.772-7.936-3.876-11.48
	C466.325,354.664,465.621,354.342,465.101,353.909z M465.659,405.619c-2.407-0.756-4.626-1.641-6.927-2.121
	c-2.331-0.487-4.726-1.166-7.223-0.219c3.774,0.49,6.642,2.621,9.457,4.89c-1.104-0.149-2.082-0.581-3.064-1.004
	c-1.604-0.688-3.155-1.622-4.831-1.999c-2.083-0.468-4.271-0.646-6.414-0.645c-4.388,0.002-7.989,1.465-10.463,5.471
	c-3.728,6.041-6.061,12.671-8.596,19.22c-3.306,8.542-3.752,17.775-6.313,26.513c0.178,0.194,0.31,0.408,0.497,0.539
	c3.464,2.405,4.3,6.03,4.39,9.885c0.056,2.396-0.961,4.54-2.649,6.251c-1.516,1.535-2.823,1.272-3.733-0.656
	c-0.839-1.781-0.632-3.572,0.093-5.35c1.185-2.909,0.418-5.553-2.188-7.495c-1.38,0.745-2.755,1.55-4.185,2.233
	c-0.54,0.259-1.339,0.523-1.795,0.311c-1.271-0.599-2.319-0.096-3.43,0.31c-1.575,0.575-3.129,1.229-4.729,1.732
	c-10.055,3.169-20.121,6.302-30.178,9.468c-0.563,0.177-1.063,0.544-1.603,0.827c0.187,0.526,0.256,0.845,0.404,1.121
	c0.146,0.275,0.339,0.552,0.568,0.765c4.356,4.008,5.362,9.367,5.604,14.851c0.109,2.474,0.823,4.464,2.083,6.458
	c1.233,1.954,3.045,3.217,4.808,4.6c1.168,0.916,2.063,1.038,3.434,0.371c3.807-1.854,7.662-3.623,11.588-5.204
	c10.162-4.093,20.347-8.105,29.935-13.485c3.31-1.854,6.354-3.755,8.399-7.18c3.809-6.377,7.998-12.524,11.899-18.848
	c4.75-7.696,8.479-15.932,12.375-24.073c0.439-0.922,1.142-1.722,1.722-2.575c-1.326,4.844-3.646,9.196-4.938,14.038
	c3.976-2.646,6.987-6.261,10.401-9.377c-1.97,4.683-5.722,7.916-9.467,11.148c-0.415,0.358-0.924,0.72-1.442,0.827
	c-1.354,0.284-1.896,1.284-2.511,2.354c-4.051,7.073-8.146,14.125-12.224,21.183c-1.078,1.864-2.477,3.617-3.161,5.614
	c-0.937,2.719-2.58,4.384-5.124,5.59c-3.099,1.467-5.982,3.375-9.057,4.9c-3.647,1.812-7.381,3.463-11.109,5.103
	c-5.047,2.219-10.132,4.353-15.192,6.541c-1.835,0.793-3.655,1.62-5.46,2.479c-0.546,0.26-1.018,0.677-1.646,1.104
	c0.601,1.521,1.145,2.897,1.747,4.423c1.81-0.563,3.359-1.257,4.98-1.516c6.703-1.067,13.437-1.96,20.142-3.005
	c4.264-0.665,8.566-1.275,12.057-4.225c0.591-0.498,1.357-0.785,2.063-1.181c0.342,0.288,0.604,0.469,0.814,0.694
	c1.25,1.326,1.413,3.02,1.43,4.699c0.029,3.074,0.517,6.03,1.752,8.867c0.343,0.786,0.486,1.69,0.568,2.557
	c0.32,3.396,1.307,6.496,3.274,9.364c2.848,4.145,5.579,8.365,6.957,13.32c0.454,1.633,1.773,2.713,3.486,3.372
	c4.032,1.555,8.323,1.497,12.492,2.166c0.648,0.104,1.514-0.408,2.111-0.857c0.95-0.715,1.718-1.671,2.643-2.427
	c3.515-2.874,7.602-4.77,11.849-6.142c3.313-1.069,6.275-2.749,9.383-4.193c2.987-1.391,5.181-3.661,7.286-6.078
	c3.292-3.773,4.793-8.438,6.446-13.014c0.575-1.591,1.234-3.213,1.32-5.169c-1.068,0.177-1.84,0.313-2.614,0.433
	c-5.682,0.874-9.693-2.305-9.641-7.979c0.042-4.45-1.019-8.672-1.844-13.068c-0.677,0.195-1.232,0.356-2.226,0.646
	c0.197-1.479,0.264-2.646,0.53-3.766c0.235-1.004,0.671-1.966,1.06-2.929c1.745-4.316,2.982-8.748,3.622-13.382
	c0.675-4.896,1.636-9.755,2.506-14.623c1.246-6.97,1.824-13.942,0.444-20.971c-1.287-6.554-4.074-12.604-6.177-18.885
	c-0.652-1.945-1.282-3.994-1.354-6.016c-0.084-2.339-0.524-4.264-2.094-6.118c-1.213-1.437-2.499-2.169-4.271-2.165
	c-1.52,0.004-3.035,0.12-4.555,0.176c-5.654,0.207-11.061,1.406-16.118,4.019c-0.581,0.3-1.212,0.505-1.818,0.754
	c1.972-3.18,5.525-3.452,8.574-4.983c-1.429-0.564-2.625-1.037-3.95-1.561c0.772-1.25,1.595-1.081,2.482-0.916
	c1.093,0.204,2.214,0.438,3.313,0.391c3.233-0.139,6.295-0.931,9.089-2.678c0.954-0.597,1.856-1.461,3.444-1.498
	c-1.48,2.761-4.463,2.982-6.712,4.818c2.271-0.132,4.103-0.211,5.926-0.363c0.44-0.038,0.981-0.204,1.274-0.507
	c1.11-1.148,1.183-3.151,0.26-4.52c-0.18-0.265-0.428-0.52-0.497-0.814c-0.567-2.349-2.281-2.521-4.257-2.354
	c-9.461,0.799-17.762,4.382-25.056,10.388c-0.341,0.281-0.568,0.698-0.995,1.233c1.67,0.646,3.516,0.165,4.778,1.323
	c-0.331,1.1-1.101,0.982-1.81,1.009c-0.794,0.028-1.727-0.182-2.352,0.161c-1.485,0.814-3.053,0.842-4.643,0.95
	c-1.81,0.125-3.022,0.655-4.263,1.901C453.531,400.386,459.9,401.175,465.659,405.619z M495.979,562.294
	c8.895-22.357,17.791-44.721,26.73-67.193c-8.894-1.313-17.548-2.47-26.516-3.146c0,1.271-0.024,2.214,0.004,3.154
	c0.129,3.9,2.548,6.646,6.44,7.081c1.484,0.165,3.018-0.085,4.528-0.137c0.521-0.017,1.048-0.003,1.854-0.003
	c-0.153,1.007-0.162,1.88-0.428,2.667c-1.378,4.081-2.64,8.216-4.296,12.186c-1.571,3.761-3.636,7.313-6.839,10.004
	c-3.784,3.182-8.268,5.202-12.811,6.884c-5.066,1.877-9.848,4.164-14.199,7.335c-1.348,0.981-2.553,2.156-3.687,3.126
	c-2.323-0.177-4.479-0.241-6.603-0.529c-2.284-0.311-4.621-0.593-6.793-1.313c-3.344-1.11-5.813-3.229-6.501-6.984
	c-0.339-1.855-0.712-1.988-2.719-1.539c-4.686,1.05-9.377,1.951-14.229,1.785c-1.491-0.051-3.052,0.221-4.492,0.641
	c-5.945,1.733-12.082,2.385-18.188,2.961c-5.792,0.55-11.648,0.599-17.477,0.541c-11.239-0.105-22.053-2.355-32.267-7.173
	c-4.458-2.103-8.396-4.921-11.697-8.61c-1.963-2.194-3.169-4.769-4.021-7.548c-1.348-4.411-0.65-8.695,0.723-12.95
	c0.175-0.538,0.276-1.101,0.413-1.648c-0.167-0.083-0.333-0.166-0.5-0.249c-12.156,13.462-23.824,27.335-35.096,41.94
	c0.835,0.213,1.334,0.404,1.848,0.462c4.77,0.507,9.542,0.959,14.309,1.487c6.271,0.697,12.537,1.47,18.809,2.178
	c5.796,0.652,11.598,1.257,17.396,1.899c4.051,0.451,8.1,1.334,12.146,1.316c7.716-0.034,15.296,1.175,22.925,1.906
	c9.461,0.904,18.894,2.126,28.345,3.142c5.399,0.581,10.812,1.11,16.229,1.513c9.321,0.693,18.646,1.465,27.98,1.843
	C476.826,559.7,486.218,561.088,495.979,562.294z M468.447,326.926c-0.05,0.236-0.1,0.472-0.147,0.708
	c-1.805,0.028-3.625,0.242-5.402,0.047c-3.656-0.402-6.943,0.797-10.228,2.051c-0.623,0.238-1.146,0.844-1.61,1.371
	c-2.721,3.085-3.046,9.198-0.406,12.496c2.79,3.485,2.905,7.278,0.962,11.207c-0.528,1.073-1.106,2.124-1.611,3.209
	c-0.166,0.357-0.172,0.791-0.27,1.292c0.369-0.109,0.563-0.108,0.653-0.204c0.221-0.226,0.415-0.485,0.585-0.752
	c2.571-4.037,5.764-7.412,10.02-9.735c1.545-0.843,2.015-0.956,3.459,0.094c0.518,0.375,1.039,0.768,1.457,1.242
	c3.425,3.879,5.876,8.256,7.189,13.315c1.219,4.701,0.35,8.978-1.918,13.116c-0.215,0.392-0.284,0.864-0.499,1.546
	c0.833,0,1.438-0.002,2.045,0c1.435,0.004,2.896-0.168,4.299,0.054c3.071,0.485,6.132,1.082,9.153,1.811
	c1.554,0.375,2.704,0.144,3.953-0.886c2.832-2.334,5.781-4.526,8.713-6.739c2.929-2.213,5.923-4.341,8.819-6.593
	c0.898-0.697,1.575-1.678,2.367-2.545c2.657,1.897,4.423,4.173,4.806,7.377c0.416-2.478,0.293-4.834-1.253-6.99
	c-0.694-0.969-1.267-2.032-1.839-3.083c-0.629-1.157-0.482-2.322,0.179-3.421c0.146-0.244,0.592-0.605,0.65-0.562
	c0.899,0.637,1.204-0.117,1.409-0.668c1.11-2.985,2.503-5.923,3.138-9.013c0.687-3.33,0.585-6.815,0.929-10.223
	c0.504-5.029-0.703-9.666-3.07-14.047c-0.363-0.673-0.846-1.479-1.48-1.768c-1.222-0.557-1.723-1.581-2.359-2.593
	c-1.188-1.881-2.335-3.806-3.708-5.546c-1.637-2.075-3.579-3.88-5.995-5.071c-5.211-2.568-10.737-4.233-16.471-4.887
	c-6.418-0.732-12.897-0.323-19.352-0.271c-1.106,0.009-2.233,0.155-3.317,0.395c-7.879,1.746-14.023,6.353-19.49,12.001
	c-1.409,1.455-2.203,3.345-2.407,5.39c-0.372,3.726,1.108,6.492,4.649,7.31c2.146,0.496,4.446,0.778,6.618,0.562
	c2.512-0.251,4.996-1.028,7.416-1.812c2.719-0.88,5.354-0.726,8.009,0.069C467.571,326.323,467.993,326.672,468.447,326.926z
	 M375.889,487.068c-1.146,0.652-1.661,1.014-2.229,1.261c-2.552,1.115-5.034,2.508-7.698,3.214
	c-3.306,0.876-6.745,1.351-10.157,1.665c-2.815,0.261-5.091,1.224-6.772,3.479c-1.05,1.407-2.032,2.865-3.023,4.313
	c-3.362,4.905-3.263,10.225-1.646,15.617c1.646,5.486,5.821,8.878,10.511,11.606c2.677,1.56,5.62,2.661,8.477,3.899
	c1.522,0.661,3.104,1.197,4.677,1.738c0.672,0.229,1.392,0.321,2.086,0.485c3.186,0.752,6.332,1.727,9.556,2.225
	c12.034,1.856,24.066,1.009,36.082-0.373c0.608-0.069,1.188-0.413,2.273-0.811c-1.442-0.406-2.279-0.65-3.12-0.879
	c-4.315-1.166-8.641-2.313-12.954-3.498c-1.535-0.422-1.522-0.462-2.275-1.991c7.242,1.313,14.678,2.846,22.173,3.958
	c7.088,1.056,14.185,0.307,21.225-0.85c0.513-0.084,0.991-0.372,1.686-0.643c-0.374-0.771-0.619-1.438-0.992-2.02
	c-1.339-2.083-2.693-4.158-4.093-6.201c-2.106-3.071-2.91-6.51-3.039-10.176c-0.042-1.187-0.29-2.366-0.455-3.548
	c-0.396-2.833-1.368-5.591-0.974-8.529c0.116-0.854-0.06-1.776-1.188-2.193c-0.231,0.104-0.57,0.169-0.792,0.364
	c-3.461,3.08-7.793,3.936-12.137,4.613c-3.313,0.518-6.689,0.605-10.009,1.096c-4.184,0.619-8.353,1.373-12.491,2.234
	c-1.521,0.315-2.94,1.104-4.665,1.778c-0.768-2.032-1.481-3.934-2.249-5.971c-1.666,0.663-3.169,1.192-4.612,1.854
	c-1.632,0.748-3.277,0.929-4.845,0.063c-1.592-0.878-3.402-1.688-4.518-3.025c-2.074-2.498-3.729-5.352-5.515-8.082
	c-0.211-0.322-0.16-0.816-0.289-1.575c2.094,1.038,2.604,2.947,3.743,4.29c1.742,2.053,2.551,2.885,4.662,3.828
	C376.751,496.444,376.1,492.058,375.889,487.068z M529.045,491.716c-0.888-0.159-1.343-0.271-1.805-0.315
	c-3.019-0.293-6.05-0.482-9.056-0.87c-6.334-0.819-12.652-1.766-18.985-2.601c-1.146-0.148-2.329-0.021-3.585-0.021
	c-0.037,1.521,0.349,2.38,1.836,2.376c0.479-0.001,0.953,0.097,1.433,0.148c7.146,0.803,14.299,1.558,21.438,2.424
	c3.917,0.476,4.783,1.848,3.477,5.446c-1.773,4.876-3.551,9.761-5.549,14.545c-2.521,6.04-5.446,11.913-7.875,17.988
	c-3.229,8.086-6.11,16.313-9.224,24.448c-1.188,3.106-2.063,6.384-4.145,9.039c-2.705-0.244-5.315-0.431-7.914-0.728
	c-4.205-0.479-8.394-1.147-12.604-1.525c-5.092-0.456-10.205-0.672-15.306-1.029c-2.631-0.185-5.253-0.485-7.883-0.674
	c-5.021-0.358-10.048-0.588-15.061-1.029c-5.093-0.448-10.166-1.114-15.253-1.636c-12.719-1.304-25.438-2.591-38.161-3.862
	c-8.507-0.851-17.02-1.644-25.523-2.501c-5.401-0.545-10.8-1.131-16.193-1.752c-6.034-0.695-12.058-1.492-18.094-2.17
	c-5.798-0.65-11.608-1.188-17.409-1.815c-1.293-0.143-2.671-0.234-3.352-1.309c3.229-4.079,6.251-7.99,9.375-11.818
	c4.491-5.509,8.958-11.045,13.618-16.406c5.607-6.45,11.407-12.733,17.133-19.082c0.561-0.621,1.176-1.191,1.877-1.896
	c-3.114-0.556-5.167,0.816-7.035,2.704c-5.955,6.021-11.997,11.959-17.874,18.056c-6.983,7.245-13.854,14.601-20.729,21.951
	c-2.999,3.208-5.887,6.521-8.796,9.811c-0.48,0.542-0.822,1.207-1.354,2.003c0.785,0.191,1.156,0.341,1.536,0.37
	c3.265,0.257,6.538,0.425,9.796,0.746c13.678,1.344,27.353,2.722,41.025,4.107c6.842,0.694,13.674,1.468,20.515,2.149
	c8.667,0.863,17.344,1.636,26.01,2.516c4.37,0.443,8.714,1.163,13.088,1.543c12.501,1.087,25.011,2.072,37.521,3.08
	c3.74,0.302,7.489,0.512,11.229,0.826c6.133,0.517,12.264,1.064,18.394,1.635c4.854,0.449,9.71,0.896,14.554,1.438
	c6.028,0.68,12.045,1.461,18.327,2.229C512.314,544.493,519.729,517.965,529.045,491.716z M356.507,487.754
	c-1.421,1.14-2.554,0.824-3.727,0.497c-0.73-0.205-1.538-0.426-2.264-0.317c-1.969,0.292-3.938,0.658-5.858,1.176
	c-3.068,0.821-6.319,1.087-9.112,2.812c-0.841,0.521-2.307,0.688-1.999,2.009c0.35,1.513,1.823,1.026,2.848,0.902
	c3.635-0.44,7.258-0.982,10.881-1.521c3.694-0.55,7.389-1.101,11.071-1.721c4.977-0.839,9.903-1.835,14.291-4.563
	c2.908-1.812,3.26-2.986,1.568-5.998c-0.115-0.209-0.252-0.409-0.399-0.598c-1.595-1.995-3.031-4.148-4.827-5.945
	c-3.173-3.178-6.921-5.164-11.643-4.242c-1.091,0.213-2.151,0.554-3.23,0.819c-1.934,0.476-3.871,0.937-5.805,1.409
	c-0.491,0.12-0.978,0.271-1.604,0.445c0.983,1.878,2.604,2.08,4.178,2.232c1.826,0.176,3.672,0.18,5.508,0.286
	c1.602,0.093,3.149,0.354,4.496,1.691c-0.722,1.007-1.203,2.44-2.114,2.809c-2.188,0.879-4.551,1.478-6.896,1.732
	c-1.008,0.11-2.315-0.718-3.14-1.491c-0.412-0.388-0.036-1.608-0.021-2.455c0.007-0.381,0.001-0.762,0.001-1.296
	c-0.938-0.226-1.763-0.424-2.745-0.658c-0.3,0.892-0.479,1.662-0.813,2.364c-0.693,1.478-0.31,2.788,0.909,3.585
	c2.605,1.703,4.636,4.358,8.007,4.847C354.806,486.669,355.473,487.231,356.507,487.754z M407.803,445.609
	c0.145,0.34,0.217,0.424,0.2,0.479c-0.239,0.828-0.491,1.652-0.737,2.479c-1.035,3.486,0.826,6.125,4.41,6.261
	c0.42,0.017,0.837,0.079,1.451,0.139c-0.308,0.394-0.406,0.646-0.589,0.733c-3.467,1.683-6.841,0.099-7.812-3.638
	c-0.129-0.496-0.349-0.971-0.622-1.715c-0.478,0.6-0.837,0.915-1.034,1.313c-1.187,2.405-1.372,4.884-0.453,7.425
	c0.199,0.55,0.366,1.229-0.401,1.331c-0.372,0.05-1.029-0.396-1.201-0.778c-0.813-1.81-1.012-3.732-0.249-5.594
	c0.714-1.739,1.633-3.394,2.555-5.277c-1.019-0.079-2.09-0.223-3.163-0.236c-1.529-0.021-1.702,0.197-1.813,2.203
	c-0.935-0.121-1.855-0.188-2.757-0.367c-2.258-0.448-4.429-1.272-6.823-0.999c-1.733,0.198-3.507,0.044-5.263,0.036
	c-0.479-0.002-1.021-0.191-1.417-0.022c-0.434,0.185-0.979,0.658-1.018,1.05c-0.037,0.401,0.393,0.997,0.782,1.247
	c0.441,0.281,1.063,0.322,1.617,0.382c3.566,0.382,7.141,0.733,10.711,1.104c0.641,0.065,1.277,0.167,2.379,0.313
	c-1.606,1.136-2.854,1.027-4.139,0.938c-2.708-0.188-5.422-0.313-8.135-0.41c-0.414-0.016-0.837,0.251-1.549,0.483
	c0.521,0.603,0.781,1.171,1.201,1.337c0.95,0.374,1.972,0.73,2.976,0.77c2.868,0.104,5.742,0.031,8.613,0.066
	c0.526,0.006,1.05,0.19,1.574,0.295c-0.007,0.216-0.015,0.431-0.022,0.646c-0.985,0.146-1.971,0.378-2.962,0.419
	c-1.993,0.082-3.993,0.018-5.984,0.116c-0.473,0.023-1.262,0.417-1.305,0.727c-0.071,0.52,0.201,1.219,0.563,1.643
	c0.856,1.008,2.128,0.974,3.332,1.01c3.114,0.098,6.228,0.234,9.343,0.253c0.997,0.006,2.042-0.186,2.986-0.514
	c3.392-1.177,6.766-2.408,10.109-3.707c1.704-0.661,3.403-1.393,4.98-2.309c1.804-1.047,2.095-2.519,1.16-4.362
	c-0.182-0.354-0.36-0.721-0.476-1.101c-0.96-3.222-3.218-5.496-5.683-7.546c-1.59-1.322-3.338-1.824-5.492-0.689
	c-2.164,1.141-4.596,1.771-6.906,2.638c-0.563,0.211-1.109,0.463-1.933,0.811c0.545,0.591,0.822,1.124,1.254,1.321
	C402.722,447.528,405.178,445.833,407.803,445.609z M459.855,353.582c0.177,0.643,0.182,1.18,0.443,1.519
	c1.436,1.863,1.186,3.689,0.032,5.551c-0.251,0.405-0.479,0.837-0.637,1.286c-0.875,2.513-2.765,3.197-5.215,3.045
	c-0.423-0.026-0.873,0.402-1.311,0.621c0.224,0.39,0.352,0.927,0.688,1.144c1.321,0.854,2.589,0.404,3.8-0.351
	c3.557-2.214,4.89-5.791,5.631-9.602C463.703,354.66,462.309,353.417,459.855,353.582z M358.375,479.261
	c-0.188-1.535-0.771-2.173-1.718-2.313c-2.022-0.308-4.058-0.371-6.028,0.003c-0.428,2.454,0.59,3.85,2.737,3.598
	C355.048,480.349,356.675,479.714,358.375,479.261z M334.212,490.804c4.889-1.399,9.649-2.767,14.413-4.131
	c-0.003-0.178-0.004-0.354-0.005-0.534c-0.467-0.113-0.938-0.345-1.398-0.319c-0.784,0.041-1.572,0.189-2.336,0.385
	c-3.151,0.796-6.302,1.595-9.435,2.464C334.637,488.893,333.727,489.258,334.212,490.804z M421.698,471.143
	c0.252,0.02,0.504,0.035,0.756,0.055c1.716-3.032,2.343-6.265,1.298-9.699c-0.486-1.6-1.457-2.886-3.377-3.463
	c0.043,0.484-0.011,0.743,0.091,0.912c1.917,3.241,2.537,6.605,1.177,10.245C421.432,469.755,421.67,470.487,421.698,471.143z
	 M458.405,356.062c-1.419,0.52-2.177,1.596-1.786,2.793c0.546,1.673,0.2,3.025-0.876,4.51c1.248,0.142,1.901-0.232,2.321-1.125
	c0.438-0.93,0.93-1.834,1.365-2.764C460.274,357.67,460.265,357.666,458.405,356.062z M336.479,486.817
	c3-0.873,5.809-1.691,8.617-2.512c-0.031-0.204-0.063-0.405-0.094-0.609c-2.192-0.788-4.334,0.094-6.471,0.587
	C337.406,484.542,336.594,485.219,336.479,486.817z M396.921,444.883c-1.146-0.118-2.021-0.341-2.859-0.244
	c-0.499,0.059-1.166,0.521-1.356,0.973c-0.321,0.763,0.181,1.476,0.956,1.62c1.051,0.192,2.143,0.155,3.396,0.229
	C397.004,446.445,396.968,445.761,396.921,444.883z M429.02,363.181c0.251,0.142,0.502,0.284,0.753,0.426
	c1.002-1.734,2.004-3.469,3.007-5.204C431.025,359.683,428.545,360.484,429.02,363.181z M397.349,463.643
	c-4.028-1.087-4.969-0.735-5.275,1.925C393.776,464.944,395.329,464.378,397.349,463.643z"/>
<path d="M275.626,288.196c0.168,1.109,0.313,2.122,0.474,3.132c1.727,10.97,3.498,21.932,5.165,32.91
	c1.607,10.587,3.151,21.185,4.634,31.79c0.854,6.094,1.45,12.223,2.305,18.317c1.018,7.277,2.186,14.534,3.329,22.064
	c0.993,0.294,2.021,0.755,3.089,0.886c8.728,1.071,17.466,2.053,26.192,3.116c10.391,1.267,20.775,2.587,31.162,3.896
	c0.711,0.09,1.436,0.207,2.11,0.438c2.229,0.769,3.824,1.813,4.645,4.487c2.523,8.248,5.427,16.387,8.395,24.488
	c1.03,2.818,1.334,4.999-1.52,6.936c-4.185,2.839-5.813,7.577-7.871,11.834c-4.448,9.195-11.837,14.625-21.229,17.805
	c-1.189,0.402-2.312,1.009-3.462,1.522c-0.286,0.128-0.563,0.372-0.854,0.385c-4.66,0.206-8.804,1.872-12.729,4.295
	c-2.512,1.55-5.238,2.758-7.692,4.384c-4.422,2.93-6.682,7.188-6.938,12.485c-0.107,2.262-1.332,3.832-2.959,5.25
	c-3.057,2.666-6.698,4.31-10.257,6.13c-2.693,1.38-5.302,2.93-7.963,4.378c-1.331,0.724-2.676,1.426-4.045,2.074
	c-4.649,2.201-9.114,4.646-12.19,8.979c-2.363,3.33-5.53,5.118-9.656,5.438c-5.405,0.419-10.364,2.535-15.412,4.335
	c-6.096,2.173-11.319,5.915-16.887,9.04c-2.508,1.406-5.035,2.795-7.452,4.35c-3.108,2-6.337,1.61-9.428,0.386
	c-3.93-1.557-7.73-3.443-11.521-5.325c-1.781-0.886-3.354-2.181-5.117-3.108c-1.097-0.579-2.365-1.146-3.563-1.156
	c-3.658-0.03-7.112-0.875-10.566-1.945c-5.146-1.598-10.065-3.607-14.476-6.781c-2.34-1.687-4.171-3.729-5.127-6.459
	c-0.423-1.208-1.156-1.77-2.412-1.975c-7.276-1.188-14.413-2.936-21.208-5.847c-3.818-1.636-7.563-3.446-11.312-5.241
	c-1-0.479-1.909-1.161-2.818-1.81c-1.34-0.955-2.059-1.98-1.255-3.837c0.797-1.849,0.105-3.028-1.803-3.772
	c-1.334-0.521-2.731-0.921-4.137-1.206c-5.738-1.166-10.914-3.557-15.542-7.105c-1.128-0.865-2.09-1.977-3.021-3.063
	c-1.165-1.363-1.419-2.89-0.92-4.701c0.46-1.672,0.448-3.469,0.72-5.197c0.938-5.996,2.046-11.972,2.822-17.986
	c0.681-5.278,2.454-10.222,4.048-15.231c0.499-1.57,1.877-2.242,3.175-3.077c5.17-3.328,11.11-4.854,16.666-7.273
	c8.645-3.764,17.328-7.441,26.013-11.114c1.395-0.589,2.892-0.931,4.32-1.437c1.804-0.638,3.617-1.265,5.367-2.029
	c0.507-0.223,0.956-0.844,1.188-1.387c2.892-6.756,5.743-13.526,8.591-20.299c3.036-7.22,6.052-14.45,9.096-21.667
	c0.401-0.954,1.005-1.828,1.367-2.794c0.267-0.705,0.496-1.532,0.39-2.252c-0.736-4.902-1.605-9.783-2.354-14.683
	c-0.732-4.82-1.258-9.674-2.087-14.476c-1.112-6.459-2.442-12.881-3.658-19.323c-0.429-2.278-0.684-4.594-1.203-6.85
	c-0.637-2.75,1.358-4.433,2.403-6.502c0.11-0.218,0.529-0.333,0.826-0.396c3.119-0.669,6.231-1.375,9.366-1.958
	c5.268-0.978,10.557-1.84,15.825-2.81c13.052-2.402,26.084-4.916,39.149-7.231c9.206-1.632,18.458-3.008,27.688-4.509
	c1.103-0.179,2.256-0.272,3.277-0.675C269.535,288.144,272.367,288.022,275.626,288.196z M154.145,513.821
	c0.82,0.408,1.446,0.748,2.094,1.037c2.037,0.908,3.679,2.149,4.49,4.383c0.339,0.931,1.081,1.772,1.801,2.496
	c3.16,3.165,6.941,5.287,11.142,6.836c4.481,1.651,9.079,2.478,13.814,2.685c2.263,0.099,4.145,1.053,5.865,2.438
	c5.466,4.39,11.659,7.202,18.541,8.517c2.363,0.451,4.562,0.186,6.662-1.127c4.475-2.792,8.996-5.511,13.521-8.219
	c8.233-4.928,16.876-8.755,26.566-9.705c3.604-0.354,6.304-2.007,7.968-5.332c0.523-1.047,1.275-2.123,2.205-2.795
	c2.718-1.962,5.449-3.97,8.407-5.519c5.234-2.737,10.581-5.281,15.995-7.646c2.888-1.262,5.117-3.169,7.171-5.433
	c1.073-1.183,1.481-2.57,1.731-4.111c0.28-1.721,0.662-3.449,1.25-5.085c1.491-4.152,4.805-6.749,8.357-8.947
	c6.202-3.838,13.14-6.148,19.759-9.121c0.216-0.097,0.463-0.123,0.693-0.187c2.147-0.6,4.392-0.977,6.431-1.834
	c6.543-2.759,12.204-6.664,15.71-13.096c1.302-2.386,2.647-4.758,3.771-7.229c1.465-3.226,3.689-5.736,6.488-7.825
	c1.967-1.468,1.898-1.477,1.082-3.681c-2.356-6.365-4.673-12.746-7.01-19.118c-0.758-2.067-1.532-4.129-2.393-6.447
	c-0.812,0.471-1.371,0.725-1.853,1.087c-10.008,7.589-20.736,14.086-31.367,20.732c-3.655,2.287-7.466,4.331-11.113,6.627
	c-5.949,3.742-11.748,7.727-17.748,11.38c-8.938,5.44-17.998,10.68-27,16.015c-3.573,2.117-7.124,4.271-10.691,6.397
	c-4.6,2.742-9.328,5.29-13.778,8.256c-6.475,4.313-13.52,7.578-20.189,11.513c-2.763,1.629-5.264,1.23-7.917-0.181
	c-2.46-1.31-5.021-2.433-7.555-3.599c-0.716-0.33-1.532-0.447-2.242-0.788c-5.613-2.7-11.184-5.488-16.825-8.132
	c-3.975-1.861-8.046-3.52-12.059-5.304c-2.552-1.135-5.021-2.479-7.622-3.476c-4.916-1.88-9.908-3.56-14.854-5.358
	c-1.5-0.547-2.938-1.265-4.432-1.831c-5.081-1.928-10.266-3.606-15.24-5.775c-7.902-3.447-15.672-7.205-23.491-10.85
	c-1.735-0.81-3.445-1.679-5.157-2.539c-1.081-0.544-1.849-0.255-2.325,0.825c-0.228,0.51-0.451,1.031-0.582,1.57
	c-0.66,2.716-1.443,5.413-1.9,8.164c-1.413,8.513-2.592,17.063-4.104,25.56c-0.368,2.065-0.082,3.557,1.345,4.938
	c0.574,0.555,1.109,1.162,1.739,1.645c3.719,2.85,7.793,5.007,12.352,6.176c1.779,0.457,3.626,0.712,5.346,1.33
	c1.626,0.584,3.235,1.364,4.645,2.356c1.284,0.903,1.318,1.785,0.757,3.168c-0.866,2.133-0.933,2.244,1.019,3.414
	c2.252,1.352,4.607,2.541,6.972,3.695c6.271,3.063,12.749,5.445,19.721,6.495c2.473,0.373,3.964-0.299,5.197-2.229
	c0.343-0.537,0.77-1.021,1.145-1.54c0.358-0.494,0.699-0.999,1.05-1.5c0.141,0.101,0.279,0.201,0.422,0.303
	C156.713,510.06,155.512,511.818,154.145,513.821z M354.925,407.98c-0.057-0.26-0.109-0.52-0.164-0.775
	c-20.699-3.646-41.723-4.979-62.721-8.533c0.072,0.932,0.131,1.695,0.194,2.459c0.169,1.985,0.434,3.969,0.484,5.957
	c0.044,1.669-0.44,3.077-2.26,3.814c-4.117,1.67-7.854,4.304-12.43,4.809c-0.454,0.051-0.889,0.348-1.319,0.555
	c-3.175,1.51-6.338,3.049-9.523,4.539c-8.827,4.129-17.639,8.296-26.508,12.333c-3.703,1.687-7.581,2.981-11.304,4.624
	c-7.748,3.419-15.44,6.963-23.167,10.43c-2.404,1.077-4.833,2.104-7.286,3.065c-0.522,0.204-1.271,0.185-1.79-0.032
	c-1.102-0.454-2.126-1.094-3.168-1.682c-1.469-0.828-2.039-2.116-2.026-3.781c0.008-1.104-0.125-2.22-0.302-3.313
	c-0.396-2.443-0.874-4.873-1.291-7.313c-0.861-5.037-1.696-10.078-2.565-15.114c-0.105-0.617-0.212-1.318-0.565-1.799
	c-1.938-2.627-5.983-2.795-8.29-0.402c-1.267,1.313-2.061,2.886-2.18,4.693c-0.12,1.789-0.906,2.716-2.604,3.507
	c-3.83,1.786-7.487,3.945-11.201,5.978c-1.683,0.921-3.325,1.917-5.006,2.842c-0.869,0.479-1.81,0.791-2.675,0.011
	c-1.178-1.062-2.313-2.173-3.534-3.328c0.768-1.952,1.532-3.788,2.206-5.658c0.676-1.878,2.094-3.542,1.858-6.063
	c-1.252,0.394-2.327,0.632-3.321,1.058c-4.405,1.89-8.787,3.831-13.178,5.754c-6.37,2.788-12.729,5.604-19.114,8.354
	c-4.254,1.833-8.552,3.563-12.818,5.368c-0.601,0.255-1.127,0.688-2.077,1.275c1.057,0.528,1.659,0.856,2.282,1.144
	c3.632,1.659,7.258,3.329,10.906,4.953c4.011,1.786,7.937,3.845,12.086,5.22c9.197,3.049,18.158,6.654,27.029,10.518
	c1.517,0.659,3.159,1.043,4.649,1.749c5.771,2.73,11.456,5.644,17.263,8.297c5.955,2.723,12.034,5.169,18.02,7.832
	c6.348,2.822,12.664,5.724,18.955,8.673c1.87,0.876,3.5,0.701,5.213-0.32c5.415-3.229,10.853-6.424,16.291-9.611
	c5.168-3.027,10.37-6,15.521-9.057c5.431-3.221,10.803-6.54,16.23-9.764c5.354-3.181,10.754-6.28,16.12-9.439
	c2.546-1.5,5.063-3.049,7.585-4.589c5.657-3.456,11.332-6.885,16.955-10.395c3.588-2.239,7.026-4.721,10.657-6.89
	c5.413-3.234,11.018-6.161,16.387-9.47c4.418-2.721,8.64-5.768,12.893-8.746C351.938,410.582,353.396,409.23,354.925,407.98z
	 M199.114,449.344c0.97-0.308,1.517-0.425,2.014-0.647c9.611-4.35,19.21-8.73,28.833-13.055c4.009-1.802,8.065-3.491,12.11-5.212
	c5.294-2.25,10.638-4.392,15.889-6.735c6.78-3.03,13.48-6.245,20.244-9.323c3.556-1.62,7.144-3.176,10.765-4.645
	c1.35-0.549,1.868-1.393,1.708-2.75c-0.204-1.74-0.406-3.479-0.659-5.215c-1.141-7.819-2.268-15.641-3.461-23.452
	c-1.168-7.651-2.453-15.284-3.604-22.937c-0.977-6.473-1.849-12.96-2.742-19.445c-1.169-8.464-2.646-16.877-3.471-25.4
	c-0.618-6.419-2.021-12.764-3.099-19.138c-0.061-0.361-0.313-0.689-0.535-1.154c-0.931,0.074-1.808,0.063-2.65,0.225
	c-2.661,0.511-5.287,1.281-7.971,1.596c-5.472,0.642-10.761,2.212-16.265,2.784c-6.423,0.667-12.781,2.005-19.151,3.139
	c-6.215,1.107-12.398,2.38-18.615,3.479c-10.848,1.917-21.859,2.944-32.456,6.197c-2.354,0.723-2.46,0.691-2.023,3.068
	c1.432,7.781,2.856,15.564,4.285,23.346c1.544,8.409,3.024,16.83,4.656,25.222c1.31,6.742,2.945,13.422,4.175,20.177
	c1.47,8.09,2.616,16.239,3.979,24.35c2.123,12.605,4.302,25.201,6.484,37.799C197.986,444.108,198.552,446.578,199.114,449.344z
	 M158.232,431.559c0.87-0.28,1.367-0.332,1.729-0.576c3.654-2.494,7.674-4.221,11.769-5.838c1.875-0.737,3.343-1.965,3.906-4.201
	c0.397-1.579,1.284-3.115,2.25-4.457c1.815-2.519,4.227-3.86,7.47-2.861c0.193,0.061,0.444-0.068,0.952-0.163
	c-0.089-1.011-0.064-2.026-0.283-2.989c-1.438-6.373-2.972-12.728-4.385-19.106c-0.724-3.267-1.261-6.575-1.88-9.865
	c-0.181-0.958-0.015-2.102-1.367-2.541c-0.231,0.293-0.494,0.507-0.605,0.781c-1.133,2.727-2.292,5.443-3.342,8.203
	c-1.499,3.945-2.846,7.949-4.374,11.883c-2.048,5.272-4.242,10.487-6.306,15.756c-1.688,4.312-3.294,8.654-4.888,13.001
	C158.57,429.419,158.489,430.34,158.232,431.559z M196.887,448.355c-0.104-1.396-0.081-2.491-0.28-3.549
	c-1.068-5.652-2.29-11.28-3.278-16.948c-1.662-9.522-3.188-19.069-4.776-28.604c-0.341-2.05-0.683-4.1-1.065-6.143
	c-1.808-9.662-3.611-19.324-5.452-28.979c-1.003-5.25-2.128-10.476-3.096-15.731c-0.854-4.636-1.548-9.301-2.347-13.948
	c-0.937-5.435-1.896-10.865-2.871-16.292c-0.325-1.81-0.684-3.617-1.128-5.399c-0.354-1.419-1.18-1.568-2.226-0.593
	c-1.023,0.955-0.664,2.038-0.446,3.126c0.973,4.855,2.029,9.694,2.915,14.565c1.128,6.209,2.104,12.446,3.176,18.666
	c1.502,8.742,2.985,17.487,4.56,26.215c1.35,7.473,2.813,14.925,4.229,22.386c1.132,5.967,2.366,11.917,3.376,17.905
	c1.421,8.427,2.664,16.884,4.015,25.323c0.24,1.497,0.581,2.983,0.971,4.45C193.601,446.481,194.387,447.899,196.887,448.355z
	 M174.639,380.412c-0.319,0.379-0.638,0.626-0.783,0.952c-1.721,3.869-3.497,7.716-5.104,11.633
	c-4.55,11.088-9.033,22.203-13.526,33.313c-0.449,1.109-0.846,2.245-1.169,3.397c-0.292,1.041,0.3,1.711,1.232,2.009
	c0.938,0.299,1.249-0.448,1.524-1.132c0.303-0.741,0.583-1.489,0.868-2.236c3.706-9.705,7.431-19.404,11.109-29.119
	c2.092-5.523,4.111-11.076,6.149-16.621C175.177,381.973,175.654,381.291,174.639,380.412z M177.711,372.932
	c-1.392,1.075-1.71,2.359-1.874,3.891C178.144,375.901,178.776,374.618,177.711,372.932z"/>
<path fill="#FFFFFF" d="M465.659,405.619c-5.761-4.444-12.129-5.233-19.116-3.768c1.236-1.246,2.451-1.776,4.261-1.901
	c1.59-0.109,3.156-0.136,4.643-0.95c0.625-0.343,1.559-0.133,2.353-0.161c0.709-0.024,1.478,0.091,1.809-1.009
	c-1.265-1.158-3.108-0.678-4.778-1.323c0.428-0.536,0.654-0.953,0.995-1.233c7.294-6.006,15.597-9.589,25.057-10.388
	c1.975-0.167,3.688,0.005,4.256,2.354c0.069,0.294,0.317,0.549,0.498,0.814c0.922,1.369,0.852,3.372-0.261,4.52
	c-0.293,0.303-0.834,0.47-1.274,0.507c-1.823,0.152-3.652,0.231-5.925,0.363c2.249-1.836,5.229-2.058,6.711-4.818
	c-1.587,0.037-2.49,0.901-3.444,1.498c-2.794,1.747-5.854,2.539-9.089,2.678c-1.098,0.047-2.22-0.188-3.313-0.391
	c-0.89-0.166-1.71-0.335-2.482,0.916c1.326,0.524,2.521,0.997,3.951,1.561c-3.05,1.531-6.604,1.806-8.575,4.983
	c0.606-0.249,1.239-0.454,1.819-0.754c5.059-2.612,10.464-3.813,16.117-4.019c1.52-0.056,3.035-0.172,4.556-0.176
	c1.771-0.004,3.057,0.728,4.27,2.165c1.567,1.854,2.01,3.778,2.094,6.118c0.071,2.021,0.701,4.068,1.354,6.015
	c2.103,6.28,4.89,12.332,6.177,18.884c1.38,7.028,0.802,14.001-0.444,20.973c-0.868,4.868-1.83,9.727-2.506,14.623
	c-0.64,4.634-1.877,9.063-3.622,13.382c-0.389,0.963-0.82,1.925-1.06,2.929c-0.268,1.12-0.333,2.287-0.53,3.765
	c0.991-0.286,1.549-0.447,2.227-0.645c0.824,4.396,1.885,8.618,1.843,13.068c-0.054,5.675,3.959,8.854,9.641,7.979
	c0.774-0.119,1.546-0.256,2.614-0.433c-0.086,1.956-0.745,3.578-1.32,5.169c-1.651,4.575-3.152,9.237-6.444,13.014
	c-2.107,2.417-4.301,4.688-7.288,6.078c-3.105,1.444-6.068,3.124-9.382,4.193c-4.246,1.372-8.334,3.268-11.85,6.142
	c-0.925,0.756-1.689,1.712-2.643,2.427c-0.6,0.449-1.461,0.962-2.111,0.857c-4.169-0.669-8.46-0.611-12.492-2.166
	c-1.713-0.659-3.031-1.739-3.484-3.372c-1.379-4.955-4.111-9.178-6.957-13.32c-1.972-2.869-2.956-5.968-3.276-9.366
	c-0.082-0.862-0.227-1.769-0.568-2.555c-1.235-2.837-1.723-5.793-1.752-8.867c-0.017-1.682-0.18-3.374-1.43-4.699
	c-0.213-0.228-0.474-0.406-0.813-0.694c-0.702,0.395-1.473,0.683-2.063,1.181c-3.488,2.947-7.793,3.56-12.055,4.225
	c-6.707,1.045-13.438,1.938-20.144,3.005c-1.621,0.259-3.173,0.951-4.98,1.516c-0.604-1.524-1.146-2.902-1.747-4.423
	c0.629-0.43,1.101-0.847,1.646-1.105c1.806-0.856,3.625-1.686,5.46-2.479c5.063-2.189,10.146-4.322,15.192-6.541
	c3.729-1.64,7.462-3.291,11.11-5.104c3.071-1.523,5.958-3.434,9.056-4.898c2.544-1.206,4.188-2.871,5.124-5.59
	c0.687-1.997,2.083-3.75,3.161-5.614c4.08-7.058,8.173-14.107,12.224-21.183c0.612-1.069,1.156-2.069,2.511-2.354
	c0.521-0.109,1.027-0.469,1.442-0.827c3.745-3.232,7.497-6.468,9.467-11.148c-3.414,3.114-6.428,6.73-10.4,9.377
	c1.292-4.843,3.608-9.194,4.937-14.038c-0.58,0.854-1.28,1.652-1.722,2.575c-3.896,8.144-7.625,16.377-12.375,24.072
	c-3.901,6.322-8.092,12.472-11.899,18.849c-2.045,3.425-5.092,5.321-8.398,7.18c-9.588,5.38-19.771,9.395-29.936,13.485
	c-3.926,1.581-7.781,3.353-11.588,5.203c-1.371,0.667-2.264,0.546-3.433-0.37c-1.764-1.385-3.573-2.646-4.809-4.6
	c-1.26-1.995-1.974-3.984-2.083-6.458c-0.242-5.481-1.248-10.843-5.604-14.851c-0.23-0.213-0.422-0.487-0.569-0.766
	c-0.147-0.275-0.22-0.594-0.404-1.12c0.538-0.283,1.04-0.65,1.603-0.827c10.057-3.166,20.123-6.3,30.178-9.469
	c1.601-0.505,3.151-1.156,4.729-1.731c1.107-0.403,2.158-0.906,3.429-0.311c0.456,0.216,1.255-0.051,1.795-0.31
	c1.43-0.686,2.805-1.488,4.185-2.234c2.604,1.943,3.371,4.586,2.188,7.496c-0.724,1.775-0.931,3.566-0.091,5.35
	c0.909,1.931,2.218,2.191,3.731,0.655c1.688-1.712,2.705-3.854,2.649-6.251c-0.09-3.854-0.924-7.479-4.389-9.884
	c-0.188-0.131-0.32-0.345-0.497-0.539c2.562-8.735,3.008-17.971,6.313-26.513c2.535-6.549,4.868-13.179,8.596-19.22
	c2.474-4.006,6.075-5.469,10.464-5.471c2.144-0.002,4.33,0.176,6.413,0.645c1.678,0.377,3.229,1.311,4.831,1.999
	c0.982,0.423,1.961,0.854,3.064,1.004c-2.815-2.269-5.682-4.397-9.457-4.89c2.497-0.947,4.892-0.271,7.223,0.219
	C461.033,403.979,463.252,404.863,465.659,405.619z M416.096,464.688c-0.069,1.007-0.201,2.014-0.198,3.021
	c0.016,6.127-2.927,10.306-8.467,12.664c-2.27,0.966-4.614,1.835-7.008,2.399c-6.033,1.423-11.575,0.731-15.844-4.396
	c-0.368-0.446-0.733-1.035-1.566-0.702c0.118,0.324,0.169,0.562,0.284,0.757c0.197,0.347,0.426,0.677,0.66,0.996
	c2.385,3.242,5.746,4.991,9.479,6.13c2.4,0.732,4.782,0.729,7.306,0.242c3.174-0.608,5.8-2.133,8.438-3.791
	c2.696-1.692,4.848-3.852,6.23-6.756C417.028,471.862,417.025,468.319,416.096,464.688z M426.392,455.293
	c-0.069,0.15-0.139,0.301-0.208,0.45c0.701,0.216,1.438,0.696,2.096,0.602c2.438-0.353,4.973-0.548,7.094-1.965
	c2.117-1.411,4.234-2.854,6.182-4.487c5.66-4.755,9.271-10.898,11.713-17.796c0.563-1.599,0.734-3.188-0.303-5.315
	c-0.542,1.183-0.974,1.903-1.219,2.688c-2.856,9.12-8.317,16.452-15.463,22.646c-1.595,1.384-3.29,2.551-5.444,2.799
	C429.36,455.082,427.872,455.169,426.392,455.293z M448.621,515.397c-0.606,1.6-0.606,1.6-0.434,2.436
	c0.818,3.921,3.189,6.29,7.081,7.239c3.337,0.813,6.67,0.45,10.007,0.136c2.217-0.209,4.376-0.669,6.36-1.777
	c-0.62-0.052-1.22,0.014-1.806,0.137c-4.255,0.896-8.556,1.269-12.859,0.604c-4.659-0.718-7.142-2.64-7.926-7.313
	C448.976,516.436,448.81,516.028,448.621,515.397z M484.803,514.688c0.215,0.166,0.429,0.33,0.643,0.496
	c4.238-3.112,7.999-6.518,7.375-12.599c-1.002,2.22-1.739,4.591-3.06,6.575C488.404,511.2,486.479,512.861,484.803,514.688z"/>
<path fill="#FFFFFF" d="M495.979,562.294c-9.761-1.206-19.15-2.594-28.674-2.979c-9.336-0.38-18.659-1.147-27.98-1.843
	c-5.418-0.4-10.828-0.932-16.229-1.513c-9.451-1.016-18.882-2.235-28.343-3.142c-7.631-0.731-15.209-1.94-22.927-1.906
	c-4.047,0.018-8.096-0.865-12.146-1.316c-5.797-0.645-11.599-1.247-17.396-1.899c-6.271-0.708-12.534-1.479-18.809-2.178
	c-4.765-0.528-9.539-0.98-14.307-1.487c-0.516-0.058-1.015-0.249-1.85-0.462c11.271-14.605,22.938-28.479,35.098-41.94
	c0.167,0.083,0.333,0.166,0.5,0.249c-0.139,0.55-0.24,1.11-0.414,1.648c-1.373,4.255-2.069,8.539-0.724,12.948
	c0.853,2.781,2.06,5.354,4.021,7.55c3.301,3.689,7.241,6.51,11.699,8.61c10.213,4.815,21.023,7.065,32.265,7.173
	c5.826,0.058,11.685,0.008,17.477-0.541c6.105-0.577,12.242-1.228,18.188-2.961c1.44-0.42,3.001-0.689,4.493-0.641
	c4.853,0.166,9.544-0.735,14.229-1.785c2.007-0.449,2.38-0.317,2.719,1.539c0.688,3.757,3.157,5.874,6.503,6.984
	c2.172,0.723,4.508,1.005,6.793,1.313c2.122,0.288,4.275,0.354,6.601,0.529c1.134-0.97,2.339-2.146,3.688-3.126
	c4.353-3.171,9.133-5.458,14.198-7.335c4.543-1.683,9.024-3.702,12.812-6.884c3.204-2.691,5.267-6.243,6.838-10.004
	c1.658-3.97,2.918-8.104,4.296-12.186c0.266-0.787,0.273-1.66,0.428-2.667c-0.809,0-1.333-0.014-1.854,0.003
	c-1.514,0.051-3.043,0.3-4.529,0.135c-3.893-0.433-6.313-3.179-6.44-7.08c-0.028-0.939-0.004-1.885-0.004-3.153
	c8.97,0.678,17.622,1.835,26.516,3.146C513.77,517.573,504.871,539.936,495.979,562.294z"/>
<path fill="#FFFFFF" d="M468.447,326.926c-0.452-0.254-0.876-0.604-1.358-0.749c-2.655-0.795-5.29-0.95-8.009-0.069
	c-2.42,0.784-4.904,1.561-7.416,1.812c-2.172,0.217-4.475-0.066-6.618-0.562c-3.541-0.818-5.021-3.584-4.649-7.31
	c0.204-2.045,0.998-3.935,2.407-5.39c5.467-5.648,11.613-10.255,19.49-12.001c1.084-0.24,2.211-0.385,3.317-0.395
	c6.452-0.052,12.934-0.46,19.352,0.271c5.731,0.654,11.26,2.319,16.471,4.887c2.416,1.19,4.358,2.996,5.995,5.071
	c1.373,1.741,2.521,3.666,3.708,5.546c0.639,1.012,1.14,2.036,2.36,2.593c0.636,0.289,1.116,1.095,1.479,1.768
	c2.367,4.381,3.574,9.018,3.07,14.047c-0.344,3.408-0.242,6.893-0.929,10.223c-0.635,3.09-2.025,6.027-3.138,9.013
	c-0.205,0.551-0.51,1.305-1.409,0.668c-0.061-0.043-0.505,0.318-0.65,0.562c-0.661,1.099-0.808,2.264-0.179,3.421
	c0.572,1.051,1.145,2.114,1.839,3.083c1.546,2.155,1.669,4.512,1.253,6.99c-0.383-3.204-2.146-5.479-4.806-7.377
	c-0.792,0.867-1.469,1.848-2.367,2.545c-2.896,2.252-5.893,4.38-8.819,6.593c-2.932,2.213-5.881,4.405-8.713,6.739
	c-1.249,1.03-2.399,1.261-3.953,0.886c-3.021-0.729-6.082-1.325-9.153-1.811c-1.4-0.222-2.864-0.049-4.299-0.054
	c-0.606-0.002-1.212,0-2.045,0c0.215-0.682,0.284-1.154,0.499-1.546c2.268-4.138,3.137-8.415,1.918-13.116
	c-1.313-5.06-3.767-9.436-7.189-13.315c-0.418-0.474-0.939-0.867-1.457-1.242c-1.444-1.049-1.914-0.937-3.459-0.094
	c-4.256,2.323-7.448,5.698-10.02,9.735c-0.17,0.267-0.364,0.526-0.585,0.752c-0.093,0.095-0.284,0.095-0.653,0.204
	c0.098-0.501,0.104-0.934,0.27-1.292c0.505-1.085,1.081-2.136,1.611-3.209c1.943-3.929,1.828-7.722-0.962-11.207
	c-2.64-3.297-2.313-9.41,0.406-12.496c0.465-0.527,0.987-1.133,1.609-1.371c3.283-1.254,6.57-2.453,10.229-2.051
	c1.777,0.195,3.6-0.019,5.402-0.047C468.348,327.398,468.397,327.162,468.447,326.926z"/>
<path fill="#FFFFFF" d="M375.889,487.068c0.211,4.987,0.862,9.376,4.408,13.223c-2.111-0.943-2.92-1.775-4.662-3.828
	c-1.142-1.343-1.649-3.252-3.743-4.29c0.129,0.759,0.078,1.253,0.289,1.575c1.786,2.73,3.438,5.584,5.515,8.082
	c1.113,1.34,2.925,2.147,4.518,3.027c1.565,0.863,3.213,0.685,4.845-0.063c1.443-0.66,2.946-1.188,4.612-1.853
	c0.768,2.035,1.481,3.937,2.249,5.969c1.725-0.674,3.146-1.463,4.663-1.778c4.143-0.861,8.312-1.615,12.493-2.232
	c3.317-0.49,6.695-0.578,10.007-1.098c4.346-0.68,8.678-1.533,12.139-4.612c0.222-0.196,0.561-0.264,0.792-0.365
	c1.129,0.417,1.305,1.341,1.188,2.193c-0.396,2.938,0.576,5.696,0.974,8.529c0.165,1.183,0.412,2.361,0.455,3.548
	c0.129,3.666,0.933,7.104,3.037,10.176c1.399,2.045,2.756,4.118,4.095,6.201c0.373,0.582,0.618,1.246,0.991,2.02
	c-0.691,0.271-1.173,0.559-1.685,0.643c-7.04,1.154-14.137,1.903-21.225,0.852c-7.495-1.114-14.931-2.647-22.175-3.958
	c0.755,1.527,0.742,1.567,2.277,1.989c4.313,1.187,8.637,2.332,12.954,3.498c0.841,0.229,1.678,0.474,3.12,0.879
	c-1.087,0.396-1.665,0.739-2.274,0.811c-12.015,1.382-24.047,2.229-36.082,0.373c-3.223-0.498-6.369-1.471-9.555-2.225
	c-0.695-0.162-1.414-0.257-2.086-0.485c-1.572-0.541-3.152-1.077-4.677-1.738c-2.854-1.238-5.8-2.342-8.477-3.899
	c-4.688-2.729-8.865-6.118-10.511-11.606c-1.615-5.394-1.717-10.712,1.646-15.617c0.991-1.448,1.976-2.906,3.023-4.313
	c1.684-2.257,3.957-3.22,6.772-3.479c3.412-0.313,6.854-0.789,10.156-1.665c2.663-0.706,5.147-2.099,7.699-3.214
	C374.228,488.082,374.741,487.723,375.889,487.068z"/>
<path fill="#FFFFFF" d="M529.045,491.716c-9.315,26.249-16.73,52.777-26.586,78.54c-6.282-0.77-12.301-1.551-18.327-2.229
	c-4.846-0.545-9.699-0.989-14.556-1.438c-6.128-0.566-12.259-1.118-18.392-1.635c-3.74-0.314-7.489-0.524-11.231-0.826
	c-12.508-1.008-25.018-1.993-37.519-3.08c-4.374-0.38-8.718-1.1-13.088-1.543c-8.666-0.88-17.343-1.651-26.01-2.516
	c-6.843-0.684-13.675-1.455-20.515-2.149c-13.674-1.388-27.349-2.766-41.025-4.108c-3.26-0.32-6.532-0.488-9.796-0.745
	c-0.38-0.029-0.751-0.179-1.536-0.37c0.531-0.796,0.873-1.461,1.353-2.003c2.912-3.289,5.8-6.603,8.798-9.811
	c6.872-7.353,13.743-14.706,20.729-21.951c5.877-6.097,11.919-12.032,17.874-18.056c1.868-1.888,3.921-3.26,7.035-2.704
	c-0.701,0.705-1.316,1.275-1.879,1.896c-5.724,6.349-11.521,12.632-17.131,19.082c-4.662,5.361-9.127,10.897-13.62,16.405
	c-3.121,3.829-6.146,7.74-9.375,11.819c0.683,1.072,2.061,1.166,3.354,1.307c5.801,0.627,11.611,1.166,17.409,1.817
	c6.036,0.678,12.06,1.475,18.094,2.17c5.394,0.621,10.792,1.207,16.193,1.752c8.506,0.857,17.019,1.65,25.523,2.501
	c12.724,1.271,25.442,2.561,38.161,3.862c5.087,0.521,10.16,1.188,15.253,1.636c5.011,0.441,10.04,0.671,15.06,1.029
	c2.631,0.188,5.253,0.489,7.884,0.674c5.101,0.356,10.214,0.573,15.306,1.029c4.213,0.378,8.399,1.047,12.604,1.525
	c2.599,0.297,5.209,0.481,7.912,0.728c2.081-2.655,2.956-5.933,4.146-9.039c3.111-8.138,5.992-16.362,9.224-24.448
	c2.429-6.075,5.354-11.948,7.875-17.988c1.998-4.786,3.773-9.669,5.547-14.545c1.311-3.601,0.442-4.973-3.475-5.448
	c-7.139-0.864-14.291-1.619-21.438-2.422c-0.479-0.054-0.954-0.149-1.433-0.148c-1.489,0.004-1.873-0.854-1.836-2.376
	c1.256,0,2.438-0.129,3.585,0.021c6.333,0.835,12.651,1.779,18.985,2.601c3.006,0.388,6.037,0.575,9.056,0.868
	C527.702,491.443,528.157,491.557,529.045,491.716z"/>
<path fill="#FFFFFF" d="M465.095,353.917c0.526,0.426,1.23,0.748,1.557,1.294c2.104,3.545,3.611,7.341,3.876,11.48
	c0.168,2.628-0.215,5.255-1.121,7.768c-0.299,0.828-0.653,1.64-0.88,2.487c-0.455,1.712,0.436,3.059,2.196,3.229
	c1.429,0.139,2.881,0.024,4.311,0.158c2.537,0.238,5.067,0.562,7.595,0.901c0.321,0.043,0.604,0.395,0.896,0.846
	c-5.112,0.534-10.11,1.381-14.849,3.283c-4.679,1.877-9.131,4.191-13.112,7.448c-1.902-1.74-3.641-3.331-5.506-5.037
	c1.038-0.758,1.999-1.459,2.959-2.161c-0.093-0.182-0.188-0.363-0.278-0.544c-1.518,0.365-3.063,0.64-4.546,1.112
	c-4.566,1.455-8.459,0.57-11.718-3.046c-4.182-4.639-5.616-10.187-5.068-16.208c0.181-1.966,1.344-3.896,2.294-5.717
	c0.515-0.981,1.343-1.768,1.262-3.002c-0.021-0.291,0.087-0.785,0.271-0.865c1.796-0.772,1.214-2.336,1.291-3.68
	c0.062-1.048-0.183-2.288,2.006-1.95c-0.055-0.229-0.106-0.459-0.163-0.689c-0.746-0.405-1.49-0.81-2.236-1.214
	c0.118-0.159,0.236-0.319,0.354-0.478c0.521-0.028,1.036-0.056,1.897-0.102c-0.556-1.586-1.063-3.042-1.702-4.881
	c0.966,0.392,1.434,0.581,2.253,0.913c-0.18-1.548-0.225-2.813-0.494-4.028c-0.349-1.569-0.163-2.878,0.839-4.227
	c1.271-1.712,2.32-3.597,3.398-5.445c0.63-1.079,1.516-1.283,2.644-1.117c1.02,0.15,2.047,0.22,3.28,0.347
	c-0.539,1.447-1.07,2.741-1.505,4.067c-1.202,3.668-0.813,7.122,1.678,10.159c1.613,1.968,2.102,4.01,1.161,6.44
	c-1.111,2.88-2.084,5.813-3.199,8.958c0.69,0.472,1.591,1.086,2.494,1.703c2.422-0.813,2.942-3.784,5.373-4.69
	c0.15,1.126,0.357,2.112,0.396,3.105c0.036,0.98-0.353,1.604-1.54,1.609c-1.572,0.007-1.552,0.087-1.307,1.579
	c0.069,0.419,0.146,1.045-0.083,1.27c-0.982,0.968-0.682,1.96-0.048,2.814c0.857,1.155,2.143,1.666,3.582,1.503
	c0.615-0.07,1.27-0.314,1.785-0.66c4.686-3.14,7.715-7.319,8.009-13.138c0.027-0.546-0.161-1.103-0.25-1.655L465.095,353.917z"/>
<path fill="#FFFFFF" d="M356.507,487.754c-1.034-0.521-1.701-1.085-2.437-1.189c-3.371-0.486-5.399-3.144-8.007-4.847
	c-1.219-0.797-1.604-2.107-0.909-3.585c0.331-0.702,0.514-1.475,0.813-2.366c0.982,0.236,1.807,0.437,2.745,0.66
	c0,0.534,0.006,0.915-0.001,1.296c-0.017,0.847-0.393,2.067,0.021,2.455c0.822,0.773,2.132,1.604,3.14,1.491
	c2.345-0.257,4.706-0.855,6.896-1.734c0.911-0.364,1.395-1.8,2.114-2.807c-1.347-1.339-2.896-1.601-4.496-1.693
	c-1.836-0.104-3.682-0.108-5.508-0.284c-1.571-0.152-3.192-0.354-4.178-2.232c0.626-0.176,1.11-0.325,1.604-0.445
	c1.934-0.475,3.871-0.936,5.805-1.411c1.079-0.266,2.143-0.604,3.23-0.817c4.722-0.922,8.47,1.064,11.643,4.242
	c1.796,1.797,3.232,3.949,4.827,5.945c0.147,0.188,0.284,0.389,0.401,0.598c1.688,3.012,1.338,4.188-1.57,5.998
	c-4.388,2.729-9.314,3.727-14.291,4.563c-3.685,0.62-7.377,1.171-11.071,1.72c-3.623,0.539-7.246,1.081-10.881,1.521
	c-1.022,0.124-2.498,0.606-2.848-0.902c-0.308-1.323,1.159-1.489,1.999-2.009c2.793-1.725,6.044-1.988,9.112-2.812
	c1.921-0.518,3.892-0.884,5.858-1.176c0.726-0.106,1.531,0.112,2.264,0.317C353.953,488.578,355.086,488.894,356.507,487.754z"/>
<path fill="#FFFFFF" d="M407.803,445.609c-2.625,0.224-5.081,1.919-7.732,0.698c-0.432-0.196-0.709-0.729-1.254-1.32
	c0.821-0.348,1.369-0.6,1.935-0.811c2.311-0.863,4.74-1.497,6.904-2.638c2.154-1.135,3.902-0.633,5.492,0.688
	c2.465,2.051,4.723,4.325,5.683,7.547c0.113,0.38,0.296,0.742,0.476,1.101c0.935,1.846,0.644,3.315-1.16,4.362
	c-1.577,0.916-3.276,1.646-4.979,2.309c-3.347,1.299-6.721,2.53-10.11,3.707c-0.944,0.328-1.989,0.52-2.986,0.513
	c-3.115-0.018-6.229-0.154-9.343-0.252c-1.204-0.037-2.474-0.002-3.332-1.01c-0.361-0.424-0.636-1.123-0.563-1.643
	c0.043-0.31,0.83-0.701,1.303-0.727c1.992-0.101,3.992-0.034,5.984-0.117c0.991-0.04,1.977-0.271,2.964-0.418
	c0.008-0.216,0.016-0.431,0.021-0.646c-0.523-0.104-1.048-0.289-1.574-0.295c-2.871-0.035-5.745,0.038-8.611-0.066
	c-1.006-0.037-2.025-0.396-2.978-0.77c-0.42-0.166-0.682-0.734-1.201-1.337c0.712-0.232,1.137-0.499,1.55-0.483
	c2.713,0.098,5.426,0.222,8.134,0.41c1.285,0.089,2.53,0.195,4.139-0.938c-1.101-0.146-1.738-0.245-2.379-0.313
	c-3.57-0.369-7.144-0.724-10.711-1.104c-0.554-0.06-1.176-0.101-1.617-0.382c-0.392-0.25-0.819-0.846-0.782-1.247
	c0.036-0.392,0.584-0.866,1.018-1.05c0.396-0.169,0.938,0.021,1.417,0.022c1.756,0.008,3.527,0.161,5.263-0.036
	c2.396-0.273,4.567,0.551,6.823,0.999c0.899,0.179,1.824,0.246,2.757,0.367c0.111-2.005,0.282-2.227,1.813-2.203
	c1.073,0.016,2.146,0.156,3.163,0.236c-0.922,1.886-1.841,3.538-2.555,5.277c-0.763,1.859-0.563,3.784,0.249,5.594
	c0.172,0.383,0.829,0.828,1.201,0.778c0.77-0.103,0.603-0.781,0.402-1.331c-0.92-2.541-0.732-5.02,0.452-7.425
	c0.197-0.398,0.559-0.716,1.034-1.313c0.273,0.744,0.493,1.219,0.622,1.714c0.971,3.735,4.345,5.319,7.813,3.639
	c0.181-0.088,0.279-0.343,0.587-0.733c-0.614-0.06-1.031-0.122-1.451-0.139c-3.584-0.136-5.445-2.772-4.41-6.261
	c0.246-0.826,0.498-1.65,0.737-2.479C408.02,446.033,407.947,445.949,407.803,445.609z"/>
<path fill="#FFFFFF" d="M459.855,353.582c2.453-0.165,3.85,1.079,3.434,3.213c-0.741,3.811-2.074,7.388-5.631,9.602
	c-1.211,0.754-2.479,1.205-3.8,0.351c-0.336-0.216-0.464-0.753-0.688-1.144c0.438-0.219,0.888-0.647,1.311-0.621
	c2.45,0.152,4.34-0.533,5.215-3.045c0.156-0.449,0.386-0.88,0.637-1.286c1.151-1.862,1.401-3.688-0.032-5.551
	C460.035,354.761,460.031,354.224,459.855,353.582z"/>
<path fill="#FFFFFF" d="M358.375,479.261c-1.7,0.453-3.327,1.088-5.009,1.285c-2.147,0.252-3.165-1.144-2.737-3.598
	c1.973-0.374,4.006-0.311,6.028-0.003C357.605,477.088,358.189,477.726,358.375,479.261z"/>
<path fill="#FFFFFF" d="M334.212,490.804c-0.485-1.546,0.425-1.911,1.239-2.138c3.133-0.869,6.281-1.668,9.435-2.464
	c0.764-0.193,1.552-0.344,2.336-0.385c0.46-0.023,0.934,0.206,1.398,0.319c0.001,0.18,0.002,0.356,0.004,0.534
	C343.863,488.037,339.101,489.402,334.212,490.804z"/>
<path fill="#FFFFFF" d="M421.698,471.143c-0.028-0.653-0.269-1.388-0.058-1.95c1.359-3.64,0.74-7.003-1.177-10.245
	c-0.102-0.169-0.05-0.426-0.093-0.912c1.922,0.577,2.893,1.863,3.378,3.463c1.046,3.437,0.419,6.667-1.297,9.699
	C422.202,471.178,421.95,471.16,421.698,471.143z"/>
<path fill="#FFFFFF" d="M458.405,356.062c1.859,1.604,1.869,1.608,1.024,3.413c-0.438,0.93-0.929,1.834-1.365,2.764
	c-0.42,0.894-1.073,1.267-2.321,1.125c1.076-1.484,1.422-2.837,0.876-4.51C456.229,357.658,456.986,356.582,458.405,356.062z"/>
<path fill="#FFFFFF" d="M336.479,486.817c0.114-1.601,0.929-2.275,2.055-2.534c2.137-0.493,4.276-1.375,6.471-0.587
	c0.029,0.204,0.063,0.405,0.094,0.609C342.286,485.126,339.479,485.944,336.479,486.817z"/>
<path fill="#FFFFFF" d="M396.921,444.883c0.047,0.878,0.083,1.563,0.137,2.577c-1.256-0.073-2.348-0.036-3.396-0.23
	c-0.775-0.145-1.277-0.855-0.956-1.618c0.19-0.45,0.857-0.914,1.356-0.973C394.9,444.542,395.775,444.765,396.921,444.883z"/>
<path fill="#FFFFFF" d="M429.02,363.181c-0.475-2.697,2.006-3.498,3.76-4.778c-1.003,1.734-2.005,3.469-3.007,5.204
	C429.521,363.465,429.271,363.323,429.02,363.181z"/>
<path fill="#FFFFFF" d="M397.349,463.643c-2.02,0.735-3.572,1.304-5.275,1.925C392.38,462.905,393.32,462.556,397.349,463.643z"/>
<path fill="#FFFFFF" d="M465.147,353.858c-0.674-0.637-1.348-1.274-2.021-1.912c1.587,0.471,1.587,0.471,1.973,1.966
	C465.095,353.917,465.147,353.858,465.147,353.858z"/>
<path fill="#FFFFFF" d="M154.145,513.821c1.368-2.003,2.569-3.764,3.771-5.521c-0.143-0.102-0.281-0.202-0.422-0.303
	c-0.351,0.501-0.69,1.006-1.05,1.5c-0.375,0.519-0.801,1.003-1.145,1.54c-1.233,1.932-2.726,2.604-5.197,2.229
	c-6.972-1.05-13.449-3.432-19.721-6.495c-2.363-1.154-4.72-2.346-6.972-3.695c-1.95-1.17-1.885-1.281-1.019-3.414
	c0.563-1.383,0.526-2.264-0.757-3.168c-1.408-0.992-3.019-1.772-4.646-2.356c-1.719-0.618-3.564-0.873-5.345-1.33
	c-4.559-1.169-8.633-3.325-12.352-6.176c-0.63-0.48-1.166-1.09-1.739-1.645c-1.427-1.381-1.713-2.871-1.345-4.938
	c1.513-8.494,2.691-17.047,4.104-25.56c0.457-2.751,1.24-5.448,1.9-8.164c0.131-0.539,0.354-1.063,0.582-1.57
	c0.478-1.08,1.245-1.369,2.325-0.825c1.712,0.86,3.422,1.729,5.158,2.539c7.817,3.645,15.588,7.4,23.49,10.85
	c4.976,2.169,10.16,3.85,15.24,5.775c1.494,0.566,2.932,1.284,4.432,1.831c4.946,1.801,9.939,3.479,14.854,5.358
	c2.603,0.995,5.07,2.341,7.622,3.476c4.013,1.784,8.084,3.44,12.059,5.304c5.643,2.644,11.211,5.432,16.825,8.132
	c0.709,0.341,1.525,0.458,2.242,0.788c2.535,1.166,5.095,2.29,7.555,3.599c2.653,1.411,5.154,1.81,7.917,0.181
	c6.672-3.935,13.717-7.196,20.189-11.513c4.45-2.966,9.18-5.514,13.778-8.256c3.567-2.127,7.118-4.28,10.691-6.397
	c9.001-5.335,18.063-10.571,27-16.015c6-3.653,11.799-7.638,17.748-11.38c3.647-2.296,7.458-4.34,11.113-6.627
	c10.63-6.646,21.359-13.146,31.367-20.732c0.479-0.362,1.041-0.614,1.853-1.087c0.858,2.316,1.635,4.38,2.393,6.447
	c2.337,6.372,4.651,12.753,7.01,19.118c0.816,2.204,0.884,2.213-1.082,3.681c-2.799,2.089-5.023,4.602-6.488,7.825
	c-1.123,2.471-2.471,4.843-3.771,7.229c-3.506,6.432-9.167,10.337-15.71,13.096c-2.039,0.857-4.281,1.234-6.431,1.834
	c-0.23,0.063-0.479,0.09-0.693,0.187c-6.619,2.973-13.557,5.283-19.759,9.121c-3.554,2.198-6.866,4.795-8.357,8.947
	c-0.587,1.636-0.97,3.366-1.25,5.085c-0.25,1.541-0.659,2.931-1.731,4.111c-2.055,2.264-4.283,4.171-7.171,5.433
	c-5.414,2.365-10.761,4.909-15.995,7.646c-2.958,1.55-5.689,3.557-8.407,5.519c-0.93,0.672-1.681,1.748-2.205,2.795
	c-1.665,3.325-4.362,4.979-7.968,5.332c-9.689,0.95-18.333,4.779-26.567,9.705c-4.525,2.708-9.048,5.427-13.521,8.219
	c-2.103,1.313-4.299,1.578-6.662,1.127c-6.881-1.313-13.074-4.127-18.541-8.517c-1.723-1.385-3.604-2.337-5.865-2.438
	c-4.735-0.207-9.333-1.031-13.814-2.685c-4.199-1.549-7.98-3.671-11.141-6.836c-0.721-0.724-1.462-1.565-1.802-2.496
	c-0.813-2.231-2.454-3.475-4.489-4.383C155.59,514.569,154.965,514.229,154.145,513.821z M215.972,497.896
	c1.187,1.221,1.05,2.279,0.835,3.272c-0.796,3.668-1.575,7.343-2.517,10.975c-1.465,5.648-3.069,11.263-4.59,16.896
	c-0.45,1.666-0.457,2.327-0.176,3.811c0.83-2.521,1.647-4.767,2.306-7.055c1.167-4.072,2.229-8.174,3.352-12.259
	c0.593-2.158,1.298-4.29,1.813-6.467c0.529-2.253,0.986-4.533,1.295-6.826c0.245-1.83,0.142-3.666-1.77-4.729
	c-3.833,2.701-11.669,15.349-11.726,19.303C208.074,508.642,211.615,503.138,215.972,497.896z M256.317,477.3
	c2.556,4.219,4.913,8.114,7.271,12.011c-0.164-1.229-0.773-2.271-1.026-3.396c-0.643-2.863-2.014-5.388-3.556-7.805
	c-0.813-1.274-1.586-2.821-3.481-3.053c-1.5,1.603-2.035,3.483-1.945,5.526c0.169,3.907,0.45,7.811,0.647,11.717
	c0.232,4.615,0.422,9.233,0.637,13.852c0.02,0.374,0.09,0.744,0.136,1.117c0.594-3.113,0.691-6.198,0.919-9.273
	c0.396-5.419,0.616-10.809-0.571-16.188C255.061,480.518,254.901,478.958,256.317,477.3z M323.275,467.566
	c10.058-4.326,19.114-23.854,15.835-39.626c-0.281,1.454-0.565,2.938-0.503,4.4c0.323,7.438-1.535,14.412-4.348,21.191
	c-2.115,5.101-5.107,9.562-9.613,12.89C324.169,466.776,323.731,467.185,323.275,467.566z M295.514,490.318
	c0.206-0.413,0.358-0.602,0.396-0.808c0.896-5.272,1.55-10.563,0.786-15.919c-0.225-1.578-0.563-3.139-0.826-4.711
	c-0.774-4.604-0.919-9.206,0.265-13.77c0.206-0.792,0.638-1.525,0.979-2.321c1.062,0.492,1.838,0.854,2.617,1.215
	c-0.045-0.535-0.222-0.799-0.458-0.988c-1.836-1.472-2.464-1.419-3.443,0.645c-0.643,1.347-1.282,2.843-1.33,4.291
	c-0.11,3.334-0.248,6.749,0.331,10.005c1.086,6.117,1.239,12.203,0.7,18.354C295.42,487.554,295.514,488.815,295.514,490.318z
	 M122.598,487.45c0.125,0.16,0.249,0.317,0.373,0.479c2.774-0.417,4.724-1.954,5.909-4.512c1.987-4.29,3.623-8.701,3.848-13.473
	c0.073-1.534,0.52-3.232-0.816-5.088c-0.429,2.784-0.75,5.133-1.153,7.466c-0.608,3.517-0.924,7.151-3.205,10.119
	c-0.914,1.188-2.053,2.204-3.111,3.276C123.85,486.32,123.214,486.875,122.598,487.45z M187.765,505.89
	c0.648-1.269,1.43-2.486,1.907-3.815c0.478-1.334,0.662-2.774,0.955-4.172c0.311-1.484,0.501-3.002,0.936-4.448
	c0.23-0.768,0.864-1.411,1.316-2.111c0.604,0.444,1.208,0.896,1.825,1.327c0.103,0.071,0.271,0.051,0.611,0.105
	c-0.396-1.379-0.27-2.876-2.102-3.746C189.603,494.117,189.185,500.208,187.765,505.89z M170.375,478.934
	c-0.109,0.11-0.271,0.202-0.316,0.334c-0.076,0.219-0.195,0.558-0.094,0.681c1.599,1.957,0.658,4.068,0.421,6.14
	c-0.086,0.749-0.155,1.5-0.261,2.527C174.145,484.706,174.139,480.747,170.375,478.934z M125.981,461.992
	c-0.633,1.175-1.26,2.352-1.898,3.521c-0.598,1.092-1.206,2.172-1.811,3.26C124.795,466.854,126.528,463.771,125.981,461.992z
	 M344.146,428.162c0.159-0.151,0.318-0.303,0.478-0.453c-0.881-0.954-1.762-1.908-2.642-2.862c-0.108,0.102-0.217,0.2-0.325,0.302
	C342.486,426.152,343.315,427.157,344.146,428.162z M255.084,509.862c-0.135-0.02-0.271-0.034-0.406-0.054
	c-0.174,1.281-0.348,2.563-0.522,3.845c0.153,0.02,0.309,0.039,0.463,0.059C254.773,512.429,254.929,511.146,255.084,509.862z"/>
<path fill="#FFFFFF" d="M354.925,407.98c-1.528,1.25-2.986,2.602-4.601,3.729c-4.253,2.979-8.475,6.024-12.893,8.746
	c-5.369,3.308-10.973,6.233-16.387,9.47c-3.631,2.169-7.069,4.648-10.657,6.89c-5.624,3.51-11.298,6.938-16.955,10.395
	c-2.521,1.54-5.039,3.089-7.585,4.589c-5.365,3.159-10.766,6.26-16.12,9.439c-5.429,3.224-10.802,6.543-16.23,9.764
	c-5.152,3.056-10.354,6.027-15.521,9.056c-5.438,3.188-10.875,6.386-16.291,9.612c-1.712,1.021-3.343,1.196-5.213,0.32
	c-6.291-2.949-12.605-5.851-18.955-8.673c-5.981-2.663-12.063-5.109-18.02-7.832c-5.807-2.653-11.491-5.564-17.263-8.297
	c-1.49-0.706-3.134-1.091-4.649-1.749c-8.872-3.861-17.833-7.469-27.029-10.518c-4.15-1.375-8.076-3.434-12.086-5.22
	c-3.647-1.624-7.274-3.294-10.906-4.953c-0.624-0.285-1.227-0.613-2.28-1.144c0.948-0.592,1.476-1.021,2.075-1.275
	c4.268-1.806,8.564-3.535,12.818-5.368c6.386-2.752,12.745-5.566,19.114-8.354c4.391-1.925,8.771-3.864,13.178-5.753
	c0.994-0.426,2.069-0.664,3.321-1.059c0.234,2.521-1.184,4.185-1.858,6.063c-0.674,1.868-1.438,3.706-2.206,5.657
	c1.225,1.156,2.356,2.27,3.534,3.329c0.866,0.78,1.806,0.469,2.675-0.011c1.683-0.925,3.323-1.921,5.006-2.842
	c3.714-2.03,7.371-4.189,11.201-5.979c1.696-0.791,2.483-1.717,2.604-3.506c0.121-1.81,0.914-3.382,2.18-4.694
	c2.307-2.392,6.353-2.224,8.29,0.402c0.354,0.479,0.46,1.182,0.567,1.801c0.867,5.035,1.702,10.076,2.563,15.113
	c0.417,2.44,0.896,4.87,1.291,7.313c0.177,1.094,0.31,2.209,0.302,3.313c-0.013,1.665,0.559,2.953,2.026,3.781
	c1.042,0.588,2.068,1.227,3.168,1.682c0.521,0.215,1.268,0.236,1.79,0.032c2.453-0.961,4.881-1.989,7.286-3.067
	c7.727-3.465,15.419-7.009,23.167-10.428c3.724-1.643,7.602-2.938,11.304-4.624c8.87-4.037,17.681-8.204,26.508-12.334
	c3.187-1.49,6.35-3.027,9.523-4.539c0.433-0.205,0.866-0.504,1.321-0.554c4.573-0.505,8.312-3.14,12.428-4.808
	c1.82-0.738,2.304-2.146,2.26-3.815c-0.053-1.987-0.313-3.972-0.484-5.957c-0.063-0.765-0.12-1.526-0.194-2.459
	c21,3.556,42.021,4.888,62.721,8.533C354.815,407.463,354.868,407.723,354.925,407.98z"/>
<path fill="#FFFFFF" d="M158.232,431.559c0.257-1.219,0.338-2.14,0.646-2.978c1.594-4.347,3.2-8.69,4.888-13.001
	c2.063-5.268,4.258-10.482,6.306-15.756c1.528-3.934,2.875-7.938,4.374-11.883c1.05-2.759,2.209-5.476,3.342-8.203
	c0.112-0.274,0.374-0.488,0.605-0.781c1.354,0.439,1.188,1.583,1.367,2.541c0.619,3.29,1.156,6.598,1.88,9.865
	c1.413,6.38,2.946,12.733,4.385,19.107c0.219,0.964,0.194,1.979,0.283,2.99c-0.508,0.094-0.759,0.224-0.952,0.163
	c-3.243-0.999-5.652,0.345-7.47,2.861c-0.967,1.342-1.854,2.877-2.25,4.459c-0.563,2.234-2.031,3.462-3.906,4.199
	c-4.095,1.617-8.115,3.344-11.769,5.836C159.599,431.227,159.102,431.276,158.232,431.559z"/>
<path fill="#FFFFFF" d="M196.887,448.355c-2.5-0.456-3.287-1.874-3.729-3.55c-0.39-1.467-0.729-2.954-0.971-4.45
	c-1.351-8.439-2.594-16.896-4.015-25.323c-1.01-5.988-2.244-11.938-3.376-17.905c-1.415-7.461-2.879-14.913-4.229-22.386
	c-1.573-8.729-3.058-17.474-4.56-26.215c-1.069-6.22-2.047-12.457-3.176-18.666c-0.886-4.871-1.941-9.71-2.915-14.565
	c-0.218-1.088-0.578-2.171,0.445-3.126c1.046-0.976,1.871-0.827,2.227,0.593c0.444,1.783,0.803,3.59,1.128,5.399
	c0.977,5.427,1.936,10.858,2.871,16.292c0.799,4.646,1.493,9.312,2.347,13.948c0.968,5.255,2.093,10.481,3.095,15.731
	c1.842,9.655,3.646,19.317,5.453,28.979c0.384,2.042,0.726,4.093,1.065,6.143c1.589,9.535,3.114,19.082,4.776,28.604
	c0.988,5.668,2.21,11.296,3.278,16.948C196.807,445.864,196.784,446.962,196.887,448.355z"/>
<path fill="#FFFFFF" d="M174.639,380.412c1.015,0.879,0.538,1.561,0.305,2.197c-2.038,5.545-4.059,11.096-6.149,16.62
	c-3.678,9.717-7.403,19.416-11.109,29.12c-0.285,0.747-0.565,1.495-0.868,2.236c-0.275,0.684-0.586,1.431-1.524,1.132
	c-0.935-0.298-1.524-0.968-1.232-2.009c0.323-1.152,0.72-2.288,1.169-3.397c4.494-11.108,8.979-22.226,13.526-33.313
	c1.605-3.917,3.383-7.765,5.104-11.633C174.001,381.039,174.32,380.792,174.639,380.412z"/>
<path fill="#FFFFFF" d="M177.711,372.932c1.063,1.686,0.432,2.97-1.874,3.891C176.001,375.291,176.321,374.007,177.711,372.932z"/>
<path d="M416.096,464.688c0.93,3.632,0.933,7.175-0.686,10.565c-1.385,2.904-3.534,5.063-6.23,6.756
	c-2.638,1.658-5.264,3.183-8.438,3.791c-2.521,0.486-4.903,0.49-7.306-0.242c-3.733-1.139-7.097-2.888-9.48-6.13
	c-0.233-0.319-0.462-0.649-0.659-0.996c-0.115-0.195-0.166-0.433-0.284-0.757c0.833-0.333,1.198,0.256,1.566,0.702
	c4.269,5.127,9.811,5.816,15.844,4.396c2.394-0.564,4.738-1.436,7.008-2.399c5.54-2.358,8.48-6.537,8.467-12.664
	C415.895,466.701,416.026,465.694,416.096,464.688z"/>
<path d="M426.392,455.293c1.48-0.124,2.969-0.211,4.445-0.381c2.154-0.248,3.852-1.415,5.444-2.799
	c7.146-6.194,12.604-13.526,15.463-22.646c0.245-0.782,0.677-1.505,1.219-2.688c1.037,2.127,0.865,3.719,0.303,5.315
	c-2.439,6.896-6.053,13.041-11.713,17.796c-1.945,1.636-4.063,3.076-6.181,4.487c-2.122,1.417-4.655,1.612-7.095,1.965
	c-0.655,0.096-1.395-0.386-2.096-0.602C426.253,455.594,426.322,455.443,426.392,455.293z"/>
<path d="M448.621,515.397c0.188,0.631,0.354,1.036,0.426,1.461c0.784,4.673,3.267,6.595,7.926,7.313
	c4.306,0.663,8.604,0.293,12.861-0.604c0.585-0.123,1.184-0.188,1.804-0.137c-1.984,1.108-4.146,1.568-6.36,1.777
	c-3.337,0.314-6.67,0.678-10.007-0.136c-3.892-0.949-6.263-3.318-7.081-7.239C448.015,516.997,448.015,516.997,448.621,515.397z"/>
<path d="M484.803,514.688c1.677-1.826,3.602-3.487,4.958-5.525c1.318-1.984,2.058-4.355,3.06-6.575
	c0.624,6.081-3.137,9.484-7.375,12.599C485.231,515.021,485.018,514.854,484.803,514.688z"/>
<path d="M215.972,497.896c-4.355,5.241-7.896,10.745-11.179,16.918c0.057-3.953,7.893-16.601,11.726-19.302
	c1.91,1.063,2.015,2.899,1.77,4.729c-0.309,2.293-0.766,4.572-1.295,6.826c-0.515,2.177-1.22,4.309-1.813,6.467
	c-1.123,4.085-2.185,8.187-3.352,12.259c-0.657,2.288-1.476,4.531-2.306,7.055c-0.28-1.481-0.273-2.145,0.176-3.811
	c1.521-5.634,3.125-11.246,4.59-16.896c0.94-3.632,1.721-7.307,2.517-10.975C217.022,500.176,217.156,499.115,215.972,497.896z"/>
<path d="M256.317,477.3c-1.416,1.658-1.256,3.218-0.971,4.508c1.188,5.378,0.97,10.769,0.571,16.188
	c-0.228,3.075-0.326,6.16-0.919,9.273c-0.046-0.373-0.117-0.743-0.136-1.117c-0.215-4.616-0.402-9.234-0.637-13.852
	c-0.197-3.906-0.479-7.81-0.647-11.717c-0.09-2.043,0.445-3.926,1.945-5.526c1.896,0.229,2.667,1.776,3.481,3.053
	c1.542,2.417,2.913,4.939,3.556,7.805c0.252,1.125,0.862,2.169,1.026,3.396C261.229,485.414,258.871,481.519,256.317,477.3z"/>
<path d="M323.275,467.566c0.456-0.384,0.896-0.79,1.371-1.145c4.506-3.328,7.498-7.789,9.613-12.89
	c2.813-6.779,4.671-13.754,4.348-21.191c-0.063-1.465,0.222-2.946,0.503-4.4C342.39,443.713,333.331,463.24,323.275,467.566z"/>
<path d="M295.514,490.318c0-1.503-0.093-2.767,0.016-4.01c0.54-6.148,0.387-12.234-0.7-18.354
	c-0.579-3.256-0.441-6.671-0.331-10.005c0.048-1.448,0.688-2.944,1.33-4.291c0.979-2.063,1.607-2.114,3.443-0.645
	c0.236,0.189,0.413,0.453,0.458,0.988c-0.779-0.361-1.557-0.723-2.617-1.215c-0.343,0.796-0.773,1.529-0.979,2.321
	c-1.184,4.563-1.039,9.163-0.265,13.77c0.265,1.572,0.603,3.133,0.826,4.711c0.764,5.354,0.108,10.646-0.786,15.919
	C295.872,489.719,295.72,489.905,295.514,490.318z"/>
<path d="M122.598,487.45c0.616-0.575,1.251-1.13,1.842-1.729c1.061-1.071,2.198-2.091,3.111-3.276
	c2.281-2.968,2.597-6.604,3.205-10.119c0.403-2.333,0.726-4.682,1.153-7.466c1.336,1.854,0.891,3.554,0.816,5.088
	c-0.226,4.771-1.859,9.183-3.848,13.473c-1.187,2.558-3.134,4.095-5.909,4.512C122.847,487.77,122.723,487.61,122.598,487.45z"/>
<path d="M187.765,505.89c1.419-5.682,1.838-11.771,5.449-16.86c1.832,0.87,1.706,2.367,2.102,3.746
	c-0.342-0.057-0.51-0.034-0.611-0.105c-0.616-0.431-1.22-0.883-1.825-1.327c-0.452,0.7-1.086,1.346-1.316,2.111
	c-0.434,1.446-0.625,2.964-0.936,4.448c-0.293,1.396-0.479,2.838-0.955,4.172C189.195,503.401,188.413,504.621,187.765,505.89z"/>
<path d="M170.375,478.935c3.763,1.813,3.77,5.771-0.25,9.681c0.104-1.027,0.175-1.778,0.261-2.527
	c0.237-2.069,1.178-4.183-0.421-6.14c-0.103-0.123,0.018-0.462,0.094-0.681C170.105,479.136,170.266,479.044,170.375,478.935z"/>
<path d="M125.981,461.992c0.547,1.778-1.186,4.862-3.709,6.78c0.604-1.088,1.213-2.168,1.811-3.26
	C124.721,464.344,125.348,463.167,125.981,461.992z"/>
<path d="M344.146,428.162c-0.83-1.005-1.659-2.01-2.489-3.018c0.108-0.1,0.217-0.198,0.325-0.3c0.88,0.954,1.761,1.908,2.642,2.862
	C344.464,427.859,344.305,428.011,344.146,428.162z"/>
<path d="M255.084,509.862c-0.156,1.281-0.313,2.564-0.467,3.85c-0.154-0.02-0.31-0.039-0.463-0.059
	c0.176-1.28,0.35-2.563,0.522-3.845C254.814,509.828,254.949,509.845,255.084,509.862z"/>
<path fill="#FFFFFF" d="M220.267,397.573c-0.273,0.972-0.364,1.679-0.676,2.267c-0.263,0.496-0.854,1.243-1.177,1.188
	c-0.515-0.09-0.927-0.758-1.526-1.316C218.116,398.962,218.482,397.625,220.267,397.573z"/>
<path fill="#FFFFFF" d="M270.451,316.165c1,1.874,0.98,3.932,0.995,5.983C270.817,320.207,269.923,318.313,270.451,316.165z"/>
<path fill="#FFFFFF" d="M221.893,308.373c1.092,0.012,2.067,0.091,2.071,1.366c0,0.331-0.804,1.004-1.111,0.937
	C221.64,310.41,221.682,309.457,221.893,308.373z"/>
<path fill="#FFFFFF" d="M278.404,371.461c-0.479-1.287-0.24-2.416,0.085-3.696C279.684,369.173,279.658,369.983,278.404,371.461z"/>
<path fill="#FFFFFF" d="M260.791,315.37c1.137,0.407,1.728,0.619,2.499,0.896C261.804,317.229,261.804,317.229,260.791,315.37z"/>
<path fill="#FFFFFF" d="M220.274,311.034c-0.976-1.128-0.976-1.128,0.245-2.426C220.41,309.695,220.342,310.365,220.274,311.034z"/>
<path fill="#FFFFFF" d="M240.51,305.276c-0.33-0.455-0.698-0.744-0.688-1.016c0.012-0.232,0.481-0.645,0.703-0.617
	c0.275,0.035,0.666,0.421,0.7,0.694C241.256,304.57,240.851,304.856,240.51,305.276z"/>
<path fill="#FFFFFF" d="M267.114,318.073c-1.015,0.063-1.528-0.199-1.504-0.987c0.008-0.176,0.45-0.481,0.691-0.479
	C267.27,316.611,267.079,317.317,267.114,318.073z"/>
<path fill="#FFFFFF" d="M279.718,373.35c-0.404,0.312-0.654,0.603-0.964,0.698c-0.138,0.042-0.397-0.312-0.603-0.485
	c0.263-0.298,0.503-0.619,0.808-0.866C278.995,372.667,279.356,373.035,279.718,373.35z"/>
<path fill="#FFFFFF" d="M231.354,307.458c-0.449,0.226-0.727,0.484-0.925,0.434c-0.214-0.055-0.354-0.398-0.529-0.615
	c0.224-0.163,0.444-0.45,0.667-0.452C230.77,306.825,230.974,307.135,231.354,307.458z"/>
<path fill="#FFFFFF" d="M280.204,375.692c-0.248,0.183-0.436,0.423-0.585,0.403c-0.169-0.023-0.425-0.279-0.428-0.438
	c-0.003-0.151,0.271-0.431,0.419-0.431C279.783,375.229,279.951,375.479,280.204,375.692z"/>
<path fill="#FFFFFF" d="M260.623,311.81c-0.012,1.227-0.731,1.602-2.22,1.632c0.959-0.66,1.614-1.11,2.266-1.565
	C260.666,311.873,260.623,311.81,260.623,311.81z"/>
<path fill="#FFFFFF" d="M280.617,379.251c0.052,0.321,0.104,0.642,0.153,0.963c-0.081,0.023-0.162,0.047-0.243,0.07
	c-0.104-0.293-0.211-0.587-0.315-0.881C280.347,379.353,280.482,379.302,280.617,379.251z"/>
<path fill="#FFFFFF" d="M196.888,327.883c-0.085-0.092-0.236-0.185-0.236-0.276c0-0.091,0.153-0.181,0.239-0.271
	c0.084,0.092,0.236,0.184,0.235,0.275C197.126,327.701,196.974,327.792,196.888,327.883z"/>
<path fill="#FFFFFF" d="M212.89,335.412c-0.105,0.09-0.222,0.258-0.322,0.25c-0.114-0.01-0.218-0.174-0.324-0.271
	c0.145-0.116,0.291-0.233,0.436-0.35C212.748,335.164,212.819,335.288,212.89,335.412z"/>
<g>
	
		<image overflow="visible" width="179" height="231" xlink:href="6633216A.jpg"  transform="matrix(0.4922 -0.1004 -0.0747 -0.452 198.4622 422.7334)">
	</image>
</g>
<path fill="#FFFFFF" d="M281.5,407.5"/>
</svg>
