<?xml version="1.0" encoding="utf-8"?>
<!-- Generator: Adobe Illustrator 16.0.0, SVG Export Plug-In . SVG Version: 6.00 Build 0)  -->
<!DOCTYPE svg PUBLIC "-//W3C//DTD SVG 1.1//EN" "http://www.w3.org/Graphics/SVG/1.1/DTD/svg11.dtd">
<svg version="1.1" id="Layer_1" xmlns="http://www.w3.org/2000/svg" xmlns:xlink="http://www.w3.org/1999/xlink" x="0px" y="0px"
	 width="500px" height="500px" viewBox="0 0 500 500" enable-background="new 0 0 500 500" xml:space="preserve">
<path fill="none" stroke="#010101" stroke-miterlimit="10" d="M87.895,65.197c-3.157-3.908-6.054-6.617-7.787-9.938
	c-1.177-2.26-0.728-5.37-1.011-8.11c3.279,0.073,6.904-0.72,9.746,0.429c3.658,1.484,6.681,4.53,11.443,7.956
	c-1.592-4.563-2.688-7.543-3.667-10.566c-0.837-2.587-2.184-5.229-2.127-7.822c0.058-2.777,1.483-5.527,2.315-8.293
	c2.419,1.5,5.633,2.456,7.089,4.606c3.743,5.529,6.7,11.592,11.107,17.206c0-5.149-0.28-10.321,0.149-15.431
	c0.155-1.877,2.014-5.108,3.07-5.099c2.283,0.009,5.995,1.216,6.569,2.836c1.913,5.411,2.763,11.208,3.887,16.886
	c0.439,2.234,0.521,4.548,0.915,8.242c2.682-2.998,4.326-5.279,6.407-7.035c1.851-1.554,4.063-3.16,6.342-3.616
	c4.029-0.808,5.854,1.566,3.863,5.047c-4.056,7.09-4.336,14.658-4.541,22.528c-0.146,5.664-2.097,11.254-2.939,16.928
	c-0.314,2.15-0.382,4.703,0.479,6.606c2.875,6.369,6.196,12.535,9.415,18.747c0.521,1.012,1.208,2.448,2.082,2.68
	c6.805,1.802,7.398,7.781,9.152,13.038c2.744,8.218,5.541,16.426,8.529,25.267c5.456-10.358,9.844-20.067,15.493-28.976
	c4.063-6.403,8.775-13.479,15.023-17.189c13.222-7.869,28.025-12.996,43.701-12.447c6.871,0.244,13.705,3.353,20.435,5.557
	c4.023,1.318,7.735,3.595,11.718,5.088c8.913,3.343,15.709,9.096,18.192,18.311c1.664,6.162,5.098,8.66,11.6,9.026
	c-1.283,1.133-2.074,1.83-2.847,2.514c3.539,2.766,7.07,5.529,11.021,8.62c1.323-8.483,2.499-16.831,3.995-25.123
	c0.832-4.574,1.771-9.23,3.528-13.497c1.197-2.904,3.926-5.172,5.902-7.767c0.907-1.178,1.91-2.364,2.461-3.713
	c1.391-3.415,2.348-7.007,3.838-10.375c2.037-4.605,1.852-8.212-1.292-12.791c-2.623-3.834-3.361-9.402-3.629-14.272
	c-0.295-5.299-1.187-9.769-4.961-13.799c-1.549-1.659-1.712-4.633-2.501-7.005c2.711-0.604,5.514-1.941,8.088-1.606
	c2.938,0.385,5.674,2.261,9.055,3.737c0.558-7.806,1.09-15.414,1.642-23.029c0.245-3.397,0.475-6.949,5.084-7.094
	c4.481-0.142,4.456,3.673,5.12,6.548c0.931,4.113,1.512,8.305,2.414,13.45c1.335-3.796,2.395-6.837,3.487-9.874
	c0.778-2.189,1.062-4.909,2.541-6.427c2.355-2.404,5.537-3.994,8.368-5.935c1.168,2.834,2.899,5.58,3.358,8.523
	c0.586,3.743,0.138,7.645,0.138,11.479c0.543,0.52,1.094,1.045,1.642,1.565c1.19-1.922,2.059-4.241,3.707-5.633
	c1.382-1.168,4.366-2.274,5.415-1.569c1.573,1.063,3.113,3.895,2.809,5.665c-0.824,4.898-2.612,9.634-4.15,14.894
	c2.774-0.989,5.549-1.975,8.802-3.134c1.366,6.51,0.303,11.677-3.869,16.844c-3.932,4.868-6.651,10.711-9.827,16.176
	c-1.265,2.173-1.8,5.06-3.563,6.603c-5.685,4.982-5.804,11.254-5.737,18.045c0.094,9.124-0.679,18.252-0.926,27.381
	c-0.08,3.086-0.379,6.416,0.592,9.234c2.901,8.44,1.694,16.302-1.38,24.413c-3.16,8.334-4.81,17.304-8.479,25.37
	c-2.885,6.336-3.432,13.017-5.494,19.375c-1.206,3.718-4.072,6.895-6.04,10.077c-1.54,5.28-2.406,10.847-4.721,15.74
	c-7.188,15.226-12.354,31.155-14.269,47.728c-2.116,18.395,2.593,36.311,7.348,53.995c1.87,6.938,4.477,13.694,6.017,20.698
	c1.188,5.444,4.125,6.348,9.069,6.229c6.362-0.139,12.9-0.043,19.069,1.298c14.918,3.239,22.013,12.259,24.127,27.267
	c0.487,3.43,3.841,7.035,6.786,9.445c20.017,16.393,40.332,32.404,60.413,48.726c5.429,4.397,10.63,9.16,15.424,14.229
	c1.931,2.037,2.507,5.363,3.694,8.098c-2.478,0.804-4.898,2.114-7.423,2.332c-40.082,3.557-80.13,7.88-120.286,10.213
	c-54.724,3.179-109.529,4.945-164.314,7.02c-15.937,0.607-31.91,0.272-47.868,0.289c-34.641,0.033-69.281,0.051-103.918-0.081
	c-2.419-0.011-6.771-1.075-6.886-2.043c-0.343-2.88,0.062-6.711,1.804-8.83c20.87-25.4,42.119-50.48,63.006-75.86
	c2.546-3.094,4.755-7.305,5.115-11.18c1.145-12.246,16.086-29.461,29.41-28.91c6.553,0.275,13.148-0.67,19.715-0.531
	c13.272,0.291,24.756-9.34,25.2-22.36c0.521-15.509,0.864-31.058,0.165-46.539c-0.271-5.946-2.991-12.062-5.685-17.569
	c-8.167-16.738-16.923-33.19-25.34-49.809c-9.479-18.708-18.768-37.511-28.304-56.189c-2.234-4.374-2.079-7.805,0.235-12.436
	c2.279-4.562,3.01-10.394,2.79-15.599c-0.48-11.25-1.901-22.467-3.197-33.667c-0.242-2.097-1.344-4.334-2.676-6.014
	c-4.408-5.567-9.629-10.559-13.486-16.465c-2.335-3.582-4.754-5.664-8.762-6.715c-3.311-0.871-6.674-2.156-9.489-4.043
	c-1.312-0.872-2.118-3.768-1.76-5.449c0.291-1.351,2.563-2.902,4.168-3.198C80.861,64.817,83.847,65.197,87.895,65.197z"/>
<path fill="none" stroke="#010101" stroke-miterlimit="10" d="M310.237,196.665c-2.923-2.22-3.53,0.408-4.367,2.182
	c-6.023,12.639-8.285,25.703-4.482,39.539c-2.064-4.308-4.13-8.617-6.616-13.805c-8.114,8.396-15.612,16.158-23.207,24.012
	c-3.876-2.808-5.854-1.493-7.55,2.336c-1.534,3.473-3.463,7.055-6.109,9.691c-3.059,3.042-8.272,4.149-7.687,10.039
	c0.034,0.303-1.471,0.772-2.384,1.233c-0.75-2.225-1.358-4.02-1.988-5.877c-4.987,0.842-6.08,3.883-5.406,8.098
	c1.208,7.474,2.388,14.947,3.728,23.306c-0.146-0.037,1.374,0.363,2.898,0.763c-0.049,0.34-0.092,0.692-0.134,1.041
	c-2.408,0-4.818,0-7.231,0c0.231-2.393,0.639-4.787,0.665-7.181c0.037-3.998,0.037-8.015-0.332-11.983
	c-0.238-2.479-1.969-5-1.635-7.3c0.67-4.666-1.711-6.049-5.402-7.354c-7.174-2.539-13.019-6.637-16.231-14.079
	c-0.798-1.854-3.889-2.707-6.537-4.415c-2.805,14.035,0.508,25.162,6.527,36.816c-9.425-8.658-12.005-18.601-11.235-29.802
	c0.593-8.6-2.11-11.682-10.545-12.719c-7.64,11.887-10.078,24.737-7.439,38.59c-4.577-11.677-0.567-23.342-0.925-35.437
	c-2.261,2.597-4.522,5.196-6.782,7.793c-0.524-4.354-0.471-8.479,0.766-12.213c3.589-10.87,4.048-20.976-2.915-31.065
	c-3.752-5.437-5.693-12.117-8.666-18.705c-1.82,3.133-3.23,5.558-4.637,7.979c7.507-23.637-2.381-44.005-10.665-66.602
	c-9.091,20.207-23.542,31.674-43.021,37.472c6.001,12.189,11.635,23.695,17.354,35.158c0.583,1.168,1.836,1.985,2.521,3.119
	c1.609,2.683,3.244,5.373,4.521,8.219c0.938,2.093,1.069,4.546,2,6.647c4.525,10.28,8.919,20.64,13.929,30.683
	c3.636,7.283,8.034,14.201,12.388,21.104c1.154,1.822,5.092,3.287,4.881,4.354c-1.111,5.623,3.807,8.408,5.09,12.666
	c0.129,0.427,0.261,0.851,0.396,1.273c3.811,11.952,10.009,22.571,17.06,32.815c14.694,21.346,32.444,38.197,59.798,41.207
	c3.269,0.352,6.479,1.252,9.706,1.957c10.115,2.215,12.272,7.412,6.783,16.338l0.215-0.217c-11.51,1.943-21.486-0.73-29.487-9.672
	c9.788,0.459,18.931,8.239,29.646,3.035c-3.434-5.199-5.517-5.955-12.645-7.132c-21.068-3.491-40.368-11.372-53.958-28.287
	c-9.151-11.392-15.937-24.69-23.744-37.153c-1.541-2.463-2.938-5.012-4.405-7.531c-1.25,9.008-1.24,17.523-1.253,26.041
	c-0.009,5.748-0.069,11.484-0.064,17.236c0,4.391,0.607,8.705-3.024,12.479c-2.088,2.156-2.989,5.476-4.313,8.062
	c20.393,7.869,39.87,15.386,56.634,21.854c-8.147-0.469-19.013-3.012-29.497-7.391c-8.958-3.736-17.873-7.613-27.017-10.854
	c-2.902-1.026-6.477-0.151-9.741-0.151c0.934,2.147,1.84,2.963,2.9,3.329c18.275,6.175,32.729,18.281,47.592,29.934
	c8.198,6.424,17.376,11.649,26.389,16.944c5.227,3.069,11.231,3.577,16.849,0.867c7.327-3.538,14.669-7.16,21.585-11.429
	c19.991-12.344,39.688-25.188,59.736-37.453c3.952-2.422,4.754-4.455,3.563-8.771c-4.874-17.779-9.76-35.578-13.878-53.541
	c-2.97-12.963-4.724-26.217-7.021-39.336c0.382-0.1,0.771-0.207,1.148-0.316c1.104,2.761,2.196,5.516,3.709,9.299
	c1.244-2.682,2.212-4.504,2.953-6.428c4.184-10.85,8.09-21.82,12.553-32.557c2.55-6.125,5.689-11.854,3.885-18.916
	c-0.434-1.689,0.71-5.426,1.436-5.502c8.507-0.951,6.383-7.019,6.4-12.214c0.012-1.784,0.101-4.142,1.17-5.261
	c10.21-10.632,9.512-25.276,14.744-36.422c-8.854-6.739-16.442-13.108-24.623-18.583c-8.815-5.895-11.399-15.227-14.755-24.495
	c-3.459,18.051-9.608,35.355-6.436,53.772c0.296,1.75,0.158,4.431-0.93,5.433c-7.604,7.031-6.856,14.904-3.018,23.283
	L310.237,196.665z"/>
<path fill="none" stroke="#010101" stroke-miterlimit="10" d="M389.478,403.643c22.243,19.207,44.102,38.081,65.96,56.949
	c-0.295,0.604-0.58,1.206-0.875,1.816c-4.502,0.488-8.989,1.163-13.504,1.441c-52.953,3.305-105.894,6.935-158.869,9.649
	c-27.75,1.427-55.588,1.145-83.38,1.758c-38.29,0.847-76.572,1.988-114.866,2.595c-11.613,0.184-23.247-0.987-36.854-1.635
	c16.758-22.741,32.556-44.186,48.911-66.379c6.723,16.771,22.421,21.771,35.538,30.038c2.589,1.625,4.209,4.728,6.639,6.7
	c7.141,5.813,14.153,11.917,21.943,16.729c2.072,1.291,6.721-1.961,10.276-2.623c3.854-0.705,7.927-1.591,11.71-1.054
	c10.749,1.546,21.349,4.229,32.109,5.643c11.66,1.521,22.108-0.954,28.694-12.097c1.71-2.894,3.979-3.576,7.401-2.528
	c13.303,4.085,26.853,6.945,40.88,6.932c1.633,0,3.618,0.289,4.86,1.223c6.214,4.677,15.281,2.729,20.021-3.432
	c2.285-2.965,6.49-5.887,10.064-6.215c27.663-2.532,48.886-14.255,60.629-40.434c0.486-1.069,0.905-2.145,1.361-3.218
	C388.21,405.338,388.361,405.189,389.478,403.643z"/>
<path fill="none" stroke="#010101" stroke-miterlimit="10" d="M261.172,417.641c-9.133,7.583-14.117,17.335-18.245,27.761
	c-1.127,2.838-3.223,5.303-4.976,7.867c-4.148,6.073-9.651,9.039-17.303,8.616c-38.111-2.108-73.257-13.35-105.12-34.31
	c-12.576-8.276-16.9-20.997-15.516-35.565c1.286-13.494,10.229-22.295,25.074-25.425c14.63-3.085,27.905,1.425,41.072,8.485
	c-3.02,0.65-6.171,0.945-8.993,2.072c-1.815,0.726-3.145,2.664-4.69,4.063c1.898,0.827,4.3,2.838,5.603,2.281
	c10.043-4.34,19.04-1.18,27.931,3.212c3.445,1.7,6.996,3.358,10.037,5.653c6.672,5.041,13.243,10.246,19.492,15.791
	c11.613,10.305,24.697,14.309,39.937,10.448c0.934-0.237,1.921-0.306,2.882-0.469C259.295,417.98,260.236,417.807,261.172,417.641z
	 M211.539,415.864c5.469,7.602,4.495,13.117-3.766,17.006c-5.678,2.685-12.061,4.433-18.303,5.208
	c-12.613,1.563-24.951,0.945-34.427-9.584c-1.123-1.246-3.116-1.712-4.708-2.533c4.5,8.188,10.739,14.081,19.789,15.542
	c12.252,1.998,24.684,1.711,35.99-3.625c5.042-2.381,9.504-7.237,12.661-12.008C221.939,421.091,218.397,416.539,211.539,415.864z
	 M145.688,396.484c11.751-2.629,23.415-5.23,35.171,0.306C175.348,387.989,157.432,389.904,145.688,396.484z M202.491,457.026
	c8.974,0.859,18.224,0.125,26.297-6.085C219.828,453.012,210.876,455.084,202.491,457.026z"/>
<path fill="none" stroke="#010101" stroke-miterlimit="10" d="M242.29,149.903c-5.071,2.607-10.139,5.215-15.522,7.991
	c8.613,5.416,17.855,1.39,35.465-15.032c1.095,1.871,1.76,4.048,3.23,5.25c2.563,2.108,5.573,4.935,8.507,5.071
	c4.693,0.213,5.46,2.413,6.68,6.111c2.482,7.52,6.794,14.029,5.313,23.069c-0.818,4.972,3.905,10.86,7.218,15.973
	c0.461-2.621,0.298-5.605,1.553-7.77c1.26-2.17,3.929-3.522,5.979-5.23c1.632,2.375,4.814,4.91,4.581,7.084
	c-0.536,5.112-2.302,10.242-4.456,14.958c-0.706,1.523-4.163,1.78-7.108,2.904c0.031,18.787-12.658,28.562-29.142,35.419
	c-5.004,2.077-9.689,4.913-14.557,7.336c-5.77,2.869-11.557,2.764-17.436,0.148c-8.688-3.873-17.515-7.438-26.144-11.438
	c-11.877-5.504-16.251-16.023-18.049-28.095c-0.224-1.499-0.297-3.023-0.306-3.11c-3.376-1.981-5.873-3.26-8.105-4.889
	c-0.539-0.399-0.716-2.409-0.241-2.907c3.636-3.853,1.168-7.585-0.188-11.463c-0.296,2.298-0.594,4.592-0.891,6.891
	c-0.529,0.073-1.059,0.144-1.589,0.218c-0.857-1.821-2.273-3.59-2.428-5.465c-0.198-2.428,0.606-4.939,0.977-7.41
	c2.642,1.212,5.962,1.825,7.719,3.817c1.523,1.722,1.231,5.02,1.825,7.604c0.285,1.242,0.544,3.298,1.216,3.469
	c1.267,0.331,3.479,0.059,4.125-0.822c1.635-2.229,3.401-4.847,3.678-7.465c0.432-3.999-0.267-8.135-0.641-12.203
	c-0.535-5.793,1.443-10.228,6.531-13.259c1.993-1.188,4.479-2.266,5.595-4.095c8.349-13.733,22.829-15.131,36.339-18.544
	c1.099-0.279,2.175-0.609,4.104-1.141c-1.604,2.859-2.833,5.051-4.063,7.242L242.29,149.903z M206.916,203.918
	c1.513,0.516,3.673,1.955,5.711,1.803c4.327-0.316,6.424,1.945,8.104,5.271c3.077,6.059,6.365,12.018,9.181,18.199
	c2.122,4.666,5.218,8.032,10.396,8.037c5.26,0.004,9.979-2.091,12.659-7.002c2.033-3.742,3.953-7.606,5.383-11.605
	c2.104-5.871,4.69-10.615,12.196-8.917c0.141,0.028,0.419-0.557,1.266-1.723c-8.04,0.428-9.466-6.244-12.012-11.425
	c-0.979,4.257-0.781,8.695-2.889,11.097c-2.47,2.817-6.871,5.154-10.572,5.372c-5.575,0.333-11.585-0.469-16.817-2.402
	c-7.502-2.77-8.228-5.226-7.177-13.207c0.102-0.758-0.205-1.566-0.165-1.314C217,198.744,212.013,201.3,206.916,203.918z
	 M230.427,180.198c-5.859-6.857-6.841-7.649-9.829-6.428c-5.021,2.053-8.641,5.395-9.281,11.24
	C217.868,183.361,223.926,181.833,230.427,180.198z M273.271,184.582c-2.57-7.108-6.463-10.399-12.309-10.915
	c-5.051-0.447-6.914,3.186-8.226,7.548c3.352-0.361,6.601-1.331,9.634-0.862C265.604,180.849,268.639,182.702,273.271,184.582z
	 M245.521,196.454c-2.815-0.721-4.606-1.179-6.2-1.588c-0.189-3.013-0.353-5.688-0.521-8.362c-0.847-0.02-1.703-0.047-2.548-0.07
	c-0.132,3.59-1.458,7.767-0.063,10.594C237.404,199.495,241.705,200.949,245.521,196.454z M215.542,168.484
	c4.676-1.862,9.07-3.615,13.426-5.353C224.548,158.15,219.78,159.872,215.542,168.484z M234.712,239.506
	c-0.096,0.807-0.193,1.613-0.292,2.422c2.585,0.56,5.204,1.669,7.74,1.493c1.69-0.11,3.26-2.046,4.884-3.166
	c-0.257-0.511-0.512-1.022-0.771-1.538C242.417,238.979,238.56,239.244,234.712,239.506z M266.005,165.854
	c0.305-0.376,0.613-0.75,0.912-1.129c-3.169-1.138-6.271-2.74-9.54-3.203c-1.336-0.19-3.022,2.084-4.561,3.231
	c0.281,0.366,0.55,0.729,0.827,1.101C257.773,165.854,261.89,165.854,266.005,165.854z M299.309,203.247c0-4.629,0-9.254,0-13.566
	C294.864,192.596,294.543,195.275,299.309,203.247z"/>
<path fill="none" stroke="#010101" stroke-miterlimit="10" d="M242.065,150.122c3.428-3.406,6.854-6.807,10.274-10.214
	c-0.391-0.492-0.778-0.982-1.17-1.468c-4.486,1.517-8.914,4.033-13.467,4.272c-4.35,0.229-8.814-1.913-13.229-3.011
	c0.151-0.541,0.308-1.087,0.458-1.626c6.622-0.999,13.245-1.996,19.869-2.989c-0.063-0.708-0.114-1.421-0.181-2.128
	c-8.577,3.112-16.745,2.411-25.023-3.022c-2.35,7.788,4.034,10.388,6.872,14.883c-6.439,5.421-13.399,2.214-20.801,1.933
	c1.58,1.431,3.167,2.861,5.74,5.191c-4.188,4.146-8.021,8.72-12.62,12.295c-6.771,5.265-9.477,11.454-7.335,19.862
	c0.71,2.785,1.022,5.835,0.667,8.655c-0.203,1.626-2.112,3.041-4.238,4.549c0.105-8.514-4.671-12.893-10.703-17.165
	c-5.733-4.053-7.752-15.843-3.914-23.298c5.752-11.175,12.354-21.929,18.986-32.625c1.774-2.865,4.563-5.726,7.564-7.119
	c21.293-9.854,42.685-20.182,66.151-5.697c1.954,1.208,4.304,1.771,6.476,2.592c11.431,4.322,18.174,12.127,19.02,24.69
	c0.124,1.825,1.604,4.73,3.012,5.104c12.272,3.328,18.124,11.917,16.082,24.635c-0.395,2.482-1.246,4.887-1.884,7.33
	c-1.321,5.093-2.949,8.927-9.911,7.029c-2.054-0.559-5.257,3.086-8.495,5.172c0.736,0.307,0.118,0.195,0.104,0.024
	c-0.516-5.837,0.713-12.615-1.882-17.267c-2.918-5.224-6.186-9.771-5.461-15.926c0.318-2.692,1.415-5.293,2.226-8.17
	c-8.885,3.986-16.932,2.293-22.349-8.938c-7.787,9.075-14.673,17.979-27.283,19.206c2.488-2.609,4.57-4.79,6.656-6.973
	L242.065,150.122z"/>
<path fill="none" stroke="#010101" stroke-miterlimit="10" d="M324.385,445.104c12.724-8.422,13.095-9.615,7.032-20.633
	c3.089-1.342,6.147-2.68,9.628-4.19c-0.806-0.303-1.027-0.491-1.161-0.432c-10.204,4.306-19.597,0.338-29.252-2.496
	c-3.543-1.045-7.609-0.332-11.449-0.34c-10.026-0.029-20.054-0.013-32.009-0.013c2.604-4.171,3.791-7.962,6.384-9.921
	c14.806-11.193,28.637-24.205,47.416-28.732c5.197-1.261,10.71-1.223,16.061-1.914c1.834-0.236,3.616-0.875,6.366-1.567
	c-4.086-5.89-9.45-2.235-13.338-3.735c10.857-8.152,34.712-8.459,45.765-0.507c8.979,6.462,12.137,14.903,10.197,25.905
	c-4.906,27.818-30.942,49.898-58.294,48.929C327.034,445.43,326.344,445.314,324.385,445.104z M350.405,410.418
	c-10.897,1.443-21.354,2.828-32.908,4.357C329.7,417.566,340.173,416.339,350.405,410.418z"/>
<path fill="none" stroke="#010101" stroke-miterlimit="10" d="M120.577,91.67c-0.209-2.034-0.242-3.513-0.531-4.942
	c-1.113-5.558,0.507-10.214,5.261-13.158c4.189-2.594,6.125-6.015,6.959-10.757c1.245-7.115,5.605-10.915,10.948-10.608
	c-1.354,6.277-3.471,12.529-3.875,18.893c-0.478,7.557,0.419,15.118-4.022,21.993c-0.73,1.129,0.146,3.678,0.869,5.31
	c4.156,9.399,8.798,18.596,12.583,28.137c1.143,2.865,0.909,6.903-0.146,9.898c-2.651,7.551-7.894,13.318-14.856,17.356
	c-4.521,2.626-9.132,5.098-14.83,8.261c-3.785-21.078-5.46-41.617-7.021-62.603c-9.528-0.938-12.043-9.662-16.036-16.389
	c-1.813-3.045-3.504-4.656-6.667-5.403c-3.208-0.766-6.482-1.486-9.485-2.786c-1.195-0.52-1.746-2.533-2.591-3.868
	c1.292-0.534,2.632-1.611,3.877-1.518c4.929,0.365,9.833,1.089,15.447,0.458C91.29,64.188,86.123,58.426,80.95,52.672
	c0.385-0.594,0.773-1.188,1.158-1.782c9.283,0.724,14.841,9.484,23.602,12.564c-1.52-10.247-10.135-18.415-8.308-30.509
	c12.067,6.866,12.223,20.146,20.026,28.854c0.188-1.972,0.565-3.951,0.506-5.913c-0.171-6.018-0.67-12.034-0.646-18.042
	c0.004-1.279,1.69-2.55,2.603-3.828c1.261,0.981,3.465,1.829,3.629,2.972c1.5,10.168,2.81,20.378,3.667,30.62
	c0.12,1.361-2.404,3.152-3.975,4.421C116.439,77.525,115.195,84.936,120.577,91.67z M124.431,68.032
	c-6.57-3.631-15.188-1.43-21.963,5.259c-1.191,1.177-1.646,3.114-2.436,4.695c0.62,0.449,1.237,0.896,1.859,1.341
	C107.487,72.071,114.759,68.181,124.431,68.032z"/>
<path fill="none" stroke="#010101" stroke-miterlimit="10" d="M351.052,45.046c1.535-5.474,2.77-11.061,4.704-16.387
	c1.896-5.212,2.296-11.629,10.22-14.476c1.555,11.994-1.961,22.699-4.831,33.452c0.503,0.262,0.997,0.525,1.5,0.789
	c4.847-6.754,9.695-13.515,14.543-20.266c0.595,0.362,1.191,0.729,1.795,1.093c2.729,11.416-6.843,18.51-10.911,27.536
	c0.41,0.506,0.817,1.012,1.236,1.523c4.767-3.673,9.541-7.346,14.306-11.022c0.548,0.129,1.109,0.25,1.654,0.376
	c-0.48,2.427-0.194,5.474-1.572,7.168c-6.311,7.725-11.346,16.022-15.214,25.267c-1.416,3.379-5.513,5.639-8.592,8.606
	c3.117,7.698,1.711,47.149-2.665,59.21c-9.539-7.51-20.332-13.334-26.864-23.598c-2.283-3.594-2.641-9.419-1.766-13.804
	c1.586-7.945,4.581-15.638,7.359-23.307c0.771-2.131,2.842-3.785,4.586-6.004c-9.305-3.927-9.895-12.442-10-21.784
	c-0.046-3.742-3.198-7.435-4.876-11.176c-0.909-2.052-1.703-4.166-2.545-6.253c2.365,0.232,5.38-0.367,6.98,0.867
	c3.272,2.53,5.913,5.939,8.576,9.185c1.263,1.538,1.964,3.533,4.15,4.866c-0.845-3.39-2.326-6.768-2.396-10.178
	c-0.176-8.347,0.139-16.714,0.66-25.049c0.104-1.66,1.983-3.212,3.05-4.813c1.106,1.63,2.965,3.17,3.18,4.912
	c0.683,5.571,0.746,11.219,1.045,16.836c0.102,2.013,0.196,4.021,0.298,6.031C349.443,44.779,350.254,44.914,351.052,45.046z
	 M349.443,78.353c5.821-2.989,6.973-6.156,5.817-11.946c-1.207-6.073-4.941-9.903-10.77-10.511
	C351.61,61.676,354.853,68.319,349.443,78.353z M344.627,46.656c8.847,5.502,16.411,10.205,24.783,15.415
	C362.718,54.173,355.604,48.763,344.627,46.656z"/>
<path fill="none" stroke="#010101" stroke-miterlimit="10" d="M26.761,485.447c21.434-29.499,44.41-56.146,66.594-83.432
	c0.827,0.398,1.652,0.803,2.485,1.209c-0.989,2.422-1.5,5.207-3.037,7.211c-14.695,19.128-29.562,38.108-44.386,57.142
	c-0.836,1.079-1.729,2.123-2.457,3.265c-4.103,6.432-3.184,8.609,4.405,8.626c38.308,0.118,76.626,0.644,114.917-0.146
	c50.73-1.055,101.463-2.748,152.154-4.99c38.449-1.718,76.845-4.746,115.263-7.128c7.379-0.456,14.769-0.578,22.156-0.922
	c2.225-0.104,4.447-0.412,8.653-0.817c-3.685-4.048-5.921-7.137-8.749-9.521c-20.375-17.179-40.846-34.245-61.362-51.254
	c-1.75-1.447-4.049-2.211-5.2-4.188c8.567-0.087,76.459,57.29,81.966,67.279C435.163,480.221,74.894,490.922,26.761,485.447z"/>
<path fill="none" stroke="#010101" stroke-miterlimit="10" d="M245.393,446.92c5.144-7.805,9.37-15.429,14.854-22.004
	c2.332-2.795,7.17-4.253,11.07-4.789c4.314-0.596,8.86,0.896,13.312,0.889c5.522-0.021,11.104-0.295,16.566-1.078
	c9.855-1.4,18.317,2.339,26.409,6.911c3.583,2.033,4.957,6.12,2.854,10.198c-0.656,1.271-2.684,1.824-4.067,2.718
	c-0.563-1.467-1.303-2.901-1.616-4.424c-0.168-0.822,0.396-1.792,0.771-3.263c-2.801,1.372-5.074,2.498-6.413,3.152
	c1.07,2.225,2.271,4.729,3.475,7.23c-2.696,1.021-5.396,2.024-8.076,3.042c0.967,0.78,2.619,2.116,5.398,4.355
	c-4.516,0-7.604,0-10.697,0c0.29,1.718,0.645,3.814,0.995,5.917c-0.416,0.305-0.822,0.617-1.237,0.922
	c-1.81-1.255-3.618-2.508-6.027-4.184c0.321,2.609,0.612,4.904,1.126,8.991c-2.299-1.479-4.589-2.119-4.949-3.33
	c-1.076-3.617-3.36-3.689-6.266-3.2c-10.058,1.702-19.577-0.073-29.05-3.709C258.639,449.272,252.938,448.641,245.393,446.92z"/>
<path fill="none" stroke="#010101" stroke-miterlimit="10" d="M222.641,251.964c6.199,2.688,11.537,4.923,16.779,7.37
	c0.755,0.355,1.049,1.723,1.554,2.617c-1.063,0.486-2.254,1.552-3.175,1.352C231.296,261.914,226.446,258.176,222.641,251.964z"/>
<path fill="none" stroke="#010101" stroke-miterlimit="10" d="M261.813,249.281c-1.866,7.508-7.85,11.891-16.981,12.67
	C251.274,257.15,256.54,253.218,261.813,249.281z"/>
<path fill="none" stroke="#010101" stroke-miterlimit="10" d="M188.523,228.155c2.257,2.944,3.73,4.857,5.576,7.268
	c-3.51,2.34-6.589,4.394-9.674,6.452c-0.345-0.223-0.692-0.446-1.032-0.667C184.944,237.252,186.504,233.295,188.523,228.155z"/>
<path fill="none" stroke="#010101" stroke-miterlimit="10" d="M268.887,383.572c5.875-2.901,11.755-5.779,17.632-8.678
	c0.229,0.445,0.459,0.883,0.688,1.318c-0.28,0.479-0.445,1.209-0.855,1.369c-11.613,4.712-19.017,14.463-27.492,22.923
	c-11.129,11.104-16.316,10.696-26.603-3.146c4.131,1.063,7.263,2.315,10.471,2.557c3.111,0.229,7.112,0.492,9.284-1.15
	c6.092-4.613,11.438-10.205,17.082-15.41L268.887,383.572z"/>
<path fill="none" stroke="#010101" stroke-miterlimit="10" d="M299.232,236.28c1.527,2.947,3.722,5.746,4.448,8.878
	c5.574,23.924,3.938,47.375-5.411,70.177c-0.125,0.312-0.514,0.515-2.104,2.026c8.649-27.623,13.572-54,1.151-80.546
	C297.955,236.639,298.592,236.458,299.232,236.28z"/>
<path fill="none" stroke="#010101" stroke-miterlimit="10" d="M322.141,357.295c2.511,1.025,4.873,1.986,7.231,2.95
	c-0.104,0.29-0.218,0.585-0.314,0.874c-5.396,0-10.783,0-16.066,0c4-6.159,7.905-12.18,11.813-18.193
	c0.505,0.151,1.012,0.305,1.521,0.455C324.951,347.924,323.593,352.465,322.141,357.295z"/>
<path fill="none" stroke="#010101" stroke-miterlimit="10" d="M287.646,240.455c2.594,12.305,0.632,23.684-4.008,36.313
	C285.063,263.863,286.328,252.424,287.646,240.455z"/>
<path fill="none" stroke="#010101" stroke-miterlimit="10" d="M297.858,257.137c-2.831-6.82-5.668-13.646-8.5-20.467
	C295.821,242.032,298.206,249.114,297.858,257.137z"/>
<path fill="none" stroke="#010101" stroke-miterlimit="10" d="M318.465,171.916c1.913,5.814,3.749,11.394,5.822,17.686
	C318.137,184.98,316.193,178.528,318.465,171.916z"/>
<path fill="none" stroke="#010101" stroke-miterlimit="10" d="M312.19,195.534c2.832,0.832,3.213,7.434,8.567,3.409
	c-1.432-1.575-2.655-2.931-3.882-4.281c0.171-0.205,0.359-0.404,0.543-0.605c1.045,0.985,2.491,1.778,3.037,2.985
	c0.813,1.762,0.972,3.818,1.399,5.747c-2.328-0.522-5.029-0.496-6.884-1.733c-1.506-1.008-2.005-3.529-2.949-5.373
	C312.024,195.68,312.19,195.534,312.19,195.534z"/>
<path fill="none" stroke="#010101" stroke-miterlimit="10" d="M255.874,286.538c-2.688,1.933-4.243,3.438-6.104,4.137
	c-0.465,0.183-2.974-2.771-2.688-3.327c0.854-1.662,2.45-3.211,4.14-4.029C251.854,283.011,253.526,284.846,255.874,286.538z"/>
<path fill="none" stroke="#010101" stroke-miterlimit="10" d="M211.539,415.864c6.857,0.675,10.399,5.227,7.238,10.015
	c-3.156,4.762-7.619,9.624-12.661,12.005c-11.308,5.335-23.738,5.617-35.99,3.628c-9.057-1.47-15.294-7.361-19.789-15.545
	c1.592,0.825,3.585,1.292,4.708,2.536c9.477,10.529,21.813,11.147,34.427,9.578c6.242-0.774,12.625-2.526,18.303-5.207
	C216.034,428.981,217.008,423.456,211.539,415.864z"/>
<path fill="none" stroke="#010101" stroke-miterlimit="10" d="M145.688,396.484c11.743-6.584,29.659-8.496,35.171,0.306
	C169.104,391.254,157.439,393.855,145.688,396.484z"/>
<path fill="none" stroke="#010101" stroke-miterlimit="10" d="M202.491,457.026c8.385-1.934,17.336-4.017,26.297-6.085
	C220.715,457.151,211.465,457.888,202.491,457.026z"/>
<path fill="none" stroke="#010101" stroke-miterlimit="10" d="M206.916,203.918c5.097-2.618,10.084-5.175,15.269-7.826
	c-0.04-0.256,0.269,0.556,0.165,1.314c-1.051,7.985-0.326,10.441,7.177,13.207c5.23,1.932,11.247,2.732,16.817,2.402
	c3.7-0.219,8.105-2.555,10.571-5.372c2.112-2.409,1.904-6.84,2.893-11.098c2.538,5.182,3.964,11.858,12.004,11.426
	c-0.835,1.167-1.116,1.755-1.266,1.72c-7.506-1.697-10.082,3.045-12.189,8.918c-1.437,4.001-3.346,7.869-5.39,11.606
	c-2.681,4.909-7.394,7.006-12.656,7.002c-5.172-0.005-8.272-3.372-10.396-8.038c-2.813-6.181-6.097-12.14-9.18-18.199
	c-1.681-3.32-3.777-5.586-8.104-5.27C210.589,205.874,208.429,204.435,206.916,203.918z M226.596,213.27
	c-0.251,0.506-0.505,1.012-0.751,1.519c1.531,3.722,2.771,7.604,4.666,11.137c3.317,6.181,13.975,9.492,17.95,4.845
	c4.496-5.248,7.146-12.072,10.596-18.211c-0.522-0.496-1.063-0.998-1.6-1.493C247.674,217.979,237.466,219.687,226.596,213.27z"/>
<path fill="none" stroke="#010101" stroke-miterlimit="10" d="M230.427,180.198c-6.501,1.635-12.559,3.163-19.109,4.812
	c0.642-5.839,4.26-9.187,9.281-11.24C223.585,172.548,224.567,173.341,230.427,180.198z"/>
<path fill="none" stroke="#010101" stroke-miterlimit="10" d="M273.271,184.582c-4.633-1.875-7.666-3.733-10.898-4.229
	c-3.033-0.473-6.282,0.501-9.634,0.862c1.313-4.362,3.175-8,8.226-7.548C266.809,174.183,270.699,177.469,273.271,184.582z"/>
<path fill="none" stroke="#010101" stroke-miterlimit="10" d="M245.521,196.454c-3.814,4.499-8.115,3.041-9.337,0.58
	c-1.399-2.833-0.075-7.005,0.063-10.595c0.85,0.018,1.706,0.045,2.552,0.069c0.161,2.675,0.332,5.357,0.521,8.362
	C240.912,195.271,242.703,195.733,245.521,196.454z"/>
<path fill="none" stroke="#010101" stroke-miterlimit="10" d="M215.542,168.484c4.24-8.616,9.007-10.334,13.426-5.353
	C224.612,164.873,220.218,166.622,215.542,168.484z"/>
<path fill="none" stroke="#010101" stroke-miterlimit="10" d="M234.712,239.506c3.855-0.262,7.706-0.527,11.555-0.788
	c0.262,0.51,0.521,1.021,0.778,1.538c-1.624,1.119-3.192,3.049-4.884,3.166c-2.537,0.176-5.16-0.933-7.744-1.493
	C234.519,241.115,234.616,240.313,234.712,239.506z"/>
<path fill="none" stroke="#010101" stroke-miterlimit="10" d="M266.005,165.854c-4.115,0-8.23,0-12.354,0
	c-0.275-0.367-0.552-0.73-0.828-1.101c1.531-1.147,3.22-3.421,4.556-3.231c3.269,0.463,6.376,2.061,9.551,3.203
	C266.618,165.104,266.31,165.478,266.005,165.854z"/>
<path fill="none" stroke="#010101" stroke-miterlimit="10" d="M299.309,203.247c-4.766-7.971-4.442-10.647,0-13.566
	C299.309,193.987,299.309,198.614,299.309,203.247z"/>
<path fill="none" stroke="#010101" stroke-miterlimit="10" d="M350.405,410.418c-10.231,5.921-20.704,7.156-32.908,4.357
	C329.051,413.246,339.507,411.861,350.405,410.418z"/>
<path fill="none" stroke="#010101" stroke-miterlimit="10" d="M124.431,68.032c-9.678,0.145-16.943,4.039-22.533,11.296
	c-0.622-0.445-1.238-0.892-1.86-1.341c0.791-1.585,1.242-3.519,2.436-4.695C109.244,66.602,117.868,64.401,124.431,68.032z"/>
<path fill="none" stroke="#010101" stroke-miterlimit="10" d="M349.443,78.353c5.403-10.034,2.162-16.677-4.95-22.457
	c5.826,0.608,9.563,4.438,10.77,10.511C356.415,72.191,355.271,75.364,349.443,78.353z"/>
<path fill="none" stroke="#010101" stroke-miterlimit="10" d="M344.627,46.656c10.977,2.107,18.091,7.512,24.783,15.415
	C361.038,56.865,353.482,52.158,344.627,46.656z"/>
<path fill="none" stroke="#010101" stroke-miterlimit="10" d="M226.596,213.27c10.87,6.417,21.078,4.714,30.861-2.209
	c0.536,0.497,1.075,0.998,1.6,1.496c-3.448,6.138-6.1,12.962-10.596,18.209c-3.977,4.648-14.633,1.335-17.95-4.845
	c-1.895-3.532-3.135-7.409-4.666-11.137C226.091,214.277,226.345,213.771,226.596,213.27z"/>
<path fill="none" stroke="#010101" stroke-miterlimit="10" d="M363.75,157.5c0.446-0.676-8-12-8.75-12.75"/>
</svg>
