<?xml version="1.0" encoding="utf-8"?>
<!-- Generator: Adobe Illustrator 16.0.0, SVG Export Plug-In . SVG Version: 6.00 Build 0)  -->
<!DOCTYPE svg PUBLIC "-//W3C//DTD SVG 1.1//EN" "http://www.w3.org/Graphics/SVG/1.1/DTD/svg11.dtd">
<svg version="1.1" id="Layer_1" xmlns="http://www.w3.org/2000/svg" xmlns:xlink="http://www.w3.org/1999/xlink" x="0px" y="0px"
	 width="500px" height="500px" viewBox="0 0 500 500" enable-background="new 0 0 500 500" xml:space="preserve">
<g>
	<defs>
		<path id="SVGID_1_" d="M324.438,300.544c10.079-1.724,19.828-3.253,29.495-5.183c1.515-0.305,3.455-2.227,3.858-3.754
			c2.986-11.335,6.121-22.675,8.176-34.196c0.943-5.285,1.985-9.086,7.434-11.238c4.361-1.722,4.429-3.503,1.817-7.718
			c-3.53-5.692-7.028-11.405-10.591-17.076c-5.85-9.31-11.587-18.589-18.99-26.941c-9.746-10.999-21.366-18.273-35.204-22.49
			c-3.056-0.93-6.063-2.014-9.804-3.263c10.334-6.293,19.115-13.048,22.856-23.436c2.61-0.323,4.771-0.003,6.237-0.865
			c9.973-5.846,15.346-14.807,16.011-26.236c0.218-3.688-1.27-7.475-2.225-12.518c5.311-7.86,10.909-17.958,8.806-29.276
			c-2.062-11.075-7.676-20.764-21.71-22.476c1.89-1.121,2.864-1.538,3.631-2.196c0.939-0.81,1.706-1.821,2.546-2.746
			c-1.175-0.779-2.319-2.146-3.528-2.21c-2.292-0.119-4.621,0.513-5.669,0.657c-3.013-3.173-5.12-7.308-7.969-7.904
			c-3.516-0.736-6.015-2.539-8.98-3.949c-19.387-9.227-39.087-16.837-61.357-13.962c-15.943,2.058-30.363,7.359-42.689,17.708
			c-6.257,5.255-12.237,10.87-18.018,16.648c-7.537,7.535-14.139,15.625-15.573,26.889c-1.2,9.416,0.019,18.044,5.443,26.018
			c0.91,1.339,0.955,3.472,0.896,5.223c-0.111,3.319-1.418,6.799-0.766,9.905c2.363,11.229,6.766,21.092,19.757,23.665
			c0.995,0.198,2.012,1.233,2.648,2.141c5.21,7.427,11.649,13.521,19.343,18.32c0.903,0.563,1.646,1.382,2.762,2.336
			c-1.525,0.45-2.503,0.821-3.517,1.026c-18.699,3.774-35.324,10.887-47.445,26.71c-7.414,9.676-15.974,18.473-24.041,27.647
			c-2.133,2.422-1.937,4.464,0.034,7.107c1.177,1.581,1.912,4.428,1.338,6.229c-4.614,14.523-3.062,28.887,0.827,43.148
			c0.572,2.097,2.757,4.45,4.786,5.338c8.652,3.785,17.654,6.361,27.301,5.598c2.128-0.167,4.277-0.078,6.638-0.109
			c-2.251,7.803-2.254,7.777-9.164,8.156c-4.575,0.254-8.762,1.376-12.04,4.973c-1.161,1.275-2.755,2.599-4.361,2.952
			c-14.021,3.064-27.634,7.27-40.569,13.572c-2.312,1.126-3.824,2.009-4.112,5.337c-0.267,3.081-2.718,6.267-4.939,8.749
			c-0.992,1.113-3.872,0.332-5.719,0.945c-2.065,0.687-3.928,1.979-5.879,3.01c0.114,0.508,0.228,1.017,0.342,1.524
			c2.784,0.575,5.568,1.146,8.352,1.722c0.046,0.433,0.091,0.865,0.137,1.298c-4.895,0.064-9.79,0.129-14.685,0.193
			c-0.022,0.51-0.045,1.016-0.069,1.526c2.619,0.585,5.235,1.169,8.213,1.832c-4.212,4.578-9.784,0.533-15.016,2.958
			c3.461,0.603,5.971,1.04,9.277,1.615c-5.126,4.188-10.708,0.687-16.315,3.007c3.502,0.737,6.087,1.278,8.674,1.823
			c-0.001,0.487-0.002,0.976-0.001,1.46c-3.955,0.228-7.91,0.45-11.863,0.677c-0.019,0.215-0.036,0.431-0.053,0.649
			c2.401,0.376,4.8,0.752,7.201,1.132c0.005,0.426,0.011,0.852,0.017,1.278c-4.451,0.059-8.903,0.117-13.355,0.176
			c-0.005,0.473-0.009,0.95-0.012,1.423c2.622,0.279,5.244,0.555,7.865,0.832c-0.003,0.438-0.006,0.871-0.012,1.309
			c-4.152,0.054-8.306,0.108-12.46,0.163c-0.018,0.456-0.037,0.911-0.055,1.362c1.97,0.579,3.942,1.153,5.914,1.732
			c-0.039,0.227-0.076,0.456-0.113,0.686c-3.524,0.047-7.048,0.093-10.572,0.14c0.003,0.259,0.004,0.518,0.008,0.775
			c2.513,0.149,5.023,0.294,7.537,0.443c0.044,0.51,0.088,1.019,0.133,1.523c-4.184,0.435-8.369,0.867-12.553,1.298
			c0.021,0.346,0.042,0.688,0.063,1.033c2.191,0.175,4.38,0.354,6.571,0.529c0.02,0.375,0.041,0.746,0.06,1.117
			c-3.708,0.289-7.419,0.578-11.127,0.863c0.013,0.298,0.026,0.597,0.039,0.896c1.035,0.572,2.067,1.145,3.786,2.098
			c-4.244,0.311-7.588,0.559-10.932,0.804c0.019,0.315,0.038,0.633,0.056,0.949c2.325,0.235,4.651,0.467,6.975,0.702
			c0.033,0.324,0.068,0.647,0.102,0.972c-4.755,0.434-9.511,0.867-14.264,1.305c0.035,0.425,0.07,0.854,0.103,1.284
			c3.1-0.041,6.2-0.082,9.3-0.123c0.036,0.408,0.074,0.812,0.11,1.219c-2.381,0.279-4.763,0.551-7.14,0.837
			c-2.318,0.277-4.633,0.571-6.951,0.859c0.049,0.396,0.096,0.797,0.145,1.192c3.055-0.04,6.111-0.08,9.166-0.12
			c0.07,0.443,0.138,0.891,0.207,1.337c-3.282,0.735-6.563,1.474-9.844,2.209c0.062,0.298,0.122,0.592,0.183,0.89
			c3.26-0.299,6.522-0.593,10.463-0.954c-1.422,2.619-2.464,4.537-3.975,7.313c2.37-0.579,3.627-0.891,4.744-1.164
			c0.168,0.914,0.3,1.627,0.49,2.662c2.356-1.641,4.299-2.999,6.25-4.35c1.747-1.207,3.502-2.406,5.254-3.604
			c0.309,0.386,0.62,0.774,0.931,1.159c-1.723,2.328-3.445,4.652-5.832,7.876c5.652-2.27,7.304-7.961,13.445-9.297
			c-2.389,3.25-3.996,5.438-5.604,7.626c0.261,0.229,0.523,0.459,0.784,0.685c3.052-2.604,6.105-5.207,9.156-7.811
			c0.215,0.324,0.429,0.646,0.644,0.971c-1.445,2.112-2.888,4.222-4.332,6.331c0.298,0.28,0.597,0.561,0.896,0.844
			c3.186-2.719,6.37-5.44,9.555-8.158c0.227,0.351,0.451,0.696,0.678,1.047c-1.348,2.218-2.694,4.438-4.209,6.93
			c5.432-0.854,6.156-7.865,12.336-7.367c-1.462,2.484-2.673,4.542-3.884,6.605c0.248,0.178,0.496,0.36,0.746,0.54
			c2.997-2.61,5.994-5.221,8.991-7.831c0.311,0.346,0.621,0.688,0.933,1.03c-1.529,2.353-3.055,4.703-4.583,7.055
			c0.215,0.149,0.432,0.303,0.646,0.453c2.929-2.67,5.858-5.342,8.787-8.01c0.288,0.272,0.577,0.546,0.866,0.815
			c-1.614,2.621-3.231,5.246-4.847,7.867c0.315,0.239,0.629,0.479,0.946,0.72c2.84-3.126,5.684-6.251,8.524-9.38
			c-1.441,3.813-3.004,7.336-4.99,10.604c-8.978,14.764-17.654,29.741-27.366,44.011c-3.279,4.82-2.03,8.573-0.226,12.277
			c0.814,1.672,4.678,2.12,7.254,2.596c2.46,0.451,5.055,0.377,7.575,0.238c2.789-0.16,3.967,0.968,4.445,3.704
			c1.165,6.626,1.273,6.584,8.417,5.452c1.167-0.183,2.381-0.063,3.573-0.108c12.165-0.47,24.329-0.939,36.492-1.434
			c0.308-0.011,0.604-0.295,0.904-0.452c-0.024-0.299-0.05-0.597-0.074-0.899c-15.143,0.199-30.284,0.398-45.256,0.596
			c-1.56-6.844-1.561-6.825,4.665-6.711c15.933,0.301,31.864,0.648,47.798,0.825c3.938,0.047,7.143,0.467,6.441,7.34
			c3.239-2.101,5.193-3.523,7.295-4.681c1.573-0.865,3.339-1.978,5.016-1.974c27.109,0.048,54.219,0.325,81.329,0.409
			c18.928,0.061,37.859,0.133,56.782-0.28c5.307-0.112,9.17,1.03,12.069,5.521c0.718,1.119,2.21,2.404,3.386,2.447
			c5.442,0.193,10.898-0.027,16.348-0.099c-2.551-0.979-5.072-0.892-7.593-0.924c-5.834-0.069-5.831-0.091-5.05-6.579
			c20.943,0.22,41.957,0.443,63.159,0.666c-0.217,2.727-0.345,4.309-0.473,5.917c5.849,1.984,3.016-3.551,4.695-5.08
			c6.798-0.089,13.595-0.179,19.937-0.262c0.431-2.165,0.937-3.817,1.046-5.493c0.182-2.781,1.955-5.255-0.086-8.422
			c-9.504-14.778-18.655-29.788-27.915-44.722c-0.427-0.687-0.689-1.477-1.184-2.56c2.771,2.243,5.159,4.178,7.544,6.109
			c0.256-0.287,0.507-0.577,0.758-0.869c-1.804-2.311-3.608-4.621-5.411-6.935c0.387-0.413,0.775-0.826,1.159-1.238
			c3.418,2.675,6.832,5.35,10.25,8.024c0.216-0.283,0.43-0.565,0.645-0.845c-1.546-1.856-3.089-3.711-4.776-5.731
			c6.844-2.395,7.544,6.579,13.43,6.119c-1.62-2.119-2.986-3.915-4.354-5.71c0.279-0.331,0.56-0.666,0.838-1.002
			c3.697,2.274,7.394,4.546,11.091,6.816c0.422-0.522,0.845-1.045,1.268-1.567c-1.929-1.071-3.858-2.145-5.784-3.219
			c0.423-0.538,0.846-1.075,1.269-1.613c3.508,2.372,7.017,4.747,10.524,7.119c0.161-0.238,0.322-0.478,0.483-0.716
			c-1.666-1.773-3.331-3.547-4.993-5.319c0.358-0.456,0.72-0.913,1.077-1.369c3.435,2.529,6.869,5.062,10.304,7.591
			c0.196-0.254,0.394-0.503,0.59-0.758c-1.479-1.75-2.959-3.5-4.442-5.254c0.192-0.122,0.383-0.249,0.57-0.371
			c3.308,2.242,6.613,4.489,9.921,6.737c0.301-0.387,0.605-0.777,0.905-1.164c-1.859-1.348-3.716-2.696-5.573-4.044
			c0.428-0.505,0.851-1.014,1.276-1.517c1.489,1.105,2.96,2.236,4.475,3.306c1.622,1.144,3.285,2.229,4.927,3.34
			c0.222-0.331,0.443-0.662,0.661-0.996c-1.295-1.527-2.593-3.058-3.891-4.584c0.261-0.39,0.521-0.778,0.781-1.165
			c3.592,2.051,7.18,4.101,10.769,6.147c0.16-0.253,0.32-0.504,0.485-0.757c-1.185-1.208-2.37-2.416-3.555-3.623
			c0.155-0.396,0.311-0.795,0.466-1.194c2.984,0.999,5.972,1.994,8.923,2.978c0.035-0.622,0.071-1.221,0.151-2.616
			c3.323,4.592,6.895,5.652,11.399,3.208c-1.398-1.07-2.652-2.033-4.05-3.107c1.445-0.572,2.586-1.024,3.724-1.477
			c-0.077-0.271-0.152-0.544-0.226-0.816c-2.42-0.186-4.836-0.373-7.253-0.556c0.024-0.336,0.053-0.667,0.077-1.003
			c2.396-0.362,4.794-0.729,7.563-1.147c-3.742-7.088-10.352-3.439-15.282-5.771c2.408-0.146,4.813-0.289,7.222-0.435
			c-0.015-0.287-0.025-0.574-0.04-0.862c-3.08-0.444-6.162-0.891-9.588-1.385c1.652-0.633,2.913-1.119,5.271-2.024
			c-6.429-0.71-11.617-1.282-16.807-1.858c0.045-0.441,0.094-0.887,0.139-1.331c2.871-0.188,5.738-0.377,8.608-0.564
			c0.004-0.251,0.007-0.503,0.012-0.75c-5.613-0.451-11.227-0.901-16.841-1.353c0.013-0.451,0.028-0.898,0.045-1.352
			c2.966-0.396,5.932-0.791,8.901-1.187c-0.011-0.272-0.018-0.542-0.025-0.812c-5.312-0.215-10.626-0.425-15.942-0.636
			c0.026-0.543,0.056-1.082,0.081-1.621c3.742-0.049,7.481-0.099,11.224-0.147c0.03-0.507,0.061-1.018,0.09-1.523
			c-5.703-0.352-11.41-0.699-17.113-1.046c0.026-0.24,0.053-0.485,0.078-0.726c2.882-0.442,5.76-0.881,8.639-1.323
			c-2.662-1.024-5.264-0.902-7.856-0.981c-2.452-0.073-4.899-0.357-7.349-0.548c0.027-0.438,0.058-0.871,0.085-1.308
			c2.601-0.249,5.197-0.502,7.794-0.751c-0.009-0.31-0.017-0.622-0.024-0.932c-5.121-0.396-10.242-0.794-15.362-1.188
			c0.059-0.496,0.113-0.993,0.173-1.488c2.111-0.257,4.228-0.511,7.006-0.846c-5.199-1.884-10.713,0.541-15.321-3.778
			c3.615-0.572,6.496-1.025,9.379-1.482c-0.01-0.167-0.02-0.334-0.032-0.498c-3.589-0.146-7.182-0.288-10.77-0.43
			c-0.023-0.422-0.047-0.845-0.075-1.268c2.711-0.464,5.421-0.93,8.131-1.392c-0.029-0.327-0.06-0.65-0.089-0.978
			c-2.8,0.037-5.6,0.073-8.522,0.112c-1.35-11.227-6.795-19.385-15.293-25.726c-0.989-0.736-2.198-2.145-2.136-3.168
			c0.43-6.979-3.274-9.49-9.603-9.549c-0.722-0.005-1.447-0.334-2.16-0.547c-12.983-3.82-26.526-6.14-38.074-15.187
			C324.985,304.255,324.666,302.092,324.438,300.544z"/>
	</defs>
	<clipPath id="SVGID_2_">
		<use xlink:href="#SVGID_1_"  overflow="visible"/>
	</clipPath>
	<path clip-path="url(#SVGID_2_)" fill-rule="evenodd" clip-rule="evenodd" fill="#FFFFFF" d="M511.722,489.906
		c-169.399,2.227-338.798,4.453-508.194,6.68C1.379,333.152-0.769,169.719-2.917,6.286c169.396-2.227,338.795-4.453,508.194-6.68
		C507.426,163.039,509.574,326.473,511.722,489.906z"/>
</g>
<path fill-rule="evenodd" clip-rule="evenodd" d="M324.438,300.544c0.229,1.548,0.548,3.711,0.705,4.775
	c11.548,9.047,25.091,11.366,38.074,15.187c0.713,0.213,1.438,0.542,2.16,0.547c6.328,0.059,10.032,2.569,9.603,9.549
	c-0.063,1.023,1.146,2.432,2.136,3.168c8.498,6.341,13.943,14.499,15.293,25.726c2.923-0.039,5.723-0.075,8.522-0.112
	c0.029,0.327,0.06,0.65,0.089,0.978c-2.71,0.462-5.42,0.928-8.131,1.392c0.028,0.423,0.052,0.846,0.075,1.268
	c3.588,0.142,7.181,0.284,10.77,0.43c0.013,0.164,0.022,0.331,0.032,0.498c-2.883,0.457-5.764,0.91-9.379,1.482
	c4.608,4.319,10.122,1.895,15.321,3.778c-2.778,0.335-4.895,0.589-7.006,0.846c-0.06,0.495-0.114,0.992-0.173,1.488
	c5.12,0.395,10.241,0.793,15.362,1.188c0.008,0.31,0.016,0.622,0.024,0.932c-2.597,0.249-5.193,0.502-7.794,0.751
	c-0.027,0.437-0.058,0.87-0.085,1.308c2.449,0.19,4.896,0.475,7.349,0.548c2.593,0.079,5.194-0.043,7.856,0.981
	c-2.879,0.442-5.757,0.881-8.639,1.323c-0.025,0.24-0.052,0.485-0.078,0.726c5.703,0.347,11.41,0.694,17.113,1.046
	c-0.029,0.506-0.06,1.017-0.09,1.523c-3.742,0.049-7.481,0.099-11.224,0.147c-0.025,0.539-0.055,1.078-0.081,1.621
	c5.316,0.211,10.631,0.421,15.942,0.636c0.008,0.27,0.015,0.539,0.025,0.812c-2.97,0.396-5.936,0.791-8.901,1.187
	c-0.017,0.453-0.032,0.9-0.045,1.352c5.614,0.451,11.228,0.901,16.841,1.353c-0.005,0.247-0.008,0.499-0.012,0.75
	c-2.87,0.188-5.737,0.377-8.608,0.564c-0.045,0.444-0.094,0.89-0.139,1.331c5.189,0.576,10.378,1.148,16.807,1.858
	c-2.358,0.905-3.619,1.392-5.271,2.024c3.426,0.494,6.508,0.94,9.588,1.385c0.015,0.288,0.025,0.575,0.04,0.862
	c-2.408,0.146-4.813,0.289-7.222,0.435c4.931,2.331,11.54-1.317,15.282,5.771c-2.77,0.418-5.168,0.785-7.563,1.147
	c-0.024,0.336-0.053,0.667-0.077,1.003c2.417,0.183,4.833,0.37,7.253,0.556c0.073,0.272,0.148,0.545,0.226,0.816
	c-1.138,0.452-2.278,0.904-3.724,1.477c1.397,1.074,2.651,2.037,4.05,3.107c-4.505,2.444-8.076,1.384-11.399-3.208
	c-0.08,1.396-0.116,1.994-0.151,2.616c-2.951-0.983-5.938-1.979-8.923-2.978c-0.155,0.399-0.311,0.799-0.466,1.194
	c1.185,1.207,2.37,2.415,3.555,3.623c-0.165,0.253-0.325,0.504-0.485,0.757c-3.589-2.047-7.177-4.097-10.769-6.147
	c-0.26,0.387-0.521,0.775-0.781,1.165c1.298,1.526,2.596,3.057,3.891,4.584c-0.218,0.334-0.439,0.665-0.661,0.996
	c-1.642-1.111-3.305-2.196-4.927-3.34c-1.515-1.069-2.985-2.2-4.475-3.306c-0.426,0.503-0.849,1.012-1.276,1.517
	c1.857,1.348,3.714,2.696,5.573,4.044c-0.3,0.387-0.604,0.777-0.905,1.164c-3.308-2.248-6.613-4.495-9.921-6.737
	c-0.188,0.122-0.378,0.249-0.57,0.371c1.483,1.754,2.964,3.504,4.442,5.254c-0.196,0.255-0.394,0.504-0.59,0.758
	c-3.435-2.529-6.869-5.062-10.304-7.591c-0.357,0.456-0.719,0.913-1.077,1.369c1.662,1.772,3.327,3.546,4.993,5.319
	c-0.161,0.238-0.322,0.478-0.483,0.716c-3.508-2.372-7.017-4.747-10.524-7.119c-0.423,0.538-0.846,1.075-1.269,1.613
	c1.926,1.074,3.855,2.147,5.784,3.219c-0.423,0.522-0.846,1.045-1.268,1.567c-3.697-2.271-7.394-4.542-11.091-6.816
	c-0.278,0.336-0.559,0.671-0.838,1.002c1.367,1.795,2.733,3.591,4.354,5.71c-5.886,0.46-6.586-8.514-13.43-6.119
	c1.688,2.021,3.23,3.875,4.776,5.731c-0.215,0.279-0.429,0.562-0.645,0.845c-3.418-2.675-6.832-5.35-10.25-8.024
	c-0.384,0.412-0.772,0.825-1.159,1.238c1.803,2.313,3.607,4.624,5.411,6.935c-0.251,0.292-0.502,0.582-0.758,0.869
	c-2.385-1.932-4.772-3.866-7.544-6.109c0.494,1.083,0.757,1.873,1.184,2.56c9.26,14.934,18.411,29.943,27.915,44.722
	c2.041,3.167,0.268,5.641,0.086,8.422c-0.109,1.676-0.615,3.328-1.046,5.493c-6.342,0.083-101.172-1.721-106.479-1.608
	c-18.923,0.413-37.854,0.341-56.782,0.28c-27.11-0.084-158.257-2.228-161.045-2.067c-2.52,0.139-5.115,0.213-7.575-0.238
	c-2.577-0.476-6.44-0.924-7.254-2.596c-1.804-3.704-3.053-7.457,0.226-12.277c9.711-14.27,18.388-29.247,27.366-44.011
	c1.986-3.268,3.549-6.79,4.99-10.604c-2.841,3.129-5.684,6.254-8.524,9.38c-0.317-0.24-0.631-0.48-0.946-0.72
	c1.615-2.621,3.232-5.246,4.847-7.867c-0.289-0.27-0.578-0.543-0.866-0.815c-2.929,2.668-5.857,5.34-8.787,8.01
	c-0.215-0.15-0.432-0.304-0.646-0.453c1.527-2.352,3.053-4.702,4.583-7.055c-0.312-0.343-0.623-0.685-0.933-1.03
	c-2.997,2.61-5.994,5.221-8.991,7.831c-0.25-0.18-0.499-0.362-0.746-0.54c1.21-2.063,2.421-4.121,3.884-6.605
	c-6.18-0.498-6.904,6.513-12.336,7.367c1.515-2.491,2.861-4.712,4.209-6.93c-0.227-0.351-0.452-0.696-0.678-1.047
	c-3.185,2.718-6.37,5.439-9.555,8.158c-0.298-0.283-0.597-0.563-0.896-0.844c1.443-2.109,2.887-4.219,4.332-6.331
	c-0.215-0.324-0.429-0.646-0.644-0.971c-3.05,2.604-6.104,5.207-9.156,7.811c-0.261-0.226-0.523-0.456-0.784-0.685
	c1.608-2.188,3.214-4.376,5.604-7.626c-6.142,1.336-7.793,7.027-13.445,9.297c2.387-3.224,4.109-5.548,5.832-7.876
	c-0.311-0.385-0.622-0.773-0.931-1.159c-1.752,1.198-3.507,2.397-5.254,3.604c-1.951,1.351-3.894,2.709-6.25,4.35
	c-0.19-1.035-0.322-1.748-0.49-2.662c-1.116,0.273-2.374,0.585-4.744,1.164c1.511-2.775,2.553-4.693,3.975-7.313
	c-3.94,0.361-7.203,0.655-10.463,0.954c-0.061-0.298-0.121-0.592-0.183-0.89c3.281-0.735,6.562-1.474,9.844-2.209
	c-0.069-0.446-0.137-0.894-0.207-1.337c-3.055,0.04-6.111,0.08-9.166,0.12c-0.048-0.396-0.096-0.796-0.145-1.192
	c2.317-0.288,4.633-0.582,6.951-0.859c2.377-0.286,4.759-0.558,7.14-0.837c-0.036-0.407-0.074-0.811-0.11-1.219
	c-3.1,0.041-6.2,0.082-9.3,0.123c-0.033-0.43-0.068-0.859-0.103-1.284c4.753-0.438,9.509-0.871,14.264-1.305
	c-0.034-0.324-0.069-0.647-0.102-0.972c-2.324-0.235-4.65-0.467-6.975-0.702c-0.019-0.316-0.038-0.634-0.056-0.949
	c3.343-0.245,6.688-0.493,10.932-0.804c-1.719-0.953-2.751-1.525-3.786-2.098c-0.013-0.299-0.026-0.598-0.039-0.896
	c3.708-0.285,7.419-0.574,11.127-0.863c-0.02-0.371-0.041-0.742-0.06-1.117c-2.191-0.175-4.38-0.354-6.571-0.529
	c-0.021-0.346-0.042-0.688-0.063-1.033c4.184-0.431,8.369-0.863,12.553-1.298c-0.045-0.505-0.088-1.014-0.133-1.523
	c-2.513-0.149-5.023-0.294-7.537-0.443c-0.003-0.258-0.005-0.517-0.008-0.775c3.524-0.047,7.048-0.093,10.572-0.14
	c0.037-0.229,0.074-0.459,0.113-0.686c-1.972-0.579-3.944-1.153-5.914-1.732c0.018-0.451,0.037-0.906,0.055-1.362
	c4.154-0.055,8.308-0.109,12.46-0.163c0.005-0.438,0.008-0.871,0.012-1.309c-2.621-0.277-5.243-0.553-7.865-0.832
	c0.003-0.473,0.007-0.95,0.012-1.423c4.453-0.059,8.905-0.117,13.355-0.176c-0.005-0.427-0.011-0.853-0.017-1.278
	c-2.401-0.38-4.8-0.756-7.201-1.132c0.017-0.219,0.034-0.435,0.053-0.649c3.954-0.227,7.909-0.449,11.863-0.677
	c-0.001-0.484,0-0.973,0.001-1.46c-2.587-0.545-5.172-1.086-8.674-1.823c5.606-2.32,11.189,1.182,16.315-3.007
	c-3.306-0.575-5.815-1.013-9.277-1.615c5.231-2.425,10.803,1.62,15.016-2.958c-2.978-0.663-5.594-1.247-8.213-1.832
	c0.024-0.511,0.047-1.017,0.069-1.526c4.895-0.064,9.79-0.129,14.685-0.193c-0.046-0.433-0.091-0.865-0.137-1.298
	c-2.784-0.575-5.568-1.146-8.352-1.722c-0.114-0.508-0.228-1.017-0.342-1.524c1.951-1.031,3.814-2.323,5.879-3.01
	c1.847-0.613,4.727,0.168,5.719-0.945c2.221-2.482,4.672-5.668,4.939-8.749c0.288-3.328,1.8-4.211,4.112-5.337
	c12.935-6.303,26.548-10.508,40.569-13.572c1.606-0.354,3.2-1.677,4.361-2.952c3.277-3.597,7.464-4.719,12.04-4.973
	c6.91-0.379,6.912-0.354,9.164-8.156c-2.361,0.031-4.51-0.058-6.638,0.109c-9.646,0.764-18.649-1.813-27.301-5.598
	c-2.029-0.888-4.213-3.241-4.786-5.338c-3.889-14.262-5.441-28.625-0.827-43.148c0.573-1.801-0.161-4.648-1.338-6.229
	c-1.97-2.643-2.167-4.685-0.034-7.107c8.067-9.174,16.627-17.971,24.041-27.647c12.121-15.824,28.746-22.937,47.445-26.71
	c1.013-0.205,1.991-0.576,3.517-1.026c-1.116-0.954-1.858-1.772-2.762-2.336c-7.693-4.798-14.133-10.893-19.343-18.32
	c-0.636-0.907-1.653-1.943-2.648-2.141c-12.991-2.573-17.394-12.436-19.757-23.665c-0.652-3.106,0.654-6.586,0.766-9.905
	c0.059-1.75,0.015-3.883-0.896-5.223c-5.424-7.974-6.643-16.602-5.443-26.018c1.434-11.264,8.037-19.354,15.573-26.889
	c5.781-5.778,11.761-11.393,18.018-16.648c12.326-10.348,26.747-15.65,42.689-17.708c22.271-2.875,41.971,4.735,61.357,13.962
	c2.966,1.411,5.465,3.213,8.98,3.949c2.849,0.596,4.956,4.73,7.969,7.904c1.048-0.145,3.377-0.776,5.669-0.657
	c1.209,0.064,2.354,1.431,3.528,2.21c-0.84,0.925-1.606,1.936-2.546,2.746c-0.767,0.658-1.741,1.075-3.631,2.196
	c14.034,1.712,19.648,11.401,21.71,22.476c2.104,11.318-3.495,21.416-8.806,29.276c0.955,5.043,2.442,8.831,2.225,12.518
	c-0.665,11.43-6.038,20.39-16.011,26.236c-1.467,0.862-3.627,0.542-6.237,0.865c-3.741,10.388-12.522,17.143-22.856,23.436
	c3.741,1.25,6.748,2.333,9.804,3.263c13.838,4.217,25.458,11.491,35.204,22.49c7.403,8.352,13.141,17.631,18.99,26.941
	c3.563,5.671,7.061,11.384,10.591,17.076c2.611,4.215,2.544,5.996-1.817,7.718c-5.448,2.152-6.49,5.953-7.434,11.238
	c-2.055,11.521-5.189,22.861-8.176,34.196c-0.403,1.527-2.344,3.449-3.858,3.754C344.266,297.291,334.517,298.82,324.438,300.544z
	 M336.464,117.08c-0.7,0.761-1.396,1.521-2.096,2.28c-1.184,1.687-2.451,3.322-3.531,5.071c-2.767,4.482-5.301,5.31-11.401,2.708
	c1.028-0.419,1.748-0.5,2.14-0.902c6.69-6.832,5.694-20.544-5.181-23.56c-1.992-0.553-3.859-1.573-5.771-2.402
	c-7.101-3.078-11.761-7.973-12.08-16.15c-0.025-0.617-0.572-1.214-0.633-1.337c-8.012,3.475-15.505,7.677-23.544,9.958
	c-9.102,2.583-21.382-0.05-24.741-4.095c12.586,0.677,23.806-2.498,34.193-8.701c-0.824-0.344-1.57-0.373-2.287-0.239
	c-17.038,3.165-34.075,5.724-51.369,1.565c-1.162-0.281-3.099,0.999-4.113,2.079c-2.41,2.568-4.191,5.766-6.753,8.14
	c-4.367,4.044-9.35,7.431-13.65,11.536c-2.132,2.038-4.052,4.869-4.8,7.679c-1.938,7.27-2.015,14.473,4.696,19.899
	c-7.229,4.22-9.174,3.579-11.916-3.465c-1.134-2.909-2.029-5.996-3.68-8.591c-1.024-1.614-3.514-3.627-4.888-3.333
	c-1.54,0.334-2.882,2.929-3.699,4.805c-0.53,1.221-0.374,3.096,0.183,4.367c2.144,4.88,4.187,9.882,7.047,14.333
	c1.557,2.423,4.688,3.835,7.862,6.282c0.353-2.655,0.49-3.686,0.64-4.811c0.472,0.316,0.779,0.431,0.95,0.65
	c1.187,1.531,2.405,3.043,3.505,4.635c7.83,11.321,17.648,20.179,30.949,24.53c6.056,1.981,11.665,3.903,17.006,8.195
	c6.934,5.572,16.049,4.887,23.471-0.289c6.81-4.749,14.032-7.917,21.849-10.525c13.018-4.342,22.297-13.406,28.461-25.932
	c5.028,2.512,8.537-0.041,10.707-3.716c3.587-6.084,6.582-12.54,9.469-18.999c0.898-2.003,1.565-5.034-1.879-5.825
	C338.446,112.204,336.936,114.167,336.464,117.08z M75.78,451.432c110.633,2.751,220.46,4.814,331.043,4.136
	c-2.801-4.401-5.196-7.972-7.396-11.656c-9.162-15.344-18.282-30.71-27.372-46.095c-1.616-2.734-3.26-4.479-7.037-4.088
	c-3.938,0.412-8.001-0.612-12.011-0.676c-5.853-0.094-11.713,0.11-17.723,0.189c2.889,2.329,5.987,4.271,8.326,6.896
	c1.845,2.065,4.541,6.108,3.774,7.313c-3.842,6.036-7.604,13.503-13.444,16.599c-10.486,5.56-22.161,9.827-33.832,12.024
	c-30.38,5.718-60.743,3.682-90.815-3.424c-11.772-2.78-22.838-6.83-31.581-15.549c-7.99-7.971-10.393-19.687-0.207-27.997
	c0.604-0.489,1.001-1.233,2.083-2.606c-20.474-0.495-40.109-1.02-59.749-1.381c-3.108-0.062-5.093,1.862-5.68,4.375
	c7.753-0.102,15.47-0.677,23.114-0.162c6.788,0.461,13.529,1.949,20.213,3.361c2.516,0.531,5.485,1.793,4.408,5.429
	c-4.041,13.661-8.2,27.282-12.353,40.908c-1.24,4.076-3.78,6.855-8.302,6.787c-6.049-0.088-12.129-0.168-18.12-0.898
	c-1.774-0.213-4.17-2.29-4.766-4.033c-2.878-8.413-5.45-16.947-7.703-25.551c-1.255-4.802-1.676-9.82-2.689-16.074
	C96.91,417.182,86.545,433.979,75.78,451.432z M318.956,56.302c-0.937-2.238-1.667-3.237-1.742-4.285
	c-0.563-7.857-5.651-12.222-12.025-15.375c-20.437-10.111-41.854-12.669-64.287-8.551c-16.477,3.025-31.125,8.993-41.813,22.577
	c-1.086,1.378-2.484,2.604-3.95,3.577c-13.834,9.187-21.683,27.03-17.426,42.826c1.541,5.718,6.032,10.697,9.455,15.826
	c1.995,2.993,4.811,5.443,6.747,8.463c1.5,2.336,2.066,5.254,3.347,7.761c0.48,0.944,1.803,1.458,2.743,2.169
	c0.286-0.368,0.573-0.734,0.857-1.102c-0.207-0.52-0.394-1.051-0.628-1.56c-5.847-12.68-3.37-22.731,7.741-31.345
	c2.238-1.733,4.648-3.278,6.715-5.193c3.038-2.814,5.979-5.765,8.693-8.89c1.747-2.011,1.268-3.71-1.548-4.604
	c-2.851-0.903-5.603-2.111-8.396-3.183c0.156-0.435,0.313-0.871,0.471-1.304c2.354,0.715,4.708,1.431,7.064,2.145
	c13.354,4.037,26.943,7.138,40.865,4.198c10.286-2.173,20.306-5.616,30.452-8.466c1.598-0.449,3.239-0.747,6.03-1.381
	c-4.438,6.991-10.009,10.613-16.068,13.333c-5.911,2.648-12.13,4.605-19.029,7.17c11.519,0.97,20.125-4.173,29.041-8.7
	c9.277-4.71,12.973-14.751,20.875-20.794c-1.873,4.036-4.21,7.728-6.487,11.453c-6.48,10.597-7.009,18.056,6.308,24.43
	c2.278,1.09,4.689,1.916,6.936,3.062c8.268,4.208,11.077,12.196,7.372,20.691c-0.671,1.542-1.342,3.085-2.014,4.627
	c1.384,0.021,2.19-0.346,2.544-0.969c4.611-8.113,8.82-16.474,13.821-24.335c4.228-6.646,6.049-13.827,7.027-21.403
	c0.994-7.734-4.328-17.403-11.487-19.899c-2.842-0.992-6.15-0.591-9.222-1c-1.196-0.159-2.33-0.805-3.494-1.229
	c0.731-0.928,1.332-2.018,2.222-2.752c2.074-1.711,4.29-3.251,6.446-4.858c-0.268-0.488-0.533-0.974-0.798-1.462
	c-2.634,1.271-5.269,2.543-7.935,3.831c-0.324-1.075-0.842-2.809-1.611-5.357C321.46,49.826,320.456,52.417,318.956,56.302z
	 M352.331,344.681c-1.349-0.674-2.569-1.295-3.805-1.897c-2.524-1.227-4.993-2.593-7.589-3.644
	c-11.403-4.609-22.884-2.354-34.248,0.057c-14.558,3.086-29,6.6-44.11,4.698c-8.267-1.042-15.575-3.564-21.107-10.206
	c-1.265-1.516-3.149-3.014-5.005-3.459c-8.482-2.044-16.066,0.196-23.187,5.592c0.895,0.633,1.462,1.081,2.069,1.455
	c11.371,7.053,23.29,13.366,33.989,21.32c14.409,10.709,29.97,18.882,46.843,24.469c11.245,3.723,22.873,7.638,34.887,6.041
	c11.357-1.504,22.344,0.689,33.501,0.979c3.616,0.094,7.994-0.648,10.805-2.688c14.218-10.331,18.407-27.016,8.694-42.421
	c-4.827-7.656-12.188-12.533-19.581-17.315c-0.955-0.618-2.379-1.221-3.359-0.968c-7.805,2.011-15.561,4.229-23.329,6.383
	c-0.024,0.588-0.046,1.174-0.067,1.76C344.559,335.116,350.269,337.032,352.331,344.681z M161.36,330.02
	c0.098-0.566,0.195-1.132,0.293-1.693c-8.661-1.667-17.293-3.513-26.004-4.854c-1.963-0.303-4.598,0.636-6.242,1.895
	c-9.557,7.313-15.935,16.461-15.259,29.174c0.421,7.962,1.931,15.407,9.604,19.952c8.986,5.317,18.557,8.637,29.055,9.128
	c9.06,0.428,18.109,1.044,27.171,1.413c2.321,0.098,4.721-0.189,6.989-0.711c11.148-2.561,22.138-6.292,33.422-7.664
	c15.463-1.878,31.141-2.007,46.417-2.871c0.204,0.282,0.03-0.164-0.293-0.375c-15.562-10.208-30.718-21.126-46.819-30.399
	c-18.665-10.752-38.512-16.964-59.91-6.991c-0.219,0.102-0.561-0.062-1.057-0.127c0.367-0.872,0.679-1.612,1.246-2.959
	c-3.765,1.681-6.851,3.058-9.938,4.438c-0.24-0.525-0.478-1.047-0.716-1.567C153.333,333.879,157.346,331.947,161.36,330.02z
	 M194.22,192.679c0.497-0.024,0.993-0.049,1.49-0.072c0.023,1.739,0.25,3.505,0.029,5.212c-0.595,4.588,1.604,6.378,5.908,6.964
	c13.705,1.862,27.406,3.787,41.05,6.038c3.655,0.602,6.035-0.575,8.936-2.491c12.244-8.095,16.555-6.49,23.032,1.813
	c1.093,1.4,3.483,2.612,5.219,2.542c7.875-0.316,15.746-0.966,23.59-1.801c7.98-0.85,15.907-2.319,23.901-2.959
	c2.681-0.214,3.644-1.027,4.217-3.331c0.543-2.191,1.356-4.316,2.053-6.47c0.436,0.134,0.866,0.267,1.301,0.402
	c0.016,1.143,0.334,2.386-0.002,3.413c-1.993,6.051-4.354,11.988-6.146,18.092c-1.178,4.021-1.967,8.238-2.255,12.414
	c-0.237,3.526,1.79,4.821,5.215,3.083c7.148-3.628,14.313-7.229,21.486-10.806c1.86-0.927,3.787-1.719,5.684-2.573
	c0.235,0.421,0.463,0.84,0.697,1.262c-1.236,0.919-2.364,2.074-3.729,2.722c-8.584,4.072-17.25,7.975-25.807,12.102
	c-1.082,0.522-1.688,2.02-2.517,3.064c1.183,0.481,2.445,1.504,3.528,1.339c2.619-0.401,5.232-1.15,7.706-2.121
	c8.987-3.522,17.643-7.676,25.305-13.963c-4.418-7.312-8.534-14.385-12.93-21.28c-2.308-3.617-4.979-7.031-7.781-10.287
	c-0.746-0.868-2.578-0.805-3.634-1.095c-1.591-2.188-2.876-5.231-5.166-6.885c-10.018-7.238-21.357-11.728-33.348-14.501
	c-3.079-0.709-6.333-0.645-8.677-0.862c-0.919,4.952-1.326,9.173-2.519,13.16c-2.641,8.808-17.541,18.73-26.505,17.417
	c-6.005-0.88-11.919-2.576-17.776-4.252c-6.542-1.872-15.732-13.047-13.347-21.03c0.942-3.153-1.047-3.766-3.771-3.671
	c-12.491,0.428-23.699,5.438-35.067,9.812c-1.779,0.686-3.171,2.381-4.619,3.513c-2.158-2.854-19.894,14.645-25.139,26.461
	c10.668,6.774,20.913,14.392,33.078,18.622c4.268-7.067-2.868-11.412-3.466-17.297c0.902,0.756,1.634,1.371,3.089,2.59
	C195.708,208.288,194.965,200.483,194.22,192.679z M172.881,305.766c5.178,2.193,9.917,4.024,14.508,6.179
	c9.413,4.416,18.599,9.36,28.187,13.346c3.59,1.489,8.08,1.463,12.086,1.159c6.642-0.502,12.394,0.488,16.917,5.862
	c0.973,1.156,2.65,2.434,4.001,2.434c7.998-0.01,16.142,0.495,23.972-0.792c21.139-3.478,40.079-13.296,59.685-22.617
	c-2.286-0.53-4.375-1.282-6.515-1.458c-3.419-0.282-5.242-1.3-4.489-5.271c0.701-3.716-1.374-5.316-5.026-6.44
	c-10.201-3.15-20.403-6.457-30.248-10.552c-6.924-2.884-13.013-7.422-20.839-8.596c-3.626-0.543-6.749-5.119-10.288-5.389
	c-3.53-0.268-7.218,2.818-10.979,3.968c-3.346,1.023-7.245,0.685-10.272,2.202c-11.004,5.509-22.397,9.692-34.576,11.44
	c-4.399,0.634-6.665,3.485-9.009,6.629c-1.698,2.279-1.451,3.726,1.367,4.588c1.614,0.496,3.19,1.12,4.784,1.688
	C188.256,305.734,180.166,301.606,172.881,305.766z M182.464,252.482c-9.126-4.126-18.27-8.259-28.174-12.734
	c-1.429,4.419-3.188,9.094-4.436,13.898c-2.273,8.761,1.484,17.021,2.489,25.514c0.686,5.803,4.465,7.556,9.495,8.895
	c16.09,4.293,31.854,1.978,47.702-1.345c13.584-2.848,25.038-11.686,39.06-13.402c4.06-0.498,5.67-4.27,6.024-8.399
	c1.126-13.149,0.45-26.55,5.397-39.174c0.109-0.271,0.214-0.611,0.148-0.872c-0.38-1.47-0.81-2.924-1.223-4.383
	c-1.181,0.775-2.882,1.282-3.446,2.374c-1.827,3.542-3.411,7.242-4.709,11.011c-0.4,1.162,0.416,2.742,0.761,4.591
	c0.065-0.039-0.385,0.404-0.914,0.537c-0.63,0.161-1.327,0.054-2.816,0.073c2.645-8.477,3.108-17.268,11.982-21.704
	c0.601-0.299,0.827-1.333,1.229-2.024c-0.888-0.178-2.147-0.82-2.598-0.458c-3.077,2.48-6.064,5.09-8.91,7.834
	c-1.039,1.002-1.595,2.499-2.403,3.748c-0.723,1.12-1.489,2.212-2.237,3.315c1.964-7.183,5.438-13.168,11.912-17.097
	c1.856-1.128,3.232-3.054,5.372-5.143c-1.769-0.417-2.106-0.619-2.315-0.529c-9.731,4.183-14.208,13.971-21.785,20.462
	c-0.293,0.253-0.373,0.812-0.453,1.248c-0.791,4.382-1.856,8.742-2.265,13.16c-0.552,5.973-1.092,7.384-7.206,8.317
	c-9.396,1.432-18.871,2.445-28.344,3.218c-8.59,0.699-17.332,0.334-24.929,5.465c-0.28,0.189-0.833-0.024-2.507-0.134
	C176.322,256.292,179.375,254.398,182.464,252.482z M262.815,219.216c-0.664,2.674-1.401,4.424-1.483,6.204
	c-0.328,7.263-0.18,14.558-0.741,21.799c-0.436,5.614-1.852,11.146-2.488,16.755c-0.768,6.779,2.788,12.397,9.479,13.428
	c7.158,1.101,13.174,4.397,19.372,7.574c14.661,7.52,29.96,12.187,46.716,11.282c17.809-0.959,22.091-3.965,26.126-21.081
	c1.817-7.71,2.455-15.699,3.634-23.606c-11.079,2.594-21.179,4.955-31.586,7.389c3.172,2.492,5.924,4.656,8.676,6.819
	c-0.151,0.395-0.3,0.794-0.45,1.189c-19.144-11.411-40.851-6.036-61.394-9.91c0.354-0.984,0.688-1.64,0.829-2.341
	c1.39-6.977,4.807-14.337,3.625-20.857c-1.731-9.536-5.507-19.19-13.476-25.969c-1.337-1.135-3.559-1.224-5.372-1.797
	c9.088,11.066,12.277,18.003,9.991,24.658c-0.849-8.094-2.798-15.065-9.711-19.857c-1.992,3.247-2.165,4.999,0.568,7.457
	c4.658,4.185,5.955,10.079,5.785,16.226C269.596,229.169,268.218,223.831,262.815,219.216z M409.035,459.053
	c-111.68-1.15-223.351-2.301-334.984-3.447c-0.602,6.896-0.474,7.311,5.736,7.552c10.56,0.419,21.129,0.524,31.697,0.706
	c33.041,0.566,66.081,1.229,99.124,1.617c25.447,0.295,50.898,0.128,76.347,0.357c38.263,0.346,76.52,0.874,114.783,1.285
	C408.782,467.201,408.87,467.025,409.035,459.053z M294.226,397.699c-1.789-2.296-2.489-3.459-3.437-4.364
	c-7.976-7.64-17.291-13.237-27.79-16.424c-3.437-1.044-7.971-0.831-11.292,0.534c-9.683,3.987-19.009,8.847-28.303,13.283
	c2.206,2.478,3.705,5.56,6.074,6.537c5.59,2.312,11.594,3.619,18.554,5.666c-7.026,3.479-8.546,8.999-4.666,12.485
	c3.822-8.28,7.796-11.169,14.355-10.433c3.592,0.404,8.024,4.676,8.776,8.453c0.835,4.22-1.056,7.747-5.487,10.22
	c-5.563,3.106-10.682,1.772-17.06-4.047c-2.792,2.604-5.489,5.118-8.326,7.764c16.493,1.199,32.919,3.787,49.431-0.122
	c-5.509-2.222-13.371-3.127-12.435-10.563c0.675-5.405,5.483-10.297,8.448-15.415c0.353,0.199,0.704,0.398,1.057,0.598
	c-0.502-0.835-1.004-1.669-1.154-1.915C285.012,399.271,289.049,398.579,294.226,397.699z M111.435,398.074
	c2.136,11.42,3.215,22.005,6.207,32.02c4.243,14.206,1.027,12.042,16.18,12.848c2.512,0.135,5.152,0.274,7.527-0.357
	c1.702-0.455,3.848-1.886,4.445-3.408c3.359-8.586,6.389-17.304,9.353-26.033c0.999-2.941,1.603-6.037,2.156-9.103
	c0.397-2.212-0.666-3.563-3.048-3.062C140.235,403.914,126.44,402.931,111.435,398.074z M304.414,425.134
	c3.979-0.628,7.544-0.919,10.958-1.798c5.001-1.289,10.056-2.618,14.777-4.647c4.275-1.841,8.583-4.133,12.056-7.16
	c3.86-3.36,2.182-8.294-2.74-9.868c-2.266-0.721-4.537-1.437-6.814-2.129c-12.916-3.926-25.545-3.472-37.485,3.162
	c-3.563,1.98-7.007,4.633-9.653,7.712c-4.339,5.042-2.194,11.102,4.302,12.601C294.701,424.132,299.763,424.484,304.414,425.134z
	 M130.812,383.035c0.021-0.731,0.041-1.467,0.062-2.199c-15.684,0.207-31.367,0.413-47.078,0.619c0.737-2.77,0.867-2.59,6.096-6.293
	c5.592-3.954,10.91-8.303,16.342-12.485c6.139-4.724,6.223-5.001,3.925-12.73c-19.684,13.906-39.315,27.775-60.005,42.39
	c2.236,0.317,2.938,0.482,3.645,0.506c14.284,0.41,28.577,0.611,42.85,1.279c7.052,0.329,13.388,0.235,15.91-8.06
	c0.279-0.917,1.143-1.857,1.99-2.357c1.026-0.599,2.322-1.031,3.5-1.028C122.304,382.682,126.559,382.899,130.812,383.035z
	 M423.271,394.088c-0.284,0.273-0.568,0.547-0.853,0.82c-16.133-0.753-32.266-1.506-48.789-2.276
	c1.177,2.854,2.005,5.742,3.523,8.202c0.858,1.39,2.827,2.9,4.35,2.957c22.755,0.873,45.517,1.521,68.279,2.184
	c1.181,0.035,2.368-0.239,4.771-0.504c-21.444-12.819-41.732-24.947-62.024-37.075c-0.391,0.162-0.782,0.323-1.169,0.485
	c0.556,1.317,0.737,3.173,1.729,3.866c8.545,5.938,17.252,11.64,25.857,17.498C420.525,391.324,421.833,392.797,423.271,394.088z
	 M135.651,319.699c0.073,0.425,0.148,0.854,0.222,1.278c0.513,0.063,1.023,0.15,1.539,0.184c10.441,0.716,20.775,1.771,29.896,7.706
	c1.01,0.656,2.61,0.904,3.82,0.685c11.454-2.048,22.512-0.376,33.34,3.403c4.655,1.624,8.397,0.72,10.868-2.579
	c-10.881-5.945-21.701-12.044-32.722-17.75c-2.666-1.382-6.075-2.305-8.995-2.009c-6.278,0.646-12.52,1.979-18.665,3.482
	C148.452,315.689,142.078,317.809,135.651,319.699z M359.775,322.922c-4.401-1.301-7.696-2.109-10.875-3.244
	c-10.299-3.681-19.771-4.299-30.27,1.396c-14.325,7.77-29.707,13.677-45.886,16.927c-3.047,0.611-6.103,1.206-9.156,1.807
	c23.108,2.576,44.73-4.328,66.189-8.044c0.203-0.385-0.191,0.36-0.586,1.107c0.213,0.357,0.424,0.72,0.637,1.077
	C339.407,330.42,348.983,326.894,359.775,322.922z M195.53,239.774c-11.896-2.835-21.794-8.005-30.688-15.158
	c-7.283-5.854-7.146-5.754-13.399,1.329c-2.388,2.706-1.967,4.25,0.454,6.566c10.108,9.669,22.345,14.972,35.747,17.993
	c3.041,0.687,5.3-0.459,6.191-3.575C194.479,244.683,194.922,242.379,195.53,239.774z M195.049,408.288
	c-2.088-8.42-2.123-8.955,5.026-10.545c5.571-1.243,11.41-1.363,17.147-1.736c2.736-0.179,5.511,0.208,8.267,0.338
	c-4.356-3.015-7.361-8.208-13.46-6.846c-0.505,0.112-1.423-1.864-2.229-2.797c-0.848-0.983-1.699-2.563-2.712-2.702
	c-7.283-1.004-14.367-0.748-21.308,2.526c-3.976,1.877-6.264,4.07-6.393,8.561c-0.083,2.87-0.74,5.727-1.2,9.018
	c-3.887-3.754,1.048-7.373-0.399-11.232c-3.494,2.729-4.139,6.029-3.425,9.669c0.628,3.204,2.262,5.043,5.815,3.216
	c0.167-0.086,0.519,0.28,0.802,0.323C185.415,406.787,189.852,407.476,195.049,408.288z M365.449,229.096
	c-11.697,8.441-23.57,14.922-37.469,17.108c-0.167,1.957-0.169,3.745-0.496,5.476c-0.719,3.829,0.984,4.818,4.435,4.129
	c6.243-1.252,12.688-1.867,18.698-3.817c7.785-2.525,15.228-6.1,23.308-9.425C370.749,237.521,368.25,233.551,365.449,229.096z
	 M330.966,423.175c-49.766,13.529-98.717,11.482-147.495-4.331c1.844,1.774,3.707,3.366,5.859,4.069
	c9.747,3.172,19.396,7.218,29.419,8.841c14.789,2.397,29.843,3.563,44.83,4.249c20.833,0.961,41.346-1.376,60.878-9.367
	C326.721,425.711,328.8,424.34,330.966,423.175z M281.979,222.207c1.336,2.999,3.173,5.42,3.364,7.96
	c0.261,3.542,1.751,4.479,4.756,3.961c10.22-1.767,20.428-3.593,30.619-5.491c0.706-0.131,1.616-0.93,1.833-1.608
	c1.073-3.376,1.945-6.818,3.055-10.844C311.794,223.954,296.834,220.483,281.979,222.207z M283.465,174.292
	c-2.307,1.547-3.732,2.542-5.194,3.475c-3.001,1.911-5.817,4.326-9.077,5.57c-6.507,2.485-12.849,1.174-18.891-2.149
	c-3.109-1.709-6.39-3.106-10.3-4.98c-0.084,7.043,2.268,11.307,7.368,13.976c10.398,5.444,20.456,4.105,30.025-1.989
	C281.909,185.316,284.354,181.086,283.465,174.292z M239.326,219.326c-6.819-0.537-13.474-0.802-20.054-1.648
	c-6.548-0.842-13.023-2.267-19.655-3.458c0.501,7.079,3.012,10.414,8.958,11.736c5.208,1.157,10.479,2.058,15.749,2.912
	c10.976,1.776,10.982,1.734,15.006-8.758C239.378,219.986,239.333,219.825,239.326,219.326z M323.503,234.369
	c-11.843,5.173-23.9,7.569-36.572,6.646c-0.893-0.065-2.458,0.824-2.699,1.586c-0.728,2.314-0.957,4.784-1.482,7.78
	c2.241-0.218,3.835-0.251,5.383-0.551c10.3-1.992,20.592-4.019,30.877-6.084C325.455,242.45,326.026,241.303,323.503,234.369z
	 M112.762,392.816c7.22,8.091,39.326,9.773,46.555,2.502C143.841,390.733,128.762,389.683,112.762,392.816z M390.663,375.838
	c-4.149,5.086-8.001,9.805-12.005,14.712c11.47,0.46,23.208,0.936,34.945,1.407c0.051-0.36,0.097-0.722,0.146-1.083
	C405.946,385.792,398.142,380.709,390.663,375.838z M122.507,378.685c-4.127-5.666-8.058-11.065-12.379-16.998
	c-5.829,4.646-11.931,9.511-18.036,14.376c0.209,0.354,0.416,0.707,0.623,1.066C102.677,377.649,112.638,378.17,122.507,378.685z
	 M232.592,238.75c-0.45-0.289-1.628-1.568-3.01-1.85c-8.136-1.658-16.338-3.006-24.481-4.638c-2.369-0.475-4.242-1.111-5.093,2.149
	c-0.771,2.965,0.021,4.531,2.997,5.144c8.424,1.732,16.838,3.511,25.258,5.263C232.044,245.604,233.058,243.583,232.592,238.75z
	 M279.316,215.509c0.791,4.259,1.021,4.605,5.112,4.418c7.114-0.322,14.271-0.469,21.322-1.379
	c6.587-0.851,13.095-2.459,19.559-4.049c1.489-0.366,2.653-2.027,4.606-3.609C312.306,212.498,295.948,213.99,279.316,215.509z
	 M196.621,236.561c0.008-0.512,0.016-1.025,0.025-1.539c-0.942-0.776-1.787-1.739-2.845-2.295c-2.889-1.513-6.021-2.608-8.783-4.312
	c-6.826-4.209-13.452-8.748-20.293-12.935c-1.015-0.62-2.764-0.043-4.173-0.02c0.275,1.248,0.119,2.958,0.888,3.673
	c9.166,8.521,19.759,14.694,31.718,18.404C194.12,237.835,195.458,236.917,196.621,236.561z M244.799,214.835
	c-0.264-0.259-0.527-0.519-0.791-0.78c-15.655-2.463-31.31-4.928-47.098-7.413c-0.527,3.136,0.995,4.815,3.646,5.189
	c12.904,1.817,25.817,3.588,38.763,5.073C241.044,217.102,242.969,215.567,244.799,214.835z M254.426,407.191
	c-3.806-0.234-7.174,2.964-7.555,7.174c-0.423,4.681,3.162,9.084,7.598,9.335c3.894,0.214,8.534-4.089,8.668-8.038
	C263.273,411.626,259.002,407.477,254.426,407.191z M197.749,408.085c0.435,1.229,0.524,1.84,0.835,2.302
	c4.951,7.393,12.452,9.507,20.738,9.813c0.726,0.027,1.827-0.88,2.177-1.624c1.047-2.224,1.808-4.586,2.837-7.309
	C215.66,410.231,207.05,409.201,197.749,408.085z M288.18,174.261c-2.141,10.803-8.405,17.417-18.938,20.283
	c-10.181,2.769-19.494,0.12-28.71-4.391c0.622,1.434,1.376,2.465,2.335,3.245c10.536,8.559,33.288,6.786,41.9-3.662
	C288.326,185.417,289.674,179.971,288.18,174.261z M179.209,409.166c5.419,6.73,36.464,17.01,44.894,14.77
	c-2.273-1.026-3.721-2.017-5.297-2.305c-2.021-0.37-4.147-0.285-6.222-0.199c-4.444,0.175-7.9-0.974-10.55-5.079
	c-1.656-2.563-4.421-5.359-7.189-6.052C190.077,409.114,184.922,409.488,179.209,409.166z M232.895,424.664
	c3.992-0.037,7.06-2.937,6.907-6.528c-0.13-3.108-4.479-6.528-8.415-6.615c-3.815-0.088-7.666,2.832-7.789,5.899
	C223.464,420.775,228.508,424.707,232.895,424.664z M197.273,401.134c0.147,0.525,0.292,1.052,0.438,1.578
	c6.62-0.087,13.297-0.747,19.845-0.098c6.561,0.649,13.772-0.869,19.482,4.197c0.308,0.272,1.959-0.259,2.175-0.764
	c0.308-0.719,0.18-2.275-0.311-2.57c-1.762-1.073-3.692-1.962-5.667-2.565c-10.646-3.269-21.516-2.387-32.358-1.454
	C199.637,399.565,198.472,400.553,197.273,401.134z M285.828,236.624c-0.068,0.405-0.139,0.814-0.21,1.221
	c1.304,0.282,2.594,0.678,3.911,0.83c11.111,1.279,21.406-2.806,31.991-4.979c0.592-0.121,1.017-1.063,1.52-1.622
	c-0.749-0.445-1.581-1.365-2.238-1.256c-3.663,0.611-7.254,1.623-10.917,2.211C301.881,234.318,293.848,235.436,285.828,236.624z
	 M238.693,380.729c-0.156-0.628-0.308-1.253-0.462-1.881c-9.408,0.726-18.816,1.453-28.465,2.195
	c1.912,5.105,1.906,5.073,6.317,4.433c4.687-0.681,9.42-1.107,14.063-2.009C233.063,382.9,235.849,381.666,238.693,380.729z
	 M284.124,383.803c7.68,8.023,27.454,12.373,38.128,9.985C310.977,390.834,298.155,387.475,284.124,383.803z M232.178,407.574
	c-9.194-4.164-24.863-5.215-31.544-2.086C211.42,408.703,221.671,409.362,232.178,407.574z M281.541,252.676
	c-0.032,0.562-0.068,1.119-0.101,1.677c1.47,0.192,3.006,0.765,4.397,0.518c11.93-2.134,23.836-4.384,35.727-6.721
	c0.991-0.195,1.804-1.311,2.697-1.998c-1.287-0.138-2.644-0.617-3.846-0.359c-7.92,1.705-15.764,3.792-23.723,5.298
	C291.721,252.032,286.597,252.177,281.541,252.676z M324.026,249.832c-8.217,1.983-15.59,3.761-22.966,5.542
	c0.022,0.251,0.04,0.498,0.062,0.749c7.386,0.365,14.767,0.731,22.426,1.11C323.721,254.544,323.851,252.528,324.026,249.832z
	 M198.171,241.239c5.199,6.424,22.135,9.3,28.55,5.893C217.586,245.248,208.451,243.361,198.171,241.239z M233.263,234.916
	c0.138-0.723,0.276-1.447,0.414-2.172c-9.637-1.499-19.273-2.998-28.909-4.498c-0.083,0.48-0.166,0.96-0.249,1.44
	C214.005,231.952,223.349,235.013,233.263,234.916z M288.762,403.896c-0.289-0.361-0.574-0.718-0.863-1.078
	c-3.579,2.151-7.562,3.847-10.644,6.56c-3.96,3.489-2.813,8.98,1.784,10.762C278.553,412.595,282.169,407.388,288.762,403.896z
	 M209.263,250.122c0.032-0.487,0.062-0.973,0.092-1.458c-2.982-0.629-5.945-1.4-8.958-1.779c-0.688-0.088-1.545,1.171-2.323,1.81
	c0.717,0.708,1.434,2.013,2.156,2.018C203.241,250.728,206.253,250.353,209.263,250.122z"/>
<path fill-rule="evenodd" clip-rule="evenodd" fill="#FFFFFF" d="M336.464,117.08c0.472-2.914,1.982-4.876,5.116-4.158
	c3.444,0.791,2.777,3.822,1.879,5.825c-2.887,6.459-5.882,12.915-9.469,18.999c-2.17,3.675-5.679,6.229-10.707,3.716
	c-6.164,12.525-15.443,21.59-28.461,25.932c-7.816,2.608-15.039,5.776-21.849,10.525c-7.422,5.175-16.537,5.861-23.471,0.289
	c-5.341-4.292-10.95-6.214-17.006-8.195c-13.3-4.351-23.119-13.208-30.949-24.53c-1.101-1.592-2.318-3.104-3.505-4.635
	c-0.17-0.219-0.478-0.334-0.95-0.65c-0.149,1.125-0.287,2.156-0.64,4.811c-3.174-2.447-6.305-3.858-7.862-6.282
	c-2.86-4.451-4.903-9.453-7.047-14.333c-0.557-1.271-0.713-3.146-0.183-4.367c0.817-1.875,2.159-4.471,3.699-4.805
	c1.374-0.294,3.864,1.719,4.888,3.333c1.65,2.595,2.545,5.682,3.68,8.591c2.741,7.044,4.687,7.685,11.916,3.465
	c-6.711-5.427-6.635-12.63-4.696-19.899c0.748-2.811,2.667-5.641,4.8-7.679c4.301-4.105,9.283-7.492,13.65-11.536
	c2.562-2.374,4.344-5.572,6.753-8.14c1.014-1.08,2.951-2.36,4.113-2.079c17.294,4.159,34.331,1.599,51.369-1.565
	c0.717-0.133,1.463-0.104,2.287,0.239c-10.388,6.203-21.607,9.378-34.193,8.701c3.359,4.045,15.64,6.678,24.741,4.095
	c8.039-2.281,15.532-6.484,23.544-9.958c0.061,0.123,0.607,0.72,0.633,1.337c0.319,8.178,4.979,13.072,12.08,16.15
	c1.911,0.829,3.778,1.849,5.771,2.402c10.875,3.016,11.871,16.728,5.181,23.56c-0.392,0.402-1.111,0.483-2.14,0.902
	c6.101,2.602,8.635,1.774,11.401-2.708c1.08-1.749,2.348-3.385,3.531-5.071c1.274,6.388-5.104,9.061-7.122,13.901
	c4.362-2.211,10.127-2.698,9.705-9.6c-0.088-1.411,1.749-2.941,2.695-4.419c0.617-0.969,1.23-1.942,1.844-2.915
	c-0.285-0.33-0.569-0.661-0.858-0.992C339.242,115.917,337.852,116.498,336.464,117.08z M237.68,152.85
	c2.762,0.745,4.81,1.1,6.706,1.845c6.884,2.708,13.862,3.139,20.999,1.237c5.207-1.386,10.142-4.366,15.887-2.745
	c0.205,0.058,0.583-0.524,0.879-0.805c-2.243-2.5-4.413-4.915-7.154-7.966c0.573,5.971-3.258,7.347-7.21,8.316
	c-2.867,0.704-5.877,1.388-8.784,1.244c-6.563-0.323-14.355,1.591-17.1-8.915C240.187,148.227,238.971,150.47,237.68,152.85z
	 M219.305,121.531c6.122,9.076,26.864,8.699,31.888-0.528c-5.569,1.388-10.489,3.531-15.437,3.595
	C230.546,124.665,225.309,122.743,219.305,121.531z M272.775,122.063c6.371,7.645,18.754,7.833,25.719,1.395
	c0.924-0.855,1.011-2.619,1.488-3.963c-1.296,0.37-2.949,0.352-3.823,1.17c-5.715,5.368-12.027,4.946-18.724,2.423
	C275.964,122.535,274.334,122.394,272.775,122.063z M265.395,160.555c-3.783,0.05-7.106,0.093-10.882,0.143
	c1.16,1.829,2.001,3.158,2.829,4.467c-0.852,1.063-1.594,1.989-2.535,3.166C263.845,167.835,263.877,167.815,265.395,160.555z
	 M184.552,120.08c1.174,2.175,3.548,4.538,3.467,6.813c-0.219,5.921,0.426,7.473,7.168,8.462c-1.454-1.596-2.908-3.191-4.513-4.953
	C192.165,122.789,189.501,118.746,184.552,120.08z M291.264,107.486c-2.299-6.462-9.78-8.27-14.688-3.178
	C281.685,105.413,286.322,106.417,291.264,107.486z M230.968,109.251c3.363-1.063,6.566-1.981,9.692-3.115
	c1.065-0.385,1.935-1.313,2.894-1.993c-1.139-0.763-2.211-2.024-3.432-2.19C237.066,101.541,232.292,105.445,230.968,109.251z
	 M254.021,139.67c2.3,4.612,8.94,5.106,12.325,1.067C262.202,140.378,258.225,140.034,254.021,139.67z"/>
<path fill-rule="evenodd" clip-rule="evenodd" fill="#FFFFFF" d="M75.78,451.432c10.765-17.452,21.129-34.25,32.185-52.173
	c1.013,6.254,1.434,11.272,2.689,16.074c2.252,8.604,4.825,17.138,7.703,25.551c0.596,1.743,2.992,3.82,4.766,4.033
	c5.991,0.73,12.07,0.811,18.12,0.898c4.521,0.068,7.062-2.711,8.302-6.787c4.152-13.626,8.312-27.247,12.353-40.908
	c1.077-3.636-1.892-4.897-4.408-5.429c-6.684-1.412-13.425-2.9-20.213-3.361c-7.644-0.515-15.361,0.061-23.114,0.162
	c0.586-2.513,2.571-4.437,5.68-4.375c19.64,0.361,39.275,0.886,59.749,1.381c-1.082,1.373-1.48,2.117-2.083,2.606
	c-10.186,8.311-7.784,20.026,0.207,27.997c8.742,8.719,19.808,12.769,31.581,15.549c30.072,7.105,60.435,9.142,90.815,3.424
	c11.671-2.197,23.346-6.465,33.832-12.024c5.841-3.096,9.603-10.563,13.444-16.599c0.767-1.205-1.93-5.248-3.774-7.313
	c-2.339-2.624-5.438-4.566-8.326-6.896c6.01-0.079,11.87-0.283,17.723-0.189c4.01,0.063,8.072,1.088,12.011,0.676
	c3.777-0.392,5.421,1.354,7.037,4.088c9.09,15.385,18.21,30.751,27.372,46.095c2.2,3.685,4.596,7.255,7.396,11.656
	C296.24,456.246,186.413,454.183,75.78,451.432z"/>
<path fill-rule="evenodd" clip-rule="evenodd" fill="#FFFFFF" d="M318.956,56.302c1.5-3.885,2.504-6.476,3.81-9.861
	c0.77,2.548,1.287,4.282,1.611,5.357c2.666-1.288,5.301-2.561,7.935-3.831c0.265,0.488,0.53,0.974,0.798,1.462
	c-2.156,1.607-4.372,3.147-6.446,4.858c-0.89,0.734-1.49,1.824-2.222,2.752c1.164,0.424,2.298,1.07,3.494,1.229
	c3.071,0.409,6.38,0.009,9.222,1c7.159,2.496,12.481,12.165,11.487,19.899c-0.979,7.576-2.8,14.756-7.027,21.403
	c-5.001,7.861-9.21,16.223-13.821,24.335c-0.354,0.624-1.16,0.99-2.544,0.969c0.672-1.542,1.343-3.085,2.014-4.627
	c3.705-8.495,0.896-16.483-7.372-20.691c-2.246-1.146-4.657-1.972-6.936-3.062c-13.316-6.374-12.788-13.833-6.308-24.43
	c2.277-3.726,4.614-7.417,6.487-11.453c-7.902,6.043-11.598,16.084-20.875,20.794c-8.916,4.527-17.522,9.67-29.041,8.7
	c6.899-2.565,13.118-4.522,19.029-7.17c6.06-2.72,11.631-6.341,16.068-13.333c-2.791,0.634-4.433,0.932-6.03,1.381
	c-10.146,2.85-20.166,6.293-30.452,8.466c-13.922,2.939-27.51-0.161-40.865-4.198c-2.356-0.714-4.71-1.43-7.064-2.145
	c-0.158,0.433-0.315,0.869-0.471,1.304c2.794,1.072,5.546,2.28,8.396,3.183c2.815,0.894,3.295,2.593,1.548,4.604
	c-2.713,3.125-5.655,6.076-8.693,8.89c-2.067,1.915-4.477,3.459-6.715,5.193c-11.111,8.614-13.588,18.665-7.741,31.345
	c0.234,0.508,0.421,1.04,0.628,1.56c-0.285,0.368-0.571,0.733-0.857,1.102c-0.94-0.71-2.263-1.225-2.743-2.169
	c-1.28-2.506-1.846-5.425-3.347-7.761c-1.937-3.02-4.752-5.47-6.747-8.463c-3.423-5.129-7.914-10.108-9.455-15.826
	c-4.257-15.796,3.592-33.64,17.426-42.826c1.465-0.973,2.864-2.198,3.95-3.577c10.688-13.583,25.337-19.551,41.813-22.577
	c22.433-4.119,43.851-1.56,64.287,8.551c6.374,3.153,11.463,7.518,12.025,15.375C317.289,53.065,318.02,54.064,318.956,56.302z"/>
<path fill-rule="evenodd" clip-rule="evenodd" fill="#FFFFFF" d="M352.331,344.681c-2.063-7.648-7.772-9.564-14.6-9.844
	c0.021-0.586,0.043-1.172,0.067-1.76c7.769-2.154,15.524-4.372,23.329-6.383c0.98-0.253,2.404,0.35,3.359,0.968
	c7.393,4.782,14.754,9.659,19.581,17.315c9.713,15.405,5.523,32.09-8.694,42.421c-2.811,2.039-7.188,2.781-10.805,2.688
	c-11.157-0.29-22.144-2.483-33.501-0.979c-12.014,1.597-23.642-2.318-34.887-6.041c-16.873-5.587-32.435-13.76-46.843-24.469
	c-10.699-7.954-22.618-14.268-33.989-21.32c-0.607-0.374-1.174-0.822-2.069-1.455c7.12-5.396,14.705-7.636,23.187-5.592
	c1.855,0.445,3.74,1.943,5.005,3.459c5.533,6.642,12.841,9.164,21.107,10.206c15.11,1.901,29.553-1.612,44.11-4.698
	c11.364-2.411,22.845-4.666,34.248-0.057c2.596,1.051,5.064,2.417,7.589,3.644C349.762,343.386,350.982,344.007,352.331,344.681z"/>
<path fill-rule="evenodd" clip-rule="evenodd" fill="#FFFFFF" d="M161.36,330.02c-4.015,1.928-8.027,3.859-12.042,5.787
	c0.238,0.521,0.476,1.042,0.716,1.567c3.087-1.381,6.174-2.758,9.938-4.438c-0.567,1.347-0.879,2.087-1.246,2.959
	c0.496,0.065,0.838,0.229,1.057,0.127c21.398-9.973,41.246-3.761,59.91,6.991c16.102,9.273,31.257,20.191,46.819,30.399
	c0.323,0.211,0.497,0.657,0.293,0.375c-15.276,0.864-30.954,0.993-46.417,2.871c-11.284,1.372-22.274,5.104-33.422,7.664
	c-2.269,0.521-4.668,0.809-6.989,0.711c-9.062-0.369-18.111-0.985-27.171-1.413c-10.499-0.491-20.069-3.811-29.055-9.128
	c-7.673-4.545-9.182-11.99-9.604-19.952c-0.675-12.713,5.703-21.86,15.259-29.174c1.644-1.259,4.279-2.197,6.242-1.895
	c8.711,1.342,17.343,3.188,26.004,4.854C161.555,328.888,161.458,329.453,161.36,330.02z"/>
<path fill-rule="evenodd" clip-rule="evenodd" fill="#FFFFFF" d="M194.22,192.679c0.745,7.805,1.489,15.609,2.316,24.288
	c-1.455-1.219-2.187-1.833-3.089-2.59c0.598,5.885,7.733,10.23,3.466,17.297c-12.165-4.229-22.409-11.847-33.078-18.622
	c5.245-11.817,22.98-29.315,25.139-26.461c1.447-1.132,2.84-2.827,4.619-3.513c11.369-4.373,22.576-9.384,35.067-9.812
	c2.724-0.094,4.713,0.519,3.771,3.671c-2.385,7.982,6.804,19.158,13.347,21.03c5.857,1.676,11.771,3.372,17.776,4.252
	c8.964,1.313,23.864-8.608,26.505-17.417c1.192-3.986,1.6-8.208,2.519-13.16c2.344,0.217,5.598,0.152,8.677,0.862
	c11.99,2.774,23.33,7.263,33.348,14.501c2.29,1.654,3.575,4.698,5.166,6.885c1.056,0.29,2.888,0.228,3.634,1.095
	c2.803,3.255,5.474,6.67,7.781,10.287c4.396,6.895,8.512,13.968,12.93,21.28c-7.662,6.287-16.317,10.441-25.305,13.963
	c-2.474,0.97-5.087,1.72-7.706,2.121c-1.083,0.165-2.346-0.858-3.528-1.339c0.828-1.045,1.435-2.542,2.517-3.064
	c8.557-4.127,17.223-8.03,25.807-12.102c1.364-0.648,2.492-1.803,3.729-2.722c-0.234-0.421-0.462-0.84-0.697-1.262
	c-1.896,0.854-3.823,1.646-5.684,2.573c-7.173,3.577-14.338,7.178-21.486,10.806c-3.425,1.738-5.452,0.443-5.215-3.083
	c0.288-4.175,1.077-8.393,2.255-12.414c1.791-6.104,4.152-12.042,6.146-18.092c0.336-1.027,0.018-2.271,0.002-3.413
	c-0.435-0.135-0.865-0.268-1.301-0.402c-0.696,2.154-1.51,4.278-2.053,6.47c-0.573,2.304-1.536,3.117-4.217,3.331
	c-7.994,0.64-15.921,2.11-23.901,2.959c-7.844,0.835-15.715,1.484-23.59,1.801c-1.735,0.07-4.126-1.142-5.219-2.542
	c-6.478-8.302-10.788-9.908-23.032-1.813c-2.901,1.917-5.281,3.093-8.936,2.491c-13.644-2.251-27.346-4.176-41.05-6.038
	c-4.304-0.586-6.503-2.376-5.908-6.964c0.222-1.708-0.006-3.474-0.029-5.212C195.213,192.63,194.717,192.654,194.22,192.679z"/>
<path fill-rule="evenodd" clip-rule="evenodd" fill="#FFFFFF" d="M172.881,305.766c7.285-4.159,15.375-0.031,23.267-1.62
	c-1.594-0.568-3.169-1.192-4.784-1.688c-2.818-0.862-3.065-2.309-1.367-4.588c2.344-3.144,4.609-5.995,9.009-6.629
	c12.179-1.748,23.571-5.932,34.576-11.44c3.028-1.518,6.927-1.179,10.272-2.202c3.76-1.149,7.448-4.235,10.979-3.968
	c3.539,0.27,6.662,4.846,10.288,5.389c7.826,1.174,13.915,5.712,20.839,8.596c9.845,4.095,20.047,7.401,30.248,10.552
	c3.652,1.124,5.728,2.725,5.026,6.44c-0.753,3.972,1.07,4.989,4.489,5.271c2.14,0.176,4.229,0.928,6.515,1.458
	c-19.605,9.321-38.546,19.14-59.685,22.617c-7.83,1.287-15.975,0.782-23.972,0.792c-1.351,0-3.028-1.277-4.001-2.434
	c-4.524-5.374-10.275-6.364-16.917-5.862c-4.007,0.304-8.496,0.33-12.086-1.159c-9.588-3.985-18.774-8.93-28.187-13.346
	C182.798,309.79,178.059,307.959,172.881,305.766z M294.817,310.547c0.015-0.259,0.025-0.515,0.041-0.77
	c-4.992,1.18-10.168,1.863-14.944,3.631c-13.385,4.964-26.771,6.253-40.624,2.121c-6.54-1.95-13.209-3.664-19.941-4.682
	c-4.63-0.701-9.471-0.022-14.216,0.04c5.136,1.152,10.304,1.037,15.25,2.028c7.117,1.425,14.07,3.671,21.101,5.537
	c8.598,2.287,17.349,3.275,25.993,0.864C276.688,316.745,285.713,313.499,294.817,310.547z M274.887,305.668
	c-5.303,0.473-10.611,1.358-15.909,1.305c-5.242-0.052-10.59-0.579-15.686-1.768c-4.951-1.155-9.647-3.417-14.453-5.191
	C246.193,311.564,259.863,314.873,274.887,305.668z M197.952,294.641c0.694,5.405,9.193,10.839,15.653,9.913
	C208.644,301.411,203.229,297.982,197.952,294.641z M309.192,298.905c-3.135,2.481-6.311,4.988-9.993,7.903
	C307.362,305.598,309.842,303.464,309.192,298.905z"/>
<path fill-rule="evenodd" clip-rule="evenodd" fill="#FFFFFF" d="M182.464,252.482c-3.088,1.916-6.142,3.81-10.097,6.261
	c1.674,0.109,2.227,0.323,2.507,0.134c7.597-5.131,16.339-4.766,24.929-5.465c9.473-0.772,18.949-1.786,28.344-3.218
	c6.114-0.933,6.654-2.344,7.206-8.317c0.408-4.418,1.474-8.778,2.265-13.16c0.08-0.436,0.16-0.994,0.453-1.248
	c7.576-6.492,12.053-16.28,21.785-20.462c0.209-0.09,0.547,0.111,2.315,0.529c-2.14,2.089-3.516,4.015-5.372,5.143
	c-6.474,3.928-9.947,9.914-11.912,17.097c0.748-1.104,1.515-2.195,2.237-3.315c0.808-1.249,1.364-2.745,2.403-3.748
	c2.846-2.745,5.833-5.354,8.91-7.834c0.45-0.363,1.71,0.28,2.598,0.458c-0.402,0.691-0.629,1.725-1.229,2.024
	c-8.874,4.437-9.337,13.227-11.982,21.704c1.489-0.02,2.186,0.088,2.816-0.073c0.529-0.133,0.979-0.575,0.914-0.537
	c-0.345-1.849-1.161-3.429-0.761-4.591c1.298-3.769,2.882-7.469,4.709-11.011c0.564-1.092,2.266-1.599,3.446-2.374
	c0.413,1.458,0.843,2.913,1.223,4.383c0.065,0.261-0.039,0.601-0.148,0.872c-4.947,12.624-4.271,26.025-5.397,39.174
	c-0.354,4.13-1.965,7.901-6.024,8.399c-14.021,1.717-25.475,10.555-39.06,13.402c-15.849,3.322-31.612,5.638-47.702,1.345
	c-5.03-1.339-8.809-3.092-9.495-8.895c-1.005-8.493-4.763-16.753-2.489-25.514c1.248-4.805,3.007-9.479,4.436-13.898
	C164.194,244.224,173.337,248.356,182.464,252.482z"/>
<path fill-rule="evenodd" clip-rule="evenodd" fill="#FFFFFF" d="M262.815,219.216c5.402,4.615,6.78,9.953,8.101,15.362
	c0.17-6.147-1.127-12.042-5.785-16.226c-2.733-2.458-2.561-4.21-0.568-7.457c6.913,4.792,8.862,11.763,9.711,19.857
	c2.286-6.655-0.903-13.592-9.991-24.658c1.813,0.573,4.035,0.663,5.372,1.797c7.969,6.778,11.744,16.433,13.476,25.969
	c1.182,6.52-2.235,13.88-3.625,20.857c-0.141,0.701-0.475,1.356-0.829,2.341c20.543,3.874,42.25-1.501,61.394,9.91
	c0.15-0.396,0.299-0.795,0.45-1.189c-2.752-2.163-5.504-4.327-8.676-6.819c10.407-2.434,20.507-4.795,31.586-7.389
	c-1.179,7.907-1.816,15.896-3.634,23.606c-4.035,17.116-8.317,20.122-26.126,21.081c-16.756,0.904-32.055-3.763-46.716-11.282
	c-6.198-3.177-12.214-6.474-19.372-7.574c-6.691-1.03-10.247-6.648-9.479-13.428c0.637-5.608,2.053-11.141,2.488-16.755
	c0.562-7.241,0.413-14.536,0.741-21.799C261.414,223.64,262.151,221.89,262.815,219.216z"/>
<path fill-rule="evenodd" clip-rule="evenodd" fill="#FFFFFF" d="M409.035,459.053c-0.165,7.973-0.253,8.148-7.297,8.07
	c-38.264-0.411-76.521-0.939-114.783-1.285c-25.449-0.229-50.9-0.063-76.347-0.357c-33.043-0.389-66.083-1.051-99.124-1.617
	c-10.568-0.182-21.138-0.287-31.697-0.706c-6.209-0.241-6.337-0.655-5.736-7.552C185.684,456.752,297.355,457.902,409.035,459.053z"
	/>
<path fill-rule="evenodd" clip-rule="evenodd" fill="#FFFFFF" d="M294.226,397.699c-5.177,0.88-9.214,1.571-13.254,2.257
	c0.15,0.246,0.652,1.08,1.154,1.915c-0.353-0.199-0.704-0.398-1.057-0.598c-2.965,5.118-7.773,10.01-8.448,15.415
	c-0.937,7.437,6.926,8.342,12.435,10.563c-16.512,3.909-32.938,1.321-49.431,0.122c2.836-2.646,5.534-5.159,8.326-7.764
	c6.377,5.819,11.496,7.153,17.06,4.047c4.432-2.473,6.322-6,5.487-10.22c-0.752-3.777-5.185-8.049-8.776-8.453
	c-6.56-0.736-10.534,2.152-14.355,10.433c-3.88-3.486-2.36-9.007,4.666-12.485c-6.959-2.047-12.963-3.354-18.554-5.666
	c-2.369-0.978-3.868-4.06-6.074-6.537c9.294-4.437,18.621-9.296,28.303-13.283c3.321-1.365,7.855-1.578,11.292-0.534
	c10.499,3.187,19.814,8.784,27.79,16.424C291.736,394.24,292.437,395.403,294.226,397.699z M271.743,402.284
	c2.347-0.955,4.104-1.671,6.679-2.717c-3.298-1.303-5.534-2.188-8.744-3.456C270.497,398.558,271.027,400.135,271.743,402.284z"/>
<path fill-rule="evenodd" clip-rule="evenodd" fill="#FFFFFF" d="M111.435,398.074c15.005,4.856,28.8,5.84,42.819,2.904
	c2.382-0.502,3.445,0.85,3.048,3.062c-0.553,3.065-1.157,6.161-2.156,9.103c-2.964,8.729-5.994,17.447-9.353,26.033
	c-0.597,1.522-2.743,2.953-4.445,3.408c-2.375,0.632-5.015,0.492-7.527,0.357c-15.153-0.806-11.937,1.358-16.18-12.848
	C114.649,420.079,113.571,409.494,111.435,398.074z"/>
<path fill-rule="evenodd" clip-rule="evenodd" fill="#FFFFFF" d="M304.414,425.134c-4.651-0.649-9.713-1.002-14.601-2.128
	c-6.496-1.499-8.641-7.559-4.302-12.601c2.646-3.079,6.09-5.731,9.653-7.712c11.94-6.634,24.569-7.088,37.485-3.162
	c2.277,0.692,4.549,1.408,6.814,2.129c4.922,1.574,6.601,6.508,2.74,9.868c-3.473,3.027-7.78,5.319-12.056,7.16
	c-4.722,2.029-9.776,3.358-14.777,4.647C311.958,424.215,308.393,424.506,304.414,425.134z"/>
<path fill-rule="evenodd" clip-rule="evenodd" fill="#FFFFFF" d="M130.812,383.035c-4.253-0.136-8.508-0.354-12.764-0.359
	c-1.178-0.003-2.474,0.43-3.5,1.028c-0.848,0.5-1.711,1.44-1.99,2.357c-2.521,8.295-8.858,8.389-15.91,8.06
	c-14.273-0.668-28.566-0.869-42.85-1.279c-0.707-0.023-1.408-0.188-3.645-0.506c20.69-14.614,40.322-28.483,60.005-42.39
	c2.297,7.729,2.213,8.007-3.925,12.73c-5.432,4.183-10.75,8.531-16.342,12.485c-5.229,3.703-5.359,3.523-6.096,6.293
	c15.711-0.206,31.395-0.412,47.078-0.619C130.853,381.568,130.833,382.304,130.812,383.035z"/>
<path fill-rule="evenodd" clip-rule="evenodd" fill="#FFFFFF" d="M423.271,394.088c-1.438-1.291-2.745-2.764-4.325-3.843
	c-8.605-5.858-17.313-11.56-25.857-17.498c-0.991-0.693-1.173-2.549-1.729-3.866c0.387-0.162,0.778-0.323,1.169-0.485
	c20.292,12.128,40.58,24.256,62.024,37.075c-2.403,0.265-3.591,0.539-4.771,0.504c-22.763-0.663-45.524-1.311-68.279-2.184
	c-1.522-0.057-3.491-1.567-4.35-2.957c-1.519-2.46-2.347-5.348-3.523-8.202c16.523,0.771,32.656,1.523,48.789,2.276
	C422.702,394.635,422.986,394.361,423.271,394.088z"/>
<path fill-rule="evenodd" clip-rule="evenodd" fill="#FFFFFF" d="M135.651,319.699c6.427-1.891,12.801-4.01,19.303-5.6
	c6.145-1.504,12.387-2.836,18.665-3.482c2.919-0.296,6.329,0.627,8.995,2.009c11.021,5.706,21.84,11.805,32.722,17.75
	c-2.47,3.299-6.213,4.203-10.868,2.579c-10.828-3.779-21.886-5.451-33.34-3.403c-1.209,0.22-2.81-0.028-3.82-0.685
	c-9.121-5.936-19.454-6.99-29.896-7.706c-0.516-0.033-1.026-0.121-1.539-0.184C135.799,320.553,135.724,320.124,135.651,319.699z
	 M160.006,321.88c0.106-0.605,0.213-1.208,0.318-1.813c-4.023-0.552-7.615-3.727-12.192-0.902
	C152.09,320.068,156.049,320.975,160.006,321.88z"/>
<path fill-rule="evenodd" clip-rule="evenodd" fill="#FFFFFF" d="M359.775,322.922c-10.792,3.972-20.368,7.498-29.946,11.025
	c-0.213-0.357-0.424-0.72-0.637-1.077c0.395-0.747,0.789-1.492,0.586-1.107c-21.459,3.716-43.081,10.62-66.189,8.044
	c3.054-0.601,6.109-1.195,9.156-1.807c16.179-3.25,31.561-9.157,45.886-16.927c10.499-5.694,19.971-5.076,30.27-1.396
	C352.079,320.813,355.374,321.621,359.775,322.922z"/>
<path fill-rule="evenodd" clip-rule="evenodd" fill="#FFFFFF" d="M195.53,239.774c-0.608,2.605-1.051,4.909-1.695,7.155
	c-0.891,3.116-3.15,4.262-6.191,3.575c-13.402-3.021-25.639-8.323-35.747-17.993c-2.421-2.317-2.842-3.86-0.454-6.566
	c6.253-7.083,6.116-7.183,13.399-1.329C173.736,231.769,183.634,236.938,195.53,239.774z"/>
<path fill-rule="evenodd" clip-rule="evenodd" fill="#FFFFFF" d="M195.049,408.288c-5.198-0.813-9.634-1.501-14.068-2.208
	c-0.283-0.043-0.635-0.409-0.802-0.323c-3.554,1.827-5.187-0.012-5.815-3.216c-0.714-3.64-0.069-6.939,3.425-9.669
	c1.447,3.859-3.488,7.479,0.399,11.232c0.459-3.291,1.117-6.147,1.2-9.018c0.128-4.49,2.417-6.684,6.393-8.561
	c6.94-3.274,14.025-3.53,21.308-2.526c1.013,0.139,1.864,1.719,2.712,2.702c0.806,0.933,1.724,2.909,2.229,2.797
	c6.099-1.362,9.104,3.831,13.46,6.846c-2.756-0.13-5.53-0.517-8.267-0.338c-5.737,0.373-11.576,0.493-17.147,1.736
	C192.927,399.333,192.961,399.868,195.049,408.288z"/>
<path fill-rule="evenodd" clip-rule="evenodd" fill="#FFFFFF" d="M365.449,229.096c2.801,4.455,5.3,8.425,8.476,13.47
	c-8.08,3.325-15.522,6.9-23.308,9.425c-6.011,1.95-12.455,2.565-18.698,3.817c-3.45,0.689-5.153-0.3-4.435-4.129
	c0.327-1.731,0.329-3.519,0.496-5.476C341.879,244.018,353.752,237.537,365.449,229.096z"/>
<path fill-rule="evenodd" clip-rule="evenodd" fill="#FFFFFF" d="M330.966,423.175c-2.166,1.165-4.245,2.536-6.509,3.461
	c-19.532,7.991-40.045,10.328-60.878,9.367c-14.987-0.687-30.041-1.852-44.83-4.249c-10.024-1.623-19.672-5.669-29.419-8.841
	c-2.152-0.703-4.015-2.295-5.859-4.069C232.249,434.657,281.2,436.704,330.966,423.175z"/>
<path fill-rule="evenodd" clip-rule="evenodd" fill="#FFFFFF" d="M281.979,222.207c14.855-1.723,29.815,1.747,43.627-6.021
	c-1.109,4.026-1.981,7.467-3.055,10.844c-0.217,0.678-1.127,1.477-1.833,1.608c-10.191,1.898-20.399,3.724-30.619,5.491
	c-3.005,0.518-4.495-0.419-4.756-3.961C285.151,227.626,283.314,225.206,281.979,222.207z"/>
<path fill-rule="evenodd" clip-rule="evenodd" fill="#FFFFFF" d="M283.465,174.292c0.89,6.794-1.556,11.024-6.069,13.902
	c-9.569,6.094-19.627,7.433-30.025,1.989c-5.1-2.669-7.452-6.933-7.368-13.976c3.91,1.875,7.191,3.271,10.3,4.98
	c6.042,3.323,12.384,4.634,18.891,2.149c3.26-1.244,6.076-3.659,9.077-5.57C279.732,176.833,281.158,175.839,283.465,174.292z"/>
<path fill-rule="evenodd" clip-rule="evenodd" fill="#FFFFFF" d="M239.326,219.326c0.007,0.499,0.053,0.66,0.005,0.785
	c-4.024,10.492-4.031,10.534-15.006,8.758c-5.27-0.854-10.541-1.755-15.749-2.912c-5.947-1.322-8.457-4.657-8.958-11.736
	c6.632,1.191,13.107,2.615,19.655,3.458C225.852,218.524,232.506,218.79,239.326,219.326z"/>
<path fill-rule="evenodd" clip-rule="evenodd" fill="#FFFFFF" d="M323.503,234.369c2.523,6.934,1.952,8.082-4.494,9.377
	c-10.285,2.065-20.577,4.092-30.877,6.084c-1.548,0.3-3.142,0.333-5.383,0.551c0.525-2.996,0.755-5.466,1.482-7.78
	c0.241-0.763,1.807-1.651,2.699-1.586C299.603,241.938,311.66,239.542,323.503,234.369z"/>
<path fill-rule="evenodd" clip-rule="evenodd" fill="#FFFFFF" d="M112.762,392.816c16-3.134,31.08-2.083,46.555,2.502
	C152.088,402.59,119.981,400.907,112.762,392.816z"/>
<path fill-rule="evenodd" clip-rule="evenodd" fill="#FFFFFF" d="M390.663,375.838c7.479,4.871,15.283,9.954,23.087,15.036
	c-0.05,0.361-0.096,0.723-0.146,1.083c-11.737-0.472-23.476-0.947-34.945-1.407C382.662,385.643,386.514,380.924,390.663,375.838z"
	/>
<path fill-rule="evenodd" clip-rule="evenodd" fill="#FFFFFF" d="M122.507,378.685c-9.869-0.515-19.831-1.035-29.792-1.556
	c-0.207-0.359-0.414-0.713-0.623-1.066c6.104-4.865,12.207-9.729,18.036-14.376C114.45,367.619,118.38,373.019,122.507,378.685z"/>
<path fill-rule="evenodd" clip-rule="evenodd" fill="#FFFFFF" d="M232.592,238.75c0.466,4.833-0.547,6.854-4.33,6.068
	c-8.42-1.751-16.834-3.531-25.258-5.263c-2.976-0.613-3.768-2.179-2.997-5.144c0.851-3.26,2.724-2.625,5.093-2.149
	c8.144,1.632,16.345,2.98,24.481,4.638C230.964,237.181,232.142,238.46,232.592,238.75z"/>
<path fill-rule="evenodd" clip-rule="evenodd" fill="#FFFFFF" d="M279.316,215.509c16.632-1.519,32.989-3.011,50.6-4.62
	c-1.953,1.583-3.117,3.244-4.606,3.609c-6.464,1.59-12.972,3.198-19.559,4.049c-7.051,0.91-14.208,1.057-21.322,1.379
	C280.338,220.114,280.107,219.768,279.316,215.509z"/>
<path fill-rule="evenodd" clip-rule="evenodd" fill="#FFFFFF" d="M196.621,236.561c-1.162,0.356-2.501,1.274-3.463,0.978
	c-11.959-3.71-22.552-9.883-31.718-18.404c-0.769-0.715-0.613-2.426-0.888-3.673c1.409-0.024,3.158-0.6,4.173,0.02
	c6.841,4.187,13.467,8.726,20.293,12.935c2.763,1.704,5.894,2.799,8.783,4.312c1.058,0.556,1.902,1.519,2.845,2.295
	C196.636,235.535,196.628,236.049,196.621,236.561z"/>
<path fill-rule="evenodd" clip-rule="evenodd" fill="#FFFFFF" d="M244.799,214.835c-1.831,0.732-3.755,2.267-5.48,2.069
	c-12.946-1.485-25.859-3.256-38.763-5.073c-2.651-0.375-4.173-2.053-3.646-5.189c15.788,2.485,31.443,4.95,47.098,7.413
	C244.272,214.316,244.536,214.577,244.799,214.835z"/>
<path fill-rule="evenodd" clip-rule="evenodd" fill="#FFFFFF" d="M254.426,407.191c4.576,0.285,8.848,4.435,8.711,8.471
	c-0.134,3.949-4.774,8.252-8.668,8.038c-4.436-0.251-8.021-4.654-7.598-9.335C247.252,410.155,250.62,406.957,254.426,407.191z"/>
<path fill-rule="evenodd" clip-rule="evenodd" fill="#FFFFFF" d="M197.749,408.085c9.301,1.116,17.912,2.146,26.588,3.183
	c-1.029,2.723-1.79,5.085-2.837,7.309c-0.351,0.744-1.451,1.651-2.177,1.624c-8.286-0.307-15.788-2.421-20.738-9.813
	C198.273,409.925,198.183,409.313,197.749,408.085z"/>
<path fill-rule="evenodd" clip-rule="evenodd" fill="#FFFFFF" d="M288.18,174.261c1.494,5.71,0.146,11.156-3.413,15.475
	c-8.612,10.448-31.364,12.221-41.9,3.662c-0.959-0.779-1.713-1.811-2.335-3.245c9.217,4.51,18.53,7.159,28.71,4.391
	C279.774,191.679,286.039,185.064,288.18,174.261z"/>
<path fill-rule="evenodd" clip-rule="evenodd" fill="#FFFFFF" d="M179.209,409.166c5.713,0.322,10.868-0.052,15.635,1.135
	c2.768,0.692,5.533,3.488,7.189,6.052c2.65,4.105,6.106,5.254,10.55,5.079c2.074-0.086,4.201-0.171,6.222,0.199
	c1.577,0.288,3.024,1.278,5.297,2.305C215.673,426.176,184.628,415.896,179.209,409.166z"/>
<path fill-rule="evenodd" clip-rule="evenodd" fill="#FFFFFF" d="M232.895,424.664c-4.387,0.043-9.431-3.889-9.296-7.244
	c0.124-3.067,3.974-5.987,7.789-5.899c3.936,0.087,8.284,3.507,8.415,6.615C239.954,421.728,236.887,424.627,232.895,424.664z"/>
<path fill-rule="evenodd" clip-rule="evenodd" fill="#FFFFFF" d="M197.273,401.134c1.199-0.581,2.364-1.568,3.604-1.676
	c10.842-0.933,21.712-1.814,32.358,1.454c1.975,0.604,3.905,1.492,5.667,2.565c0.49,0.295,0.618,1.852,0.311,2.57
	c-0.215,0.505-1.867,1.036-2.175,0.764c-5.71-5.066-12.921-3.548-19.482-4.197c-6.548-0.649-13.225,0.011-19.845,0.098
	C197.565,402.186,197.42,401.659,197.273,401.134z"/>
<path fill-rule="evenodd" clip-rule="evenodd" fill="#FFFFFF" d="M285.828,236.624c8.02-1.188,16.053-2.306,24.057-3.595
	c3.663-0.588,7.254-1.601,10.917-2.211c0.657-0.109,1.489,0.811,2.238,1.256c-0.503,0.559-0.928,1.501-1.52,1.622
	c-10.585,2.173-20.88,6.259-31.991,4.979c-1.317-0.152-2.607-0.548-3.911-0.83C285.689,237.438,285.76,237.029,285.828,236.624z"/>
<path fill-rule="evenodd" clip-rule="evenodd" fill="#FFFFFF" d="M238.693,380.729c-2.844,0.937-5.63,2.171-8.546,2.738
	c-4.644,0.901-9.377,1.328-14.063,2.009c-4.412,0.641-4.406,0.673-6.317-4.433c9.649-0.742,19.057-1.47,28.465-2.195
	C238.385,379.477,238.537,380.102,238.693,380.729z"/>
<path fill-rule="evenodd" clip-rule="evenodd" fill="#FFFFFF" d="M284.124,383.803c14.031,3.672,26.853,7.031,38.128,9.985
	C311.578,396.176,291.804,391.826,284.124,383.803z"/>
<path fill-rule="evenodd" clip-rule="evenodd" fill="#FFFFFF" d="M232.178,407.574c-10.507,1.788-20.758,1.129-31.544-2.086
	C207.315,402.359,222.984,403.41,232.178,407.574z"/>
<path fill-rule="evenodd" clip-rule="evenodd" fill="#FFFFFF" d="M281.541,252.676c5.056-0.499,10.18-0.644,15.152-1.586
	c7.959-1.507,15.803-3.594,23.723-5.298c1.202-0.258,2.559,0.221,3.846,0.359c-0.894,0.687-1.706,1.803-2.697,1.998
	c-11.891,2.337-23.797,4.587-35.727,6.721c-1.392,0.247-2.928-0.325-4.397-0.518C281.473,253.795,281.509,253.237,281.541,252.676z"
	/>
<path fill-rule="evenodd" clip-rule="evenodd" fill="#FFFFFF" d="M324.026,249.832c-0.176,2.697-0.306,4.712-0.479,7.401
	c-7.659-0.379-15.04-0.745-22.426-1.11c-0.021-0.251-0.039-0.498-0.062-0.749C308.437,253.593,315.81,251.814,324.026,249.832z"/>
<path fill-rule="evenodd" clip-rule="evenodd" fill="#FFFFFF" d="M198.171,241.239c10.28,2.122,19.415,4.009,28.556,5.895
	C220.307,250.539,203.37,247.663,198.171,241.239z"/>
<path fill-rule="evenodd" clip-rule="evenodd" fill="#FFFFFF" d="M233.263,234.916c-9.914,0.098-19.257-2.964-28.744-5.229
	c0.083-0.48,0.166-0.96,0.249-1.44c9.636,1.5,19.272,2.999,28.909,4.498C233.539,233.468,233.4,234.193,233.263,234.916z"/>
<path fill-rule="evenodd" clip-rule="evenodd" d="M336.464,117.08c1.388-0.583,2.778-1.164,4.168-1.746
	c0.289,0.331,0.573,0.663,0.858,0.992c-0.613,0.973-1.227,1.946-1.844,2.915c-0.946,1.478-2.783,3.008-2.695,4.419
	c0.422,6.902-5.343,7.389-9.705,9.6c2.019-4.84,8.396-7.513,7.122-13.901C335.068,118.601,335.764,117.841,336.464,117.08z"/>
<path fill-rule="evenodd" clip-rule="evenodd" fill="#FFFFFF" d="M288.762,403.896c-6.593,3.491-10.209,8.698-9.723,16.243
	c-4.598-1.781-5.744-7.272-1.784-10.762c3.082-2.713,7.064-4.408,10.644-6.56C288.188,403.179,288.473,403.535,288.762,403.896z"/>
<path fill-rule="evenodd" clip-rule="evenodd" fill="#FFFFFF" d="M209.263,250.122c-3.01,0.23-6.022,0.605-9.032,0.59
	c-0.723-0.005-1.439-1.31-2.156-2.018c0.778-0.639,1.635-1.897,2.323-1.81c3.013,0.379,5.976,1.15,8.958,1.779
	C209.325,249.149,209.295,249.635,209.263,250.122z"/>
<path fill-rule="evenodd" clip-rule="evenodd" d="M237.68,152.85c1.291-2.38,2.506-4.623,4.222-7.788
	c2.745,10.505,10.538,8.591,17.1,8.915c2.907,0.144,5.917-0.54,8.784-1.244c3.952-0.969,7.783-2.346,7.21-8.316
	c2.741,3.051,4.911,5.466,7.154,7.966c-0.296,0.28-0.674,0.862-0.879,0.805c-5.745-1.621-10.68,1.359-15.887,2.745
	c-7.137,1.902-14.114,1.471-20.999-1.237C242.49,153.95,240.442,153.595,237.68,152.85z"/>
<path fill-rule="evenodd" clip-rule="evenodd" d="M219.305,121.531c6.004,1.212,11.242,3.133,16.451,3.066
	c4.947-0.063,9.868-2.207,15.437-3.595C246.169,130.23,225.426,130.607,219.305,121.531z"/>
<path fill-rule="evenodd" clip-rule="evenodd" d="M272.775,122.063c1.559,0.331,3.188,0.472,4.66,1.025
	c6.696,2.523,13.009,2.944,18.724-2.423c0.874-0.818,2.527-0.8,3.823-1.17c-0.478,1.344-0.564,3.108-1.488,3.963
	C291.529,129.896,279.146,129.708,272.775,122.063z"/>
<path fill-rule="evenodd" clip-rule="evenodd" d="M265.395,160.555c-1.518,7.26-1.55,7.281-10.588,7.776
	c0.941-1.177,1.684-2.103,2.535-3.166c-0.828-1.309-1.669-2.638-2.829-4.467C258.288,160.648,261.611,160.604,265.395,160.555z"/>
<path fill-rule="evenodd" clip-rule="evenodd" d="M184.552,120.08c4.949-1.334,7.613,2.709,6.122,10.323
	c1.605,1.761,3.059,3.357,4.513,4.953c-6.742-0.989-7.387-2.541-7.168-8.462C188.1,124.618,185.726,122.255,184.552,120.08z"/>
<path fill-rule="evenodd" clip-rule="evenodd" d="M291.264,107.486c-4.941-1.069-9.579-2.073-14.688-3.178
	C281.483,99.216,288.965,101.024,291.264,107.486z"/>
<path fill-rule="evenodd" clip-rule="evenodd" d="M230.968,109.251c1.324-3.806,6.098-7.71,9.154-7.299
	c1.22,0.166,2.293,1.428,3.432,2.19c-0.959,0.681-1.829,1.608-2.894,1.993C237.535,107.27,234.332,108.188,230.968,109.251z"/>
<path fill-rule="evenodd" clip-rule="evenodd" d="M254.021,139.67c4.203,0.364,8.181,0.708,12.325,1.067
	C262.962,144.777,256.321,144.283,254.021,139.67z"/>
<path fill-rule="evenodd" clip-rule="evenodd" d="M294.817,310.547c-9.104,2.952-18.129,6.198-27.34,8.771
	c-8.645,2.411-17.395,1.423-25.993-0.864c-7.03-1.866-13.983-4.112-21.101-5.537c-4.947-0.991-10.114-0.876-15.25-2.028
	c4.745-0.063,9.586-0.741,14.216-0.04c6.731,1.018,13.401,2.731,19.941,4.682c13.852,4.132,27.239,2.843,40.624-2.121
	c4.776-1.768,9.952-2.451,14.944-3.631C294.843,310.032,294.832,310.288,294.817,310.547z"/>
<path fill-rule="evenodd" clip-rule="evenodd" d="M274.887,305.668c-15.023,9.205-28.694,5.896-46.048-5.654
	c4.806,1.774,9.502,4.036,14.453,5.191c5.096,1.188,10.444,1.716,15.686,1.768C264.275,307.026,269.584,306.141,274.887,305.668z"/>
<path fill-rule="evenodd" clip-rule="evenodd" d="M197.952,294.641c5.276,3.342,10.692,6.771,15.653,9.913
	C207.145,305.479,198.646,300.046,197.952,294.641z"/>
<path fill-rule="evenodd" clip-rule="evenodd" d="M309.192,298.905c0.649,4.559-1.83,6.692-9.993,7.903
	C302.882,303.894,306.058,301.387,309.192,298.905z"/>
<path fill-rule="evenodd" clip-rule="evenodd" d="M271.743,402.284c-0.716-2.149-1.246-3.727-2.065-6.173
	c3.21,1.269,5.446,2.153,8.744,3.456C275.848,400.613,274.09,401.329,271.743,402.284z"/>
<path fill-rule="evenodd" clip-rule="evenodd" d="M160.006,321.88c-3.957-0.905-7.916-1.812-11.874-2.716
	c4.577-2.824,8.168,0.351,12.192,0.902C160.22,320.672,160.113,321.274,160.006,321.88z"/>
</svg>
