<?xml version="1.0" encoding="utf-8"?>
<!-- Generator: Adobe Illustrator 16.0.0, SVG Export Plug-In . SVG Version: 6.00 Build 0)  -->
<!DOCTYPE svg PUBLIC "-//W3C//DTD SVG 1.1//EN" "http://www.w3.org/Graphics/SVG/1.1/DTD/svg11.dtd">
<svg version="1.1" id="Layer_1" xmlns="http://www.w3.org/2000/svg" xmlns:xlink="http://www.w3.org/1999/xlink" x="0px" y="0px"
	 width="500px" height="500px" viewBox="0 0 500 500" enable-background="new 0 0 500 500" xml:space="preserve">
<polygon fill="none" stroke="#010101" stroke-width="3.5803" stroke-miterlimit="10" points="76.161,257.535 470.376,264.217 
	480.144,331.953 27.403,336.713 26.44,336.726 20.206,300.481 "/>
<path fill="#FFFFFF" d="M216.967,239.08c3.066,1.078,6.088,2.314,9.208,3.199c13.21,3.741,25.615,9.208,36.807,17.212
	c3.804,2.719,3.42,6.128-0.897,8.196c-2.26,1.079-4.77,1.938-7.252,2.229c-13.427,1.571-22.343,9.724-29.88,20.007
	c-0.75,1.025-1.406,2.115-2.172,3.127c-4.828,6.348-6.12,5.946-13.021,2.374c-10.513-5.437-21.681-9.605-32.366-14.742
	c-10.324-4.965-20.393-10.452-29.229-15.019c7.436,6.792,4.924,16.749,3.088,27.472c-8.674-5.022-17.243-4.317-25.904-1.265
	c-4.625,1.632-9.257,3.608-14.047,4.304c-4.255,0.613-8.762-0.155-13.094-0.767c-0.772-0.104-1.944-2.546-1.724-3.68
	c0.906-4.678,2.277-9.278,3.499-13.978c6.853,4.563,14.396,9.101,23.663,8.618c0.113-0.381,0.231-0.776,0.346-1.167
	c-2.056-0.557-4.079-1.312-6.172-1.655c-19.348-3.205-41.84-27.624-35.579-52.722c1.644-6.589,6.328-12.765,10.717-18.249
	c6.3-7.87,13.156-15.436,20.593-22.229c12.012-10.968,26.787-17.628,42.049-22.388c7.801-2.435,16.686-1.212,25.013-2.214
	c11.691-1.41,22.642,1.113,33.491,5.002c12.938,4.634,26.028,8.859,38.854,13.763c7.12,2.722,13.836,6.469,20.878,9.822
	c-0.779,3.091-0.779,3.091-9.768,1.275c7.113,3.457,13.309,7.774,16.055,15.943c-19.428-0.405-19.428-0.405-36.941,8.348
	c0.398-7.295,10.022-13.992,21.676-15.083c-11.812-4.977-26.57,9.808-27.05,27.092c3.482-9.583,15.1-17.789,25.404-18.426
	c18.241-1.133,30.89,7.908,40.906,21.944c2.112,2.968,4.102,6.017,6.342,9.316c-5.829,5.619-4.938,11.811-0.891,17.92
	c0.756,1.14,2.705,1.49,4.101,2.205c0.675-1.564,1.862-3.116,1.91-4.694c0.073-2.335-0.941-4.676-1.013-7.029
	c-0.091-3.299,2.203-4.925,4.985-3.737c20.615,8.735,42.646,12.392,64.078,18.183c0.9,0.24,1.776,0.57,3.983,1.285
	c-3.808,3.764-6.81,7.347-10.413,10.149c-6.731,5.251-12.851,10.83-15.643,19.215c-1.343,4.014-4.628,2.962-7.178,2.212
	c-9.41-2.782-18.729-5.861-28.069-8.876c-24.297-7.85-45.257-21.823-66.054-36.091c-4.965-3.402-10.361-5.773-15.991-8.152
	c-15.144-6.393-29.467-14.728-44.112-22.298c-1.402-0.722-2.772-1.509-4.159-2.261c-0.206,0.337-0.409,0.676-0.614,1.015
	c9.222,5.237,18.443,10.479,27.665,15.708c-0.103,0.28-0.208,0.56-0.307,0.84c-1.952-0.398-3.903-0.791-5.876-1.175
	c-17.534-3.447-35.052-6.908-52.566-10.361c10.381,3.268,20.964,5.627,31.625,7.546C202.875,237.581,209.948,238.189,216.967,239.08
	z M253.841,264.064c-17.239-11.164-36.228-14.442-56.347-13.12c-7.412,0.492-14.889,0.216-22.325-0.014
	c-1.51-0.054-2.974-1.437-4.463-2.206c0.735-1.261,1.471-2.522,2.208-3.794c-0.111-0.175-0.227-0.357-0.335-0.537
	c-1.5,1.147-2.999,2.287-4.498,3.434c1.396,1.349,2.681,2.843,4.231,3.984c0.823,0.61,2.086,0.785,3.167,0.842
	c5.061,0.247,10.169,0.911,15.183,0.496C212.66,251.315,234.022,252.846,253.841,264.064z M130.242,274.743
	c-10.15-1.302-20.092-2.57-28.523-3.657C107.124,275.91,124,278.716,130.242,274.743z"/>
<path fill="#FFFFFF" d="M384.323,236.068c-2.03,7.73-4.04,15.47-6.105,23.186c-0.802,2.996-2.766,3.953-5.768,3.178
	c-10.408-2.678-20.82-5.295-31.232-7.953c-0.917-0.229-1.801-0.756-2.718-0.802c-5.815-0.332-10.167-1.616-11.657-8.703
	c-0.479-2.28-6.03-4.711-9.396-4.922c-6.995-0.432-11.521-3.229-15.131-9.161c-2.32-3.819-6.115-6.766-9.343-10.012
	c-5.619-5.646-4.175-13.905,2.9-17.165c10.625-4.904,21.102-10.144,31.766-14.959c9.634-4.34,28.171,0.794,34.674,9.06
	c2.108,2.684,4.52,5.363,7.326,7.228c11.16,7.412,13.359,18.558,13.461,30.712C383.514,235.86,383.918,235.969,384.323,236.068z"/>
<path fill="#FFFFFF" d="M132.013,306.077c1.081-4.553,1.713-8.277,2.933-11.799c0.396-1.14,2.479-2.65,3.505-2.455
	c4.734,0.877,9.374,2.294,15.065,3.784c0.867-6.921,1.769-14.14,2.746-21.96c3.983,1.889,7.688,3.886,11.574,5.44
	c10.137,4.058,20.443,7.696,30.494,11.953c4.776,2.03,9.528,4.566,13.532,7.814c3.613,2.932,6.438,2.229,9.222-0.175
	c2.363-2.041,4.337-4.608,6.147-7.179c4.943-7.015,5.067-7.143,13.53-5.797c-1.196-1.366-2.392-2.726-4.104-4.679
	c3.983-3.362,8.245-6.455,13.825-7.687c6.119-1.335,12.675-1.646,17.373-6.807c0.439-0.479,2.415-0.216,3.13,0.364
	c1.188,0.965,2.257,2.354,2.8,3.784c6.526,17.451,3.032,35.665-18.972,40.482c-31.857,6.971-63.587,5.254-95.348-0.419
	C150.3,309.105,141.111,307.622,132.013,306.077z M170.251,287.667c16.947,14.936,23.499,18.626,30.732,17.108
	C187.906,304.485,182.28,291.354,170.251,287.667z"/>
<path fill="#FFFFFF" d="M445.008,292.977c-2.624,4.951-7.035,4.834-11.191,5.013c-4.074,0.175-8.161,0.04-12.364,0.869
	c4.701,0.554,9.413,1.106,14.618,1.721c-4.028,4.033-8.797,3.38-12.871,2.705c-7.583-1.248-14.982-3.608-22.477-5.424
	c-3.505-0.843-7.016-1.794-10.577-2.179c-6.908-0.763-13.855-1.133-20.777-1.72c-0.722-0.067-1.416-0.507-3.326-1.235
	c3.383-3.285,6.18-6.104,9.094-8.796c3.946-3.649,8.203-6.979,11.883-10.864c2.081-2.189,3.872-2.924,6.617-1.808
	c2.966,1.21,5.484,0.526,8.46-1.005c9.163-4.719,18.979-5.032,28.874-3.296c0.192,0.601,0.378,1.201,0.567,1.799
	c-4.817,1.952-9.634,3.915-13.862,5.628c4.877,0.669,9.963,1.154,14.955,2.105c4.769,0.914,9.997,1.079,13.605,4.735
	c-0.168,0.543-0.336,1.097-0.505,1.646c-5.883-0.459-11.765-0.918-17.654-1.37c6.847,3.563,15.151,1.41,22.646,6.221
	c-7.515,5.227-14.712,3.335-21.859,3.342C434.121,291.675,439.368,292.303,445.008,292.977z"/>
<path fill="none" d="M95.225,298.04c-1.782-0.294-3.578-0.901-5.339-0.8c-1.966,0.101-4.59,2.502-5.058-1.269
	c-0.12-0.957,2.639-2.272,4.311-3.623c-1.471-0.107-3.501-0.269-5.957-0.464c0.261-4.041,2.476-3.623,5.877-1.061
	c-2.228-5.868-5.373-3.244-8.77-2.475c-0.134-1.592-0.791-3.307-0.21-4.261c0.522-0.86,2.533-1.443,3.668-1.19
	c3.4,0.77,7.972,0.317,7.299,6.294c-0.148,1.342,1.74,2.914,3.15,3.983c-0.639-2.789-1.278-5.568-2.118-9.251
	c-2.957-1.08-6.897-2.503-11.795-4.281c1.24-1.545,2.245-3.892,3.351-3.942c1.924-0.084,4.815,0.688,5.692,2.091
	c2.03,3.278,4.044,3.528,7.708,3.063c5.105-0.651,8.853,1.383,5.692,7.434c-1.278,2.442-2.696,4.811-4.169,7.413
	c13.37,9.978,26.592,1.991,39.82-1.578c2.186,4.904-0.443,7.083-4.01,7.481c-9.261,1.032-18.575,1.646-27.884,2.085
	c-3.764,0.182-7.57-0.52-11.358-0.838c-1.103-0.087-2.366,0.042-3.251-0.458c-0.926-0.526-1.488-1.7-2.206-2.584
	c1.019-0.316,2.027-0.788,3.07-0.89c0.622-0.062,1.294,0.479,1.947,0.748C94.866,299.136,95.045,298.59,95.225,298.04z"/>
<path fill="#FFFFFF" d="M345.266,304.465c-6.813,1.666-10.078-2.429-13.353-6.51c-0.415,0.102-0.834,0.203-1.252,0.303
	c0.317,2.557,0.638,5.113,0.944,7.644c-3.868-0.856-6.638-4.101-5.552-7.434c0.438-1.356,2.807-3.109,4.132-2.976
	C335.971,296.073,340.867,299.183,345.266,304.465z"/>
<path fill="#FFFFFF" d="M428.016,273.407c5.606-4.264,14.551-2.051,18.005,4.445C439.895,276.335,434.249,274.942,428.016,273.407z"
	/>
<path fill="#FFFFFF" d="M313.312,246.435c0,5.332,0,10.318,0,15.759c-3.508-1.444-4.385-4.585-4.735-7.715
	C308.19,250.998,309.392,248.05,313.312,246.435z"/>
<path fill="#FFFFFF" d="M379.089,263.1c2.408-5.194,2.408-5.194,11.494-2.152C387.23,265.975,385.737,266.283,379.089,263.1z"/>
<path fill="#FFFFFF" d="M311.706,242.411c9.45-0.784,12.695,0.659,13.781,6.476c-4.904-1.814-9.586-3.548-14.267-5.289
	C311.382,243.2,311.543,242.804,311.706,242.411z"/>
<path fill="#FFFFFF" d="M285.04,216.897c-1.474-2.999-2.941-5.996-4.558-9.305c6.844-0.494,7.219,0.131,6.035,8.537
	C286.024,216.385,285.532,216.637,285.04,216.897z"/>
<path fill="#FFFFFF" d="M291.597,285.745c1.079-1.626,2.233-4.675,3.21-4.61c2.699,0.172,5.323,1.629,7.984,2.573
	c-0.07,0.493-0.148,0.984-0.219,1.478c-3.229,0.594-6.442,1.181-9.671,1.773C292.46,286.555,292.028,286.15,291.597,285.745z"/>
<path fill="#FFFFFF" d="M85.86,275.701c-2.874-1.774-5.641-3.475-9.706-5.977c2.643-0.621,4.849-1.903,6.141-1.275
	C85.152,269.813,87.214,272.281,85.86,275.701z"/>
<path fill="#FFFFFF" d="M323.857,292.802c-7.888,2.091-10.998,0.788-10.735-4.342C316.866,289.975,320.36,291.392,323.857,292.802z"
	/>
<path fill="#FFFFFF" d="M91.756,269.88c0.987,2.131,1.975,4.27,2.963,6.404c-0.332,0.411-0.663,0.829-0.998,1.241
	c-1.886-0.906-4.228-1.426-5.458-2.884c-0.534-0.641,1.196-3.19,1.897-4.866C90.692,269.813,91.223,269.846,91.756,269.88z"/>
<path fill="#FFFFFF" d="M401.983,267.511c-4.884,3.886-9.013,3.185-11.926-1.882C394.064,266.264,397.633,266.83,401.983,267.511z"
	/>
<path fill="#010101" d="M253.841,264.064c-19.822-11.219-41.178-12.743-63.179-10.908c-5.014,0.419-10.122-0.238-15.183-0.498
	c-1.081-0.062-2.344-0.236-3.167-0.837c-1.547-1.147-2.832-2.645-4.231-3.987c1.5-1.147,2.999-2.287,4.498-3.434
	c0.109,0.182,0.224,0.361,0.335,0.54c-0.737,1.262-1.473,2.523-2.208,3.792c1.489,0.772,2.953,2.151,4.463,2.202
	c7.438,0.226,14.913,0.502,22.325,0.02C217.613,249.628,236.605,252.9,253.841,264.064z"/>
<path fill="#010101" d="M130.242,274.743c-6.242,3.967-23.118,1.167-28.523-3.657C110.15,272.166,120.089,273.441,130.242,274.743z"
	/>
<path fill="#010101" d="M216.967,239.08c-7.019-0.894-14.092-1.503-21.045-2.749c-10.662-1.917-21.241-4.275-31.625-7.547
	c17.514,3.457,35.032,6.918,52.566,10.362C216.888,239.139,216.967,239.08,216.967,239.08z"/>
<path fill="#010101" d="M170.251,287.667c12.026,3.685,17.655,16.818,30.732,17.108
	C193.747,306.286,187.194,302.603,170.251,287.667z"/>
<path fill="#FFFFFF" d="M20.907,299.5"/>
<path fill="#010101" d="M20.907,299.5"/>
<path fill="#010101" d="M20.752,299.365"/>
<path fill="#010101" d="M224.271,240.773c0.18,0.037,0.359,0.072,0.543,0.11c-0.152-0.054-0.304-0.113-0.458-0.165L224.271,240.773z
	"/>
<polygon fill="#010101" points="84.364,259.524 84.364,259.524 84.363,259.524 "/>
<g>
	<path fill="#010101" d="M347.168,306.138c-3.386-0.931-5.629-3.764-7.872-6.557c-0.418,0.101-0.83,0.209-1.245,0.311
		c0.273,2.347,0.551,4.661,0.864,6.975c0.414,0,0.863-0.067,1.278-0.135c-0.486-1.072-0.935-2.105-1.552-3.556
		C341.815,304.829,344.683,305.797,347.168,306.138z"/>
	<path fill="#010101" d="M324.961,294.778c-1.106-0.176-2.246-0.378-3.318-0.554c1.038,1.002,2.729,1.35,5.254,1.072
		C326.344,295.055,325.72,294.913,324.961,294.778z"/>
	<path fill="#010101" d="M362.572,302.272c2.041,0.624,4.354,1.072,5.734-1.072C366.616,301.82,364.681,302.098,362.572,302.272z"/>
	<path fill="#010101" d="M337.15,306.866c0.587,0.311,1.174,0.517,1.828,0.654c-0.03-0.205-0.067-0.445-0.067-0.654
		C338.291,306.968,337.704,306.968,337.15,306.866z"/>
	<path fill="#010101" d="M347.168,306.145c1.555,0.448,3.353,0.485,5.491-0.034c-0.108-0.107-0.172-0.209-0.276-0.313
		C350.933,306.279,349.172,306.421,347.168,306.145z"/>
	<path fill="#010101" d="M283.519,285.975c0.793,6.32-1.177,12.847-5.083,17.89c5.491-6.361,6.702-15.06,4.871-24.076
		C283.239,281.968,283.239,283.971,283.519,285.975z"/>
	<path fill="#010101" d="M91.724,302.516c0.864,0.519,2.142,0.381,3.247,0.485c3.766,0.313,7.565,1.002,11.363,0.83
		c3.8-0.176,7.599-0.379,11.399-0.655c-8.947-0.04-17.995-0.003-26.768-1.247C91.206,302.171,91.447,302.38,91.724,302.516z"/>
	<path fill="#010101" d="M260.513,313.153c1.416-0.206,2.799-0.448,4.216-0.688c5.491-0.934,10.254-4.108,13.606-8.425
		c-3.521,4.074-8.811,7.181-16.136,8.77C261.652,312.947,261.065,313.046,260.513,313.153z"/>
	<path fill="#010101" d="M119.423,303.173c2.28,0.034,4.525-0.276,6.908-0.657c-2.867,0.242-5.732,0.482-8.599,0.657H119.423z"/>
	<path fill="#010101" d="M215.958,317.328c14.817,0.177,29.634-1.068,44.453-4.175c-9.774,1.521-19.689,2.523-29.567,3.488
		C225.836,317.086,220.896,317.328,215.958,317.328z"/>
	<path fill="#010101" d="M452.401,294.603c-0.58-0.064-1.167-0.135-1.758-0.202c-1.898,1.727-3.801,3.417-5.801,5.005
		C447.78,299.062,450.539,298.13,452.401,294.603z"/>
	<path fill="#010101" d="M428.091,304.451c0.829,0.172,1.692,0.311,2.522,0.448c4.041,0.688,8.844,1.347,12.851-2.694
		c-0.729-0.107-1.454-0.172-2.146-0.243c-2.105,1.275-4.49,2.28-6.695,2.415C432.406,304.519,430.235,304.553,428.091,304.451z"/>
	<path fill="#010101" d="M388.476,296.505c-1.521-0.239-3.006-0.344-4.489-0.344C385.47,296.266,386.954,296.37,388.476,296.505z"/>
	<path fill="#010101" d="M428.845,300.478c4.049,0.486,8.088,0.969,12.474,1.484c0.863-0.513,1.689-1.1,2.448-1.689
		c0.381-0.273,0.729-0.55,1.076-0.863c-1.211,0.135-2.419,0.172-3.633,0.205C437.136,299.79,433.065,299.648,428.845,300.478z"/>
	<path fill="#010101" d="M133.516,301.311c-2.486,0.375-4.871,0.823-7.149,1.205c2.313-0.206,4.594-0.412,6.908-0.651
		C133.377,301.686,133.446,301.483,133.516,301.311z"/>
	<path fill="#010101" d="M436.279,292.673c4.662,0.554,9.355,1.141,14.364,1.728c0.935-0.864,1.865-1.765,2.797-2.628
		C447.605,293.847,441.938,292.673,436.279,292.673z"/>
	<path fill="#010101" d="M388.891,296.542c0.175,0.033,0.31,0.033,0.448,0.07c0.59,0.102,1.211,0.102,1.831,0.102
		C390.408,296.612,389.652,296.575,388.891,296.542z"/>
	<path fill="#010101" d="M405.917,298.96c7.147,3.278,14.536,5.147,22.174,5.494c-6.74-1.318-13.297-3.355-19.968-4.975
		C407.401,299.304,406.639,299.132,405.917,298.96z"/>
	<path fill="#010101" d="M395.487,296.684c-1.416-0.213-2.866,0-4.317,0.033c2.105,0.172,4.244,0.348,6.354,0.587
		c2.827,0.313,5.596,0.968,8.393,1.656c-0.136-0.07-0.243-0.104-0.385-0.175C402.497,297.408,398.867,297.162,395.487,296.684z"/>
	<path fill="#010101" d="M457.828,284.692c-0.691-0.451-0.897-1.592-1.312-2.381c-3.245-6.044-6.011-12.608-14.23-13.399
		c-0.239,0-0.489-0.383-0.726-0.555c-0.242-5.285-1.659-6.944-7.045-7.423c-7.842-0.762-15.472-0.07-22.966,2.726
		c-2.557,0.967-5.56,0.83-9.33,1.315c2.216-4.972,0.83-6.284-3.069-6.53c-3.872-0.209-7.67-1.35-11.778-2.104
		c0.793-3.144,1.656-5.697,2.037-8.324c0.176-1.103,0.348-2.212,0.486-3.319c-1.417,5.394-2.834,10.813-4.284,16.2
		c-0.791,3.006-2.763,3.936-5.768,3.181c-10.395-2.699-20.823-5.322-31.219-7.946c-0.938-0.243-1.801-0.762-2.732-0.83
		c-5.801-0.31-10.152-1.622-11.637-8.702c-0.485-2.28-6.044-4.699-9.426-4.904c-6.979-0.45-11.502-3.213-15.131-9.154
		c-2.318-3.833-6.115-6.769-9.323-10.016c-5.629-5.665-4.179-13.918,2.901-17.165c10.601-4.906,21.1-10.154,31.775-14.956
		c9.599-4.353,28.144,0.794,34.677,9.048c2.102,2.695,4.489,5.354,7.319,7.22c11.153,7.426,13.332,18.547,13.438,30.705
		c0.032,0,0.097,0.028,0.131,0.032c-0.139,2.418-0.415,4.833-0.726,7.287c0.587-2.349,1.211-4.665,1.825-7.012
		c-0.371-0.102-0.719-0.169-1.094-0.275c1.04-13.573-1.072-26.317-13.814-36.23c-0.654-0.482-0.276-2.313-0.411-3.936
		c-4.078-0.761-7.461-3.351-8.635-6.598c-2.388-0.415-3.696-0.31-4.594-0.863c-7.771-4.766-16.166-7.874-25.25-6.562
		c-15.198,2.175-29.046,7.494-40.373,18.512c-2.04,2.003-6.287,1.97-9.605,2.28c-2.658,0.276-3.828-1.899-2.935-4.11
		c2.071-5.147-1.174-6.805-4.87-8.394c-10.534-4.49-21.034-9.188-31.671-13.436c-11.051-4.387-22.138-8.565-33.398-12.296
		c-5.594-1.864-11.535-3.142-17.441-3.591c-6.286-0.484-12.676,0-18.997,0.587c-8.599,0.794-17.476-0.035-25.627,4.144
		c-7.737,3.974-15.75,7.427-23.348,11.571c-18.305,9.981-30.014,26.283-41.342,43.069c-3.902,5.768-4.663,11.604-3.869,17.994
		c0.691,5.734,0.553,18.339-0.415,18.204c-0.403-0.062-0.772-0.054-1.16-0.082c0.399,0.683,0.902,1.306,1.494,1.849
		c0.001,0,0.001,0,0.001,0c0.572-0.081,1.14-0.169,1.737-0.215c1.133-0.078,2.031-0.024,2.726,0.222
		c1.168,0.419,1.764,1.39,1.938,3.231c-1.45,0.726-2.66,1.794-3.972,1.97c-6.01,0.76-8.393,5.767-10.431,9.979
		c-2.175,4.523-2.764,9.98,1.865,14.332c0.897,0.863,0.656,2.904,1.52,3.832c3.108,3.214,6.183,8.257,9.844,8.847
		c0.449,0.07,0.897,0.138,1.381,0.206c-0.518-0.587-0.968-1.346-1.45-1.97c1.001-0.345,2.002-0.79,3.073-0.897
		c0.622-0.067,1.278,0.485,1.934,0.729c0.174-0.517,0.346-1.072,0.518-1.626c-1.761-0.311-3.557-0.897-5.318-0.796
		c-1.97,0.107-4.594,2.492-5.044-1.275c-0.137-0.965,2.626-2.276,4.284-3.629c-1.451-0.098-3.489-0.276-5.941-0.445
		c0.243-4.041,2.487-3.629,5.872-1.072c-2.211-5.872-5.388-3.245-8.773-2.452c-0.138-1.629-0.794-3.315-0.207-4.284
		c0.518-0.863,2.521-1.413,3.661-1.174c3.42,0.76,7.979,0.311,7.322,6.284c-0.173,1.35,1.727,2.904,3.144,3.974
		c-0.657-2.766-1.278-5.565-2.142-9.225c-2.936-1.073-6.874-2.52-11.778-4.281c1.243-1.558,2.245-3.905,3.351-3.97
		c1.935-0.07,4.8,0.686,5.699,2.102c2.003,3.285,4.041,3.528,7.702,3.079c5.111-0.657,8.842,1.38,5.698,7.424
		c-1.278,2.449-2.693,4.804-4.179,7.424c13.366,9.981,26.595,1.967,39.822-1.588c2.177,4.904-0.449,7.079-4.005,7.494
		c-0.312,0.034-0.623,0.067-0.933,0.104c-0.587,1.514-1.071,2.661-1.832,4.489c7.979,1.451,15.404,2.901,22.864,4.146
		c20.275,3.383,40.549,6.836,61.098,6.836c-16.198-0.209-32.363-2.04-48.561-4.941c-9.152-1.655-18.34-3.144-27.457-4.698
		c1.104-4.56,1.727-8.252,2.936-11.777c0.413-1.14,2.485-2.657,3.521-2.448c4.732,0.863,9.361,2.28,15.06,3.764
		c0.863-6.907,1.761-14.126,2.762-21.964c3.972,1.898,7.668,3.902,11.57,5.457c10.121,4.041,20.447,7.697,30.498,11.95
		c4.766,2.037,9.498,4.557,13.504,7.805c3.626,2.938,6.458,2.246,9.222-0.172c2.383-2.037,4.351-4.594,6.147-7.185
		c4.939-7.009,5.078-7.15,13.538-5.768c-1.209-1.383-2.383-2.729-4.11-4.695c4.009-3.353,8.256-6.462,13.852-7.67
		c6.081-1.349,12.641-1.659,17.369-6.84c0.418-0.445,2.422-0.206,3.11,0.381c1.207,0.968,2.28,2.351,2.799,3.802
		c0.935,2.488,1.656,5.005,2.139,7.46c0.034-1.831,0.142-3.831,0.142-5.973c4.486,2.037,8.46,3.828,12.467,5.663
		c-1.106,6.317-0.938,7.737,3.271,7.565l0,0c-0.068,0.098-0.135,0.239-0.209,0.347c0.414,0.378,0.863,0.79,1.278,1.208
		c2.557-0.452,5.076-0.935,7.599-1.38c-1.626-0.452-3.413-0.59-4.901-0.452c-1.517,0.139-2.761,0.277-3.76,0.277
		c1.039-1.693,2.104-4.354,3.002-4.284c2.698,0.173,5.322,1.623,7.983,2.591c-0.07,0.482-0.138,0.968-0.239,1.487
		c-0.694,0.135-1.38,0.239-2.074,0.378c1.416,0.378,2.691,1.039,3.49,1.902c2.969,3.313,6.561,4.385,10.287,5.073
		c-0.863-0.897-1.24-2.24-1.136-4.105c3.763,1.515,7.255,2.938,10.735,4.351c-1.653,0.415-3.104,0.726-4.352,0.864
		c1.451,0.519,2.179,1.518,2.456,3.767c0.587,4.662,3.622,7.529,7.805,7.806c-2.867-1.278-4.628-3.971-3.73-6.772
		c0.448-1.347,2.833-3.103,4.142-2.966c5.667,0.587,10.467,3.552,14.82,8.669c1.62-0.517,2.867-1.45,3.694-2.763
		c2.243-0.377,4.455-0.553,6.492-0.762c-0.276-0.034-0.553-0.139-0.796-0.21c-9.424-2.762-18.753-5.835-28.076-8.877
		c-24.318-7.839-45.246-21.822-66.04-36.089c-4.969-3.381-10.362-5.769-15.987-8.149c-15.165-6.388-29.498-14.712-44.141-22.276
		c-1.381-0.725-2.764-1.52-4.146-2.28c-0.208,0.346-0.415,0.691-0.622,1.037c9.223,5.214,18.445,10.464,27.666,15.681
		c-0.102,0.275-0.207,0.551-0.31,0.863c-1.762-0.381-3.523-0.727-5.319-1.106c2.937,1.071,5.801,2.211,8.772,3.038
		c13.193,3.768,25.594,9.222,36.784,17.235c3.832,2.689,3.454,6.115-0.863,8.184c-2.279,1.072-4.803,1.936-7.255,2.212
		c-13.44,1.589-22.347,9.738-29.911,20.032c-0.725,1.005-1.381,2.107-2.139,3.109c-4.837,6.354-6.149,5.97-13.021,2.381
		c-10.535-5.424-21.69-9.602-32.398-14.75c-10.292-4.941-20.377-10.432-29.219-15.025c7.427,6.807,4.94,16.754,3.11,27.489
		c-8.704-5.04-17.269-4.317-25.904-1.275c-4.629,1.659-9.256,3.629-14.058,4.317c-4.248,0.624-8.773-0.176-13.09-0.763
		c-0.794-0.101-1.935-2.553-1.727-3.693c0.899-4.664,2.28-9.259,3.489-13.987c6.872,4.594,14.402,9.12,23.659,8.635
		c0.136-0.378,0.241-0.763,0.344-1.174c-2.038-0.554-4.074-1.315-6.182-1.656c-19.34-3.214-41.826-27.63-35.574-52.704
		c1.658-6.598,6.354-12.78,10.741-18.271c6.287-7.875,13.125-15.439,20.585-22.208c12.019-10.983,26.802-17.648,42.034-22.416
		c7.805-2.417,16.68-1.207,25.04-2.209c11.673-1.381,22.622,1.139,33.467,5.007c12.952,4.629,26.042,8.877,38.855,13.782
		c7.116,2.693,13.852,6.459,20.898,9.808c-0.796,3.108-0.796,3.108-9.775,1.278c7.117,3.454,13.296,7.771,16.056,15.957
		c-19.441-0.415-19.441-0.415-36.954,8.323c0.418-7.287,10.017-13.988,21.688-15.059c-11.813-5.009-26.592,9.809-27.042,27.078
		c3.452-9.567,15.095-17.787,25.386-18.443c18.234-1.104,30.912,7.909,40.93,21.966c2.104,2.971,4.075,6.01,6.321,9.328
		c-5.835,5.593-4.941,11.778-0.901,17.89c0.759,1.141,2.729,1.519,4.105,2.213c0.694-1.552,1.868-3.11,1.905-4.695
		c0.07-2.313-0.935-4.665-1.002-7.013c-0.101-3.315,2.212-4.941,4.972-3.767c20.618,8.775,42.657,12.401,64.104,18.206
		c0.897,0.24,1.761,0.554,3.967,1.278c-3.798,3.765-6.8,7.356-10.429,10.149c-6.731,5.255-12.814,10.851-15.617,19.209
		c-0.168,0.55-0.374,1.001-0.649,1.346c0.623-0.206,1.237-0.517,1.797-0.863c4.526-2.901,9.012-4.143,13.781-4.176
		c-2.388-0.176-4.735-0.348-7.117-0.554c-0.728-0.07-1.416-0.52-3.318-1.244c3.386-3.279,6.18-6.115,9.086-8.807
		c3.939-3.63,8.184-6.979,11.88-10.878c2.074-2.176,3.865-2.904,6.631-1.798c2.969,1.211,5.458,0.517,8.46-1.005
		c9.154-4.729,18.961-5.039,28.874-3.313c0.173,0.621,0.375,1.211,0.554,1.828c-4.807,1.937-9.637,3.906-13.853,5.633
		c4.87,0.654,9.943,1.14,14.955,2.071c4.763,0.938,9.984,1.106,13.606,4.769c-0.172,0.514-0.352,1.073-0.52,1.623
		c-5.868-0.449-11.777-0.897-17.644-1.38c6.449,3.38,14.18,1.659,21.33,5.484c-1.133,1.039-2.27,2.105-3.369,3.167
		c1.558-0.55,3.109-1.346,4.701-2.415c-0.448-0.273-0.855-0.546-1.305-0.759c0.172-0.172,0.371-0.367,0.573-0.536
		c0.759,0.516,1.383,0.961,2.041,1.379C468.015,295.105,466.911,290.703,457.828,284.692z M97.561,271.396
		c0.52,0.034,1.037,0.067,1.589,0.104c0.968,2.139,1.97,4.28,2.971,6.419c-0.346,0.418-0.691,0.83-1.001,1.245
		c-1.901-0.897-4.249-1.414-5.458-2.901C95.108,275.64,96.835,273.09,97.561,271.396z M93.243,277.34
		c-2.865-1.764-5.629-3.491-9.703-5.973c2.657-0.624,4.834-1.902,6.146-1.278C92.553,271.464,94.587,273.913,93.243,277.34z
		 M293.911,217.76c-0.52,0.241-1.002,0.517-1.492,0.761c-1.483-3.005-2.935-5.977-4.553-9.292
		C294.699,208.746,295.085,209.367,293.911,217.76z M320.711,263.828c-3.521-1.45-4.385-4.594-4.766-7.73
		c-0.381-3.453,0.829-6.425,4.766-8.014V263.828z M318.6,245.217c0.179-0.378,0.317-0.793,0.489-1.174
		c9.461-0.794,12.712,0.654,13.778,6.492C327.963,248.704,323.302,246.978,318.6,245.217z M386.475,264.732
		c2.416-5.181,2.416-5.181,11.499-2.142C394.624,267.596,393.134,267.91,386.475,264.732z M397.451,267.256
		c4.007,0.654,7.565,1.207,11.919,1.895C404.5,273.023,400.352,272.328,397.451,267.256z M435.416,275.025
		c5.592-4.245,14.536-2.04,17.99,4.453C447.295,277.957,441.628,276.577,435.416,275.025z"/>
</g>
<polygon fill="#010101" points="82.867,257.676 82.869,257.676 82.867,257.676 "/>
<path fill="#010101" d="M84.363,259.524c-0.592-0.543-1.095-1.166-1.494-1.849C83.27,258.358,83.771,258.981,84.363,259.524z"/>
</svg>
