<?xml version="1.0" encoding="utf-8"?>
<!-- Generator: Adobe Illustrator 16.0.0, SVG Export Plug-In . SVG Version: 6.00 Build 0)  -->
<!DOCTYPE svg PUBLIC "-//W3C//DTD SVG 1.1//EN" "http://www.w3.org/Graphics/SVG/1.1/DTD/svg11.dtd">
<svg version="1.1" id="Layer_1" xmlns="http://www.w3.org/2000/svg" xmlns:xlink="http://www.w3.org/1999/xlink" x="0px" y="0px"
	 width="500px" height="500px" viewBox="0 0 500 500" enable-background="new 0 0 500 500" xml:space="preserve">
<path fill="#010101" d="M209.643,413.202c0.563-2.183-0.168-4.059-0.612-5.916c-1.141-4.84-2.499-9.63-3.645-14.47
	c-1.185-5.008-2.459-10.015-3.269-15.082c-1.126-7.022-1.847-14.104-0.455-21.195c0.494-2.489,0.371-4.85-0.676-7.279
	c-2.642-6.134-3.61-12.603-3.21-19.26c0.084-1.383-0.439-2.094-1.634-2.677c-1.749-0.85-3.437-1.837-5.111-2.835
	c-1.299-0.78-1.654-1.709-1.24-3.16c2.272-7.912,3.032-16.011,3.61-24.179c0.301-4.286-1.126-7.813-3.245-11.27
	c-0.277-0.454-0.598-0.889-0.859-1.354c-1.096-1.995-1.792-3.645,0.854-5.53c1.654-1.176,2.04-3.063,2.988-4.623
	c0.523-0.879,0.034-1.738-0.948-2.133c-0.642-0.257-1.329-0.415-1.917-0.603c-0.083-0.316-0.217-0.523-0.158-0.643
	c1.847-4.039,2.084-8.396,2.622-12.711c0.528-4.129,1.2-8.248,1.793-12.376c0.217-1.57,0.405-3.151,0.652-5.097
	c-1.057-0.039-1.99-0.148-2.899-0.079c-4.104,0.326-8.158,0.158-12.203-0.681c-1.896-0.395-3.891-0.326-5.817-0.612
	c-1.378-0.208-2.716-0.702-4.074-1.047c-2.612-0.662-3.916-2.607-4.015-5.027c-0.163-3.97-1.403-7.667-2.43-11.41
	c-1.319-4.79-1.768-9.595-1.037-14.499c0.158-1.042,0.133-1.916-0.721-2.657c-0.262-0.217-0.405-0.583-0.607-0.87
	c-2.311-3.358-2.75-6.449-0.153-10.188c3.072-4.415,5.284-9.418,8.03-14.07c1.017-1.724,2.528-3.146,3.733-4.773
	c1.096-1.501,2.153-3.044,3.096-4.647c4.598-7.84,9.902-15.171,15.783-22.08c5.23-6.139,11.605-10.736,19.344-13.122
	c3.635-1.124,7.447-1.654,11.181-2.459c0.42-0.091,0.83-0.2,1.714-0.42c-4.637-5.805-8.875-11.539-10.8-18.8
	c-0.726,0.424-1.086,0.647-1.447,0.854c-2.425,1.38-3.215,1.26-4.844-1.005c-1.551-2.155-3.151-4.299-4.43-6.61
	c-1.783-3.222-2.662-6.808-2.632-10.475c0.02-3.22,0.38-6.506,4.415-7.988c-0.899-1.002-1.581-1.793-2.302-2.541
	c-4.128-4.262-6.76-9.375-7.852-15.134c-0.503-2.64-0.316-5.519,0.109-8.203c0.839-5.341,2.578-10.595,6.746-14.164
	c3.813-3.269,7.615-7.111,13.294-7.146c0.148,0,0.292-0.148,0.642-0.341c-1.106-0.494-2.089-0.934-3.161-1.41
	c1.402-1.36,1.402-1.36,5.827-0.269c0.06-0.792,0.05-1.565,0.198-2.311c0.153-0.773,0.415-1.536,0.721-2.265
	c0.335-0.753,0.82-1.38,2.128-0.916c-0.341,1.316-0.677,2.6-1.002,3.879c0.148,0.086,0.296,0.167,0.439,0.254
	c0.346-0.506,0.82-0.968,1.022-1.529c2.055-5.674,6.499-9.138,11.196-12.455c4.963-3.504,10.766-4.491,16.44-5.906
	c8.198-2.055,16.524-1.674,24.593,0.101c11.142,2.447,21.562,6.684,29.166,15.895c0.643,0.788,1.62,1.435,2.578,1.815
	c4.444,1.771,7.649,5.091,10.796,8.479c3.733,4.025,6.168,8.887,8.543,13.761c1.472,3.024,1.457,6.36,1.689,9.647
	c0.483,6.803-1.027,13.255-3.428,19.522c-0.751,1.96-1.926,3.792-3.071,5.573c-0.761,1.183-1.018,2.099-0.064,3.326
	c1.772,2.271,1.931,5.007,1.338,7.647c-0.632,2.852-1.511,5.684-2.632,8.383c-1.842,4.482-5.121,7.218-10.208,7.111
	c-1.619-0.034-1.896,1.102-2.227,2.176c-1.102,3.538-2.89,6.719-5.339,9.444c-1.832,2.04-3.99,3.778-6,5.66
	c-0.489,0.459-0.953,0.951-1.344,1.341c5.98,2.573,11.857,5.015,17.636,7.66c1.304,0.598,2.42,1.78,3.388,2.898
	c8.726,10.084,15.265,21.604,21.729,33.169c4.085,7.282,8.08,14.618,12.169,21.897c0.908,1.62,2.084,3.091,3.057,4.682
	c0.598,0.968,1.19,1.995,1.536,3.062c1.225,3.936,0.029,6.272-3.808,7.685c-2.475,0.908-2.415,0.918-2.593,3.467
	c-0.435,6.321-1.788,12.477-3.561,18.541c-0.173,0.603-0.444,1.195-0.479,1.798c-0.118,2.677-1.936,3.872-4.089,4.711
	c-2.222,0.869-4.593,0.869-6.845,0.366c-4.395-0.958-8.775-1.037-13.239-0.691c-2.82,0.208-5.675-0.138-8.51-0.217
	c-0.424-0.01-0.859,0.059-1.422,0.099c-0.069,0.523-0.218,0.948-0.153,1.343c0.934,5.521,1.822,11.052,2.869,16.543
	c0.376,1.995,1.121,3.922,1.733,5.867c0.682,2.173,0.568,2.47-1.506,3.477c-1.472,0.711-1.798,1.155-1.205,2.687
	c0.672,1.729,1.373,3.565,2.548,4.938c2.03,2.341,1.937,4.622,0.712,7.141c-0.312,0.633-0.612,1.324-1.087,1.817
	c-2.237,2.361-2.425,5.245-2.237,8.228c0.36,6.114,0.736,12.228,1.161,18.352c0.236,3.457,0.548,6.903,0.869,10.351
	c0.197,2.134,0.113,2.41-1.995,3.032c-2.129,0.633-4.307,1.087-6.46,1.64c-0.583,0.139-1.16,0.336-2.034,0.593
	c0,1.155,0.079,2.292-0.01,3.417c-0.168,2.095-0.188,4.258-0.712,6.272c-0.78,2.992-2.459,5.817-2.81,8.84
	c-0.341,2.913,0.568,5.976,0.819,8.978c0.588,7.299,0.213,14.568-0.874,21.809c-0.523,3.506-1.007,7.052-1.965,10.459
	c-1.788,6.41-3.896,12.731-5.877,19.093c-0.207,0.651-0.396,1.313-0.701,2.36c1.402,0.217,2.578,0.494,3.758,0.563
	c6.85,0.365,13.576,1.64,20.268,3.063c2.78,0.592,5.585,1.096,8.341,1.768c7.971,1.926,15.754,4.494,23.132,8
	c4.879,2.312,9.388,5.393,14.04,8.168c2.139,1.274,4.228,2.618,6.321,3.951c0.894,0.563,1.827,1.116,2.603,1.827
	c5.945,5.442,6.281,9.976,1.018,17.018c-3.072,4.119-7.517,6.806-12.159,8.89c-6.074,2.716-12.104,5.58-18.528,7.438
	c-10.51,3.042-21.058,5.798-31.996,6.903c-5.205,0.523-10.337,1.719-15.527,2.4c-3.076,0.405-6.207,0.435-9.304,0.603
	c-14.475,0.78-28.944,1.234-43.428,0.188c-9.921-0.721-19.868-1.195-29.774-2.015c-5.482-0.454-10.934-1.354-16.381-2.144
	c-6.771-0.968-13.566-1.797-20.262-3.141c-10.549-2.113-21.003-4.633-30.436-10.144c-5.773-3.368-10.366-7.753-12.332-14.391
	c-0.4-1.363-0.958-2.677-1.323-4.05c-1.294-4.918,0.059-9.176,3.556-12.701c0.928-0.938,2.425-1.324,3.689-1.896
	c0.721-0.326,1.561-0.405,2.247-0.771c10.282-5.551,20.958-10.064,32.356-12.78c4.662-1.116,9.265-2.479,13.931-3.566
	c7.976-1.826,16.065-3.002,24.223-3.624C208.107,413.43,208.883,413.291,209.643,413.202z M232.202,453.56
	c-0.514,0.533-0.914,0.997-1.354,1.412c-2.464,2.312-7.072,2.756-9.269,0.464c-1.349-1.412-2.405-1.383-3.941-0.858
	c-1.161,0.385-2.445,0.908-3.581,0.029c-1.743-1.354-4.257-1.383-5.62-3.388c-0.217-0.307-0.765-0.435-1.19-0.533
	c-2.953-0.701-3.99-3.042-4.736-5.57c-0.484-1.66-0.094-3.339,1.155-4.436c1.106-0.958,1.482-2.113,1.882-3.378
	c0.37-1.185,0.755-2.39,1.313-3.496c1.556-3.081,3.19-6.114,2.603-9.778c-0.124-0.79,0.163-1.64,0.277-2.607
	c-7.299,0.672-14.164,1.502-20.87,3.318c-5.906,1.61-11.833,3.151-17.739,4.781c-2.815,0.78-5.605,1.649-8.385,2.567
	c-2.015,0.682-3.991,1.491-5.976,2.252c-4.771,1.827-8.811,4.682-11.536,9.018c-1.462,2.331-2.598,5.166-1.388,7.862
	c1.18,2.627,2.928,5.047,4.746,7.289c0.894,1.097,2.578,1.521,3.822,2.37c4.623,3.161,9.837,4.938,15.171,6.272
	c11.566,2.894,23.359,4.553,35.216,5.719c9.19,0.898,18.416,1.362,27.666,1.273c1.827-0.02,3.659,0.603,5.491,0.652
	c5.057,0.148,10.124,0.108,15.186,0.217c4.618,0.109,9.23,0.365,13.843,0.465c3.195,0.078,6.396,0.02,9.585-0.01
	c3.102-0.021,6.218-0.011,9.314-0.129c2.301-0.099,4.603-0.355,6.904-0.593c5.388-0.543,10.834-0.8,16.148-1.768
	c13.931-2.519,27.591-6.114,40.618-11.783c2.761-1.195,5.457-2.627,7.976-4.276c2.43-1.591,4.519-3.932,4.055-7.022
	c-0.489-3.24-1.887-6.153-4.904-8.188c-6.276-4.228-13.225-6.973-20.336-9.186c-8.904-2.766-17.946-5.106-26.993-7.368
	c-5.077-1.264-10.272-2.054-15.438-2.953c-2.134-0.355-2.361-0.02-2.983,2.035c-0.78,2.577-0.069,4.898,0.978,7.21
	c0.731,1.609,1.649,3.2,2.04,4.908c0.735,3.24,1.654,6.095,4.341,8.494c2.568,2.302,1.501,7.773-1.521,8.604
	c-2.138,0.582-4.059,1.619-6.168,2.162c-0.567,0.148-1.278,0.237-1.803,0.04c-1.066-0.415-1.866-0.02-2.735,0.484
	c-1.773,1.026-3.605,1.511-5.58,0.523c-1.087-0.544-2.035-0.079-3.032,0.425c-2.021,1.017-4.04,1.323-5.956-0.326
	c-0.904-0.761-1.827-0.731-2.973-0.346c-1.309,0.435-2.756,0.682-4.119,0.622c-3.086-0.128-4.79-2.281-6.38-4.643
	c-1.373-2.034-0.82-3.822,0.104-5.758c0.439-0.938,0.908-2.024,0.829-3.013c-0.414-5.086,1.2-9.719,3.481-14.035
	c1.848-3.496,1.482-6.735,0.341-10.489c-7.343,0.069-14.662-0.523-22.312,0.524c0.366,3.278,0.706,6.301,1.042,9.313
	c0.01,0.099,0.069,0.168,0.099,0.257c2.282,5.057,3.689,10.36,4.623,15.813c0.128,0.761,0.464,1.502,0.662,2.262
	c0.395,1.531,0.884,3.042,1.097,4.593c0.188,1.433-0.593,2.578-1.778,3.368c-3.032,2.025-7.685,2.559-10.746-0.612
	C233.13,454.251,232.696,453.965,232.202,453.56z M261.433,84.92c-4.257-2.654-8.617-5.168-12.746-8.005
	c-4.134-2.837-7.714-6.297-9.896-10.968c2.113,0.97,4.124,2.032,5.946,3.353c6.479,4.696,13.976,6.842,21.551,8.817
	c1.279,0.336,2.617,0.627,3.931,0.652c10.588,0.192,20.747-1.299,29.566-7.818c0.351-0.262,0.736-0.508,1.131-0.711
	c1.116-0.588,1.808-0.183,2.247,1.042c-1.585,2.124-3.604,3.669-5.852,4.948c-2.963,1.689-3.25,2.21-2.262,5.452
	c0.325,1.062,1.037,2.04,1.688,2.968c0.612,0.872,1.512,1.548,2.045,2.45c3.501,5.892,8.144,11.195,9.368,18.623
	c0.37-0.6,0.607-0.859,0.721-1.163c0.924-2.403,1.763-4.833,2.741-7.206c0.315-0.763,0.869-1.506,1.501-2.042
	c0.805-0.679,1.748-1.269,2.726-1.649c1.354-0.526,2.084-1.506,2.806-2.682c2.231-3.625,3.239-7.689,4.217-11.741
	c0.761-3.176,1.462-6.388,1.067-9.746c-0.672-5.689-1.699-11.215-4.712-16.228c-3.338-5.556-7.15-10.684-13.037-13.719
	c-3.378-1.743-6.312-3.918-8.879-6.684c-1.205-1.296-2.42-2.696-3.901-3.605c-5.946-3.662-12.386-6.321-19.161-7.839
	c-8.919-2.002-17.956-2.296-26.935-0.091c-4.741,1.163-9.511,2.333-13.492,5.422c-1.403,1.086-2.731,2.279-4.163,3.321
	c-1.852,1.355-3.265,3.045-4,5.2c-1.082,3.176-2.918,6.067-3.397,9.482c-0.143,1.037-0.904,1.985-1.447,3.109
	c-2.884-3.968-6.677-5.274-10.332-3.6c-1.363,0.622-2.696,1.419-3.822,2.397c-7.146,6.215-9.817,14.144-8.667,23.423
	c0.193,1.558,0.637,3.175,1.368,4.551c1.975,3.733,4.148,7.363,6.282,11.01c0.39,0.667,0.859,1.526,1.491,1.771
	c2.173,0.822,3.013,2.625,3.822,4.531c0.691,1.607,1.417,3.2,2.153,4.85c0.326-0.25,0.528-0.326,0.603-0.462
	c1.205-2.563,2.331-5.173,3.635-7.692c0.508-0.99,1.309-1.886,2.143-2.639c0.845-0.768,1.867-1.361,2.854-1.951
	c3.057-1.827,4.869-4.593,6.114-7.825c0.78-2.032,0.583-3.99-0.247-5.956c-0.519-1.215-0.918-2.479-1.393-3.707
	c-0.454-1.153-0.869-2.326-1.422-3.435c-2.202-4.435-3.141-9.052-1.975-13.931c0.346-1.438,0.721-3.045,2.839-3.667
	c-0.212,0.956-0.449,1.612-0.489,2.281c-0.114,2.109-0.4,4.242-0.178,6.321c0.583,5.455,3.18,10.087,6.548,14.28
	c2.558,3.19,5.333,6.215,8.929,8.324c3.057,1.79,6.208,3.449,9.181,5.375C253.645,84.313,257.477,84.703,261.433,84.92z
	 M212.231,104.763c2.217,1.205,2.262,1.22,2.687,2.484c0.721,2.185,1.6,4.338,2.094,6.573c0.929,4.168,2.845,7.783,5.304,11.228
	c2.83,3.958,6.37,7.22,10.267,9.946c5.941,4.168,12.411,7.571,17.705,12.643c0.563,0.536,1.314,0.906,2.025,1.254
	c4.315,2.084,8.632,1.881,12.81-0.338c2.42-1.284,4.801-2.543,7.418-3.484c3.911-1.408,7.625-3.363,11.413-5.109
	c4.824-2.229,8.889-5.536,12.509-9.349c1.688-1.78,3.2-3.83,4.341-5.993c1.822-3.444,3.294-7.082,4.874-10.645
	c0.242-0.541,0.425-1.183,0.376-1.761c-0.134-1.563-0.361-3.121-0.643-4.662c-0.375-2.089-0.355-4.43-1.363-6.181
	c-2.587-4.531-5.393-8.99-8.593-13.102c-1.832-2.349-3.16-4.655-3.516-7.561c-0.06-0.501-0.228-0.99-0.307-1.316
	c-5.837,0.872-11.496,1.914-17.205,2.514c-5.867,0.617-11.467-1.501-17.235-2.4c0.242,0.484,0.533,0.788,0.894,0.99
	c3.976,2.26,8.312,3.571,12.717,4.647c1.254,0.309,2.341,0.603,2.854,2.373c-1.931,0.121-3.664,0.262-5.393,0.333
	c-6.104,0.247-12.021-0.593-17.739-2.852c-6.064-2.397-11.254-6.002-15.734-10.697c-0.691-0.728-1.461-1.39-2.558-2.437
	c0,0.98,0,1.326,0,1.669c0.04,4.01-2.074,7.161-4.504,9.968c-1.402,1.617-3.486,2.746-5.442,3.765
	c-2.262,1.178-3.901,2.867-4.82,5.129c-1.092,2.701-1.887,5.516-2.786,8.294c-0.188,0.585-0.188,1.252-0.474,1.78
	c-0.217,0.402-0.741,0.874-1.136,0.874c-0.351,0-0.839-0.536-1.027-0.945c-0.247-0.551-0.198-1.235-0.415-1.81
	c-0.968-2.662-1.803-5.393-3.047-7.926c-1.082-2.208-3.758-2.203-4.845-0.01c-0.716,1.447-1.175,3.208-1.146,4.815
	c0.099,4.708,2.439,8.637,4.958,12.435c0.474,0.724,1.205,1.321,1.926,1.814c1.413,0.971,3.141,0.102,3.245-1.642
	c0.049-0.78-0.202-1.578-0.281-2.368C212.364,106.881,212.325,106.064,212.231,104.763z M200.719,329.556
	c-0.676,2.735-0.499,5.086,0.198,7.388c0.711,2.38,1.388,4.79,2.371,7.062c1.457,3.388,1.723,6.864,1.447,10.45
	c-0.079,1.057-0.287,2.113-0.336,3.18c-0.188,3.98-0.81,8.021-0.405,11.941c1.007,9.719,2.953,19.29,5.625,28.702
	c1.066,3.743,2.188,7.478,3.136,11.26c0.583,2.312,1.032,4.662,0.365,7.092c-0.538,1.956-0.879,3.971-1.264,5.966
	c-0.113,0.593-0.316,1.323-0.089,1.808c1.067,2.341,0.188,4.286-0.988,6.271c-0.671,1.136-1.15,2.4-1.645,3.635
	c-1.15,2.864-2.267,5.758-3.373,8.652c-0.484,1.254-0.662,2.488,0.741,3.842c0.331-1.402,0.454-2.559,0.889-3.575
	c0.455-1.037,1.235-1.926,2.786-1.769c-0.173,1.551-0.307,3.022-0.504,4.475c-0.208,1.521,0.03,2.854,1.407,4.01
	c0.114-4.81,1.546-6.726,4.756-6.351c-0.188,0.494-0.227,1.116-0.548,1.363c-1.388,1.027-1.407,2.33-1.057,3.822
	c0.183,0.771,0.143,1.609,0.4,2.36c0.208,0.603,0.618,1.472,1.086,1.58c0.583,0.129,1.314-0.405,2.45-0.819
	c-1.24-0.682-1.926-1.057-2.607-1.433c0.029-0.138,0.069-0.276,0.104-0.415c1.161,0,2.326,0,3.481,0
	c1.511-4.691,2.954-6.064,5.181-4.771c-0.292,0.523-0.558,1.067-0.894,1.561c-1.002,1.492-1.146,3.111-0.898,4.85
	c0.178,1.265,0.736,2.262,1.965,2.578c1.329,0.346,2.716,0.296,3.64-0.948c0.993-1.354,2.079-2.687,1.773-4.583
	c-0.228-1.441,0.454-2.637,1.432-3.575c0.415-0.385,1.215-0.375,1.842-0.543c0.104,0.563,0.41,1.175,0.272,1.669
	c-0.667,2.271-0.642,4.139,1.304,6.015c1.047,0.998,1.792,1.808,3.279,1.68c1.432-0.119,2.875-0.148,3.901-1.373
	c0.726-0.869,0.953-1.827,0.623-2.559c-2.687-0.928-5.339,0.583-7.842-1.057c2.183-2.202,4.578-1.57,7.042-1.047
	c0-0.879,0.074-1.472-0.01-2.055c-0.701-4.948-2.133-9.719-4.079-14.301c-1.116-2.638-2.321-5.087-1.724-8.159
	c0.563-2.874-1.654-5.63-0.834-8.642c0.069-0.257,0.099-0.523,0.119-0.79c0.553-8.277,3.417-16.109,4.523-24.308
	c1.002-7.438,1.551-14.815,1.284-22.272c-0.079-2.123-0.286-4.267-0.701-6.351c-0.43-2.143-0.928-4.355-1.886-6.312
	c-0.662-1.343-0.731-2.419-0.366-3.763c0.859-3.25,1.709-6.519,2.39-9.808c0.613-3.003-0.029-5.906-0.83-8.899
	c-1.304,0.139-2.267,0.247-3.229,0.346c-6.884,0.721-13.759,1.491-20.653,2.094c-1.348,0.119-2.83-0.246-4.124-0.73
	C208.078,332.646,204.571,331.126,200.719,329.556z M258.168,333.556c0.114,1.955,0.05,3.378,0.312,4.73
	c0.805,4.179,1.585,8.376,2.696,12.475c0.479,1.759,0.262,3.26-0.123,4.909c-0.662,2.845-1.363,5.699-1.709,8.593
	c-0.622,5.225-0.148,10.46,0.444,15.665c0.898,7.881,2.73,15.565,4.603,23.25c0.948,3.901,1.313,7.832,0.286,11.852
	c-0.523,2.025-0.661,4.228-0.503,6.312c0.197,2.479-0.06,4.751-1.058,7.013c-1.688,3.822-3.175,7.714-3.516,11.941
	c-0.257,3.16-0.287,6.301-1.546,9.373c-0.81,1.976,1.699,4.761,4.02,5.087c2.109,0.296,3.946-0.366,4.687-1.788
	c0.598-1.165,1.097-2.4,1.68-3.704c-0.262-0.395-0.583-0.8-0.84-1.254c-0.207-0.376-0.336-0.8-0.612-1.481
	c3.763,1.945,3.945,2.449,2.973,6.163c-0.178,0.661-0.049,1.63,0.331,2.173c1.318,1.856,2.869,1.412,4.396-1.244
	c-1.111-0.405-2.208-0.801-3.294-1.205c0.02-0.188,0.049-0.366,0.069-0.554c1.343-0.118,2.687-0.237,4.311-0.375
	c-0.444-1.709-0.849-3.249-1.318-5.027c3.299,0.494,2.845,3.496,3.901,4.958c1.047,0.811,2.494-0.672,3.245,1.215
	c-0.885,0.079-1.586,0.02-2.208,0.228c-0.474,0.158-0.83,0.651-1.244,0.997c0.435,0.336,0.85,0.958,1.304,0.988
	c1.763,0.108,3.062-0.761,3.896-2.302c0.766-1.402,0.519-2.716-0.528-3.921c-0.593-0.691-1.106-1.452-1.649-2.183
	c0.138-0.188,0.291-0.386,0.439-0.573c0.587,0.207,1.278,0.276,1.748,0.643c1.516,1.185,2.464,2.765,2.879,4.671
	c0.139,0.652,0.346,1.294,0.523,1.917c3.486-0.662,4.523-3.339,2.499-5.818c-0.731-0.889-1.995-1.412-2.232-2.834
	c0.454-0.069,0.721-0.178,0.948-0.129c0.336,0.079,0.741,0.178,0.958,0.425c1.59,1.827,3.15,3.694,4.727,5.551
	c1.871-1.541,2.138-3.121,0.311-5.008c-2.049-2.113-3.338-4.493-4-7.338c-0.331-1.462-1.057-2.825-1.575-4.247
	c-0.726-2.005-1.457-4-2.079-6.035c-0.223-0.74-0.454-1.729-0.139-2.321c1.531-2.854,1.116-5.827,0.859-8.829
	c-0.059-0.662,0.01-1.373,0.198-2.016c2.084-7.438,4.063-14.904,6.351-22.271c3.007-9.65,3.467-19.547,3.259-29.522
	c-0.049-2.37-0.015-5.106-1.136-7.013c-1.205-2.055-0.918-3.693-0.37-5.491c0.963-3.24,2.257-6.371,3.181-9.61
	c0.479-1.68,0.558-3.486,0.642-5.245c0.055-1.126-0.567-1.837-1.861-1.629c-1.403,0.217-2.84,0.315-4.208,0.642
	c-3.536,0.869-7.018,1.956-10.573,2.696c-1.693,0.355-3.541,0.396-5.265,0.158c-2.365-0.336-4.651-1.155-7.002-1.601
	C266.415,334.859,262.573,334.276,258.168,333.556z M199.134,240.021c-0.612,5.314-1.166,10.321-1.768,15.319
	c-0.128,1.096,0.316,1.688,1.299,1.985c1.101,0.325,2.217,0.651,3.319,0.987c6.464,1.926,12.889,3.98,19.393,5.738
	c7.205,1.956,14.548,3.142,22.005,3.882c7.931,0.79,15.803,0.129,23.68-0.365c5.654-0.355,11.313-1.156,16.904-2.163
	c6.726-1.186,13.393-2.746,20.055-4.276c2.139-0.494,2.405-1.106,2.104-2.983c-0.493-3.071-1.012-6.134-1.53-9.195
	c-0.355-2.084-0.736-2.252-2.859-2.005c-5.018,0.583-10.045,1.313-15.092,1.541c-8.247,0.375-16.524,0.681-24.776,0.494
	c-11.358-0.257-22.702-0.938-34.051-1.541c-8.509-0.444-16.578-2.983-24.662-5.422c-0.375-0.108-0.697-0.435-1.333-0.839
	c0.721-0.336,1.155-0.741,1.57-0.711c1.141,0.089,2.311,0.228,3.388,0.593c7.635,2.528,15.477,3.98,23.462,4.741
	c2.563,0.247,5.111,0.711,7.679,0.81c6.479,0.257,12.964,0.405,19.448,0.523c6.479,0.109,12.979,0.355,19.452,0.128
	c7.102-0.247,14.179-0.958,21.266-1.501c0.656-0.049,1.304-0.286,1.95-0.435c0.02-0.197,0.029-0.385,0.05-0.583
	c-2.652-0.928-5.097-2.489-8.198-2.015c-2.454,0.375-4.943,0.652-7.417,0.771c-6.292,0.316-12.594,0.543-18.895,0.741
	c-8.974,0.276-17.947,0.227-26.89-0.741c-6-0.652-12.035-1.047-17.882-2.736c-1.487-0.424-2.864-1.274-4.563-1.077
	c-0.558,0.06-1.209-0.681-2.321-1.363c2.03-0.652,3.388-0.642,4.775-0.355c2.484,0.513,4.968,1.066,7.472,1.472
	c2.272,0.365,4.573,0.632,6.875,0.83c6.805,0.593,13.62,1.442,20.445,1.61c9.314,0.227,18.647-0.089,27.977-0.178
	c1.861-0.02,3.729-0.079,5.585-0.178c0.573-0.03,1.142-0.267,2.312-0.563c-1.64-1.047-2.814-1.788-3.99-2.539
	c-4.736-3.002-9.245-6.292-13.126-10.378c-2.687-2.84-5.354-5.704-8.045-8.539c-0.607-0.642-1.171-1.432-1.926-1.817
	c-2.85-1.417-4.796-3.605-6.05-6.479c-0.094-0.212-0.355-0.355-0.652-0.632c-0.365,0.257-0.75,0.454-1.037,0.75
	c-1.975,2.104-4.301,3.684-6.904,4.919c-1.274,0.602-2.519,1.328-3.664,2.158c-3.733,2.716-7.398,5.521-11.122,8.252
	c-8.271,6.086-17.472,10.136-27.497,12.319C203.193,239.429,201.011,239.706,199.134,240.021z M237.713,204.591
	c-1.319,0.276-2.144,0.435-2.973,0.632c-1.205,0.287-2.395,0.82-3.605,0.869c-6.558,0.262-13.122,0.425-19.685,0.593
	c-2.751,0.069-5.521-0.104-8.247,0.128c-4.558,0.39-8.983,1.462-12.776,4.158c-2.01,1.442-3.792,3.205-5.689,4.82
	c-0.632,0.539-1.284,1.067-2.114,1.763c-0.044-1.97,0.104-2.267,3.847-5.867c1.748-1.684,3.635-3.215,5.817-5.126
	c-8.623-2.469-16.702-4.78-25.013-7.156c-1.501,5.186-2.168,10.164-1.541,15.215c0.415,3.333,1.398,6.588,2.02,9.902
	c0.548,2.953,1.002,5.928,1.383,8.901c0.153,1.195,0.578,2.035,1.699,2.449c0.741,0.277,1.501,0.623,2.282,0.701
	c4.316,0.445,8.642,0.929,12.978,1.166c5.151,0.286,10.208-0.247,15.329-1.255c5.19-1.027,10.114-2.706,15.013-4.494
	c7.719-2.805,14.82-6.813,21.398-11.756c3.753-2.825,7.531-5.566,11.738-7.778c4.396-2.311,6.766-6.188,5.773-11.487
	c-0.114-0.607-0.228-1.22-0.312-1.832c-0.701-5.472-1.155-10.941-0.257-16.452c0.484-2.973,0.672-5.998,0.973-9
	c0.104-1.089,0.055-2.146-1.461-2.763c-2.781,4.294-5.586,8.618-8.381,12.937c-0.78-1.709-0.227-3.03,0.598-4.277
	c2.459-3.699,4.894-7.41,7.402-11.072c1.442-2.114,1.438-3.064-0.504-4.859c-4.563,4.844-8.375,10.355-13.156,15.04
	c-0.01-2.438,1.393-4.146,2.766-5.825c2.242-2.75,4.603-5.408,6.859-8.148c0.707-0.85,1.235-1.839,1.867-2.795
	c-1.694-1.148-2.849-0.835-3.985,0.395c-3.062,3.306-6.192,6.553-9.289,9.835c-0.301,0.318-0.632,0.671-0.785,1.071
	c-0.978,2.66-2.044,5.299-2.83,8.02c-0.707,2.475-0.341,5.008-0.212,7.576c0.208,4.126,0.978,8.072,2.089,11.998
	C237.081,202.052,237.382,203.307,237.713,204.591z M330.339,224.572c-0.193,0.124-0.386,0.247-0.583,0.37
	c-0.771-0.81-1.517-1.639-2.312-2.425c-1.525-1.481-2.913-3.161-4.642-4.351c-5.714-3.951-11.991-6.459-18.998-7.116
	c-5.833-0.543-11.65-1.289-17.458-2.099c-2.271-0.321-4.474-1.111-6.726-1.575c-3.142-0.652-3.481-1.047-3.161-4.306
	c0.03-0.356,0.02-0.716,0.108-1.057c1.126-4.326,1.457-8.622,0.938-13.146c-0.514-4.481-1.225-8.8-3.318-12.786
	c-2.701-5.144-5.773-9.998-10.727-13.381c-1.609-1.106-3.304-1.153-5.076-1.052c-0.331,0.022-0.643,0.583-1.161,1.089
	c0.746,0.212,1.151,0.398,1.576,0.445c2.399,0.242,4.108,1.442,5.16,3.6c0.113,0.232,0.331,0.42,0.489,0.632
	c2.435,3.287,4.79,6.635,6.252,10.499c0.41,1.082,0.656,2.225,0.978,3.341c-0.217,0.082-0.435,0.168-0.642,0.25
	c-0.771-1.457-1.596-2.884-2.302-4.371c-1.729-3.654-4.144-6.81-6.963-9.684c-0.899-0.928-1.827-1.729-3.358-0.6
	c0.396,0.854,0.622,1.869,1.225,2.553c3.057,3.45,4.158,7.793,5.66,11.954c0.503,1.393,0.69,2.808-0.09,4.83
	c-0.701-1.259-1.194-1.97-1.516-2.76c-0.538-1.314-0.943-2.682-1.438-4.01c-0.711-1.916-1.422-3.832-2.202-5.724
	c-0.36-0.896-0.84-1.79-2.247-1.245c0.271,3.131,0.548,6.205,0.805,9.274c0.435,5.299,1.058,10.578-0.236,15.897
	c-0.672,2.736-0.909,5.6-1.106,8.425c-0.237,3.354,1.2,5.956,3.985,7.892c1.289,0.898,2.439,2.024,3.546,3.155
	c3.729,3.803,7.097,8.05,11.195,11.403c6.173,5.05,12.657,9.682,20.436,12.309c5.017,1.699,10.089,2.706,15.27,3.467
	c0.948,0.138,1.955,0.049,2.923-0.029c5.764-0.475,11.473-0.85,17.245,0.326c5.116,1.057,8.198-1.146,9.428-6.232
	c1.743-7.17,3.244-14.388,2.963-21.84c-0.094-2.439-0.301-2.771-2.726-2.898c-4.746-0.242-9.398,0.424-14.001,1.536
	c-0.553,0.138-1.047,0.528-1.609,0.82C327.099,219.095,330.596,220.922,330.339,224.572z M249.901,286.137c0,1.63-0.01,2.845,0,4.06
	c0.01,1.412,0.217,2.845,0.03,4.228c-0.188,1.333-0.03,2.36,0.879,3.417c2.104,2.42,2.489,5.234,2.331,8.444
	c-0.207,4.228,0.094,8.524,0.514,12.751c0.316,3.161,1.304,6.242,1.709,9.394c0.202,1.6,0.879,2.015,2.296,2.291
	c6.277,1.215,12.52,2.578,18.801,3.803c0.993,0.197,2.094,0.118,3.106-0.069c1.239-0.227,1.753-1.047,1.428-2.37
	c-0.237-0.948-0.43-1.916-0.465-2.884c-0.158-5.867-0.276-11.734-0.39-17.601c-0.01-0.712,0.094-1.423,0.143-2.153
	c0.583,0.849,0.84,1.688,0.899,2.548c0.257,4.168,0.454,8.336,0.691,12.514c0.049,0.88-0.089,1.906,0.315,2.607
	c0.85,1.492,0.84,3.053,0.924,4.643c0.029,0.494,0.228,0.978,0.341,1.422c1.976,0.1,24.712-4.77,26.272-5.6
	c-0.523-3.022-0.948-3.24-3.783-2.538c-5.353,1.333-10.716,2.558-16.089,3.813c-0.371,0.089-0.78-0.021-1.798-0.069
	c2.469-1.857,4.929-1.778,7.131-2.4c2.223-0.622,4.455-1.225,6.677-1.847c2.292-0.632,4.583-1.265,6.761-1.857
	c0.124-0.553,0.247-0.819,0.237-1.066c-0.464-9.491-1.082-18.974-1.304-28.465c-0.055-2.183-0.785-3.052-2.514-3.675
	c-0.415-0.147-0.83-0.336-1.205-0.572c-2.563-1.601-5.176-3.171-6.479-6.104c-0.425-0.958-0.745-1.975-1.086-2.874
	c-0.312-0.089-0.489-0.207-0.643-0.188c-0.79,0.129-1.585,0.247-2.355,0.435c-11.481,2.864-23.018,5.363-34.92,5.659
	c-1.97,0.05-2.301,0.445-2.716,2.549c-0.385,1.995-1.086,3.822-2.528,5.768c-0.934-2.745,1.106-5.116,0.029-7.674
	C252.223,286.374,251.294,286.275,249.901,286.137z M212.735,332.271c0.671-6.321,1.382-12.198,1.906-18.095
	c0.523-5.916,0.118-11.911,1.62-17.769c0.365,1.442,0.494,2.885,0.425,4.326c-0.435,9.818-0.909,19.636-1.398,29.453
	c-0.074,1.531,0.198,1.936,1.669,1.976c0.528,0.01,1.067-0.021,1.595-0.089c5.378-0.612,10.766-1.176,16.134-1.887
	c3.422-0.444,6.81-1.106,10.529-1.719c0.573-3.042,1.002-6.015,1.704-8.929c1.175-4.819,2.455-9.62,3.852-14.381
	c0.533-1.817,0.124-3.278-1.205-4.306c-1.886-1.442-2.104-3.289-2.114-5.423c-0.01-2.469-0.351-4.938-0.4-7.407
	c-0.035-1.64-0.854-2.045-2.311-2.232c-5.102-0.652-10.188-1.452-15.285-2.173c-5.462-0.761-10.84-1.906-16.104-3.556
	c-1.66-0.523-3.284-1.146-5.042-1.758c-2.192,6.598-5.788,11.071-13.284,10.311c-0.04,0.405-0.173,0.731-0.069,0.929
	c1.526,2.806,1.363,5.817,1.121,8.84c-0.212,2.647-0.39,5.313-0.746,7.951c-0.336,2.538-0.83,5.066-1.358,7.565
	c-0.42,2.005-1.013,3.951-1.472,5.946c-0.444,1.906-0.405,1.896,1.358,2.814c4.879,2.538,9.739,5.116,14.628,7.655
	C209.801,331.007,211.184,331.561,212.735,332.271z M338.655,190.948c-1.027-1.96-1.773-3.558-2.657-5.072
	c-4.089-6.968-8.129-13.973-12.356-20.855c-2.231-3.625-4.78-7.05-7.259-10.519c-0.612-0.854-1.21-1.971-2.845-1.744
	c0.173,3.354,1.787,6.393,1.037,9.781c-1.018,4.561-2.045,7.687-3.901,9.097c0.158-2.148,0.128-3.99,0.474-5.766
	c0.465-2.447,0.998-4.813,0.484-7.356c-0.405-1.983-0.242-4.072-0.612-6.06c-0.355-1.881-0.682-4.025-2.706-4.931
	c-4.198-1.876-8.465-3.634-12.746-5.323c-1.946-0.766-4.001-1.25-6.085-1.887c-1.94,0.904-4,1.946-6.123,2.827
	c-1.2,0.499-1.862,1.284-2.079,2.524c-0.139,0.788-0.267,1.58-0.47,2.351c-1.388,5.4-3.896,10.08-8.706,13.228
	c-1.027,0.669-2.015,1.397-3.289,2.282c3.106,3.802,6.129,7.444,7.591,11.971c1.467,4.536,2.76,9.136,4.153,13.78
	c4.128,0.677,20.089-0.081,22.528-1.133c0-1.403,0-2.833,0-4.265c0.158-0.04,0.312-0.079,0.465-0.121
	c0.75,1.375,1.501,2.756,2.499,4.593c1.215-2.131,2.138-3.753,3.259-5.726c0.405,1.887,0.41,1.892,0.02,2.958
	c-1.866,5.108-3.427,10.287-3.693,15.763c-0.03,0.637,0.089,1.284,0.158,2.296C315.829,196.778,326.813,193.489,338.655,190.948z
	 M201.307,190.884c0.76-1.775,0.583-3.324,0.439-4.896c-0.208-2.296-0.341-4.603-0.41-6.907c-0.015-0.491,0.385-0.997,0.592-1.494
	c0.208-0.01,0.415-0.025,0.612-0.035c0.504,1.254,1.008,2.504,1.556,3.879c1.018-1.173,1.329-2.929,3.274-3.667
	c0.538,2.61-1.363,4.521-1.353,6.702c2.75,1.015,22.781,2.832,25.542,2.274c-0.148-4.397,1.61-8.348,3.19-12.413
	c1.64-4.23,5.433-6.691,7.902-10.237c-1.274-0.61-2.534-0.929-3.408-1.684c-3.674-3.18-5.521-7.282-5.798-12.151
	c-0.094-1.724-0.178-3.561-1.689-4.734c0.662-2.064,1.274-3.985,1.872-5.839c-2.217-1.583-4.202-3.055-6.247-4.435
	c-0.454-0.313-1.2-0.548-1.699-0.41c-5.971,1.667-11.941,3.341-17.867,5.163c-3.556,1.091-4.455,2.664-4.444,6.452
	c0,3.281-0.04,6.568-0.198,9.85c-0.148,3.284-0.444,6.556-0.721,9.828c-0.128,1.536-0.355,3.064-0.543,4.595
	c-0.217,0.032-0.444,0.062-0.662,0.091c-0.623-1.815-1.719-3.417-1.581-5.563c0.469-6.877,0.854-13.764,1.259-20.646
	c0.015-0.299-0.124-0.603-0.301-1.388c-11.329,9.954-18.618,22.342-25.957,34.549c4.721,1.857,9.23,3.632,13.739,5.413
	C193.05,185.002,197.268,187.551,201.307,190.884z M210.182,415.454c-1.724,0-3.166-0.207-4.529,0.04
	c-9.086,1.63-18.178,3.249-27.216,5.116c-3.807,0.79-7.472,2.291-11.245,3.269c-9.521,2.46-18.42,6.46-27.25,10.658
	c-4.78,2.262-7.042,6.558-8.622,11.299c-0.198,0.572-0.237,1.244-0.168,1.847c0.691,6.144,2.736,11.576,8.198,15.122
	c1.491,0.968,3.012,1.876,4.553,2.755c3.086,1.769,6.193,3.457,9.738,4.168c7.753,1.551,15.453,3.358,23.23,4.702
	c8.929,1.54,17.897,2.884,26.885,3.94c8.465,0.997,16.974,1.541,25.468,2.223c5.654,0.454,11.319,0.79,16.973,1.194
	c10.016,0.712,20.025,0.326,30.056,0.198c15.738-0.208,31.107-2.895,46.308-6.696c5.338-1.334,10.504-3.358,15.848-4.652
	c4.85-1.186,9.551-2.706,14.183-4.533c5.037-1.985,9.729-4.436,13.132-8.781c3.965-5.066,3.561-9.432-0.381-13.946
	c-1.486-1.708-3.525-2.992-5.441-4.267c-5.166-3.438-10.396-6.696-16.188-9.155c-7.793-3.3-15.694-6.242-23.888-8.287
	c-6.795-1.679-13.733-2.795-20.617-4.089c-2.529-0.475-5.092-0.79-7.65-1.008c-0.646-0.059-1.753,0.415-1.936,0.909
	c-0.375,0.978-0.207,2.192,0.835,2.834c0.572,0.346,1.348,0.396,2.034,0.524c7.255,1.303,14.559,2.38,21.749,3.95
	c10.252,2.232,20.316,5.146,30.174,8.79c4.632,1.719,8.929,3.961,12.958,6.756c1.68,1.166,3.274,2.46,3.635,4.731
	c0.094,0.573,0.435,1.205,0.859,1.62c1.279,1.264,1.166,2.726,0.716,4.217c-1.031,3.358-3.076,6.035-5.99,7.912
	c-2.454,1.58-5.096,2.894-7.709,4.207c-8.483,4.276-17.684,6.43-26.761,8.919c-3.339,0.929-6.727,1.688-10.119,2.37
	c-8.302,1.64-16.707,2.36-25.127,2.953c-2.128,0.148-4.252,0.563-6.375,0.554c-11.279-0.05-22.559-0.079-33.843-0.326
	c-11.896-0.276-23.793-0.514-35.67-1.561c-10.983-0.968-21.897-2.213-32.722-4.336c-10.074-1.976-19.931-4.494-28.969-9.561
	c-0.617-0.346-1.373-0.573-1.807-1.077c-1.867-2.133-3.665-4.326-5.433-6.548c-2.104-2.657-2.341-5.689-1.491-8.84
	c1.397-5.195,5.086-8.484,9.689-10.677c4.396-2.084,8.958-3.822,13.521-5.502c2.657-0.978,5.462-1.561,8.208-2.301
	c6.341-1.719,12.642-3.566,19.033-5.087c4.138-0.978,8.375-1.501,12.583-2.153c2.163-0.336,4.346-0.523,6.578-0.78
	C210.182,417.904,210.182,416.867,210.182,415.454z M251.205,314.522c-0.247-0.089-0.405-0.147-0.405-0.138
	c-1.966,4.464-3.092,9.165-3.862,13.956c-0.316,1.936-0.326,2.183-2.232,2.726c-0.247,0.069-0.528,0.069-0.78,0.129
	c-1.61,0.444-1.748,0.682-1.333,2.222c0.158,0.593,0.455,1.195,0.435,1.788c-0.089,4.178-0.217,8.326-1.872,12.297
	c-0.933,2.231-1.18,4.533-0.054,6.924c2.252,4.77,2.395,9.985,2.558,15.111c0.178,5.402-0.049,10.825-0.973,16.178
	c-0.538,3.151-0.736,6.352-1.269,9.492c-0.573,3.318-1.402,6.598-2.069,9.906c-0.39,1.985-0.617,3.99-0.064,5.976
	c7.645-0.188,15.146-0.375,23.003-0.573c-0.108-1.432-0.064-2.745-0.316-4.01c-1.832-9.126-4.188-18.153-4.879-27.507
	c-0.559-7.665-0.583-15.3,1.076-22.806c0.677-3.032,0.563-5.709-0.593-8.514c-1.501-3.654-2.099-7.526-2.257-11.457
	c-0.054-1.423,0.021-2.687-1.269-3.803c-0.711-0.612-1.018-1.877-1.176-2.895c-0.474-3.071-0.8-6.173-1.146-9.254
	C251.506,318.325,251.373,316.39,251.205,314.522z M256.094,275.717c5.394-0.633,11.132-1.176,16.841-1.995
	c5.432-0.79,10.84-1.827,16.237-2.825c3.674-0.682,7.358-1.313,10.963-2.252c2.124-0.543,4.119-1.619,6.148-2.509
	c1.131-0.493,1.255-1.462,0.825-2.459c-0.42-0.968-1.294-0.771-2.074-0.523c-1.867,0.573-3.694,1.294-5.581,1.777
	c-12.257,3.121-24.672,5.038-37.334,5.521c-13.112,0.504-26.104-0.029-38.871-3.279c-8.228-2.104-16.746-3.15-24.52-6.884
	c-1.037-0.494-1.876-0.178-2.395,0.908c-1.106,2.312-0.538,3.862,1.822,4.89c0.573,0.247,1.166,0.444,1.763,0.593
	c3.422,0.918,6.914,1.619,10.257,2.755c5.166,1.769,10.593,2.104,15.887,3.102c5.131,0.968,10.396,1.205,15.601,1.748
	C246.346,274.759,251.018,275.213,256.094,275.717z M308.812,270.966c-0.435-3.092-0.849-3.358-3.501-2.312
	c-0.573,0.228-1.116,0.544-1.689,0.771c-1.816,0.701-3.595,1.58-5.472,2.024c-10.034,2.352-20.114,4.366-30.396,5.482
	c-9.941,1.076-19.808,1.501-29.715-0.197c-5.166-0.89-10.38-1.394-15.556-2.223c-2.528-0.405-4.988-1.205-7.486-1.778
	c-3.17-0.711-6.4-1.204-9.531-2.063c-3.398-0.938-6.707-2.184-10.124-3.299c-0.81,1.115-0.953,2.024,0.509,2.508
	c0.736,0.247,1.565,0.208,2.331,0.386c0.662,0.158,1.343,0.346,1.931,0.672c2.232,1.234,4.336,2.755,6.657,3.753
	c3.007,1.294,6.153,2.291,9.294,3.229c3.576,1.047,7.161,2.213,10.835,2.746c5.788,0.839,11.645,1.383,17.487,1.719
	c8.44,0.483,16.86,0.315,25.191-1.531c3.635-0.81,7.328-1.501,11.037-1.768c3.057-0.208,5.971-0.79,8.874-1.63
	c1.195-0.336,2.41-0.633,3.591-1.018c4.982-1.62,9.961-3.26,14.929-4.919C308.313,271.42,308.57,271.134,308.812,270.966z
	 M205.188,188.8c-0.602,3.706-1.916,6.951-1.59,10.082c10.217,2.099,20.248,2.795,30.51,3.21c-0.119-0.839-0.168-1.348-0.277-1.842
	c-0.523-2.523-1.126-5.027-1.58-7.561c-0.464-2.61-0.948-3.015-3.674-3.086c-6.035-0.15-12.064-0.363-18.1-0.561
	C208.813,188.988,207.145,188.892,205.188,188.8z M199.549,199.657c-10.005-5.274-19.68-10.433-30.648-13.396
	c-1.965,2.901-3.792,6.022-5.363,9.302c6.43,1.718,12.509,3.304,18.559,4.978c4.02,1.116,8,2.331,11.99,3.546
	c2.015,0.617,3.793,0.228,5.462-0.948C199.549,201.904,199.549,200.764,199.549,199.657z M349.268,210.23
	c-0.578-1.225-0.903-2.025-1.318-2.766c-1.126-2.005-2.292-3.995-3.467-5.976c-1.156-1.965-1.58-2.044-3.901-1.837
	c-4.89,0.43-9.61,1.684-14.243,3.161c-4.212,1.353-8.276,3.151-12.375,4.825c-0.717,0.292-1.748,0.474-1.827,1.803
	c3.609,0.81,6.987,2.049,10.034,4.133c0.549,0.38,1.551,0.39,2.263,0.222c3.357-0.78,6.687-1.694,10.024-2.553
	c3.284-0.844,6.617-1.22,10.011-1.022C345.87,210.3,347.277,210.23,349.268,210.23z M280.104,193.158
	c-0.563,3.511-1.146,7.037-1.787,10.968c2.024,0,3.684,0.03,5.343,0c5.68-0.099,11.358-0.168,17.028-0.355
	c2.207-0.074,2.677-0.696,2.933-2.963c0.114-1.057,0.316-2.113,0.346-3.17c0.06-1.828,0.021-3.665,0.021-5.719
	C295.952,192.333,288.204,192.733,280.104,193.158z M240.202,143.07c-0.281,0.889-0.479,1.217-0.469,1.531
	c0.188,4.973,2.262,9.089,5.99,12.274c0.958,0.82,2.341,1.973,3.842,0.985c1.575-1.025,2.657-0.373,3.763,0.679
	c0.435,0.419,0.885,0.825,1.294,1.202c3.255-1.906,3.25-1.881,7.24-1.318c0.651,0.091,1.417-0.106,2.039-0.38
	c4.232-1.844,7.284-4.975,9.487-8.971c0.291-0.526,0.247-1.239,0.365-1.916c-1.719-0.168-2.696,0.623-3.664,1.39
	c-1.976,1.573-4.198,2.625-6.638,3.262c-6.291,1.637-11.887,0.617-16.746-4.01C244.884,146.053,242.602,144.784,240.202,143.07z
	 M341.203,196.59c-0.771-3.264-1.274-3.62-4-3.037c-2.509,0.539-5.077,0.914-7.507,1.684c-4.222,1.343-8.475,2.667-12.504,4.484
	c-3.605,1.629-6.934,3.891-10.36,5.906c-0.722,0.425-1.354,1.2-0.643,1.956c0.454,0.469,1.373,0.553,2.094,0.681
	c0.287,0.045,0.643-0.267,0.938-0.454c6.271-3.971,13.339-6.124,20.253-8.593c3.254-1.156,6.563-2.193,10.089-2.183
	C340.058,197.035,340.551,196.778,341.203,196.59z M307.622,112.126c0,0.96-0.1,1.598,0.02,2.195
	c0.321,1.622,1.817,2.467,3.181,1.583c2.632-1.708,5.57-3.19,6.435-6.679c0.36-1.452,1.131-2.813,1.441-4.27
	c0.331-1.533,0.405-3.131,0.489-4.704c0.089-1.627-0.987-2.578-2.232-3.351c-0.953-0.598-2.005-0.548-2.588,0.397
	c-1.155,1.872-2.519,3.758-3.037,5.828c-0.528,2.133-1.506,3.933-2.548,5.743C308.115,110.012,307.039,110.963,307.622,112.126z
	 M170.788,183.662c10.736,1.958,19.932,6.949,28.944,12.791c0.202-0.79,0.346-1.2,0.41-1.625c0.089-0.607,0.119-1.21,0.183-1.852
	c-7.521-5.931-16.164-9.274-25.22-11.694C172.397,180.563,172.328,180.704,170.788,183.662z M238.454,417.519
	c6.943-1.116,13.675-0.869,20.4-0.85c2.756,0.011,3.225-0.603,2.771-3.772c-7.654-0.228-15.329-0.286-23.171,0.83
	C238.454,414.901,238.454,415.998,238.454,417.519z M302.239,277.604c1.299,3.813,2.582,7.328,6.656,8.879
	c0.879,0.336,1.689,0.672,2.4-0.188c0.711-0.84,0.312-1.61-0.178-2.42c-1.146-1.896-2.302-3.793-3.304-5.759
	c-0.993-1.965-1.181-2.163-3.215-1.521C303.858,276.833,303.162,277.208,302.239,277.604z M200.635,276.003
	c-0.435-0.237-0.736-0.415-1.047-0.563c-2.607-1.155-2.652-1.066-3.97,1.512c-0.943,1.847-2.114,3.585-3.408,5.748
	c0.227,0.405,0.696,1.205,1.111,1.926C198.018,284.171,199.756,281.751,200.635,276.003z M235.392,140.966
	c-0.385,2.892-0.741,5.568-0.217,8.294c0.84,4.333,3.274,7.778,6.208,10.906c1.141,1.22,3.116,1.437,4.445,0.642
	c-0.168-0.203-0.292-0.489-0.499-0.581c-5.348-2.368-7.012-7.281-8.277-12.329c-0.395-1.543,0.01-3.329,0.257-4.97
	C237.496,141.67,237.155,141.097,235.392,140.966z M265.526,160.977c1.689,0.783,3.536-0.025,7.512-3.17
	c3.057-2.422,6.257-9.452,5.674-12.507c-1.486-0.267-1.847,0.778-2.034,1.857c-0.346,2.062-1.195,3.899-2.479,5.501
	c-1.047,1.299-2.183,2.543-3.397,3.687C269.111,157.938,267.314,159.414,265.526,160.977z M309.123,288.586
	c-1.412-1.096-2.657-1.797-3.546-2.814c-1.659-1.926-3.615-3.654-4.504-6.174c-0.385-1.105-1.309-1.382-2.385-0.918
	c-1.161,0.504-0.811,1.422-0.539,2.262c1.116,3.477,3.111,6.153,6.786,7.171C306.125,288.448,307.246,289.495,309.123,288.586z
	 M205.919,277.691c-1.136-0.315-2.163-0.602-3.082-0.858c-0.676,2.094-0.998,3.99-1.886,5.551c-0.85,1.481-2.301,2.617-3.487,3.901
	C201.791,285.119,204.833,282.641,205.919,277.691z M296.53,207.035c2.153,0.074,4.291,1.358,6.735,0.104
	C301.69,205.791,299.908,205.776,296.53,207.035z M346.605,213.989c0.183,1.328,0.287,2.049,0.391,2.83
	c1.585,0.04,2.499-0.435,2.923-2.124C348.888,214.468,348.013,214.29,346.605,213.989z M162.13,199.158
	c0.4,1.136,0.39,2.094,1.472,2.791c0.287-1.027,0.519-1.862,0.845-3.018C163.567,199.02,162.965,199.075,162.13,199.158z"/>
<path fill="#FFFFFF" d="M233.466,457.353c0.494,0.404,0.928,0.691,1.284,1.057c3.062,3.17,7.714,2.637,10.746,0.612
	c1.18-0.79,1.971-1.936,1.778-3.368c-0.212-1.551-0.701-3.062-1.096-4.593c-0.198-0.761-0.533-1.501-0.662-2.262
	c-0.938-5.452-2.341-10.756-4.623-15.813c-0.03-0.09-0.089-0.158-0.099-0.257c-0.336-3.013-0.677-6.035-1.042-9.314
	c7.649-1.047,14.969-0.454,22.312-0.523c1.141,3.763,1.507,6.993-0.341,10.489c-2.281,4.316-3.896,8.948-3.481,14.035
	c0.084,0.978-0.385,2.074-0.829,3.013c-0.924,1.936-1.477,3.724-0.104,5.758c1.586,2.36,3.289,4.514,6.381,4.643
	c1.373,0.059,2.814-0.188,4.118-0.622c1.146-0.376,2.069-0.415,2.974,0.346c1.916,1.639,3.931,1.343,5.955,0.325
	c0.988-0.503,1.946-0.968,3.032-0.425c1.976,0.988,3.808,0.514,5.581-0.523c0.869-0.504,1.669-0.898,2.735-0.483
	c0.528,0.197,1.235,0.108,1.803-0.04c2.108-0.543,4.03-1.58,6.168-2.163c3.022-0.829,4.094-6.301,1.521-8.603
	c-2.687-2.4-3.605-5.254-4.341-8.494c-0.391-1.709-1.309-3.289-2.04-4.908c-1.047-2.312-1.763-4.633-0.978-7.211
	c0.622-2.054,0.85-2.399,2.982-2.034c5.166,0.898,10.361,1.688,15.438,2.953c9.048,2.262,18.09,4.603,26.994,7.368
	c7.111,2.223,14.06,4.958,20.336,9.186c3.018,2.034,4.415,4.948,4.904,8.188c0.464,3.082-1.615,5.423-4.055,7.022
	c-2.514,1.649-5.215,3.082-7.976,4.277c-13.027,5.669-26.688,9.265-40.618,11.782c-5.319,0.969-10.762,1.216-16.149,1.769
	c-2.301,0.237-4.603,0.494-6.903,0.593c-3.097,0.118-6.213,0.108-9.314,0.128c-3.19,0.03-6.39,0.089-9.585,0.01
	c-4.612-0.099-9.226-0.355-13.843-0.464c-5.057-0.108-10.124-0.069-15.181-0.217c-1.837-0.05-3.669-0.672-5.497-0.652
	c-9.25,0.089-18.475-0.375-27.665-1.274c-11.857-1.165-23.65-2.824-35.216-5.719c-5.333-1.343-10.559-3.11-15.171-6.271
	c-1.245-0.85-2.929-1.274-3.822-2.37c-1.822-2.242-3.566-4.672-4.746-7.289c-1.21-2.697-0.069-5.531,1.388-7.862
	c2.726-4.336,6.771-7.19,11.536-9.018c1.99-0.761,3.961-1.58,5.98-2.252c2.775-0.919,5.566-1.788,8.381-2.568
	c5.906-1.63,11.832-3.17,17.744-4.78c6.711-1.817,13.571-2.646,20.865-3.318c-0.108,0.958-0.4,1.817-0.276,2.607
	c0.592,3.664-1.047,6.696-2.603,9.778c-0.558,1.116-0.943,2.311-1.314,3.496c-0.4,1.265-0.775,2.42-1.881,3.378
	c-1.25,1.097-1.64,2.775-1.156,4.435c0.746,2.528,1.778,4.869,4.736,5.571c0.419,0.099,0.973,0.236,1.19,0.533
	c1.368,2.005,3.882,2.034,5.62,3.388c1.136,0.879,2.425,0.355,3.585-0.03c1.531-0.523,2.588-0.553,3.936,0.859
	c2.198,2.292,6.81,1.848,9.27-0.464C232.553,458.35,232.953,457.886,233.466,457.353z"/>
<path fill="#FFFFFF" d="M261.433,84.92c-3.956-0.217-7.788-0.607-11.201-2.827c-2.973-1.926-6.124-3.58-9.18-5.375
	c-3.595-2.108-6.366-5.133-8.929-8.324c-3.368-4.192-5.966-8.825-6.548-14.282c-0.222-2.077,0.059-4.212,0.178-6.321
	c0.035-0.667,0.276-1.324,0.489-2.279c-2.119,0.622-2.489,2.229-2.839,3.667c-1.166,4.879-0.228,9.497,1.975,13.931
	c0.553,1.106,0.968,2.282,1.422,3.433c0.479,1.229,0.874,2.494,1.393,3.708c0.83,1.965,1.032,3.923,0.247,5.956
	c-1.245,3.237-3.057,6.003-6.114,7.823c-0.988,0.592-2.01,1.18-2.854,1.953c-0.834,0.758-1.635,1.654-2.144,2.64
	c-1.304,2.523-2.424,5.128-3.634,7.691c-0.069,0.136-0.272,0.212-0.603,0.459c-0.736-1.647-1.472-3.24-2.153-4.85
	c-0.81-1.901-1.649-3.701-3.822-4.531c-0.632-0.242-1.102-1.101-1.492-1.768c-2.133-3.647-4.306-7.279-6.281-11.01
	c-0.726-1.375-1.17-2.993-1.368-4.551c-1.15-9.279,1.526-17.21,8.667-23.423c1.126-0.978,2.459-1.775,3.822-2.397
	c3.654-1.674,7.447-0.37,10.331,3.6c0.543-1.124,1.304-2.074,1.447-3.109c0.479-3.415,2.316-6.311,3.397-9.481
	c0.736-2.156,2.148-3.85,4-5.2c1.438-1.047,2.761-2.235,4.163-3.321c3.98-3.091,8.751-4.254,13.492-5.422
	c8.978-2.205,18.016-1.906,26.934,0.091c6.776,1.516,13.216,4.178,19.161,7.837c1.482,0.911,2.687,2.311,3.896,3.607
	c2.573,2.766,5.507,4.941,8.885,6.684c5.887,3.035,9.699,8.164,13.037,13.719c3.013,5.018,4.04,10.543,4.712,16.228
	c0.395,3.363-0.307,6.571-1.067,9.746c-0.978,4.049-1.985,8.116-4.217,11.741c-0.722,1.173-1.452,2.161-2.806,2.682
	c-0.978,0.377-1.921,0.97-2.726,1.647c-0.632,0.531-1.186,1.276-1.501,2.044c-0.979,2.371-1.817,4.803-2.741,7.205
	c-0.113,0.304-0.341,0.561-0.726,1.163c-1.215-7.427-5.857-12.734-9.363-18.625c-0.534-0.898-1.433-1.583-2.045-2.447
	c-0.652-0.931-1.363-1.901-1.689-2.968c-0.982-3.242-0.706-3.758,2.263-5.452c2.247-1.284,4.276-2.832,5.852-4.95
	c-0.439-1.223-1.131-1.627-2.247-1.042c-0.395,0.208-0.771,0.452-1.131,0.714c-8.82,6.523-18.979,8.01-29.566,7.817
	c-1.323-0.025-2.651-0.318-3.931-0.652c-7.576-1.978-15.072-4.121-21.552-8.82c-1.822-1.319-3.832-2.38-5.946-3.351
	c2.183,4.677,5.763,8.131,9.897,10.968C252.805,79.732,257.176,82.266,261.433,84.92z"/>
<path fill="#FFFFFF" d="M212.231,104.763c0.089,1.301,0.128,2.119,0.208,2.938c0.084,0.79,0.331,1.583,0.281,2.368
	c-0.104,1.738-1.832,2.612-3.245,1.642c-0.721-0.496-1.452-1.096-1.926-1.814c-2.519-3.793-4.859-7.727-4.958-12.435
	c-0.04-1.607,0.424-3.368,1.146-4.815c1.086-2.195,3.763-2.2,4.845,0.01c1.239,2.533,2.079,5.264,3.047,7.926
	c0.217,0.575,0.158,1.259,0.415,1.81c0.188,0.41,0.676,0.945,1.027,0.945c0.395,0,0.918-0.477,1.136-0.876
	c0.287-0.526,0.287-1.193,0.474-1.78c0.909-2.775,1.694-5.59,2.786-8.292c0.918-2.262,2.558-3.951,4.82-5.129
	c1.946-1.02,4.04-2.148,5.442-3.768c2.43-2.805,4.543-5.951,4.504-9.966c0-0.338,0-0.684,0-1.669
	c1.106,1.047,1.867,1.708,2.558,2.437c4.479,4.699,9.669,8.299,15.734,10.697c5.719,2.259,11.635,3.099,17.739,2.852
	c1.738-0.072,3.467-0.212,5.393-0.333c-0.514-1.77-1.601-2.064-2.854-2.373c-4.405-1.077-8.741-2.388-12.717-4.647
	c-0.351-0.202-0.651-0.506-0.894-0.99c5.769,0.894,11.368,3.018,17.235,2.4c5.709-0.603,11.368-1.642,17.205-2.514
	c0.079,0.326,0.247,0.815,0.307,1.316c0.355,2.906,1.684,5.208,3.516,7.561c3.2,4.111,6.006,8.565,8.593,13.102
	c1.003,1.75,0.983,4.096,1.363,6.18c0.281,1.541,0.509,3.099,0.643,4.662c0.049,0.575-0.134,1.22-0.376,1.76
	c-1.58,3.568-3.052,7.2-4.874,10.645c-1.15,2.163-2.652,4.212-4.341,5.99c-3.62,3.815-7.685,7.117-12.509,9.351
	c-3.788,1.75-7.502,3.701-11.413,5.109c-2.617,0.941-4.993,2.2-7.418,3.484c-4.178,2.215-8.483,2.422-12.81,0.338
	c-0.711-0.343-1.467-0.713-2.025-1.254c-5.294-5.077-11.764-8.479-17.705-12.643c-3.896-2.73-7.442-5.988-10.267-9.946
	c-2.459-3.445-4.375-7.06-5.304-11.228c-0.494-2.235-1.373-4.388-2.094-6.573C214.493,105.982,214.448,105.968,212.231,104.763z
	 M277.981,125.795c-1.368-1.603-3.358-1.938-5.625-2.899c0.696,2.615-1.062,2.909-2.554,3.333
	c-5.881,1.674-11.575,0.917-17.106-1.496c-1.659-0.724-3.25-1.553-2.726-3.817c-2.044,0-3.664,0.827-5.783,2.867
	c0.489,1.274,1.526,1.173,2.632,1.126c0.731-0.03,1.59-0.015,2.188,0.331c6.741,3.938,13.873,5.202,21.458,3.138
	c2.346-0.637,4.405-2.25,7.008-2.047C277.576,126.336,277.715,126.094,277.981,125.795z M271.877,101.842
	c-1.634,1.598-1.54,1.526-0.404,2.978c1.551,1.998,3.575,2.993,5.945,3.731c3.279,1.022,6.45,0.785,9.704,0.032
	c3.151-0.736,5.151-2.837,7.058-5.504c-1.294-1.042-2.247-0.951-3.457-0.131c-1.215,0.834-2.598,1.506-3.985,2.018
	c-1.324,0.486-2.761,0.632-4.134,0.998c-2.252,0.6-4.37,0.425-6.321-0.973C274.865,103.97,273.438,102.953,271.877,101.842z
	 M233.007,98.464c-1.427,2.467-1.388,2.607,0.168,4.121c2.568,2.496,5.753,3.677,9.161,4.489c4.632,1.104,8.228-1.163,11.784-3.509
	c0.311-0.203,0.414-1.22,0.178-1.598c-0.228-0.38-1.037-0.654-1.517-0.568c-0.662,0.116-1.249,0.632-1.881,0.951
	c-5.383,2.726-11.176,1.837-15.586-2.326C234.686,99.439,233.881,99.044,233.007,98.464z M253.971,136.672
	c0.603,1.911,1.985,1.366,2.913,1.067c2.312-0.733,4.361-0.338,6.386,0.82c0.331,0.192,0.721,0.284,1.082,0.419
	c0.118-0.126,0.236-0.247,0.355-0.375c-0.662-1.015-1.324-2.037-1.906-2.943c0.563-1.324,2.766-1.173,2.262-3.037
	c-4.336-0.963-7.072-0.946-8.771,0.059c0.227,0.729,0.449,1.467,0.676,2.205C255.901,135.524,254.948,136.097,253.971,136.672z
	 M237.634,91.266c1.047,0.289,1.61,0.632,2.079,0.531c1.2-0.252,2.484-0.506,3.521-1.106c1.906-1.099,3.615-1.133,5.403,0.151
	c0.77,0.556,1.708,0.834,2.257-0.227c0.489-0.941,0.321-1.84-0.726-2.484c-2.706-1.651-5.452-2.104-8.208-0.247
	C240.602,88.799,239.373,89.905,237.634,91.266z M286.021,94.563c-0.701-1.477-0.701-1.477-3.367-3.558
	c-3.19-2.494-6.391-2.368-9.171,0.449c-0.331,0.333-0.391,1.124-0.271,1.627c0.054,0.227,0.874,0.395,1.333,0.37
	c0.405-0.02,0.81-0.318,1.195-0.536c1.609-0.901,3.249-0.699,4.83,0.015c0.879,0.4,1.679,0.971,2.528,1.442
	C284.036,94.876,284.989,95.241,286.021,94.563z M266.672,116.758c-0.118-2.084-1.383-4.753-3.096-6.625
	c-0.672,1.148-0.874,2.242-0.509,3.536c0.404,1.42,0.118,1.795-1.274,1.882c-1.146,0.069-2.301-0.082-3.457-0.057
	c-0.74,0.015-1.63-0.136-1.931,0.891C259.027,118.654,261.951,118.771,266.672,116.758z M203.984,95.17
	c2.701,2.161,2.765,2.166,2.415,5.699c-0.301,2.98,2.148,4.511,3.116,7.324c1.324-2.306,0.499-3.753-0.563-5.057
	c-0.75-0.921-1.106-1.746-0.533-2.884c0.81-1.617,0.198-3.128-0.538-4.576C206.917,93.775,206.231,93.679,203.984,95.17z
	 M252.094,96.348c-1.822-2.472-4.711-3.148-6.691-1.472c1.2,0.299,2.277,0.612,3.373,0.82
	C249.857,95.903,250.716,97.446,252.094,96.348z M278.253,96.555c3.057,0.659,5.531,0.748,6.588,0.24
	C282.831,95.039,280.169,94.938,278.253,96.555z"/>
<path fill="#FFFFFF" d="M200.719,329.556c3.852,1.58,7.358,3.091,10.919,4.435c1.299,0.483,2.78,0.85,4.128,0.73
	c6.894-0.603,13.769-1.373,20.653-2.094c0.958-0.099,1.916-0.207,3.229-0.346c0.8,2.993,1.442,5.896,0.83,8.899
	c-0.681,3.289-1.531,6.558-2.39,9.808c-0.355,1.354-0.296,2.42,0.366,3.763c0.958,1.956,1.457,4.168,1.886,6.312
	c0.415,2.084,0.623,4.228,0.701,6.351c0.267,7.467-0.281,14.845-1.284,22.272c-1.106,8.198-3.971,16.03-4.523,24.307
	c-0.02,0.268-0.05,0.534-0.119,0.791c-0.82,3.002,1.397,5.768,0.834,8.642c-0.598,3.072,0.607,5.521,1.724,8.158
	c1.936,4.583,3.378,9.354,4.079,14.302c0.084,0.583,0.01,1.176,0.01,2.055c-2.464-0.523-4.859-1.155-7.042,1.047
	c2.509,1.64,5.156,0.129,7.842,1.057c0.335,0.731,0.104,1.689-0.623,2.559c-1.027,1.215-2.469,1.244-3.901,1.373
	c-1.486,0.128-2.232-0.682-3.279-1.68c-1.946-1.876-1.971-3.743-1.304-6.015c0.138-0.494-0.168-1.106-0.272-1.669
	c-0.627,0.168-1.427,0.147-1.842,0.543c-0.978,0.938-1.66,2.133-1.432,3.575c0.306,1.896-0.78,3.229-1.773,4.583
	c-0.923,1.244-2.311,1.294-3.64,0.948c-1.229-0.316-1.788-1.313-1.965-2.578c-0.252-1.738-0.109-3.358,0.898-4.85
	c0.336-0.493,0.603-1.037,0.894-1.561c-2.227-1.294-3.669,0.079-5.181,4.771c-1.15,0-2.321,0-3.481,0
	c-0.035,0.139-0.074,0.277-0.104,0.405c0.681,0.385,1.368,0.761,2.607,1.442c-1.136,0.414-1.872,0.947-2.45,0.819
	c-0.469-0.108-0.879-0.968-1.086-1.58c-0.257-0.741-0.212-1.591-0.4-2.36c-0.351-1.492-0.331-2.796,1.057-3.822
	c0.321-0.247,0.366-0.869,0.548-1.363c-3.21-0.375-4.632,1.541-4.756,6.351c-1.377-1.165-1.615-2.489-1.407-4.01
	c0.208-1.452,0.331-2.924,0.504-4.475c-1.551-0.158-2.331,0.731-2.786,1.769c-0.435,1.017-0.558,2.173-0.889,3.575
	c-1.403-1.354-1.215-2.588-0.741-3.843c1.106-2.894,2.222-5.787,3.373-8.651c0.494-1.235,0.973-2.499,1.645-3.635
	c1.176-1.995,2.055-3.931,0.988-6.272c-0.227-0.493-0.024-1.215,0.089-1.807c0.385-1.995,0.726-4.011,1.264-5.966
	c0.662-2.43,0.217-4.78-0.365-7.092c-0.948-3.783-2.069-7.507-3.136-11.26c-2.672-9.412-4.618-18.983-5.625-28.702
	c-0.405-3.921,0.217-7.961,0.405-11.941c0.049-1.066,0.257-2.123,0.336-3.18c0.271-3.586,0.005-7.063-1.447-10.45
	c-0.983-2.271-1.66-4.682-2.371-7.062C200.221,334.632,200.043,332.291,200.719,329.556z M227.185,452.059
	c-0.672-1.393-0.672-1.393-2.321-0.672C225.836,451.673,226.513,451.87,227.185,452.059z"/>
<path fill="#FFFFFF" d="M258.168,333.556c4.405,0.73,8.247,1.313,12.069,2.024c2.352,0.444,4.638,1.265,7.003,1.59
	c1.719,0.237,3.57,0.208,5.265-0.147c3.556-0.751,7.042-1.837,10.568-2.696c1.373-0.336,2.805-0.425,4.207-0.652
	c1.294-0.207,1.916,0.514,1.867,1.63c-0.079,1.758-0.158,3.575-0.643,5.245c-0.928,3.249-2.212,6.38-3.18,9.609
	c-0.543,1.808-0.835,3.447,0.365,5.492c1.126,1.916,1.092,4.642,1.141,7.022c0.208,9.966-0.252,19.862-3.254,29.521
	c-2.292,7.368-4.268,14.835-6.361,22.263c-0.178,0.642-0.252,1.363-0.197,2.015c0.257,3.003,0.672,5.985-0.859,8.84
	c-0.311,0.583-0.079,1.58,0.144,2.312c0.622,2.034,1.357,4.039,2.079,6.044c0.514,1.423,1.239,2.786,1.58,4.247
	c0.651,2.845,1.945,5.226,4,7.339c1.822,1.877,1.561,3.467-0.316,5.008c-1.58-1.857-3.131-3.724-4.73-5.561
	c-0.208-0.237-0.612-0.336-0.953-0.425c-0.228-0.05-0.499,0.069-0.953,0.138c0.247,1.413,1.511,1.937,2.237,2.835
	c2.02,2.479,0.982,5.156-2.499,5.817c-0.173-0.632-0.381-1.274-0.528-1.926c-0.415-1.896-1.363-3.477-2.874-4.662
	c-0.47-0.365-1.156-0.444-1.749-0.651c-0.147,0.188-0.296,0.385-0.444,0.582c0.554,0.731,1.058,1.492,1.649,2.184
	c1.058,1.205,1.304,2.508,0.534,3.921c-0.835,1.53-2.139,2.41-3.901,2.291c-0.455-0.029-0.87-0.642-1.305-0.987
	c0.415-0.346,0.775-0.84,1.25-0.998c0.617-0.207,1.328-0.147,2.207-0.227c-0.745-1.887-2.192-0.396-3.239-1.205
	c-1.066-1.472-0.603-4.475-3.906-4.969c0.469,1.788,0.874,3.329,1.318,5.027c-1.62,0.148-2.968,0.258-4.307,0.376
	c-0.029,0.188-0.049,0.375-0.078,0.563c1.096,0.396,2.192,0.79,3.299,1.195c-1.521,2.667-3.072,3.102-4.396,1.255
	c-0.386-0.544-0.514-1.512-0.336-2.174c0.978-3.713,0.795-4.227-2.973-6.163c0.276,0.672,0.404,1.097,0.622,1.481
	c0.247,0.445,0.573,0.859,0.84,1.255c-0.593,1.304-1.087,2.538-1.689,3.694c-0.74,1.432-2.573,2.094-4.682,1.797
	c-2.321-0.326-4.83-3.121-4.02-5.086c1.259-3.072,1.289-6.223,1.551-9.384c0.336-4.227,1.822-8.108,3.511-11.94
	c0.993-2.252,1.255-4.534,1.057-7.003c-0.163-2.084-0.02-4.297,0.499-6.321c1.027-4.02,0.672-7.951-0.281-11.853
	c-1.872-7.684-3.699-15.368-4.603-23.24c-0.588-5.205-1.067-10.439-0.444-15.675c0.341-2.884,1.047-5.748,1.708-8.593
	c0.386-1.649,0.603-3.141,0.124-4.908c-1.116-4.099-1.892-8.287-2.696-12.465C258.218,336.934,258.287,335.501,258.168,333.556z
	 M259.63,447.781c2.094,1.649,4.148,2.074,6.528,2.489C264.875,447.406,262.741,446.557,259.63,447.781z"/>
<path fill="#FFFFFF" d="M199.134,240.021c1.876-0.326,4.059-0.593,6.208-1.057c10.02-2.183,19.225-6.232,27.502-12.324
	c3.714-2.73,7.378-5.536,11.117-8.252c1.141-0.83,2.385-1.561,3.659-2.163c2.607-1.229,4.934-2.805,6.914-4.909
	c0.277-0.301,0.672-0.499,1.032-0.755c0.292,0.276,0.559,0.419,0.657,0.632c1.254,2.879,3.2,5.062,6.045,6.484
	c0.75,0.375,1.323,1.17,1.926,1.813c2.691,2.839,5.353,5.704,8.05,8.538c3.871,4.092,8.385,7.381,13.126,10.383
	c1.17,0.741,2.346,1.492,3.98,2.528c-1.166,0.306-1.729,0.534-2.302,0.573c-1.861,0.099-3.729,0.148-5.59,0.168
	c-9.329,0.099-18.657,0.405-27.981,0.178c-6.825-0.158-13.63-1.007-20.445-1.6c-2.301-0.198-4.593-0.464-6.875-0.83
	c-2.499-0.415-4.978-0.958-7.467-1.472c-1.393-0.286-2.746-0.306-4.78,0.346c1.116,0.682,1.768,1.422,2.321,1.363
	c1.699-0.188,3.077,0.662,4.568,1.086c5.847,1.679,11.887,2.084,17.882,2.726c8.938,0.968,17.917,1.027,26.895,0.741
	c6.291-0.188,12.593-0.425,18.884-0.741c2.479-0.109,4.964-0.395,7.418-0.761c3.102-0.474,5.551,1.087,8.198,2.015
	c-0.011,0.188-0.03,0.385-0.04,0.573c-0.651,0.158-1.299,0.395-1.955,0.444c-7.082,0.533-14.164,1.245-21.266,1.492
	c-6.469,0.227-12.968-0.01-19.457-0.128c-6.479-0.109-12.963-0.257-19.438-0.514c-2.568-0.109-5.121-0.573-7.684-0.82
	c-7.985-0.76-15.828-2.203-23.458-4.741c-1.086-0.355-2.252-0.504-3.397-0.593c-0.405-0.03-0.85,0.375-1.565,0.711
	c0.637,0.415,0.953,0.731,1.338,0.85c8.079,2.439,16.148,4.968,24.652,5.422c11.349,0.603,22.697,1.284,34.056,1.541
	c8.257,0.178,16.534-0.118,24.781-0.503c5.037-0.227,10.064-0.948,15.092-1.531c2.123-0.257,2.499-0.079,2.854,1.995
	c0.523,3.071,1.037,6.134,1.53,9.195c0.307,1.876,0.04,2.489-2.104,2.982c-6.657,1.531-13.329,3.082-20.055,4.287
	c-5.586,0.997-11.245,1.798-16.904,2.153c-7.882,0.503-15.749,1.165-23.685,0.375c-7.447-0.741-14.795-1.936-22-3.882
	c-6.509-1.768-12.934-3.822-19.394-5.748c-1.106-0.326-2.212-0.652-3.318-0.978c-0.978-0.307-1.432-0.89-1.299-1.985
	C197.969,250.343,198.522,245.335,199.134,240.021z"/>
<path fill="#FFFFFF" d="M237.713,204.591c-0.331-1.284-0.632-2.539-0.973-3.773c-1.111-3.931-1.881-7.877-2.089-12.003
	c-0.128-2.563-0.504-5.102,0.212-7.576c0.785-2.721,1.852-5.36,2.83-8.02c0.148-0.4,0.484-0.748,0.785-1.072
	c3.097-3.276,6.228-6.528,9.29-9.834c1.136-1.23,2.291-1.543,3.985-0.395c-0.632,0.955-1.16,1.945-1.861,2.795
	c-2.262,2.741-4.623,5.397-6.865,8.148c-1.373,1.679-2.785,3.388-2.766,5.825c4.781-4.684,8.593-10.2,13.156-15.04
	c1.941,1.795,1.946,2.746,0.504,4.859c-2.509,3.662-4.943,7.373-7.397,11.069c-0.839,1.254-1.383,2.57-0.603,4.279
	c2.795-4.319,5.601-8.643,8.381-12.937c1.506,0.617,1.565,1.674,1.462,2.761c-0.302,3.005-0.489,6.03-0.974,9.003
	c-0.903,5.511-0.444,10.976,0.257,16.447c0.084,0.622,0.198,1.234,0.312,1.837c0.992,5.294-1.378,9.176-5.773,11.487
	c-4.213,2.212-7.991,4.954-11.739,7.773c-6.578,4.954-13.68,8.961-21.398,11.766c-4.899,1.778-9.817,3.457-15.013,4.484
	c-5.121,1.008-10.178,1.551-15.329,1.265c-4.336-0.247-8.662-0.731-12.978-1.166c-0.771-0.079-1.531-0.424-2.282-0.701
	c-1.121-0.415-1.545-1.264-1.699-2.449c-0.375-2.983-0.834-5.953-1.383-8.906c-0.622-3.314-1.605-6.568-2.02-9.902
	c-0.632-5.052,0.034-10.035,1.541-15.215c8.312,2.375,16.391,4.687,25.013,7.156c-2.183,1.911-4.069,3.447-5.817,5.126
	c-3.733,3.595-3.892,3.891-3.847,5.867c0.834-0.691,1.481-1.225,2.114-1.768c1.892-1.61,3.669-3.378,5.689-4.81
	c3.793-2.701,8.218-3.773,12.776-4.163c2.736-0.232,5.497-0.064,8.247-0.124c6.563-0.168,13.126-0.331,19.685-0.603
	c1.215-0.049,2.4-0.578,3.605-0.869C235.56,205.025,236.395,204.867,237.713,204.591z"/>
<path fill="#FFFFFF" d="M330.339,224.572c0.257-3.65-3.24-5.477-4.405-8.637c0.563-0.292,1.057-0.682,1.609-0.815
	c4.593-1.116,9.255-1.783,14.006-1.541c2.425,0.128,2.632,0.455,2.721,2.899c0.282,7.457-1.22,14.675-2.963,21.845
	c-1.229,5.086-4.312,7.279-9.428,6.232c-5.777-1.186-11.481-0.81-17.244-0.336c-0.969,0.079-1.976,0.178-2.924,0.04
	c-5.176-0.761-10.247-1.778-15.27-3.477c-7.773-2.627-14.263-7.26-20.436-12.304c-4.099-3.353-7.467-7.595-11.195-11.403
	c-1.106-1.126-2.257-2.257-3.541-3.161c-2.79-1.936-4.228-4.534-3.99-7.887c0.197-2.825,0.435-5.689,1.106-8.43
	c1.294-5.313,0.672-10.593,0.237-15.892c-0.257-3.072-0.529-6.146-0.806-9.274c1.407-0.548,1.887,0.343,2.247,1.242
	c0.78,1.891,1.491,3.81,2.203,5.726c0.503,1.329,0.898,2.699,1.437,4.01c0.321,0.788,0.815,1.501,1.517,2.761
	c0.78-2.017,0.587-3.439,0.089-4.83c-1.502-4.161-2.603-8.507-5.66-11.954c-0.603-0.684-0.829-1.702-1.225-2.556
	c1.531-1.126,2.46-0.324,3.358,0.603c2.819,2.872,5.234,6.027,6.968,9.684c0.701,1.486,1.526,2.919,2.297,4.371
	c0.207-0.082,0.425-0.168,0.642-0.25c-0.32-1.118-0.567-2.259-0.978-3.341c-1.462-3.864-3.817-7.208-6.252-10.499
	c-0.158-0.212-0.376-0.4-0.489-0.632c-1.057-2.161-2.766-3.358-5.16-3.601c-0.425-0.047-0.83-0.227-1.576-0.447
	c0.519-0.503,0.83-1.067,1.161-1.086c1.772-0.101,3.467-0.057,5.076,1.052c4.954,3.388,8.025,8.242,10.727,13.381
	c2.094,3.985,2.811,8.304,3.318,12.783c0.523,4.526,0.188,8.827-0.938,13.148c-0.089,0.341-0.079,0.706-0.109,1.057
	c-0.32,3.255,0.021,3.66,3.161,4.302c2.252,0.469,4.454,1.264,6.726,1.58c5.808,0.81,11.625,1.551,17.458,2.099
	c7.008,0.657,13.289,3.161,18.998,7.117c1.729,1.195,3.116,2.874,4.642,4.355c0.796,0.775,1.541,1.605,2.312,2.42
	C329.953,224.818,330.146,224.695,330.339,224.572z"/>
<path fill="#FFFFFF" d="M249.901,286.137c1.388,0.139,2.321,0.237,3.249,0.336c1.072,2.558-0.968,4.929-0.029,7.674
	c1.433-1.945,2.134-3.772,2.528-5.768c0.415-2.114,0.741-2.499,2.717-2.549c11.901-0.306,23.438-2.805,34.914-5.659
	c0.771-0.197,1.561-0.315,2.351-0.435c0.158-0.02,0.336,0.099,0.652,0.188c0.331,0.899,0.651,1.906,1.086,2.864
	c1.304,2.934,3.911,4.504,6.479,6.114c0.37,0.236,0.785,0.415,1.2,0.563c1.733,0.633,2.464,1.502,2.514,3.685
	c0.223,9.491,0.84,18.974,1.304,28.455c0.01,0.257-0.108,0.514-0.237,1.066c-2.183,0.603-4.469,1.235-6.761,1.867
	c-2.227,0.612-4.454,1.215-6.672,1.847c-2.212,0.622-4.667,0.533-7.131,2.4c1.018,0.039,1.422,0.148,1.793,0.069
	c5.368-1.255,10.736-2.489,16.084-3.823c2.84-0.701,3.27-0.474,3.793,2.549c-1.57,0.819-24.307,5.699-26.282,5.59
	c-0.108-0.444-0.312-0.928-0.336-1.422c-0.089-1.58-0.079-3.141-0.919-4.633c-0.404-0.711-0.267-1.728-0.32-2.617
	c-0.237-4.168-0.435-8.336-0.691-12.514c-0.055-0.85-0.312-1.699-0.895-2.538c-0.059,0.721-0.157,1.432-0.147,2.153
	c0.108,5.856,0.231,11.724,0.395,17.59c0.03,0.969,0.223,1.946,0.46,2.895c0.32,1.313-0.188,2.144-1.428,2.36
	c-1.008,0.188-2.113,0.267-3.111,0.069c-6.271-1.225-12.523-2.588-18.796-3.793c-1.412-0.276-2.094-0.701-2.291-2.291
	c-0.405-3.161-1.402-6.242-1.714-9.403c-0.42-4.228-0.726-8.514-0.519-12.751c0.158-3.2-0.217-6.015-2.321-8.444
	c-0.918-1.057-1.067-2.084-0.889-3.418c0.188-1.383-0.01-2.814-0.03-4.217C249.892,288.981,249.901,287.767,249.901,286.137z
	 M257.941,325.723c0.642,1.601,1.472,1.937,3.556,2.252c3.595,0.544,7.18,1.137,10.766,1.759c1.679,0.296,4.484,0.168,6.642-0.544
	C271.65,327.985,264.796,326.859,257.941,325.723z"/>
<path fill="#FFFFFF" d="M212.735,332.271c-1.551-0.711-2.934-1.265-4.257-1.955c-4.879-2.529-9.738-5.106-14.618-7.655
	c-1.763-0.918-1.802-0.898-1.363-2.805c0.459-1.995,1.052-3.951,1.472-5.946c0.523-2.509,1.017-5.027,1.363-7.565
	c0.351-2.637,0.523-5.304,0.741-7.951c0.242-3.032,0.41-6.034-1.116-8.85c-0.108-0.188,0.03-0.514,0.064-0.929
	c7.492,0.761,11.097-3.703,13.284-10.311c1.763,0.612,3.383,1.234,5.042,1.758c5.264,1.649,10.637,2.795,16.099,3.565
	c5.097,0.721,10.183,1.511,15.29,2.173c1.452,0.188,2.281,0.593,2.311,2.232c0.049,2.459,0.395,4.929,0.405,7.397
	c0,2.134,0.228,3.99,2.104,5.433c1.333,1.018,1.743,2.479,1.205,4.296c-1.393,4.761-2.677,9.571-3.847,14.391
	c-0.706,2.904-1.131,5.877-1.704,8.919c-3.724,0.612-7.111,1.274-10.529,1.729c-5.373,0.701-10.756,1.274-16.139,1.887
	c-0.523,0.059-1.057,0.099-1.59,0.079c-1.477-0.04-1.749-0.435-1.669-1.976c0.484-9.817,0.958-19.625,1.403-29.453
	c0.064-1.432-0.06-2.884-0.425-4.326c-1.501,5.857-1.096,11.853-1.625,17.769C214.117,320.073,213.406,325.95,212.735,332.271z
	 M222.552,327.047c6.884-0.197,13.689-0.771,20.317-2.815c-0.371-0.395-0.771-0.651-1.116-0.582
	C235.343,324.755,228.948,325.911,222.552,327.047z M202.028,320.884c-0.05,0.128-0.109,0.267-0.158,0.395
	c0.8,0.415,1.6,0.84,2.4,1.255c0.069-0.148,0.138-0.307,0.208-0.455C203.663,321.684,202.848,321.278,202.028,320.884z
	 M211.085,326.099c0.109-0.099,0.208-0.188,0.316-0.286c-0.296-0.198-0.588-0.396-0.879-0.593c-0.059,0.069-0.108,0.138-0.167,0.217
	C210.601,325.654,210.843,325.881,211.085,326.099z"/>
<path fill="#FFFFFF" d="M338.655,190.948c-11.853,2.541-22.831,5.83-32.86,12.704c-0.079-1.012-0.198-1.659-0.163-2.296
	c0.271-5.477,1.832-10.655,3.698-15.763c0.386-1.067,0.381-1.072-0.02-2.958c-1.126,1.973-2.044,3.59-3.265,5.726
	c-0.997-1.832-1.753-3.212-2.498-4.593c-0.153,0.042-0.312,0.082-0.47,0.121c0,1.433,0,2.864,0,4.265
	c-2.435,1.052-18.4,1.805-22.524,1.133c-1.393-4.642-2.687-9.245-4.152-13.781c-1.462-4.531-4.484-8.168-7.591-11.971
	c1.274-0.884,2.262-1.612,3.284-2.279c4.819-3.155,7.318-7.83,8.711-13.23c0.203-0.773,0.326-1.568,0.47-2.351
	c0.222-1.24,0.874-2.025,2.079-2.523c2.123-0.882,4.183-1.917,6.123-2.828c2.084,0.632,4.139,1.116,6.085,1.887
	c4.286,1.689,8.543,3.449,12.751,5.324c2.02,0.906,2.341,3.049,2.696,4.931c0.375,1.987,0.207,4.082,0.612,6.059
	c0.523,2.539-0.015,4.909-0.479,7.356c-0.341,1.775-0.311,3.612-0.479,5.766c1.856-1.41,2.884-4.536,3.901-9.097
	c0.755-3.388-0.859-6.427-1.037-9.78c1.635-0.223,2.231,0.889,2.85,1.746c2.474,3.467,5.022,6.892,7.264,10.516
	c4.228,6.884,8.268,13.882,12.352,20.855C336.887,187.39,337.628,188.988,338.655,190.948z"/>
<path fill="#FFFFFF" d="M201.307,190.884c-4.04-3.333-8.257-5.882-12.889-7.707c-4.509-1.78-9.028-3.556-13.739-5.413
	c7.338-12.208,14.632-24.596,25.956-34.549c0.178,0.785,0.316,1.094,0.301,1.385c-0.405,6.884-0.79,13.771-1.259,20.648
	c-0.148,2.146,0.958,3.748,1.581,5.563c0.217-0.03,0.444-0.06,0.662-0.091c0.188-1.531,0.415-3.06,0.543-4.596
	c0.276-3.271,0.568-6.543,0.721-9.827c0.158-3.282,0.208-6.563,0.198-9.85c-0.01-3.788,0.899-5.361,4.444-6.452
	c5.926-1.822,11.897-3.497,17.867-5.163c0.499-0.139,1.245,0.101,1.699,0.407c2.049,1.383,4.04,2.854,6.247,4.438
	c-0.588,1.854-1.21,3.775-1.872,5.839c1.511,1.173,1.595,3.005,1.689,4.734c0.276,4.869,2.113,8.97,5.797,12.151
	c0.874,0.76,2.133,1.072,3.408,1.684c-2.474,3.545-6.267,6.007-7.901,10.237c-1.581,4.059-3.338,8.01-3.19,12.413
	c-2.761,0.558-22.791-1.259-25.542-2.274c-0.005-2.186,1.896-4.097,1.353-6.702c-1.946,0.738-2.257,2.494-3.274,3.667
	c-0.548-1.375-1.052-2.629-1.556-3.879c-0.208,0.01-0.405,0.025-0.612,0.035c-0.208,0.501-0.607,1.002-0.593,1.494
	c0.069,2.304,0.208,4.61,0.41,6.907C201.89,187.561,202.067,189.109,201.307,190.884z"/>
<path fill="#FFFFFF" d="M210.182,415.454c0,1.413,0,2.45,0,3.625c-2.232,0.267-4.415,0.444-6.573,0.78
	c-4.208,0.652-8.455,1.176-12.588,2.163c-6.386,1.512-12.697,3.358-19.038,5.077c-2.736,0.74-5.541,1.323-8.198,2.301
	c-4.568,1.689-9.141,3.418-13.521,5.502c-4.603,2.192-8.297,5.481-9.699,10.677c-0.85,3.15-0.603,6.183,1.501,8.84
	c1.763,2.222,3.566,4.415,5.433,6.548c0.435,0.504,1.19,0.731,1.802,1.077c9.038,5.066,18.89,7.585,28.964,9.561
	c10.825,2.124,21.739,3.368,32.722,4.336c11.887,1.047,23.774,1.294,35.675,1.561c11.28,0.257,22.559,0.276,33.848,0.326
	c2.123,0.01,4.237-0.405,6.37-0.554c8.421-0.592,16.831-1.304,25.127-2.953c3.393-0.672,6.785-1.441,10.119-2.36
	c9.077-2.499,18.277-4.652,26.762-8.929c2.617-1.313,5.254-2.627,7.714-4.207c2.903-1.877,4.948-4.554,5.985-7.912
	c0.454-1.491,0.563-2.953-0.722-4.217c-0.415-0.415-0.761-1.047-0.859-1.62c-0.351-2.262-1.955-3.556-3.635-4.722
	c-4.02-2.805-8.321-5.047-12.953-6.766c-9.857-3.654-19.917-6.558-30.169-8.79c-7.2-1.58-14.499-2.646-21.749-3.95
	c-0.696-0.129-1.472-0.168-2.039-0.523c-1.042-0.643-1.21-1.857-0.835-2.835c0.188-0.494,1.289-0.958,1.936-0.909
	c2.559,0.218,5.116,0.533,7.646,1.018c6.889,1.284,13.827,2.4,20.622,4.079c8.193,2.035,16.09,4.988,23.893,8.287
	c5.793,2.459,11.018,5.719,16.188,9.155c1.916,1.274,3.95,2.559,5.437,4.268c3.941,4.514,4.347,8.879,0.381,13.945
	c-3.402,4.346-8.1,6.796-13.127,8.781c-4.632,1.827-9.333,3.348-14.183,4.533c-5.349,1.294-10.52,3.318-15.853,4.652
	c-15.2,3.802-30.569,6.488-46.313,6.696c-10.021,0.128-20.04,0.514-30.05-0.198c-5.66-0.404-11.324-0.74-16.974-1.194
	c-8.494-0.682-17.008-1.225-25.462-2.223c-8.998-1.057-17.966-2.41-26.885-3.94c-7.783-1.344-15.487-3.151-23.23-4.701
	c-3.556-0.712-6.657-2.41-9.739-4.169c-1.546-0.879-3.062-1.787-4.553-2.755c-5.472-3.546-7.511-8.979-8.208-15.122
	c-0.06-0.603-0.02-1.274,0.168-1.847c1.585-4.741,3.847-9.037,8.632-11.299c8.83-4.198,17.729-8.198,27.245-10.657
	c3.778-0.979,7.433-2.479,11.245-3.27c9.037-1.867,18.129-3.486,27.22-5.116C207.016,415.247,208.458,415.454,210.182,415.454z"/>
<path fill="#FFFFFF" d="M251.205,314.522c0.168,1.867,0.301,3.803,0.514,5.749c0.346,3.081,0.672,6.183,1.146,9.244
	c0.158,1.018,0.464,2.281,1.176,2.895c1.289,1.126,1.215,2.38,1.269,3.813c0.163,3.921,0.756,7.793,2.257,11.447
	c1.156,2.814,1.265,5.481,0.593,8.523c-1.659,7.496-1.64,15.131-1.076,22.806c0.691,9.354,3.047,18.381,4.879,27.507
	c0.247,1.255,0.207,2.578,0.316,4.01c-7.857,0.188-15.359,0.376-23.003,0.563c-0.543-1.985-0.326-3.98,0.064-5.976
	c0.667-3.299,1.497-6.578,2.069-9.906c0.543-3.141,0.731-6.341,1.269-9.482c0.923-5.363,1.161-10.775,0.973-16.188
	c-0.163-5.126-0.306-10.342-2.558-15.112c-1.126-2.39-0.879-4.691,0.054-6.913c1.654-3.971,1.783-8.119,1.872-12.307
	c0.01-0.583-0.287-1.186-0.435-1.788c-0.415-1.541-0.276-1.768,1.333-2.212c0.252-0.069,0.533-0.069,0.78-0.139
	c1.906-0.543,1.916-0.78,2.227-2.716c0.775-4.791,1.896-9.502,3.867-13.966C250.8,314.375,250.958,314.434,251.205,314.522z"/>
<path fill="#FFFFFF" d="M256.094,275.717c-5.076-0.504-9.758-0.958-14.43-1.442c-5.205-0.533-10.479-0.771-15.601-1.748
	c-5.294-0.997-10.721-1.343-15.887-3.102c-3.344-1.136-6.835-1.837-10.257-2.756c-0.598-0.147-1.19-0.346-1.763-0.592
	c-2.37-1.027-2.928-2.578-1.822-4.89c0.519-1.086,1.358-1.402,2.395-0.908c7.773,3.733,16.292,4.78,24.52,6.884
	c12.766,3.25,25.754,3.783,38.871,3.279c12.662-0.484,25.077-2.4,37.334-5.521c1.887-0.483,3.714-1.205,5.581-1.787
	c0.78-0.237,1.654-0.435,2.074,0.533c0.43,0.997,0.306,1.966-0.825,2.459c-2.029,0.889-4.024,1.966-6.148,2.509
	c-3.604,0.938-7.289,1.58-10.963,2.252c-5.397,0.987-10.806,2.024-16.237,2.825C267.226,274.541,261.487,275.084,256.094,275.717z"
	/>
<path fill="#FFFFFF" d="M308.812,270.966c-0.241,0.168-0.498,0.454-0.805,0.553c-4.968,1.659-9.946,3.299-14.924,4.919
	c-1.186,0.385-2.4,0.682-3.596,1.018c-2.903,0.84-5.817,1.422-8.874,1.63c-3.699,0.267-7.402,0.958-11.037,1.768
	c-8.331,1.837-16.756,2.015-25.191,1.531c-5.842-0.336-11.699-0.88-17.487-1.719c-3.674-0.533-7.259-1.699-10.835-2.746
	c-3.141-0.938-6.287-1.936-9.294-3.229c-2.321-0.998-4.425-2.519-6.657-3.753c-0.583-0.326-1.269-0.514-1.931-0.672
	c-0.766-0.178-1.585-0.139-2.331-0.386c-1.462-0.483-1.318-1.393-0.509-2.508c3.417,1.125,6.726,2.37,10.124,3.299
	c3.131,0.859,6.361,1.362,9.531,2.063c2.499,0.563,4.958,1.373,7.486,1.778c5.171,0.829,10.391,1.333,15.556,2.223
	c9.907,1.698,19.773,1.273,29.715,0.197c10.281-1.116,20.361-3.131,30.396-5.482c1.877-0.444,3.655-1.323,5.472-2.024
	c0.573-0.227,1.116-0.543,1.689-0.771C307.963,267.607,308.377,267.864,308.812,270.966z"/>
<path fill="#FFFFFF" d="M205.188,188.8c1.956,0.091,3.625,0.188,5.304,0.242c6.03,0.198,12.06,0.41,18.094,0.561
	c2.726,0.072,3.21,0.477,3.674,3.086c0.459,2.534,1.057,5.038,1.58,7.561c0.109,0.499,0.153,1.012,0.277,1.842
	c-10.262-0.415-20.292-1.116-30.51-3.21C203.272,195.761,204.586,192.506,205.188,188.8z"/>
<path fill="#FFFFFF" d="M199.549,199.657c0,1.102,0,2.247,0,3.481c-1.669,1.176-3.442,1.565-5.462,0.948
	c-3.99-1.215-7.97-2.43-11.99-3.546c-6.05-1.679-12.129-3.259-18.559-4.978c1.565-3.279,3.397-6.4,5.363-9.302
	C179.869,189.225,189.544,194.388,199.549,199.657z"/>
<path fill="#FFFFFF" d="M349.268,210.23c-1.99,0-3.397,0.069-4.8-0.01c-3.394-0.198-6.722,0.173-10.011,1.022
	c-3.338,0.859-6.667,1.773-10.024,2.553c-0.722,0.168-1.714,0.158-2.263-0.222c-3.052-2.084-6.43-3.324-10.034-4.133
	c0.084-1.329,1.116-1.511,1.827-1.803c4.104-1.674,8.163-3.472,12.375-4.825c4.633-1.481,9.354-2.731,14.243-3.161
	c2.321-0.208,2.745-0.128,3.901,1.837c1.17,1.98,2.341,3.971,3.467,5.976C348.364,208.206,348.689,209.006,349.268,210.23z"/>
<path fill="#FFFFFF" d="M280.104,193.158c8.1-0.42,15.848-0.825,23.888-1.244c0,2.059,0.039,3.886-0.02,5.713
	c-0.035,1.067-0.232,2.114-0.352,3.18c-0.251,2.262-0.726,2.889-2.923,2.963c-5.68,0.188-11.358,0.247-17.038,0.351
	c-1.649,0.025-3.309,0-5.338,0C278.969,200.186,279.542,196.669,280.104,193.158z"/>
<path fill="#FFFFFF" d="M240.202,143.07c2.4,1.719,4.682,2.988,6.509,4.729c4.859,4.627,10.455,5.647,16.751,4.01
	c2.43-0.632,4.657-1.684,6.633-3.262c0.963-0.768,1.95-1.558,3.659-1.39c-0.113,0.682-0.074,1.39-0.36,1.916
	c-2.197,4-5.255,7.131-9.487,8.971c-0.622,0.274-1.388,0.472-2.039,0.38c-3.99-0.558-3.985-0.588-7.245,1.318
	c-0.404-0.383-0.859-0.788-1.294-1.202c-1.096-1.052-2.188-1.704-3.753-0.679c-1.501,0.983-2.889-0.166-3.842-0.985
	c-3.729-3.185-5.803-7.301-5.996-12.274C239.723,144.283,239.921,143.959,240.202,143.07z"/>
<path fill="#FFFFFF" d="M341.203,196.59c-0.652,0.188-1.15,0.455-1.64,0.455c-3.526-0.01-6.845,1.017-10.089,2.178
	c-6.914,2.474-13.981,4.623-20.253,8.598c-0.296,0.188-0.651,0.494-0.938,0.45c-0.726-0.124-1.64-0.212-2.094-0.687
	c-0.711-0.75-0.079-1.521,0.643-1.946c3.427-2.025,6.755-4.282,10.36-5.906c4.029-1.817,8.282-3.151,12.504-4.489
	c2.43-0.766,4.998-1.15,7.507-1.684C339.929,192.971,340.433,193.326,341.203,196.59z"/>
<path fill="#FFFFFF" d="M307.622,112.126c-0.573-1.163,0.503-2.114,1.16-3.257c1.042-1.81,2.02-3.61,2.548-5.743
	c0.519-2.069,1.882-3.961,3.037-5.828c0.578-0.951,1.63-0.995,2.588-0.397c1.245,0.773,2.321,1.723,2.232,3.351
	c-0.089,1.578-0.158,3.17-0.489,4.704c-0.32,1.457-1.081,2.817-1.441,4.27c-0.869,3.489-3.803,4.971-6.435,6.679
	c-1.363,0.884-2.859,0.035-3.181-1.583C307.522,113.729,307.622,113.091,307.622,112.126z M317.079,100.723
	c-1.2-0.965-2.01-0.481-2.544,0.227c-1.283,1.714-2.509,3.541-1.886,5.84c0.351,1.296,0.089,2.232-0.948,3.044
	c-0.355,0.289-0.612,0.704-1.018,1.18c2.963,0.242,4.489-1.254,3.808-3.931c-0.578-2.245,0.271-3.751,1.604-5.26
	C316.383,101.506,316.664,101.188,317.079,100.723z"/>
<path fill="#FFFFFF" d="M170.788,183.662c1.546-2.958,1.61-3.099,4.316-2.38c9.057,2.42,17.699,5.758,25.22,11.694
	c-0.064,0.632-0.094,1.245-0.183,1.852c-0.064,0.424-0.208,0.839-0.41,1.625C190.719,190.61,181.519,185.62,170.788,183.662z"/>
<path fill="#FFFFFF" d="M238.454,417.519c0-1.521,0-2.627,0-3.792c7.842-1.116,15.517-1.058,23.171-0.83
	c0.454,3.17-0.015,3.783-2.771,3.772C252.124,416.649,245.393,416.402,238.454,417.519z"/>
<path fill="#FFFFFF" d="M302.239,277.604c0.923-0.396,1.619-0.771,2.36-1.008c2.034-0.643,2.222-0.444,3.215,1.521
	c1.002,1.966,2.158,3.862,3.304,5.759c0.489,0.81,0.889,1.58,0.178,2.42c-0.711,0.859-1.521,0.523-2.4,0.188
	C304.821,284.932,303.538,281.416,302.239,277.604z"/>
<path fill="#FFFFFF" d="M200.635,276.003c-0.879,5.748-2.622,8.168-7.313,8.622c-0.42-0.721-0.884-1.53-1.111-1.926
	c1.294-2.173,2.464-3.901,3.408-5.758c1.318-2.578,1.363-2.657,3.97-1.502C199.905,275.588,200.201,275.766,200.635,276.003z"/>
<path fill="#FFFFFF" d="M235.392,140.966c1.763,0.131,2.104,0.708,1.916,1.963c-0.247,1.642-0.652,3.427-0.267,4.97
	c1.274,5.047,2.938,9.961,8.287,12.329c0.208,0.097,0.326,0.378,0.494,0.581c-1.333,0.79-3.299,0.578-4.445-0.642
	c-2.933-3.136-5.373-6.573-6.203-10.906C234.651,146.529,235.007,143.853,235.392,140.966z"/>
<path fill="#FFFFFF" d="M265.526,160.977c1.788-1.563,3.585-3.04,5.274-4.632c1.215-1.148,2.351-2.388,3.397-3.687
	c1.284-1.603,2.134-3.439,2.479-5.501c0.188-1.079,0.548-2.124,2.034-1.857c0.583,3.055-2.617,10.084-5.674,12.507
	C269.063,160.945,267.216,161.76,265.526,160.977z"/>
<path fill="#FFFFFF" d="M309.123,288.586c-1.877,0.909-2.998-0.138-4.188-0.474c-3.675-1.008-5.67-3.694-6.786-7.161
	c-0.271-0.84-0.622-1.768,0.539-2.271c1.076-0.464,2-0.188,2.385,0.918c0.889,2.529,2.845,4.258,4.504,6.174
	C306.456,286.789,307.711,287.49,309.123,288.586z"/>
<path fill="#FFFFFF" d="M205.919,277.691c-1.086,4.949-4.128,7.438-8.455,8.594c1.186-1.284,2.637-2.42,3.487-3.901
	c0.889-1.561,1.205-3.457,1.886-5.551C203.756,277.09,204.784,277.376,205.919,277.691z"/>
<path fill="#FFFFFF" d="M296.53,207.035c3.378-1.259,5.16-1.244,6.735,0.104C300.821,208.394,298.684,207.109,296.53,207.035z"/>
<path fill="#FFFFFF" d="M346.605,213.989c1.407,0.301,2.282,0.489,3.313,0.706c-0.424,1.679-1.338,2.163-2.923,2.124
	C346.882,216.028,346.788,215.307,346.605,213.989z"/>
<path fill="#FFFFFF" d="M162.13,199.158c0.84-0.083,1.447-0.138,2.316-0.227c-0.326,1.156-0.558,1.99-0.845,3.018
	C162.511,201.252,162.521,200.29,162.13,199.158z"/>
<path fill="#010101" d="M277.981,125.795c-0.276,0.304-0.405,0.546-0.514,0.536c-2.603-0.203-4.662,1.41-7.008,2.047
	c-7.585,2.064-14.717,0.8-21.458-3.138c-0.598-0.351-1.462-0.361-2.192-0.331c-1.097,0.047-2.134,0.148-2.627-1.126
	c2.124-2.04,3.738-2.867,5.788-2.867c-0.528,2.269,1.057,3.094,2.726,3.817c5.526,2.413,11.221,3.166,17.097,1.496
	c1.497-0.419,3.255-0.718,2.559-3.333C274.623,123.857,276.613,124.193,277.981,125.795z"/>
<path fill="#010101" d="M271.877,101.842c1.561,1.116,2.988,2.128,4.405,3.155c1.951,1.396,4.069,1.571,6.321,0.971
	c1.373-0.365,2.815-0.516,4.134-0.998c1.388-0.511,2.771-1.183,3.985-2.017c1.205-0.82,2.163-0.909,3.457,0.131
	c-1.917,2.667-3.906,4.771-7.058,5.504c-3.254,0.753-6.425,0.99-9.704-0.032c-2.37-0.738-4.395-1.738-5.945-3.731
	C270.337,103.368,270.243,103.439,271.877,101.842z"/>
<path fill="#010101" d="M233.007,98.464c0.874,0.58,1.684,0.976,2.306,1.565c4.41,4.163,10.203,5.052,15.586,2.326
	c0.632-0.319,1.219-0.835,1.881-0.951c0.479-0.084,1.289,0.192,1.517,0.568c0.236,0.378,0.133,1.395-0.178,1.598
	c-3.556,2.346-7.151,4.612-11.784,3.509c-3.407-0.813-6.593-1.993-9.161-4.489C231.619,101.071,231.58,100.931,233.007,98.464z"/>
<path fill="#010101" d="M253.971,136.672c0.978-0.575,1.931-1.148,2.997-1.785c-0.227-0.738-0.449-1.477-0.676-2.205
	c1.698-1.005,4.435-1.02,8.771-0.059c0.504,1.864-1.699,1.713-2.262,3.037c0.582,0.906,1.244,1.928,1.906,2.943
	c-0.119,0.128-0.237,0.249-0.355,0.375c-0.361-0.136-0.751-0.227-1.082-0.419c-2.02-1.158-4.074-1.553-6.386-0.82
	C255.956,138.038,254.573,138.583,253.971,136.672z"/>
<path fill="#010101" d="M237.634,91.266c1.729-1.366,2.968-2.467,4.326-3.383c2.765-1.857,5.501-1.4,8.208,0.247
	c1.057,0.645,1.215,1.543,0.731,2.484c-0.543,1.062-1.486,0.783-2.262,0.227c-1.783-1.284-3.497-1.25-5.393-0.151
	c-1.047,0.601-2.321,0.854-3.526,1.106C239.249,91.898,238.681,91.555,237.634,91.266z"/>
<path fill="#010101" d="M286.021,94.563c-1.031,0.679-1.995,0.321-2.923-0.195c-0.85-0.466-1.649-1.042-2.528-1.442
	c-1.581-0.713-3.221-0.921-4.83-0.015c-0.386,0.212-0.79,0.516-1.195,0.536c-0.459,0.025-1.279-0.138-1.333-0.37
	c-0.119-0.504-0.06-1.294,0.271-1.627c2.78-2.817,5.98-2.943,9.171-0.449C285.33,93.081,285.33,93.081,286.021,94.563z"/>
<path fill="#010101" d="M266.672,116.758c-4.721,2.012-7.645,1.896-10.262-0.373c0.307-1.027,1.19-0.876,1.936-0.891
	c1.151-0.025,2.302,0.121,3.452,0.057c1.388-0.082,1.679-0.457,1.274-1.882c-0.365-1.293-0.163-2.393,0.509-3.536
	C265.289,112.005,266.554,114.679,266.672,116.758z"/>
<path fill="#010101" d="M203.984,95.17c2.247-1.491,2.933-1.395,3.891,0.506c0.731,1.452,1.354,2.958,0.534,4.576
	c-0.573,1.143-0.208,1.968,0.538,2.884c1.062,1.304,1.892,2.75,0.568,5.057c-0.968-2.813-3.417-4.343-3.121-7.324
	C206.749,97.34,206.68,97.331,203.984,95.17z"/>
<path fill="#010101" d="M252.094,96.348c-1.377,1.094-2.237-0.444-3.318-0.647c-1.096-0.212-2.183-0.526-3.373-0.817
	C247.393,93.199,250.271,93.876,252.094,96.348z"/>
<path fill="#010101" d="M278.253,96.555c1.916-1.612,4.578-1.516,6.588,0.24C283.784,97.303,281.31,97.214,278.253,96.555z"/>
<path fill="#010101" d="M227.185,452.059c-0.672-0.188-1.348-0.386-2.321-0.672C226.513,450.666,226.513,450.666,227.185,452.059z"
	/>
<path fill="#010101" d="M259.63,447.781c3.111-1.225,5.245-0.375,6.528,2.489C263.778,449.865,261.724,449.44,259.63,447.781z"/>
<path fill="#010101" d="M257.941,325.723c6.854,1.137,13.719,2.263,20.963,3.467c-2.157,0.712-4.963,0.84-6.642,0.544
	c-3.586-0.622-7.171-1.215-10.766-1.759C259.413,327.659,258.573,327.323,257.941,325.723z"/>
<path fill="#010101" d="M222.552,327.047c6.396-1.146,12.791-2.292,19.201-3.397c0.346-0.069,0.741,0.188,1.116,0.582
	C236.242,326.276,229.437,326.85,222.552,327.047z"/>
<path fill="#010101" d="M202.028,320.884c0.819,0.395,1.634,0.8,2.449,1.194c-0.069,0.148-0.138,0.307-0.208,0.455
	c-0.8-0.415-1.6-0.84-2.4-1.255C201.929,321.141,201.979,321.012,202.028,320.884z"/>
<path fill="#010101" d="M211.085,326.099c-0.242-0.218-0.484-0.444-0.73-0.662c0.054-0.079,0.104-0.147,0.158-0.217
	c0.296,0.197,0.588,0.395,0.879,0.593C211.292,325.911,211.184,326,211.085,326.099z"/>
<path fill="#010101" d="M317.079,100.723c-0.415,0.469-0.696,0.788-0.983,1.106c-1.333,1.509-2.183,3.015-1.6,5.26
	c0.682,2.677-0.845,4.173-3.808,3.931c0.4-0.477,0.662-0.891,1.022-1.178c1.027-0.814,1.294-1.75,0.943-3.047
	c-0.623-2.299,0.603-4.126,1.886-5.84C315.059,100.237,315.879,99.758,317.079,100.723z"/>
</svg>
