<?xml version="1.0" encoding="utf-8"?>
<!-- Generator: Adobe Illustrator 16.0.0, SVG Export Plug-In . SVG Version: 6.00 Build 0)  -->
<!DOCTYPE svg PUBLIC "-//W3C//DTD SVG 1.1//EN" "http://www.w3.org/Graphics/SVG/1.1/DTD/svg11.dtd">
<svg version="1.1" id="Layer_1" xmlns="http://www.w3.org/2000/svg" xmlns:xlink="http://www.w3.org/1999/xlink" x="0px" y="0px"
	 width="150px" height="150px" viewBox="0 0 150 150" enable-background="new 0 0 150 150" xml:space="preserve">
<g>
	<path fill="#FFFFFF" d="M73.967,18.003c19.008,0,38.02,0,57.033,0c0,37.672,0,75.342,0,113.021c-37.668,0-75.336,0-113.015,0
		c0-37.669,0-75.346,0-113.021c1.67,0,3.352,0,5.033,0c0.007,0.077,0.016,0.153,0.02,0.23c0.053,1.428,0.104,2.855,0.158,4.284
		c0.15,3.85,0.306,7.699,0.455,11.55c0.108,2.818,0.207,5.636,0.314,8.454c0.145,3.87,0.294,7.739,0.438,11.608
		c0.089,2.412,0.173,4.825,0.262,7.236c0.127,3.436,0.255,6.872,0.383,10.308c0.083,2.229,0.168,4.458,0.253,6.688
		c0.042,1.139,0.09,2.276,0.136,3.416c0.013,0.326,0.04,0.349,0.362,0.251c0.046-0.015,0.092-0.027,0.138-0.043
		c1.724-0.594,3.448-1.188,5.17-1.779c2.165-0.743,4.329-1.485,6.492-2.224c2.522-0.861,5.043-1.727,7.571-2.566
		c0.622-0.206,1.216-0.49,1.922-0.435c0.443,0.034,0.676,0.186,0.847,0.54c0.06,0.125,0.191,0.293,0.152,0.378
		c-0.177,0.378-0.342,0.774-0.839,0.874c-0.48,0.096-0.962,0.208-1.427,0.367c-2.384,0.814-4.762,1.642-7.141,2.47
		c-1.631,0.569-3.258,1.153-4.895,1.707c-1.152,0.39-2.314,0.738-3.469,1.117c-0.301,0.099-0.599,0.214-0.881,0.354
		c-0.282,0.14-0.286,0.538-0.024,0.714c0.088,0.061,0.186,0.106,0.283,0.145c1.613,0.638,3.229,1.275,4.84,1.916
		c0.977,0.388,1.944,0.803,2.928,1.17c1.028,0.388,2.077,0.723,3.108,1.104c1.414,0.52,2.819,1.057,4.227,1.591
		c0.929,0.354,1.845,0.75,2.784,1.068c1.656,0.558,3.331,1.06,4.988,1.614c0.804,0.268,1.583,0.616,2.383,0.897
		c1.045,0.372,2.102,0.714,3.153,1.073c1.169,0.397,2.344,0.782,3.502,1.208c1.05,0.384,2.083,0.814,3.122,1.227
		c0.413,0.161,0.823,0.332,1.24,0.484c0.77,0.277,1.544,0.54,2.317,0.81c0.557,0.194,1.116,0.395,1.681,0.568
		c0.322,0.097,0.663,0.128,0.989,0.212c0.458,0.12,0.905,0.268,1.362,0.389c0.104,0.026,0.238,0.038,0.328-0.006
		c0.458-0.226,0.915-0.457,1.354-0.713c0.766-0.447,1.506-0.943,2.282-1.37c0.864-0.476,1.767-0.887,2.639-1.348
		c0.546-0.289,1.073-0.612,1.603-0.932c1.665-1.008,3.33-2.016,4.985-3.04c0.507-0.316,0.96-0.712,1.47-1.024
		c0.779-0.48,1.589-0.909,2.376-1.379c1.138-0.685,2.272-1.368,3.39-2.086c1.248-0.801,2.462-1.653,3.707-2.459
		c0.848-0.548,1.728-1.05,2.582-1.587c0.105-0.067,0.204-0.225,0.204-0.34c0.001-0.09-0.137-0.229-0.243-0.267
		c-0.422-0.156-0.859-0.281-1.286-0.426c-0.657-0.224-1.311-0.452-1.965-0.683c-1.143-0.398-2.282-0.803-3.426-1.201
		c-0.936-0.324-1.873-0.643-2.81-0.961c-0.278-0.095-0.556-0.18-0.918-0.298c0.182-0.152,0.29-0.254,0.41-0.337
		c0.389-0.267,0.578-0.648,0.702-1.089c0.186-0.669-0.089-1.261-0.302-1.85c-0.251-0.69-0.769-1.154-1.424-1.49
		c-0.906-0.465-1.844-0.811-2.852-0.979c-0.414-0.069-0.938,0.073-1.189-0.452c-0.007-0.014-0.031-0.022-0.05-0.029
		c-0.4-0.146-0.802-0.292-1.205-0.439c-0.021-0.14-0.056-0.309-0.07-0.479c-0.058-0.708-0.437-1.11-1.153-1.216
		c-0.057-0.009-0.118-0.008-0.17-0.03c-0.588-0.256-1.179-0.507-1.762-0.776c-1.059-0.489-2.188-0.73-3.319-0.973
		c-0.364-0.078-0.726-0.254-1.042-0.46c-0.518-0.334-1.047-0.58-1.665-0.684c-0.598-0.1-0.623-0.131-0.708-0.635
		c-0.014-0.075-0.039-0.149-0.067-0.221c-0.13-0.347-0.263-0.694-0.405-1.067c1.015-0.385,2.003-0.768,2.998-1.129
		c0.158-0.058,0.362-0.064,0.526-0.021c1.131,0.294,2.255,0.606,3.381,0.914c1.722,0.469,3.442,0.939,5.164,1.407
		c1.072,0.292,2.143,0.577,3.212,0.873c1.125,0.311,2.245,0.643,3.37,0.945c1.733,0.464,3.471,0.904,5.201,1.372
		c1.247,0.337,2.483,0.714,3.729,1.054c1.87,0.51,3.746,0.998,5.616,1.504c1.591,0.431,3.178,0.88,4.769,1.312
		c2.139,0.58,4.281,1.148,6.425,1.727c1.703,0.459,3.404,0.928,5.107,1.391c0.471,0.128,0.943,0.242,1.418,0.363
		c0.021-0.024,0.043-0.05,0.066-0.073c-0.052-0.063-0.09-0.153-0.157-0.186c-0.129-0.059-0.274-0.089-0.411-0.128
		c-1.396-0.373-2.79-0.743-4.187-1.12c-1.16-0.314-2.32-0.634-3.479-0.949c-0.975-0.267-1.947-0.535-2.925-0.8
		c-1.114-0.302-2.23-0.601-3.346-0.9c-0.8-0.214-1.603-0.42-2.398-0.641c-0.966-0.267-1.927-0.55-2.892-0.815
		c-0.982-0.269-1.97-0.52-2.952-0.787c-0.949-0.257-1.895-0.527-2.844-0.786c-1.159-0.316-2.323-0.624-3.484-0.939
		c-0.649-0.177-1.294-0.368-1.942-0.543c-0.818-0.221-1.64-0.431-2.459-0.652c-0.798-0.216-1.598-0.442-2.396-0.66
		c-1.142-0.312-2.285-0.617-3.428-0.927c-0.986-0.269-1.971-0.542-2.956-0.81c-0.992-0.27-1.988-0.534-2.982-0.805
		c-0.62-0.169-1.24-0.355-1.863-0.513c-0.49-0.123-0.514-0.129-0.534-0.626c-0.05-1.361-0.09-2.721-0.141-4.082
		c-0.105-2.837-0.214-5.674-0.319-8.51c-0.124-3.32-0.25-6.639-0.372-9.959c-0.088-2.335-0.168-4.669-0.255-7.005
		c-0.119-3.125-0.242-6.251-0.362-9.376C74.137,22.518,74.053,20.261,73.967,18.003z M94.223,23.083
		c-0.001-0.023-0.001-0.047-0.001-0.071c-1.024,0-2.047,0.02-3.071-0.005c-1.103-0.026-2.203-0.064-3.288,0.17
		c-0.306,0.065-0.641,0.212-0.852,0.43c-0.194,0.201-0.303,0.541-0.331,0.831c-0.075,0.737-0.086,1.481-0.121,2.222
		c-0.062,1.301-0.131,2.602-0.187,3.903c-0.038,0.896-0.057,1.793-0.09,2.69c-0.035,0.935-0.089,1.869-0.12,2.804
		c-0.052,1.562-0.09,3.124-0.135,4.686c-0.057,1.918-0.11,3.837-0.168,5.755c-0.017,0.559-0.037,1.117-0.04,1.676
		c0,0.137,0.034,0.293,0.104,0.407c0.172,0.282,0.37,0.548,0.572,0.81c0.067,0.089,0.164,0.193,0.264,0.215
		c0.31,0.067,0.626,0.096,0.939,0.14c1.492,0.21,2.977,0.43,4.468,0.627c1.291,0.171,2.584,0.312,3.875,0.473
		c1.482,0.186,2.965,0.382,4.448,0.573c1.825,0.234,3.649,0.483,5.477,0.696c1.482,0.172,2.971,0.307,4.457,0.442
		c0.833,0.076,1.67,0.128,2.506,0.171c0.847,0.043,1.696,0.061,2.542,0.09c0.096,0.004,0.191,0.012,0.287,0.025
		c0.399,0.053,0.799,0.104,1.196,0.165c0.099,0.016,0.241,0.037,0.276,0.102c0.084,0.159,0.17,0.14,0.304,0.087
		c0.734-0.29,1.474-0.564,2.2-0.869c0.113-0.047,0.232-0.216,0.247-0.34c0.056-0.468,0.073-0.941,0.099-1.412
		c0.038-0.693,0.064-1.387,0.107-2.08c0.071-1.125,0.154-2.25,0.227-3.375c0.044-0.703,0.07-1.406,0.117-2.108
		c0.1-1.55,0.212-3.098,0.313-4.647c0.089-1.308,0.17-2.618,0.25-3.927c0.088-1.454,0.178-2.908,0.263-4.362
		c0.094-1.655,0.178-3.311,0.286-4.966c0.02-0.299-0.092-0.41-0.353-0.487c-0.592-0.176-1.184-0.355-1.762-0.569
		c-0.356-0.132-0.669-0.364-1.079-0.367c-0.244-0.002-0.487-0.13-0.734-0.144c-0.972-0.054-1.943-0.096-2.919-0.121
		c-1.04-0.026-2.084-0.012-3.123-0.046c-1.005-0.032-2.006-0.123-3.008-0.151c-0.762-0.021-1.524,0.024-2.287,0.025
		c-1.686,0.001-3.375-0.003-5.061-0.011c-1.073-0.005-2.142-0.012-3.214-0.037C96.809,23.174,95.515,23.125,94.223,23.083z"/>
	<path fill="#FFFFFF" d="M23.308,18.003c16.79,0,33.579,0,50.37,0c0.011,0.328,0.024,0.656,0.036,0.984
		c0.108,2.953,0.214,5.905,0.325,8.858c0.106,2.798,0.22,5.596,0.328,8.394c0.09,2.383,0.173,4.767,0.266,7.15
		c0.121,3.213,0.249,6.426,0.372,9.639c0.085,2.287,0.164,4.573,0.249,6.859c0.048,1.341,0.103,2.682,0.155,4.023
		c0.008,0.173,0.002,0.319-0.2,0.396c-0.94,0.354-1.872,0.721-2.814,1.067c-0.078,0.028-0.261-0.031-0.284-0.093
		c-0.246-0.616-0.497-1.231-0.684-1.866c-0.119-0.406-0.068-0.862-0.195-1.263c-0.35-1.091-0.738-2.17-1.142-3.244
		c-0.129-0.343-0.358-0.646-0.53-0.974c-0.295-0.563-0.575-1.133-0.879-1.691c-0.069-0.128-0.19-0.256-0.319-0.318
		c-0.369-0.178-0.75-0.335-1.135-0.479c-0.559-0.208-1-0.537-1.21-1.114c-0.089-0.242-0.136-0.5-0.23-0.739
		c-0.084-0.215-0.02-0.318,0.185-0.396c0.356-0.141,0.727-0.265,1.056-0.456c1.041-0.604,1.849-1.437,2.431-2.494
		c0.412-0.746,0.661-1.535,0.737-2.383c0.028-0.313,0.099-0.592,0.438-0.748c0.162-0.075,0.295-0.246,0.401-0.402
		c0.231-0.344,0.066-0.671-0.318-0.832c-0.254-0.105-0.462-0.318-0.683-0.494c-0.04-0.032-0.072-0.147-0.049-0.177
		c0.234-0.296,0.054-0.471-0.206-0.633c0.415-0.44,0.28-1.106,0.726-1.517c0.114-0.107,0.182-0.273,0.247-0.422
		c0.096-0.221-0.008-0.393-0.176-0.601c-0.161,0.358-0.288,0.689-0.713,0.806c0.008-0.137,0.014-0.247,0.019-0.354
		c0.008-0.211,0.056-0.431,0.014-0.633c-0.15-0.771-0.374-1.515-0.869-2.151c-0.046-0.059-0.037-0.235,0.015-0.282
		c0.615-0.562,0.896-1.294,1.077-2.073c0.1-0.436,0.134-0.885-0.167-1.277c-0.334-0.438-0.797-0.66-1.329-0.738
		c-0.116-0.017-0.281,0.018-0.356,0.095c-0.05,0.05,0.035,0.219,0.041,0.335c0.004,0.172,0.047,0.383-0.036,0.504
		c-0.073,0.108-0.298,0.167-0.447,0.154c-0.305-0.024-0.609-0.097-0.907-0.175c-0.876-0.231-1.746-0.481-2.622-0.71
		c-0.557-0.146-1.116-0.326-1.686-0.38c-0.685-0.066-1.383-0.047-2.074-0.007c-0.835,0.049-1.659,0.16-2.461,0.456
		c-1.381,0.508-2.666,1.167-3.759,2.167c-0.083,0.076-0.194,0.127-0.299,0.175c-0.653,0.294-1.168,0.744-1.546,1.351
		c-0.169,0.27-0.336,0.54-0.48,0.822c-0.384,0.749-0.651,1.557-0.622,2.384c0.038,0.997,0.245,1.986,0.368,2.979
		c0.042,0.335,0.075,0.67,0.089,1.007c0.009,0.281-0.091,0.513-0.322,0.706c-0.273,0.228-0.523,0.489-0.752,0.759
		c-0.105,0.125-0.146,0.306-0.217,0.463c0.875-0.034,1.257-0.722,1.807-1.186c0.05,0.059,0.089,0.098,0.12,0.145
		c0.278,0.455,0.577,0.886,1.073,1.145c0.139,0.073,0.25,0.211,0.361,0.33c0.414,0.441,0.808,0.902,1.239,1.324
		c0.208,0.203,0.487,0.333,0.731,0.499c0.045,0.031,0.121,0.082,0.115,0.11c-0.061,0.306-0.04,0.737-0.233,0.888
		c-0.374,0.292-0.743,0.617-1.243,0.763c-0.91,0.267-1.697,0.766-2.336,1.487c-0.643,0.725-1.266,1.466-1.708,2.328
		c-0.296,0.579-0.563,1.191-0.718,1.819c-0.21,0.84-0.304,1.708-0.442,2.565c-0.169,1.067-0.331,2.136-0.497,3.203
		c-0.088,0.562-0.126,1.135-0.269,1.682c-0.284,1.091-0.598,2.176-0.951,3.247c-0.207,0.628-0.487,1.236-0.78,1.831
		c-0.285,0.584-0.764,1.012-1.303,1.368c-0.201,0.132-0.35,0.282-0.35,0.556c-0.002,0.822,0.358,1.467,0.94,2.007
		c0.217,0.199,0.217,0.251-0.073,0.352c-0.51,0.18-1.024,0.35-1.536,0.524c-3.116,1.063-6.231,2.128-9.345,3.19
		c-1.764,0.602-3.526,1.202-5.292,1.799c-1.279,0.434-2.56,0.862-3.838,1.3c-0.216,0.073-0.313,0.032-0.309-0.2
		c0.001-0.079-0.007-0.155-0.008-0.233c-0.092-2.452-0.185-4.903-0.278-7.354c-0.139-3.658-0.282-7.315-0.422-10.974
		c-0.13-3.436-0.261-6.871-0.389-10.306c-0.091-2.412-0.181-4.825-0.269-7.239c-0.113-3.156-0.218-6.313-0.334-9.469
		c-0.125-3.348-0.256-6.696-0.384-10.045C23.505,23.253,23.407,20.629,23.308,18.003z"/>
	<path fill="#010101" d="M23.308,18.003c0.099,2.625,0.197,5.25,0.298,7.875c0.128,3.348,0.262,6.696,0.384,10.045
		c0.116,3.156,0.223,6.313,0.335,9.469c0.088,2.413,0.178,4.826,0.269,7.239c0.129,3.435,0.258,6.871,0.39,10.306
		c0.14,3.658,0.282,7.315,0.421,10.974c0.095,2.452,0.185,4.903,0.277,7.354c0.002,0.077,0.012,0.153,0.009,0.232
		c-0.006,0.232,0.091,0.275,0.309,0.2c1.278-0.438,2.56-0.865,3.84-1.3c1.763-0.6,3.525-1.199,5.29-1.8
		c3.116-1.061,6.231-2.124,9.347-3.188c0.511-0.175,1.024-0.347,1.534-0.524c0.289-0.103,0.29-0.154,0.074-0.354
		c-0.583-0.541-0.943-1.185-0.94-2.006c0-0.274,0.15-0.425,0.348-0.557c0.54-0.356,1.017-0.783,1.304-1.368
		c0.291-0.595,0.572-1.203,0.78-1.831c0.351-1.071,0.667-2.155,0.948-3.246c0.143-0.547,0.186-1.121,0.271-1.683
		c0.165-1.067,0.329-2.136,0.498-3.203c0.136-0.857,0.229-1.726,0.439-2.565c0.157-0.628,0.426-1.24,0.72-1.819
		c0.44-0.862,1.065-1.604,1.708-2.328c0.638-0.721,1.427-1.221,2.336-1.487c0.5-0.146,0.866-0.472,1.242-0.763
		c0.193-0.151,0.17-0.582,0.233-0.888c0.007-0.027-0.07-0.079-0.116-0.11c-0.244-0.166-0.523-0.296-0.731-0.499
		c-0.431-0.421-0.826-0.882-1.238-1.323c-0.112-0.12-0.223-0.257-0.363-0.33c-0.493-0.259-0.793-0.69-1.071-1.145
		c-0.029-0.047-0.072-0.086-0.123-0.146c-0.548,0.465-0.93,1.153-1.807,1.186c0.073-0.156,0.111-0.337,0.218-0.462
		c0.23-0.271,0.479-0.531,0.751-0.759c0.233-0.194,0.332-0.426,0.322-0.707c-0.011-0.336-0.044-0.673-0.087-1.007
		c-0.126-0.993-0.332-1.983-0.368-2.979c-0.03-0.827,0.236-1.636,0.621-2.384c0.144-0.282,0.313-0.553,0.48-0.823
		c0.378-0.606,0.894-1.056,1.545-1.351c0.105-0.047,0.217-0.098,0.299-0.174c1.094-1,2.377-1.658,3.759-2.167
		c0.802-0.295,1.626-0.406,2.46-0.455c0.69-0.041,1.39-0.06,2.076,0.006c0.57,0.055,1.127,0.235,1.685,0.381
		c0.877,0.228,1.747,0.479,2.621,0.709c0.299,0.079,0.603,0.151,0.906,0.176c0.152,0.012,0.377-0.047,0.449-0.154
		c0.082-0.121,0.04-0.333,0.034-0.504c-0.002-0.116-0.088-0.284-0.038-0.335c0.075-0.077,0.24-0.111,0.356-0.094
		c0.532,0.077,0.992,0.3,1.328,0.738c0.299,0.392,0.265,0.841,0.167,1.277c-0.18,0.779-0.461,1.512-1.076,2.073
		c-0.052,0.047-0.061,0.223-0.015,0.281c0.494,0.637,0.718,1.381,0.869,2.152c0.04,0.202-0.008,0.421-0.014,0.632
		c-0.004,0.108-0.012,0.217-0.019,0.355c0.426-0.117,0.553-0.448,0.714-0.806c0.167,0.207,0.271,0.38,0.175,0.601
		c-0.064,0.149-0.131,0.315-0.248,0.422c-0.444,0.411-0.313,1.076-0.726,1.517c0.259,0.163,0.442,0.337,0.205,0.633
		c-0.023,0.03,0.009,0.145,0.05,0.178c0.219,0.175,0.429,0.388,0.683,0.493c0.384,0.16,0.55,0.488,0.318,0.832
		c-0.105,0.156-0.239,0.328-0.401,0.402c-0.338,0.156-0.411,0.435-0.438,0.748c-0.075,0.847-0.328,1.637-0.736,2.382
		c-0.582,1.057-1.393,1.891-2.431,2.494c-0.33,0.191-0.701,0.315-1.057,0.456c-0.202,0.08-0.267,0.182-0.182,0.397
		c0.093,0.24,0.14,0.498,0.227,0.739c0.211,0.577,0.654,0.906,1.211,1.114c0.386,0.144,0.768,0.301,1.137,0.479
		c0.129,0.062,0.25,0.19,0.319,0.318c0.304,0.558,0.584,1.129,0.879,1.691c0.172,0.327,0.4,0.631,0.529,0.974
		c0.404,1.072,0.793,2.152,1.143,3.243c0.127,0.402,0.076,0.858,0.195,1.264c0.185,0.634,0.438,1.25,0.683,1.866
		c0.024,0.062,0.208,0.121,0.285,0.093c0.94-0.347,1.874-0.714,2.813-1.067c0.202-0.076,0.207-0.223,0.201-0.396
		c-0.055-1.341-0.106-2.682-0.154-4.023c-0.084-2.287-0.164-4.573-0.25-6.859c-0.121-3.213-0.249-6.427-0.372-9.64
		c-0.089-2.383-0.172-4.767-0.264-7.149c-0.106-2.798-0.222-5.595-0.328-8.394c-0.112-2.952-0.218-5.905-0.324-8.858
		c-0.013-0.328-0.025-0.656-0.038-0.984c0.097,0,0.193,0,0.289,0c0.087,2.257,0.171,4.515,0.257,6.772
		c0.121,3.125,0.243,6.25,0.363,9.376c0.088,2.334,0.168,4.669,0.255,7.004c0.121,3.32,0.248,6.64,0.372,9.959
		c0.105,2.837,0.215,5.673,0.318,8.511c0.051,1.359,0.092,2.721,0.142,4.081c0.017,0.497,0.044,0.503,0.532,0.626
		c0.625,0.157,1.244,0.343,1.866,0.512c0.992,0.271,1.988,0.535,2.982,0.806c0.986,0.268,1.969,0.541,2.955,0.809
		c1.143,0.311,2.286,0.617,3.427,0.928c0.8,0.217,1.598,0.444,2.396,0.661c0.818,0.221,1.639,0.431,2.458,0.652
		c0.65,0.176,1.296,0.366,1.944,0.543c1.16,0.316,2.323,0.624,3.483,0.939c0.949,0.258,1.894,0.528,2.841,0.786
		c0.983,0.267,1.972,0.518,2.954,0.788c0.964,0.265,1.927,0.549,2.893,0.815c0.797,0.221,1.599,0.426,2.396,0.641
		c1.116,0.299,2.232,0.598,3.347,0.9c0.976,0.265,1.948,0.533,2.924,0.799c1.16,0.317,2.32,0.638,3.48,0.95
		c1.396,0.376,2.79,0.748,4.185,1.121c0.139,0.04,0.284,0.067,0.413,0.129c0.067,0.028,0.105,0.121,0.156,0.186
		c-0.023,0.024-0.044,0.048-0.066,0.072c-0.475-0.121-0.947-0.234-1.419-0.363c-1.703-0.462-3.403-0.931-5.106-1.392
		c-2.14-0.578-4.284-1.146-6.425-1.726c-1.59-0.431-3.177-0.881-4.768-1.312c-1.871-0.507-3.748-0.995-5.618-1.504
		c-1.246-0.34-2.48-0.717-3.728-1.054c-1.731-0.467-3.47-0.907-5.201-1.372c-1.127-0.302-2.246-0.634-3.37-0.945
		c-1.069-0.296-2.142-0.581-3.212-0.873c-1.723-0.468-3.444-0.939-5.165-1.408c-1.127-0.307-2.25-0.62-3.38-0.913
		c-0.165-0.043-0.369-0.037-0.528,0.021c-0.994,0.362-1.981,0.745-2.997,1.13c0.142,0.373,0.275,0.72,0.406,1.066
		c0.026,0.072,0.054,0.146,0.066,0.221c0.084,0.504,0.109,0.536,0.707,0.636c0.619,0.103,1.148,0.349,1.666,0.684
		c0.315,0.204,0.677,0.381,1.041,0.459c1.133,0.243,2.26,0.484,3.319,0.974c0.582,0.269,1.172,0.52,1.763,0.776
		c0.052,0.022,0.112,0.021,0.17,0.03c0.716,0.105,1.095,0.508,1.152,1.216c0.014,0.17,0.05,0.338,0.071,0.479
		c0.401,0.146,0.804,0.292,1.205,0.439c0.017,0.006,0.041,0.014,0.05,0.028c0.25,0.526,0.774,0.384,1.189,0.453
		c1.007,0.168,1.945,0.513,2.851,0.979c0.654,0.335,1.172,0.799,1.424,1.49c0.216,0.589,0.489,1.181,0.301,1.848
		c-0.122,0.444-0.313,0.826-0.701,1.09c-0.121,0.085-0.229,0.187-0.413,0.336c0.366,0.12,0.644,0.203,0.92,0.299
		c0.938,0.319,1.874,0.638,2.811,0.961c1.142,0.397,2.282,0.804,3.427,1.202c0.652,0.229,1.308,0.458,1.962,0.681
		c0.429,0.146,0.863,0.269,1.288,0.428c0.104,0.04,0.243,0.175,0.243,0.266c-0.001,0.116-0.102,0.273-0.204,0.339
		c-0.855,0.537-1.733,1.04-2.582,1.59c-1.245,0.805-2.46,1.654-3.707,2.457c-1.116,0.718-2.252,1.4-3.39,2.085
		c-0.785,0.472-1.597,0.898-2.377,1.38c-0.508,0.313-0.962,0.71-1.47,1.023c-1.654,1.024-3.321,2.033-4.985,3.041
		c-0.527,0.318-1.056,0.643-1.601,0.931c-0.875,0.461-1.775,0.873-2.641,1.348c-0.778,0.427-1.517,0.923-2.283,1.37
		c-0.44,0.258-0.896,0.487-1.353,0.713c-0.09,0.042-0.226,0.032-0.329,0.006c-0.457-0.121-0.904-0.269-1.361-0.387
		c-0.327-0.087-0.668-0.117-0.99-0.214c-0.565-0.171-1.122-0.375-1.681-0.568c-0.773-0.268-1.547-0.532-2.317-0.812
		c-0.417-0.15-0.827-0.322-1.239-0.485c-1.041-0.41-2.073-0.84-3.123-1.225c-1.16-0.425-2.333-0.811-3.503-1.209
		c-1.05-0.358-2.105-0.699-3.153-1.07c-0.798-0.282-1.577-0.632-2.381-0.9c-1.658-0.555-3.331-1.055-4.987-1.613
		c-0.942-0.316-1.856-0.714-2.784-1.068c-1.408-0.534-2.813-1.072-4.225-1.591c-1.033-0.38-2.082-0.715-3.111-1.103
		c-0.985-0.369-1.951-0.783-2.928-1.172c-1.612-0.639-3.227-1.276-4.84-1.914c-0.098-0.04-0.196-0.085-0.283-0.145
		c-0.262-0.178-0.257-0.572,0.024-0.715c0.283-0.139,0.582-0.254,0.881-0.354c1.154-0.377,2.318-0.727,3.469-1.119
		c1.637-0.554,3.263-1.136,4.895-1.705c2.38-0.828,4.757-1.655,7.141-2.472c0.462-0.157,0.946-0.27,1.428-0.365
		c0.496-0.099,0.662-0.496,0.839-0.874c0.041-0.084-0.092-0.251-0.153-0.378c-0.17-0.355-0.405-0.508-0.847-0.541
		c-0.708-0.055-1.301,0.23-1.921,0.434c-2.53,0.839-5.05,1.707-7.572,2.567c-2.166,0.738-4.329,1.481-6.492,2.224
		c-1.724,0.59-3.446,1.185-5.171,1.777c-0.045,0.017-0.091,0.03-0.138,0.044c-0.319,0.098-0.348,0.076-0.363-0.249
		c-0.044-1.14-0.09-2.279-0.135-3.418c-0.087-2.229-0.17-4.458-0.253-6.687c-0.128-3.436-0.257-6.871-0.383-10.307
		c-0.088-2.412-0.171-4.824-0.262-7.237c-0.144-3.87-0.295-7.739-0.439-11.608c-0.105-2.818-0.203-5.637-0.313-8.454
		c-0.149-3.851-0.305-7.701-0.456-11.551c-0.057-1.428-0.105-2.856-0.157-4.284c-0.003-0.077-0.013-0.153-0.021-0.23
		C23.115,18.003,23.211,18.003,23.308,18.003z M64.631,55.117c0.008-0.03,0.017-0.059,0.024-0.088
		c-0.094-0.039-0.188-0.08-0.285-0.115c-0.08-0.028-0.195-0.022-0.238-0.076c-0.225-0.281-0.538-0.389-0.862-0.497
		c-0.987-0.326-1.956-0.714-2.958-0.981c-1.303-0.347-2.627-0.612-3.95-0.881c-0.211-0.042-0.469,0.05-0.682,0.138
		c-0.27,0.111-0.501,0.321-0.772,0.418c-1.073,0.382-2.027,0.935-2.762,1.821c-0.266,0.319-0.514,0.649-0.774,0.973
		c-0.537,0.666-0.96,1.4-1.124,2.242c-0.202,1.048-0.36,2.105-0.509,3.162c-0.063,0.444-0.024,0.904-0.096,1.347
		c-0.091,0.571-0.25,1.13-0.375,1.695c-0.444,2.057-0.947,4.098-1.813,6.027c-0.373,0.833-0.827,1.616-1.652,2.103
		c-0.223,0.131-0.234,0.347-0.171,0.563c0.135,0.443,0.456,0.754,0.809,1.024c0.149,0.114,0.335,0.195,0.517,0.249
		c0.299,0.088,0.381,0.008,0.365-0.296c-0.004-0.077-0.02-0.167,0.013-0.227c0.05-0.092,0.136-0.163,0.206-0.243
		c0.06,0.076,0.166,0.147,0.173,0.228c0.051,0.432,0.316,0.708,0.633,0.959c0.443,0.351,1.156,0.409,1.617,0.107
		c-0.089-0.145-0.2-0.283-0.255-0.442c-0.033-0.087,0.024-0.208,0.04-0.313c0.098,0.035,0.218,0.047,0.291,0.111
		c0.159,0.137,0.27,0.354,0.448,0.442c0.645,0.318,1.306,0.604,1.968,0.89c0.299,0.129,0.645,0.178,0.91,0.354
		c0.448,0.299,0.923,0.282,1.416,0.263c0.715-0.027,1.429-0.042,2.142-0.05c0.267-0.004,0.535,0.048,0.799,0.03
		c0.442-0.03,0.88-0.141,1.322-0.136c0.571,0.007,1.15,0.014,1.682,0.313c0.337,0.188,0.706,0.321,1.071,0.455
		c0.218,0.079,0.448,0.139,0.676,0.153c0.418,0.028,0.844,0.024,1.057-0.452c0.019-0.04,0.061-0.079,0.102-0.102
		c0.547-0.29,1.043-0.701,1.739-0.594c0.195,0.03,0.442-0.05,0.614-0.16c0.168-0.109,0.279-0.315,0.403-0.488
		c0.214-0.302,0.188-0.545,0.009-0.874c-0.145-0.267-0.317-0.568-0.317-0.854c-0.002-0.688,0.096-1.378,0.136-2.067
		c0.01-0.179,0.008-0.392-0.08-0.537c-0.525-0.875-1.074-1.738-1.623-2.601c-0.151-0.235-0.317-0.459-0.494-0.711
		c-0.223,0.291-0.193,0.667-0.554,0.811c-0.018-0.221-0.024-0.442,0.036-0.643c0.155-0.524,0.092-0.961-0.201-1.463
		c-0.537-0.918-0.96-1.902-1.394-2.875c-0.228-0.508-0.283-1.064-0.17-1.618c0.023-0.115,0.137-0.211,0.212-0.315
		c0.054,0.097,0.118,0.19,0.163,0.292c0.027,0.06,0.024,0.132,0.035,0.199c0.157,1.056,0.476,2.077,0.967,3.01
		c0.642,1.216,1.403,2.37,2.12,3.546c0.347,0.567,0.703,1.128,1.063,1.687c0.395,0.606,0.781,1.217,1.201,1.803
		c0.25,0.347,0.503,0.742,0.852,0.957c1.073,0.66,2.187,1.244,3.409,1.621c1.274,0.395,2.543,0.702,3.891,0.599
		c0.233-0.018,0.547,0.045,0.701,0.198c0.558,0.543,1.283,0.73,1.96,1.02c0.511,0.218,1,0.084,1.477-0.143
		c-0.26-0.091-0.502-0.165-0.734-0.266c-0.08-0.037-0.132-0.138-0.197-0.21c0.092-0.032,0.182-0.089,0.273-0.091
		c0.468-0.018,0.901-0.094,1.213-0.498c0.053-0.068,0.182-0.154,0.237-0.134c0.412,0.154,0.512-0.174,0.525-0.41
		c0.04-0.674,0.443-1.155,0.782-1.677c0.132-0.203,0.366-0.435,0.341-0.625c-0.065-0.473-0.305-0.899-0.779-1.109
		c-0.463-0.205-0.938-0.385-1.411-0.566c-0.44-0.169-0.893-0.308-1.328-0.49c-0.915-0.382-1.886-0.543-2.838-0.784
		c-0.432-0.109-0.857-0.293-1.243-0.516c-0.388-0.225-0.76-0.439-1.209-0.523c-0.155-0.029-0.305-0.177-0.418-0.305
		c-0.169-0.193-0.274-0.455-0.466-0.621c-0.539-0.471-0.665-1.122-0.751-1.758c-0.076-0.55-0.274-0.966-0.719-1.289
		c-0.14-0.101-0.274-0.252-0.334-0.409c-0.091-0.247-0.117-0.519-0.173-0.781c-0.075-0.347-0.125-0.704-0.239-1.039
		c-0.157-0.464-0.373-0.908-0.546-1.367c-0.346-0.91-0.63-1.846-1.028-2.731c-0.438-0.975-1.137-1.716-2.247-1.944
		c-0.171-0.034-0.351-0.001-0.517-0.04c-0.75-0.177-1.361,0.2-1.967,0.474c-0.027,0.147-0.065,0.292-0.159,0.362
		c-0.927,0.683-1.479,1.605-1.784,2.695c-0.018,0.067-0.064,0.126-0.121,0.234c-0.208-0.333-0.116-0.625-0.025-0.896
		c0.285-0.843,0.798-1.533,1.487-2.095c0.069-0.055,0.112-0.143,0.162-0.22c0.057-0.089,0.088-0.211,0.165-0.27
		c0.16-0.121,0.341-0.218,0.522-0.309c0.358-0.18,0.362-0.229,0.041-0.461c-0.058-0.042-0.08-0.138-0.12-0.209
		c0.073-0.035,0.14-0.084,0.216-0.099C64.469,55.095,64.552,55.113,64.631,55.117z M83.077,80.594
		c-0.012-0.009-0.025-0.018-0.033-0.024c0.072-0.095,0.181-0.181,0.217-0.286c0.116-0.347,0.235-0.696,0.295-1.056
		c0.038-0.217-0.008-0.457-0.062-0.675c-0.165-0.689-0.576-1.245-1.021-1.777c-0.046-0.056-0.121-0.089-0.186-0.123
		c-0.411-0.217-0.849-0.271-1.305-0.321c-0.352-0.04-0.596,0.057-0.835,0.255c-0.306,0.253-0.666,0.286-1.036,0.279
		c-0.134-0.002-0.263-0.076-0.396-0.083c-0.843-0.032-1.576-0.378-2.304-0.766c-0.264-0.14-0.571-0.231-0.868-0.266
		c-0.706-0.087-1.418-0.13-2.131-0.187c-0.466-0.038-0.941-0.131-1.399-0.087c-1.17,0.112-2.335,0.28-3.499,0.448
		c-0.183,0.026-0.361,0.153-0.51,0.271c-0.276,0.217-0.433,0.185-0.685-0.075c-0.167-0.169-0.403-0.272-0.62-0.382
		c-0.053-0.025-0.213,0.025-0.218,0.06c-0.045,0.234-0.218,0.212-0.379,0.214c-0.78,0.012-1.492,0.273-2.177,0.614
		c-0.653,0.323-1.296,0.667-1.945,0.993c-0.187,0.095-0.379,0.202-0.584,0.243c-0.798,0.162-1.607,0.188-2.419,0.104
		c-0.737-0.074-1.472-0.203-2.211-0.24c-1.04-0.051-2.054-0.164-3.016-0.593c-0.188-0.086-0.408-0.112-0.617-0.13
		c-0.459-0.041-0.932-0.004-1.38-0.095c-0.906-0.185-1.8-0.427-2.698-0.656c-0.207-0.054-0.315-0.01-0.412,0.186
		c-0.153,0.31-0.363,0.589-0.514,0.901c-0.515,1.068-1.058,2.124-1.006,3.368c0.032,0.751-0.012,1.509,0.255,2.227
		c0.137,0.369,0.309,0.729,0.47,1.089c0.239,0.536,0.589,0.97,1.122,1.244c0.153,0.079,0.299,0.176,0.447,0.267
		c0.538,0.323,1.1,0.55,1.74,0.566c0.354,0.009,0.706,0.088,1.06,0.127c0.105,0.012,0.211,0.002,0.354,0.002
		c-0.241-0.276-0.484-0.491-0.645-0.754c-0.149-0.245-0.466-0.445-0.266-0.873c0.096,0.054,0.119,0.17,0.188,0.24
		c0.415,0.401,0.794,0.866,1.271,1.17c1.23,0.782,2.579,1.29,4.012,1.59c1.833,0.381,3.65,0.266,5.458-0.122
		c1.045-0.224,2.08-0.501,3.122-0.75c0.108-0.025,0.226-0.033,0.339-0.025c0.181,0.012,0.364,0.078,0.54,0.063
		c0.931-0.089,1.86-0.248,2.791-0.283c1.748-0.066,3.481-0.186,5.215-0.453c2.022-0.312,3.943-0.904,5.783-1.774
		c0.475-0.223,0.983-0.496,1.305-0.889c0.479-0.588,0.828-1.29,1.19-1.966C83.001,81.163,83.013,80.864,83.077,80.594z
		 M64.063,44.396c-0.025-0.039-0.047-0.079-0.072-0.119c0.1-0.119,0.18-0.266,0.302-0.355c0.977-0.711,1.405-1.734,1.647-2.863
		c0.02-0.09-0.021-0.199-0.053-0.292c-0.036-0.096-0.158-0.239-0.135-0.267c0.077-0.09,0.201-0.162,0.317-0.199
		c0.366-0.118,0.741-0.204,1.105-0.326c0.663-0.223,1.125-0.726,1.631-1.173c0.269-0.237,0.503-0.492,0.59-0.836
		c0.079-0.315,0.142-0.647,0.136-0.969c-0.008-0.339-0.066-0.697-0.47-0.895c-0.057,0.124-0.105,0.233-0.153,0.344
		c-0.03,0.067-0.045,0.179-0.09,0.193c-0.411,0.128-0.84,0.376-1.234,0.33c-1.301-0.153-2.551-0.57-3.802-0.956
		c-0.782-0.243-1.587-0.387-2.393-0.347c-1.266,0.062-2.524,0.169-3.723,0.72c-1.05,0.484-2.055,1-2.926,1.77
		c-0.306,0.271-0.719,0.43-0.998,0.721c-0.475,0.498-0.97,1.012-1.302,1.606c-0.669,1.198-0.644,2.483-0.25,3.783
		c0.18,0.596,0.343,1.209,0.408,1.826c0.086,0.813,0.459,1.436,1.048,1.958c0.055,0.049,0.153,0.047,0.23,0.078
		c0.113,0.046,0.256,0.073,0.33,0.157c0.442,0.515,0.857,1.054,1.307,1.563c0.138,0.157,0.343,0.313,0.54,0.352
		c0.82,0.164,1.649,0.284,2.476,0.416c0.283,0.045,0.572,0.118,0.856,0.104c0.347-0.016,0.698-0.092,1.04-0.173
		c0.212-0.05,0.413-0.151,0.614-0.24c0.179-0.079,0.216-0.19,0.092-0.365c-0.13-0.188-0.246-0.391-0.344-0.599
		c-0.355-0.759-0.331-1.598-0.488-2.399c-0.009-0.054,0.008-0.115,0.018-0.171c0.117-0.609,0.389-1.156,0.762-1.639
		c0.24-0.311,0.568-0.555,0.997-0.578c0.24-0.013,0.481-0.017,0.72-0.035c0.544-0.041,1.008,0.105,1.354,0.55
		c0.162,0.207,0.333,0.404,0.501,0.606c0.033-0.005,0.068-0.01,0.103-0.016c0.032-0.396,0.079-0.792,0.091-1.19
		c0.008-0.229-0.116-0.305-0.344-0.202C64.369,44.334,64.212,44.356,64.063,44.396z M51.815,86.763
		c-0.008,0.048-0.02,0.096-0.03,0.143c0.353,0.12,0.702,0.261,1.062,0.36c1.089,0.296,2.19,0.555,3.272,0.872
		c1.222,0.357,2.429,0.768,3.645,1.146c2.478,0.772,4.96,1.533,7.436,2.307c0.983,0.308,1.959,0.644,2.942,0.948
		c0.139,0.044,0.327,0.021,0.464-0.034c0.285-0.115,0.555-0.272,0.829-0.416c2.215-1.154,4.429-2.31,6.646-3.466
		c0.783-0.41,1.574-0.812,2.347-1.248c0.704-0.399,1.364-0.882,2.083-1.248c1.726-0.882,3.478-1.717,5.217-2.573
		c0.261-0.128,0.515-0.271,0.772-0.408c-0.008-0.025-0.01-0.056-0.015-0.082c-0.112-0.041-0.225-0.086-0.34-0.121
		c-0.572-0.172-1.152-0.317-1.712-0.521c-0.815-0.298-1.617-0.63-2.419-0.96c-0.192-0.077-0.305-0.086-0.396,0.148
		c-0.138,0.345-0.289,0.696-0.493,1.003c-0.382,0.572-0.892,1.023-1.438,1.444c-0.608,0.473-1.258,0.847-1.976,1.108
		c-0.632,0.234-1.254,0.489-1.885,0.721c-0.362,0.135-0.725,0.273-1.1,0.353c-0.726,0.154-1.458,0.294-2.191,0.396
		c-1.138,0.152-2.275,0.298-3.417,0.395c-1.093,0.089-2.191,0.101-3.286,0.161c-0.834,0.045-1.669,0.104-2.505,0.179
		c-0.411,0.037-0.821,0.104-1.224,0.193c-0.593,0.132-1.172,0.33-1.768,0.438c-1.149,0.21-2.302,0.358-3.476,0.355
		c-0.996-0.002-1.96-0.183-2.912-0.419c-0.896-0.223-1.761-0.568-2.648-0.834C52.811,86.963,52.31,86.876,51.815,86.763z
		 M82.538,91.451c-0.138-0.048-0.182-0.065-0.227-0.076c-0.714-0.161-1.427-0.323-2.141-0.484c-1.138-0.254-2.272-0.515-3.412-0.759
		c-0.282-0.061-0.561-0.048-0.836,0.115c-0.18,0.105-0.184,0.184-0.098,0.336c0.117,0.208,0.253,0.411,0.33,0.636
		c0.225,0.65,0.425,1.311,0.628,1.968c0.083,0.265,0.19,0.503,0.514,0.547c-0.054,0.224-0.153,0.298-0.357,0.192
		c-0.074-0.038-0.165-0.054-0.251-0.059c-0.508-0.032-1.021-0.046-1.527-0.088c-1.479-0.123-2.959-0.255-4.435-0.392
		c-0.075-0.01-0.142-0.098-0.213-0.146c0.068-0.043,0.135-0.121,0.201-0.121c0.229,0.002,0.459,0.028,0.689,0.051
		c1.342,0.123,2.684,0.251,4.024,0.373c0.371,0.034,0.742,0.05,1.145,0.074c-0.022-0.115-0.024-0.183-0.045-0.242
		c-0.187-0.565-0.361-1.138-0.563-1.696c-0.114-0.313-0.264-0.619-0.411-0.921c-0.073-0.146-0.191-0.21-0.36-0.128
		c-0.548,0.261-1.105,0.503-1.644,0.78c-0.575,0.296-1.118,0.661-1.704,0.924c-0.632,0.281-1.304,0.476-1.956,0.712
		c-0.294,0.105-0.418,0.057-0.586-0.243c-0.026-0.05-0.105-0.081-0.166-0.104c-0.855-0.297-1.708-0.603-2.568-0.879
		c-1.046-0.338-2.1-0.653-3.153-0.976c-0.082-0.024-0.179,0.007-0.268,0.011c0.013,0.08,0.009,0.168,0.041,0.244
		c0.347,0.829,0.605,1.683,0.703,2.582c0.043,0.401,0.163,0.484,0.533,0.337c1.258-0.503,2.599-0.653,3.902-0.965
		c0.187-0.042,0.376-0.087,0.567-0.11c0.057-0.009,0.121,0.054,0.18,0.083c-0.039,0.056-0.067,0.123-0.119,0.157
		c-0.053,0.033-0.147,0.01-0.191,0.05c-0.053,0.047-0.074,0.135-0.108,0.201c0.024,0.022,0.047,0.042,0.073,0.063
		c-0.064,0.011-0.153,0.055-0.188,0.026c-0.245-0.178-0.48-0.049-0.717,0.005c-0.152,0.036-0.3,0.074-0.451,0.107
		c-0.997,0.22-1.995,0.438-2.993,0.659c-0.055,0.011-0.105,0.051-0.208,0.104c0.317,0.116,0.576,0.217,0.837,0.307
		c1.177,0.405,2.359,0.792,3.527,1.218c0.915,0.333,1.813,0.718,2.72,1.071c0.112,0.042,0.243,0.044,0.424,0.074
		c-0.063-0.137-0.09-0.196-0.12-0.252c-0.524-1.062-1.053-2.121-1.568-3.187c-0.04-0.083,0.016-0.212,0.029-0.32
		c0.096,0.059,0.233,0.097,0.281,0.185c0.13,0.232,0.218,0.491,0.332,0.735c0.438,0.965,0.873,1.932,1.323,2.893
		c0.142,0.301,0.264,0.327,0.551,0.161c0.396-0.227,0.782-0.462,1.173-0.69c0.806-0.469,1.613-0.935,2.418-1.405
		c0.633-0.368,1.262-0.743,1.895-1.111c1.362-0.788,2.721-1.573,4.081-2.362C82.207,91.643,82.337,91.568,82.538,91.451z
		 M69.332,42.414c-0.218,0.249-0.396,0.457-0.584,0.658c-0.096,0.104-0.191,0.219-0.312,0.287c-0.108,0.063-0.266,0.033-0.228-0.137
		c0.053-0.239,0.111-0.5,0.25-0.692c0.184-0.253,0.446-0.446,0.669-0.672c0.063-0.064,0.156-0.176,0.137-0.229
		c-0.177-0.485-0.34-0.984-0.585-1.436c-0.154-0.286-0.37-0.268-0.671-0.116c-0.309,0.156-0.624,0.302-0.951,0.424
		c-0.301,0.113-0.63,0.182-0.46,0.629c0.004,0.008,0,0.019-0.001,0.028c-0.131,0.848-0.428,1.629-1.022,2.257
		c-0.267,0.283-0.3,0.538-0.18,0.884c0.188,0.531,0.218,1.093,0.057,1.624c-0.141,0.461-0.384,0.892-0.604,1.326
		c-0.041,0.085-0.171,0.168-0.268,0.178c-0.426,0.042-0.821-0.486-0.67-0.875c0.131-0.331,0.11-0.644-0.084-0.938
		c-0.047-0.073-0.141-0.115-0.213-0.171c0.105,0.741,0.251,0.822-0.22,1.267c-0.036,0.034-0.042,0.163-0.009,0.197
		c0.191,0.198,0.344,0.406,0.477,0.657c0.115,0.218,0.109,0.361,0.039,0.549c-0.064,0.171-0.133,0.342-0.202,0.511
		c-0.147,0.359-0.505,0.667-0.763,0.62c-0.303-0.057-0.583-0.162-0.802-0.419c-0.39-0.455-0.563-1.006-0.722-1.559
		c-0.103-0.359-0.128-0.742-0.189-1.113c-0.025-0.004-0.055-0.008-0.081-0.012c-0.039,0.295-0.128,0.593-0.107,0.884
		c0.067,1.094,0.224,2.167,1.07,3.063c-0.46,0.33-0.884,0.633-1.322,0.946c0.044,0.026,0.079,0.058,0.121,0.072
		c0.464,0.155,0.94,0.286,1.394,0.467c0.806,0.321,1.603,0.662,2.393,1.016c0.427,0.19,0.807,0.271,1.289,0.1
		c0.951-0.336,1.767-0.861,2.375-1.635c0.976-1.236,1.526-2.649,1.479-4.256c-0.002-0.085,0.034-0.211,0.096-0.246
		c0.054-0.032,0.198,0.006,0.248,0.062c0.198,0.226,0.268,0.076,0.335-0.097c0.076-0.188-0.039-0.256-0.19-0.317
		c-0.282-0.115-0.545-0.269-0.619-0.596c-0.073-0.33-0.269-0.511-0.583-0.611c-0.14-0.045-0.293-0.128-0.377-0.241
		c-0.06-0.082-0.019-0.242-0.021-0.366c0.092,0.007,0.186,0.013,0.28,0.021c0.043,0.004,0.089,0.014,0.163,0.026
		c0-0.193,0-0.365,0-0.58c-0.099,0.055-0.153,0.101-0.211,0.113c-0.095,0.02-0.194,0.016-0.293,0.022
		c0.021-0.089,0.022-0.187,0.059-0.266c0.106-0.215,0.221-0.427,0.348-0.63c0.052-0.083,0.134-0.168,0.22-0.205
		C69.508,42.793,69.469,42.662,69.332,42.414z M30.342,83.08c0.001,0.032,0.002,0.064,0.004,0.097
		c0.085,0.037,0.168,0.079,0.251,0.115c0.934,0.39,1.865,0.782,2.803,1.169c0.916,0.379,1.839,0.752,2.759,1.132
		c0.955,0.392,1.898,0.81,2.865,1.172c2.014,0.756,4.041,1.483,6.062,2.218c1.524,0.556,3.045,1.119,4.577,1.648
		c1.131,0.392,2.282,0.724,3.417,1.105c1.921,0.647,3.838,1.305,5.75,1.974c1.815,0.635,3.621,1.282,5.427,1.932
		c0.861,0.312,1.686,0.723,2.604,0.864c0.152,0.023,0.296,0.089,0.442,0.139c1.67,0.566,3.342,1.139,5.019,1.692
		c0.175,0.057,0.427,0.064,0.582-0.021c0.835-0.461,1.653-0.95,2.47-1.447c1.031-0.625,2.04-1.287,3.079-1.901
		c1.079-0.637,2.193-1.216,3.275-1.848c1.256-0.731,2.492-1.498,3.74-2.243c0.704-0.42,1.425-0.813,2.121-1.243
		c1.15-0.712,2.283-1.447,3.428-2.165c1.084-0.681,2.176-1.354,3.265-2.028c1.115-0.69,2.234-1.376,3.341-2.073
		c0.23-0.145,0.427-0.338,0.653-0.524c-0.324-0.171-0.54-0.087-0.771,0.074c-0.45,0.313-0.909,0.615-1.385,0.889
		c-0.892,0.513-1.808,0.982-2.692,1.508c-0.669,0.396-1.298,0.865-1.958,1.28c-1.043,0.658-2.104,1.288-3.146,1.948
		c-0.829,0.523-1.639,1.077-2.46,1.617c-0.728,0.478-1.449,0.969-2.192,1.426c-0.441,0.271-0.923,0.476-1.378,0.723
		c-1.246,0.671-2.499,1.332-3.728,2.037c-1.479,0.85-2.943,1.735-4.405,2.614c-0.505,0.304-0.98,0.653-1.489,0.95
		c-0.146,0.086-0.458,0.153-0.514,0.082c-0.287-0.355-0.699-0.438-1.082-0.576c-0.868-0.313-1.745-0.605-2.619-0.903
		c-1.569-0.538-3.138-1.07-4.708-1.604c-1.306-0.444-2.618-0.876-3.917-1.34c-0.862-0.307-1.697-0.694-2.563-0.992
		c-1.524-0.522-3.07-0.979-4.59-1.507c-1.386-0.482-2.745-1.037-4.123-1.538c-1.545-0.561-3.098-1.102-4.648-1.646
		c-0.847-0.298-1.697-0.579-2.541-0.882c-1.553-0.558-3.105-1.121-4.652-1.693c-0.933-0.346-1.86-0.701-2.783-1.068
		c-0.57-0.229-1.13-0.483-1.692-0.731c-0.219-0.098-0.202-0.266-0.038-0.378c0.268-0.186,0.547-0.377,0.849-0.48
		c1.521-0.532,3.053-1.03,4.578-1.553c2.41-0.824,4.818-1.654,7.227-2.487c0.712-0.247,1.417-0.509,2.125-0.765
		c0.249-0.09,0.319-0.332,0.282-0.514c-0.048-0.231-0.273-0.084-0.417-0.051c-0.196,0.043-0.389,0.11-0.579,0.182
		c-0.561,0.208-1.114,0.438-1.68,0.633c-1.981,0.683-3.968,1.344-5.945,2.035c-0.734,0.258-1.439,0.611-2.176,0.862
		c-1.708,0.58-3.429,1.119-5.142,1.687C30.988,82.791,30.668,82.945,30.342,83.08z M56.564,91.519
		c-0.018,0.009-0.035,0.017-0.054,0.025c-0.034-0.044-0.075-0.086-0.1-0.134c-0.257-0.56-0.513-1.122-0.766-1.683
		c-0.136-0.299-0.269-0.597-0.396-0.898c-0.073-0.177-0.187-0.254-0.38-0.229c-0.449,0.058-0.898,0.122-1.35,0.161
		c-1.289,0.11-2.579,0.21-3.869,0.316c-0.105,0.007-0.21,0.037-0.395,0.071c0.15,0.076,0.214,0.115,0.283,0.143
		c0.825,0.328,1.643,0.677,2.479,0.976c1.826,0.65,3.661,1.279,5.495,1.91c1.925,0.662,3.853,1.319,5.782,1.975
		c0.383,0.129,0.413,0.089,0.332-0.314c-0.02-0.092-0.032-0.188-0.048-0.283c-0.146-0.831-0.315-1.647-0.77-2.379
		c-0.125-0.202-0.257-0.271-0.471-0.231c-1.487,0.282-2.976,0.566-4.463,0.848c-0.197,0.039-0.395,0.064-0.595,0.097
		c-0.008-0.042-0.016-0.088-0.024-0.132c1.604-0.667,3.331-0.842,5.023-1.202c-0.103-0.083-0.203-0.132-0.31-0.168
		c-1.596-0.524-3.191-1.051-4.788-1.567c-0.477-0.152-0.961-0.282-1.446-0.416c-0.152-0.041-0.325-0.057-0.235,0.194
		c0.2,0.563,0.41,1.123,0.614,1.685C56.266,90.693,56.414,91.106,56.564,91.519z M88.429,87.162c-0.208,0.21-0.396,0.215-0.602,0.15
		c-0.061-0.02-0.12-0.059-0.185-0.061c-0.515-0.017-1.03-0.004-1.542-0.042c-0.808-0.058-1.612-0.165-2.42-0.226
		c-0.471-0.036-0.943-0.04-1.418-0.024c-0.424,0.012-0.517,0.218-0.337,0.597c0.154,0.325,0.282,0.663,0.402,1.001
		c0.103,0.279,0.152,0.576,0.267,0.847c0.203,0.474,0.449,0.928,0.666,1.398c0.097,0.207,0.221,0.162,0.369,0.075
		c0.509-0.294,1.032-0.566,1.528-0.879c0.756-0.479,1.496-0.983,2.24-1.482c0.504-0.337,1.001-0.686,1.504-1.028
		c0.176-0.119,0.241-0.253,0.127-0.463c-0.43-0.794-0.662-1.651-0.814-2.536c-0.04-0.249-0.126-0.49-0.202-0.786
		c-1.784,0.986-3.558,1.838-5.271,2.801c0.011,0.022,0.023,0.044,0.034,0.064C84.641,86.764,86.504,86.96,88.429,87.162z
		 M96.244,83.072c-0.011-0.039-0.022-0.078-0.032-0.117c-2.621-0.719-5.073-1.947-7.735-2.627c0.049,0.47,0.089,0.879,0.137,1.287
		c0.035,0.315,0.058,0.634,0.128,0.943c0.079,0.353,0.178,0.383,0.511,0.265c0.217-0.073,0.438-0.131,0.655-0.196
		c0.011,0.029,0.021,0.058,0.032,0.088c-0.197,0.112-0.395,0.222-0.591,0.332c0.013,0.035,0.025,0.067,0.041,0.102
		c2.036-0.252,4.066-0.048,6.148-0.016c-0.134,0.187-0.229,0.305-0.425,0.196c-0.03-0.017-0.075-0.014-0.109-0.009
		c-0.232,0.046-0.463,0.129-0.694,0.132c-0.55,0.008-1.1-0.04-1.649-0.04c-1.1,0.003-2.2,0.022-3.299,0.039
		c-0.217,0.005-0.442,0.069-0.653,0.032c-0.26-0.041-0.283,0.049-0.25,0.261c0.058,0.369,0.099,0.741,0.154,1.112
		c0.016,0.113,0.039,0.229,0.074,0.335c0.152,0.454,0.303,0.906,0.464,1.357c0.073,0.202,0.162,0.396,0.273,0.66
		c0.787-0.494,1.507-0.942,2.219-1.397c0.249-0.161,0.471-0.375,0.73-0.517c0.968-0.541,1.95-1.057,2.919-1.595
		C95.62,83.516,95.926,83.282,96.244,83.072z M88.521,77.962c0.024,0.01,0.048,0.021,0.073,0.029
		c0.072-0.191,0.153-0.381,0.218-0.575c0.298-0.879,0.196-1.666-0.502-2.347c-0.412-0.402-0.915-0.63-1.416-0.875
		c-0.797-0.39-1.647-0.595-2.522-0.689c-0.122-0.013-0.32,0.052-0.364,0.14c-0.249,0.496-0.452,1.016-0.693,1.516
		c-0.182,0.379-0.341,0.706-0.143,1.173c0.154,0.365,0.299,0.701,0.649,0.863c0.358,0.169,0.755,0.253,1.137,0.375
		c0.224,0.072,0.546,0.074,0.65,0.228c0.23,0.332,0.408,0.726,0.344,1.165c-0.026,0.187-0.072,0.371-0.119,0.606
		c0.283-0.119,0.533-0.235,0.626-0.504c0.104-0.301,0.158-0.623,0.22-0.939c0.04-0.197,0.023-0.411,0.089-0.597
		c0.038-0.102,0.192-0.16,0.295-0.238c0.057,0.105,0.169,0.215,0.167,0.318c-0.009,0.477-0.052,0.949-0.083,1.443
		c0.255-0.179,0.592-0.331,0.686-0.678c0.095-0.348,0.115-0.719,0.13-1.081c0.008-0.186-0.091-0.379-0.089-0.565
		c0.003-0.12,0.105-0.236,0.163-0.355c0.096,0.056,0.228,0.088,0.278,0.168c0.084,0.137,0.144,0.301,0.161,0.457
		C88.506,77.317,88.506,77.641,88.521,77.962z M65.572,55.002c-0.219-0.589-0.412-1.115-0.621-1.635
		c-0.03-0.075-0.13-0.137-0.211-0.176c-0.601-0.287-1.19-0.597-1.807-0.842c-0.751-0.298-1.516-0.568-2.29-0.796
		c-0.626-0.186-1.274-0.304-1.916-0.428c-0.605-0.117-1.215-0.203-1.822-0.303c-0.138-0.022-0.214,0.011-0.229,0.172
		c-0.025,0.256-0.058,0.514-0.121,0.762c-0.054,0.216,0.008,0.291,0.222,0.324c0.551,0.086,1.108,0.163,1.648,0.299
		c0.969,0.243,1.938,0.501,2.89,0.799c0.863,0.268,1.716,0.574,2.552,0.91c0.316,0.129,0.57,0.411,0.875,0.581
		C65.001,54.812,65.291,54.892,65.572,55.002z M33.515,83.221c0.006,0.021,0.009,0.044,0.017,0.066c0.065,0,0.129,0.001,0.194,0
		c1.427-0.007,2.854-0.027,4.282-0.021c0.907,0.003,1.815,0.046,2.719,0.066c0.154,0.005,0.322,0.013,0.35-0.207
		c0.089-0.709,0.197-1.412,0.268-2.121c0.057-0.542-0.096-0.636-0.619-0.44c-0.491,0.185-0.98,0.358-1.469,0.535
		c-1.652,0.595-3.302,1.187-4.952,1.786C34.038,82.983,33.778,83.107,33.515,83.221z M76.839,89.765
		c0.005,0.021,0.008,0.044,0.012,0.066c0.2,0.042,0.407,0.079,0.606,0.127c0.904,0.22,1.809,0.449,2.716,0.665
		c0.523,0.123,1.053,0.226,1.576,0.343c0.354,0.079,0.705,0.178,1.062,0.248c0.195,0.039,0.299-0.044,0.165-0.24
		c-0.656-0.983-0.954-2.118-1.355-3.206c-0.146-0.396-0.211-0.438-0.602-0.251c-0.407,0.199-0.809,0.405-1.209,0.617
		c-0.722,0.38-1.442,0.766-2.162,1.153C77.374,89.436,77.11,89.604,76.839,89.765z M54.974,88.361
		c0.009-0.039,0.018-0.078,0.025-0.117c-0.136-0.057-0.266-0.13-0.402-0.169c-0.568-0.156-1.142-0.286-1.704-0.459
		c-1.596-0.489-3.186-0.994-4.781-1.486c-0.191-0.058-0.401-0.055-0.604-0.083c0.04,0.221,0.052,0.452,0.125,0.662
		c0.194,0.565,0.426,1.118,0.621,1.683c0.186,0.54,0.308,0.621,0.893,0.561c1.844-0.185,3.686-0.358,5.53-0.54
		C54.778,88.405,54.876,88.38,54.974,88.361z M34.164,83.674c-0.003,0.031-0.008,0.062-0.013,0.091
		c0.147,0.066,0.293,0.138,0.444,0.194c1.497,0.561,2.992,1.134,4.501,1.672c0.651,0.232,1.327,0.394,1.992,0.582
		c0.154,0.044,0.306,0.051,0.278-0.187c-0.073-0.66-0.153-1.32-0.226-1.981c-0.027-0.261-0.164-0.363-0.422-0.363
		c-1.987-0.014-3.975-0.037-5.96-0.052C34.558,83.629,34.361,83.659,34.164,83.674z M42.034,83.394
		c0.247,0.127,0.426,0.242,0.621,0.316c0.738,0.281,1.478,0.562,2.222,0.828c1.073,0.386,2.146,0.76,3.221,1.133
		c0.115,0.042,0.243,0.042,0.395,0.064c-0.032-0.071-0.036-0.092-0.048-0.104c-0.024-0.026-0.056-0.052-0.086-0.073
		c-0.665-0.492-1.146-1.121-1.397-1.905c-0.184-0.575-0.33-1.165-0.466-1.752c-0.058-0.256-0.166-0.33-0.399-0.23
		c-0.089,0.039-0.178,0.071-0.267,0.115c-0.459,0.219-0.91,0.462-1.382,0.657C43.675,82.764,42.889,83.057,42.034,83.394z
		 M83.807,80.996c1.562,0.554,3.055,1.083,4.568,1.621c-0.063-0.659-0.116-1.26-0.185-1.859c-0.01-0.083-0.116-0.232-0.153-0.224
		c-0.312,0.061-0.58-0.129-0.854-0.143c-0.483-0.028-0.974,0.107-1.461,0.142c-0.327,0.024-0.654-0.011-0.98-0.019
		c-0.001-0.031-0.001-0.06-0.002-0.09c0.229-0.047,0.458-0.096,0.685-0.145c-0.294-0.133-0.386-0.324-0.299-0.613
		c0.05-0.171,0.185-0.395,0.121-0.5c-0.079-0.136-0.319-0.178-0.491-0.257c-0.071-0.032-0.143-0.059-0.216-0.089
		c-0.186-0.079-0.256-0.018-0.267,0.186c-0.025,0.381-0.077,0.761-0.105,1.143c-0.009,0.115,0.027,0.235,0.034,0.29
		C84.057,80.643,83.938,80.812,83.807,80.996z M42.638,86.677c0.007,0.028,0.009,0.056,0.014,0.087
		c0.059,0.03,0.114,0.068,0.175,0.089c1.625,0.588,3.25,1.172,4.877,1.754c0.097,0.037,0.21,0.024,0.368,0.04
		c-0.054-0.158-0.085-0.256-0.122-0.353c-0.247-0.659-0.521-1.313-0.726-1.982c-0.089-0.285-0.221-0.361-0.473-0.323
		c-1.231,0.181-2.459,0.366-3.689,0.556C42.917,86.566,42.78,86.632,42.638,86.677z M46.76,85.742
		c0.002-0.021,0.006-0.041,0.008-0.063c-0.04-0.023-0.08-0.052-0.121-0.066c-1.447-0.503-2.889-1.025-4.346-1.501
		c-0.688-0.224-0.707-0.185-0.652,0.547c0.038,0.517,0.092,1.033,0.146,1.551c0.025,0.214,0.148,0.263,0.351,0.198
		c1.12-0.354,2.28-0.482,3.444-0.579C45.98,85.796,46.372,85.772,46.76,85.742z M46.277,81.213c-0.148-0.04-0.219-0.069-0.292-0.078
		c-1.283-0.157-2.567-0.308-3.849-0.473c-0.292-0.038-0.407,0.086-0.443,0.35c-0.102,0.697-0.203,1.392-0.314,2.086
		c-0.024,0.159,0.031,0.241,0.184,0.27c0.125,0.024,0.224,0.04,0.298-0.127c0.055-0.124,0.196-0.239,0.326-0.297
		c0.864-0.382,1.737-0.75,2.606-1.121C45.26,81.628,45.73,81.438,46.277,81.213z M42.032,80.163c0.057,0.051,0.07,0.071,0.085,0.071
		c1.048,0.157,2.097,0.315,3.146,0.466c0.277,0.04,0.554,0.08,0.832,0.105c0.182,0.02,0.347-0.033,0.331-0.255
		c-0.039-0.605,0.179-1.155,0.345-1.718c0.027-0.101,0.001-0.219,0-0.327c-0.104,0.007-0.214-0.009-0.305,0.024
		c-1.411,0.5-2.817,1.006-4.224,1.511C42.176,80.068,42.118,80.114,42.032,80.163z M66.97,75.119
		c0.216,0.105,0.427,0.289,0.645,0.295c0.458,0.012,0.919-0.063,1.376-0.118c0.157-0.019,0.206-0.113,0.114-0.27
		c-0.081-0.141-0.122-0.303-0.201-0.447c-0.24-0.444-0.401-0.927-0.842-1.255c-0.363-0.269-0.654-0.632-0.984-0.944
		c-0.133-0.123-0.29-0.217-0.48-0.357c-0.163,0.714,0.038,1.247,0.379,1.761c0.106,0.16,0.178,0.38,0.171,0.569
		C67.137,74.604,67.037,74.854,66.97,75.119z M81.313,75.676c0.158,0.08,0.274,0.142,0.396,0.197
		c0.562,0.265,0.758,0.153,0.931-0.459c0.1-0.349,0.244-0.687,0.394-1.018c0.146-0.324,0.343-0.625,0.482-0.952
		c0.042-0.102,0.018-0.315-0.058-0.369c-0.228-0.165-0.491-0.276-0.686-0.378c-0.22,0.276-0.436,0.512-0.613,0.775
		c-0.163,0.241-0.312,0.5-0.417,0.77c-0.095,0.237-0.114,0.503-0.187,0.751C81.487,75.226,81.394,75.452,81.313,75.676z
		 M87.61,79.389c0.091,0.048,0.17,0.098,0.258,0.127c0.791,0.268,1.587,0.525,2.375,0.805c0.851,0.3,1.688,0.641,2.54,0.938
		c1.326,0.459,2.655,0.896,3.99,1.33c0.119,0.038,0.283-0.005,0.405-0.06c0.141-0.063,0.111-0.174-0.024-0.224
		c-0.38-0.138-0.753-0.304-1.146-0.389c-1.212-0.261-2.362-0.702-3.514-1.141c-0.422-0.161-0.825-0.371-1.249-0.521
		c-1.043-0.366-2.098-0.701-3.141-1.07C87.869,79.104,87.742,79.176,87.61,79.389z M62.59,46.968
		c0.012,0.016,0.024,0.032,0.037,0.049c0.048-0.156,0.08-0.32,0.148-0.464c0.074-0.154,0.201-0.282,0.278-0.434
		c0.035-0.068,0.041-0.205-0.002-0.243c-0.052-0.048-0.196-0.063-0.25-0.025c-0.136,0.099-0.233,0.248-0.363,0.355
		c-0.062,0.052-0.163,0.078-0.243,0.072c-0.028-0.001-0.089-0.151-0.063-0.199c0.064-0.133,0.15-0.265,0.256-0.367
		c0.124-0.122,0.279-0.213,0.422-0.318c-0.008-0.024-0.012-0.048-0.016-0.073c-0.064-0.008-0.131-0.032-0.193-0.021
		c-0.44,0.078-0.788,0.567-0.741,1.02c0.074,0.703,0.356,1.326,0.725,1.917c0.103,0.164,0.209,0.353,0.441,0.297
		c0.239-0.058,0.404-0.21,0.419-0.53c-0.255-0.049-0.508-0.089-0.755-0.15c-0.252-0.063-0.453-0.362-0.383-0.629
		C62.329,47.122,62.491,47.053,62.59,46.968z M58.336,77.021c0.007-0.36-0.039-0.394-0.349-0.286
		c-0.144,0.051-0.293,0.096-0.428,0.166c-0.195,0.102-0.365,0.085-0.538-0.042c-0.209-0.153-0.417-0.309-0.632-0.45
		c-0.065-0.041-0.217-0.074-0.223-0.062c-0.073,0.152-0.152,0.313-0.168,0.475c-0.007,0.052,0.166,0.158,0.267,0.176
		c0.578,0.1,1.162,0.164,1.736,0.271C58.271,77.319,58.367,77.251,58.336,77.021z M51.279,75.857
		c-0.046-0.048-0.113-0.154-0.21-0.211c-0.173-0.105-0.355-0.207-0.548-0.256c-0.184-0.047-0.389-0.049-0.578-0.022
		c-0.077,0.009-0.197,0.162-0.186,0.234c0.016,0.115,0.103,0.279,0.198,0.313c0.334,0.116,0.682,0.191,1.028,0.269
		C51.177,76.226,51.272,76.122,51.279,75.857z M61.174,77.27c0.002-0.039,0.004-0.076,0.007-0.115
		c-0.301-0.155-0.595-0.326-0.906-0.457c-0.166-0.069-0.427-0.15-0.528-0.074c-0.11,0.086-0.111,0.349-0.105,0.531
		c0.003,0.08,0.125,0.191,0.218,0.226c0.111,0.042,0.25,0.028,0.372,0.014C60.546,77.359,60.86,77.311,61.174,77.27z M69.568,74.269
		c0.087,0.303,0.147,0.549,0.235,0.785c0.02,0.05,0.142,0.093,0.214,0.086c0.314-0.028,0.628-0.072,0.94-0.12
		c0.053-0.007,0.099-0.063,0.202-0.129C70.605,74.675,70.109,74.481,69.568,74.269z M84.081,77.851
		c-0.036,0.111-0.043,0.121-0.042,0.128c0.023,0.187,0.121,0.259,0.31,0.309c0.316,0.083,0.616,0.234,0.944,0.364
		c0.021-0.247,0.002-0.415-0.271-0.434c-0.082-0.007-0.163-0.051-0.242-0.083C84.551,78.042,84.323,77.95,84.081,77.851z
		 M53.364,76.66c0.009-0.027,0.02-0.056,0.028-0.088c-0.233-0.146-0.463-0.3-0.702-0.435c-0.176-0.1-0.247,0.06-0.295,0.177
		c-0.02,0.048,0.04,0.185,0.079,0.192C52.768,76.57,53.069,76.611,53.364,76.66z M85.809,80.249c0.41,0.055,0.778-0.086,1.12-0.358
		c-0.162-0.212-0.341-0.187-0.524-0.064C86.201,79.961,86.007,80.107,85.809,80.249z M59.036,76.658
		c-0.208,0.213-0.172,0.424-0.097,0.637c0.032-0.003,0.064-0.003,0.097-0.004C59.036,77.08,59.036,76.868,59.036,76.658z"/>
	<path fill="#010101" d="M94.223,23.083c1.292,0.042,2.586,0.091,3.878,0.122c1.073,0.024,2.143,0.031,3.213,0.036
		c1.687,0.008,3.376,0.013,5.062,0.011c0.763,0,1.525-0.045,2.287-0.024c1.004,0.027,2.004,0.118,3.007,0.15
		c1.04,0.034,2.086,0.019,3.125,0.046c0.974,0.024,1.946,0.066,2.919,0.12c0.247,0.014,0.489,0.143,0.735,0.145
		c0.409,0.003,0.723,0.233,1.079,0.366c0.575,0.214,1.168,0.394,1.762,0.569c0.26,0.077,0.37,0.189,0.351,0.488
		c-0.108,1.655-0.19,3.311-0.286,4.966c-0.084,1.454-0.172,2.908-0.262,4.361c-0.081,1.309-0.162,2.618-0.25,3.927
		c-0.103,1.549-0.214,3.098-0.314,4.647c-0.046,0.702-0.072,1.406-0.118,2.108c-0.071,1.125-0.154,2.25-0.226,3.375
		c-0.042,0.693-0.07,1.387-0.106,2.081c-0.026,0.471-0.043,0.944-0.099,1.412c-0.016,0.125-0.134,0.294-0.247,0.341
		c-0.728,0.304-1.467,0.578-2.2,0.869c-0.133,0.052-0.221,0.072-0.305-0.087c-0.033-0.065-0.177-0.087-0.274-0.102
		c-0.398-0.061-0.799-0.112-1.198-0.165c-0.095-0.013-0.19-0.021-0.287-0.024c-0.847-0.03-1.696-0.048-2.543-0.091
		c-0.834-0.043-1.669-0.096-2.504-0.171c-1.486-0.135-2.976-0.27-4.458-0.442c-1.83-0.212-3.652-0.461-5.477-0.696
		c-1.482-0.19-2.964-0.386-4.448-0.572c-1.291-0.162-2.584-0.303-3.874-0.473c-1.49-0.197-2.979-0.417-4.468-0.627
		c-0.314-0.044-0.631-0.073-0.939-0.14c-0.101-0.021-0.197-0.126-0.267-0.215c-0.2-0.262-0.396-0.529-0.57-0.809
		c-0.071-0.115-0.104-0.271-0.104-0.408c0.002-0.558,0.022-1.117,0.04-1.676c0.056-1.918,0.112-3.837,0.166-5.755
		c0.045-1.562,0.084-3.125,0.137-4.686c0.03-0.935,0.084-1.869,0.119-2.804c0.036-0.896,0.053-1.794,0.091-2.69
		c0.057-1.301,0.122-2.603,0.186-3.903c0.037-0.741,0.046-1.485,0.121-2.221c0.028-0.291,0.137-0.631,0.331-0.831
		c0.21-0.218,0.547-0.364,0.853-0.43c1.083-0.233,2.187-0.196,3.288-0.169c1.023,0.025,2.047,0.005,3.069,0.005
		C94.222,23.036,94.222,23.059,94.223,23.083z M90.717,23.587c0-0.012,0-0.022,0-0.035c-0.348,0-0.696-0.01-1.041,0.003
		c-0.452,0.016-0.909,0.029-1.355,0.084c-0.464,0.056-0.82,0.274-0.908,0.788c-0.008,0.052-0.061,0.095-0.086,0.145
		c-0.048,0.108-0.127,0.217-0.13,0.328c-0.03,0.808-0.025,1.617-0.067,2.424c-0.045,0.863-0.201,1.714-0.159,2.59
		c0.042,0.854-0.042,1.715-0.073,2.574c-0.041,1.069-0.083,2.139-0.121,3.208c-0.063,1.629-0.125,3.258-0.187,4.887
		c-0.058,1.61-0.116,3.22-0.17,4.831c-0.034,0.944-0.066,1.889-0.089,2.834c-0.003,0.135,0.04,0.282,0.096,0.405
		c0.201,0.428,0.612,0.536,1.024,0.606c0.438,0.074,0.88,0.105,1.322,0.159c1.654,0.201,3.312,0.404,4.968,0.605
		c0.747,0.091,1.492,0.175,2.239,0.275c0.928,0.125,1.85,0.28,2.779,0.394c1.283,0.156,2.571,0.278,3.854,0.427
		c1.888,0.218,3.769,0.476,5.66,0.663c1.879,0.186,3.767,0.316,5.653,0.451c1.066,0.075,2.138,0.113,3.206,0.155
		c0.058,0.002,0.164-0.115,0.174-0.188c0.041-0.296,0.057-0.595,0.079-0.894c0.179-2.725,0.346-5.45,0.537-8.174
		c0.135-1.934,0.303-3.866,0.452-5.799c0.143-1.847,0.282-3.694,0.416-5.542c0.053-0.731,0.107-1.463,0.134-2.195
		c0.048-1.397,0.09-2.794,0.108-4.192c0.008-0.638-0.38-1.049-1.009-1.173c-0.216-0.042-0.458-0.059-0.636-0.17
		c-0.625-0.392-1.253-0.52-1.939-0.172c-0.089,0.044-0.206,0.035-0.313,0.033c-1.233-0.024-2.468-0.054-3.701-0.08
		c-0.743-0.016-1.485-0.032-2.228-0.042c-1.805-0.022-3.609-0.045-5.414-0.06c-1.215-0.009-2.43,0.011-3.645-0.013
		c-1.563-0.03-3.122-0.111-4.686-0.135C93.882,23.568,92.297,23.587,90.717,23.587z"/>
	<path fill="#FFFFFF" d="M64.631,55.117c-0.08-0.003-0.162-0.022-0.238-0.006c-0.074,0.015-0.143,0.064-0.214,0.099
		c0.039,0.071,0.06,0.167,0.119,0.209c0.321,0.231,0.316,0.281-0.041,0.461c-0.181,0.09-0.362,0.188-0.522,0.309
		c-0.079,0.059-0.106,0.181-0.165,0.27c-0.048,0.077-0.093,0.164-0.162,0.22c-0.69,0.562-1.201,1.251-1.486,2.095
		c-0.091,0.271-0.184,0.563,0.025,0.895c0.057-0.107,0.103-0.167,0.121-0.234c0.305-1.09,0.858-2.013,1.784-2.696
		c0.092-0.07,0.133-0.215,0.158-0.362c0.605-0.274,1.218-0.651,1.967-0.474c0.167,0.039,0.348,0.006,0.516,0.041
		c1.11,0.228,1.812,0.969,2.249,1.944c0.396,0.886,0.683,1.821,1.027,2.731c0.172,0.459,0.39,0.903,0.544,1.367
		c0.114,0.335,0.167,0.692,0.24,1.039c0.058,0.261,0.082,0.533,0.174,0.78c0.06,0.158,0.195,0.308,0.334,0.41
		c0.443,0.323,0.643,0.738,0.718,1.288c0.089,0.636,0.214,1.288,0.753,1.758c0.19,0.167,0.294,0.428,0.465,0.622
		c0.113,0.128,0.264,0.276,0.419,0.305c0.447,0.084,0.821,0.299,1.208,0.523c0.386,0.224,0.811,0.408,1.242,0.517
		c0.953,0.241,1.925,0.402,2.839,0.784c0.436,0.182,0.887,0.321,1.327,0.49c0.475,0.181,0.949,0.361,1.411,0.566
		c0.475,0.209,0.716,0.636,0.779,1.109c0.024,0.19-0.208,0.423-0.341,0.625c-0.339,0.522-0.74,1.002-0.782,1.677
		c-0.015,0.235-0.113,0.564-0.523,0.409c-0.057-0.021-0.186,0.064-0.239,0.135c-0.31,0.403-0.745,0.478-1.212,0.497
		c-0.093,0.005-0.184,0.059-0.273,0.09c0.065,0.073,0.116,0.175,0.198,0.21c0.229,0.101,0.472,0.174,0.731,0.267
		c-0.476,0.227-0.962,0.362-1.476,0.142c-0.677-0.288-1.402-0.476-1.959-1.02c-0.153-0.151-0.47-0.214-0.702-0.197
		c-1.348,0.105-2.617-0.205-3.891-0.599c-1.222-0.377-2.335-0.96-3.411-1.621c-0.347-0.214-0.602-0.61-0.85-0.957
		c-0.421-0.586-0.808-1.197-1.201-1.804c-0.361-0.558-0.716-1.119-1.064-1.686c-0.716-1.176-1.476-2.33-2.119-3.547
		c-0.492-0.933-0.81-1.953-0.967-3.01c-0.011-0.067-0.009-0.139-0.035-0.199c-0.045-0.102-0.108-0.195-0.164-0.292
		c-0.073,0.105-0.188,0.201-0.212,0.315c-0.112,0.554-0.056,1.109,0.17,1.618c0.434,0.973,0.857,1.958,1.393,2.875
		c0.294,0.502,0.355,0.939,0.202,1.464c-0.059,0.201-0.054,0.42-0.037,0.643c0.362-0.144,0.331-0.521,0.555-0.811
		c0.177,0.252,0.345,0.476,0.493,0.711c0.547,0.863,1.097,1.726,1.624,2.602c0.087,0.144,0.09,0.357,0.08,0.536
		c-0.041,0.689-0.139,1.379-0.137,2.068c0.001,0.286,0.173,0.587,0.318,0.854c0.178,0.329,0.204,0.569-0.009,0.873
		c-0.123,0.171-0.233,0.379-0.403,0.487c-0.17,0.111-0.417,0.191-0.612,0.161c-0.697-0.106-1.193,0.304-1.739,0.594
		c-0.041,0.022-0.084,0.06-0.103,0.101c-0.214,0.476-0.637,0.481-1.057,0.453c-0.228-0.015-0.459-0.074-0.675-0.153
		c-0.364-0.134-0.735-0.268-1.072-0.456c-0.532-0.298-1.11-0.305-1.682-0.312c-0.44-0.007-0.879,0.105-1.322,0.135
		c-0.265,0.019-0.533-0.033-0.798-0.03c-0.714,0.009-1.428,0.023-2.143,0.05c-0.493,0.02-0.967,0.036-1.416-0.262
		c-0.265-0.176-0.611-0.225-0.912-0.354c-0.661-0.286-1.322-0.571-1.968-0.89c-0.178-0.088-0.288-0.306-0.447-0.442
		c-0.074-0.063-0.193-0.076-0.291-0.111c-0.016,0.105-0.073,0.226-0.041,0.313c0.057,0.158,0.168,0.297,0.255,0.442
		c-0.459,0.3-1.17,0.244-1.616-0.108c-0.317-0.25-0.583-0.525-0.633-0.958c-0.009-0.082-0.113-0.152-0.173-0.229
		c-0.072,0.08-0.158,0.151-0.207,0.242c-0.034,0.062-0.019,0.151-0.014,0.228c0.018,0.303-0.065,0.384-0.362,0.295
		c-0.183-0.053-0.368-0.134-0.517-0.249c-0.353-0.271-0.674-0.581-0.809-1.025c-0.065-0.214-0.056-0.431,0.169-0.563
		c0.825-0.486,1.281-1.269,1.653-2.102c0.863-1.929,1.366-3.97,1.813-6.026c0.123-0.566,0.282-1.125,0.374-1.696
		c0.073-0.443,0.032-0.903,0.095-1.348c0.152-1.057,0.307-2.114,0.511-3.161c0.164-0.842,0.586-1.577,1.123-2.243
		c0.259-0.323,0.509-0.654,0.774-0.973c0.734-0.886,1.688-1.439,2.762-1.821c0.272-0.097,0.503-0.308,0.773-0.419
		c0.212-0.087,0.471-0.181,0.682-0.138c1.322,0.269,2.646,0.534,3.949,0.881c1.001,0.267,1.971,0.656,2.957,0.982
		c0.324,0.106,0.637,0.216,0.862,0.497c0.042,0.054,0.158,0.047,0.238,0.076c0.097,0.035,0.19,0.076,0.286,0.115
		C64.648,55.058,64.638,55.087,64.631,55.117z M76.853,74.239c-0.012,0.058-0.024,0.115-0.038,0.171
		c0.17,0.063,0.331,0.161,0.506,0.181c0.332,0.04,0.671,0.056,1.008,0.047c0.928-0.024,1.813-0.226,2.609-0.723
		c0.263-0.165,0.245-0.358-0.035-0.483c-0.38-0.167-0.761-0.323-1.147-0.463c-0.074-0.027-0.186,0.041-0.276,0.065
		c0.028,0.091,0.031,0.217,0.093,0.267c0.125,0.099,0.287,0.151,0.428,0.235c0.069,0.041,0.122,0.108,0.184,0.164
		c-0.07,0.054-0.135,0.13-0.215,0.158c-0.79,0.274-1.604,0.414-2.443,0.384C77.304,74.232,77.079,74.239,76.853,74.239z"/>
	<path fill="#FFFFFF" d="M83.077,80.594c-0.064,0.271-0.076,0.572-0.203,0.808c-0.364,0.675-0.711,1.378-1.19,1.965
		c-0.321,0.392-0.831,0.664-1.305,0.888c-1.84,0.87-3.761,1.463-5.783,1.774c-1.733,0.266-3.467,0.387-5.216,0.454
		c-0.93,0.035-1.859,0.194-2.79,0.282c-0.178,0.017-0.36-0.051-0.541-0.063c-0.112-0.007-0.229,0-0.339,0.025
		c-1.041,0.249-2.074,0.525-3.121,0.75c-1.809,0.388-3.624,0.507-5.458,0.122c-1.433-0.3-2.783-0.808-4.012-1.59
		c-0.479-0.303-0.856-0.768-1.271-1.171c-0.071-0.067-0.093-0.186-0.189-0.238c-0.202,0.427,0.116,0.627,0.267,0.872
		c0.16,0.266,0.404,0.478,0.645,0.755c-0.145,0-0.25,0.009-0.355-0.003c-0.353-0.04-0.706-0.117-1.061-0.127
		c-0.64-0.016-1.201-0.244-1.74-0.567c-0.149-0.088-0.294-0.185-0.446-0.265c-0.532-0.274-0.883-0.709-1.122-1.244
		c-0.161-0.362-0.331-0.718-0.471-1.09c-0.266-0.718-0.223-1.475-0.254-2.226c-0.054-1.243,0.491-2.302,1.005-3.367
		c0.151-0.312,0.362-0.591,0.513-0.902c0.097-0.198,0.205-0.238,0.412-0.186c0.896,0.231,1.791,0.474,2.698,0.657
		c0.447,0.089,0.919,0.054,1.38,0.092c0.208,0.021,0.427,0.046,0.616,0.13c0.962,0.43,1.978,0.543,3.016,0.594
		c0.74,0.036,1.475,0.166,2.213,0.242c0.81,0.083,1.621,0.056,2.419-0.104c0.203-0.041,0.395-0.15,0.583-0.243
		c0.652-0.329,1.295-0.67,1.945-0.995c0.687-0.34,1.398-0.602,2.178-0.612c0.163-0.003,0.335,0.02,0.38-0.215
		c0.007-0.037,0.167-0.088,0.218-0.06c0.218,0.109,0.455,0.213,0.62,0.383c0.253,0.259,0.411,0.293,0.686,0.074
		c0.15-0.119,0.329-0.246,0.51-0.272c1.163-0.169,2.329-0.335,3.497-0.448c0.46-0.044,0.935,0.05,1.402,0.086
		c0.711,0.057,1.424,0.102,2.13,0.188c0.299,0.036,0.605,0.125,0.869,0.267c0.727,0.389,1.459,0.734,2.304,0.767
		c0.133,0.005,0.262,0.081,0.396,0.083c0.368,0.008,0.729-0.025,1.036-0.279c0.238-0.197,0.482-0.295,0.834-0.256
		c0.457,0.051,0.896,0.105,1.303,0.321c0.068,0.035,0.141,0.069,0.188,0.124c0.444,0.533,0.855,1.088,1.021,1.776
		c0.055,0.218,0.101,0.459,0.063,0.676c-0.059,0.359-0.18,0.709-0.295,1.055c-0.036,0.106-0.144,0.191-0.219,0.284
		C83.054,80.576,83.065,80.584,83.077,80.594z"/>
	<path fill="#FFFFFF" d="M64.063,44.396c0.149-0.04,0.306-0.062,0.443-0.125c0.227-0.104,0.351-0.027,0.343,0.202
		c-0.012,0.397-0.058,0.793-0.09,1.19c-0.035,0.005-0.068,0.01-0.104,0.016c-0.167-0.202-0.338-0.4-0.5-0.606
		c-0.346-0.445-0.81-0.591-1.353-0.55c-0.241,0.018-0.482,0.022-0.722,0.035c-0.43,0.023-0.758,0.267-0.998,0.578
		c-0.372,0.482-0.644,1.029-0.76,1.639c-0.012,0.057-0.029,0.118-0.018,0.171c0.155,0.801,0.132,1.64,0.487,2.399
		c0.097,0.208,0.212,0.411,0.344,0.599c0.121,0.175,0.087,0.286-0.092,0.365c-0.202,0.088-0.4,0.19-0.614,0.24
		c-0.343,0.081-0.691,0.157-1.041,0.173c-0.283,0.013-0.572-0.059-0.856-0.104c-0.826-0.131-1.654-0.252-2.475-0.416
		c-0.199-0.039-0.403-0.195-0.542-0.352c-0.449-0.508-0.864-1.047-1.306-1.563c-0.074-0.084-0.217-0.111-0.332-0.157
		c-0.072-0.031-0.174-0.029-0.23-0.078c-0.587-0.523-0.96-1.145-1.046-1.958c-0.066-0.617-0.229-1.23-0.409-1.826
		c-0.396-1.3-0.421-2.585,0.25-3.783c0.333-0.594,0.83-1.108,1.304-1.606c0.278-0.292,0.691-0.451,0.998-0.721
		c0.87-0.77,1.876-1.286,2.926-1.77c1.2-0.551,2.458-0.659,3.723-0.72c0.804-0.04,1.608,0.104,2.394,0.347
		c1.25,0.386,2.5,0.803,3.801,0.956c0.396,0.047,0.824-0.202,1.234-0.33c0.046-0.015,0.061-0.126,0.089-0.193
		c0.048-0.11,0.097-0.22,0.153-0.344c0.405,0.198,0.465,0.556,0.471,0.895c0.007,0.322-0.057,0.654-0.136,0.969
		c-0.087,0.344-0.321,0.599-0.589,0.836c-0.505,0.448-0.969,0.95-1.631,1.173c-0.364,0.122-0.74,0.208-1.105,0.326
		c-0.118,0.038-0.239,0.108-0.317,0.199c-0.024,0.028,0.099,0.17,0.134,0.267c0.034,0.093,0.074,0.202,0.054,0.292
		c-0.242,1.129-0.669,2.152-1.647,2.863c-0.121,0.089-0.201,0.235-0.302,0.355C64.016,44.317,64.039,44.357,64.063,44.396z"/>
	<path fill="#FFFFFF" d="M51.815,86.763c0.494,0.113,0.995,0.2,1.478,0.344c0.887,0.266,1.752,0.61,2.648,0.834
		c0.951,0.236,1.915,0.417,2.912,0.419c1.173,0.002,2.329-0.146,3.475-0.355c0.596-0.108,1.175-0.307,1.77-0.438
		c0.402-0.089,0.813-0.157,1.223-0.193c0.832-0.075,1.669-0.134,2.505-0.181c1.095-0.059,2.193-0.071,3.286-0.159
		c1.143-0.095,2.281-0.24,3.417-0.396c0.734-0.101,1.465-0.236,2.191-0.394c0.375-0.079,0.736-0.219,1.1-0.353
		c0.631-0.234,1.252-0.492,1.885-0.723c0.719-0.266,1.365-0.637,1.976-1.107c0.547-0.424,1.056-0.875,1.438-1.446
		c0.206-0.307,0.357-0.656,0.494-1.002c0.091-0.233,0.202-0.227,0.395-0.147c0.803,0.328,1.606,0.662,2.419,0.959
		c0.56,0.203,1.141,0.349,1.713,0.521c0.116,0.036,0.229,0.08,0.342,0.122c0.004,0.026,0.007,0.056,0.013,0.083
		c-0.258,0.136-0.511,0.279-0.771,0.407c-1.739,0.855-3.492,1.688-5.217,2.571c-0.718,0.366-1.379,0.848-2.083,1.248
		c-0.771,0.437-1.562,0.839-2.348,1.25c-2.215,1.156-4.429,2.311-6.645,3.466c-0.274,0.142-0.541,0.3-0.828,0.414
		c-0.139,0.057-0.326,0.079-0.465,0.036c-0.984-0.305-1.958-0.641-2.941-0.947c-2.477-0.774-4.958-1.537-7.436-2.308
		c-1.217-0.38-2.421-0.788-3.645-1.146c-1.082-0.317-2.183-0.576-3.272-0.874c-0.36-0.098-0.708-0.237-1.062-0.358
		C51.796,86.858,51.807,86.811,51.815,86.763z"/>
	<path fill="#FFFFFF" d="M82.538,91.451c-0.201,0.117-0.331,0.191-0.46,0.266c-1.362,0.787-2.721,1.573-4.081,2.363
		c-0.635,0.366-1.264,0.741-1.895,1.109c-0.805,0.471-1.613,0.937-2.418,1.406c-0.393,0.228-0.78,0.463-1.171,0.689
		c-0.288,0.166-0.412,0.141-0.554-0.161c-0.45-0.958-0.885-1.927-1.323-2.891c-0.112-0.246-0.201-0.503-0.331-0.737
		c-0.047-0.088-0.186-0.121-0.283-0.183c-0.009,0.108-0.067,0.237-0.025,0.32c0.512,1.066,1.041,2.125,1.568,3.186
		c0.026,0.057,0.054,0.117,0.118,0.253c-0.182-0.032-0.312-0.033-0.423-0.076c-0.91-0.353-1.806-0.736-2.721-1.07
		c-1.168-0.427-2.351-0.814-3.526-1.219c-0.263-0.09-0.521-0.189-0.837-0.307c0.103-0.051,0.152-0.09,0.207-0.104
		c0.998-0.22,1.995-0.438,2.993-0.657c0.151-0.033,0.301-0.072,0.451-0.108c0.238-0.054,0.472-0.184,0.716-0.004
		c0.038,0.026,0.124-0.018,0.188-0.027c-0.024-0.021-0.047-0.041-0.07-0.062c0.035-0.072,0.054-0.156,0.106-0.203
		c0.043-0.039,0.138-0.017,0.191-0.051c0.051-0.032,0.08-0.104,0.12-0.155c-0.06-0.029-0.124-0.09-0.181-0.085
		c-0.189,0.025-0.38,0.068-0.568,0.112c-1.304,0.313-2.645,0.46-3.902,0.963c-0.371,0.147-0.489,0.064-0.533-0.337
		c-0.097-0.899-0.355-1.751-0.702-2.582c-0.031-0.072-0.029-0.163-0.042-0.244c0.09-0.005,0.188-0.035,0.27-0.01
		c1.052,0.318,2.104,0.637,3.152,0.975c0.863,0.279,1.713,0.585,2.57,0.88c0.06,0.021,0.137,0.053,0.166,0.103
		c0.166,0.298,0.291,0.35,0.585,0.243c0.653-0.236,1.323-0.429,1.956-0.712c0.589-0.263,1.129-0.628,1.704-0.923
		c0.539-0.278,1.096-0.52,1.644-0.781c0.168-0.079,0.29-0.018,0.36,0.128c0.146,0.303,0.298,0.606,0.411,0.922
		c0.202,0.559,0.378,1.13,0.563,1.695c0.02,0.06,0.024,0.127,0.044,0.242c-0.402-0.024-0.774-0.042-1.145-0.074
		c-1.343-0.122-2.684-0.249-4.024-0.373c-0.23-0.021-0.459-0.049-0.689-0.051c-0.066,0-0.133,0.077-0.198,0.119
		c0.069,0.051,0.136,0.139,0.21,0.146c1.477,0.138,2.957,0.27,4.436,0.394c0.508,0.042,1.02,0.056,1.53,0.088
		c0.084,0.006,0.176,0.021,0.249,0.059c0.204,0.105,0.305,0.031,0.358-0.192c-0.322-0.044-0.43-0.282-0.512-0.548
		c-0.205-0.656-0.406-1.316-0.628-1.969c-0.077-0.223-0.216-0.428-0.332-0.634c-0.085-0.154-0.081-0.23,0.1-0.336
		c0.276-0.163,0.556-0.176,0.836-0.115c1.141,0.244,2.276,0.504,3.414,0.759c0.713,0.16,1.428,0.323,2.14,0.484
		C82.356,91.386,82.398,91.403,82.538,91.451z"/>
	<path fill="#FFFFFF" d="M69.332,42.414c0.137,0.248,0.176,0.38-0.052,0.474c-0.087,0.036-0.169,0.121-0.221,0.204
		c-0.126,0.204-0.243,0.416-0.348,0.631c-0.04,0.079-0.04,0.177-0.059,0.266c0.098-0.006,0.197-0.003,0.292-0.022
		c0.06-0.012,0.112-0.058,0.211-0.113c0,0.214,0,0.386,0,0.58c-0.073-0.012-0.118-0.022-0.163-0.026
		c-0.091-0.009-0.186-0.015-0.279-0.022c0.003,0.125-0.041,0.285,0.021,0.366c0.083,0.113,0.236,0.196,0.378,0.241
		c0.313,0.101,0.509,0.282,0.583,0.611c0.071,0.327,0.334,0.481,0.618,0.596c0.152,0.061,0.267,0.129,0.192,0.318
		c-0.069,0.172-0.14,0.322-0.337,0.096c-0.049-0.057-0.193-0.094-0.248-0.063c-0.06,0.035-0.098,0.161-0.096,0.246
		c0.047,1.607-0.503,3.02-1.478,4.257c-0.61,0.774-1.425,1.298-2.376,1.635c-0.481,0.17-0.863,0.09-1.288-0.1
		c-0.792-0.354-1.588-0.695-2.394-1.016c-0.453-0.181-0.927-0.311-1.394-0.466c-0.041-0.014-0.075-0.045-0.12-0.071
		c0.438-0.314,0.861-0.618,1.322-0.947c-0.848-0.895-1.002-1.968-1.072-3.062c-0.019-0.291,0.07-0.589,0.108-0.884
		c0.026,0.003,0.057,0.007,0.082,0.011c0.06,0.372,0.087,0.754,0.189,1.114c0.159,0.552,0.331,1.103,0.723,1.559
		c0.217,0.256,0.496,0.362,0.799,0.418c0.257,0.048,0.615-0.26,0.764-0.62c0.07-0.169,0.137-0.34,0.202-0.511
		c0.073-0.189,0.076-0.331-0.04-0.549c-0.134-0.251-0.284-0.459-0.475-0.657c-0.034-0.035-0.028-0.164,0.008-0.197
		c0.475-0.445,0.326-0.526,0.221-1.267c0.073,0.056,0.166,0.099,0.214,0.171c0.193,0.294,0.215,0.607,0.084,0.938
		c-0.153,0.389,0.245,0.917,0.668,0.875c0.097-0.01,0.229-0.092,0.27-0.177c0.218-0.434,0.462-0.865,0.604-1.326
		c0.164-0.531,0.134-1.094-0.056-1.624c-0.121-0.346-0.086-0.602,0.179-0.884c0.593-0.628,0.89-1.41,1.023-2.257
		c0.001-0.009,0.005-0.021,0.001-0.029c-0.17-0.447,0.156-0.516,0.46-0.629c0.324-0.122,0.641-0.268,0.951-0.424
		c0.301-0.152,0.516-0.17,0.671,0.117c0.245,0.452,0.407,0.949,0.585,1.435c0.019,0.053-0.075,0.165-0.137,0.229
		c-0.222,0.227-0.488,0.419-0.669,0.673c-0.137,0.192-0.196,0.453-0.249,0.691c-0.04,0.17,0.119,0.199,0.227,0.137
		c0.12-0.068,0.216-0.183,0.312-0.287C68.935,42.871,69.113,42.662,69.332,42.414z"/>
	<path fill="#FFFFFF" d="M30.342,83.08c0.326-0.136,0.646-0.289,0.98-0.398c1.713-0.566,3.436-1.105,5.144-1.686
		c0.736-0.249,1.441-0.604,2.177-0.863c1.975-0.692,3.962-1.353,5.943-2.035c0.565-0.195,1.121-0.426,1.68-0.632
		c0.189-0.073,0.383-0.139,0.579-0.184c0.143-0.031,0.368-0.179,0.417,0.052c0.039,0.185-0.032,0.426-0.28,0.514
		c-0.71,0.254-1.415,0.517-2.126,0.765c-2.409,0.831-4.817,1.664-7.227,2.487c-1.525,0.521-3.058,1.021-4.579,1.552
		c-0.302,0.105-0.581,0.299-0.849,0.481c-0.166,0.113-0.183,0.279,0.041,0.378c0.56,0.248,1.12,0.504,1.692,0.73
		c0.923,0.368,1.849,0.724,2.782,1.069c1.548,0.572,3.099,1.136,4.652,1.694c0.844,0.302,1.697,0.584,2.541,0.881
		c1.551,0.545,3.104,1.086,4.649,1.646c1.379,0.502,2.737,1.057,4.122,1.538c1.521,0.528,3.068,0.986,4.591,1.508
		c0.865,0.298,1.702,0.685,2.563,0.992c1.3,0.464,2.611,0.896,3.917,1.339c1.571,0.535,3.139,1.069,4.709,1.605
		c0.874,0.298,1.75,0.59,2.62,0.902c0.381,0.138,0.794,0.221,1.081,0.576c0.056,0.07,0.367,0.006,0.515-0.082
		c0.507-0.298,0.983-0.646,1.488-0.948c1.461-0.881,2.924-1.766,4.404-2.614c1.228-0.704,2.481-1.364,3.727-2.039
		c0.457-0.248,0.938-0.452,1.379-0.723c0.745-0.455,1.464-0.947,2.192-1.427c0.82-0.539,1.63-1.092,2.459-1.617
		c1.041-0.659,2.104-1.289,3.146-1.945c0.66-0.416,1.288-0.882,1.958-1.281c0.885-0.524,1.801-0.994,2.693-1.509
		c0.477-0.272,0.935-0.575,1.384-0.889c0.234-0.161,0.448-0.246,0.772-0.073c-0.229,0.187-0.426,0.379-0.653,0.523
		c-1.107,0.7-2.227,1.382-3.341,2.073c-1.089,0.675-2.181,1.347-3.266,2.028c-1.145,0.718-2.277,1.455-3.427,2.166
		c-0.696,0.431-1.417,0.823-2.12,1.243c-1.249,0.745-2.485,1.51-3.741,2.243c-1.083,0.632-2.195,1.213-3.275,1.849
		c-1.04,0.611-2.049,1.273-3.078,1.901c-0.814,0.496-1.636,0.985-2.47,1.446c-0.153,0.086-0.406,0.076-0.583,0.019
		c-1.676-0.554-3.346-1.125-5.018-1.691c-0.146-0.05-0.29-0.115-0.442-0.139c-0.915-0.143-1.744-0.554-2.604-0.864
		c-1.807-0.651-3.615-1.298-5.428-1.931c-1.913-0.67-3.83-1.327-5.75-1.975c-1.137-0.383-2.286-0.715-3.417-1.105
		c-1.532-0.53-3.054-1.091-4.578-1.647c-2.021-0.733-4.046-1.463-6.062-2.22c-0.965-0.362-1.911-0.782-2.863-1.172
		c-0.92-0.379-1.844-0.75-2.76-1.131c-0.936-0.388-1.868-0.78-2.802-1.17c-0.085-0.035-0.168-0.076-0.251-0.115
		C30.344,83.145,30.343,83.112,30.342,83.08z"/>
	<path fill="#FFFFFF" d="M56.564,91.519c-0.151-0.412-0.298-0.825-0.447-1.236c-0.204-0.562-0.414-1.122-0.614-1.686
		c-0.089-0.251,0.085-0.235,0.235-0.194c0.485,0.132,0.969,0.263,1.446,0.416c1.597,0.517,3.192,1.042,4.788,1.568
		c0.106,0.035,0.208,0.082,0.311,0.166c-1.693,0.361-3.422,0.536-5.024,1.204c0.008,0.042,0.018,0.088,0.024,0.131
		c0.201-0.032,0.398-0.059,0.595-0.097c1.49-0.282,2.976-0.567,4.463-0.849c0.212-0.04,0.346,0.029,0.471,0.229
		c0.456,0.734,0.623,1.552,0.77,2.382c0.016,0.095,0.029,0.189,0.048,0.283c0.081,0.403,0.05,0.442-0.332,0.312
		c-1.928-0.652-3.857-1.308-5.783-1.972c-1.833-0.631-3.669-1.259-5.494-1.911c-0.836-0.298-1.653-0.647-2.479-0.977
		c-0.069-0.025-0.134-0.066-0.283-0.143c0.185-0.035,0.29-0.062,0.395-0.072c1.29-0.104,2.58-0.203,3.869-0.314
		c0.451-0.041,0.9-0.105,1.35-0.162c0.192-0.023,0.308,0.053,0.379,0.23c0.126,0.302,0.26,0.6,0.396,0.897
		c0.252,0.561,0.508,1.121,0.765,1.682c0.025,0.05,0.066,0.089,0.101,0.134C56.529,91.535,56.546,91.527,56.564,91.519z"/>
	<path fill="#FFFFFF" d="M88.429,87.162c-1.926-0.202-3.788-0.398-5.653-0.596c-0.011-0.021-0.024-0.043-0.034-0.064
		c1.713-0.964,3.485-1.815,5.271-2.802c0.076,0.297,0.162,0.54,0.202,0.787c0.153,0.885,0.384,1.742,0.814,2.536
		c0.114,0.21,0.049,0.344-0.127,0.463c-0.503,0.342-1,0.69-1.505,1.028c-0.744,0.499-1.483,1.003-2.239,1.481
		c-0.496,0.315-1.02,0.587-1.528,0.88c-0.149,0.086-0.272,0.131-0.369-0.076c-0.217-0.47-0.459-0.926-0.666-1.397
		c-0.116-0.271-0.167-0.567-0.267-0.847c-0.12-0.338-0.248-0.677-0.402-1.002c-0.18-0.378-0.087-0.586,0.337-0.597
		c0.474-0.013,0.947-0.01,1.418,0.024c0.808,0.062,1.611,0.169,2.419,0.227c0.513,0.04,1.028,0.025,1.543,0.041
		c0.063,0.003,0.121,0.042,0.185,0.063C88.032,87.377,88.221,87.372,88.429,87.162z"/>
	<path fill="#FFFFFF" d="M96.244,83.072c-0.317,0.21-0.622,0.443-0.953,0.627c-0.969,0.539-1.951,1.054-2.92,1.594
		c-0.259,0.144-0.479,0.356-0.73,0.518c-0.713,0.456-1.43,0.903-2.218,1.397c-0.111-0.266-0.202-0.459-0.274-0.659
		c-0.16-0.451-0.313-0.905-0.464-1.357c-0.036-0.108-0.059-0.223-0.075-0.335c-0.056-0.371-0.094-0.744-0.153-1.112
		c-0.033-0.212-0.011-0.304,0.25-0.261c0.212,0.036,0.437-0.03,0.654-0.032c1.099-0.018,2.198-0.038,3.299-0.04
		c0.549-0.002,1.1,0.045,1.648,0.04c0.232-0.002,0.463-0.088,0.695-0.132c0.034-0.007,0.079-0.007,0.109,0.01
		c0.195,0.108,0.291-0.01,0.425-0.196c-2.082-0.035-4.113-0.237-6.148,0.014c-0.015-0.032-0.027-0.065-0.041-0.1
		c0.199-0.11,0.395-0.221,0.59-0.332c-0.011-0.03-0.021-0.059-0.032-0.089c-0.218,0.063-0.439,0.121-0.654,0.195
		c-0.335,0.12-0.433,0.09-0.511-0.266c-0.072-0.309-0.093-0.628-0.128-0.943c-0.047-0.409-0.088-0.817-0.138-1.287
		c2.663,0.68,5.113,1.909,7.736,2.628C96.222,82.994,96.232,83.033,96.244,83.072z"/>
	<path fill="#FFFFFF" d="M88.521,77.962c-0.015-0.321-0.015-0.645-0.05-0.964c-0.017-0.157-0.077-0.322-0.16-0.456
		c-0.052-0.083-0.184-0.115-0.278-0.17c-0.058,0.119-0.161,0.236-0.162,0.354c-0.004,0.188,0.098,0.379,0.088,0.568
		c-0.016,0.362-0.036,0.733-0.13,1.077c-0.095,0.35-0.433,0.501-0.687,0.681c0.032-0.492,0.073-0.967,0.085-1.442
		c0.002-0.105-0.108-0.214-0.17-0.32c-0.102,0.078-0.258,0.139-0.293,0.24c-0.065,0.185-0.05,0.397-0.088,0.595
		c-0.063,0.316-0.116,0.638-0.222,0.941c-0.092,0.266-0.344,0.384-0.624,0.502c0.046-0.233,0.089-0.417,0.119-0.604
		c0.064-0.439-0.113-0.832-0.346-1.165c-0.104-0.153-0.427-0.155-0.65-0.228c-0.38-0.122-0.777-0.207-1.137-0.375
		c-0.347-0.162-0.492-0.499-0.648-0.864c-0.198-0.467-0.039-0.794,0.145-1.172c0.24-0.5,0.443-1.02,0.692-1.516
		c0.045-0.088,0.244-0.152,0.363-0.139c0.877,0.094,1.727,0.299,2.524,0.689c0.501,0.245,1.003,0.473,1.415,0.875
		c0.697,0.682,0.798,1.467,0.502,2.348c-0.066,0.194-0.146,0.384-0.219,0.575C88.568,77.982,88.545,77.972,88.521,77.962z"/>
	<path fill="#FFFFFF" d="M65.572,55.002c-0.281-0.11-0.572-0.19-0.83-0.333c-0.306-0.169-0.557-0.452-0.875-0.581
		c-0.836-0.337-1.689-0.643-2.551-0.911c-0.954-0.297-1.921-0.556-2.89-0.798c-0.54-0.136-1.097-0.213-1.65-0.299
		c-0.213-0.033-0.274-0.108-0.221-0.323c0.062-0.249,0.094-0.506,0.121-0.762c0.015-0.162,0.091-0.195,0.229-0.172
		c0.608,0.1,1.217,0.186,1.822,0.302c0.643,0.125,1.289,0.243,1.915,0.428c0.774,0.229,1.54,0.499,2.291,0.797
		c0.616,0.245,1.208,0.555,1.807,0.841c0.082,0.039,0.181,0.101,0.211,0.176C65.161,53.887,65.353,54.414,65.572,55.002z"/>
	<path fill="#FFFFFF" d="M33.515,83.221c0.263-0.113,0.522-0.237,0.792-0.335c1.648-0.6,3.298-1.191,4.951-1.786
		c0.49-0.175,0.979-0.351,1.469-0.535c0.524-0.195,0.676-0.104,0.62,0.44c-0.072,0.709-0.179,1.412-0.269,2.121
		c-0.026,0.222-0.196,0.212-0.347,0.209c-0.907-0.022-1.815-0.063-2.721-0.068c-1.426-0.007-2.854,0.014-4.281,0.021
		c-0.065,0.002-0.128,0-0.193,0C33.525,83.265,33.521,83.242,33.515,83.221z"/>
	<path fill="#FFFFFF" d="M76.839,89.765c0.271-0.16,0.536-0.329,0.812-0.478c0.719-0.391,1.439-0.773,2.162-1.154
		c0.398-0.212,0.802-0.417,1.208-0.616c0.39-0.188,0.455-0.145,0.602,0.25c0.401,1.089,0.699,2.224,1.356,3.206
		c0.134,0.196,0.028,0.279-0.165,0.241c-0.357-0.07-0.708-0.169-1.063-0.248c-0.523-0.118-1.054-0.219-1.575-0.344
		c-0.908-0.216-1.811-0.444-2.715-0.664c-0.202-0.048-0.406-0.085-0.608-0.127C76.846,89.809,76.843,89.786,76.839,89.765z"/>
	<path fill="#FFFFFF" d="M54.974,88.361c-0.098,0.019-0.196,0.044-0.296,0.056c-1.845,0.18-3.688,0.354-5.53,0.54
		c-0.585,0.056-0.706-0.023-0.893-0.563c-0.196-0.563-0.427-1.115-0.621-1.681c-0.074-0.21-0.085-0.443-0.126-0.664
		c0.202,0.026,0.412,0.025,0.604,0.085c1.596,0.491,3.185,0.994,4.781,1.485c0.562,0.169,1.138,0.299,1.704,0.46
		c0.136,0.039,0.267,0.109,0.403,0.167C54.991,88.283,54.983,88.322,54.974,88.361z"/>
	<path fill="#FFFFFF" d="M34.164,83.674c0.197-0.015,0.396-0.045,0.593-0.044c1.988,0.015,3.975,0.038,5.96,0.052
		c0.258,0.001,0.396,0.105,0.422,0.363c0.073,0.661,0.153,1.321,0.226,1.981c0.028,0.237-0.122,0.23-0.278,0.187
		c-0.666-0.188-1.343-0.35-1.992-0.582c-1.508-0.54-3.004-1.111-4.501-1.672c-0.152-0.058-0.297-0.128-0.444-0.194
		C34.154,83.735,34.16,83.705,34.164,83.674z"/>
	<path fill="#FFFFFF" d="M42.034,83.394c0.855-0.337,1.641-0.63,2.412-0.953c0.472-0.196,0.923-0.438,1.382-0.657
		c0.089-0.042,0.176-0.079,0.267-0.116c0.234-0.099,0.341-0.027,0.399,0.231c0.136,0.588,0.283,1.177,0.466,1.751
		c0.251,0.785,0.734,1.416,1.396,1.906c0.031,0.023,0.061,0.047,0.087,0.075c0.013,0.013,0.017,0.033,0.049,0.104
		c-0.151-0.025-0.279-0.025-0.395-0.064c-1.076-0.374-2.151-0.75-3.222-1.133c-0.744-0.267-1.485-0.546-2.223-0.831
		C42.46,83.636,42.281,83.521,42.034,83.394z"/>
	<path fill="#FFFFFF" d="M83.807,80.996c0.131-0.185,0.25-0.354,0.395-0.557c-0.007-0.054-0.041-0.174-0.033-0.29
		c0.027-0.381,0.081-0.762,0.104-1.143c0.011-0.203,0.082-0.266,0.267-0.186c0.074,0.03,0.145,0.057,0.216,0.089
		c0.171,0.079,0.412,0.121,0.492,0.258c0.063,0.104-0.072,0.329-0.122,0.499c-0.086,0.291,0.007,0.482,0.299,0.615
		c-0.229,0.047-0.457,0.096-0.686,0.143c0.002,0.031,0.002,0.059,0.003,0.09c0.326,0.008,0.654,0.041,0.98,0.019
		c0.489-0.034,0.978-0.17,1.462-0.142c0.273,0.014,0.541,0.203,0.854,0.143c0.036-0.008,0.141,0.141,0.152,0.224
		c0.069,0.6,0.121,1.2,0.186,1.859C86.861,82.079,85.368,81.549,83.807,80.996z"/>
	<path fill="#FFFFFF" d="M42.638,86.677c0.142-0.045,0.28-0.11,0.426-0.133c1.23-0.189,2.459-0.376,3.69-0.557
		c0.249-0.037,0.383,0.039,0.473,0.323c0.204,0.671,0.478,1.323,0.726,1.983c0.036,0.096,0.067,0.194,0.121,0.353
		c-0.159-0.015-0.272-0.006-0.368-0.04c-1.625-0.582-3.25-1.168-4.877-1.754c-0.061-0.023-0.117-0.061-0.175-0.09
		C42.648,86.734,42.644,86.707,42.638,86.677z"/>
	<path fill="#FFFFFF" d="M46.76,85.742c-0.389,0.029-0.78,0.054-1.17,0.086c-1.163,0.097-2.324,0.225-3.443,0.579
		c-0.203,0.064-0.328,0.016-0.351-0.198c-0.056-0.518-0.108-1.034-0.148-1.551c-0.057-0.731-0.036-0.771,0.652-0.547
		c1.458,0.476,2.898,0.998,4.346,1.501c0.043,0.015,0.082,0.043,0.121,0.066C46.766,85.701,46.763,85.722,46.76,85.742z"/>
	<path fill="#FFFFFF" d="M46.277,81.213c-0.547,0.225-1.017,0.415-1.484,0.611c-0.871,0.369-1.742,0.737-2.606,1.12
		c-0.13,0.057-0.272,0.172-0.326,0.297c-0.074,0.17-0.173,0.152-0.299,0.127c-0.151-0.029-0.205-0.111-0.181-0.268
		c0.108-0.696,0.211-1.392,0.313-2.089c0.038-0.264,0.153-0.386,0.443-0.35c1.283,0.168,2.566,0.315,3.849,0.475
		C46.057,81.144,46.129,81.173,46.277,81.213z"/>
	<path fill="#FFFFFF" d="M42.032,80.163c0.085-0.049,0.144-0.095,0.211-0.119c1.407-0.509,2.814-1.012,4.224-1.513
		c0.091-0.032,0.201-0.017,0.305-0.024c0.001,0.11,0.027,0.228,0,0.328c-0.167,0.562-0.383,1.111-0.345,1.718
		c0.015,0.224-0.15,0.274-0.331,0.256c-0.279-0.027-0.556-0.066-0.832-0.105c-1.049-0.153-2.098-0.31-3.146-0.467
		C42.102,80.234,42.09,80.214,42.032,80.163z"/>
	<path fill="#FFFFFF" d="M66.97,75.119c0.067-0.267,0.168-0.515,0.179-0.766c0.008-0.189-0.064-0.409-0.171-0.569
		c-0.341-0.515-0.541-1.046-0.378-1.761c0.19,0.141,0.346,0.235,0.479,0.357c0.33,0.312,0.621,0.675,0.984,0.944
		c0.441,0.328,0.603,0.812,0.842,1.255c0.078,0.144,0.12,0.306,0.201,0.447c0.091,0.156,0.043,0.251-0.113,0.27
		c-0.458,0.055-0.919,0.129-1.377,0.118C67.396,75.408,67.186,75.224,66.97,75.119z"/>
	<path fill="#FFFFFF" d="M81.313,75.676c0.08-0.224,0.173-0.45,0.241-0.684c0.072-0.248,0.091-0.514,0.186-0.751
		c0.105-0.27,0.255-0.528,0.417-0.77c0.178-0.263,0.393-0.5,0.614-0.775c0.194,0.102,0.459,0.214,0.686,0.378
		c0.073,0.054,0.099,0.268,0.057,0.369c-0.139,0.327-0.335,0.628-0.481,0.952c-0.15,0.332-0.294,0.669-0.395,1.018
		c-0.172,0.612-0.368,0.723-0.93,0.459C81.588,75.817,81.473,75.755,81.313,75.676z"/>
	<path fill="#FFFFFF" d="M87.61,79.389c0.132-0.215,0.259-0.285,0.493-0.203c1.043,0.366,2.097,0.703,3.14,1.069
		c0.425,0.15,0.829,0.362,1.25,0.524c1.152,0.438,2.302,0.879,3.513,1.138c0.394,0.085,0.768,0.251,1.147,0.39
		c0.137,0.049,0.167,0.159,0.024,0.224c-0.121,0.056-0.286,0.099-0.405,0.061c-1.333-0.435-2.664-0.873-3.991-1.332
		c-0.85-0.298-1.688-0.637-2.539-0.938c-0.788-0.282-1.584-0.536-2.376-0.804C87.781,79.486,87.701,79.437,87.61,79.389z"/>
	<path fill="#FFFFFF" d="M62.59,46.968c-0.101,0.085-0.262,0.154-0.286,0.257c-0.07,0.267,0.13,0.566,0.382,0.629
		c0.25,0.061,0.5,0.101,0.755,0.15c-0.015,0.319-0.18,0.472-0.419,0.53c-0.232,0.057-0.338-0.133-0.439-0.296
		c-0.37-0.591-0.651-1.214-0.725-1.917c-0.049-0.453,0.297-0.942,0.741-1.021c0.061-0.011,0.126,0.013,0.191,0.021
		c0.004,0.024,0.009,0.049,0.016,0.072c-0.142,0.105-0.299,0.196-0.422,0.318c-0.106,0.103-0.191,0.233-0.256,0.367
		c-0.024,0.049,0.036,0.199,0.063,0.2c0.081,0.005,0.183-0.021,0.244-0.072c0.13-0.109,0.229-0.256,0.363-0.355
		c0.057-0.04,0.201-0.024,0.251,0.024c0.041,0.039,0.036,0.176,0.001,0.244c-0.077,0.152-0.202,0.28-0.277,0.434
		c-0.072,0.145-0.103,0.309-0.151,0.464C62.615,47,62.603,46.984,62.59,46.968z"/>
	<path fill="#FFFFFF" d="M58.336,77.021c0.031,0.23-0.064,0.297-0.333,0.246c-0.576-0.108-1.16-0.172-1.736-0.271
		c-0.102-0.018-0.272-0.124-0.267-0.176c0.016-0.164,0.096-0.323,0.168-0.476c0.007-0.013,0.158,0.02,0.223,0.063
		c0.216,0.142,0.423,0.296,0.632,0.45c0.172,0.127,0.343,0.144,0.538,0.042c0.136-0.072,0.284-0.118,0.428-0.168
		C58.298,76.628,58.343,76.66,58.336,77.021z"/>
	<path fill="#FFFFFF" d="M51.279,75.857c-0.007,0.265-0.103,0.369-0.296,0.326c-0.347-0.077-0.693-0.152-1.028-0.268
		c-0.096-0.033-0.181-0.198-0.199-0.313c-0.01-0.072,0.109-0.223,0.186-0.234c0.189-0.027,0.395-0.024,0.578,0.022
		c0.192,0.051,0.375,0.154,0.548,0.256C51.167,75.704,51.233,75.809,51.279,75.857z"/>
	<path fill="#FFFFFF" d="M61.174,77.27c-0.315,0.041-0.628,0.09-0.944,0.124c-0.121,0.015-0.26,0.028-0.371-0.014
		c-0.092-0.034-0.217-0.146-0.218-0.226c-0.008-0.184-0.007-0.445,0.105-0.531c0.1-0.076,0.363,0.006,0.528,0.074
		c0.311,0.131,0.604,0.302,0.906,0.457C61.179,77.193,61.176,77.23,61.174,77.27z"/>
	<path fill="#FFFFFF" d="M69.568,74.269c0.541,0.212,1.039,0.406,1.591,0.622c-0.103,0.067-0.146,0.122-0.202,0.129
		c-0.313,0.048-0.626,0.091-0.94,0.12c-0.073,0.007-0.195-0.037-0.214-0.086C69.715,74.818,69.654,74.572,69.568,74.269z"/>
	<path fill="#FFFFFF" d="M84.081,77.851c0.242,0.1,0.47,0.191,0.697,0.281c0.08,0.033,0.161,0.079,0.243,0.085
		c0.272,0.019,0.291,0.188,0.27,0.433c-0.331-0.131-0.626-0.279-0.943-0.362c-0.188-0.052-0.286-0.122-0.31-0.31
		C84.038,77.97,84.045,77.962,84.081,77.851z"/>
	<path fill="#FFFFFF" d="M53.364,76.66c-0.297-0.049-0.596-0.088-0.89-0.152c-0.04-0.009-0.098-0.145-0.078-0.192
		c0.048-0.117,0.119-0.276,0.295-0.178c0.237,0.136,0.468,0.289,0.701,0.437C53.384,76.603,53.375,76.633,53.364,76.66z"/>
	<path fill="#FFFFFF" d="M85.809,80.249c0.2-0.142,0.395-0.288,0.598-0.423c0.182-0.122,0.362-0.147,0.523,0.064
		C86.586,80.163,86.218,80.304,85.809,80.249z"/>
	<path fill="#FFFFFF" d="M59.036,76.658c0,0.21,0,0.422,0,0.633c-0.032,0.001-0.064,0.001-0.097,0.004
		C58.863,77.082,58.826,76.871,59.036,76.658z"/>
	<path fill="#FFFFFF" d="M90.717,23.587c1.582,0,3.168-0.019,4.75,0.005c1.562,0.024,3.12,0.105,4.684,0.135
		c1.217,0.024,2.43,0.003,3.645,0.013c1.805,0.015,3.609,0.037,5.414,0.06c0.743,0.009,1.484,0.026,2.228,0.042
		c1.234,0.025,2.468,0.055,3.701,0.08c0.105,0.002,0.226,0.011,0.314-0.033c0.685-0.347,1.313-0.219,1.938,0.172
		c0.178,0.112,0.42,0.128,0.637,0.171c0.626,0.124,1.014,0.535,1.008,1.173c-0.019,1.397-0.06,2.795-0.108,4.192
		c-0.024,0.733-0.08,1.464-0.134,2.195c-0.135,1.848-0.273,3.695-0.415,5.542c-0.15,1.934-0.316,3.865-0.452,5.799
		c-0.191,2.724-0.359,5.449-0.538,8.174c-0.02,0.299-0.037,0.598-0.078,0.894c-0.011,0.073-0.116,0.19-0.175,0.188
		c-1.069-0.042-2.138-0.08-3.205-0.155c-1.887-0.135-3.773-0.265-5.654-0.451c-1.89-0.187-3.772-0.445-5.659-0.663
		c-1.283-0.149-2.57-0.271-3.854-0.427c-0.928-0.113-1.852-0.269-2.779-0.394c-0.747-0.101-1.493-0.184-2.239-0.275
		c-1.657-0.202-3.313-0.404-4.969-0.605c-0.441-0.054-0.885-0.085-1.322-0.159c-0.411-0.07-0.822-0.178-1.024-0.606
		c-0.057-0.123-0.098-0.271-0.095-0.405c0.022-0.945,0.055-1.89,0.088-2.834c0.056-1.61,0.113-3.22,0.171-4.831
		c0.06-1.629,0.122-3.258,0.186-4.887c0.041-1.069,0.083-2.139,0.122-3.208c0.031-0.858,0.117-1.719,0.073-2.574
		c-0.042-0.876,0.114-1.727,0.159-2.59c0.041-0.807,0.037-1.616,0.066-2.424c0.004-0.111,0.082-0.22,0.131-0.328
		c0.025-0.051,0.076-0.093,0.087-0.145c0.086-0.514,0.442-0.731,0.906-0.788c0.449-0.055,0.903-0.068,1.355-0.084
		c0.347-0.013,0.695-0.003,1.041-0.003C90.717,23.564,90.717,23.575,90.717,23.587z M88.361,43.397
		c0.16,0.11,0.315,0.236,0.483,0.33c0.31,0.168,0.615,0.397,0.948,0.46c0.898,0.169,1.809,0.269,2.714,0.389
		c1.024,0.135,2.045,0.27,3.071,0.391c1.156,0.137,2.318,0.257,3.478,0.385c1.063,0.118,2.126,0.243,3.19,0.354
		c0.883,0.091,1.767,0.161,2.648,0.25c1.065,0.108,2.128,0.249,3.195,0.335c1.328,0.106,2.656,0.174,3.987,0.251
		c0.759,0.045,1.521,0.086,2.281,0.109c0.299,0.009,0.597-0.024,0.894-0.059c0.095-0.011,0.216-0.063,0.271-0.136
		c0.395-0.516,0.686-1.088,0.902-1.704c0.243-0.685,0.143-1.388,0.168-2.086c0.033-0.945,0.073-1.89,0.121-2.833
		c0.057-1.079,0.138-2.156,0.188-3.234c0.044-0.954,0.063-1.91,0.09-2.864c0.054-1.813,0.113-3.625,0.145-5.437
		c0.004-0.191-0.151-0.392-0.253-0.576c-0.1-0.174-0.229-0.33-0.342-0.496c-0.161-0.238-0.301-0.494-0.484-0.715
		c-0.483-0.582-1.2-0.694-1.875-0.786c-0.866-0.117-1.75-0.126-2.628-0.158c-1.311-0.048-2.621-0.077-3.936-0.112
		c-0.839-0.022-1.679-0.027-2.519-0.065c-0.166-0.008-0.362-0.09-0.483-0.204c-0.239-0.223-0.268-0.231-0.531-0.037
		c-0.126,0.093-0.306,0.166-0.459,0.163c-2.064-0.043-4.129-0.104-6.193-0.152c-2.202-0.05-4.4-0.085-6.602-0.138
		c-0.579-0.014-1.137,0.005-1.595,0.426c-0.056,0.049-0.152,0.052-0.204,0.102c-0.08,0.072-0.181,0.159-0.196,0.252
		c-0.095,0.539-0.195,1.079-0.24,1.624c-0.086,1.057-0.144,2.117-0.194,3.176c-0.019,0.375,0.038,0.752,0.033,1.128
		c-0.018,1.543-0.045,3.085-0.07,4.628c-0.023,1.428-0.043,2.855-0.07,4.283c-0.007,0.482-0.044,0.964-0.034,1.445
		C88.273,42.54,88.329,42.99,88.361,43.397z M114.614,50.459c0.563,0,1.092-0.529,1.101-1.102c0.01-0.573-0.497-1.077-1.073-1.069
		c-0.572,0.007-1.067,0.532-1.064,1.127C113.577,49.958,114.076,50.459,114.614,50.459z"/>
	<path fill="#010101" d="M76.853,74.239c0.227,0,0.451-0.007,0.678,0.001c0.839,0.03,1.65-0.11,2.441-0.384
		c0.08-0.028,0.144-0.104,0.216-0.158c-0.06-0.055-0.116-0.122-0.185-0.164c-0.14-0.083-0.303-0.136-0.428-0.235
		c-0.061-0.05-0.064-0.175-0.092-0.267c0.09-0.024,0.2-0.092,0.275-0.065c0.387,0.14,0.769,0.296,1.147,0.463
		c0.281,0.125,0.297,0.319,0.034,0.483c-0.796,0.498-1.681,0.699-2.608,0.723c-0.337,0.009-0.677-0.007-1.008-0.047
		c-0.173-0.021-0.337-0.118-0.506-0.181C76.828,74.354,76.841,74.296,76.853,74.239z"/>
	<path fill="#010101" d="M114.614,50.459c-0.539,0-1.037-0.501-1.04-1.043c-0.002-0.595,0.494-1.12,1.066-1.127
		c0.576-0.008,1.084,0.496,1.073,1.069C115.707,49.93,115.178,50.459,114.614,50.459z M115.449,49.391
		c-0.003-0.483-0.364-0.845-0.842-0.842c-0.413,0.002-0.758,0.345-0.758,0.754c0,0.506,0.356,0.889,0.828,0.893
		C115.109,50.199,115.452,49.841,115.449,49.391z"/>
	<path fill="#FFFFFF" d="M113.731,31.585c-0.294,0.124-0.563,0.229-0.825,0.351c-0.205,0.095-0.252,0.277-0.226,0.486
		c0.033,0.249-0.061,0.417-0.279,0.549c-0.16,0.097-0.286,0.251-0.431,0.376c-0.055,0.049-0.115,0.102-0.182,0.124
		c-0.303,0.102-0.609,0.193-0.979,0.307c-0.15-0.157-0.363-0.373-0.566-0.599c-0.04-0.042-0.02-0.131-0.047-0.192
		c-0.04-0.099-0.082-0.21-0.155-0.285c-0.121-0.123-0.185-0.207-0.008-0.344c0.221-0.171,0.229-0.418,0.013-0.58
		c-0.17-0.128-0.121-0.243-0.061-0.396c0.038-0.094,0.066-0.229,0.025-0.311c-0.339-0.697-0.625-1.427-1.177-2.001
		c-0.054-0.054-0.069-0.202-0.032-0.271c0.303-0.599,0.629-1.186,0.937-1.783c0.082-0.159,0.123-0.337,0.188-0.505
		c0.063-0.163,0.182-0.232,0.362-0.227c0.827,0.024,1.653,0.037,2.482,0.062c0.386,0.012,0.767,0.05,1.152,0.06
		c0.206,0.005,0.258,0.089,0.259,0.286c0.001,0.25,0.051,0.5,0.075,0.75c0.005,0.045-0.002,0.096-0.015,0.141
		c-0.176,0.633-0.308,1.272-0.308,1.937c0,0.343-0.064,0.685-0.099,1.027C113.796,30.908,113.763,31.269,113.731,31.585z"/>
	<path fill="#FFFFFF" d="M108.602,26.273c-0.313,0.588-0.443,1.215-0.937,1.656c-0.281,0.254-0.547,0.443-0.942,0.229
		c-0.14-0.076-0.314-0.107-0.475-0.12c-0.444-0.035-0.698-0.31-0.841-0.686c-0.103-0.266-0.138-0.557-0.202-0.837
		c-0.047-0.204,0.036-0.293,0.244-0.266c0.16,0.021,0.32,0.045,0.509,0.073c-0.042,0.205-0.082,0.383-0.119,0.563
		c0.013,0.005,0.026,0.011,0.039,0.017c0.074-0.094,0.134-0.201,0.219-0.277c0.238-0.206,0.5-0.343,0.833-0.34
		c0.444,0.004,0.888-0.028,1.331-0.041C108.363,26.243,108.465,26.262,108.602,26.273z"/>
	<path fill="#FFFFFF" d="M94.159,31.567c0.106,0,0.185,0,0.271,0c-0.024,0.167-0.032,0.319-0.069,0.464
		c-0.018,0.076-0.067,0.153-0.123,0.207c-0.103,0.095-0.218,0.173-0.353,0.278c0.363,0.226,0.363,0.226-0.04,0.91
		c0.104,0.075,0.235,0.155,0.348,0.258c0.114,0.104,0.086,0.209-0.053,0.271c-0.159,0.071-0.443-0.048-0.527-0.211
		c-0.089-0.168-0.225-0.327-0.256-0.504c-0.02-0.116,0.113-0.257,0.178-0.387c0.033,0.006,0.066,0.012,0.101,0.019
		c-0.081-0.199-0.161-0.397-0.247-0.612c0.099-0.039,0.199-0.078,0.299-0.117c0.001-0.02,0.001-0.04,0.002-0.06
		c-0.111-0.03-0.224-0.059-0.38-0.1c0.044-0.096,0.063-0.208,0.13-0.271c0.147-0.144,0.07-0.241-0.041-0.336
		c-0.366-0.322-0.364-0.318-0.099-0.748c0.048-0.078,0.044-0.187,0.065-0.281c-0.026-0.018-0.056-0.035-0.079-0.052
		c0.137-0.057,0.275-0.113,0.356-0.146c0.097-0.182,0.18-0.318,0.242-0.465c0.022-0.056-0.001-0.133-0.008-0.201
		c-0.005-0.067-0.031-0.14-0.011-0.199c0.008-0.031,0.113-0.067,0.145-0.049c0.066,0.04,0.168,0.124,0.157,0.17
		c-0.028,0.142-0.074,0.299-0.169,0.405c-0.177,0.202-0.178,0.345,0.034,0.507c0.061,0.045,0.089,0.131,0.132,0.2
		c-0.068,0.041-0.137,0.083-0.203,0.124c-0.062,0.036-0.123,0.069-0.186,0.104c0.037,0.05,0.063,0.126,0.113,0.146
		c0.186,0.078,0.374,0.137,0.595,0.214C94.371,31.267,94.274,31.404,94.159,31.567z"/>
	<path fill="#FFFFFF" d="M93.351,34.978c-0.359-0.313-0.411-0.491-0.252-0.82c0.02-0.042,0.044-0.09,0.079-0.117
		c0.137-0.102,0.809,0.047,0.918,0.189c0.055,0.07,0.132,0.123,0.212,0.195c-0.167,0.08-0.305,0.118-0.42-0.078
		c-0.076-0.128-0.171-0.118-0.231,0.021c-0.108,0.246,0.007,0.504,0.208,0.694c0.096,0.09,0.105,0.289,0.121,0.442
		c0.008,0.086-0.057,0.179-0.063,0.196c0.155,0.203,0.306,0.353,0.397,0.532c0.085,0.162-0.009,0.255-0.195,0.229
		c-0.048-0.006-0.097-0.019-0.144-0.019c-0.09,0-0.179,0.008-0.269,0.013c0.033,0.082,0.066,0.165,0.101,0.246
		c0.005,0.008,0.02,0.014,0.02,0.021c0.013,0.146,0.023,0.291,0.036,0.437c-0.134-0.029-0.284-0.025-0.389-0.095
		c-0.133-0.089-0.187-0.233-0.064-0.401c0.172-0.239,0.165-0.597-0.024-0.833C93.165,35.549,93.245,35.262,93.351,34.978z"/>
	<path fill="#FFFFFF" d="M94.738,39.813c-0.225,0.379-0.524,0.518-0.918,0.436c-0.078-0.016-0.187-0.059-0.208-0.117
		c-0.021-0.051,0.039-0.164,0.095-0.21c0.162-0.133,0.339-0.25,0.515-0.366c0.117-0.078,0.242-0.144,0.436-0.257
		c-0.021,0.149-0.034,0.264-0.057,0.414C94.613,39.72,94.67,39.763,94.738,39.813z"/>
	<path fill="#FFFFFF" d="M93.111,32.883c0.031,0.041,0.056,0.063,0.052,0.07c-0.147,0.285-0.089,0.534,0.112,0.772
		c0.019,0.021-0.053,0.171-0.089,0.173c-0.104,0.006-0.304-0.023-0.308-0.054c-0.031-0.322-0.263-0.391-0.511-0.454
		c-0.023-0.006-0.033-0.06-0.07-0.13c0.107-0.008,0.187-0.014,0.264-0.02C92.568,32.825,92.947,33.035,93.111,32.883z"/>
	<path fill="#FFFFFF" d="M92.585,36.842c0.094,0.133,0.18,0.273,0.283,0.396c0.101,0.118,0.229,0.213,0.327,0.331
		c0.072,0.085,0.187,0.224,0.16,0.286c-0.066,0.151-0.207,0.132-0.337,0.031c-0.151-0.119-0.334-0.207-0.46-0.347
		c-0.103-0.113-0.152-0.281-0.191-0.432c-0.015-0.055,0.059-0.134,0.096-0.203C92.504,36.883,92.545,36.863,92.585,36.842z"/>
	<path fill="#FFFFFF" d="M94.746,38.071c0.169-0.172,0.284-0.314,0.425-0.427c0.067-0.051,0.177-0.053,0.268-0.056
		c0.019,0,0.073,0.108,0.057,0.135c-0.054,0.087-0.136,0.23-0.197,0.226c-0.193-0.015-0.253,0.093-0.326,0.231
		c-0.032,0.063-0.107,0.113-0.176,0.145c-0.098,0.046-0.204,0.07-0.309,0.104c0.001-0.099,0.002-0.198,0.003-0.296
		c0.001-0.054,0-0.108,0-0.183C94.609,38.005,94.7,38.05,94.746,38.071z"/>
	<path fill="#FFFFFF" d="M93.232,36.265c-0.153,0.182-0.261,0.309-0.365,0.436c-0.106-0.136-0.273-0.26-0.303-0.412
		c-0.031-0.16,0.086-0.364,0.304-0.322C92.984,35.989,93.078,36.132,93.232,36.265z"/>
	<path fill="#FFFFFF" d="M92.472,35.217c0.412,0.072,0.595,0.231,0.529,0.463c-0.058,0.206-0.209,0.194-0.366,0.147
		C92.396,35.757,92.346,35.56,92.472,35.217z"/>
	<path fill="#FFFFFF" d="M105.092,41.835c-0.475-0.212-0.78-0.898-0.517-1.259C104.754,41.011,104.914,41.401,105.092,41.835z"/>
	<path fill="#FFFFFF" d="M94.151,38.682c-0.193,0.167-0.341,0.309-0.507,0.426c-0.04,0.028-0.158-0.004-0.199-0.048
		s-0.057-0.147-0.036-0.206C93.498,38.629,93.812,38.535,94.151,38.682z"/>
	<path fill="#FFFFFF" d="M92.807,32.085c-0.051-0.206-0.121-0.411-0.143-0.62c-0.006-0.062,0.12-0.139,0.186-0.209
		c0.087,0.117,0.248,0.237,0.239,0.348c-0.009,0.169-0.137,0.333-0.213,0.5C92.854,32.097,92.829,32.091,92.807,32.085z"/>
	<path fill="#FFFFFF" d="M93.157,38.708c-0.248,0.007-0.593-0.249-0.61-0.442c-0.005-0.05,0.019-0.122,0.055-0.151
		c0.036-0.028,0.11-0.033,0.157-0.015C92.942,38.171,93.129,38.456,93.157,38.708z"/>
	<path fill="#FFFFFF" d="M103.278,32.365c0.125,0.05,0.281,0.072,0.365,0.161c0.086,0.092,0.11,0.248,0.138,0.381
		c0.009,0.027-0.104,0.118-0.129,0.106c-0.098-0.045-0.21-0.1-0.267-0.185c-0.071-0.104-0.091-0.241-0.134-0.363
		C103.261,32.432,103.271,32.399,103.278,32.365z"/>
	<path fill="#FFFFFF" d="M103.457,33.216c-0.197,0.071-0.41,0.164-0.636,0.223c-0.067,0.017-0.171-0.046-0.236-0.098
		c-0.021-0.017-0.001-0.136,0.035-0.169C102.798,33.004,103.316,33.063,103.457,33.216z"/>
	<path fill="#FFFFFF" d="M103.423,31.321c0.099,0.127,0.218,0.244,0.288,0.386c0.029,0.057-0.05,0.167-0.079,0.253
		c-0.087-0.068-0.215-0.12-0.249-0.208c-0.044-0.109-0.011-0.249-0.011-0.376C103.39,31.358,103.405,31.34,103.423,31.321z"/>
	<path fill="#FFFFFF" d="M92.598,38.945c0.16,0.082,0.328,0.15,0.475,0.251c0.05,0.035,0.043,0.15,0.062,0.229
		c-0.093,0.004-0.225,0.049-0.271,0.005c-0.127-0.121-0.218-0.28-0.325-0.424C92.556,38.986,92.578,38.965,92.598,38.945z"/>
	<path fill="#FFFFFF" d="M96.071,34.859c0.089-0.102,0.152-0.174,0.216-0.246c0.064,0.097,0.153,0.188,0.181,0.294
		c0.008,0.038-0.133,0.139-0.218,0.159C96.214,35.075,96.146,34.949,96.071,34.859z"/>
	<path fill="#FFFFFF" d="M92.496,30.052c0.315,0.03,0.408,0.129,0.302,0.33c-0.023,0.045-0.076,0.101-0.119,0.101
		c-0.04,0-0.102-0.057-0.115-0.102C92.531,30.276,92.519,30.165,92.496,30.052z"/>
	<path fill="#FFFFFF" d="M96.518,35.782c0,0.123,0,0.246,0,0.37c-0.096-0.045-0.192-0.089-0.288-0.134
		c0.046-0.091,0.093-0.182,0.139-0.272C96.418,35.757,96.468,35.77,96.518,35.782z"/>
	<path fill="#FFFFFF" d="M116.474,28.461c-0.008,0.161-0.017,0.322-0.023,0.483c-0.026,0-0.054-0.002-0.08-0.002
		c0-0.161,0-0.321,0-0.481C116.406,28.46,116.44,28.46,116.474,28.461z"/>
	<path fill="#FFFFFF" d="M115.449,49.391c0.003,0.451-0.34,0.808-0.771,0.805c-0.472-0.004-0.828-0.387-0.828-0.893
		c0-0.409,0.345-0.751,0.758-0.754C115.085,48.546,115.446,48.907,115.449,49.391z"/>
</g>
<g>
	<g>
		<g>
			<g>
				<defs>
					<polygon id="SVGID_1_" points="93.976,25.005 113.074,27.687 108.04,50.681 88.943,48 					"/>
				</defs>
				<clipPath id="SVGID_2_">
					<use xlink:href="#SVGID_1_"  overflow="visible"/>
				</clipPath>
				<g transform="matrix(1 0 0 1 6.103516e-005 7.629395e-006)" clip-path="url(#SVGID_2_)">
				</g>
			</g>
		</g>
	</g>
</g>
<path fill="#FFFFFF" stroke="#FFFFFF" stroke-width="0.3871" stroke-miterlimit="10" d="M23.014,18.003"/>
<polygon fill="none" stroke="#010101" stroke-width="0.2903" stroke-miterlimit="10" points="73.765,18.303 23.069,18.093 
	25.85,82.117 65.132,105.451 123.293,77.457 130.226,17.358 "/>
<g>
	
		<image overflow="visible" enable-background="new    " width="448" height="532" xlink:href="BF8FBB1.png"  transform="matrix(0.0447 0.0039 -0.0036 0.0414 91.7852 25.3643)">
	</image>
</g>
</svg>
