<?xml version="1.0" encoding="iso-8859-1"?>
<!-- Generator: Adobe Illustrator 21.0.0, SVG Export Plug-In . SVG Version: 6.00 Build 0)  -->
<svg xmlns="http://www.w3.org/2000/svg" xmlns:xlink="http://www.w3.org/1999/xlink" version="1.1" id="Capa_1" x="0px" y="0px" viewBox="0 0 512 512" style="enable-background:new 0 0 512 512;" xml:space="preserve" width="512" height="512">
<g>
	<path style="fill:#B0FF9A;" d="M256,254.933c-8.284,0-15-6.716-15-15V127.467c0-8.284,6.716-15,15-15s15,6.716,15,15v112.466   C271,248.217,264.284,254.933,256,254.933z"/>
	<path style="fill:#B0FF9A;" d="M163.253,254.936c-5.184,0-10.226-2.69-13.004-7.502l-36.351-62.957   c-4.143-7.174-1.685-16.348,5.49-20.491c7.171-4.142,16.349-1.685,20.49,5.49l36.351,62.957c4.143,7.174,1.685,16.348-5.49,20.491   C168.378,254.287,165.798,254.936,163.253,254.936z"/>
	<path style="fill:#73FF5C;" d="M348.747,254.936c-2.546,0-5.124-0.648-7.487-2.012c-7.174-4.143-9.632-13.316-5.489-20.491   l36.352-62.957c4.144-7.175,13.316-9.631,20.491-5.49c7.174,4.143,9.632,13.316,5.489,20.491l-36.352,62.957   C358.973,252.245,353.93,254.936,348.747,254.936z"/>
	<path style="fill:#73FF5C;" d="M271,239.933V127.467c0-8.284-6.716-15-15-15v142.466C264.284,254.933,271,248.217,271,239.933z"/>
	<path style="fill:#B900FF;" d="M255.219,142.463c-43.638-0.423-78.485-36.633-78.485-80.274V15.359   c0-5.134,2.432-10.064,6.728-12.877c6.084-3.984,13.925-3.042,18.879,1.912l17.284,17.284c2.343,2.343,6.142,2.343,8.485,0   l17.285-17.284c5.858-5.858,15.355-5.858,21.213,0l17.285,17.284c2.343,2.343,6.142,2.343,8.485,0L309.66,4.394   c4.29-4.29,10.741-5.571,16.347-3.252c5.605,2.322,9.26,7.792,9.26,13.858v48.2C335.267,107.168,299.283,142.89,255.219,142.463z"/>
	<path style="fill:#B900FF;" d="M133.712,190.357c-38.003,21.453-86.287,7.518-108.107-30.276L2.189,119.524   c-2.567-4.447-2.926-9.932-0.612-14.516c3.277-6.492,10.539-9.597,17.306-7.783l23.61,6.326c3.201,0.858,6.491-1.042,7.348-4.243   l6.327-23.611c2.144-8.002,10.369-12.75,18.371-10.607l23.611,6.326c3.201,0.858,6.491-1.042,7.348-4.243l6.326-23.61   c1.57-5.86,6.516-10.196,12.531-10.99c6.015-0.792,11.915,2.118,14.948,7.372l24.1,41.742   C185.388,119.766,172.087,168.694,133.712,190.357z"/>
	<path style="fill:#8C00C4;" d="M378.288,190.357c38.003,21.453,86.287,7.518,108.107-30.276l23.416-40.557   c2.567-4.447,2.926-9.932,0.612-14.516c-3.277-6.492-10.539-9.597-17.306-7.783l-23.61,6.326c-3.201,0.858-6.491-1.042-7.348-4.243   l-6.327-23.611c-2.144-8.002-10.369-12.75-18.371-10.607l-23.611,6.326c-3.201,0.858-6.491-1.042-7.348-4.243l-6.326-23.61   c-1.57-5.86-6.516-10.196-12.531-10.99c-6.015-0.792-11.915,2.118-14.948,7.372l-24.1,41.742   C326.613,119.766,339.914,168.694,378.288,190.357z"/>
	<path style="fill:#8C00C4;" d="M335.267,63.2V15c0-6.067-3.654-11.537-9.26-13.858c-5.605-2.319-12.057-1.038-16.347,3.252   l-17.284,17.284c-2.343,2.343-6.142,2.343-8.485,0L266.607,4.393C263.678,1.465,259.839,0,256,0v142.467   C299.708,142.467,335.267,106.908,335.267,63.2z"/>
	<path style="fill:#F5F0E8;" d="M256,512c-5.359,0-10.311-2.859-12.99-7.5L94.594,247.433c-2.68-4.641-2.68-10.359,0-15   s7.631-7.5,12.99-7.5h296.832c5.359,0,10.311,2.859,12.99,7.5s2.68,10.359,0,15L268.99,504.5C266.311,509.141,261.359,512,256,512z   "/>
	<path style="fill:#EFE0D9;" d="M268.99,504.5l148.416-257.067c2.68-4.641,2.68-10.359,0-15s-7.631-7.5-12.99-7.5H256V512   C261.359,512,266.311,509.141,268.99,504.5z"/>
	<path style="fill:#DFCECC;" d="M256,512c-5.358,0-10.311-2.859-12.99-7.5l-74.212-128.533c-2.78-4.816-2.633-10.685,0.175-15.297   c23.839-41.172,58.207-75.5,99.409-99.288c41.3-23.845,88.337-36.449,136.026-36.449c5.359,0,10.314,2.859,12.994,7.5   s2.684,10.359,0.004,15L268.99,504.5C266.311,509.141,261.359,512,256,512z"/>
	<path style="fill:#CEBCBF;" d="M404.408,224.933c-47.689,0-94.727,12.604-136.026,36.449c-4.201,2.425-8.327,4.966-12.382,7.607   V512c5.359,0,10.311-2.859,12.99-7.5l148.416-257.067c2.68-4.641,2.676-10.359-0.004-15S409.768,224.933,404.408,224.933z"/>
</g>















</svg>
