<?xml version="1.0" encoding="iso-8859-1"?>
<!-- Generator: Adobe Illustrator 21.0.0, SVG Export Plug-In . SVG Version: 6.00 Build 0)  -->
<svg xmlns="http://www.w3.org/2000/svg" xmlns:xlink="http://www.w3.org/1999/xlink" version="1.1" id="Capa_1" x="0px" y="0px" viewBox="0 0 512 512" style="enable-background:new 0 0 512 512;" xml:space="preserve" width="512" height="512">
<g>
	<path style="fill:#3CD643;" d="M272.139,463.8h-16.066c-8.284,0-15-6.716-15-15c0-61.511,49.775-111.399,111.399-111.399h16.067   c8.284,0,15,6.716,15,15C383.54,413.925,333.767,463.8,272.139,463.8z"/>
	<path style="fill:#73FF5C;" d="M256.073,463.8h-16.067c-61.528,0-111.399-49.771-111.399-111.399c0-8.284,6.716-15,15-15h16.066   c61.514,0,111.4,49.776,111.4,111.399C271.073,457.084,264.357,463.8,256.073,463.8z"/>
	<path style="fill:#B0FF9A;" d="M256,512c-8.284,0-15-6.716-15-15V304.2c0-8.284,6.716-15,15-15s15,6.716,15,15V497   C271,505.284,264.284,512,256,512z"/>
	<path style="fill:#73FF5C;" d="M271,497V304.2c0-8.284-6.716-15-15-15V512C264.284,512,271,505.284,271,497z"/>
	<path style="fill:#FFF299;" d="M256,319.2c-22.417,0-42.933-12.315-53.462-30.514c-20.323,5.425-43.544-0.373-59.396-16.234   c-15.85-15.85-21.646-39.065-16.221-59.38C108.719,202.541,96.4,182.021,96.4,159.6c0-22.418,12.32-42.935,30.522-53.465   c-5.422-20.313,0.372-43.531,16.22-59.387c15.854-15.855,39.075-21.655,59.394-16.227C213.065,12.319,233.582,0,256,0   c22.419,0,42.936,12.318,53.465,30.522c20.316-5.426,43.531,0.372,59.387,16.22c15.852,15.86,21.647,39.08,16.226,59.393   c18.202,10.529,30.522,31.047,30.522,53.465c0,22.422-12.319,42.941-30.521,53.473c5.425,20.314-0.372,43.53-16.223,59.383   c-15.856,15.855-39.077,21.656-59.393,16.23C298.932,306.884,278.417,319.2,256,319.2z"/>
	<path style="fill:#FFDE00;" d="M415.6,159.6c0-22.42-12.32-42.94-30.52-53.47c5.42-20.31-0.38-43.53-16.23-59.39   C353,30.89,329.78,25.1,309.46,30.52C298.94,12.32,278.42,0,256,0v319.2c22.42,0,42.93-12.32,53.46-30.51   c20.32,5.42,43.54-0.38,59.4-16.23c15.85-15.86,21.64-39.07,16.22-59.39C403.28,202.54,415.6,182.02,415.6,159.6z"/>
	<path style="fill:#FFDE00;" d="M216.561,254.826c4.658,1.93,8.036,6.071,8.989,11.022C228.114,279.161,241.204,289.2,256,289.2   s27.887-10.039,30.45-23.353c0.954-4.951,4.331-9.092,8.99-11.021c4.657-1.93,9.974-1.39,14.15,1.438   c11.226,7.603,27.583,5.443,38.051-5.022c10.461-10.462,12.617-26.817,5.015-38.044c-2.828-4.176-3.368-9.492-1.438-14.151   s6.072-8.036,11.023-8.989c13.316-2.563,23.358-15.657,23.358-30.458c0-14.796-10.042-27.887-23.358-30.449   c-4.951-0.953-9.094-4.33-11.023-8.989s-1.39-9.976,1.438-14.151c7.603-11.226,5.445-27.586-5.018-38.055   c-10.463-10.457-26.821-12.614-38.048-5.012c-4.175,2.827-9.492,3.367-14.151,1.438c-4.658-1.93-8.036-6.071-8.989-11.022   C283.886,40.042,270.796,30,256,30s-27.887,10.042-30.449,23.358c-0.953,4.951-4.33,9.094-8.989,11.023   c-4.659,1.929-9.976,1.39-14.151-1.438c-11.228-7.604-27.588-5.449-38.052,5.015c-10.46,10.466-12.617,26.826-5.015,38.052   c2.828,4.176,3.368,9.492,1.438,14.151s-6.071,8.036-11.023,8.989c-13.316,2.563-23.358,15.653-23.358,30.449   c0,14.801,10.042,27.896,23.358,30.458c4.952,0.953,9.094,4.33,11.023,8.989s1.39,9.976-1.438,14.151   c-7.603,11.227-5.446,27.582,5.015,38.044c10.463,10.468,26.821,12.627,38.052,5.022C209.013,251.793,215.53,254.4,216.561,254.826   z"/>
	<path style="fill:#FFBF00;" d="M385.6,159.6c0,14.8-10.04,27.9-23.36,30.46c-4.95,0.95-9.09,4.33-11.02,8.99   c-1.93,4.66-1.39,9.97,1.44,14.15c7.6,11.22,5.44,27.58-5.02,38.04c-10.47,10.47-26.82,12.63-38.05,5.02   c-4.18-2.82-9.49-3.36-14.15-1.43c-4.66,1.93-8.04,6.07-8.99,11.02c-2.56,13.31-15.65,23.35-30.45,23.35V30   c14.8,0,27.89,10.04,30.45,23.36c0.95,4.95,4.33,9.09,8.99,11.02c4.66,1.93,9.98,1.39,14.15-1.44c11.23-7.6,27.59-5.44,38.05,5.02   c10.46,10.46,12.62,26.82,5.02,38.05c-2.83,4.18-3.37,9.49-1.44,14.15c1.93,4.66,6.07,8.04,11.02,8.99   C375.56,131.71,385.6,144.8,385.6,159.6z"/>
	<path style="fill:#FFBF00;" d="M256,222.8c-34.849,0-63.2-28.352-63.2-63.2S221.151,96.4,256,96.4s63.2,28.351,63.2,63.199   S290.848,222.8,256,222.8z"/>
	<path style="fill:#FFA000;" d="M256,96.4v126.4c34.85,0,63.2-28.35,63.2-63.2S290.85,96.4,256,96.4z"/>
</g>















</svg>
