<?xml version="1.0" encoding="iso-8859-1"?>
<!-- Generator: Adobe Illustrator 19.0.0, SVG Export Plug-In . SVG Version: 6.00 Build 0)  -->
<svg version="1.1" id="Capa_1" xmlns="http://www.w3.org/2000/svg" xmlns:xlink="http://www.w3.org/1999/xlink" x="0px" y="0px"
	 viewBox="0 0 512 512" style="enable-background:new 0 0 512 512;" xml:space="preserve">
<path style="fill:#FFA426;" d="M401.8,272l-18.9,24.3H132.4L110.2,272c13.5-18.001,7.8-27.001,0.3-34.501
	C100.901,228.5,107.8,212,121,212h270c13.2,0,20.099,16.5,10.499,25.499C393.999,244.999,388.299,253.999,401.8,272z"/>
<path style="fill:#FF873C;" d="M401.8,272l-18.9,24.3H256V212h135c13.2,0,20.099,16.5,10.499,25.499
	C393.999,244.999,388.299,253.999,401.8,272z"/>
<path style="fill:#8D5C4D;" d="M406,152H106c-24.901,0-45,20.099-45,45c0,24.899,20.099,45,45,45h300c24.901,0,45-20.101,45-45
	C451,172.099,430.901,152,406,152z"/>
<path style="fill:#805142;" d="M451,197c0,24.899-20.099,45-45,45H256v-90h150C430.901,152,451,172.099,451,197z"/>
<path style="fill:#704639;" d="M449.2,392c-0.601,0.3-21.301,13.2-22.2,13.799c0,1.501,14.7,15.601,15.3,16.201
	c-0.901,2.1-1.501,4.499-2.401,6.599C418.9,479.299,370,512,315.099,512H196.901C142,512,93.1,479.299,72.1,428.599
	c-0.899-2.1-1.5-4.499-2.401-6.599l18.6-18.001L62.8,392c-0.899-10.501-1.199-21,0.3-31.8c2.401-20.4,9.901-40.201,22.2-58.2
	c13.801-19.801,15.601-17.401,24.901-30H401.8c9.3,12.599,11.1,10.199,24.901,30c12.299,17.999,19.799,37.8,22.2,58.2
	C450.399,371,450.099,381.499,449.2,392z"/>
<path style="fill:#5E382C;" d="M449.2,392c-0.601,0.3-21.301,13.2-22.2,13.799c0,1.501,14.7,15.601,15.3,16.201
	c-0.901,2.1-1.501,4.499-2.401,6.599C418.9,479.299,370,512,315.099,512H256V272h145.8c9.3,12.599,11.1,10.199,24.901,30
	c12.299,17.999,19.799,37.8,22.2,58.2C450.399,371,450.099,381.499,449.2,392z"/>
<path style="fill:#1EA1E3;" d="M16.5,14.399L0,30v15c0,41.4,33.6,75,75,75s75-33.6,75-75V15c0-0.3,0-0.3,0-0.601H16.5z"/>
<path style="fill:#2B75AD;" d="M492.8,14.399H362c0,0.3,0,0.3,0,0.601v30c0,41.4,33.6,75,75,75s75-33.6,75-75V30L492.8,14.399z"/>
<path style="fill:#06CCAB;" d="M90,14.399c0,0.3,0,0.3,0,0.601v30c0,8.399-6.599,15-15,15s-15-6.601-15-15V15c0-0.3,0-0.3,0-0.601
	H90z"/>
<path style="fill:#11A892;" d="M452,14.399c0,0.3,0,0.3,0,0.601v30c0,8.399-6.599,15-15,15s-15-6.601-15-15V15c0-0.3,0-0.3,0-0.601
	H452z"/>
<path style="fill:#FFBC36;" d="M359.801,392c-2.701-20.101-9.3-52.2-17.701-90l-6.599-30c-4.501-19.501-9.3-39.6-14.401-60
	c-22.2-90.3-45.899-180.901-50.7-198.9h-28.799c-4.801,17.999-28.5,108.6-50.7,198.9C185.8,232.4,181,252.499,176.5,272l-6.599,30
	c-8.401,37.8-15,69.899-17.701,90H62.8c0.901,10.499,3.3,20.4,6.899,30H442.3c3.6-9.6,5.999-19.501,6.899-30H359.801z M182.5,392
	c2.701-19.501,9.3-51.601,18.001-90l6.899-30c4.501-19.501,9.6-39.6,14.7-60c11.4-47.401,23.699-95.7,33.9-135.601
	c10.201,39.901,22.5,88.2,33.9,135.601c5.099,20.4,10.199,40.499,14.7,60l6.899,30c8.701,38.399,15.3,70.499,18.001,90H182.5z"/>
<path style="fill:#FFA426;" d="M449.2,392c-0.901,10.499-3.3,20.4-6.899,30H256v-30h73.5c-2.701-19.501-9.3-51.601-18.001-90
	l-6.899-30c-4.501-19.501-9.6-39.6-14.7-60c-11.4-47.401-23.699-95.7-33.9-135.601V13.1h14.399c4.801,17.999,28.5,108.6,50.7,198.9
	c5.101,20.4,9.901,40.499,14.401,60l6.599,30c8.401,37.8,15,69.899,17.701,90H449.2z"/>
<path style="fill:#BC6829;" d="M512,15v15H0V15C0,6.599,6.599,0,15,0h482C505.401,0,512,6.599,512,15z"/>
<path style="fill:#9E5015;" d="M512,15v15H256V0h241C505.401,0,512,6.599,512,15z"/>
<g>
</g>
<g>
</g>
<g>
</g>
<g>
</g>
<g>
</g>
<g>
</g>
<g>
</g>
<g>
</g>
<g>
</g>
<g>
</g>
<g>
</g>
<g>
</g>
<g>
</g>
<g>
</g>
<g>
</g>
</svg>
