<svg height="512pt" viewBox="0 0 512 512" width="512pt" xmlns="http://www.w3.org/2000/svg"><g fill="#c68a65"><path d="m454.359375 316.3125c0 15.871094-12.863281 28.734375-28.734375 28.734375s-28.734375-12.863281-28.734375-28.734375c0-15.867188 12.863281-28.734375 28.734375-28.734375s28.734375 12.867187 28.734375 28.734375zm0 0"/><path d="m224.402344 86.359375c0 15.867187-12.863282 28.734375-28.730469 28.734375-15.871094 0-28.734375-12.867188-28.734375-28.734375 0-15.871094 12.863281-28.734375 28.734375-28.734375 15.867187 0 28.730469 12.863281 28.730469 28.734375zm0 0"/><path d="m454.359375 86.359375c0 15.867187-12.863281 28.734375-28.734375 28.734375s-28.734375-12.867188-28.734375-28.734375c0-15.871094 12.863281-28.734375 28.734375-28.734375s28.734375 12.863281 28.734375 28.734375zm0 0"/><path d="m224.402344 316.3125c0 15.871094-12.863282 28.734375-28.730469 28.734375-15.871094 0-28.734375-12.863281-28.734375-28.734375 0-15.867188 12.863281-28.734375 28.734375-28.734375 15.867187 0 28.730469 12.867187 28.730469 28.734375zm0 0"/><path d="m339.382812 363.9375c0 15.871094-12.867187 28.734375-28.734374 28.734375-15.871094 0-28.734376-12.863281-28.734376-28.734375 0-15.867188 12.863282-28.734375 28.734376-28.734375 15.867187 0 28.734374 12.867187 28.734374 28.734375zm0 0"/><path d="m339.382812 38.734375c0 15.867187-12.867187 28.734375-28.734374 28.734375-15.871094 0-28.734376-12.867188-28.734376-28.734375 0-15.871094 12.863282-28.734375 28.734376-28.734375 15.867187 0 28.734374 12.863281 28.734374 28.734375zm0 0"/><path d="m501.984375 201.335938c0 15.871093-12.863281 28.734374-28.734375 28.734374-15.867188 0-28.734375-12.863281-28.734375-28.734374 0-15.867188 12.867187-28.734376 28.734375-28.734376 15.871094 0 28.734375 12.867188 28.734375 28.734376zm0 0"/><path d="m176.777344 201.335938c0 15.871093-12.863282 28.734374-28.734375 28.734374-15.867188 0-28.730469-12.863281-28.730469-28.734374 0-15.867188 12.863281-28.734376 28.730469-28.734376 15.871093 0 28.734375 12.867188 28.734375 28.734376zm0 0"/><path d="m489.605469 263.5625c0 15.867188-12.863281 28.734375-28.734375 28.734375-15.867188 0-28.730469-12.867187-28.730469-28.734375 0-15.871094 12.863281-28.734375 28.730469-28.734375 15.871094 0 28.734375 12.863281 28.734375 28.734375zm0 0"/><path d="m189.15625 139.109375c0 15.871094-12.863281 28.734375-28.734375 28.734375-15.867187 0-28.734375-12.863281-28.734375-28.734375 0-15.867187 12.867188-28.734375 28.734375-28.734375 15.871094 0 28.734375 12.867188 28.734375 28.734375zm0 0"/><path d="m401.605469 51.109375c0 15.871094-12.863281 28.734375-28.730469 28.734375-15.871094 0-28.734375-12.863281-28.734375-28.734375 0-15.867187 12.863281-28.730469 28.734375-28.730469 15.867188 0 28.730469 12.863282 28.730469 28.730469zm0 0"/><path d="m277.15625 351.5625c0 15.867188-12.863281 28.734375-28.734375 28.734375s-28.734375-12.867187-28.734375-28.734375c0-15.871094 12.863281-28.734375 28.734375-28.734375s28.734375 12.863281 28.734375 28.734375zm0 0"/><path d="m401.605469 351.5625c0 15.867188-12.863281 28.734375-28.730469 28.734375-15.871094 0-28.734375-12.867187-28.734375-28.734375 0-15.871094 12.863281-28.734375 28.734375-28.734375 15.867188 0 28.730469 12.863281 28.730469 28.734375zm0 0"/><path d="m277.15625 51.109375c0 15.871094-12.863281 28.734375-28.734375 28.734375s-28.734375-12.863281-28.734375-28.734375c0-15.867187 12.863281-28.730469 28.734375-28.730469s28.734375 12.863282 28.734375 28.730469zm0 0"/><path d="m489.605469 139.109375c0 15.871094-12.863281 28.734375-28.734375 28.734375-15.867188 0-28.730469-12.863281-28.730469-28.734375 0-15.867187 12.863281-28.734375 28.730469-28.734375 15.871094 0 28.734375 12.867188 28.734375 28.734375zm0 0"/><path d="m189.15625 263.5625c0 15.867188-12.863281 28.734375-28.734375 28.734375-15.867187 0-28.734375-12.867187-28.734375-28.734375 0-15.871094 12.867188-28.734375 28.734375-28.734375 15.871094 0 28.734375 12.863281 28.734375 28.734375zm0 0"/></g><path d="m155.34375 396.703125-39.898438-39.894531 20.09375-20.09375c11.019532-11.015625 28.878907-11.015625 39.898438 0 11.015625 11.015625 11.015625 28.878906 0 39.894531zm0 0" fill="#ffcb7c"/><path d="m155.34375 396.703125-70.386719 99.53125c-4.882812 6.902344-14.804687 7.75-20.78125 1.769531l-50.175781-50.175781c-5.988281-5.984375-5.132812-15.917969 1.785156-20.792969l99.660156-70.226562" fill="#ff6977"/><path d="m511.984375 201.335938c0-15.8125-9.53125-29.433594-23.144531-35.445313 10.277344-10.761719 13.871094-26.992187 7.820312-41.601563-3.960937-9.558593-11.40625-17.003906-20.964844-20.964843-4.503906-1.863281-9.222656-2.839844-13.953124-2.945313 1.710937-4.414062 2.617187-9.144531 2.617187-14.019531 0-10.347656-4.03125-20.074219-11.34375-27.390625-7.316406-7.3125-17.046875-11.34375-27.390625-11.34375-4.875 0-9.609375.90625-14.019531 2.617188-.109375-4.730469-1.082031-9.449219-2.949219-13.953126-3.957031-9.558593-11.402344-17.003906-20.960938-20.960937-14.609374-6.054687-30.839843-2.460937-41.601562 7.8125-6.011719-13.609375-19.632812-23.140625-35.445312-23.140625s-29.433594 9.53125-35.445313 23.144531c-10.765625-10.277343-26.996094-13.867187-41.605469-7.816406-9.558594 3.957031-17.003906 11.402344-20.960937 20.960937-1.867188 4.503907-2.839844 9.222657-2.949219 13.953126-4.410156-1.710938-9.144531-2.617188-14.019531-2.617188-10.34375 0-20.070313 4.03125-27.386719 11.34375-7.316406 7.316406-11.347656 17.046875-11.347656 27.390625 0 4.875.90625 9.609375 2.617187 14.019531-4.730469.109375-9.449219 1.082032-13.953125 2.949219-9.558594 3.957031-17.003906 11.402344-20.960937 20.960937-3.960938 9.5625-3.960938 20.089844 0 29.644532 1.867187 4.511718 4.519531 8.542968 7.792969 11.96875-13.601563 6.015625-23.121094 19.628906-23.121094 35.433594 0 15.804687 9.519531 29.421874 23.121094 35.4375-3.273438 3.425781-5.925782 7.457031-7.792969 11.96875-3.960938 9.558593-3.960938 20.085937-.003907 29.644531 3.960938 9.558593 11.40625 17 20.964844 20.960937 4.503906 1.863282 9.222656 2.839844 13.953125 2.949219-1.710937 4.410156-2.617187 9.144531-2.617187 14.019531 0 .726563.027344 1.453125.066406 2.175782-.503906-.019532-1.007812-.039063-1.515625-.039063-10.207031 0-19.800781 3.976563-27.019531 11.191406l-19.484375 19.484375-98.957031 69.730469c-5.714844 4.027344-9.335938 10.332031-9.9375005 17.296875-.5976565 6.964844 1.8945315 13.796875 6.8398435 18.742188l50.175781 50.179687c4.460938 4.457031 10.457032 6.921875 16.703126 6.921875.671874 0 1.34375-.027344 2.019531-.085938 6.960937-.59375 13.261719-4.203124 17.292969-9.90625 3.191406-4.507812 2.121093-10.746093-2.390626-13.9375-4.507812-3.1875-10.746093-2.117187-13.9375 2.394532-.847656 1.199218-2.03125 1.46875-2.660156 1.523437-.636718.050781-1.84375-.011719-2.882812-1.054687l-50.179688-50.175782c-1.042968-1.042968-1.105468-2.257812-1.050781-2.886718.050781-.632813.324219-1.8125 1.527344-2.664063l92.78125-65.378906 27.984375 27.984375-13.53125 19.132812c-3.1875 4.507813-2.117188 10.746094 2.394531 13.9375 1.75 1.238282 3.765625 1.835938 5.761719 1.835938 3.136718 0 6.226562-1.472656 8.175781-4.226562l17.902344-25.320313 19.492187-19.492187c7.214844-7.214844 11.191406-16.8125 11.191406-27.019532 0-.558594-.015624-1.113281-.042968-1.667968.667968.035156 1.339844.054687 2.011718.054687 4.875 0 9.609376-.90625 14.019532-2.617187.109375 4.730468 1.085937 9.449218 2.949218 13.953124 3.960938 9.558594 11.402344 17.003907 20.960938 20.964844 4.78125 1.976563 9.804688 2.96875 14.824219 2.96875 5.023437 0 10.042969-.992187 14.824219-2.972656 4.507812-1.867188 8.539062-4.519531 11.964843-7.796875 6.015625 13.605469 19.632813 23.125 35.4375 23.125 15.804688 0 29.417969-9.519531 35.4375-23.125 3.421875 3.277344 7.453125 5.929687 11.964844 7.796875 4.78125 1.980469 9.800781 2.972656 14.820313 2.972656 5.023437 0 10.046874-.992187 14.824218-2.96875 9.558594-3.960937 17.003906-11.40625 20.960938-20.964844 1.867187-4.503906 2.84375-9.222656 2.949218-13.953124 4.414063 1.710937 9.144532 2.617187 14.019532 2.617187 10.347656 0 20.074218-4.03125 27.390625-11.347656 7.3125-7.3125 11.34375-17.039063 11.34375-27.386719 0-4.875-.90625-9.609375-2.617188-14.019531 4.730469-.109375 9.453125-1.082031 13.953125-2.949219 9.558594-3.957031 17.003906-11.402344 20.964844-20.960938 6.050781-14.609374 2.457031-30.839843-7.816406-41.605468 13.613281-6.007813 23.144531-19.628906 23.144531-35.441406zm-86.894531 47.402343c-3.855469 9.300781-3.945313 19.515625-.304688 28.863281-10.03125.210938-19.429687 4.207032-26.550781 11.324219-7.121094 7.121094-11.113281 16.527344-11.324219 26.566407-8.984375-3.496094-19.269531-3.6875-28.859375.28125-9.304687 3.855468-16.597656 11.019531-20.628906 20.214843-6.960937-6.671875-16.394531-10.78125-26.773437-10.78125-10.378907 0-19.8125 4.109375-26.773438 10.78125-4.035156-9.195312-11.324219-16.359375-20.628906-20.210937-9.589844-3.972656-19.878906-3.78125-28.863282-.285156-.207031-10.039063-4.203124-19.445313-11.324218-26.566407-7.121094-7.121093-16.53125-11.117187-26.570313-11.324219 3.5-8.984374 3.691407-19.273437-.28125-28.863281-3.855469-9.304687-11.019531-16.59375-20.210937-20.628906 6.671875-6.960937 10.78125-16.394531 10.78125-26.773437 0-10.378907-4.109375-19.8125-10.78125-26.773438 9.195312-4.03125 16.359375-11.324219 20.214844-20.628906 3.96875-9.589844 3.78125-19.878906.28125-28.863282 10.039062-.207031 19.445312-4.203124 26.566406-11.324218 7.117187-7.117188 11.113281-16.519532 11.324218-26.550782 4.542969 1.773438 9.289063 2.667969 14.039063 2.667969 5.019531 0 10.042969-.988281 14.824219-2.96875 9.59375-3.976562 16.738281-11.390625 20.613281-20.226562 6.964844 6.679687 16.402344 10.796875 26.789063 10.796875 10.378906 0 19.8125-4.113282 26.773437-10.78125 4.03125 9.195312 11.324219 16.355468 20.628906 20.210937 4.777344 1.980469 9.800781 2.96875 14.820313 2.96875 4.75 0 9.496094-.894531 14.039062-2.664062.214844 10.027343 4.210938 19.429687 11.324219 26.546875 7.117187 7.117187 16.519531 11.113281 26.550781 11.324218-3.644531 9.347657-3.550781 19.5625.300782 28.863282 3.855468 9.304687 11.019531 16.59375 20.210937 20.628906-6.667969 6.960938-10.78125 16.390625-10.78125 26.773438 0 10.386718 4.117187 19.824218 10.796875 26.785156-8.832031 3.878906-16.25 11.023437-20.222656 20.617187zm53.089844-116.796875c3.953124 9.542969-.59375 20.523438-10.136719 24.476563-4.625 1.917969-9.71875 1.917969-14.339844 0-4.621094-1.914063-8.222656-5.515625-10.140625-10.140625-1.914062-4.621094-1.914062-9.710938 0-14.335938s5.515625-8.222656 10.140625-10.140625c2.3125-.957031 4.738281-1.433593 7.167969-1.433593 2.429687 0 4.859375.476562 7.171875 1.433593 4.621093 1.917969 8.222656 5.515625 10.136719 10.140625zm-52.554688-64.316406c5.003906 0 9.710938 1.949219 13.246094 5.484375 3.539062 3.539063 5.488281 8.246094 5.488281 13.25s-1.949219 9.707031-5.488281 13.246094c-3.535156 3.539062-8.242188 5.488281-13.246094 5.488281s-9.707031-1.949219-13.246094-5.488281c-3.539062-3.539063-5.488281-8.242188-5.488281-13.246094s1.949219-9.710937 5.488281-13.25c3.539063-3.535156 8.242188-5.484375 13.246094-5.484375zm-70.0625-23.683594c2.988281-7.207031 9.980469-11.566406 17.332031-11.566406 2.386719 0 4.8125.460938 7.148438 1.425781v.003907c4.621093 1.914062 8.222656 5.515624 10.136719 10.136718 1.917968 4.625 1.917968 9.714844 0 14.339844-1.914063 4.625-5.515626 8.222656-10.136719 10.140625-4.621094 1.914063-9.714844 1.914063-14.339844-.003906-4.621094-1.914063-8.222656-5.515625-10.136719-10.136719-1.917968-4.625-1.917968-9.71875-.003906-14.339844zm-44.914062-23.941406c10.328124 0 18.730468 8.402344 18.730468 18.734375 0 10.328125-8.402344 18.730469-18.730468 18.730469-10.332032 0-18.734376-8.402344-18.734376-18.730469 0-10.332031 8.402344-18.734375 18.734376-18.734375zm-79.535157 23.941406c1.914063-4.621094 5.515625-8.222656 10.140625-10.140625 2.335938-.96875 4.757813-1.425781 7.144532-1.425781 7.355468 0 14.347656 4.359375 17.332031 11.566406 3.953125 9.542969-.59375 20.523438-10.140625 24.476563-4.621094 1.914062-9.714844 1.914062-14.335938 0-4.625-1.914063-8.226562-5.515625-10.140625-10.140625-1.914062-4.621094-1.914062-9.714844 0-14.335938zm-48.691406 29.167969c3.539063-3.535156 8.246094-5.484375 13.25-5.484375 5 0 9.707031 1.949219 13.246094 5.484375 3.539062 3.539063 5.484375 8.246094 5.484375 13.25s-1.945313 9.707031-5.484375 13.246094c-3.539063 3.539062-8.246094 5.488281-13.246094 5.488281-5.003906 0-9.710937-1.949219-13.25-5.488281-3.539063-3.539063-5.484375-8.242188-5.484375-13.246094s1.945312-9.710937 5.484375-13.25zm-39.308594 58.832031c1.914063-4.625 5.515625-8.222656 10.140625-10.140625 2.3125-.957031 4.738282-1.433593 7.167969-1.433593s4.855469.476562 7.167969 1.433593c9.542968 3.953125 14.09375 14.933594 10.140625 24.476563-1.914063 4.625-5.515625 8.226562-10.140625 10.140625-4.621094 1.917969-9.714844 1.917969-14.335938 0-4.625-1.914063-8.226562-5.515625-10.140625-10.136719-1.914062-4.625-1.914062-9.714844 0-14.339844zm4.929688 50.660156c10.332031 0 18.734375 8.402344 18.734375 18.734376 0 10.328124-8.402344 18.734374-18.734375 18.734374-10.328125 0-18.730469-8.40625-18.730469-18.734374 0-10.328126 8.402344-18.734376 18.730469-18.734376zm-4.929688 88.128907c-1.914062-4.621094-1.914062-9.714844 0-14.339844 1.914063-4.621094 5.515625-8.222656 10.140625-10.136719 2.335938-.96875 4.757813-1.425781 7.144532-1.425781 7.355468 0 14.347656 4.355469 17.332031 11.5625 3.953125 9.542969-.59375 20.523437-10.140625 24.476563-4.621094 1.914062-9.714844 1.917968-14.335938 0-4.625-1.910157-8.226562-5.511719-10.140625-10.136719zm25.25 98.808593-13.019531 13.023438-25.753906-25.757812 13.019531-13.019532c3.4375-3.4375 8.011719-5.332031 12.878906-5.332031 4.863281 0 9.4375 1.894531 12.875 5.332031 3.441407 3.4375 5.335938 8.011719 5.335938 12.875 0 4.867188-1.894531 9.441406-5.335938 12.878906zm27.308594-34.492187c-5.003906 0-9.710937-1.945313-13.25-5.484375s-5.484375-8.242188-5.484375-13.246094 1.945312-9.710937 5.484375-13.25c3.539063-3.535156 8.246094-5.484375 13.25-5.484375 5 0 9.707031 1.949219 13.246094 5.484375 3.539062 3.539063 5.484375 8.246094 5.484375 13.25s-1.945313 9.707032-5.484375 13.246094c-3.539063 3.535156-8.246094 5.484375-13.246094 5.484375zm70.058594 23.683594c-1.917969 4.625-5.515625 8.222656-10.140625 10.140625-4.621094 1.914062-9.714844 1.914062-14.335938 0-4.625-1.917969-8.226562-5.515625-10.140625-10.140625-1.914062-4.621094-1.914062-9.714844 0-14.339844 2.984375-7.207031 9.976563-11.5625 17.332031-11.5625 2.386719 0 4.808594.457031 7.144532 1.425781 9.546875 3.953125 14.09375 14.933594 10.140625 24.476563zm44.917969 23.941406c-10.332032 0-18.734376-8.402344-18.734376-18.734375 0-10.328125 8.402344-18.730469 18.734376-18.730469 10.328124 0 18.730468 8.402344 18.730468 18.730469.003906 10.332031-8.402344 18.734375-18.730468 18.734375zm79.53125-23.941406c-1.914063 4.625-5.515626 8.222656-10.140626 10.140625-4.621093 1.914062-9.710937 1.914062-14.335937 0-4.625-1.917969-8.222656-5.515625-10.140625-10.140625-1.914062-4.625-1.914062-9.714844 0-14.339844 1.917969-4.621094 5.515625-8.222656 10.140625-10.136719 2.335937-.96875 4.757813-1.429687 7.144531-1.429687 7.355469 0 14.347656 4.359375 17.332032 11.566406 1.917968 4.625 1.917968 9.71875 0 14.339844zm48.691406-29.171875c-3.535156 3.539062-8.242188 5.488281-13.246094 5.488281s-9.707031-1.949219-13.246094-5.488281c-3.539062-3.535156-5.488281-8.242188-5.488281-13.246094s1.949219-9.707031 5.488281-13.246094c3.539063-3.539062 8.242188-5.484375 13.246094-5.484375s9.710938 1.945313 13.246094 5.484375c3.539062 3.539063 5.488281 8.242188 5.488281 13.246094s-1.949219 9.710938-5.488281 13.246094zm39.308594-58.828125c-1.914063 4.625-5.515626 8.226562-10.136719 10.140625-4.625 1.914062-9.714844 1.914062-14.339844-.003906-4.625-1.910157-8.226563-5.511719-10.140625-10.136719-1.914062-4.621094-1.914062-9.714844 0-14.339844 2.988281-7.207031 9.980469-11.5625 17.335938-11.5625 2.382812 0 4.808593.457031 7.144531 1.425781 9.542969 3.953125 14.09375 14.933594 10.136719 24.476563zm-4.929688-50.660157c-10.328125 0-18.734375-8.402343-18.734375-18.734374 0-10.328126 8.40625-18.734376 18.734375-18.734376 10.332031 0 18.734375 8.40625 18.734375 18.734376 0 10.332031-8.402344 18.734374-18.734375 18.734374zm0 0"/><path d="m111.027344 449.492188c-2.640625 0-5.21875 1.070312-7.066406 2.929687-1.871094 1.859375-2.933594 4.441406-2.933594 7.070313 0 2.628906 1.0625 5.210937 2.933594 7.070312 1.859374 1.859375 4.429687 2.929688 7.066406 2.929688 2.632812 0 5.199218-1.070313 7.070312-2.929688 1.859375-1.859375 2.929688-4.441406 2.929688-7.070312 0-2.628907-1.070313-5.210938-2.929688-7.070313s-4.4375-2.929687-7.070312-2.929687zm0 0"/></svg>