<svg height="511.999pt" viewBox="1 1 511.999 511.999" width="511.999pt" xmlns="http://www.w3.org/2000/svg"><g fill-rule="evenodd"><path d="m149.101562 148.199219c-3.652343 3.648437 1.34375 32.421875 14.332032 45.414062 26.34375 26.34375 57.425781-4.738281 31.082031-31.082031-12.992187-12.992188-41.761719-17.988281-45.414063-14.332031zm0 0" fill="#78d0a9"/><path d="m317.484375 162.53125c-26.34375 26.34375 4.738281 57.425781 31.082031 31.082031 12.988282-12.992187 17.984375-41.761719 14.332032-45.414062-3.652344-3.65625-32.421876 1.339843-45.414063 14.332031zm0 0" fill="#78d0a9"/><path d="m228.046875 52.25c0 37.253906 55.90625 37.253906 55.90625 0 0-3.613281-.828125-7.4375-2.203125-11.253906-5.632812-15.585938-20.472656-30.996094-25.75-30.996094s-20.117188 15.410156-25.75 30.996094c-1.378906 3.816406-2.203125 7.640625-2.203125 11.253906zm0 0" fill="#ff6977"/><path d="m476.605469 255.097656c0-22.628906-13.882813-42.015625-33.59375-50.109375 13.023437-16.867187 15.351562-40.597656 4.039062-60.195312-11.316406-19.597657-33.03125-29.441407-54.148437-26.597657 2.84375-21.117187-7-42.832031-26.601563-54.148437-19.597656-11.3125-43.324219-8.984375-60.191406 4.039063-4.761719-11.59375-13.429687-21.167969-24.359375-27.089844 1.375 3.816406 2.203125 7.640625 2.203125 11.253906 0 37.253906-55.90625 37.253906-55.90625 0 0-3.613281.824219-7.4375 2.207031-11.253906-10.9375 5.921875-19.601562 15.5-24.363281 27.089844-16.867187-13.023438-40.59375-15.351563-60.191406-4.039063-19.601563 11.316406-29.445313 33.03125-26.601563 54.148437-21.117187-2.84375-42.832031 7-54.148437 26.597657-11.3125 19.597656-8.984375 43.328125 4.042969 60.195312-19.714844 8.09375-33.597657 27.480469-33.597657 50.109375zm-128.039063-61.488281c-26.34375 26.347656-57.425781-4.734375-31.082031-31.078125 12.992187-12.992188 41.761719-17.988281 45.417969-14.335938 3.648437 3.652344-1.347656 32.425782-14.335938 45.414063zm-185.132812.003906c-12.988282-12.992187-17.984375-41.761719-14.332032-45.414062 3.652344-3.652344 32.421876 1.34375 45.414063 14.332031 26.34375 26.34375-4.738281 57.425781-31.082031 31.082031zm0 0" fill="#f8f8f8"/><path d="m374.042969 355.339844c28.523437 0 30.503906-33.585938 59.023437-33.585938 24.515625 0 29.421875 24.816406 48.433594 31.785156l.007812.003907c13.179688-30.144531 20.492188-63.441407 20.492188-98.445313h-492c0 35.007813 7.3125 68.304688 20.492188 98.449219l.007812-.007813c19.007812-6.96875 23.914062-31.785156 48.433594-31.785156 28.519531 0 30.5 33.585938 59.019531 33.585938 28.523437 0 30.503906-33.585938 59.023437-33.585938 28.523438 0 30.503907 33.585938 59.023438 33.585938s30.503906-33.585938 59.023438-33.585938c28.519531 0 30.5 33.585938 59.019531 33.585938zm0 0" fill="#ffc059"/><path d="m374.042969 355.339844c-28.519531 0-30.5-33.585938-59.019531-33.585938-28.523438 0-30.503907 33.585938-59.023438 33.585938s-30.503906-33.585938-59.023438-33.585938c-28.519531 0-30.503906 33.585938-59.023437 33.585938s-30.5-33.585938-59.023437-33.585938c-24.515626 0-29.421876 24.816406-48.429688 31.785156l-.007812.007813c24.472656 55.980469 69.1875 101.09375 124.886718 126.089844l-.015625 22.363281h201.273438l-.019531-22.363281c55.703124-24.996094 100.414062-70.109375 124.890624-126.09375l-.007812-.003907c-19.011719-6.96875-23.917969-31.785156-48.433594-31.785156-28.519531 0-30.5 33.585938-59.023437 33.585938zm0 0" fill="#ff9256"/></g><path d="m170.828125 139.445312c-14.273437-3.71875-23.964844-3.152343-28.796875 1.679688 0 .003906-.003906.003906-.003906.003906-4.832032 4.832032-5.398438 14.523438-1.679688 28.796875 1.941406 7.445313 6.605469 21.34375 16.015625 30.757813 7.855469 7.855468 16.894531 12.308594 26.136719 12.871094.644531.039062 1.28125.058593 1.921875.058593 8.082031 0 15.789063-3.117187 21.382813-8.714843 11.234374-11.234376 13.394531-31.824219-4.21875-49.4375-9.414063-9.414063-23.3125-14.074219-30.757813-16.015626zm20.835937 51.3125c-2.019531 2.015626-4.835937 3.03125-7.945312 2.835938-4.292969-.261719-8.863281-2.703125-13.214844-7.054688-7.269531-7.269531-11.296875-21.3125-12.332031-29.273437 7.960937 1.035156 22.003906 5.066406 29.273437 12.335937 8.761719 8.765626 8.433594 16.941407 4.21875 21.15625zm0 0"/><path d="m355.636719 200.683594c9.414062-9.414063 14.074219-23.3125 16.015625-30.757813 3.71875-14.277343 3.152344-23.964843-1.679688-28.800781-4.835937-4.835938-14.527344-5.398438-28.800781-1.679688-7.445313 1.941407-21.34375 6.601563-30.757813 16.015626-17.613281 17.613281-15.453124 38.203124-4.21875 49.4375 5.417969 5.417968 13.007813 8.726562 21.390626 8.726562 9.003906 0 18.929687-3.820312 28.050781-12.941406zm-31.082031-31.082032c7.273437-7.269531 21.3125-11.300781 29.273437-12.335937-1.03125 7.960937-5.0625 22.003906-12.332031 29.273437-8.765625 8.769532-16.941406 8.433594-21.15625 4.21875-4.21875-4.214843-4.546875-12.390624 4.214844-21.15625zm0 0"/><path d="m128.136719 208.347656c0-5.523437-4.476563-10-10-10-5.523438 0-10 4.476563-10 10v.007813c0 5.523437 4.476562 9.996093 10 9.996093 5.523437 0 10-4.480468 10-10.003906zm0 0"/><path d="m222.136719 129.351562c5.523437 0 10-4.480468 10-10.003906 0-5.523437-4.476563-10-10-10-5.523438 0-10 4.476563-10 10v.007813c0 5.523437 4.476562 9.996093 10 9.996093zm0 0"/><path d="m269.136719 187.347656c0-5.523437-4.480469-10-10-10-5.523438 0-10 4.476563-10 10v.007813c0 5.523437 4.476562 9.996093 10 9.996093 5.519531 0 10-4.480468 10-10.003906zm0 0"/><path d="m412.136719 183.347656c0-5.523437-4.480469-10-10-10-5.523438 0-10 4.476563-10 10v.007813c0 5.523437 4.476562 9.996093 10 9.996093 5.519531 0 10-4.480468 10-10.003906zm0 0"/><path d="m491.121094 356.230469c13.527344-31.398438 20.878906-65.710938 20.878906-101.132813 0-5.523437-4.480469-10-10-10h-16.171875c-2.820313-18.105468-13.21875-34.046875-28.582031-43.925781 9.875-19.167969 9.535156-42.199219-1.535156-61.378906-11.074219-19.179688-30.847657-30.988281-52.390626-32.019531-1.027343-21.539063-12.835937-41.3125-32.019531-52.386719-19.1875-11.082031-42.226562-11.414063-61.398437-1.523438-5.148438-7.964843-12.039063-14.738281-20.144532-19.765625-2.851562-6.570312-6.574218-12.1875-9.304687-15.84375-5.085937-6.816406-15.027344-18.253906-24.453125-18.253906-9.429688 0-19.367188 11.4375-24.457031 18.253906-2.730469 3.660156-6.453125 9.273438-9.300781 15.84375-8.105469 5.027344-14.996094 11.800782-20.144532 19.765625-19.175781-9.890625-42.210937-9.554687-61.398437 1.523438-19.1875 11.074219-30.996094 30.855469-32.023438 52.402343-3.753906.191407-7.5.710938-11.210937 1.566407-5.382813 1.238281-8.738282 6.605469-7.5 11.988281 1.0625 4.625 5.179687 7.757812 9.734375 7.757812.742187 0 1.496093-.082031 2.25-.257812 5.21875-1.199219 10.542969-1.449219 15.816406-.738281 3.089844.421875 6.199219-.636719 8.402344-2.839844 2.207031-2.207031 3.257812-5.316406 2.839843-8.40625-2.402343-17.828125 6.113282-35.160156 21.6875-44.152344 15.578126-8.992187 34.84375-7.699219 49.082032 3.292969 2.46875 1.90625 5.6875 2.554688 8.699218 1.746094 3.015626-.808594 5.480469-2.976563 6.664063-5.859375 1.183594-2.886719 2.671875-5.621094 4.421875-8.171875 4.863281 17.421875 20.722656 26.472656 36.4375 26.472656s31.574219-9.050781 36.4375-26.472656c1.75 2.550781 3.238281 5.285156 4.421875 8.167968 1.1875 2.886719 3.648437 5.054688 6.664063 5.863282 3.011718.804687 6.230468.160156 8.699218-1.746094 14.234375-10.992188 33.5-12.289062 49.082032-3.296875 15.574218 8.996094 24.089843 26.328125 21.6875 44.15625-.417969 3.089844.632812 6.199219 2.839843 8.402344 2.203125 2.207031 5.320313 3.261719 8.40625 2.839843 17.828125-2.394531 35.15625 6.113282 44.152344 21.691407 8.992187 15.574219 7.699219 34.839843-3.296875 49.082031-1.90625 2.46875-2.550781 5.683594-1.742188 8.695312.808594 3.015626 2.976563 5.480469 5.859376 6.664063 13.476562 5.535156 23.089843 17.105469 26.257812 30.859375h-418.9375c3.167969-13.753906 12.78125-25.324219 26.257812-30.859375 2.886719-1.183594 5.050782-3.648437 5.859376-6.664063.808593-3.011718.164062-6.226562-1.746094-8.699218-3.050782-3.953125-5.402344-8.382813-6.976563-13.164063-1.730469-5.242187-7.386719-8.09375-12.628906-6.363281-5.246094 1.730469-8.09375 7.386719-6.363281 12.628906 1.046875 3.175782 2.328125 6.242188 3.835937 9.191406-15.371093 9.875-25.777343 25.820313-28.601562 43.933594h-16.167969c-5.523438 0-10 4.476563-10 10 0 35.421875 7.347656 69.734375 20.875 101.128906.074219.253907.144531.503907.234375.753907.25.679687.566406 1.308593.933594 1.894531 24.328125 54.746094 67.53125 100.371094 123.332031 127.140625l-.011719 15.976563c0 2.652343 1.050781 5.199218 2.925781 7.074218 1.875 1.878906 4.421876 2.933594 7.074219 2.933594h201.273438c2.652343 0 5.199219-1.054688 7.074219-2.933594s2.925781-4.421875 2.925781-7.074218l-.015625-15.976563c55.800781-26.769531 99.007812-72.394531 123.332031-127.140625.371094-.585938.6875-1.214844.933594-1.894531.09375-.246094.164062-.5.234375-.75zm-235.121094-286.039063c-8.28125 0-17.953125-4.699218-17.953125-17.941406 0-2.261719.492187-4.691406 1.320313-7.164062.210937-.476563.390624-.96875.527343-1.472657 3.585938-9.308593 11.527344-18.925781 16.105469-22.605469 4.574219 3.679688 12.519531 13.296876 16.105469 22.605469.136719.503907.3125.996094.527343 1.472657.828126 2.472656 1.320313 4.902343 1.320313 7.164062 0 13.242188-9.671875 17.941406-17.953125 17.941406zm235.789062 194.90625c-1.085937 25.5625-6.320312 50.378906-15.15625 73.644532-2.203124-2.027344-4.355468-4.390626-6.648437-6.917969-8.121094-8.941407-18.230469-20.070313-36.914063-20.070313-18.6875 0-28.792968 11.128906-36.914062 20.070313-7.839844 8.632812-12.734375 13.519531-22.109375 13.519531-9.378906 0-14.269531-4.886719-22.109375-13.519531-8.117188-8.941407-18.226562-20.070313-36.914062-20.070313s-28.792969 11.128906-36.914063 20.070313c-7.839844 8.632812-12.730469 13.519531-22.105469 13.519531-9.378906 0-14.269531-4.886719-22.109375-13.519531-8.121093-8.941407-18.226562-20.070313-36.914062-20.070313s-28.796875 11.128906-36.917969 20.070313c-7.835938 8.632812-12.730469 13.519531-22.105469 13.519531-9.378906 0-14.269531-4.886719-22.109375-13.519531-8.121094-8.941407-18.226562-20.070313-36.914062-20.070313s-28.792969 11.128906-36.914063 20.070313c-2.292969 2.527343-4.445312 4.894531-6.648437 6.917969-8.839844-23.261719-14.070313-48.082032-15.15625-73.644532zm-139.265624 205.417969c-3.597657 1.613281-5.90625 5.1875-5.90625 9.128906l.011718 12.355469h-181.257812l.011718-12.355469c0-3.941406-2.3125-7.515625-5.90625-9.128906-51.640624-23.175781-92.136718-63.640625-115.894531-112.722656 5.242188-3.726563 9.410157-8.304688 13.242188-12.523438 7.839843-8.632812 12.730469-13.515625 22.109375-13.515625 9.375 0 14.265625 4.882813 22.105468 13.515625 8.121094 8.941407 18.226563 20.070313 36.914063 20.070313s28.792969-11.128906 36.917969-20.070313c7.835937-8.632812 12.730468-13.515625 22.105468-13.515625 9.378907 0 14.269532 4.882813 22.109376 13.515625 8.121093 8.941407 18.226562 20.070313 36.914062 20.070313s28.792969-11.128906 36.914062-20.070313c7.839844-8.632812 12.730469-13.515625 22.109376-13.515625 9.375 0 14.269531 4.882813 22.105468 13.515625 8.121094 8.941407 18.230469 20.070313 36.914063 20.070313 18.6875 0 28.796875-11.128906 36.917969-20.070313 7.839843-8.632812 12.730468-13.515625 22.105468-13.515625 9.378906 0 14.269532 4.882813 22.109375 13.515625 3.832031 4.21875 8 8.796875 13.242188 12.523438-23.757813 49.082031-64.253907 89.546875-115.894531 112.722656zm0 0"/><path d="m246.644531 432h-.007812c-5.523438 0-9.996094 4.476562-9.996094 10 0 5.519531 4.480469 10 10.003906 10 5.523438 0 10-4.480469 10-10 0-5.523438-4.480469-10-10-10zm0 0"/><path d="m346.636719 432h-59.996094c-5.523437 0-10 4.476562-10 10 0 5.519531 4.476563 10 10 10h59.996094c5.519531 0 10-4.480469 10-10 0-5.523438-4.476563-10-10-10zm0 0"/><path d="m59.988281 153.476562c1.566407.898438 3.269531 1.320313 4.953125 1.320313 3.472656 0 6.847656-1.808594 8.691406-5.039063l.003907-.007812c2.738281-4.796875 1.070312-10.898438-3.722657-13.640625-4.796874-2.742187-10.90625-1.070313-13.644531 3.726563-2.742187 4.792968-1.074219 10.902343 3.71875 13.640624zm0 0"/></svg>