<svg height="511pt" viewBox="-16 1 511 511.999" width="511pt" xmlns="http://www.w3.org/2000/svg"><g fill="#ff9256" fill-rule="evenodd"><path d="m118.964844 282.507812c90.65625 18.21875 115.828125 129.625 25.5625 134.402344-92.984375 4.917969-126.441406-106.273437-126.441406-106.273437-67.15625 276.011719 338.140624 228.6875 213.527343 15.253906 87.082031 15.25 69.371094-97.417969 131.359375-96.433594 24.601563-.492187 64.945313 36.410157 42.3125 99.382813-22.628906 62.976562-104.792968 37.394531-104.792968 37.394531 28.507812 83.179687 105.683593 68.71875 145.65625 22.796875 60.023437-68.957031-.03125-193.816406-77.148438-197.949219-93.808594-5.023437-83.523438 125.027344-183.144531 77.246094 77.242187-44.773437 35.421875-114.144531-11.316407-136.285156-46.738281-22.136719-106.761718 7.875-139.234374 33.457031l37.394531 53.628906c96.796875-106.554687 145.191406 30.074219 49.964843 40.402344-14.011718 1.519531-13.527343 21-3.699218 22.976562zm0 0"/><path d="m223.742188 82.84375c24.109374 156.453125 192.371093 38.375 192.371093 38.375l-38.375-48.214844c-93.972656 94.953125-153.996093 9.839844-153.996093 9.839844zm0 0"/><path d="m260.34375 47.492188 37.492188-37.492188 37.492187 37.492188-37.492187 37.492187zm0 0"/></g><path d="m319.929688 279.464844c13.050781-24.757813 22.125-40.011719 42.246093-40.011719.210938 0 .425781 0 .640625.003906.117188.003907.238282 0 .359375 0 .097657-.003906.195313-.003906.296875-.003906 12.816406 0 36.273438 16.257813 38.324219 49.285156.339844 5.511719 5.074219 9.71875 10.597656 9.363281 5.515625-.34375 9.707031-5.089843 9.363281-10.601562-1.199218-19.316406-8.667968-37.058594-21.035156-49.957031-10.898437-11.367188-24.773437-18.089844-37.257812-18.089844-.167969 0-.335938 0-.503906.003906-33.796876-.476562-48.089844 26.714844-60.726563 50.675781-15.011719 28.480469-27.980469 53.066407-68.898437 45.90625-3.832032-.675781-7.707032.941407-9.933594 4.136719-2.222656 3.195313-2.390625 7.390625-.425782 10.753907 30.320313 51.933593 30.171876 97.75-.414062 129.015624-34.007812 34.757813-99.097656 42.273438-145.105469 16.742188-26.230469-14.550781-65.277343-50.261719-55.542969-131.660156 4.316407 8.253906 9.765626 17.398437 16.464844 26.515625 26.789063 36.425781 61.34375 55.523437 100.28125 55.523437 2.117188 0 4.253906-.058594 6.398438-.171875 19.839844-1.050781 35.785156-6.796875 47.394531-17.074219 10.859375-9.617187 17.183594-22.695312 18.285156-37.816406 1.46875-20.171875-6.625-42.238281-22.207031-60.542968-16.46875-19.339844-40.082031-33.003907-66.582031-38.550782-.164063-.644531-.195313-1.6875.191406-2.523437.179687-.382813.363281-.777344 1.601563-.914063 38.640624-4.191406 56.191406-27.253906 59.734374-47.4375 3.621094-20.609375-5.75-40.238281-23.308593-48.84375-11.589844-5.679687-42.238281-13.332031-86.25 30.199219l-24.882813-35.679687c2.824219-2.011719 5.746094-3.980469 8.746094-5.894532 4.652344-2.96875 6.019531-9.152344 3.046875-13.808594-2.972656-4.652343-9.152344-6.019531-13.8125-3.046874-6.3125 4.03125-12.335937 8.296874-17.902344 12.683593-4.160156 3.277344-5.042969 9.226563-2.015625 13.574219l37.398438 53.625c1.738281 2.496094 4.523437 4.066406 7.558594 4.261719 3.035156.1875 5.996093-1.003907 8.042968-3.257813 27.40625-30.164062 54.050782-43.140625 71.269532-34.699218 9.488281 4.648437 14.476562 15.671874 12.410156 27.425781-2.960938 16.875-18.734375 28.46875-42.195313 31.015625-11.101562 1.203125-19.214843 9.9375-19.726562 21.242187-.476563 10.585938 5.890625 19.621094 15.140625 21.480469 48.394531 9.726562 75.984375 48.183594 73.792968 78.238281-1.574218 21.625-18.628906 34.882813-46.789062 36.371094-34.847656 1.855469-64.832031-13.902344-89.183594-46.792969-18.871094-25.484375-27.078125-52.117187-27.15625-52.375-1.296875-4.316406-5.335937-7.269531-9.84375-7.113281-4.511718.121094-8.382812 3.246094-9.449218 7.632813-11.058594 45.460937-10.457032 85.3125 1.792968 118.449218 10.804688 29.21875 30.71875 52.542969 57.59375 67.457032 21.660156 12.015624 46.503906 17.820312 71.125 17.820312 37.058594-.003906 73.609375-13.15625 97.980469-38.066406 17.226563-17.609375 27.09375-39.988282 28.527344-64.710938 1.304687-22.511718-4.191407-46.640625-16.367188-71.917968 40.898438-.9375 57.359375-32.136719 70.910157-57.839844zm0 0"/><path d="m468.289062 262.039062c-19.910156-47.023437-58.671874-78.796874-98.753906-80.941406-47.894531-2.5625-71.355468 26.144532-92.050781 51.476563-20.328125 24.890625-35.753906 43.773437-70.363281 33.433593 26.832031-21.238281 32.230468-44.667968 31.523437-61.707031-1.539062-37.113281-32.09375-68.15625-59.828125-81.292969-15.515625-7.351562-33.246094-10.046874-52.683594-8.015624-5.492187.574218-9.480468 5.492187-8.90625 10.984374.570313 5.492188 5.464844 9.464844 10.984376 8.90625 15.742187-1.644531 29.890624.441407 42.046874 6.199219 23.1875 10.984375 47.257813 36.511719 48.402344 64.046875.863282 20.84375-12.214844 39.703125-37.820312 54.546875-3.207032 1.859375-5.125 5.339844-4.980469 9.042969s2.324219 7.023438 5.667969 8.625c61.226562 29.367188 87.90625-3.300781 111.445312-32.117188 19.398438-23.75 37.730469-46.167968 75.492188-44.15625 32.5 1.738282 64.457031 28.734376 81.40625 68.765626 13.726562 32.421874 17.976562 79.035156-11.269532 112.632812-21.289062 24.457031-52.769531 37.53125-78.335937 32.539062-18.039063-3.523437-32.703125-15.535156-43.058594-35.066406 17.980469 2.527344 45.023438 3.09375 67.238281-10.078125 4.75-2.8125 6.316407-8.949219 3.5-13.699219-2.816406-4.75-8.949218-6.320312-13.699218-3.503906-28.351563 16.808594-70.378906 4.152344-70.785156 4.027344-3.597657-1.121094-7.519532-.125-10.144532 2.578125-2.625 2.699219-3.511718 6.648437-2.289062 10.210937 15.902344 46.398438 44.34375 61.046876 65.398437 65.160157 4.972657.972656 10.0625 1.445312 15.21875 1.445312 28.910157 0 59.777344-14.90625 82.042969-40.484375 15.476562-17.78125 24.652344-40.3125 26.53125-65.148437 1.695312-22.328125-2.433594-45.984375-11.929688-68.410157zm0 0"/><path d="m266.640625 167.308594c10.960937 4.675781 22.75 6.605468 34.773437 6.605468 56.230469 0 117.339844-42.335937 120.445313-44.511718 2.253906-1.585938 3.757813-4.027344 4.152344-6.757813s-.355469-5.5-2.074219-7.65625l-38.375-48.214843c-1.78125-2.234376-4.433594-3.605469-7.285156-3.757813-2.851563-.152344-5.636719.917969-7.648438 2.949219-29.523437 29.835937-58.074218 43.871094-84.894531 41.738281-33.421875-2.667969-53.597656-30.316406-53.835937-30.652344-2.679688-3.773437-7.601563-5.214843-11.898438-3.484375-4.304688 1.738282-6.847656 6.210938-6.140625 10.796875 6.613281 42.929688 24.371094 70.835938 52.78125 82.945313zm17.21875-39.691406c30.425781 2.53125 61.640625-10.839844 92.914063-39.769532l24.640624 30.960938c-22.964843 14.128906-85.046874 47.988281-126.957031 30.089844-14.296875-6.101563-25.144531-18.121094-32.441406-35.875 10.871094 7.027343 24.921875 13.1875 41.84375 14.59375zm0 0"/><path d="m290.769531 92.054688c1.953125 1.953124 4.511719 2.929687 7.070313 2.929687s5.117187-.976563 7.070312-2.929687l37.492188-37.492188c3.90625-3.902344 3.90625-10.234375 0-14.140625l-37.492188-37.492187c-3.90625-3.90625-10.234375-3.90625-14.144531 0l-37.492187 37.492187c-3.902344 3.902344-3.902344 10.234375 0 14.140625zm7.070313-67.914063 23.347656 23.351563-23.347656 23.351562-23.351563-23.351562zm0 0"/><path d="m88.210938 144.945312c1.316406 0 2.652343-.261718 3.9375-.8125l.007812-.003906c5.074219-2.175781 7.421875-8.050781 5.246094-13.128906-2.175782-5.074219-8.054688-7.425781-13.132813-5.25s-7.429687 8.054688-5.253906 13.128906c1.625 3.792969 5.316406 6.066406 9.195313 6.066406zm0 0"/><path d="m396.089844 324.910156c-2.175782 5.074219.175781 10.953125 5.253906 13.128906 1.285156.550782 2.617188.8125 3.933594.8125 3.878906 0 7.570312-2.273437 9.195312-6.0625l.003906-.007812c2.175782-5.074219-.179687-10.953125-5.253906-13.125-5.078125-2.179688-10.957031.175781-13.132812 5.253906zm0 0"/></svg>