<?xml version="1.0" encoding="iso-8859-1"?>
<!-- Generator: Adobe Illustrator 19.0.0, SVG Export Plug-In . SVG Version: 6.00 Build 0)  -->
<svg version="1.1" id="Capa_1" xmlns="http://www.w3.org/2000/svg" xmlns:xlink="http://www.w3.org/1999/xlink" x="0px" y="0px"
	 viewBox="0 0 512 512" style="enable-background:new 0 0 512 512;" xml:space="preserve">
<path style="fill:#FF873C;" d="M256,31c-57.9,0-105,47.1-105,105c0,0.3,0.3,0.599,0.3,1.199c0.601,7.5,36,61.199,40.8,68.699
	c2.701,4.2,7.5,6.901,12.599,6.901h76.8c3.9,0,7.8-1.5,10.501-4.2c3.3-3.3,66-62.401,67.8-66.599c0.298-0.601,1.199-4.501,1.199-5.7
	c0-0.3,0-0.3,0-0.3C361,78.1,313.9,31,256,31z"/>
<path style="fill:#F46A1A;" d="M281.499,212.8H256V31c57.9,0,105,47.1,105,105c0,0,0,0,0,0.3c0,1.199-0.901,5.099-1.199,5.7
	c-1.8,4.199-64.501,63.3-67.8,66.599C289.3,211.3,285.399,212.8,281.499,212.8z"/>
<path style="fill:#FFA426;" d="M346,121c-38.101,0-71.7,20.4-90,51c-18.3-30.601-51.899-51-90-51c-57.9,0-105,47.1-105,105
	c0,10.8,12.599,50.7,15.601,61.5c1.8,6.599,7.8,11.1,14.399,11.1h306.899c4.801,0,9.3-2.401,12.001-6.301l38.101-52.5
	C451,235.6,451,231.4,451,226C451,168.1,403.9,121,346,121z"/>
<path style="fill:#FF873C;" d="M451,226c0,5.4,0,9.6-2.999,13.799l-38.101,52.5c-2.701,3.9-7.2,6.301-12.001,6.301H256V172
	c18.3-30.601,51.899-51,90-51C403.9,121,451,168.1,451,226z"/>
<path style="fill:#FFBC36;" d="M406,211c-32.401,0-62.701,15-82.5,40.199h-135C168.701,226,138.401,211,106,211
	C48.1,211,0,258.1,0,316c0,18.6,5.099,34.2,14.7,45.899c3.001,3.6,7.2,5.7,11.7,5.7h459.2c4.501,0,8.699-2.1,11.7-5.7
	C506.901,350.2,512,334.6,512,316C512,258.1,463.9,211,406,211z"/>
<path style="fill:#FFA426;" d="M512,316c0,18.6-5.099,34.2-14.7,45.899c-3.001,3.6-7.2,5.7-11.7,5.7H256v-116.4h67.5
	C343.299,226,373.599,211,406,211C463.9,211,512,258.1,512,316z"/>
<path style="fill:#FFDA45;" d="M256,211c-57.9,0-105,47.1-105,105c0,14.399,2.999,26.999,8.699,37.5c2.701,4.499,7.8,7.5,13.2,7.5
	H339.1c5.4,0,10.499-3.001,13.2-7.5c5.7-10.501,8.699-23.101,8.699-37.5C361,258.1,313.9,211,256,211z"/>
<path style="fill:#FFBC36;" d="M361,316c0,14.399-2.999,26.999-8.699,37.5c-2.701,4.499-7.8,7.5-13.2,7.5H256V211
	C313.9,211,361,258.1,361,316z"/>
<path style="fill:#11A892;" d="M467,391H45c-11.1,0-18.3,11.7-13.5,21.599l21.901,43.5C60.901,471.4,76.5,481,93.6,481h324.8
	c17.1,0,32.699-9.6,40.199-24.901l21.901-43.5C485.3,402.7,478.1,391,467,391z"/>
<path style="fill:#06CCAB;" d="M467,331H45c-24.901,0-45,20.099-45,45c0,24.899,20.099,45,45,45h422c24.901,0,45-20.101,45-45
	C512,351.099,491.901,331,467,331z"/>
<path style="fill:#0F9887;" d="M480.5,412.599l-21.901,43.5C451.099,471.4,435.5,481,418.4,481H256v-90h211
	C478.1,391,485.3,402.7,480.5,412.599z"/>
<path style="fill:#11A892;" d="M512,376c0,24.899-20.099,45-45,45H256v-90h211C491.901,331,512,351.099,512,376z"/>
<g>
</g>
<g>
</g>
<g>
</g>
<g>
</g>
<g>
</g>
<g>
</g>
<g>
</g>
<g>
</g>
<g>
</g>
<g>
</g>
<g>
</g>
<g>
</g>
<g>
</g>
<g>
</g>
<g>
</g>
</svg>
