<?xml version="1.0" encoding="iso-8859-1"?>
<!-- Generator: Adobe Illustrator 19.0.0, SVG Export Plug-In . SVG Version: 6.00 Build 0)  -->
<svg version="1.1" id="Capa_1" xmlns="http://www.w3.org/2000/svg" xmlns:xlink="http://www.w3.org/1999/xlink" x="0px" y="0px"
	 viewBox="0 0 512 512" style="enable-background:new 0 0 512 512;" xml:space="preserve">
<path style="fill:#8D5C4D;" d="M381.97,75.002c-6,5.4-15.6,5.1-21.3-0.9c-25.8-28.2-63.9-44.1-104.4-44.1H256
	c-41,0.07-79.59,16.56-105.33,45c-3,3.3-6.9,5.1-11.1,5.1c-3.6,0-7.2-1.2-9.9-3.9c-6.3-5.4-6.6-15-1.2-21
	c31.44-35.04,77.83-55.13,127.53-55.2h0.27c48.9,0,95.1,19.5,126.6,53.7C388.27,59.702,387.97,69.302,381.97,75.002z"/>
<path style="fill:#805142;" d="M381.97,75.002c-6,5.4-15.6,5.1-21.3-0.9c-25.8-28.2-63.9-44.1-104.4-44.1H256v-30h0.27
	c48.9,0,95.1,19.5,126.6,53.7C388.27,59.702,387.97,69.302,381.97,75.002z"/>
<path style="fill:#FFDA45;" d="M131.159,210.247c-0.732,0-1.465-0.015-2.197-0.044c-5.931-0.443-70.299-4.207-75.308-7.368
	c-0.264-0.146-2.725-1.787-2.959-1.963c-16.86-12.012-24.858-32.183-21.504-51.855C14.66,135.35,8.888,114.432,15.099,94.671
	c6.226-19.761,22.925-33.604,42.686-36.489c8.511-18.047,26.616-30,47.344-30.19c0.161,0,0.322,0,0.498,0
	c20.508,0,38.599,11.572,47.388,29.312c19.79,2.52,36.738,16.04,43.33,35.684l0,0c6.592,19.644,1.216,40.664-13.066,54.609
	c3.706,19.614-3.926,39.917-20.552,52.251C153.644,206.585,142.496,210.247,131.159,210.247z"/>
<circle style="fill:#FFA426;" cx="106.32" cy="118.711" r="15"/>
<path style="fill:#FFBC36;" d="M350.402,200.535c-16.875-12.026-24.873-32.183-21.519-51.855
	c-14.531-13.682-20.303-34.585-14.092-54.346c6.226-19.775,22.925-33.618,42.686-36.504c8.511-18.047,26.616-30,47.344-30.19
	c19.482,0.059,39.053,11.426,47.886,29.312c19.79,2.52,36.738,16.04,43.345,35.684v0.015c6.577,19.644,1.201,40.664-13.081,54.595
	c3.721,19.614-3.911,39.932-20.566,52.251c-5.498,4.179-8.451,4.986-11.177,5.215C416.625,207.566,375.563,218.443,350.402,200.535z
	"/>
<circle style="fill:#FF873C;" cx="406.01" cy="118.361" r="15"/>
<path style="fill:#D72878;" d="M444.947,338.612c-1.89,0-3.765-0.352-5.537-1.055l-88.521-35.142
	c-5.391-2.153-9.067-7.207-9.434-13.008c-0.249-3.999-0.029-8.027,0.63-11.982c-14.561-13.682-20.347-34.614-14.121-54.375
	c6.226-19.775,22.939-33.618,42.686-36.489c8.511-18.047,26.616-30,47.344-30.19c0.161,0,0.322,0,0.498,0
	c20.508,0,38.613,11.572,47.388,29.312c19.79,2.52,36.738,16.04,43.33,35.684l0,0c6.592,19.644,1.216,40.664-13.066,54.609
	c3.706,19.614-3.911,39.917-20.552,52.251c-8.818,6.533-19.292,10.122-30.293,10.386
	C445.181,338.612,445.064,338.612,444.947,338.612z"/>
<circle style="fill:#FFBC36;" cx="419.19" cy="247.081" r="15"/>
<path style="fill:#FF468C;" d="M66.722,339.022c-0.278,0-0.542-0.015-0.82-0.029c-10.02-0.542-19.644-3.911-27.817-9.741
	c-16.89-12.026-24.888-32.183-21.519-51.855c-14.531-13.682-20.303-34.6-14.092-54.346c6.226-19.775,22.939-33.618,42.686-36.489
	c8.511-18.047,26.616-30,47.344-30.19c20.156,0.601,39.038,11.426,47.886,29.312c19.79,2.52,36.738,16.04,43.33,35.684l0,0
	c6.606,19.658,1.216,40.679-13.096,54.624c0.952,5.068,1.143,10.269,0.586,15.425c-0.615,5.581-4.307,10.356-9.551,12.363
	l-89.575,34.248C70.369,338.685,68.553,339.022,66.722,339.022z M156.297,289.774h0.293H156.297z"/>
<g>
	<circle style="fill:#FFDA45;" cx="95.08" cy="247.081" r="15"/>
	<path style="fill:#FFDA45;" d="M80.665,440.535c-16.875-12.012-24.888-32.183-21.533-51.87
		c-14.531-13.667-20.288-34.585-14.077-54.331c6.226-19.761,22.925-33.604,42.686-36.504c8.511-18.047,26.616-30,47.344-30.19
		c0.161,0,0.322,0,0.498,0c20.508,0,38.599,11.572,47.388,29.312c19.79,2.52,36.738,16.04,43.33,35.698l0,0
		c5.61,16.714,2.622,34.761-7.939,48.721c-2.963,7.051-21.914,55.69-27.715,59.546c-16.23,10.898-37.06,11.733-53.906,3.003
		C119.113,453.584,97.456,452.506,80.665,440.535z"/>
</g>
<circle style="fill:#FFA426;" cx="136.27" cy="358.361" r="15"/>
<path style="fill:#FFBC36;" d="M351.471,450.423c-10.708,0-21.445-3.267-30.732-9.888c-5.765-4.096-26.082-54.075-28.916-60.586
	c-9.023-13.315-11.528-30.234-6.694-45.615c6.226-19.761,22.925-33.604,42.686-36.504c8.511-18.047,26.616-30,47.344-30.19
	c0.161,0,0.322,0,0.498,0c20.508,0,38.599,11.572,47.388,29.312c19.79,2.52,36.738,16.04,43.33,35.698l0,0
	c6.577,19.658,1.201,40.664-13.081,54.609c3.721,19.614-3.897,39.917-20.552,52.236c-16.641,12.378-38.276,13.711-55.972,4.438
	C368.917,448.241,360.202,450.423,351.471,450.423z"/>
<circle style="fill:#FF873C;" cx="376.34" cy="358.361" r="15"/>
<path style="fill:#FF468C;" d="M346.27,394.172c-6.6-19.5-23.4-33-43.2-35.7c-8.7-17.4-26.4-27.9-46.8-29.4h-1.2
	c-20.7,0.3-38.7,12.3-47.4,30.3c-19.8,3-36.3,16.8-42.6,36.6c-6.3,19.8-0.6,40.5,14.1,54.3c-3.3,19.8,4.5,39.9,21.6,51.9
	c16.71,11.94,38.17,12.89,55.23,3.45c0.09-0.05,0.18-0.1,0.27-0.15h0.3c17.7,9.3,39.6,7.8,56.1-4.5c16.8-12.3,24.3-32.4,20.4-52.2
	C347.47,434.972,352.87,413.972,346.27,394.172z"/>
<path style="fill:#FFDA45;" d="M271.27,419.972c0,8.1-6.6,15-15,15c-0.09,0-0.18,0-0.27-0.01c-8.27-0.14-14.73-6.98-14.73-14.99
	c0-8.31,6.46-14.86,14.73-14.99c0.09-0.01,0.18-0.01,0.27-0.01C264.67,404.972,271.27,411.572,271.27,419.972z"/>
<path style="fill:#D72878;" d="M346.27,394.172c6.6,19.8,1.2,40.8-13.2,54.6c3.9,19.8-3.6,39.9-20.4,52.2
	c-16.5,12.3-38.4,13.8-56.1,4.5h-0.3c-0.09,0.05-0.18,0.1-0.27,0.15v-176.55h0.27c20.4,1.5,38.1,12,46.8,29.4
	C322.87,361.172,339.67,374.672,346.27,394.172z"/>
<path style="fill:#FFBC36;" d="M271.27,419.972c0,8.1-6.6,15-15,15c-0.09,0-0.18,0-0.27-0.01v-29.98c0.09-0.01,0.18-0.01,0.27-0.01
	C264.67,404.972,271.27,411.572,271.27,419.972z"/>
<g>
</g>
<g>
</g>
<g>
</g>
<g>
</g>
<g>
</g>
<g>
</g>
<g>
</g>
<g>
</g>
<g>
</g>
<g>
</g>
<g>
</g>
<g>
</g>
<g>
</g>
<g>
</g>
<g>
</g>
</svg>
