<?xml version="1.0" encoding="iso-8859-1"?>
<!-- Generator: Adobe Illustrator 19.0.0, SVG Export Plug-In . SVG Version: 6.00 Build 0)  -->
<svg version="1.1" id="Layer_1" xmlns="http://www.w3.org/2000/svg" xmlns:xlink="http://www.w3.org/1999/xlink" x="0px" y="0px"
	 viewBox="0 0 512 512" style="enable-background:new 0 0 512 512;" xml:space="preserve">
<path style="fill:#220640;" d="M455.736,229.956v-27.406c0-39.395-17.147-76.729-47.045-102.427
	c-6.123-5.264-13.931-8.158-22.006-8.158h-33.758l35.406,245.618h33.758c32.627,0,59.077-26.45,59.077-59.077
	C481.168,258.384,471.1,240.623,455.736,229.956z"/>
<path style="fill:#440D80;" d="M421.978,229.956l-47.046-129.833c-6.123-5.264-13.931-8.158-22.006-8.158h-98.206
	c-8.075,0-15.882,2.894-22.007,8.158c-29.896,25.7-47.043,63.033-47.043,102.427v27.406c-15.363,10.668-25.431,28.429-25.431,48.55
	c0,32.627,26.45,59.077,59.077,59.077h169.016c32.627,0,59.077-26.45,59.077-59.077
	C447.409,258.384,437.341,240.623,421.978,229.956z"/>
<path style="fill:#2E84FF;" d="M512,382.593c0-24.858-20.151-45.011-45.011-45.011h-33.758L444.484,512H512V382.593z"/>
<path style="fill:#00B9FF;" d="M376.988,281.319H264.461l-90.043,56.264c-24.86,0-45.011,20.153-45.011,45.011V512h315.077V337.582
	h22.505L376.988,281.319z"/>
<path style="fill:#FFD46E;" d="M236.308,41.327c-18.644,0-33.758,15.114-33.758,33.758v50.637h90.022l-22.505-50.637
	C270.066,56.44,254.951,41.327,236.308,41.327z"/>
<path style="fill:#FFBE26;" d="M438.857,75.085c0-18.645-15.115-33.758-33.758-33.758l-22.505,84.396h56.264V75.085z"/>
<path style="fill:#FFD46E;" d="M371.341,75.085l-22.505,50.637h56.264V41.327C386.455,41.327,371.341,56.44,371.341,75.085z"/>
<path style="fill:#FFBE26;" d="M320.703,0c-27.966,0-50.637,22.671-50.637,50.637s0,75.084,0,75.084h101.275c0,0,0-47.119,0-75.084
	C371.341,22.671,348.67,0,320.703,0z"/>
<circle style="fill:#F21897;" cx="320.703" cy="50.637" r="16.879"/>
<path style="fill:#00B9FF;" d="M208.063,185.67c-18.645,0-33.758,15.115-33.758,33.758c0,18.645,15.114,33.758,33.758,33.758h112.64
	V185.67H208.063z"/>
<g>
	<path style="fill:#2E84FF;" d="M433.343,185.67h-112.64v67.516h112.64c18.645,0,33.758-15.114,33.758-33.758
		C467.102,200.785,451.987,185.67,433.343,185.67z"/>
	<path style="fill:#2E84FF;" d="M420.575,185.652l-38.488-25.325l-61.362,177.256c55.923-0.011,101.253-45.35,101.253-101.275
		v-33.758C421.978,196.793,421.498,191.147,420.575,185.652z"/>
</g>
<path style="fill:#00B9FF;" d="M388.22,236.308v-33.758c0-15.071-2.198-29.37-6.134-42.223l-52.591-34.606H311.91l-91.079,59.931
	c-0.923,5.495-1.403,11.14-1.403,16.897v33.758c0,55.933,45.342,101.275,101.275,101.275
	C358.003,337.564,388.22,292.229,388.22,236.308z"/>
<path style="fill:#220640;" d="M420.575,185.652c-4.004-23.831-16.331-44.838-33.889-59.931h-57.19
	C345.127,160.65,379.963,185.1,420.575,185.652z"/>
<path style="fill:#440D80;" d="M311.912,125.721h-57.19c-17.558,15.093-29.886,36.1-33.889,59.931
	C261.444,185.1,296.279,160.65,311.912,125.721z"/>
<circle style="fill:#FFD46E;" cx="320.703" cy="469.24" r="8.44"/>
<circle style="fill:#FFBE26;" cx="353.775" cy="458.493" r="8.44"/>
<g>
	<circle style="fill:#FFD46E;" cx="374.21" cy="430.361" r="8.44"/>
	<circle style="fill:#FFD46E;" cx="267.197" cy="430.361" r="8.44"/>
</g>
<circle style="fill:#FFBE26;" cx="267.197" cy="396.603" r="8.44"/>
<circle style="fill:#FFD46E;" cx="267.197" cy="362.845" r="8.44"/>
<circle style="fill:#FFBE26;" cx="374.221" cy="396.603" r="8.44"/>
<circle style="fill:#FFD46E;" cx="374.221" cy="362.845" r="8.44"/>
<circle style="fill:#FFBE26;" cx="287.632" cy="458.493" r="8.44"/>
<circle style="fill:#2E84FF;" cx="258.813" cy="236.308" r="16.879"/>
<path style="fill:#5B4FFF;" d="M388.22,220.41l-11.679,15.889l10.817,16.195c7-2.058,12.115-8.519,12.115-16.186
	C399.473,228.962,394.771,222.729,388.22,220.41z"/>
<path style="fill:#2E84FF;" d="M388.22,220.41c-1.762-0.625-3.65-0.981-5.626-0.981c-9.322,0-16.879,7.557-16.879,16.879
	c0,9.322,7.557,16.879,16.879,16.879c1.656,0,3.252-0.249,4.764-0.693c0.564-5.271,0.862-10.677,0.862-16.186V220.41z"/>
<g>
	<path style="fill:#440D80;" d="M290.884,216.615c-3.675,0-6.801-2.348-7.959-5.626h-11.171c-4.661,0-8.44-3.779-8.44-8.44
		c0-4.661,3.779-8.44,8.44-8.44h19.13c4.661,0,8.44,3.779,8.44,8.44v5.626C299.323,212.837,295.544,216.615,290.884,216.615z"/>
	<path style="fill:#440D80;" d="M350.523,216.615c-4.661,0-8.44-3.779-8.44-8.44v-5.626c0-4.661,3.779-8.44,8.44-8.44h19.13
		c4.661,0,8.44,3.779,8.44,8.44c0,4.661-3.779,8.44-8.44,8.44h-11.171C357.324,214.267,354.198,216.615,350.523,216.615z"/>
</g>
<path style="fill:#F99A25;" d="M441.67,108.843h-33.758v33.758h33.758c9.322,0,16.879-7.557,16.879-16.879
	S450.992,108.843,441.67,108.843z"/>
<path style="fill:#FFBE26;" d="M424.791,125.722c0-9.322-7.557-16.879-16.879-16.879H199.736c-9.322,0-16.879,7.557-16.879,16.879
	s7.557,16.879,16.879,16.879h208.176C417.234,142.602,424.791,135.044,424.791,125.722z"/>
<path style="fill:#5B4FFF;" d="M320.703,274.73c-11.882,0-22.539-7.521-26.519-18.717c-1.561-4.392,0.734-9.217,5.126-10.779
	c4.391-1.561,9.217,0.733,10.779,5.126c1.593,4.481,5.859,7.491,10.615,7.491s9.022-3.01,10.615-7.491
	c1.562-4.392,6.389-6.685,10.779-5.126c4.392,1.562,6.686,6.387,5.126,10.779C343.243,267.209,332.585,274.73,320.703,274.73z"/>
<path style="fill:#FFF7E6;" d="M461.363,326.33c0-9.322-7.557-16.879-16.879-16.879c-9.322,0-16.879,7.557-16.879,16.879
	c-9.322,0-16.879,7.557-16.879,16.879s7.557,16.879,16.879,16.879c0,9.322,7.557,16.879,16.879,16.879
	c9.322,0,16.879-7.557,16.879-16.879c9.322,0,16.879-7.557,16.879-16.879S470.684,326.33,461.363,326.33z"/>
<path style="fill:#FFE9B7;" d="M461.363,393.846c0-9.322-7.557-16.879-16.879-16.879c-9.322,0-16.879,7.557-16.879,16.879
	c-9.322,0-16.879,7.557-16.879,16.879c0,9.322,7.557,16.879,16.879,16.879c0,9.322,7.557,16.879,16.879,16.879
	c9.322,0,16.879-7.557,16.879-16.879c9.322,0,16.879-7.557,16.879-16.879C478.242,401.404,470.684,393.846,461.363,393.846z"/>
<g>
	<path style="fill:#FFF7E6;" d="M461.363,461.363c0-9.322-7.557-16.879-16.879-16.879c-9.322,0-16.879,7.557-16.879,16.879
		c-9.322,0-16.879,7.557-16.879,16.879c0,9.322,7.557,16.879,16.879,16.879c0,9.322,7.557,16.879,16.879,16.879
		c9.322,0,16.879-7.557,16.879-16.879c9.322,0,16.879-7.557,16.879-16.879C478.242,468.92,470.684,461.363,461.363,461.363z"/>
	<path style="fill:#FFF7E6;" d="M213.802,326.33c0-9.322-7.557-16.879-16.879-16.879c-9.322,0-16.879,7.557-16.879,16.879
		c-9.322,0-16.879,7.557-16.879,16.879s7.557,16.879,16.879,16.879c0,9.322,7.557,16.879,16.879,16.879
		c9.322,0,16.879-7.557,16.879-16.879c9.322,0,16.879-7.557,16.879-16.879S223.124,326.33,213.802,326.33z"/>
</g>
<path style="fill:#FFE9B7;" d="M213.802,393.846c0-9.322-7.557-16.879-16.879-16.879c-9.322,0-16.879,7.557-16.879,16.879
	c-9.322,0-16.879,7.557-16.879,16.879c0,9.322,7.557,16.879,16.879,16.879c0,9.322,7.557,16.879,16.879,16.879
	c9.322,0,16.879-7.557,16.879-16.879c9.322,0,16.879-7.557,16.879-16.879C230.681,401.404,223.124,393.846,213.802,393.846z"/>
<path style="fill:#FFF7E6;" d="M213.802,461.363c0-9.322-7.557-16.879-16.879-16.879c-9.322,0-16.879,7.557-16.879,16.879
	c-9.322,0-16.879,7.557-16.879,16.879c0,9.322,7.557,16.879,16.879,16.879c0,9.322,7.557,16.879,16.879,16.879
	c9.322,0,16.879-7.557,16.879-16.879c9.322,0,16.879-7.557,16.879-16.879C230.681,468.92,223.124,461.363,213.802,461.363z"/>
<path style="fill:#00B9FF;" d="M45.011,303.824v-33.758c0-4.661-3.779-8.44-8.44-8.44s-8.44,3.779-8.44,8.44v33.758V512h67.516
	V303.824H45.011z"/>
<polygon style="fill:#F99A25;" points="286.945,303.824 264.44,320.703 286.945,337.582 320.703,337.582 320.703,303.824 "/>
<rect y="303.824" style="fill:#FFBE26;" width="286.945" height="33.758"/>
<g>
	<path style="fill:#00B9FF;" d="M188.484,272.879c-4.661,0-8.44,3.779-8.44,8.44v11.253h-8.44v-11.253c0-4.661-3.779-8.44-8.44-8.44
		s-8.44,3.779-8.44,8.44v11.253h-8.44v-33.758c0-4.661-3.779-8.44-8.44-8.44s-8.44,3.779-8.44,8.44V512h67.516V281.319
		C196.923,276.658,193.144,272.879,188.484,272.879z"/>
	<path style="fill:#00B9FF;" d="M61.89,323.517c-4.661,0-8.44-3.779-8.44-8.44v-22.505c0-4.661,3.779-8.44,8.44-8.44
		s8.44,3.779,8.44,8.44v22.505C70.33,319.738,66.551,323.517,61.89,323.517z"/>
	<path style="fill:#00B9FF;" d="M87.209,323.517c-4.661,0-8.44-3.779-8.44-8.44v-22.505c0-4.661,3.779-8.44,8.44-8.44
		c4.661,0,8.44,3.779,8.44,8.44v22.505C95.648,319.738,91.87,323.517,87.209,323.517z"/>
</g>
<g>
</g>
<g>
</g>
<g>
</g>
<g>
</g>
<g>
</g>
<g>
</g>
<g>
</g>
<g>
</g>
<g>
</g>
<g>
</g>
<g>
</g>
<g>
</g>
<g>
</g>
<g>
</g>
<g>
</g>
</svg>
