<?xml version="1.0" encoding="iso-8859-1"?>
<!-- Generator: Adobe Illustrator 19.0.0, SVG Export Plug-In . SVG Version: 6.00 Build 0)  -->
<svg version="1.1" id="Layer_1" xmlns="http://www.w3.org/2000/svg" xmlns:xlink="http://www.w3.org/1999/xlink" x="0px" y="0px"
	 viewBox="0 0 496 496" style="enable-background:new 0 0 496 496;" xml:space="preserve">
<g>
	<rect x="136" y="376" style="fill:#FFA64D;" width="152" height="64"/>
	<rect x="136" y="280" style="fill:#FFA64D;" width="152" height="64"/>
	<rect x="136" y="184" style="fill:#FFA64D;" width="152" height="64"/>
	<rect x="136" y="88" style="fill:#FFA64D;" width="152" height="64"/>
	<path style="fill:#FFA64D;" d="M72,72c23.672,0,44.296,12.888,55.368,32C132.824,94.576,136,83.672,136,72
		c0-35.344-28.656-64-64-64S8,36.656,8,72c0,11.672,3.176,22.576,8.632,32C27.704,84.888,48.328,72,72,72z"/>
	<path style="fill:#FFA64D;" d="M72,168c23.672,0,44.296,12.888,55.368,32c5.456-9.424,8.632-20.328,8.632-32
		c0-35.344-28.656-64-64-64S8,132.656,8,168c0,11.672,3.176,22.576,8.632,32C27.704,180.888,48.328,168,72,168z"/>
	<path style="fill:#FFA64D;" d="M72,264c23.672,0,44.296,12.888,55.368,32c5.456-9.424,8.632-20.328,8.632-32
		c0-35.344-28.656-64-64-64S8,228.656,8,264c0,11.672,3.176,22.576,8.632,32C27.704,276.888,48.328,264,72,264z"/>
	<path style="fill:#FFA64D;" d="M72,360c23.672,0,44.296,12.888,55.368,32c5.456-9.424,8.632-20.328,8.632-32
		c0-35.344-28.656-64-64-64S8,324.656,8,360c0,11.672,3.176,22.576,8.632,32C27.704,372.888,48.328,360,72,360z"/>
</g>
<g>
	<path style="fill:#3F3A34;" d="M72,384c-22.056,0-40,17.944-40,40s17.944,40,40,40v-16c-13.232,0-24-10.768-24-24s10.768-24,24-24
		s24,10.768,24,24c0,8.544-4.6,16.504-12.008,20.792l8.016,13.848C104.336,451.504,112,438.232,112,424
		C112,401.944,94.056,384,72,384z"/>
	<path style="fill:#3F3A34;" d="M424,192h72V80h-72c-15.664,0-29.824,6.48-40,16.88V80H144v-8c0-39.696-32.304-72-72-72
		S0,32.304,0,72v352c0,39.696,32.304,72,72,72h312v-16.88c10.176,10.4,24.336,16.88,40,16.88h72V384h-72
		c-15.664,0-29.824,6.48-40,16.88V175.12C394.176,185.52,408.336,192,424,192z M424,96h56v16h-56v16h56v16h-56v16h56v16h-56
		c-22.056,0-40-17.944-40-40S401.944,96,424,96z M368,136h-64V96h64V136z M368,376h-64v-32h64V376z M368,328h-64v-32h64V328z
		 M368,280h-64v-32h64V280z M368,232h-64v-32h64V232z M304,184v-32h64v32H304z M16,72c0-30.88,25.12-56,56-56s56,25.12,56,56
		v306.848C114.792,362.496,94.608,352,72,352s-42.792,10.496-56,26.848V72z M16,424c0-30.88,25.12-56,56-56s56,25.12,56,56
		s-25.12,56-56,56S16,454.88,16,424z M144,424V96h144v384H117.152C133.504,466.792,144,446.608,144,424z M368,480h-64v-40h32v-16
		h-32v-32h64v32h-16v16h16V480z M424,400h56v16h-56v16h56v16h-56v16h56v16h-56c-22.056,0-40-17.944-40-40S401.944,400,424,400z"/>
</g>
<g>
</g>
<g>
</g>
<g>
</g>
<g>
</g>
<g>
</g>
<g>
</g>
<g>
</g>
<g>
</g>
<g>
</g>
<g>
</g>
<g>
</g>
<g>
</g>
<g>
</g>
<g>
</g>
<g>
</g>
</svg>
