<svg viewBox="0 0 511 511.99933" xmlns="http://www.w3.org/2000/svg"><path d="m316.050781 121.675781c20.511719 0 37.136719-16.628906 37.136719-37.136719v-14.691406c0-20.507812-16.625-37.136718-37.136719-37.136718-20.507812 0-37.136719 16.628906-37.136719 37.136718v14.691406c.003907 20.511719 16.628907 37.136719 37.136719 37.136719zm0 0" fill="#feda9b"/><path d="m321.0625 26.84375-.832031-2.441406c-3.773438-11.09375-15.828125-17.03125-26.921875-13.253906-11.09375 3.773437-17.03125 15.828124-13.253906 26.921874l3.621093 10.652344" fill="#ffb954"/><path d="m330.902344 25.121094c-.089844-.5-.203125-1-.375-1.496094l-.828125-2.441406c-2.6875-7.898438-8.285157-14.273438-15.769531-17.957032-7.480469-3.683593-15.949219-4.234374-23.84375-1.546874-16.296876 5.546874-25.046876 23.316406-19.5 39.613281l2.859374 8.410156c-2.898437 6.113281-4.53125 12.941406-4.53125 20.144531v14.691406c0 25.988282 21.148438 47.136719 47.136719 47.136719 25.992188 0 47.136719-21.148437 47.136719-47.136719v-14.691406c0-20.804687-13.550781-38.488281-32.285156-44.726562zm-34.375-4.507813c2.839844-.964843 5.882812-.765625 8.570312.554688 1.15625.570312 2.175782 1.328125 3.050782 2.21875-7.0625 1.199219-13.589844 3.972656-19.21875 7.945312-.035157-4.703125 2.90625-9.121093 7.597656-10.71875zm46.660156 63.925781c0 14.964844-12.171875 27.136719-27.136719 27.136719-14.964843 0-27.136719-12.171875-27.136719-27.136719v-14.691406c0-14.964844 12.171876-27.136718 27.136719-27.136718 14.964844 0 27.136719 12.171874 27.136719 27.136718zm0 0"/><path d="m313.800781 124.847656-18.640625-9.257812-117.164062-105.578125h-45l106.421875 108.105469c5.851562 5.9375 6.917969 15.09375 2.597656 22.222656l-20.847656 34.386718c-8.386719 13.832032-23.386719 22.277344-39.558594 22.277344-13.121094 0-25.625-5.570312-34.394531-15.324218l-30.75-34.191407 29.859375-77.289062c8.082031-20.914063 2.828125-44.636719-13.328125-60.1875l-57.6875 125.085937c-4.742188 10.285156-3.75 22.304688 2.617187 31.675782l60.738281 89.359374 18.871094 220.949219c1.203125 14.09375 12.992188 24.917969 27.136719 24.917969h32.824219l-22.417969-40.0625v-153.808594c0-20.902344 13.574219-39.378906 33.515625-45.628906 39.277344-12.316406 71.695312-40.355469 89.539062-77.445312l9.382813-19.5c7.234375-15.039063 1.148437-33.109376-13.714844-40.707032zm0 0" fill="#72d8ff"/><path d="m202.515625 192.007812c16.175781 0 10.265625-3.449218 18.652344-17.28125l20.847656-34.386718c4.320313-7.128906 3.253906-16.285156-2.597656-22.222656l-106.421875-108.105469h45l117.164062 105.578125 18.640625 9.261718c14.863281 7.59375 20.949219 25.664063 13.714844 40.703126l-9.382813 19.5c-17.847656 37.089843-50.265624 65.128906-89.539062 77.445312zm0 0" fill="#fcb8e7"/><path d="m325.421875 169.90625 74.320313-27.570312c9.375-3.480469 16.09375-11.804688 17.519531-21.699219l9.429687-65.53125c3.015625-20.941407-10.691406-40.640625-31.375-45.09375l-13.65625 96.644531-60.359375 23.578125" fill="#fcb8e7"/><path d="m155.125 373.191406c1.859375-1.859375 2.929688-4.429687 2.929688-7.070312 0-2.628906-1.070313-5.207032-2.929688-7.066406-1.859375-1.863282-4.429688-2.933594-7.070312-2.933594-2.628907 0-5.207032 1.070312-7.066407 2.933594-1.863281 1.859374-2.933593 4.4375-2.933593 7.066406 0 2.640625 1.070312 5.210937 2.933593 7.070312 1.859375 1.871094 4.4375 2.929688 7.066407 2.929688 2.632812 0 5.210937-1.058594 7.070312-2.929688zm0 0"/><path d="m502.457031 492h-279.097656l-18.28125-32.667969v-151.203125c0-16.617187 10.652344-31.117187 26.507813-36.089844 2.25-.703124 4.472656-1.46875 6.679687-2.273437.027344-.007813.054687-.019531.082031-.027344 38.742188-14.113281 70.859375-43.066406 88.796875-80.347656l5.539063-11.511719 70.539062-26.167968c12.816406-4.757813 21.988282-16.117188 23.9375-29.648438l9.429688-65.53125c3.746094-26.027344-13.457032-50.757812-39.167969-56.292969-2.710937-.585937-5.546875-.015625-7.824219 1.570313-2.277344 1.589844-3.792968 4.054687-4.183594 6.804687l-12.839843 90.859375-49.46875 19.324219c-1.503907-1.039063-3.082031-1.996094-4.757813-2.851563-.03125-.015624-.066406-.035156-.101562-.050781l-17.410156-8.648437-116.144532-104.664063c-1.839844-1.65625-4.222656-2.5703122-6.695312-2.5703122h-44.945313c-.226562 0-.453125.0039062-.675781.0195312-.003906 0-.007812.0039062-.015625 0-1.363281.089844-2.671875.449219-3.855469 1.046875-.003906.003906-.011718.003906-.015625.007813-.003906.003906-.007812.003906-.011719.007812h-.003906c-.476562.242188-.933594.523438-1.367187.839844-.003907.003906-.011719.007812-.015625.011718 0 0-.003906 0-.003906.003907-.003907 0-.007813.003906-.011719.007812-.003907 0-.003907.003907-.003907.003907-.003906 0-.007812.003906-.007812.007812-1.324219.972656-2.410156 2.277344-3.128906 3.820312v.007813c-.003906.003906-.003906.007813-.003906.011719-.003907.003906-.007813.011718-.011719.019531l-57.6875 125.085937c-6.175781 13.390626-4.859375 29.285157 3.429687 41.480469l59.265625 87.199219 5.488281 64.273438c.472657 5.5 5.316407 9.574218 10.816407 9.113281 5.503906-.472657 9.582031-5.316407 9.113281-10.816407l-5.710938-66.878906c-.148437-1.710937-.730468-3.355468-1.695312-4.773437l-60.734375-89.359375c-4.371094-6.429688-5.0625-14.804688-1.808594-21.867188l50.695313-109.925781c5.816406 11.363281 6.691406 24.863281 1.910156 37.238281l-29.859375 77.285156c-1.355469 3.515626-.625 7.492188 1.894531 10.292969l30.75 34.191407c10.652344 11.847656 25.898438 18.640624 41.832032 18.640624 5.425781 0 10.769531-.804687 15.871093-2.316406l23.742188 49.832032c-21.800781 8.773437-36.144531 29.765624-36.144531 53.605468v153.808594c0 1.710938.4375 3.390625 1.269531 4.882812l14.089843 25.179688h-15.769531c-9.019531 0-16.402343-6.777344-17.171875-15.769531l-6.078125-71.160157c-.46875-5.503906-5.3125-9.582031-10.816406-9.113281-5.5.46875-9.582031 5.3125-9.109375 10.8125l6.078125 71.164063c.433594 5.074218 1.847656 9.820312 4.042969 14.066406h-141.121094c-5.523438 0-10 4.476562-10 10 0 5.519531 4.476562 10 10 10h491.957031c5.523438 0 10-4.480469 10-10 0-5.523438-4.476562-10-10-10zm-117.160156-376.027344c3.363281-1.3125 5.757813-4.339844 6.261719-7.914062l11.871094-83.984375c9.527343 6.285156 15.074218 17.722656 13.363281 29.605469l-9.429688 65.53125c-.902343 6.273437-5.15625 11.542968-11.097656 13.746093l-55.679687 20.65625c.246093-6.496093-1.078126-12.898437-3.796876-18.695312zm-230.648437 59.019532-26.644532-29.628907 27.648438-71.558593c2.777344-7.1875 4.226562-14.636719 4.417968-22.039063l72.222657 73.367187c2.640625 2.679688 3.125 6.804688 1.171875 10.023438l-20.847656 34.386719c-6.53125 10.773437-18.410157 17.464843-31.007813 17.464843-10.269531 0-20.09375-4.378906-26.960937-12.015624zm75.070312 4.917968 20.847656-34.386718c6.703125-11.054688 5.046875-25.210938-4.019531-34.421876l-89.671875-91.089843h17.28125l114.3125 103.007812c.675781.609375 1.429688 1.121094 2.242188 1.527344l18.585937 9.230469c1.804687.929687 3.410156 2.082031 4.8125 3.402344.105469.109374.21875.207031.324219.3125 6.164062 6.058593 8.039062 15.484374 4.070312 23.726562l-9.378906 19.5c-14.34375 29.808594-39.058594 53.523438-69.085938 66.792969l-24.683593-51.804688c5.6875-4.253906 10.601562-9.585937 14.363281-15.796875zm0 0"/></svg>