<svg viewBox="0 0 511 512" xmlns="http://www.w3.org/2000/svg"><path d="m359.386719 376.824219v-106.824219l-27.613281-232.453125c-1.867188-15.710937-15.191407-27.546875-31.011719-27.546875h-33.042969l19.074219 25v316.199219c0 20.765625-9.300781 40.4375-25.351563 53.613281l-1.917968 1.574219c-16.050782 13.175781-25.351563 32.847656-25.351563 53.613281 0 23.195312 18.800781 42 42 42h99.421875c19.253906 0 33.351562-18.144531 28.59375-36.804688l-14.945312-58.601562c-5.433594-21.316406-26.65625-34.597656-48.203126-30.167969l-2.796874.574219 16.664062 83h-58.128906 70.722656zm0 0" fill="#fcb8e7"/><path d="m359.386719 270-27.613281-232.453125c-1.867188-15.710937-15.191407-27.546875-31.011719-27.546875h-33.042969l19.074219 25v235zm0 0" fill="#72d8ff"/><path d="m234.171875 460c0-23.195312-18.804687-42-42-42h-16.617187c-23.195313 0-42 18.804688-42 42s18.804687 42 42 42h16.617187c23.195313 0 42-18.804688 42-42zm0 0" fill="#feda9b"/><path d="m124.921875 454.332031-2.765625.941407c-12.546875 4.265624-19.257812 17.902343-14.992188 30.449218 4.269532 12.546875 17.90625 19.261719 30.453126 14.992188l12.046874-4.101563" fill="#ffb954"/><path d="m502.46875 492h-92.527344c5.046875-8.835938 6.5-19.222656 3.9375-29.273438l-14.945312-58.605468c-4.09375-16.058594-15.355469-28.417969-29.546875-34.464844v-99.65625c0-.378906-.027344-.75-.066407-1.117188-.003906-.019531-.003906-.042968-.003906-.0625l-27.613281-232.453124c-2.464844-20.730469-20.066406-36.367188-40.941406-36.367188h-33.042969c-3.804688 0-7.277344 2.15625-8.964844 5.5625-1.6875 3.410156-1.292968 7.480469 1.015625 10.503906l17.023438 22.3125v93.621094c0 5.523438 4.476562 10 10 10 5.523437 0 10-4.476562 10-10v-97c0-2.191406-.71875-4.324219-2.050781-6.066406l-6.816407-8.933594h12.835938c10.75 0 19.8125 8.050781 21.082031 18.726562l26.285156 221.273438h-51.335937v-39c0-5.523438-4.476563-10-10-10-5.523438 0-10 4.476562-10 10v130.199219c0 17.839843-7.90625 34.5625-21.695313 45.882812l-1.921875 1.578125c-9.269531 7.609375-16.550781 17.050782-21.5 27.582032-9.542969-11.152344-23.707031-18.242188-39.503906-18.242188h-16.617187c-23.238282 0-42.960938 15.324219-49.605469 36.394531-1.390625-.148437-2.835938-.011719-4.253907.46875l-2.757812.941407c-17.75 6.039062-27.277344 25.390624-21.238281 43.140624.359375 1.050782.777343 2.0625 1.222656 3.054688h-88.421875c-5.523438 0-10 4.476562-10 10s4.476562 10 10 10h491.96875c5.523438 0 10-4.476562 10-10s-4.476562-10-10-10zm-378.636719-26.617188c1 9.679688 4.671875 18.582032 10.257813 25.953126-7.222656 2.273437-15.003906-1.625-17.457032-8.832032-2.304687-6.773437.902344-14.105468 7.199219-17.121094zm51.722657 26.617188c-17.644532 0-32-14.355469-32-32s14.355468-32 32-32h16.617187c17.640625 0 31.992187 14.347656 32 31.988281v.011719.011719c-.007813 17.636719-14.359375 31.988281-32 31.988281zm100.617187 0c-17.644531 0-31.996094-14.351562-32-31.988281 0-.003907 0-.007813 0-.011719s0-.007812 0-.007812c0-17.835938 7.90625-34.558594 21.695313-45.875l1.917968-1.578126c18.433594-15.132812 29.007813-37.488281 29.007813-61.339843v-71.199219h52.59375v85.574219c-3.417969 0-6.882813.339843-10.359375 1.054687l-2.800782.574219c-5.390624 1.109375-8.875 6.367187-7.789062 11.765625l14.261719 71.03125h-45.921875c-5.523438 0-10 4.476562-10 10s4.476562 10 10 10h58.128906c3 0 5.835938-1.34375 7.738281-3.664062 1.898438-2.316407 2.660157-5.367188 2.066407-8.304688l-14.546876-72.449219c13.667969.34375 25.871094 9.675781 29.390626 23.480469l14.945312 58.605469c1.5 5.878906.222656 12-3.5 16.792969-3.722656 4.792968-9.339844 7.539062-15.40625 7.539062zm0 0"/><path d="m286.789062 185c2.640626 0 5.222657-1.070312 7.070313-2.929688 1.871094-1.859374 2.929687-4.441406 2.929687-7.070312s-1.058593-5.210938-2.929687-7.070312c-1.847656-1.859376-4.429687-2.929688-7.070313-2.929688-2.628906 0-5.210937 1.070312-7.070312 2.929688-1.859375 1.859374-2.929688 4.441406-2.929688 7.070312s1.070313 5.210938 2.929688 7.070312c1.859375 1.859376 4.441406 2.929688 7.070312 2.929688zm0 0"/></svg>