<svg height="511pt" viewBox="0 0 511.99795 511" width="511pt" xmlns="http://www.w3.org/2000/svg"><path d="m511 224.984375c3.835938-26.160156-3.78125-52.527344-20.890625-72.316406-32.28125-37.324219-94.257813-40.398438-130.058594-6.460938-6.003906 5.699219-6.253906 15.207031-.554687 21.210938l-1.65625 138.511719c25.355468 34.789062 66.164062 55.5625 109.15625 55.5625h30c6.0625 0 11.542968-3.648438 13.855468-9.257813 2.328126-5.609375 1.039063-12.058594-3.25-16.347656-30-30-17.105468-44.808594 3.398438-110.902344zm0 0" fill="#dabba6"/><path d="m151.953125 146.207031c-35.785156-33.9375-97.789063-30.863281-130.058594 6.460938-17.109375 19.789062-24.726562 46.15625-20.375 74.601562 19.9375 62.539063 32.933594 78.566407 2.886719 108.617188-9.410156 9.40625-2.757812 25.601562 10.601562 25.601562h30c42.992188 0 83.804688-20.769531 109.15625-55.558593l-1.652343-138.511719c5.695312-6.003907 5.449219-15.511719-.558594-21.210938zm0 0" fill="#f4d7af"/><path d="m331 75.496094c0 6.300781-.898438 12.601562-2.398438 18.601562-1.800781 6.898438-7.800781 11.398438-14.398437 11.398438-1.199219 0-2.703125-.300782-3.902344-.601563h-108.597656c-8.097656 2.101563-16.195313-2.699219-18.296875-10.796875-1.5-6-2.402344-12.300781-2.402344-18.601562 0-41.699219 61.796875-70.5 69-73.796875 1.5-.601563 3.296875-.898438 5.097656-1.199219 2.398438 0 4.800782.300781 6.902344 1.199219 7.199219 3.300781 68.996094 32.097656 68.996094 73.796875zm0 0" fill="#ffcd00"/><path d="m391 196.496094v29.996094h-30c0-24.898438-20.097656-44.996094-45-44.996094-23.695312 0-44.996094 20.097656-44.996094 44.996094h-30c0-24.898438-20.097656-44.996094-45-44.996094-24.898437 0-44.996094 20.097656-44.996094 44.996094h-30v-29.996094c0-73.800782 59.996094-134.398438 134.09375-134.996094 75.296876 0 135.898438 60.59375 135.898438 134.996094zm0 0" fill="#ffe470"/><path d="m331 75.496094c0 6.300781-.898438 12.601562-2.398438 18.601562-1.800781 6.898438-7.800781 11.398438-14.398437 11.398438-1.199219 0-2.703125-.300782-3.902344-.601563h-55.199219v-104.394531c2.402344 0 4.800782.300781 6.902344 1.199219 7.199219 3.300781 68.996094 32.097656 68.996094 73.796875zm0 0" fill="#fdbf00"/><path d="m391 196.496094v29.996094h-30c0-24.898438-20.097656-44.996094-45-44.996094-23.695312 0-44.996094 20.097656-44.996094 44.996094h-15.902344v-164.992188c75.296876 0 135.898438 60.59375 135.898438 134.996094zm0 0" fill="#ffcd00"/><path d="m391 226.492188v30c0 54.597656-32.699219 103.496093-82.5 124.199218-3.296875 1.796875-47.699219 17.695313-51.597656 17.695313-.296875 0-.898438 0-1.800782-.296875-9-2.101563-46.195312-14.703125-48.597656-15.898438-51.597656-20.402344-85.496094-69.902344-85.496094-125.699218v-30c0-38.398438 28.800782-70.199219 65.996094-74.398438l68.097656 67.5 7.800782 7.800781 59.699218-75.597656c38.398438 3.300781 68.398438 35.398437 68.398438 74.695313zm0 0" fill="#dabba6"/><path d="m391 226.492188v30c0 54.597656-32.699219 103.496093-82.5 124.199218-3.296875 1.796875-47.699219 17.695313-51.597656 17.695313-.296875 0-.898438 0-1.800782-.296875v-178.496094l7.800782 7.800781 59.699218-75.597656c38.398438 3.300781 68.398438 35.398437 68.398438 74.695313zm0 0" fill="#c89978"/><path d="m151.007812 407.488281c0-8.398437-6.601562-15-15-15h-60c-8.402343 0-15 6.601563-15 15 0 57.898438 47.097657 104.996094 104.996094 104.996094h35.402344c19.5 0 37.796875-5.398437 53.695312-14.699219 28.800782-17.398437 48.898438-48 51.300782-83.699218l2.097656-33.394532 14.101562-228.894531c-21.601562-3.003906-49.5 6.898437-66.597656 29.699219l-.902344-.902344c-15.296874-20.097656-39-31.5-68.097656-28.5l19.5 230.097656 1.800782 23.097656c.601562 9.296876-6.601563 17.199219-15 17.199219" fill="#f4d7af"/><path d="m322.601562 151.796875-14.101562 228.894531-2.097656 33.394532c-2.402344 35.699218-22.5 66.300781-51.300782 83.699218v-317.191406l.902344.902344c17.097656-22.800782 44.996094-32.703125 66.597656-29.699219zm0 0" fill="#dabba6"/><path d="m211.003906 226.492188c0 8.285156-6.714844 15-15 15-8.28125 0-15-6.714844-15-15 0-8.28125 6.71875-14.996094 15-14.996094 8.285156 0 15 6.714844 15 14.996094zm0 0" fill="#895d3c"/><path d="m331 226.492188c0 8.285156-6.714844 15-15 15-8.28125 0-15-6.714844-15-15 0-8.28125 6.71875-14.996094 15-14.996094 8.285156 0 15 6.714844 15 14.996094zm0 0" fill="#714c2f"/></svg>