<?xml version="1.0" encoding="iso-8859-1"?>
<!-- Generator: Adobe Illustrator 21.0.0, SVG Export Plug-In . SVG Version: 6.00 Build 0)  -->
<svg xmlns="http://www.w3.org/2000/svg" xmlns:xlink="http://www.w3.org/1999/xlink" version="1.1" id="Capa_1" x="0px" y="0px" viewBox="0 0 512 512" style="enable-background:new 0 0 512 512;" xml:space="preserve" width="512" height="512">
<g>
	<path style="fill:#EE5CA3;" d="M291.261,309.713l6.377,79.161c1.747,21.687-2.442,48.134-21.709,74.665   c-16.878,23.242-42.865,39.189-71.298,43.752c-28.892,4.569-57.796-2.367-81.42-19.524l-17.78-12.912   c-27.988-20.325-34.218-59.636-13.888-87.631c8.351-11.499,28.533-43.266,73.652-60.021c1.395-0.519,13.668-4.465,23.143-17.513   l19-26.163c6.08-8.372,18.626-8.202,24.484,0.305c2.199,3.193,4.925,5.982,8.102,8.288c9.06,6.58,20.832,8.308,31.488,4.624   C280.725,293.525,290.478,299.999,291.261,309.713z"/>
	<path style="fill:#F498C5;" d="M226.646,308.095L153.321,338.6c-20.089,8.358-46.536,12.538-77.719,2.403   c-27.317-8.878-50.509-28.672-63.627-54.308c-13.265-26.07-15.591-55.703-6.567-83.471l6.792-20.898   c10.691-32.896,46.159-50.958,79.062-40.264c13.516,4.393,49.961,13.781,79.828,51.523c0.924,1.167,8.466,11.621,23.802,16.606   l30.751,9.994c9.84,3.198,13.552,15.184,7.269,23.382c-2.358,3.077-4.169,6.531-5.382,10.265   c-3.461,10.649-1.471,22.379,5.324,31.377C238.791,293.076,235.644,304.351,226.646,308.095z"/>
	<path style="fill:#D6216E;" d="M207.245,356.71"/>
	<path style="fill:#EE5CA3;" d="M208.23,246.157l-51.676-60.306c-14.158-16.522-26.308-40.382-26.308-73.171   c0-28.724,11.656-56.898,31.982-77.297c20.693-20.674,48.156-32.046,77.353-32.046h21.974c34.589,0,62.73,28.148,62.73,62.745   c0,14.212,2.336,51.774-24.326,91.844c-0.824,1.24-8.435,11.644-8.435,27.77v32.335c0,10.347-10.252,17.581-19.99,14.141   c-3.655-1.291-7.5-1.946-11.426-1.946c-11.198,0-21.738,5.518-28.195,14.762C226.267,253.065,214.571,253.557,208.23,246.157z"/>
	<path style="fill:#D6216E;" d="M261.555,3.337h-2.505v226.921c0.352-0.011,0.703-0.032,1.057-0.032   c3.926,0,7.771,0.655,11.426,1.946c9.739,3.441,19.99-3.794,19.99-14.141v-32.335c0-16.126,7.611-26.53,8.435-27.77   c26.663-40.07,24.326-77.633,24.326-91.844C324.285,31.485,296.145,3.337,261.555,3.337z"/>
	<path style="fill:#EE5CA3;" d="M261.506,209.5l41.458-67.738c11.358-18.558,30.316-37.467,61.511-47.566   c27.328-8.847,57.722-6.435,83.39,6.62c26.042,13.32,45.32,35.946,54.312,63.723l6.768,20.906   c10.653,32.908-7.459,68.35-40.374,79.006c-13.521,4.377-48.538,18.169-94.872,5.144c-1.433-0.402-13.676-4.439-29.018,0.528   l-30.763,9.959c-9.844,3.187-19.884-4.338-19.61-14.663c0.103-3.875-0.459-7.735-1.668-11.47   c-3.449-10.653-11.945-18.982-22.728-22.278C260.489,228.788,256.419,217.812,261.506,209.5z"/>
	<path style="fill:#AC014D;" d="M312.751,248.764l77.26,18.388c21.167,5.037,45.026,17.191,64.307,43.711   c16.892,23.232,24.032,52.875,19.588,81.326c-4.58,28.89-20.105,54.238-43.72,71.408l-17.773,12.922   c-27.976,20.341-67.29,14.123-87.635-13.86c-8.357-11.495-32.336-40.502-34.335-88.59c-0.062-1.487-0.025-14.378-9.508-27.421   l-19.015-26.153c-6.085-8.369-2.047-20.249,7.853-23.193c3.716-1.105,7.211-2.837,10.386-5.145   c9.057-6.585,14.337-17.246,14.124-28.52C294.1,253.784,303.271,246.508,312.751,248.764z"/>
	<path style="fill:#D6216E;" d="M291.261,309.713c-0.783-9.714-10.535-16.189-19.849-12.969c-4.03,1.393-8.219,2.01-12.36,1.886   v183.232c6.286-5.425,11.97-11.562,16.879-18.322c19.267-26.531,23.456-52.977,21.709-74.665L291.261,309.713z"/>
	<path style="fill:#FFDE00;" d="M260.107,328.669c-35.433,0-64.259-28.808-64.259-64.218s28.826-64.218,64.259-64.218   c35.388,0,64.178,28.808,64.178,64.218S295.495,328.669,260.107,328.669z"/>
	<path style="fill:#FFBF00;" d="M260.107,200.233c-0.354,0-0.704,0.021-1.057,0.027v128.383c0.353,0.006,0.702,0.027,1.057,0.027   c35.388,0,64.178-28.808,64.178-64.218S295.495,200.233,260.107,200.233z"/>
</g>















</svg>
