<?xml version="1.0" encoding="iso-8859-1"?>
<!-- Generator: Adobe Illustrator 21.0.0, SVG Export Plug-In . SVG Version: 6.00 Build 0)  -->
<svg xmlns="http://www.w3.org/2000/svg" xmlns:xlink="http://www.w3.org/1999/xlink" version="1.1" id="Capa_1" x="0px" y="0px" viewBox="0 0 512 512" style="enable-background:new 0 0 512 512;" xml:space="preserve" width="512" height="512">
<g>
	<path style="fill:#73FF5C;" d="M256.001,447.733h-16.083c-61.515,0-111.384-49.767-111.384-111.384c0-8.284,6.716-15.017,15-15.017   h16.067c61.514,0,111.4,49.778,111.4,111.4C271.001,441.018,264.285,447.733,256.001,447.733z"/>
	<path style="fill:#3CD643;" d="M272.067,512h-16.066c-8.284,0-15-6.716-15-15c0-61.524,49.785-111.4,111.4-111.4h16.066   c8.284,0,15,6.716,15,15C383.467,462.136,333.685,512,272.067,512z"/>
	<path style="fill:#B0FF9A;" d="M256.001,512c-8.284,0-15-6.716-15-15V256c0-8.284,6.716-15,15-15s15,6.716,15,15v241   C271.001,505.284,264.285,512,256.001,512z"/>
	<path style="fill:#73FF5C;" d="M271.001,497V256c0-8.284-6.716-15-15-15v271C264.285,512,271.001,505.284,271.001,497z"/>
	<path style="fill:#D6216E;" d="M314.811,57.74c-2.93,2.93-6.77,4.39-10.61,4.39h-96.76c-3.72-0.08-7.41-1.55-10.25-4.39   c-5.85-5.86-5.85-15.36,0-21.21l32.14-32.14c2.81-2.81,6.62-4.39,10.6-4.39h32.14c3.97,0,7.79,1.58,10.6,4.39l32.14,32.14   C320.671,42.38,320.671,51.88,314.811,57.74z"/>
	<path style="fill:#AC014D;" d="M282.671,4.39c-2.81-2.81-6.63-4.39-10.6-4.39h-16.066v62.13h48.196c3.84,0,7.68-1.46,10.61-4.39   c5.86-5.86,5.86-15.36,0-21.21L282.671,4.39z"/>
	<path style="fill:#D6216E;" d="M223.855,126.401h112.479c8.284,0,15-6.716,15-15V47.134c0-8.243-6.655-14.994-14.898-15   c-44.979-0.032-87.945,21.436-114.924,57.414l-9.646,12.854c-4.97,6.628-3.626,16.029,3.002,21   C217.566,125.424,220.723,126.401,223.855,126.401z"/>
	<path style="fill:#F498C5;" d="M288.146,126.401H175.667c-8.284,0-15-6.716-15-15V47.134c0-8.243,6.655-14.994,14.898-15   c44.979-0.032,87.945,21.436,114.924,57.414l9.646,12.854c4.97,6.628,3.626,16.029-3.002,21   C294.435,125.424,291.278,126.401,288.146,126.401z"/>
	<path style="fill:#EE5CA3;" d="M290.49,89.548c-9.658-12.879-21.372-23.886-34.486-32.726v69.58h32.142   c3.132,0,6.289-0.978,8.987-3c6.628-4.971,7.972-14.372,3.002-21L290.49,89.548z"/>
	<path style="fill:#AC014D;" d="M381.891,102.03c-2.763,5.541-14.49,26.851-14.49,57.57c0,29.77-11.59,57.74-32.62,78.78   c-21.04,21.03-49.01,32.62-78.76,32.62c-6.418,0-15.01-5.071-15.01-15l-0.01-102.972c0-8.808,1.1-17.674,15.004-26.706   c38.118-24.759,67.016-45.992,112.456-45.992c5.2,0,10.03,2.69,12.76,7.11C383.951,91.86,384.211,97.38,381.891,102.03z"/>
	<path style="fill:#EE5CA3;" d="M357.631,205.36c-3.313,7.369-10.021,20.19-22.85,33.02c-21.04,21.03-49.01,32.62-78.76,32.62   c-12.464,0-48.203-1.153-79.23-32.18c-31.078-31.064-32.19-66.883-32.19-79.22c0-18.7-4.42-37.43-12.79-54.16l-1.7-3.41   c-2.32-4.65-2.07-10.17,0.67-14.59c2.73-4.42,7.56-7.11,12.75-7.11c34.41,0,68.31,11.64,95.46,32.76L357.631,205.36z"/>
	<path style="fill:#D6216E;" d="M256.004,271c0.005,0,0.011,0,0.016,0c29.75,0,57.72-11.59,78.76-32.62   c12.829-12.83,19.537-25.651,22.85-33.02l-101.626-79.038V271z"/>
</g>















</svg>
