<svg height="512pt" viewBox="-1 0 512 512.00048" width="512pt" xmlns="http://www.w3.org/2000/svg"><path d="m167.300781 183.039062c7.910157 0 15.484375-6.953124 15.121094-15.117187-.367187-8.191406-6.644531-15.121094-15.121094-15.121094-7.90625 0-15.484375 6.957031-15.117187 15.121094.367187 8.191406 6.644531 15.117187 15.117187 15.117187zm0 0" fill="#ffda45"/><path d="m167.917969 359.820312c7.90625 0 15.484375-6.953124 15.117187-15.121093-.367187-8.1875-6.644531-15.117188-15.117187-15.117188-7.910157 0-15.484375 6.953125-15.117188 15.117188.363281 8.191406 6.640625 15.121093 15.117188 15.121093zm0 0" fill="#ffda45"/><path d="m344.699219 359.203125c7.90625 0 15.480469-6.953125 15.117187-15.117187-.367187-8.191407-6.644531-15.117188-15.117187-15.117188-7.910157 0-15.484375 6.953125-15.121094 15.117188.367187 8.191406 6.644531 15.117187 15.121094 15.117187zm0 0" fill="#ffb13b"/><path d="m344.082031 182.425781c7.910157 0 15.484375-6.957031 15.117188-15.121093-.367188-8.191407-6.640625-15.117188-15.117188-15.117188-7.90625 0-15.484375 6.953125-15.117187 15.117188.367187 8.191406 6.640625 15.121093 15.117187 15.121093zm0 0" fill="#ffb13b"/><path d="m78.601562 512c-1.617187 0-3.253906-.261719-4.851562-.800781-6.136719-2.078125-10.265625-7.839844-10.265625-14.316407v-90.21875c0-.769531.058594-1.539062.175781-2.296874 1.132813-7.375 7.480469-12.828126 14.941406-12.828126h.003907l136.769531.007813v-94.921875h-139.71875c-20.09375 0-36.445312-16.347656-36.445312-36.445312v-144.082032l-33.285157-25.492187c-5.144531-3.9375-7.203125-10.71875-5.125-16.855469s7.839844-10.265625 14.316407-10.265625h68.894531c9.734375 0 18.886719 3.792969 25.773437 10.675781 6.882813 6.886719 10.671875 16.039063 10.671875 25.773438v115.445312h94.921875v-139.71875c0-20.097656 16.347656-36.445312 36.441406-36.445312h144.078126l25.492187-33.289063c3.9375-5.144531 10.71875-7.203125 16.855469-5.125 6.136718 2.082031 10.265625 7.839844 10.265625 14.320313v68.894531c0 20.09375-16.347657 36.445313-36.441407 36.445313h-115.449218v94.921874h139.722656c20.09375 0 36.445312 16.347657 36.445312 36.441407v144.078125l33.285157 25.492187c5.140625 3.9375 7.203125 10.71875 5.125 16.855469s-7.839844 10.265625-14.316407 10.265625h-90.21875c-4.011718 0-7.855468-1.589844-10.691406-4.425781-.710937-.710938-1.339844-1.480469-1.890625-2.304688-1.644531-2.464844-2.542969-5.382812-2.542969-8.390625l.003907-136.769531h-94.921875v139.722656c0 20.09375-16.347656 36.445313-36.441406 36.445313h-144.082032l-25.492187 33.277343c-2.914063 3.8125-7.386719 5.929688-12.003907 5.929688zm0 0" fill="#ff5542"/><path d="m506.074219 421.394531-33.285157-25.492187v-144.078125c0-20.09375-16.351562-36.441407-36.445312-36.441407h-139.722656v-94.921874h115.449218c20.09375 0 36.441407-16.347657 36.441407-36.445313v-68.894531c0-6.480469-4.128907-12.238282-10.265625-14.320313-6.136719-2.078125-12.914063-.015625-16.855469 5.125l-25.492187 33.289063h-139.894532v433.578125h4.171875c20.097657 0 36.445313-16.347657 36.445313-36.445313v-139.722656h94.921875l-.003907 136.769531c0 3.007813.898438 5.925781 2.542969 8.394531.546875.820313 1.179688 1.59375 1.886719 2.300782 2.835938 2.835937 6.683594 4.429687 10.691406 4.429687l90.21875-.003906c6.480469 0 12.238282-4.128906 14.320313-10.265625 2.078125-6.136719.015625-12.917969-5.125-16.855469zm0 0" fill="#f01f4c"/></svg>