<?xml version="1.0" encoding="iso-8859-1"?>
<!-- Generator: Adobe Illustrator 21.0.0, SVG Export Plug-In . SVG Version: 6.00 Build 0)  -->
<svg xmlns="http://www.w3.org/2000/svg" xmlns:xlink="http://www.w3.org/1999/xlink" version="1.1" id="Capa_1" x="0px" y="0px" viewBox="0 0 512 512" style="enable-background:new 0 0 512 512;" xml:space="preserve" width="512" height="512">
<g>
	<path style="fill:#3CD643;" d="M288.134,463.8H256c-8.284,0-15-6.716-15-15v-32.133c0-61.512,49.776-111.4,111.4-111.4h32.133   c8.284,0,15,6.716,15,15V352.4C399.533,413.925,349.761,463.8,288.134,463.8z"/>
	<path style="fill:#73FF5C;" d="M256,463.8h-32.134c-61.528,0-111.399-49.771-111.399-111.399v-32.134c0-8.284,6.716-15,15-15H159.6   c61.512,0,111.4,49.776,111.4,111.4V448.8C271,457.084,264.284,463.8,256,463.8z"/>
	<path style="fill:#B0FF9A;" d="M256,512c-8.284,0-15-6.716-15-15V239.934c0-8.284,6.716-15,15-15s15,6.716,15,15V497   C271,505.284,264.284,512,256,512z"/>
	<path style="fill:#73FF5C;" d="M271,497V239.934c0-8.284-6.716-15-15-15V512C264.284,512,271,505.284,271,497z"/>
	<path style="fill:#EE5CA3;" d="M338.834,82.842c0-0.092-0.011-0.183-0.013-0.275c-0.068-3.747-1.521-7.473-4.379-10.332   L266.607,4.394C263.794,1.581,259.979,0,256,0s-7.794,1.58-10.606,4.394l-67.842,67.842c-2.929,2.929-4.394,6.768-4.394,10.607   c0,3.839,1.464,7.678,4.394,10.607l67.842,67.842c2.813,2.813,6.628,4.394,10.606,4.394s7.794-1.581,10.607-4.394l67.834-67.842   c2.859-2.859,4.312-6.586,4.379-10.332C338.823,83.025,338.834,82.934,338.834,82.842z"/>
	<path style="fill:#D6216E;" d="M266.607,161.291l67.834-67.842c2.859-2.859,4.312-6.586,4.379-10.332   c0.002-0.092,0.013-0.183,0.013-0.275s-0.011-0.183-0.013-0.275c-0.068-3.747-1.521-7.473-4.379-10.332L266.607,4.394   C263.794,1.581,259.979,0,256,0v165.685C259.979,165.685,263.794,164.104,266.607,161.291z"/>
	<path style="fill:#EE5CA3;" d="M256.017,271c-8.284,0-15.017-6.716-15.017-15v-64.837c0-38.933,17.436-75.211,47.836-99.533   c31.908-25.53,70.261-56.21,70.261-56.21c4.504-3.602,10.673-4.302,15.868-1.806c5.197,2.498,8.502,7.754,8.502,13.52v96.416   c0,34.041-13.257,66.047-37.33,90.12C322.074,257.742,290.068,271,256.017,271z"/>
	<path style="fill:#F498C5;" d="M256,271c-70.285,0-127.467-57.182-127.467-127.467V47.134c0-5.767,3.306-11.022,8.503-13.52   c5.196-2.498,11.366-1.795,15.868,1.807l70.259,56.208C253.564,115.952,271,152.23,271,191.163V256   C271,264.284,264.284,271,256,271z"/>
</g>















</svg>
